mtllib pink_guns.mtl
o Body
g Body
usemtl PinkWhite
v 0.02217 0.21623 -1.14315
v 0.02217 0.28579 -1.02832
v -0.02217 0.28579 -1.02832
v -0.02217 0.21623 -1.14315
v 0.02217 0.32765 -1.05342
v 0.02217 0.32447 -1.13449
v 0.02217 0.35441 -1.10602
v 0.02217 0.36952 -1.07852
v -0.02217 0.32765 -1.05342
v -0.02217 0.36952 -1.07852
v 0.02217 0.42314 -1.09973
v -0.02217 0.42314 -1.09973
v -0.02217 0.42368 -1.07828
v 0.02217 0.42368 -1.07828
v -0.02217 0.38772 -1.11133
v -0.02217 0.39554 -1.08686
v -0.02217 0.32447 -1.13449
v -0.02217 0.35441 -1.10602
v 0.02217 0.38772 -1.11133
v 0.02217 0.39554 -1.08686
v -0.07068 0.27605 2.43499
v -0.06121 0.31139 2.43499
v -0.06121 0.31139 -0.19389
v -0.07068 0.27605 -0.19389
v -0.03534 0.33726 2.43499
v -0.03534 0.33726 -0.19389
v -0.00000 0.34672 2.43499
v -0.00000 0.34672 -0.19389
v 0.03534 0.33726 2.43499
v 0.03534 0.33726 -0.19389
v 0.06121 0.31139 2.43499
v 0.06121 0.31139 -0.19389
v 0.07068 0.27605 2.43499
v 0.07068 0.27605 -0.19389
v 0.06121 0.24071 2.43499
v 0.06121 0.24071 -0.19389
v 0.03534 0.21484 2.43499
v 0.03534 0.21484 -0.19389
v 0.00000 0.20537 2.43499
v -0.00000 0.20537 -0.19389
v -0.03534 0.21484 2.43499
v -0.03534 0.21484 -0.19389
v -0.06121 0.24071 2.43499
v -0.06121 0.24071 -0.19389
v -0.03982 0.20708 2.43670
v -0.06897 0.23623 2.43670
v 0.03982 0.20708 2.43670
v 0.03982 0.20708 2.52204
v 0.00000 0.19641 2.52204
v 0.00000 0.19641 2.43670
v -0.06897 0.31587 2.43670
v -0.03982 0.34502 2.43670
v 0.06897 0.23623 2.43670
v 0.07964 0.27605 2.43670
v 0.06897 0.31587 2.43670
v 0.03982 0.34502 2.43670
v -0.00000 0.35569 2.43670
v -0.07964 0.27605 2.43670
v -0.06897 0.31587 2.52204
v -0.06175 0.31170 2.52375
v -0.03565 0.33780 2.52375
v -0.03982 0.34502 2.52204
v 0.06897 0.31587 2.52204
v 0.07964 0.27605 2.52204
v -0.00000 0.35569 2.52204
v -0.03982 0.20708 2.52204
v 0.06897 0.23623 2.52204
v 0.03982 0.34502 2.52204
v -0.06897 0.23623 2.52204
v -0.07964 0.27605 2.52204
v -0.06175 0.24040 2.52375
v -0.06175 0.24040 2.60000
v -0.07131 0.27605 2.60000
v -0.07131 0.27605 2.52375
v 0.03565 0.21430 2.52375
v 0.00000 0.20474 2.52375
v 0.06175 0.31170 2.52375
v 0.07131 0.27605 2.52375
v -0.00000 0.34735 2.52375
v -0.03565 0.21430 2.52375
v 0.06175 0.24040 2.52375
v 0.03565 0.33780 2.52375
v 0.03565 0.33780 2.60000
v 0.02499 0.31934 2.60000
v 0.04329 0.30104 2.60000
v 0.06175 0.31170 2.60000
v -0.06175 0.31170 2.60000
v -0.03565 0.33780 2.60000
v 0.03565 0.21430 2.60000
v 0.00000 0.20474 2.60000
v 0.07131 0.27605 2.60000
v -0.00000 0.34735 2.60000
v -0.03565 0.21430 2.60000
v 0.06175 0.24040 2.60000
v 0.02499 0.31934 2.16569
v 0.04329 0.30104 2.16569
v -0.04329 0.25106 2.60000
v -0.04999 0.27605 2.60000
v -0.04329 0.30104 2.60000
v -0.02499 0.31934 2.60000
v 0.02499 0.23276 2.60000
v -0.00000 0.22606 2.60000
v 0.04999 0.27605 2.60000
v -0.00000 0.32604 2.60000
v -0.02499 0.23276 2.60000
v 0.04329 0.25106 2.60000
v -0.04999 0.27605 2.16569
v -0.04329 0.25105 2.16569
v -0.02499 0.23276 2.16569
v -0.00000 0.22606 2.16569
v 0.02499 0.23276 2.16569
v 0.04329 0.25105 2.16569
v 0.04999 0.27605 2.16569
v -0.00000 0.32604 2.16569
v -0.02499 0.31934 2.16569
v -0.04329 0.30104 2.16569
v -0.07068 0.09180 2.09082
v -0.06121 0.12714 2.09082
v -0.06121 0.12714 -0.19389
v -0.07068 0.09180 -0.19389
v -0.03534 0.15301 2.09082
v -0.03534 0.15301 -0.19389
v -0.00000 0.16248 2.09082
v -0.00000 0.16248 -0.19389
v 0.03534 0.15301 2.09082
v 0.03534 0.15301 -0.19389
v 0.06121 0.12714 2.09082
v 0.06121 0.12714 -0.19389
v 0.07068 0.09180 2.09082
v 0.07068 0.09180 -0.19389
v 0.06121 0.05647 2.09082
v 0.06121 0.05647 -0.19389
v 0.03534 0.03060 2.09082
v 0.03534 0.03060 -0.19389
v -0.00000 0.02113 2.09082
v -0.00000 0.02113 -0.19389
v -0.03534 0.03060 2.09082
v -0.03534 0.03060 -0.19389
v -0.06121 0.05647 2.09082
v -0.06121 0.05647 -0.19389
v -0.00000 0.18384 2.09082
v 0.04602 0.17151 2.09082
v 0.09204 0.09180 2.09082
v 0.09204 0.09180 2.23855
v 0.07971 0.04578 2.23855
v 0.07971 0.04578 2.09082
v -0.07971 0.04578 2.09082
v -0.09204 0.09180 2.09082
v -0.07971 0.13782 2.09082
v -0.04602 0.17151 2.09082
v -0.04602 0.01209 2.09082
v -0.00000 -0.00024 2.09082
v 0.04602 0.01209 2.09082
v 0.07971 0.13782 2.09082
v -0.09204 0.09180 2.23855
v -0.07971 0.04578 2.23855
v -0.04602 0.01209 2.23855
v -0.00000 -0.00024 2.23855
v 0.04602 0.01209 2.23855
v 0.07971 0.13782 2.23855
v 0.04602 0.17151 2.23855
v -0.00000 0.18384 2.23855
v -0.04602 0.17151 2.23855
v -0.07971 0.13782 2.23855
v -0.11080 0.00167 -0.17107
v -0.11080 0.00167 -0.13826
v -0.11080 0.29201 -0.13826
v -0.11080 0.29201 -0.17107
v 0.11080 0.00167 -0.17107
v 0.08233 -0.04265 -0.17107
v -0.08233 -0.04265 -0.17107
v -0.06355 0.36953 -0.17107
v 0.06355 0.36953 -0.17107
v 0.11080 0.29201 -0.17107
v -0.06355 0.36953 -0.13826
v 0.06355 0.36953 -0.13826
v -0.08233 -0.04265 -0.13826
v 0.08233 -0.04265 -0.13826
v 0.11080 0.00167 -0.13826
v 0.11080 0.29201 -0.13826
v -0.08166 0.09099 2.00305
v -0.07072 0.05016 2.00305
v -0.04083 0.02027 2.00305
v -0.00000 0.00933 2.00305
v 0.04083 0.02027 2.00305
v 0.07072 0.05016 2.00305
v 0.08166 0.09099 2.00305
v 0.07045 0.13291 2.00276
v 0.05056 0.16789 2.00150
v -0.05056 0.16789 2.00150
v -0.07045 0.13291 2.00276
v -0.08166 0.27791 2.00305
v -0.07045 0.23598 2.00276
v -0.05056 0.20101 2.00150
v 0.05056 0.20101 2.00150
v 0.07045 0.23598 2.00276
v 0.08166 0.27791 2.00305
v 0.07072 0.31874 2.00305
v 0.04083 0.34863 2.00305
v -0.00000 0.35957 2.00305
v -0.04083 0.34863 2.00305
v -0.07072 0.31874 2.00305
v -0.08166 0.09099 1.94203
v -0.07045 0.13291 1.94232
v -0.05056 0.16789 1.94359
v 0.05056 0.16789 1.94359
v 0.07045 0.13291 1.94232
v 0.08166 0.09099 1.94203
v 0.07072 0.05016 1.94203
v 0.04083 0.02027 1.94203
v -0.00000 0.00933 1.94203
v -0.04083 0.02027 1.94203
v -0.07072 0.05016 1.94203
v -0.08166 0.27791 1.94203
v -0.07072 0.31874 1.94203
v -0.04083 0.34863 1.94203
v -0.00000 0.35957 1.94203
v 0.04083 0.34863 1.94203
v 0.07072 0.31874 1.94203
v 0.08166 0.27791 1.94203
v 0.07045 0.23598 1.94232
v 0.05056 0.20101 1.94359
v -0.05056 0.20101 1.94359
v -0.07045 0.23598 1.94232
v -0.00912 0.40301 2.14664
v -0.00912 0.40301 2.19731
v 0.00912 0.40301 2.19731
v 0.00912 0.40301 2.14664
v -0.00912 0.33042 2.19731
v -0.00912 0.33042 2.10636
v 0.00912 0.33042 2.10636
v 0.00912 0.33042 2.19731
v 0.02728 0.01494 -0.82782
v 0.02690 0.00066 -0.89332
v -0.02690 0.00066 -0.89332
v -0.02728 0.01494 -0.82782
v 0.02699 -0.05922 -0.85047
v 0.02687 -0.09472 -0.85681
v 0.02707 -0.10075 -0.88413
v 0.02646 -0.06563 -0.89686
v -0.02646 -0.06563 -0.89686
v -0.02724 0.00790 -0.94968
v -0.02714 -0.03825 -0.95178
v -0.02716 -0.05934 -0.93395
v -0.02699 -0.05922 -0.85047
v 0.02694 -0.12891 -0.87137
v 0.02704 -0.15780 -0.85290
v -0.02704 -0.15780 -0.85290
v -0.02694 -0.12891 -0.87137
v -0.02687 -0.09472 -0.85681
v -0.02707 -0.10075 -0.88413
v -0.02700 -0.15889 -0.84944
v -0.02696 -0.15613 -0.84262
v -0.02697 -0.15414 -0.84184
v -0.02671 -0.12745 -0.85330
v 0.02697 -0.15414 -0.84184
v 0.02671 -0.12745 -0.85330
v 0.02696 -0.15613 -0.84262
v 0.02700 -0.15889 -0.84944
v 0.02716 -0.05934 -0.93395
v 0.02713 -0.03825 -0.95178
v 0.02723 0.00790 -0.94968
vt 0.01847 -0.95263
vt 0.01847 -0.85693
vt -0.01847 -0.85693
vt 0.01847 -0.95263
vt -0.01847 -0.85693
vt -0.01847 -0.95263
vt -0.87785 0.27304
vt -0.94541 0.27039
vt -0.92168 0.29534
vt -0.87785 0.27304
vt -0.92168 0.29534
vt -0.89877 0.30793
vt -0.01847 0.27304
vt 0.01847 0.27304
vt 0.01847 0.30793
vt -0.01847 0.27304
vt 0.01847 0.30793
vt -0.01847 0.30793
vt 0.01847 -0.91644
vt -0.01847 -0.91644
vt -0.01847 -0.89857
vt 0.01847 -0.91644
vt -0.01847 -0.89857
vt 0.01847 -0.89857
vt -0.92611 0.32310
vt -0.90572 0.32962
vt -0.89857 0.35307
vt -0.92611 0.32310
vt -0.89857 0.35307
vt -0.91644 0.35262
vt -0.94541 0.27039
vt -0.87785 0.27304
vt -0.89877 0.30793
vt -0.94541 0.27039
vt -0.89877 0.30793
vt -0.92168 0.29534
vt 0.01847 0.18019
vt -0.01847 0.18019
vt -0.01847 0.27039
vt 0.01847 0.18019
vt -0.01847 0.27039
vt 0.01847 0.27039
vt -0.95263 0.18019
vt -0.85693 0.23816
vt -0.87785 0.27304
vt -0.95263 0.18019
vt -0.87785 0.27304
vt -0.94541 0.27039
vt 0.01847 0.32310
vt -0.01847 0.32310
vt -0.01847 0.35262
vt 0.01847 0.32310
vt -0.01847 0.35262
vt 0.01847 0.35262
vt -0.90572 0.32962
vt -0.92611 0.32310
vt -0.91644 0.35262
vt -0.90572 0.32962
vt -0.91644 0.35262
vt -0.89857 0.35307
vt -0.01847 0.32962
vt 0.01847 0.32962
vt 0.01847 0.35307
vt -0.01847 0.32962
vt 0.01847 0.35307
vt -0.01847 0.35307
vt -0.01847 0.30793
vt 0.01847 0.30793
vt 0.01847 0.32962
vt -0.01847 0.30793
vt 0.01847 0.32962
vt -0.01847 0.32962
vt -0.89877 0.30793
vt -0.92168 0.29534
vt -0.92611 0.32310
vt -0.89877 0.30793
vt -0.92611 0.32310
vt -0.90572 0.32962
vt 0.01847 0.29534
vt -0.01847 0.29534
vt -0.01847 0.32310
vt 0.01847 0.29534
vt -0.01847 0.32310
vt 0.01847 0.32310
vt -0.92168 0.29534
vt -0.89877 0.30793
vt -0.90572 0.32962
vt -0.92168 0.29534
vt -0.90572 0.32962
vt -0.92611 0.32310
vt 0.01847 0.27039
vt -0.01847 0.27039
vt -0.01847 0.29534
vt 0.01847 0.27039
vt -0.01847 0.29534
vt 0.01847 0.29534
vt -0.01847 0.23816
vt 0.01847 0.23816
vt 0.01847 0.27304
vt -0.01847 0.23816
vt 0.01847 0.27304
vt -0.01847 0.27304
vt -0.85693 0.23816
vt -0.95263 0.18019
vt -0.94541 0.27039
vt -0.85693 0.23816
vt -0.94541 0.27039
vt -0.87785 0.27304
vt 2.02916 0.23004
vt 2.02916 0.25949
vt -0.16158 0.25949
vt 2.02916 0.23004
vt -0.16158 0.25949
vt -0.16158 0.23004
vt 2.02916 0.25949
vt 2.02916 0.28105
vt -0.16158 0.28105
vt 2.02916 0.25949
vt -0.16158 0.28105
vt -0.16158 0.25949
vt -0.02945 2.02916
vt -0.00000 2.02916
vt -0.00000 -0.16158
vt -0.02945 2.02916
vt -0.00000 -0.16158
vt -0.02945 -0.16158
vt -0.00000 2.02916
vt 0.02945 2.02916
vt 0.02945 -0.16158
vt -0.00000 2.02916
vt 0.02945 -0.16158
vt -0.00000 -0.16158
vt 2.02916 0.28105
vt 2.02916 0.25949
vt -0.16158 0.25949
vt 2.02916 0.28105
vt -0.16158 0.25949
vt -0.16158 0.28105
vt 2.02916 0.25949
vt 2.02916 0.23004
vt -0.16158 0.23004
vt 2.02916 0.25949
vt -0.16158 0.23004
vt -0.16158 0.25949
vt 2.02916 0.23004
vt 2.02916 0.20059
vt -0.16158 0.20059
vt 2.02916 0.23004
vt -0.16158 0.20059
vt -0.16158 0.23004
vt 2.02916 0.20059
vt 2.02916 0.17903
vt -0.16158 0.17903
vt 2.02916 0.20059
vt -0.16158 0.17903
vt -0.16158 0.20059
vt 0.02945 2.02916
vt 0.00000 2.02916
vt -0.00000 -0.16158
vt 0.02945 2.02916
vt -0.00000 -0.16158
vt 0.02945 -0.16158
vt 0.00000 2.02916
vt -0.02945 2.02916
vt -0.02945 -0.16158
vt 0.00000 2.02916
vt -0.02945 -0.16158
vt -0.00000 -0.16158
vt 2.02916 0.17903
vt 2.02916 0.20059
vt -0.16158 0.20059
vt 2.02916 0.17903
vt -0.16158 0.20059
vt -0.16158 0.17903
vt 2.02916 0.20059
vt 2.02916 0.23004
vt -0.16158 0.23004
vt 2.02916 0.20059
vt -0.16158 0.23004
vt -0.16158 0.20059
vt -0.02945 0.17903
vt -0.03318 0.17257
vt -0.05748 0.19686
vt -0.02945 0.17903
vt -0.05748 0.19686
vt -0.05101 0.20059
vt 0.03318 2.03058
vt 0.03318 2.10170
vt 0.00000 2.10170
vt 0.03318 2.03058
vt 0.00000 2.10170
vt 0.00000 2.03058
vt -0.05101 0.25949
vt -0.05748 0.26322
vt -0.03318 0.28752
vt -0.05101 0.25949
vt -0.03318 0.28752
vt -0.02945 0.28105
vt 0.00000 0.17114
vt 0.00000 0.16368
vt -0.03318 0.17257
vt 0.00000 0.17114
vt -0.03318 0.17257
vt -0.02945 0.17903
vt 0.02945 0.17903
vt 0.03318 0.17257
vt 0.00000 0.16368
vt 0.02945 0.17903
vt 0.00000 0.16368
vt 0.00000 0.17114
vt 0.05101 0.20059
vt 0.05748 0.19686
vt 0.03318 0.17257
vt 0.05101 0.20059
vt 0.03318 0.17257
vt 0.02945 0.17903
vt 0.05890 0.23004
vt 0.06637 0.23004
vt 0.05748 0.19686
vt 0.05890 0.23004
vt 0.05748 0.19686
vt 0.05101 0.20059
vt 0.05101 0.25949
vt 0.05748 0.26322
vt 0.06637 0.23004
vt 0.05101 0.25949
vt 0.06637 0.23004
vt 0.05890 0.23004
vt 0.02945 0.28105
vt 0.03318 0.28752
vt 0.05748 0.26322
vt 0.02945 0.28105
vt 0.05748 0.26322
vt 0.05101 0.25949
vt -0.00000 0.28893
vt -0.00000 0.29641
vt 0.03318 0.28752
vt -0.00000 0.28893
vt 0.03318 0.28752
vt 0.02945 0.28105
vt -0.05101 0.20059
vt -0.05748 0.19686
vt -0.06637 0.23004
vt -0.05101 0.20059
vt -0.06637 0.23004
vt -0.05890 0.23004
vt -0.05890 0.23004
vt -0.06637 0.23004
vt -0.05748 0.26322
vt -0.05890 0.23004
vt -0.05748 0.26322
vt -0.05101 0.25949
vt -0.02945 0.28105
vt -0.03318 0.28752
vt -0.00000 0.29641
vt -0.02945 0.28105
vt -0.00000 0.29641
vt -0.00000 0.28893
vt -0.05748 0.26322
vt -0.05146 0.25975
vt -0.02971 0.28150
vt -0.05748 0.26322
vt -0.02971 0.28150
vt -0.03318 0.28752
vt 2.03058 0.26322
vt 2.10170 0.26322
vt 2.10170 0.23004
vt 2.03058 0.26322
vt 2.10170 0.23004
vt 2.03058 0.23004
vt -0.03318 2.03058
vt -0.03318 2.10170
vt -0.00000 2.10170
vt -0.03318 2.03058
vt -0.00000 2.10170
vt -0.00000 2.03058
vt 0.00000 2.03058
vt 0.00000 2.10170
vt -0.03318 2.10170
vt 0.00000 2.03058
vt -0.03318 2.10170
vt -0.03318 2.03058
vt 2.03058 0.23004
vt 2.10170 0.23004
vt 2.10170 0.19686
vt 2.03058 0.23004
vt 2.10170 0.19686
vt 2.03058 0.19686
vt -0.00000 2.03058
vt -0.00000 2.10170
vt 0.03318 2.10170
vt -0.00000 2.03058
vt 0.03318 2.10170
vt 0.03318 2.03058
vt 2.03058 0.17257
vt 2.10170 0.17257
vt 2.10170 0.19686
vt 2.03058 0.17257
vt 2.10170 0.19686
vt 2.03058 0.19686
vt 2.03058 0.23004
vt 2.10170 0.23004
vt 2.10170 0.26322
vt 2.03058 0.23004
vt 2.10170 0.26322
vt 2.03058 0.26322
vt 2.03058 0.19686
vt 2.10170 0.19686
vt 2.10170 0.17257
vt 2.03058 0.19686
vt 2.10170 0.17257
vt 2.03058 0.17257
vt 2.03058 0.28752
vt 2.10170 0.28752
vt 2.10170 0.26322
vt 2.03058 0.28752
vt 2.10170 0.26322
vt 2.03058 0.26322
vt 2.03058 0.19686
vt 2.10170 0.19686
vt 2.10170 0.23004
vt 2.03058 0.19686
vt 2.10170 0.23004
vt 2.03058 0.23004
vt 2.03058 0.26322
vt 2.10170 0.26322
vt 2.10170 0.28752
vt 2.03058 0.26322
vt 2.10170 0.28752
vt 2.03058 0.28752
vt 2.10313 0.20033
vt 2.16667 0.20033
vt 2.16667 0.23004
vt 2.10313 0.20033
vt 2.16667 0.23004
vt 2.10313 0.23004
vt 0.03318 0.17257
vt 0.02971 0.17858
vt 0.00000 0.17062
vt 0.03318 0.17257
vt 0.00000 0.17062
vt 0.00000 0.16368
vt 0.05748 0.26322
vt 0.05146 0.25975
vt 0.05942 0.23004
vt 0.05748 0.26322
vt 0.05942 0.23004
vt 0.06637 0.23004
vt -0.03318 0.28752
vt -0.02971 0.28150
vt -0.00000 0.28946
vt -0.03318 0.28752
vt -0.00000 0.28946
vt -0.00000 0.29641
vt 0.00000 0.16368
vt 0.00000 0.17062
vt -0.02971 0.17858
vt 0.00000 0.16368
vt -0.02971 0.17858
vt -0.03318 0.17257
vt 0.06637 0.23004
vt 0.05942 0.23004
vt 0.05146 0.20033
vt 0.06637 0.23004
vt 0.05146 0.20033
vt 0.05748 0.19686
vt -0.00000 0.29641
vt -0.00000 0.28946
vt 0.02971 0.28150
vt -0.00000 0.29641
vt 0.02971 0.28150
vt 0.03318 0.28752
vt -0.03318 0.17257
vt -0.02971 0.17858
vt -0.05146 0.20033
vt -0.03318 0.17257
vt -0.05146 0.20033
vt -0.05748 0.19686
vt -0.06637 0.23004
vt -0.05942 0.23004
vt -0.05146 0.25975
vt -0.06637 0.23004
vt -0.05146 0.25975
vt -0.05748 0.26322
vt 0.05748 0.19686
vt 0.05146 0.20033
vt 0.02971 0.17858
vt 0.05748 0.19686
vt 0.02971 0.17858
vt 0.03318 0.17257
vt 0.03318 0.28752
vt 0.02971 0.28150
vt 0.05146 0.25975
vt 0.03318 0.28752
vt 0.05146 0.25975
vt 0.05748 0.26322
vt -0.05748 0.19686
vt -0.05146 0.20033
vt -0.05942 0.23004
vt -0.05748 0.19686
vt -0.05942 0.23004
vt -0.06637 0.23004
vt 0.02971 0.28150
vt 0.02082 0.26612
vt 0.03608 0.25087
vt 0.02971 0.28150
vt 0.03608 0.25087
vt 0.05146 0.25975
vt 2.10313 0.25975
vt 2.16667 0.25975
vt 2.16667 0.28150
vt 2.10313 0.25975
vt 2.16667 0.28150
vt 2.10313 0.28150
vt 0.02971 2.10313
vt 0.02971 2.16667
vt 0.00000 2.16667
vt 0.02971 2.10313
vt 0.00000 2.16667
vt 0.00000 2.10313
vt 2.10313 0.25975
vt 2.16667 0.25975
vt 2.16667 0.23004
vt 2.10313 0.25975
vt 2.16667 0.23004
vt 2.10313 0.23004
vt -0.02971 2.10313
vt -0.02971 2.16667
vt -0.00000 2.16667
vt -0.02971 2.10313
vt -0.00000 2.16667
vt -0.00000 2.10313
vt 0.00000 2.10313
vt 0.00000 2.16667
vt -0.02971 2.16667
vt 0.00000 2.10313
vt -0.02971 2.16667
vt -0.02971 2.10313
vt 2.10313 0.23004
vt 2.16667 0.23004
vt 2.16667 0.20033
vt 2.10313 0.23004
vt 2.16667 0.20033
vt 2.10313 0.20033
vt -0.00000 2.10313
vt -0.00000 2.16667
vt 0.02971 2.16667
vt -0.00000 2.10313
vt 0.02971 2.16667
vt 0.02971 2.10313
vt 2.10313 0.17858
vt 2.16667 0.17858
vt 2.16667 0.20033
vt 2.10313 0.17858
vt 2.16667 0.20033
vt 2.10313 0.20033
vt 2.10313 0.23004
vt 2.16667 0.23004
vt 2.16667 0.25975
vt 2.10313 0.23004
vt 2.16667 0.25975
vt 2.10313 0.25975
vt 2.10313 0.20033
vt 2.16667 0.20033
vt 2.16667 0.17858
vt 2.10313 0.20033
vt 2.16667 0.17858
vt 2.10313 0.17858
vt 2.10313 0.28150
vt 2.16667 0.28150
vt 2.16667 0.25975
vt 2.10313 0.28150
vt 2.16667 0.25975
vt 2.10313 0.25975
vt 2.16667 0.26612
vt 1.80474 0.26612
vt 1.80474 0.25087
vt 2.16667 0.26612
vt 1.80474 0.25087
vt 2.16667 0.25087
vt -0.05146 0.20033
vt -0.03608 0.20922
vt -0.04166 0.23004
vt -0.05146 0.20033
vt -0.04166 0.23004
vt -0.05942 0.23004
vt -0.05146 0.25975
vt -0.03608 0.25087
vt -0.02082 0.26612
vt -0.05146 0.25975
vt -0.02082 0.26612
vt -0.02971 0.28150
vt 0.02971 0.17858
vt 0.02082 0.19397
vt -0.00000 0.18838
vt 0.02971 0.17858
vt -0.00000 0.18838
vt 0.00000 0.17062
vt 0.05146 0.25975
vt 0.03608 0.25087
vt 0.04166 0.23004
vt 0.05146 0.25975
vt 0.04166 0.23004
vt 0.05942 0.23004
vt -0.02971 0.28150
vt -0.02082 0.26612
vt -0.00000 0.27170
vt -0.02971 0.28150
vt -0.00000 0.27170
vt -0.00000 0.28946
vt 0.00000 0.17062
vt -0.00000 0.18838
vt -0.02082 0.19397
vt 0.00000 0.17062
vt -0.02082 0.19397
vt -0.02971 0.17858
vt 0.05942 0.23004
vt 0.04166 0.23004
vt 0.03608 0.20922
vt 0.05942 0.23004
vt 0.03608 0.20922
vt 0.05146 0.20033
vt -0.00000 0.28946
vt -0.00000 0.27170
vt 0.02082 0.26612
vt -0.00000 0.28946
vt 0.02082 0.26612
vt 0.02971 0.28150
vt -0.02971 0.17858
vt -0.02082 0.19397
vt -0.03608 0.20922
vt -0.02971 0.17858
vt -0.03608 0.20922
vt -0.05146 0.20033
vt -0.05942 0.23004
vt -0.04166 0.23004
vt -0.03608 0.25087
vt -0.05942 0.23004
vt -0.03608 0.25087
vt -0.05146 0.25975
vt 0.05146 0.20033
vt 0.03608 0.20922
vt 0.02082 0.19397
vt 0.05146 0.20033
vt 0.02082 0.19397
vt 0.02971 0.17858
vt -0.04166 0.23004
vt -0.03608 0.20921
vt -0.02082 0.19397
vt -0.04166 0.23004
vt -0.02082 0.19397
vt -0.00000 0.18838
vt -0.04166 0.23004
vt -0.00000 0.18838
vt 0.02082 0.19397
vt -0.04166 0.23004
vt 0.02082 0.19397
vt 0.03608 0.20921
vt -0.04166 0.23004
vt 0.03608 0.20921
vt 0.04166 0.23004
vt -0.04166 0.23004
vt 0.04166 0.23004
vt 0.03608 0.25087
vt -0.04166 0.23004
vt 0.03608 0.25087
vt 0.02082 0.26612
vt -0.04166 0.23004
vt 0.02082 0.26612
vt -0.00000 0.27170
vt -0.04166 0.23004
vt -0.00000 0.27170
vt -0.02082 0.26612
vt -0.04166 0.23004
vt -0.02082 0.26612
vt -0.03608 0.25087
vt 2.16667 0.20922
vt 1.80474 0.20921
vt 1.80474 0.23004
vt 2.16667 0.20922
vt 1.80474 0.23004
vt 2.16667 0.23004
vt 2.16667 0.25087
vt 1.80474 0.25087
vt 1.80474 0.26612
vt 2.16667 0.25087
vt 1.80474 0.26612
vt 2.16667 0.26612
vt 0.02082 2.16667
vt 0.02082 1.80474
vt -0.00000 1.80474
vt 0.02082 2.16667
vt -0.00000 1.80474
vt -0.00000 2.16667
vt 2.16667 0.25087
vt 1.80474 0.25087
vt 1.80474 0.23004
vt 2.16667 0.25087
vt 1.80474 0.23004
vt 2.16667 0.23004
vt -0.02082 2.16667
vt -0.02082 1.80474
vt -0.00000 1.80474
vt -0.02082 2.16667
vt -0.00000 1.80474
vt -0.00000 2.16667
vt -0.00000 2.16667
vt -0.00000 1.80474
vt -0.02082 1.80474
vt -0.00000 2.16667
vt -0.02082 1.80474
vt -0.02082 2.16667
vt 2.16667 0.23004
vt 1.80474 0.23004
vt 1.80474 0.20921
vt 2.16667 0.23004
vt 1.80474 0.20921
vt 2.16667 0.20922
vt -0.00000 2.16667
vt -0.00000 1.80474
vt 0.02082 1.80474
vt -0.00000 2.16667
vt 0.02082 1.80474
vt 0.02082 2.16667
vt -0.02082 2.16667
vt -0.02082 1.80474
vt -0.03608 1.80474
vt 2.16667 0.19397
vt 1.80474 0.20921
vt 2.16667 0.20922
vt 2.16667 0.23004
vt 1.80474 0.23004
vt 1.80474 0.25087
vt 2.16667 0.23004
vt 1.80474 0.25087
vt 2.16667 0.25087
vt 0.03608 2.16667
vt 0.03608 1.80474
vt 0.02082 1.80474
vt 2.16667 0.20922
vt 1.80474 0.19397
vt 2.16667 0.19397
vt 1.74235 0.07650
vt 1.74235 0.10595
vt -0.16158 0.10595
vt 1.74235 0.07650
vt -0.16158 0.10595
vt -0.16158 0.07650
vt 1.74235 0.10595
vt 1.74235 0.12751
vt -0.16158 0.12751
vt 1.74235 0.10595
vt -0.16158 0.12751
vt -0.16158 0.10595
vt -0.02945 1.74235
vt -0.00000 1.74235
vt -0.00000 -0.16158
vt -0.02945 1.74235
vt -0.00000 -0.16158
vt -0.02945 -0.16158
vt -0.00000 1.74235
vt 0.02945 1.74235
vt 0.02945 -0.16158
vt -0.00000 1.74235
vt 0.02945 -0.16158
vt -0.00000 -0.16158
vt 1.74235 0.12751
vt 1.74235 0.10595
vt -0.16158 0.10595
vt 1.74235 0.12751
vt -0.16158 0.10595
vt -0.16158 0.12751
vt 1.74235 0.10595
vt 1.74235 0.07650
vt -0.16158 0.07650
vt 1.74235 0.10595
vt -0.16158 0.07650
vt -0.16158 0.10595
vt 1.74235 0.07650
vt 1.74235 0.04706
vt -0.16158 0.04706
vt 1.74235 0.07650
vt -0.16158 0.04706
vt -0.16158 0.07650
vt 1.74235 0.04706
vt 1.74235 0.02550
vt -0.16158 0.02550
vt 1.74235 0.04706
vt -0.16158 0.02550
vt -0.16158 0.04706
vt 0.02945 1.74235
vt -0.00000 1.74235
vt -0.00000 -0.16158
vt 0.02945 1.74235
vt -0.00000 -0.16158
vt 0.02945 -0.16158
vt -0.00000 1.74235
vt -0.02945 1.74235
vt -0.02945 -0.16158
vt -0.00000 1.74235
vt -0.02945 -0.16158
vt -0.00000 -0.16158
vt 1.74235 0.02550
vt 1.74235 0.04706
vt -0.16158 0.04706
vt 1.74235 0.02550
vt -0.16158 0.04706
vt -0.16158 0.02550
vt 1.74235 0.04706
vt 1.74235 0.07650
vt -0.16158 0.07650
vt 1.74235 0.04706
vt -0.16158 0.07650
vt -0.16158 0.04706
vt -0.00000 0.13540
vt -0.00000 0.15320
vt 0.03835 0.14292
vt -0.00000 0.13540
vt 0.03835 0.14292
vt 0.02945 0.12751
vt 1.74235 0.07650
vt 1.86546 0.07650
vt 1.86546 0.03815
vt 1.74235 0.07650
vt 1.86546 0.03815
vt 1.74235 0.03815
vt -0.05101 0.04706
vt -0.06643 0.03815
vt -0.07670 0.07650
vt -0.05101 0.04706
vt -0.07670 0.07650
vt -0.05890 0.07650
vt -0.05890 0.07650
vt -0.07670 0.07650
vt -0.06643 0.11485
vt -0.05890 0.07650
vt -0.06643 0.11485
vt -0.05101 0.10595
vt -0.02945 0.12751
vt -0.03835 0.14292
vt -0.00000 0.15320
vt -0.02945 0.12751
vt -0.00000 0.15320
vt -0.00000 0.13540
vt -0.02945 0.02550
vt -0.03835 0.01008
vt -0.06643 0.03815
vt -0.02945 0.02550
vt -0.06643 0.03815
vt -0.05101 0.04706
vt -0.05101 0.10595
vt -0.06643 0.11485
vt -0.03835 0.14292
vt -0.05101 0.10595
vt -0.03835 0.14292
vt -0.02945 0.12751
vt -0.00000 0.01761
vt -0.00000 -0.00020
vt -0.03835 0.01008
vt -0.00000 0.01761
vt -0.03835 0.01008
vt -0.02945 0.02550
vt 0.02945 0.02550
vt 0.03835 0.01008
vt -0.00000 -0.00020
vt 0.02945 0.02550
vt -0.00000 -0.00020
vt -0.00000 0.01761
vt 0.05101 0.04706
vt 0.06643 0.03815
vt 0.03835 0.01008
vt 0.05101 0.04706
vt 0.03835 0.01008
vt 0.02945 0.02550
vt 0.05890 0.07650
vt 0.07670 0.07650
vt 0.06643 0.03815
vt 0.05890 0.07650
vt 0.06643 0.03815
vt 0.05101 0.04706
vt 0.05101 0.10595
vt 0.06643 0.11485
vt 0.07670 0.07650
vt 0.05101 0.10595
vt 0.07670 0.07650
vt 0.05890 0.07650
vt 0.02945 0.12751
vt 0.03835 0.14292
vt 0.06643 0.11485
vt 0.02945 0.12751
vt 0.06643 0.11485
vt 0.05101 0.10595
vt -0.07670 0.07650
vt -0.06643 0.03815
vt -0.03835 0.01008
vt -0.07670 0.07650
vt -0.03835 0.01008
vt -0.00000 -0.00020
vt -0.07670 0.07650
vt -0.00000 -0.00020
vt 0.03835 0.01008
vt -0.07670 0.07650
vt 0.03835 0.01008
vt 0.06643 0.03815
vt -0.07670 0.07650
vt 0.06643 0.03815
vt 0.07670 0.07650
vt -0.07670 0.07650
vt 0.07670 0.07650
vt 0.06643 0.11485
vt -0.07670 0.07650
vt 0.06643 0.11485
vt 0.03835 0.14292
vt -0.07670 0.07650
vt 0.03835 0.14292
vt -0.00000 0.15320
vt -0.07670 0.07650
vt -0.00000 0.15320
vt -0.03835 0.14292
vt -0.07670 0.07650
vt -0.03835 0.14292
vt -0.06643 0.11485
vt -0.00000 1.74235
vt -0.00000 1.86546
vt 0.03835 1.86546
vt -0.00000 1.74235
vt 0.03835 1.86546
vt 0.03835 1.74235
vt -0.03835 1.74235
vt -0.03835 1.86546
vt -0.06643 1.86546
vt -0.03835 1.74235
vt -0.06643 1.86546
vt -0.06643 1.74235
vt 1.74235 0.07650
vt 1.86546 0.07650
vt 1.86546 0.11485
vt 1.74235 0.07650
vt 1.86546 0.11485
vt 1.74235 0.11485
vt 0.06643 1.74235
vt 0.06643 1.86546
vt 0.03835 1.86546
vt 0.06643 1.74235
vt 0.03835 1.86546
vt 0.03835 1.74235
vt 0.03835 1.74235
vt 0.03835 1.86546
vt 0.06643 1.86546
vt 0.03835 1.74235
vt 0.06643 1.86546
vt 0.06643 1.74235
vt 1.74235 0.03815
vt 1.86546 0.03815
vt 1.86546 0.07650
vt 1.74235 0.03815
vt 1.86546 0.07650
vt 1.74235 0.07650
vt -0.06643 1.74235
vt -0.06643 1.86546
vt -0.03835 1.86546
vt -0.06643 1.74235
vt -0.03835 1.86546
vt -0.03835 1.74235
vt 0.03835 1.74235
vt 0.03835 1.86546
vt -0.00000 1.86546
vt 0.03835 1.74235
vt -0.00000 1.86546
vt -0.00000 1.74235
vt 1.74235 0.11485
vt 1.86546 0.11485
vt 1.86546 0.07650
vt 1.74235 0.11485
vt 1.86546 0.07650
vt 1.74235 0.07650
vt -0.03835 1.74235
vt -0.03835 1.86546
vt -0.00000 1.86546
vt -0.03835 1.74235
vt -0.00000 1.86546
vt -0.00000 1.74235
vt -0.00000 1.74235
vt -0.00000 1.86546
vt -0.03835 1.86546
vt -0.00000 1.74235
vt -0.03835 1.86546
vt -0.03835 1.74235
vt -0.14256 0.00139
vt -0.11522 0.00139
vt -0.11522 0.24334
vt -0.14256 0.00139
vt -0.11522 0.24334
vt -0.14256 0.24334
vt 0.09233 0.00139
vt 0.06861 -0.03554
vt -0.06861 -0.03554
vt 0.09233 0.00139
vt -0.06861 -0.03554
vt -0.09233 0.00139
vt 0.09233 0.00139
vt -0.09233 0.00139
vt -0.09233 0.24334
vt 0.09233 0.00139
vt -0.09233 0.24334
vt -0.05296 0.30794
vt 0.09233 0.00139
vt -0.05296 0.30794
vt 0.05296 0.30794
vt 0.09233 0.00139
vt 0.05296 0.30794
vt 0.09233 0.24334
vt -0.05296 -0.14256
vt -0.05296 -0.11522
vt 0.05296 -0.11522
vt -0.05296 -0.14256
vt 0.05296 -0.11522
vt 0.05296 -0.14256
vt -0.06861 -0.11522
vt -0.06861 -0.14256
vt 0.06861 -0.14256
vt -0.06861 -0.11522
vt 0.06861 -0.14256
vt 0.06861 -0.11522
vt 0.06861 -0.03554
vt 0.09233 0.00139
vt 0.09233 0.24334
vt 0.06861 -0.03554
vt 0.09233 0.24334
vt 0.05296 0.30794
vt 0.06861 -0.03554
vt 0.05296 0.30794
vt -0.05296 0.30794
vt 0.06861 -0.03554
vt -0.05296 0.30794
vt -0.09233 0.24334
vt 0.06861 -0.03554
vt -0.09233 0.24334
vt -0.09233 0.00139
vt 0.06861 -0.03554
vt -0.09233 0.00139
vt -0.06861 -0.03554
vt -0.14256 -0.03554
vt -0.11522 -0.03554
vt -0.11522 0.00139
vt -0.14256 -0.03554
vt -0.11522 0.00139
vt -0.14256 0.00139
vt -0.11522 0.30794
vt -0.14256 0.30794
vt -0.14256 0.24334
vt -0.11522 0.30794
vt -0.14256 0.24334
vt -0.11522 0.24334
vt -0.14256 0.00139
vt -0.11522 0.00139
vt -0.11522 -0.03554
vt -0.14256 0.00139
vt -0.11522 -0.03554
vt -0.14256 -0.03554
vt -0.11522 0.24334
vt -0.14256 0.24334
vt -0.14256 0.30794
vt -0.11522 0.24334
vt -0.14256 0.30794
vt -0.11522 0.30794
vt -0.14256 0.00139
vt -0.14256 0.24334
vt -0.11522 0.24334
vt -0.14256 0.00139
vt -0.11522 0.24334
vt -0.11522 0.00139
vt -0.06805 0.07583
vt -0.05893 0.04180
vt -0.03402 0.01689
vt -0.06805 0.07583
vt -0.03402 0.01689
vt -0.00000 0.00777
vt -0.06805 0.07583
vt -0.00000 0.00777
vt 0.03402 0.01689
vt -0.06805 0.07583
vt 0.03402 0.01689
vt 0.05893 0.04180
vt -0.06805 0.07583
vt 0.05893 0.04180
vt 0.06805 0.07583
vt -0.06805 0.07583
vt 0.06805 0.07583
vt 0.05871 0.11076
vt -0.06805 0.07583
vt 0.05871 0.11076
vt 0.04213 0.13991
vt -0.06805 0.07583
vt 0.04213 0.13991
vt -0.04213 0.13991
vt -0.06805 0.07583
vt -0.04213 0.13991
vt -0.05871 0.11076
vt -0.06805 0.23159
vt -0.05871 0.19665
vt -0.04213 0.16751
vt -0.06805 0.23159
vt -0.04213 0.16751
vt 0.04213 0.16751
vt -0.06805 0.23159
vt 0.04213 0.16751
vt 0.05871 0.19665
vt -0.06805 0.23159
vt 0.05871 0.19665
vt 0.06805 0.23159
vt -0.06805 0.23159
vt 0.06805 0.23159
vt 0.05893 0.26562
vt -0.06805 0.23159
vt 0.05893 0.26562
vt 0.03402 0.29053
vt -0.06805 0.23159
vt 0.03402 0.29053
vt -0.00000 0.29964
vt -0.06805 0.23159
vt -0.00000 0.29964
vt -0.03402 0.29053
vt -0.06805 0.23159
vt -0.03402 0.29053
vt -0.05893 0.26562
vt -0.06805 0.07583
vt -0.05871 0.11076
vt -0.04213 0.13991
vt -0.06805 0.07583
vt -0.04213 0.13991
vt 0.04213 0.13991
vt -0.06805 0.07583
vt 0.04213 0.13991
vt 0.05871 0.11076
vt -0.06805 0.07583
vt 0.05871 0.11076
vt 0.06805 0.07583
vt -0.06805 0.07583
vt 0.06805 0.07583
vt 0.05893 0.04180
vt -0.06805 0.07583
vt 0.05893 0.04180
vt 0.03402 0.01689
vt -0.06805 0.07583
vt 0.03402 0.01689
vt -0.00000 0.00777
vt -0.06805 0.07583
vt -0.00000 0.00777
vt -0.03402 0.01689
vt -0.06805 0.07583
vt -0.03402 0.01689
vt -0.05893 0.04180
vt -0.06805 0.23159
vt -0.05893 0.26562
vt -0.03402 0.29053
vt -0.06805 0.23159
vt -0.03402 0.29053
vt -0.00000 0.29964
vt -0.06805 0.23159
vt -0.00000 0.29964
vt 0.03402 0.29053
vt -0.06805 0.23159
vt 0.03402 0.29053
vt 0.05893 0.26562
vt -0.06805 0.23159
vt 0.05893 0.26562
vt 0.06805 0.23159
vt -0.06805 0.23159
vt 0.06805 0.23159
vt 0.05871 0.19665
vt -0.06805 0.23159
vt 0.05871 0.19665
vt 0.04213 0.16751
vt -0.06805 0.23159
vt 0.04213 0.16751
vt -0.04213 0.16751
vt -0.06805 0.23159
vt -0.04213 0.16751
vt -0.05871 0.19665
vt 0.04213 0.16751
vt -0.04213 0.16751
vt -0.04213 0.13991
vt 0.04213 0.16751
vt -0.04213 0.13991
vt 0.04213 0.13991
vt 0.04213 0.16751
vt 0.04213 0.13991
vt -0.04213 0.13991
vt 0.04213 0.16751
vt -0.04213 0.13991
vt -0.04213 0.16751
vt 0.03402 1.66921
vt -0.00000 1.66921
vt -0.00000 1.61836
vt 0.03402 1.66921
vt -0.00000 1.61836
vt 0.03402 1.61836
vt 1.66897 0.19665
vt 1.66921 0.23159
vt 1.61836 0.23159
vt 1.66897 0.19665
vt 1.61836 0.23159
vt 1.61860 0.19665
vt 1.66897 0.11076
vt 1.66792 0.13991
vt 1.61966 0.13991
vt 1.66897 0.11076
vt 1.61966 0.13991
vt 1.61860 0.11076
vt 0.03402 1.66921
vt 0.05893 1.66921
vt 0.05893 1.61836
vt 0.03402 1.66921
vt 0.05893 1.61836
vt 0.03402 1.61836
vt -0.00000 1.66921
vt -0.03402 1.66921
vt -0.03402 1.61836
vt -0.00000 1.66921
vt -0.03402 1.61836
vt -0.00000 1.61836
vt 1.66792 0.13991
vt 1.66792 0.16751
vt 1.61966 0.16751
vt 1.66792 0.13991
vt 1.61966 0.16751
vt 1.61966 0.13991
vt 1.66921 0.26562
vt 1.66921 0.23159
vt 1.61836 0.23159
vt 1.66921 0.26562
vt 1.61836 0.23159
vt 1.61836 0.26562
vt -0.03402 1.66921
vt -0.05893 1.66921
vt -0.05893 1.61836
vt -0.03402 1.66921
vt -0.05893 1.61836
vt -0.03402 1.61836
vt 1.66921 0.23159
vt 1.66897 0.19665
vt 1.61860 0.19665
vt 1.66921 0.23159
vt 1.61860 0.19665
vt 1.61836 0.23159
vt 1.66921 0.04180
vt 1.66921 0.07583
vt 1.61836 0.07583
vt 1.66921 0.04180
vt 1.61836 0.07583
vt 1.61836 0.04180
vt 1.66792 0.16751
vt 1.66792 0.13991
vt 1.61966 0.13991
vt 1.66792 0.16751
vt 1.61966 0.13991
vt 1.61966 0.16751
vt 1.66792 0.13991
vt 1.66897 0.11076
vt 1.61860 0.11076
vt 1.66792 0.13991
vt 1.61860 0.11076
vt 1.61966 0.13991
vt 1.66897 0.19665
vt 1.66792 0.16751
vt 1.61966 0.16751
vt 1.66897 0.19665
vt 1.61966 0.16751
vt 1.61860 0.19665
vt 1.66921 0.23159
vt 1.66921 0.26562
vt 1.61836 0.26562
vt 1.66921 0.23159
vt 1.61836 0.26562
vt 1.61836 0.23159
vt 1.66897 0.11076
vt 1.66921 0.07583
vt 1.61836 0.07583
vt 1.66897 0.11076
vt 1.61836 0.07583
vt 1.61860 0.11076
vt -0.05893 1.66921
vt -0.03402 1.66921
vt -0.03402 1.61836
vt -0.05893 1.66921
vt -0.03402 1.61836
vt -0.05893 1.61836
vt 1.66921 0.07583
vt 1.66921 0.04180
vt 1.61836 0.04180
vt 1.66921 0.07583
vt 1.61836 0.04180
vt 1.61836 0.07583
vt -0.03402 1.66921
vt -0.00000 1.66921
vt -0.00000 1.61836
vt -0.03402 1.66921
vt -0.00000 1.61836
vt -0.03402 1.61836
vt 0.05893 1.66921
vt 0.03402 1.66921
vt 0.03402 1.61836
vt 0.05893 1.66921
vt 0.03402 1.61836
vt 0.05893 1.61836
vt 1.66792 0.16751
vt 1.66897 0.19665
vt 1.61860 0.19665
vt 1.66792 0.16751
vt 1.61860 0.19665
vt 1.61966 0.16751
vt 1.66921 0.07583
vt 1.66897 0.11076
vt 1.61860 0.11076
vt 1.66921 0.07583
vt 1.61860 0.11076
vt 1.61836 0.07583
vt -0.00000 1.66921
vt 0.03402 1.66921
vt 0.03402 1.61836
vt -0.00000 1.66921
vt 0.03402 1.61836
vt -0.00000 1.61836
vt -0.00760 1.78887
vt -0.00760 1.83109
vt 0.00760 1.83109
vt -0.00760 1.78887
vt 0.00760 1.83109
vt 0.00760 1.78887
vt 1.83109 0.27535
vt 1.83109 0.33584
vt 1.78887 0.33584
vt 1.83109 0.27535
vt 1.78887 0.33584
vt 1.75530 0.27535
vt -0.00760 1.75530
vt 0.00760 1.75530
vt 0.00760 1.83109
vt -0.00760 1.75530
vt 0.00760 1.83109
vt -0.00760 1.83109
vt -0.00760 0.27535
vt -0.00760 0.33584
vt 0.00760 0.33584
vt -0.00760 0.27535
vt 0.00760 0.33584
vt 0.00760 0.27535
vt 0.00760 0.27535
vt 0.00760 0.33584
vt -0.00760 0.33584
vt 0.00760 0.27535
vt -0.00760 0.33584
vt -0.00760 0.27535
vt 1.75530 0.27535
vt 1.78887 0.33584
vt 1.83109 0.33584
vt 1.75530 0.27535
vt 1.83109 0.33584
vt 1.83109 0.27535
vt 0.02273 -0.68985
vt 0.02242 -0.74443
vt -0.02242 -0.74443
vt 0.02273 -0.68985
vt -0.02242 -0.74443
vt -0.02273 -0.68985
vt -0.70872 -0.04935
vt -0.71401 -0.07893
vt -0.73677 -0.08396
vt -0.70872 -0.04935
vt -0.73677 -0.08396
vt -0.74738 -0.05469
vt -0.74738 -0.05469
vt -0.74443 0.00055
vt -0.79140 0.00658
vt -0.74738 -0.05469
vt -0.79140 0.00658
vt -0.79315 -0.03188
vt -0.74738 -0.05469
vt -0.79315 -0.03188
vt -0.77829 -0.04945
vt -0.68985 0.01245
vt -0.70872 -0.04935
vt -0.74738 -0.05469
vt -0.68985 0.01245
vt -0.74738 -0.05469
vt -0.74443 0.00055
vt -0.74443 0.00055
vt -0.74738 -0.05469
vt -0.70872 -0.04935
vt -0.74443 0.00055
vt -0.70872 -0.04935
vt -0.68985 0.01245
vt 0.02245 -0.10743
vt 0.02253 -0.13150
vt -0.02253 -0.13150
vt 0.02245 -0.10743
vt -0.02253 -0.13150
vt -0.02245 -0.10743
vt -0.02249 -0.04935
vt -0.02239 -0.07893
vt 0.02239 -0.07893
vt -0.02249 -0.04935
vt 0.02239 -0.07893
vt 0.02249 -0.04935
vt 0.02205 -0.05469
vt 0.02256 -0.08396
vt -0.02256 -0.08396
vt 0.02205 -0.05469
vt -0.02256 -0.08396
vt -0.02205 -0.05469
vt -0.72614 -0.10743
vt -0.71075 -0.13150
vt -0.70787 -0.13241
vt -0.72614 -0.10743
vt -0.70787 -0.13241
vt -0.70218 -0.13011
vt -0.72614 -0.10743
vt -0.70218 -0.13011
vt -0.70153 -0.12845
vt -0.72614 -0.10743
vt -0.70153 -0.12845
vt -0.71108 -0.10621
vt -0.02226 -0.10621
vt -0.02248 -0.12845
vt 0.02248 -0.12845
vt -0.02226 -0.10621
vt 0.02248 -0.12845
vt 0.02226 -0.10621
vt 0.02247 -0.70218
vt -0.02247 -0.70218
vt -0.02250 -0.70787
vt 0.02247 -0.70218
vt -0.02250 -0.70787
vt 0.02250 -0.70787
vt -0.74738 -0.05469
vt -0.73677 -0.08396
vt -0.71401 -0.07893
vt -0.74738 -0.05469
vt -0.71401 -0.07893
vt -0.70872 -0.04935
vt -0.02273 0.01245
vt -0.02249 -0.04935
vt 0.02249 -0.04935
vt -0.02273 0.01245
vt 0.02249 -0.04935
vt 0.02273 0.01245
vt -0.74443 0.00055
vt -0.74738 -0.05469
vt -0.77829 -0.04945
vt -0.74443 0.00055
vt -0.77829 -0.04945
vt -0.79315 -0.03188
vt -0.74443 0.00055
vt -0.79315 -0.03188
vt -0.79140 0.00658
vt 0.02269 0.00658
vt 0.02261 -0.03188
vt -0.02262 -0.03188
vt 0.02269 0.00658
vt -0.02262 -0.03188
vt -0.02270 0.00658
vt -0.02242 -0.74443
vt 0.02242 -0.74443
vt 0.02269 -0.79140
vt -0.02242 -0.74443
vt 0.02269 -0.79140
vt -0.02270 -0.79140
vt 0.02263 -0.04945
vt -0.02263 -0.04945
vt -0.02262 -0.03188
vt 0.02263 -0.04945
vt -0.02262 -0.03188
vt 0.02261 -0.03188
vt 0.02205 -0.74738
vt -0.02205 -0.74738
vt -0.02263 -0.77829
vt 0.02205 -0.74738
vt -0.02263 -0.77829
vt 0.02263 -0.77829
vt 0.02239 -0.07893
vt -0.02239 -0.07893
vt -0.02226 -0.10621
vt 0.02239 -0.07893
vt -0.02226 -0.10621
vt 0.02226 -0.10621
vt -0.71401 -0.07893
vt -0.73677 -0.08396
vt -0.72614 -0.10743
vt -0.71401 -0.07893
vt -0.72614 -0.10743
vt -0.71108 -0.10621
vt -0.73677 -0.08396
vt -0.71401 -0.07893
vt -0.71108 -0.10621
vt -0.73677 -0.08396
vt -0.71108 -0.10621
vt -0.72614 -0.10743
vt -0.02256 -0.08396
vt 0.02256 -0.08396
vt 0.02245 -0.10743
vt -0.02256 -0.08396
vt 0.02245 -0.10743
vt -0.02245 -0.10743
vt -0.02247 -0.13011
vt 0.02247 -0.13011
vt 0.02248 -0.12845
vt -0.02247 -0.13011
vt 0.02248 -0.12845
vt -0.02248 -0.12845
vt 0.02250 -0.70787
vt -0.02250 -0.70787
vt -0.02253 -0.71075
vt 0.02250 -0.70787
vt -0.02253 -0.71075
vt 0.02253 -0.71075
vt -0.71108 -0.10621
vt -0.70153 -0.12845
vt -0.70218 -0.13011
vt -0.71108 -0.10621
vt -0.70218 -0.13011
vt -0.70787 -0.13241
vt -0.71108 -0.10621
vt -0.70787 -0.13241
vt -0.71075 -0.13150
vt -0.71108 -0.10621
vt -0.71075 -0.13150
vt -0.72614 -0.10743
f 1/1 2/2 3/3
f 1/4 3/5 4/6
f 5/7 6/8 7/9
f 5/10 7/11 8/12
f 9/13 5/14 8/15
f 9/16 8/17 10/18
f 11/19 12/20 13/21
f 11/22 13/23 14/24
f 15/25 16/26 13/27
f 15/28 13/29 12/30
f 17/31 9/32 10/33
f 17/34 10/35 18/36
f 1/37 4/38 17/39
f 1/40 17/41 6/42
f 4/43 3/44 9/45
f 4/46 9/47 17/48
f 19/49 15/50 12/51
f 19/52 12/53 11/54
f 20/55 19/56 11/57
f 20/58 11/59 14/60
f 16/61 20/62 14/63
f 16/64 14/65 13/66
f 10/67 8/68 20/69
f 10/70 20/71 16/72
f 8/73 7/74 19/75
f 8/76 19/77 20/78
f 7/79 18/80 15/81
f 7/82 15/83 19/84
f 18/85 10/86 16/87
f 18/88 16/89 15/90
f 6/91 17/92 18/93
f 6/94 18/95 7/96
f 3/97 2/98 5/99
f 3/100 5/101 9/102
f 2/103 1/104 6/105
f 2/106 6/107 5/108
f 21/109 22/110 23/111
f 21/112 23/113 24/114
f 22/115 25/116 26/117
f 22/118 26/119 23/120
f 25/121 27/122 28/123
f 25/124 28/125 26/126
f 27/127 29/128 30/129
f 27/130 30/131 28/132
f 29/133 31/134 32/135
f 29/136 32/137 30/138
f 31/139 33/140 34/141
f 31/142 34/143 32/144
f 33/145 35/146 36/147
f 33/148 36/149 34/150
f 35/151 37/152 38/153
f 35/154 38/155 36/156
f 37/157 39/158 40/159
f 37/160 40/161 38/162
f 39/163 41/164 42/165
f 39/166 42/167 40/168
f 41/169 43/170 44/171
f 41/172 44/173 42/174
f 43/175 21/176 24/177
f 43/178 24/179 44/180
f 41/181 45/182 46/183
f 41/184 46/185 43/186
f 47/187 48/188 49/189
f 47/190 49/191 50/192
f 22/193 51/194 52/195
f 22/196 52/197 25/198
f 39/199 50/200 45/201
f 39/202 45/203 41/204
f 37/205 47/206 50/207
f 37/208 50/209 39/210
f 35/211 53/212 47/213
f 35/214 47/215 37/216
f 33/217 54/218 53/219
f 33/220 53/221 35/222
f 31/223 55/224 54/225
f 31/226 54/227 33/228
f 29/229 56/230 55/231
f 29/232 55/233 31/234
f 27/235 57/236 56/237
f 27/238 56/239 29/240
f 43/241 46/242 58/243
f 43/244 58/245 21/246
f 21/247 58/248 51/249
f 21/250 51/251 22/252
f 25/253 52/254 57/255
f 25/256 57/257 27/258
f 59/259 60/260 61/261
f 59/262 61/263 62/264
f 55/265 63/266 64/267
f 55/268 64/269 54/270
f 52/271 62/272 65/273
f 52/274 65/275 57/276
f 50/277 49/278 66/279
f 50/280 66/281 45/282
f 54/283 64/284 67/285
f 54/286 67/287 53/288
f 57/289 65/290 68/291
f 57/292 68/293 56/294
f 45/295 66/296 69/297
f 45/298 69/299 46/300
f 58/301 70/302 59/303
f 58/304 59/305 51/306
f 53/307 67/308 48/309
f 53/310 48/311 47/312
f 56/313 68/314 63/315
f 56/316 63/317 55/318
f 46/319 69/320 70/321
f 46/322 70/323 58/324
f 51/325 59/326 62/327
f 51/328 62/329 52/330
f 71/331 72/332 73/333
f 71/334 73/335 74/336
f 48/337 75/338 76/339
f 48/340 76/341 49/342
f 63/343 77/344 78/345
f 63/346 78/347 64/348
f 62/349 61/350 79/351
f 62/352 79/353 65/354
f 49/355 76/356 80/357
f 49/358 80/359 66/360
f 64/361 78/362 81/363
f 64/364 81/365 67/366
f 65/367 79/368 82/369
f 65/370 82/371 68/372
f 66/373 80/374 71/375
f 66/376 71/377 69/378
f 70/379 74/380 60/381
f 70/382 60/383 59/384
f 67/385 81/386 75/387
f 67/388 75/389 48/390
f 68/391 82/392 77/393
f 68/394 77/395 63/396
f 69/397 71/398 74/399
f 69/400 74/401 70/402
f 83/403 84/404 85/405
f 83/406 85/407 86/408
f 60/409 87/410 88/411
f 60/412 88/413 61/414
f 75/415 89/416 90/417
f 75/418 90/419 76/420
f 77/421 86/422 91/423
f 77/424 91/425 78/426
f 61/427 88/428 92/429
f 61/430 92/431 79/432
f 76/433 90/434 93/435
f 76/436 93/437 80/438
f 78/439 91/440 94/441
f 78/442 94/443 81/444
f 79/445 92/446 83/447
f 79/448 83/449 82/450
f 80/451 93/452 72/453
f 80/454 72/455 71/456
f 74/457 73/458 87/459
f 74/460 87/461 60/462
f 81/463 94/464 89/465
f 81/466 89/467 75/468
f 82/469 83/470 86/471
f 82/472 86/473 77/474
f 84/475 95/476 96/477
f 84/478 96/479 85/480
f 72/481 97/482 98/483
f 72/484 98/485 73/486
f 87/487 99/488 100/489
f 87/490 100/491 88/492
f 89/493 101/494 102/495
f 89/496 102/497 90/498
f 86/499 85/500 103/501
f 86/502 103/503 91/504
f 88/505 100/506 104/507
f 88/508 104/509 92/510
f 90/511 102/512 105/513
f 90/514 105/515 93/516
f 91/517 103/518 106/519
f 91/520 106/521 94/522
f 92/523 104/524 84/525
f 92/526 84/527 83/528
f 93/529 105/530 97/531
f 93/532 97/533 72/534
f 73/535 98/536 99/537
f 73/538 99/539 87/540
f 94/541 106/542 101/543
f 94/544 101/545 89/546
f 107/547 108/548 109/549
f 107/550 109/551 110/552
f 107/553 110/554 111/555
f 107/556 111/557 112/558
f 107/559 112/560 113/561
f 107/562 113/563 96/564
f 107/565 96/566 95/567
f 107/568 95/569 114/570
f 107/571 114/572 115/573
f 107/574 115/575 116/576
f 97/577 108/578 107/579
f 97/580 107/581 98/582
f 99/583 116/584 115/585
f 99/586 115/587 100/588
f 101/589 111/590 110/591
f 101/592 110/593 102/594
f 85/595 96/596 113/597
f 85/598 113/599 103/600
f 100/601 115/602 114/603
f 100/604 114/605 104/606
f 102/607 110/608 109/609
f 102/610 109/611 105/612
f 103/613 113/614 112/615
f 103/616 112/617 106/618
f 104/619 114/620 95/621
f 104/622 95/623 84/624
f 105/625 109/626 108/627
f 105/628 108/629 97/630
f 98/631 107/632 116/633
f 98/634 116/635 99/636
f 106/637 112/638 111/639
f 106/640 111/641 101/642
f 117/643 118/644 119/645
f 117/646 119/647 120/648
f 118/649 121/650 122/651
f 118/652 122/653 119/654
f 121/655 123/656 124/657
f 121/658 124/659 122/660
f 123/661 125/662 126/663
f 123/664 126/665 124/666
f 125/667 127/668 128/669
f 125/670 128/671 126/672
f 127/673 129/674 130/675
f 127/676 130/677 128/678
f 129/679 131/680 132/681
f 129/682 132/683 130/684
f 131/685 133/686 134/687
f 131/688 134/689 132/690
f 133/691 135/692 136/693
f 133/694 136/695 134/696
f 135/697 137/698 138/699
f 135/700 138/701 136/702
f 137/703 139/704 140/705
f 137/706 140/707 138/708
f 139/709 117/710 120/711
f 139/712 120/713 140/714
f 123/715 141/716 142/717
f 123/718 142/719 125/720
f 143/721 144/722 145/723
f 143/724 145/725 146/726
f 139/727 147/728 148/729
f 139/730 148/731 117/732
f 117/733 148/734 149/735
f 117/736 149/737 118/738
f 121/739 150/740 141/741
f 121/742 141/743 123/744
f 137/745 151/746 147/747
f 137/748 147/749 139/750
f 118/751 149/752 150/753
f 118/754 150/755 121/756
f 135/757 152/758 151/759
f 135/760 151/761 137/762
f 133/763 153/764 152/765
f 133/766 152/767 135/768
f 131/769 146/770 153/771
f 131/772 153/773 133/774
f 129/775 143/776 146/777
f 129/778 146/779 131/780
f 127/781 154/782 143/783
f 127/784 143/785 129/786
f 125/787 142/788 154/789
f 125/790 154/791 127/792
f 155/793 156/794 157/795
f 155/796 157/797 158/798
f 155/799 158/800 159/801
f 155/802 159/803 145/804
f 155/805 145/806 144/807
f 155/808 144/809 160/810
f 155/811 160/812 161/813
f 155/814 161/815 162/816
f 155/817 162/818 163/819
f 155/820 163/821 164/822
f 141/823 162/824 161/825
f 141/826 161/827 142/828
f 151/829 157/830 156/831
f 151/832 156/833 147/834
f 148/835 155/836 164/837
f 148/838 164/839 149/840
f 146/841 145/842 159/843
f 146/844 159/845 153/846
f 142/847 161/848 160/849
f 142/850 160/851 154/852
f 147/853 156/854 155/855
f 147/856 155/857 148/858
f 149/859 164/860 163/861
f 149/862 163/863 150/864
f 153/865 159/866 158/867
f 153/868 158/869 152/870
f 154/871 160/872 144/873
f 154/874 144/875 143/876
f 150/877 163/878 162/879
f 150/880 162/881 141/882
f 152/883 158/884 157/885
f 152/886 157/887 151/888
f 165/889 166/890 167/891
f 165/892 167/893 168/894
f 169/895 170/896 171/897
f 169/898 171/899 165/900
f 169/901 165/902 168/903
f 169/904 168/905 172/906
f 169/907 172/908 173/909
f 169/910 173/911 174/912
f 172/913 175/914 176/915
f 172/916 176/917 173/918
f 177/919 171/920 170/921
f 177/922 170/923 178/924
f 178/925 179/926 180/927
f 178/928 180/929 176/930
f 178/931 176/932 175/933
f 178/934 175/935 167/936
f 178/937 167/938 166/939
f 178/940 166/941 177/942
f 171/943 177/944 166/945
f 171/946 166/947 165/948
f 175/949 172/950 168/951
f 175/952 168/953 167/954
f 169/955 179/956 178/957
f 169/958 178/959 170/960
f 180/961 174/962 173/963
f 180/964 173/965 176/966
f 169/967 174/968 180/969
f 169/970 180/971 179/972
f 181/973 182/974 183/975
f 181/976 183/977 184/978
f 181/979 184/980 185/981
f 181/982 185/983 186/984
f 181/985 186/986 187/987
f 181/988 187/989 188/990
f 181/991 188/992 189/993
f 181/994 189/995 190/996
f 181/997 190/998 191/999
f 192/1000 193/1001 194/1002
f 192/1003 194/1004 195/1005
f 192/1006 195/1007 196/1008
f 192/1009 196/1010 197/1011
f 192/1012 197/1013 198/1014
f 192/1015 198/1016 199/1017
f 192/1018 199/1019 200/1020
f 192/1021 200/1022 201/1023
f 192/1024 201/1025 202/1026
f 203/1027 204/1028 205/1029
f 203/1030 205/1031 206/1032
f 203/1033 206/1034 207/1035
f 203/1036 207/1037 208/1038
f 203/1039 208/1040 209/1041
f 203/1042 209/1043 210/1044
f 203/1045 210/1046 211/1047
f 203/1048 211/1049 212/1050
f 203/1051 212/1052 213/1053
f 214/1054 215/1055 216/1056
f 214/1057 216/1058 217/1059
f 214/1060 217/1061 218/1062
f 214/1063 218/1064 219/1065
f 214/1066 219/1067 220/1068
f 214/1069 220/1070 221/1071
f 214/1072 221/1073 222/1074
f 214/1075 222/1076 223/1077
f 214/1078 223/1079 224/1080
f 195/1081 194/1082 190/1083
f 195/1084 190/1085 189/1086
f 222/1087 206/1088 205/1089
f 222/1090 205/1091 223/1092
f 185/1093 184/1094 211/1095
f 185/1096 211/1097 210/1098
f 193/1099 192/1100 214/1101
f 193/1102 214/1103 224/1104
f 191/1105 190/1106 205/1107
f 191/1108 205/1109 204/1110
f 199/1111 198/1112 219/1113
f 199/1114 219/1115 218/1116
f 184/1117 183/1118 212/1119
f 184/1120 212/1121 211/1122
f 190/1123 194/1124 223/1125
f 190/1126 223/1127 205/1128
f 198/1129 197/1130 220/1131
f 198/1132 220/1133 219/1134
f 183/1135 182/1136 213/1137
f 183/1138 213/1139 212/1140
f 197/1141 196/1142 221/1143
f 197/1144 221/1145 220/1146
f 182/1147 181/1148 203/1149
f 182/1150 203/1151 213/1152
f 195/1153 189/1154 206/1155
f 195/1156 206/1157 222/1158
f 189/1159 188/1160 207/1161
f 189/1162 207/1163 206/1164
f 196/1165 195/1166 222/1167
f 196/1168 222/1169 221/1170
f 192/1171 202/1172 215/1173
f 192/1174 215/1175 214/1176
f 188/1177 187/1178 208/1179
f 188/1180 208/1181 207/1182
f 202/1183 201/1184 216/1185
f 202/1186 216/1187 215/1188
f 187/1189 186/1190 209/1191
f 187/1192 209/1193 208/1194
f 201/1195 200/1196 217/1197
f 201/1198 217/1199 216/1200
f 186/1201 185/1202 210/1203
f 186/1204 210/1205 209/1206
f 194/1207 193/1208 224/1209
f 194/1210 224/1211 223/1212
f 181/1213 191/1214 204/1215
f 181/1216 204/1217 203/1218
f 200/1219 199/1220 218/1221
f 200/1222 218/1223 217/1224
f 225/1225 226/1226 227/1227
f 225/1228 227/1229 228/1230
f 229/1231 226/1232 225/1233
f 229/1234 225/1235 230/1236
f 230/1237 231/1238 232/1239
f 230/1240 232/1241 229/1242
f 230/1243 225/1244 228/1245
f 230/1246 228/1247 231/1248
f 232/1249 227/1250 226/1251
f 232/1252 226/1253 229/1254
f 231/1255 228/1256 227/1257
f 231/1258 227/1259 232/1260
f 233/1261 234/1262 235/1263
f 233/1264 235/1265 236/1266
f 237/1267 238/1268 239/1269
f 237/1270 239/1271 240/1272
f 241/1273 235/1274 242/1275
f 241/1276 242/1277 243/1278
f 241/1279 243/1280 244/1281
f 233/1282 237/1283 240/1284
f 233/1285 240/1286 234/1287
f 235/1288 241/1289 245/1290
f 235/1291 245/1292 236/1293
f 246/1294 247/1295 248/1296
f 246/1297 248/1298 249/1299
f 245/1300 250/1301 238/1302
f 245/1303 238/1304 237/1305
f 240/1306 239/1307 251/1308
f 240/1309 251/1310 241/1311
f 249/1312 248/1313 252/1314
f 249/1315 252/1316 253/1317
f 249/1318 253/1319 254/1320
f 249/1321 254/1322 255/1323
f 255/1324 254/1325 256/1326
f 255/1327 256/1328 257/1329
f 258/1330 253/1331 252/1332
f 258/1333 252/1334 259/1335
f 241/1336 251/1337 250/1338
f 241/1339 250/1340 245/1341
f 236/1342 245/1343 237/1344
f 236/1345 237/1346 233/1347
f 234/1348 240/1349 260/1350
f 234/1351 260/1352 261/1353
f 234/1354 261/1355 262/1356
f 262/1357 261/1358 243/1359
f 262/1360 243/1361 242/1362
f 235/1363 234/1364 262/1365
f 235/1366 262/1367 242/1368
f 260/1369 244/1370 243/1371
f 260/1372 243/1373 261/1374
f 240/1375 241/1376 244/1377
f 240/1378 244/1379 260/1380
f 238/1381 250/1382 255/1383
f 238/1384 255/1385 257/1386
f 250/1387 251/1388 249/1389
f 250/1390 249/1391 255/1392
f 239/1393 238/1394 257/1395
f 239/1396 257/1397 246/1398
f 251/1399 239/1400 246/1401
f 251/1402 246/1403 249/1404
f 253/1405 258/1406 256/1407
f 253/1408 256/1409 254/1410
f 259/1411 252/1412 248/1413
f 259/1414 248/1415 247/1416
f 257/1417 256/1418 258/1419
f 257/1420 258/1421 259/1422
f 257/1423 259/1424 247/1425
f 257/1426 247/1427 246/1428
o Grip
g Grip
usemtl Bubblegum
v -0.00000 -0.04008 0.95829
v -0.00000 -0.04008 0.85487
v 0.07906 -0.01776 0.85487
v 0.07906 -0.01776 0.95829
v 0.05857 -0.00039 0.98264
v -0.00000 -0.01776 0.99116
v -0.05857 -0.00039 0.98264
v -0.07906 -0.01776 0.95829
v -0.07906 -0.01776 0.85487
v 0.00000 0.19673 0.95829
v 0.07906 0.18946 0.95829
v 0.07906 0.18946 0.85487
v 0.00000 0.19673 0.85487
v -0.07906 0.18946 0.85487
v -0.07906 0.18946 0.95829
v -0.05857 0.18380 0.98264
v 0.00000 0.18946 0.99116
v 0.05857 0.18380 0.98264
v -0.10542 0.16763 0.29591
v -0.10542 0.12348 0.29591
v -0.10542 0.12348 0.40707
v -0.10542 0.16763 0.40707
v -0.07906 0.18946 0.40707
v -0.07906 0.18946 0.29591
v -0.05857 0.18380 0.26582
v -0.07906 0.16763 0.25529
v -0.07906 0.12348 0.25529
v 0.00000 0.16763 0.24175
v 0.00000 0.12348 0.24175
v 0.00000 0.18946 0.25529
v 0.05857 0.18380 0.26582
v 0.07906 0.16763 0.25529
v 0.07906 0.12348 0.25529
v 0.00000 0.16763 1.00212
v -0.00000 0.12348 1.00212
v 0.07906 0.12348 0.99116
v 0.07906 0.16763 0.99116
v -0.07906 0.16763 0.99116
v -0.07906 0.12348 0.99116
v 0.10542 0.16763 0.95829
v 0.10542 0.12348 0.95829
v 0.10542 0.12348 0.85487
v 0.10542 0.16763 0.85487
v 0.10542 0.16763 0.29591
v 0.10542 0.12348 0.29591
v 0.07906 0.18946 0.29591
v 0.07906 0.18946 0.40707
v 0.10542 0.16763 0.40707
v 0.10542 0.12348 0.40707
v -0.10542 0.16763 0.63226
v -0.10542 0.12348 0.63226
v -0.10542 0.12348 0.85487
v -0.10542 0.16763 0.85487
v -0.07906 0.18946 0.63226
v 0.00000 0.19673 0.29591
v 0.00000 0.19673 0.40707
v 0.00000 -0.04008 0.29591
v 0.00000 -0.01776 0.25529
v 0.05857 -0.00039 0.26582
v 0.07906 -0.01776 0.29591
v 0.07906 -0.01776 0.40707
v -0.00000 -0.04008 0.40707
v -0.07906 -0.01776 0.40707
v -0.07906 -0.01776 0.29591
v -0.05857 -0.00039 0.26582
v -0.10542 0.16763 0.95829
v -0.10542 0.12348 0.95829
v 0.10542 0.16763 0.63226
v 0.10542 0.12348 0.63226
v 0.07906 0.18946 0.63226
v 0.00000 0.19673 0.63226
v -0.00000 -0.04008 0.63226
v 0.07906 -0.01776 0.63226
v -0.07906 -0.01776 0.63226
v 0.10542 0.04922 0.63226
v 0.10542 0.04922 0.40707
v 0.10542 0.04922 0.85487
v -0.10542 0.04922 0.95829
v -0.07906 0.04922 0.99116
v -0.10542 0.04922 0.85487
v -0.10542 0.04922 0.63226
v -0.10542 0.04922 0.40707
v 0.10542 0.04922 0.29591
v 0.07906 0.04922 0.25529
v 0.10542 0.04922 0.95829
v 0.07906 0.04922 0.99116
v -0.00000 0.04922 1.00212
v 0.00000 0.04922 0.24175
v -0.07906 0.04922 0.25529
v -0.10542 0.04922 0.29591
vt -0.00000 0.79858
vt -0.00000 0.71239
vt 0.06588 0.71239
vt -0.00000 0.79858
vt 0.06588 0.71239
vt 0.06588 0.79858
vt -0.00000 0.79858
vt 0.06588 0.79858
vt 0.04881 0.81887
vt -0.00000 0.79858
vt 0.04881 0.81887
vt -0.00000 0.82597
vt -0.00000 0.79858
vt -0.00000 0.82597
vt -0.04881 0.81887
vt -0.00000 0.79858
vt -0.04881 0.81887
vt -0.06588 0.79858
vt -0.00000 0.79858
vt -0.06588 0.79858
vt -0.06588 0.71239
vt -0.00000 0.79858
vt -0.06588 0.71239
vt -0.00000 0.71239
vt 0.00000 0.79858
vt 0.06588 0.79858
vt 0.06588 0.71239
vt 0.00000 0.79858
vt 0.06588 0.71239
vt 0.00000 0.71239
vt 0.00000 0.79858
vt 0.00000 0.71239
vt -0.06588 0.71239
vt 0.00000 0.79858
vt -0.06588 0.71239
vt -0.06588 0.79858
vt 0.00000 0.79858
vt -0.06588 0.79858
vt -0.04881 0.81887
vt 0.00000 0.79858
vt -0.04881 0.81887
vt 0.00000 0.82597
vt 0.00000 0.79858
vt 0.00000 0.82597
vt 0.04881 0.81887
vt 0.00000 0.79858
vt 0.04881 0.81887
vt 0.06588 0.79858
vt 0.24659 0.13969
vt 0.24659 0.10290
vt 0.33922 0.10290
vt 0.24659 0.13969
vt 0.33922 0.10290
vt 0.33922 0.13969
vt -0.08785 0.24659
vt -0.08785 0.33922
vt -0.06588 0.33922
vt -0.08785 0.24659
vt -0.06588 0.33922
vt -0.06588 0.24659
vt -0.08785 0.24659
vt -0.06588 0.24659
vt -0.04881 0.22152
vt -0.08785 0.24659
vt -0.04881 0.22152
vt -0.06588 0.21274
vt 0.24659 0.13969
vt 0.21274 0.13969
vt 0.21274 0.10290
vt 0.24659 0.13969
vt 0.21274 0.10290
vt 0.24659 0.10290
vt 0.00000 0.13969
vt 0.00000 0.10290
vt -0.06588 0.10290
vt 0.00000 0.13969
vt -0.06588 0.10290
vt -0.06588 0.13969
vt 0.00000 0.13969
vt -0.06588 0.13969
vt -0.04881 0.15317
vt 0.00000 0.13969
vt -0.04881 0.15317
vt 0.00000 0.15788
vt 0.00000 0.13969
vt 0.00000 0.15788
vt 0.04881 0.15317
vt 0.00000 0.13969
vt 0.04881 0.15317
vt 0.06588 0.13969
vt 0.00000 0.13969
vt 0.06588 0.13969
vt 0.06588 0.10290
vt 0.00000 0.13969
vt 0.06588 0.10290
vt 0.00000 0.10290
vt 0.00000 0.13969
vt -0.00000 0.10290
vt 0.06588 0.10290
vt 0.00000 0.13969
vt 0.06588 0.10290
vt 0.06588 0.13969
vt 0.00000 0.13969
vt 0.06588 0.13969
vt 0.04881 0.15317
vt 0.00000 0.13969
vt 0.04881 0.15317
vt 0.00000 0.15788
vt 0.00000 0.13969
vt 0.00000 0.15788
vt -0.04881 0.15317
vt 0.00000 0.13969
vt -0.04881 0.15317
vt -0.06588 0.13969
vt 0.00000 0.13969
vt -0.06588 0.13969
vt -0.06588 0.10290
vt 0.00000 0.13969
vt -0.06588 0.10290
vt -0.00000 0.10290
vt 0.79858 0.13969
vt 0.79858 0.10290
vt 0.71239 0.10290
vt 0.79858 0.13969
vt 0.71239 0.10290
vt 0.71239 0.13969
vt 0.08785 0.79858
vt 0.08785 0.71239
vt 0.06588 0.71239
vt 0.08785 0.79858
vt 0.06588 0.71239
vt 0.06588 0.79858
vt 0.08785 0.79858
vt 0.06588 0.79858
vt 0.04881 0.81887
vt 0.08785 0.79858
vt 0.04881 0.81887
vt 0.06588 0.82597
vt 0.79858 0.13969
vt 0.82597 0.13969
vt 0.82597 0.10290
vt 0.79858 0.13969
vt 0.82597 0.10290
vt 0.79858 0.10290
vt 0.24659 0.13969
vt 0.24659 0.10290
vt 0.21274 0.10290
vt 0.24659 0.13969
vt 0.21274 0.10290
vt 0.21274 0.13969
vt 0.08785 0.24659
vt 0.06588 0.21274
vt 0.04881 0.22152
vt 0.08785 0.24659
vt 0.04881 0.22152
vt 0.06588 0.24659
vt 0.08785 0.24659
vt 0.06588 0.24659
vt 0.06588 0.33922
vt 0.08785 0.24659
vt 0.06588 0.33922
vt 0.08785 0.33922
vt 0.24659 0.13969
vt 0.33922 0.13969
vt 0.33922 0.10290
vt 0.24659 0.13969
vt 0.33922 0.10290
vt 0.24659 0.10290
vt 0.52688 0.13969
vt 0.52688 0.10290
vt 0.71239 0.10290
vt 0.52688 0.13969
vt 0.71239 0.10290
vt 0.71239 0.13969
vt -0.08785 0.52688
vt -0.08785 0.71239
vt -0.06588 0.71239
vt -0.08785 0.52688
vt -0.06588 0.71239
vt -0.06588 0.52688
vt -0.08785 0.52688
vt -0.06588 0.52688
vt -0.06588 0.33922
vt -0.08785 0.52688
vt -0.06588 0.33922
vt -0.08785 0.33922
vt 0.52688 0.13969
vt 0.33922 0.13969
vt 0.33922 0.10290
vt 0.52688 0.13969
vt 0.33922 0.10290
vt 0.52688 0.10290
vt 0.00000 0.24659
vt 0.06588 0.24659
vt 0.04881 0.22152
vt 0.00000 0.24659
vt 0.04881 0.22152
vt 0.00000 0.21274
vt 0.00000 0.24659
vt 0.00000 0.21274
vt -0.04881 0.22152
vt 0.00000 0.24659
vt -0.04881 0.22152
vt -0.06588 0.24659
vt 0.00000 0.24659
vt -0.06588 0.24659
vt -0.06588 0.33922
vt 0.00000 0.24659
vt -0.06588 0.33922
vt 0.00000 0.33922
vt 0.00000 0.24659
vt 0.00000 0.33922
vt 0.06588 0.33922
vt 0.00000 0.24659
vt 0.06588 0.33922
vt 0.06588 0.24659
vt 0.00000 0.24659
vt 0.00000 0.21274
vt 0.04881 0.22152
vt 0.00000 0.24659
vt 0.04881 0.22152
vt 0.06588 0.24659
vt 0.00000 0.24659
vt 0.06588 0.24659
vt 0.06588 0.33922
vt 0.00000 0.24659
vt 0.06588 0.33922
vt -0.00000 0.33922
vt 0.00000 0.24659
vt -0.00000 0.33922
vt -0.06588 0.33922
vt 0.00000 0.24659
vt -0.06588 0.33922
vt -0.06588 0.24659
vt 0.00000 0.24659
vt -0.06588 0.24659
vt -0.04881 0.22152
vt 0.00000 0.24659
vt -0.04881 0.22152
vt 0.00000 0.21274
vt 0.79858 0.13969
vt 0.79858 0.10290
vt 0.82597 0.10290
vt 0.79858 0.13969
vt 0.82597 0.10290
vt 0.82597 0.13969
vt -0.08785 0.79858
vt -0.06588 0.82597
vt -0.04881 0.81887
vt -0.08785 0.79858
vt -0.04881 0.81887
vt -0.06588 0.79858
vt -0.08785 0.79858
vt -0.06588 0.79858
vt -0.06588 0.71239
vt -0.08785 0.79858
vt -0.06588 0.71239
vt -0.08785 0.71239
vt 0.79858 0.13969
vt 0.71239 0.13969
vt 0.71239 0.10290
vt 0.79858 0.13969
vt 0.71239 0.10290
vt 0.79858 0.10290
vt 0.52688 0.13969
vt 0.52688 0.10290
vt 0.33922 0.10290
vt 0.52688 0.13969
vt 0.33922 0.10290
vt 0.33922 0.13969
vt 0.08785 0.52688
vt 0.08785 0.33922
vt 0.06588 0.33922
vt 0.08785 0.52688
vt 0.06588 0.33922
vt 0.06588 0.52688
vt 0.08785 0.52688
vt 0.06588 0.52688
vt 0.06588 0.71239
vt 0.08785 0.52688
vt 0.06588 0.71239
vt 0.08785 0.71239
vt 0.52688 0.13969
vt 0.71239 0.13969
vt 0.71239 0.10290
vt 0.52688 0.13969
vt 0.71239 0.10290
vt 0.52688 0.10290
vt 0.00000 0.52688
vt 0.06588 0.52688
vt 0.06588 0.33922
vt 0.00000 0.52688
vt 0.06588 0.33922
vt 0.00000 0.33922
vt 0.00000 0.52688
vt 0.00000 0.33922
vt -0.06588 0.33922
vt 0.00000 0.52688
vt -0.06588 0.33922
vt -0.06588 0.52688
vt 0.00000 0.52688
vt -0.06588 0.52688
vt -0.06588 0.71239
vt 0.00000 0.52688
vt -0.06588 0.71239
vt 0.00000 0.71239
vt 0.00000 0.52688
vt 0.00000 0.71239
vt 0.06588 0.71239
vt 0.00000 0.52688
vt 0.06588 0.71239
vt 0.06588 0.52688
vt -0.00000 0.52688
vt -0.00000 0.33922
vt 0.06588 0.33922
vt -0.00000 0.52688
vt 0.06588 0.33922
vt 0.06588 0.52688
vt -0.00000 0.52688
vt 0.06588 0.52688
vt 0.06588 0.71239
vt -0.00000 0.52688
vt 0.06588 0.71239
vt -0.00000 0.71239
vt -0.00000 0.52688
vt -0.00000 0.71239
vt -0.06588 0.71239
vt -0.00000 0.52688
vt -0.06588 0.71239
vt -0.06588 0.52688
vt -0.00000 0.52688
vt -0.06588 0.52688
vt -0.06588 0.33922
vt -0.00000 0.52688
vt -0.06588 0.33922
vt -0.00000 0.33922
vt 0.52688 0.04102
vt 0.52688 -0.01480
vt 0.33922 -0.01480
vt 0.52688 0.04102
vt 0.33922 -0.01480
vt 0.33922 0.04102
vt 0.52688 0.04102
vt 0.33922 0.04102
vt 0.33922 0.10290
vt 0.52688 0.04102
vt 0.33922 0.10290
vt 0.52688 0.10290
vt 0.52688 0.04102
vt 0.52688 0.10290
vt 0.71239 0.10290
vt 0.52688 0.04102
vt 0.71239 0.10290
vt 0.71239 0.04102
vt 0.52688 0.04102
vt 0.71239 0.04102
vt 0.71239 -0.01480
vt 0.52688 0.04102
vt 0.71239 -0.01480
vt 0.52688 -0.01480
vt -0.08785 0.04102
vt -0.06588 -0.01480
vt -0.04881 -0.00032
vt 0.79858 0.04102
vt 0.81887 -0.00032
vt 0.82597 0.04102
vt 0.79858 0.04102
vt 0.82597 0.04102
vt 0.82597 0.10290
vt 0.79858 0.04102
vt 0.82597 0.10290
vt 0.79858 0.10290
vt 0.79858 0.04102
vt 0.79858 0.10290
vt 0.71239 0.10290
vt 0.79858 0.04102
vt 0.71239 0.10290
vt 0.71239 0.04102
vt 0.79858 0.04102
vt 0.71239 0.04102
vt 0.71239 -0.01480
vt 0.79858 0.04102
vt 0.71239 -0.01480
vt 0.79858 -0.01480
vt 0.52688 0.04102
vt 0.52688 -0.01480
vt 0.71239 -0.01480
vt 0.52688 0.04102
vt 0.71239 -0.01480
vt 0.71239 0.04102
vt 0.52688 0.04102
vt 0.71239 0.04102
vt 0.71239 0.10290
vt 0.52688 0.04102
vt 0.71239 0.10290
vt 0.52688 0.10290
vt 0.52688 0.04102
vt 0.52688 0.10290
vt 0.33922 0.10290
vt 0.52688 0.04102
vt 0.33922 0.10290
vt 0.33922 0.04102
vt 0.52688 0.04102
vt 0.33922 0.04102
vt 0.33922 -0.01480
vt 0.52688 0.04102
vt 0.33922 -0.01480
vt 0.52688 -0.01480
vt 0.24659 0.04102
vt 0.24659 -0.01480
vt 0.22152 -0.00032
vt 0.24659 0.04102
vt 0.22152 -0.00032
vt 0.21274 0.04102
vt 0.24659 0.04102
vt 0.21274 0.04102
vt 0.21274 0.10290
vt 0.24659 0.04102
vt 0.21274 0.10290
vt 0.24659 0.10290
vt 0.24659 0.04102
vt 0.24659 0.10290
vt 0.33922 0.10290
vt 0.24659 0.04102
vt 0.33922 0.10290
vt 0.33922 0.04102
vt 0.24659 0.04102
vt 0.33922 0.04102
vt 0.33922 -0.01480
vt 0.24659 0.04102
vt 0.33922 -0.01480
vt 0.24659 -0.01480
vt 0.79858 0.04102
vt 0.79858 -0.01480
vt 0.71239 -0.01480
vt 0.79858 0.04102
vt 0.71239 -0.01480
vt 0.71239 0.04102
vt 0.79858 0.04102
vt 0.71239 0.04102
vt 0.71239 0.10290
vt 0.79858 0.04102
vt 0.71239 0.10290
vt 0.79858 0.10290
vt 0.79858 0.04102
vt 0.79858 0.10290
vt 0.82597 0.10290
vt 0.79858 0.04102
vt 0.82597 0.10290
vt 0.82597 0.04102
vt 0.79858 0.04102
vt 0.82597 0.04102
vt 0.81887 -0.00032
vt 0.08785 0.04102
vt 0.04881 -0.00032
vt 0.06588 -0.01480
vt -0.00000 0.04102
vt -0.00000 -0.01480
vt 0.04881 -0.00032
vt -0.00000 0.04102
vt 0.04881 -0.00032
vt 0.06588 0.04102
vt -0.00000 0.04102
vt 0.06588 0.04102
vt 0.06588 0.10290
vt -0.00000 0.04102
vt 0.06588 0.10290
vt -0.00000 0.10290
vt -0.00000 0.04102
vt -0.00000 0.10290
vt -0.06588 0.10290
vt -0.00000 0.04102
vt -0.06588 0.10290
vt -0.06588 0.04102
vt -0.00000 0.04102
vt -0.06588 0.04102
vt -0.04881 -0.00032
vt -0.00000 0.04102
vt -0.04881 -0.00032
vt -0.00000 -0.01480
vt 0.00000 0.04102
vt 0.00000 -0.01480
vt -0.04881 -0.00032
vt 0.00000 0.04102
vt -0.04881 -0.00032
vt -0.06588 0.04102
vt 0.00000 0.04102
vt -0.06588 0.04102
vt -0.06588 0.10290
vt 0.00000 0.04102
vt -0.06588 0.10290
vt 0.00000 0.10290
vt 0.00000 0.04102
vt 0.00000 0.10290
vt 0.06588 0.10290
vt 0.00000 0.04102
vt 0.06588 0.10290
vt 0.06588 0.04102
vt 0.00000 0.04102
vt 0.06588 0.04102
vt 0.04881 -0.00032
vt 0.00000 0.04102
vt 0.04881 -0.00032
vt 0.00000 -0.01480
vt 0.24659 0.04102
vt 0.24659 -0.01480
vt 0.33922 -0.01480
vt 0.24659 0.04102
vt 0.33922 -0.01480
vt 0.33922 0.04102
vt 0.24659 0.04102
vt 0.33922 0.04102
vt 0.33922 0.10290
vt 0.24659 0.04102
vt 0.33922 0.10290
vt 0.24659 0.10290
vt 0.24659 0.04102
vt 0.24659 0.10290
vt 0.21274 0.10290
vt 0.24659 0.04102
vt 0.21274 0.10290
vt 0.21274 0.04102
vt 0.24659 0.04102
vt 0.21274 0.04102
vt 0.22152 -0.00032
vt 0.24659 0.04102
vt 0.22152 -0.00032
vt 0.24659 -0.01480
f 263/1429 264/1430 265/1431
f 263/1432 265/1433 266/1434
f 263/1435 266/1436 267/1437
f 263/1438 267/1439 268/1440
f 263/1441 268/1442 269/1443
f 263/1444 269/1445 270/1446
f 263/1447 270/1448 271/1449
f 263/1450 271/1451 264/1452
f 272/1453 273/1454 274/1455
f 272/1456 274/1457 275/1458
f 272/1459 275/1460 276/1461
f 272/1462 276/1463 277/1464
f 272/1465 277/1466 278/1467
f 272/1468 278/1469 279/1470
f 272/1471 279/1472 280/1473
f 272/1474 280/1475 273/1476
f 281/1477 282/1478 283/1479
f 281/1480 283/1481 284/1482
f 281/1483 284/1484 285/1485
f 281/1486 285/1487 286/1488
f 281/1489 286/1490 287/1491
f 281/1492 287/1493 288/1494
f 281/1495 288/1496 289/1497
f 281/1498 289/1499 282/1500
f 290/1501 291/1502 289/1503
f 290/1504 289/1505 288/1506
f 290/1507 288/1508 287/1509
f 290/1510 287/1511 292/1512
f 290/1513 292/1514 293/1515
f 290/1516 293/1517 294/1518
f 290/1519 294/1520 295/1521
f 290/1522 295/1523 291/1524
f 296/1525 297/1526 298/1527
f 296/1528 298/1529 299/1530
f 296/1531 299/1532 280/1533
f 296/1534 280/1535 279/1536
f 296/1537 279/1538 278/1539
f 296/1540 278/1541 300/1542
f 296/1543 300/1544 301/1545
f 296/1546 301/1547 297/1548
f 302/1549 303/1550 304/1551
f 302/1552 304/1553 305/1554
f 302/1555 305/1556 274/1557
f 302/1558 274/1559 273/1560
f 302/1561 273/1562 280/1563
f 302/1564 280/1565 299/1566
f 302/1567 299/1568 298/1569
f 302/1570 298/1571 303/1572
f 306/1573 307/1574 295/1575
f 306/1576 295/1577 294/1578
f 306/1579 294/1580 293/1581
f 306/1582 293/1583 308/1584
f 306/1585 308/1586 309/1587
f 306/1588 309/1589 310/1590
f 306/1591 310/1592 311/1593
f 306/1594 311/1595 307/1596
f 312/1597 313/1598 314/1599
f 312/1600 314/1601 315/1602
f 312/1603 315/1604 276/1605
f 312/1606 276/1607 316/1608
f 312/1609 316/1610 285/1611
f 312/1612 285/1613 284/1614
f 312/1615 284/1616 283/1617
f 312/1618 283/1619 313/1620
f 317/1621 308/1622 293/1623
f 317/1624 293/1625 292/1626
f 317/1627 292/1628 287/1629
f 317/1630 287/1631 286/1632
f 317/1633 286/1634 285/1635
f 317/1636 285/1637 318/1638
f 317/1639 318/1640 309/1641
f 317/1642 309/1643 308/1644
f 319/1645 320/1646 321/1647
f 319/1648 321/1649 322/1650
f 319/1651 322/1652 323/1653
f 319/1654 323/1655 324/1656
f 319/1657 324/1658 325/1659
f 319/1660 325/1661 326/1662
f 319/1663 326/1664 327/1665
f 319/1666 327/1667 320/1668
f 328/1669 329/1670 301/1671
f 328/1672 301/1673 300/1674
f 328/1675 300/1676 278/1677
f 328/1678 278/1679 277/1680
f 328/1681 277/1682 276/1683
f 328/1684 276/1685 315/1686
f 328/1687 315/1688 314/1689
f 328/1690 314/1691 329/1692
f 330/1693 331/1694 311/1695
f 330/1696 311/1697 310/1698
f 330/1699 310/1700 309/1701
f 330/1702 309/1703 332/1704
f 330/1705 332/1706 274/1707
f 330/1708 274/1709 305/1710
f 330/1711 305/1712 304/1713
f 330/1714 304/1715 331/1716
f 333/1717 332/1718 309/1719
f 333/1720 309/1721 318/1722
f 333/1723 318/1724 285/1725
f 333/1726 285/1727 316/1728
f 333/1729 316/1730 276/1731
f 333/1732 276/1733 275/1734
f 333/1735 275/1736 274/1737
f 333/1738 274/1739 332/1740
f 334/1741 324/1742 323/1743
f 334/1744 323/1745 335/1746
f 334/1747 335/1748 265/1749
f 334/1750 265/1751 264/1752
f 334/1753 264/1754 271/1755
f 334/1756 271/1757 336/1758
f 334/1759 336/1760 325/1761
f 334/1762 325/1763 324/1764
f 337/1765 335/1766 323/1767
f 337/1768 323/1769 338/1770
f 337/1771 338/1772 311/1773
f 337/1774 311/1775 331/1776
f 337/1777 331/1778 304/1779
f 337/1780 304/1781 339/1782
f 337/1783 339/1784 265/1785
f 337/1786 265/1787 335/1788
f 340/1789 270/1790 269/1791
f 340/1792 269/1793 341/1794
f 340/1795 341/1796 301/1797
f 340/1798 301/1799 329/1800
f 340/1801 329/1802 314/1803
f 340/1804 314/1805 342/1806
f 340/1807 342/1808 271/1809
f 340/1810 271/1811 270/1812
f 343/1813 336/1814 271/1815
f 343/1816 271/1817 342/1818
f 343/1819 342/1820 314/1821
f 343/1822 314/1823 313/1824
f 343/1825 313/1826 283/1827
f 343/1828 283/1829 344/1830
f 343/1831 344/1832 325/1833
f 343/1834 325/1835 336/1836
f 345/1837 322/1838 321/1839
f 345/1840 321/1841 346/1842
f 345/1843 346/1844 295/1845
f 345/1846 295/1847 307/1848
f 345/1849 307/1850 311/1851
f 345/1852 311/1853 338/1854
f 345/1855 338/1856 323/1857
f 345/1858 323/1859 322/1860
f 347/1861 266/1862 265/1863
f 347/1864 265/1865 339/1866
f 347/1867 339/1868 304/1869
f 347/1870 304/1871 303/1872
f 347/1873 303/1874 298/1875
f 347/1876 298/1877 348/1878
f 347/1879 348/1880 267/1881
f 347/1882 267/1883 266/1884
f 349/1885 268/1886 267/1887
f 349/1888 267/1889 348/1890
f 349/1891 348/1892 298/1893
f 349/1894 298/1895 297/1896
f 349/1897 297/1898 301/1899
f 349/1900 301/1901 341/1902
f 349/1903 341/1904 269/1905
f 349/1906 269/1907 268/1908
f 350/1909 320/1910 327/1911
f 350/1912 327/1913 351/1914
f 350/1915 351/1916 289/1917
f 350/1918 289/1919 291/1920
f 350/1921 291/1922 295/1923
f 350/1924 295/1925 346/1926
f 350/1927 346/1928 321/1929
f 350/1930 321/1931 320/1932
f 352/1933 326/1934 325/1935
f 352/1936 325/1937 344/1938
f 352/1939 344/1940 283/1941
f 352/1942 283/1943 282/1944
f 352/1945 282/1946 289/1947
f 352/1948 289/1949 351/1950
f 352/1951 351/1952 327/1953
f 352/1954 327/1955 326/1956
o Hardware
g Hardware
usemtl PlumDark
v -0.08692 0.18039 -0.29852
v -0.08692 0.18039 -0.55253
v -0.08692 0.20804 -0.58017
v -0.08692 0.23109 -0.58017
v -0.08692 0.23109 -0.27088
v -0.08692 0.20804 -0.27088
v -0.08692 0.25874 -0.29852
v -0.08692 0.25874 -0.55253
v 0.05723 0.36215 -0.87127
v -0.05723 0.36215 -0.87127
v -0.05723 0.36215 -0.15851
v 0.05723 0.36215 -0.15851
v 0.10404 0.00682 -0.87127
v 0.10404 0.28858 -0.87127
v 0.10404 0.28858 -0.15851
v 0.10404 0.00682 -0.15851
v 0.07877 -0.03251 -0.15851
v -0.10404 0.28858 -0.15851
v -0.10404 0.00682 -0.15851
v -0.07877 -0.03251 -0.15851
v -0.07877 -0.03251 -0.87127
v 0.07877 -0.03251 -0.87127
v -0.10404 0.28858 -0.87127
v 0.10404 0.23484 -1.03708
v 0.05723 0.30841 -1.03708
v -0.10404 0.00682 -0.87127
v 0.07877 -0.03251 -1.03708
v 0.10404 0.00682 -1.03708
v -0.10404 0.23484 -1.03708
v -0.05723 0.30841 -1.03708
v -0.07877 -0.03251 -1.03708
v -0.10404 0.00682 -1.03708
v -0.10404 0.18039 -0.55253
v -0.10404 0.18039 -0.29852
v -0.10404 0.26583 -0.24416
v -0.10404 0.23109 -0.27088
v -0.10404 0.20804 -0.27088
v -0.10404 0.15719 -0.25586
v -0.10404 0.23109 -0.58017
v -0.10404 0.20804 -0.58017
v -0.10404 0.16795 -0.60485
v -0.10404 0.26112 -0.60771
v -0.10404 0.25874 -0.55253
v -0.10404 0.25874 -0.29852
v -0.03950 -0.00419 -1.01831
v -0.03959 -0.00397 -0.96949
v 0.03959 -0.00397 -0.96949
v 0.03950 -0.00419 -1.01831
v 0.03768 -0.09191 -1.01350
v 0.03351 -0.08819 -0.97761
v 0.02857 -0.12375 -0.96553
v 0.03259 -0.12175 -0.99896
v -0.03351 -0.08819 -0.97761
v -0.03768 -0.09191 -1.01350
v -0.02857 -0.12375 -0.96553
v -0.03259 -0.12175 -0.99896
v -0.02535 -0.17159 -0.96023
v -0.02184 -0.15247 -0.94390
v 0.02535 -0.17159 -0.96023
v 0.02184 -0.15247 -0.94390
v 0.01741 -0.17060 -0.89636
v 0.01772 -0.19627 -0.90173
v -0.01741 -0.17060 -0.89636
v -0.01743 -0.17451 -0.82886
v 0.01743 -0.17451 -0.82886
v -0.01772 -0.19627 -0.90173
v -0.01750 -0.19723 -0.82826
v -0.01758 -0.19196 -0.75814
v -0.01724 -0.17408 -0.75540
v 0.01750 -0.19723 -0.82826
v 0.01758 -0.19196 -0.75814
v 0.01724 -0.17408 -0.75540
v 0.01731 -0.15899 -0.72114
v 0.01785 -0.17472 -0.70997
v -0.01731 -0.15899 -0.72114
v -0.01785 -0.17472 -0.70997
v -0.02656 -0.11870 -0.67143
v -0.02295 -0.11978 -0.69292
v -0.03710 -0.07192 -0.64054
v -0.03275 -0.07289 -0.69761
v 0.02656 -0.11870 -0.67143
v 0.02295 -0.11978 -0.69292
v 0.03710 -0.07192 -0.64054
v 0.03275 -0.07289 -0.69761
v 0.03747 -0.04080 -0.71634
v 0.03917 -0.04069 -0.62236
v -0.03747 -0.04080 -0.71634
v -0.03917 -0.04069 -0.62236
v -0.03961 -0.00979 -0.61506
v -0.03959 -0.00986 -0.72384
v 0.03961 -0.00979 -0.61506
v 0.03959 -0.00986 -0.72384
vt -0.46044 0.21562
vt -0.48347 0.19257
vt -0.48347 0.17337
vt -0.46044 0.21562
vt -0.48347 0.17337
vt -0.46044 0.15033
vt -0.46044 0.21562
vt -0.46044 0.15033
vt -0.24877 0.15033
vt -0.46044 0.21562
vt -0.24877 0.15033
vt -0.22573 0.17337
vt -0.46044 0.21562
vt -0.22573 0.17337
vt -0.22573 0.19257
vt -0.46044 0.21562
vt -0.22573 0.19257
vt -0.24877 0.21562
vt 0.04769 -0.72606
vt -0.04769 -0.72606
vt -0.04769 -0.13209
vt 0.04769 -0.72606
vt -0.04769 -0.13209
vt 0.04769 -0.13209
vt -0.72606 0.00568
vt -0.72606 0.24048
vt -0.13209 0.24048
vt -0.72606 0.00568
vt -0.13209 0.24048
vt -0.13209 0.00568
vt 0.06564 -0.02709
vt 0.08670 0.00568
vt 0.08670 0.24048
vt 0.06564 -0.02709
vt 0.08670 0.24048
vt 0.04769 0.30179
vt 0.06564 -0.02709
vt 0.04769 0.30179
vt -0.04769 0.30179
vt 0.06564 -0.02709
vt -0.04769 0.30179
vt -0.08670 0.24048
vt 0.06564 -0.02709
vt -0.08670 0.24048
vt -0.08670 0.00568
vt 0.06564 -0.02709
vt -0.08670 0.00568
vt -0.06564 -0.02709
vt -0.06564 -0.72606
vt 0.06564 -0.72606
vt 0.06564 -0.13209
vt -0.06564 -0.72606
vt 0.06564 -0.13209
vt -0.06564 -0.13209
vt -0.72606 0.24048
vt -0.13209 0.24048
vt -0.13209 0.30179
vt -0.72606 0.24048
vt -0.13209 0.30179
vt -0.72606 0.30179
vt -0.72606 0.24048
vt -0.86423 0.19570
vt -0.86423 0.25701
vt -0.72606 0.24048
vt -0.86423 0.25701
vt -0.72606 0.30179
vt -0.72606 -0.02709
vt -0.13209 -0.02709
vt -0.13209 0.00568
vt -0.72606 -0.02709
vt -0.13209 0.00568
vt -0.72606 0.00568
vt -0.72606 -0.02709
vt -0.86423 -0.02709
vt -0.86423 0.00568
vt -0.72606 -0.02709
vt -0.86423 0.00568
vt -0.72606 0.00568
vt -0.08670 0.19570
vt -0.04769 0.25701
vt 0.04769 0.25701
vt -0.08670 0.19570
vt 0.04769 0.25701
vt 0.08670 0.19570
vt -0.08670 0.19570
vt 0.08670 0.19570
vt 0.08670 0.00568
vt -0.08670 0.19570
vt 0.08670 0.00568
vt 0.06564 -0.02709
vt -0.08670 0.19570
vt 0.06564 -0.02709
vt -0.06564 -0.02709
vt -0.08670 0.19570
vt -0.06564 -0.02709
vt -0.08670 0.00568
vt -0.13209 -0.02709
vt -0.72606 -0.02709
vt -0.72606 0.00568
vt -0.13209 -0.02709
vt -0.72606 0.00568
vt -0.13209 0.00568
vt -0.86423 -0.02709
vt -0.72606 -0.02709
vt -0.72606 0.00568
vt -0.86423 -0.02709
vt -0.72606 0.00568
vt -0.86423 0.00568
vt -0.13209 0.24048
vt -0.72606 0.24048
vt -0.72606 0.30179
vt -0.13209 0.24048
vt -0.72606 0.30179
vt -0.13209 0.30179
vt -0.86423 0.19570
vt -0.72606 0.24048
vt -0.72606 0.30179
vt -0.86423 0.19570
vt -0.72606 0.30179
vt -0.86423 0.25701
vt -0.06564 -0.86423
vt 0.06564 -0.86423
vt 0.06564 -0.72606
vt -0.06564 -0.86423
vt 0.06564 -0.72606
vt -0.06564 -0.72606
vt -0.86423 0.00568
vt -0.86423 0.19570
vt -0.72606 0.24048
vt -0.86423 0.00568
vt -0.72606 0.24048
vt -0.72606 0.00568
vt -0.86423 0.19570
vt -0.86423 0.00568
vt -0.72606 0.00568
vt -0.86423 0.19570
vt -0.72606 0.00568
vt -0.72606 0.24048
vt 0.04769 -0.86423
vt -0.04769 -0.86423
vt -0.04769 -0.72606
vt 0.04769 -0.86423
vt -0.04769 -0.72606
vt 0.04769 -0.72606
vt -0.08670 -0.46044
vt -0.08670 -0.24877
vt -0.07243 -0.24877
vt -0.08670 -0.46044
vt -0.07243 -0.24877
vt -0.07243 -0.46044
vt -0.13209 0.00568
vt -0.13209 0.24048
vt -0.20347 0.22153
vt -0.13209 0.00568
vt -0.20347 0.22153
vt -0.22573 0.19257
vt -0.13209 0.00568
vt -0.22573 0.19257
vt -0.22573 0.17337
vt -0.13209 0.00568
vt -0.22573 0.17337
vt -0.21322 0.13099
vt -0.08670 0.19257
vt -0.08670 0.17337
vt -0.07243 0.17337
vt -0.08670 0.19257
vt -0.07243 0.17337
vt -0.07243 0.19257
vt -0.08670 0.17337
vt -0.08670 0.19257
vt -0.07243 0.19257
vt -0.08670 0.17337
vt -0.07243 0.19257
vt -0.07243 0.17337
vt -0.72606 0.00568
vt -0.13209 0.00568
vt -0.21322 0.13099
vt -0.72606 0.00568
vt -0.21322 0.13099
vt -0.24877 0.15033
vt -0.72606 0.00568
vt -0.24877 0.15033
vt -0.46044 0.15033
vt -0.72606 0.00568
vt -0.46044 0.15033
vt -0.50404 0.13996
vt -0.13209 0.24048
vt -0.72606 0.24048
vt -0.50643 0.21760
vt -0.13209 0.24048
vt -0.50643 0.21760
vt -0.46044 0.21562
vt -0.13209 0.24048
vt -0.46044 0.21562
vt -0.24877 0.21562
vt -0.13209 0.24048
vt -0.24877 0.21562
vt -0.20347 0.22153
vt -0.72606 0.24048
vt -0.72606 0.00568
vt -0.50404 0.13996
vt -0.72606 0.24048
vt -0.50404 0.13996
vt -0.48347 0.17337
vt -0.72606 0.24048
vt -0.48347 0.17337
vt -0.48347 0.19257
vt -0.72606 0.24048
vt -0.48347 0.19257
vt -0.50643 0.21760
vt -0.48347 0.19257
vt -0.46044 0.21562
vt -0.50643 0.21760
vt -0.24877 0.21562
vt -0.22573 0.19257
vt -0.20347 0.22153
vt -0.22573 0.17337
vt -0.24877 0.15033
vt -0.21322 0.13099
vt -0.46044 0.15033
vt -0.48347 0.17337
vt -0.50404 0.13996
vt -0.08670 0.21562
vt -0.07243 0.21562
vt -0.07243 0.19257
vt -0.08670 0.21562
vt -0.07243 0.19257
vt -0.08670 0.19257
vt -0.07243 0.15033
vt -0.08670 0.15033
vt -0.08670 0.17337
vt -0.07243 0.15033
vt -0.08670 0.17337
vt -0.07243 0.17337
vt -0.07243 0.17337
vt -0.08670 0.17337
vt -0.08670 0.15033
vt -0.07243 0.17337
vt -0.08670 0.15033
vt -0.07243 0.15033
vt -0.08670 0.19257
vt -0.07243 0.19257
vt -0.07243 0.21562
vt -0.08670 0.19257
vt -0.07243 0.21562
vt -0.08670 0.21562
vt -0.08670 -0.24877
vt -0.08670 -0.46044
vt -0.07243 -0.46044
vt -0.08670 -0.24877
vt -0.07243 -0.46044
vt -0.07243 -0.24877
vt -0.03292 -0.84859
vt -0.03299 -0.80791
vt 0.03299 -0.80791
vt -0.03292 -0.84859
vt 0.03299 -0.80791
vt 0.03292 -0.84859
vt -0.84458 -0.07659
vt -0.81468 -0.07349
vt -0.80461 -0.10313
vt -0.84458 -0.07659
vt -0.80461 -0.10313
vt -0.83247 -0.10146
vt -0.84859 -0.00349
vt -0.80791 -0.00331
vt -0.81468 -0.07349
vt -0.84859 -0.00349
vt -0.81468 -0.07349
vt -0.84458 -0.07659
vt 0.03299 -0.00331
vt -0.03299 -0.00331
vt -0.02792 -0.07349
vt 0.03299 -0.00331
vt -0.02792 -0.07349
vt 0.02792 -0.07349
vt -0.80791 -0.00331
vt -0.84859 -0.00349
vt -0.84458 -0.07659
vt -0.80791 -0.00331
vt -0.84458 -0.07659
vt -0.81468 -0.07349
vt -0.03292 -0.00349
vt 0.03292 -0.00349
vt 0.03140 -0.07659
vt -0.03292 -0.00349
vt 0.03140 -0.07659
vt -0.03140 -0.07659
vt -0.80461 -0.10313
vt -0.83247 -0.10146
vt -0.80019 -0.14299
vt -0.80461 -0.10313
vt -0.80019 -0.14299
vt -0.78658 -0.12706
vt 0.02792 -0.07349
vt -0.02792 -0.07349
vt -0.02381 -0.10313
vt 0.02792 -0.07349
vt -0.02381 -0.10313
vt 0.02381 -0.10313
vt -0.81468 -0.07349
vt -0.84458 -0.07659
vt -0.83247 -0.10146
vt -0.81468 -0.07349
vt -0.83247 -0.10146
vt -0.80461 -0.10313
vt -0.03140 -0.07659
vt 0.03140 -0.07659
vt 0.02716 -0.10146
vt -0.03140 -0.07659
vt 0.02716 -0.10146
vt -0.02716 -0.10146
vt -0.80019 -0.14299
vt -0.78658 -0.12706
vt -0.74697 -0.14217
vt -0.80019 -0.14299
vt -0.74697 -0.14217
vt -0.75144 -0.16356
vt -0.02716 -0.10146
vt 0.02716 -0.10146
vt 0.02113 -0.14299
vt -0.02716 -0.10146
vt 0.02113 -0.14299
vt -0.02113 -0.14299
vt -0.83247 -0.10146
vt -0.80461 -0.10313
vt -0.78658 -0.12706
vt -0.83247 -0.10146
vt -0.78658 -0.12706
vt -0.80019 -0.14299
vt 0.02381 -0.10313
vt -0.02381 -0.10313
vt -0.01820 -0.12706
vt 0.02381 -0.10313
vt -0.01820 -0.12706
vt 0.01820 -0.12706
vt 0.01451 -0.74697
vt -0.01451 -0.74697
vt -0.01453 -0.69072
vt 0.01451 -0.74697
vt -0.01453 -0.69072
vt 0.01453 -0.69072
vt 0.01820 -0.78658
vt -0.01820 -0.78658
vt -0.01451 -0.74697
vt 0.01820 -0.78658
vt -0.01451 -0.74697
vt 0.01451 -0.74697
vt -0.78658 -0.12706
vt -0.80019 -0.14299
vt -0.75144 -0.16356
vt -0.78658 -0.12706
vt -0.75144 -0.16356
vt -0.74697 -0.14217
vt -0.02113 -0.80019
vt 0.02113 -0.80019
vt 0.01477 -0.75144
vt -0.02113 -0.80019
vt 0.01477 -0.75144
vt -0.01477 -0.75144
vt -0.69072 -0.14542
vt -0.69022 -0.16436
vt -0.63178 -0.15997
vt -0.69072 -0.14542
vt -0.63178 -0.15997
vt -0.62950 -0.14507
vt -0.74697 -0.14217
vt -0.75144 -0.16356
vt -0.69022 -0.16436
vt -0.74697 -0.14217
vt -0.69022 -0.16436
vt -0.69072 -0.14542
vt -0.01477 -0.75144
vt 0.01477 -0.75144
vt 0.01458 -0.69022
vt -0.01477 -0.75144
vt 0.01458 -0.69022
vt -0.01458 -0.69022
vt -0.75144 -0.16356
vt -0.74697 -0.14217
vt -0.69072 -0.14542
vt -0.75144 -0.16356
vt -0.69072 -0.14542
vt -0.69022 -0.16436
vt -0.63178 -0.15997
vt -0.62950 -0.14507
vt -0.60095 -0.13249
vt -0.63178 -0.15997
vt -0.60095 -0.13249
vt -0.59164 -0.14560
vt -0.01458 -0.69022
vt 0.01458 -0.69022
vt 0.01465 -0.63178
vt -0.01458 -0.69022
vt 0.01465 -0.63178
vt -0.01465 -0.63178
vt -0.69022 -0.16436
vt -0.69072 -0.14542
vt -0.62950 -0.14507
vt -0.69022 -0.16436
vt -0.62950 -0.14507
vt -0.63178 -0.15997
vt 0.01453 -0.69072
vt -0.01453 -0.69072
vt -0.01437 -0.62950
vt 0.01453 -0.69072
vt -0.01437 -0.62950
vt 0.01437 -0.62950
vt -0.60095 -0.13249
vt -0.59164 -0.14560
vt -0.55953 -0.09892
vt -0.60095 -0.13249
vt -0.55953 -0.09892
vt -0.57743 -0.09982
vt 0.01437 -0.62950
vt -0.01437 -0.62950
vt -0.01443 -0.60095
vt 0.01437 -0.62950
vt -0.01443 -0.60095
vt 0.01443 -0.60095
vt -0.62950 -0.14507
vt -0.63178 -0.15997
vt -0.59164 -0.14560
vt -0.62950 -0.14507
vt -0.59164 -0.14560
vt -0.60095 -0.13249
vt -0.01465 -0.63178
vt 0.01465 -0.63178
vt 0.01488 -0.59164
vt -0.01465 -0.63178
vt 0.01488 -0.59164
vt -0.01488 -0.59164
vt -0.57743 -0.09982
vt -0.55953 -0.09892
vt -0.53378 -0.05993
vt -0.57743 -0.09982
vt -0.53378 -0.05993
vt -0.58134 -0.06074
vt -0.01488 -0.14560
vt 0.01488 -0.14560
vt 0.02213 -0.09892
vt -0.01488 -0.14560
vt 0.02213 -0.09892
vt -0.02213 -0.09892
vt -0.59164 -0.14560
vt -0.60095 -0.13249
vt -0.57743 -0.09982
vt -0.59164 -0.14560
vt -0.57743 -0.09982
vt -0.55953 -0.09892
vt 0.01443 -0.13249
vt -0.01443 -0.13249
vt -0.01913 -0.09982
vt 0.01443 -0.13249
vt -0.01913 -0.09982
vt 0.01913 -0.09982
vt -0.53378 -0.05993
vt -0.58134 -0.06074
vt -0.59695 -0.03400
vt -0.53378 -0.05993
vt -0.59695 -0.03400
vt -0.51863 -0.03391
vt -0.02213 -0.09892
vt 0.02213 -0.09892
vt 0.03092 -0.05993
vt -0.02213 -0.09892
vt 0.03092 -0.05993
vt -0.03092 -0.05993
vt -0.55953 -0.09892
vt -0.57743 -0.09982
vt -0.58134 -0.06074
vt -0.55953 -0.09892
vt -0.58134 -0.06074
vt -0.53378 -0.05993
vt 0.01913 -0.09982
vt -0.01913 -0.09982
vt -0.02729 -0.06074
vt 0.01913 -0.09982
vt -0.02729 -0.06074
vt 0.02729 -0.06074
vt -0.59695 -0.03400
vt -0.51863 -0.03391
vt -0.51255 -0.00816
vt -0.59695 -0.03400
vt -0.51255 -0.00816
vt -0.60320 -0.00822
vt 0.02729 -0.06074
vt -0.02729 -0.06074
vt -0.03123 -0.03400
vt 0.02729 -0.06074
vt -0.03123 -0.03400
vt 0.03123 -0.03400
vt -0.58134 -0.06074
vt -0.53378 -0.05993
vt -0.51863 -0.03391
vt -0.58134 -0.06074
vt -0.51863 -0.03391
vt -0.59695 -0.03400
vt -0.03092 -0.05993
vt 0.03092 -0.05993
vt 0.03264 -0.03391
vt -0.03092 -0.05993
vt 0.03264 -0.03391
vt -0.03264 -0.03391
vt -0.03301 -0.51255
vt 0.03301 -0.51255
vt 0.03299 -0.60320
vt -0.03301 -0.51255
vt 0.03299 -0.60320
vt -0.03299 -0.60320
vt -0.03264 -0.03391
vt 0.03264 -0.03391
vt 0.03301 -0.00816
vt -0.03264 -0.03391
vt 0.03301 -0.00816
vt -0.03301 -0.00816
vt -0.51863 -0.03391
vt -0.59695 -0.03400
vt -0.60320 -0.00822
vt -0.51863 -0.03391
vt -0.60320 -0.00822
vt -0.51255 -0.00816
vt 0.03123 -0.03400
vt -0.03123 -0.03400
vt -0.03299 -0.00822
vt 0.03123 -0.03400
vt -0.03299 -0.00822
vt 0.03299 -0.00822
f 360/1957 356/1958 355/1959
f 360/1960 355/1961 354/1962
f 360/1963 354/1964 353/1965
f 360/1966 353/1967 358/1968
f 360/1969 358/1970 357/1971
f 360/1972 357/1973 359/1974
f 361/1975 362/1976 363/1977
f 361/1978 363/1979 364/1980
f 365/1981 366/1982 367/1983
f 365/1984 367/1985 368/1986
f 369/1987 368/1988 367/1989
f 369/1990 367/1991 364/1992
f 369/1993 364/1994 363/1995
f 369/1996 363/1997 370/1998
f 369/1999 370/2000 371/2001
f 369/2002 371/2003 372/2004
f 373/2005 374/2006 369/2007
f 373/2008 369/2009 372/2010
f 375/2011 370/2012 363/2013
f 375/2014 363/2015 362/2016
f 366/2017 376/2018 377/2019
f 366/2020 377/2021 361/2022
f 373/2023 372/2024 371/2025
f 373/2026 371/2027 378/2028
f 374/2029 379/2030 380/2031
f 374/2032 380/2033 365/2034
f 381/2035 382/2036 377/2037
f 381/2038 377/2039 376/2040
f 381/2041 376/2042 380/2043
f 381/2044 380/2045 379/2046
f 381/2047 379/2048 383/2049
f 381/2050 383/2051 384/2052
f 369/2053 374/2054 365/2055
f 369/2056 365/2057 368/2058
f 383/2059 373/2060 378/2061
f 383/2062 378/2063 384/2064
f 367/2065 366/2066 361/2067
f 367/2068 361/2069 364/2070
f 381/2071 375/2072 362/2073
f 381/2074 362/2075 382/2076
f 383/2077 379/2078 374/2079
f 383/2080 374/2081 373/2082
f 380/2083 376/2084 366/2085
f 380/2086 366/2087 365/2088
f 381/2089 384/2090 378/2091
f 381/2092 378/2093 375/2094
f 377/2095 382/2096 362/2097
f 377/2098 362/2099 361/2100
f 385/2101 386/2102 353/2103
f 385/2104 353/2105 354/2106
f 371/2107 370/2108 387/2109
f 371/2110 387/2111 388/2112
f 371/2113 388/2114 389/2115
f 371/2116 389/2117 390/2118
f 391/2119 392/2120 355/2121
f 391/2122 355/2123 356/2124
f 389/2125 388/2126 357/2127
f 389/2128 357/2129 358/2130
f 378/2131 371/2132 390/2133
f 378/2134 390/2135 386/2136
f 378/2137 386/2138 385/2139
f 378/2140 385/2141 393/2142
f 370/2143 375/2144 394/2145
f 370/2146 394/2147 395/2148
f 370/2149 395/2150 396/2151
f 370/2152 396/2153 387/2154
f 375/2155 378/2156 393/2157
f 375/2158 393/2159 392/2160
f 375/2161 392/2162 391/2163
f 375/2164 391/2165 394/2166
f 391/2167 395/2168 394/2169
f 396/2170 388/2171 387/2172
f 389/2173 386/2174 390/2175
f 385/2176 392/2177 393/2178
f 396/2179 359/2180 357/2181
f 396/2182 357/2183 388/2184
f 353/2185 386/2186 389/2187
f 353/2188 389/2189 358/2190
f 355/2191 392/2192 385/2193
f 355/2194 385/2195 354/2196
f 391/2197 356/2198 360/2199
f 391/2200 360/2201 395/2202
f 396/2203 395/2204 360/2205
f 396/2206 360/2207 359/2208
f 397/2209 398/2210 399/2211
f 397/2212 399/2213 400/2214
f 401/2215 402/2216 403/2217
f 401/2218 403/2219 404/2220
f 400/2221 399/2222 402/2223
f 400/2224 402/2225 401/2226
f 399/2227 398/2228 405/2229
f 399/2230 405/2231 402/2232
f 398/2233 397/2234 406/2235
f 398/2236 406/2237 405/2238
f 397/2239 400/2240 401/2241
f 397/2242 401/2243 406/2244
f 407/2245 408/2246 409/2247
f 407/2248 409/2249 410/2250
f 402/2251 405/2252 407/2253
f 402/2254 407/2255 403/2256
f 405/2257 406/2258 408/2259
f 405/2260 408/2261 407/2262
f 406/2263 401/2264 404/2265
f 406/2266 404/2267 408/2268
f 411/2269 412/2270 413/2271
f 411/2272 413/2273 414/2274
f 408/2275 404/2276 411/2277
f 408/2278 411/2279 409/2280
f 404/2281 403/2282 412/2283
f 404/2284 412/2285 411/2286
f 403/2287 407/2288 410/2289
f 403/2290 410/2291 412/2292
f 413/2293 415/2294 416/2295
f 413/2296 416/2297 417/2298
f 412/2299 410/2300 415/2301
f 412/2302 415/2303 413/2304
f 410/2305 409/2306 418/2307
f 410/2308 418/2309 415/2310
f 409/2311 411/2312 414/2313
f 409/2314 414/2315 418/2316
f 416/2317 419/2318 420/2319
f 416/2320 420/2321 421/2322
f 415/2323 418/2324 419/2325
f 415/2326 419/2327 416/2328
f 418/2329 414/2330 422/2331
f 418/2332 422/2333 419/2334
f 414/2335 413/2336 417/2337
f 414/2338 417/2339 422/2340
f 423/2341 424/2342 425/2343
f 423/2344 425/2345 426/2346
f 419/2347 422/2348 423/2349
f 419/2350 423/2351 420/2352
f 422/2353 417/2354 424/2355
f 422/2356 424/2357 423/2358
f 417/2359 416/2360 421/2361
f 417/2362 421/2363 424/2364
f 427/2365 428/2366 429/2367
f 427/2368 429/2369 430/2370
f 424/2371 421/2372 427/2373
f 424/2374 427/2375 425/2376
f 421/2377 420/2378 428/2379
f 421/2380 428/2381 427/2382
f 420/2383 423/2384 426/2385
f 420/2386 426/2387 428/2388
f 430/2389 429/2390 431/2391
f 430/2392 431/2393 432/2394
f 428/2395 426/2396 433/2397
f 428/2398 433/2399 429/2400
f 426/2401 425/2402 434/2403
f 426/2404 434/2405 433/2406
f 425/2407 427/2408 430/2409
f 425/2410 430/2411 434/2412
f 435/2413 436/2414 437/2415
f 435/2416 437/2417 438/2418
f 429/2419 433/2420 435/2421
f 429/2422 435/2423 431/2424
f 433/2425 434/2426 436/2427
f 433/2428 436/2429 435/2430
f 434/2431 430/2432 432/2433
f 434/2434 432/2435 436/2436
f 439/2437 440/2438 441/2439
f 439/2440 441/2441 442/2442
f 436/2443 432/2444 439/2445
f 436/2446 439/2447 437/2448
f 432/2449 431/2450 440/2451
f 432/2452 440/2453 439/2454
f 431/2455 435/2456 438/2457
f 431/2458 438/2459 440/2460
f 441/2461 443/2462 444/2463
f 441/2464 444/2465 442/2466
f 440/2467 438/2468 443/2469
f 440/2470 443/2471 441/2472
f 438/2473 437/2474 444/2475
f 438/2476 444/2477 443/2478
f 437/2479 439/2480 442/2481
f 437/2482 442/2483 444/2484
o Pump
g Pump
usemtl Bubblegum
v -0.06976 0.13996 -1.32448
v -0.06976 -0.00961 -1.32448
v -0.06976 0.00195 -1.24706
v -0.06976 0.13947 -1.24706
v 0.06976 0.01285 -1.13077
v 0.06976 0.21968 -1.13485
v 0.06976 0.26986 -1.02263
v 0.06976 0.02375 -1.01447
v 0.06976 -0.37683 -2.36755
v 0.06976 0.22877 -2.45779
v 0.06976 0.24523 -1.49140
v 0.06976 -0.03452 -1.49140
v 0.06976 -0.00961 -1.32448
v 0.06976 0.13996 -1.32448
v 0.06976 0.13947 -1.24706
v 0.06976 0.00195 -1.24706
v 0.05098 0.17039 -1.32448
v -0.05098 0.17039 -1.32448
v -0.05098 0.16990 -1.24706
v 0.05098 0.16990 -1.24706
v -0.06976 0.21968 -1.13485
v -0.06976 0.01285 -1.13077
v -0.06976 0.02375 -1.01447
v -0.06976 0.26986 -1.02263
v -0.05098 -0.01740 -1.13037
v 0.05098 -0.01740 -1.13037
v 0.05098 -0.00645 -1.01367
v -0.05098 -0.00645 -1.01367
v 0.05098 0.24977 -1.13524
v -0.05098 0.24977 -1.13524
v -0.05098 0.29962 -1.02342
v 0.05098 0.29962 -1.02342
v 0.06976 -0.10215 -1.24706
v 0.06976 -0.15676 -1.34553
v 0.05098 -0.02648 -1.22759
v -0.05098 -0.02648 -1.22759
v -0.05098 -0.13057 -1.22759
v 0.05098 -0.13057 -1.22759
v -0.06976 -0.10215 -1.24706
v -0.05098 0.17088 -1.40189
v -0.05098 0.27566 -1.49140
v -0.06976 0.24523 -1.49140
v -0.06976 0.14045 -1.40189
v 0.05098 -0.07121 -1.51009
v 0.05098 -0.40892 -2.37254
v -0.05098 -0.07121 -1.51009
v -0.05098 -0.40892 -2.37254
v 0.05098 0.25894 -2.46897
v 0.05098 0.27566 -1.49140
v -0.05098 0.25894 -2.46897
v -0.06976 0.22877 -2.45779
v -0.06976 -0.03452 -1.49140
v -0.06976 -0.37683 -2.36755
v -0.06976 -0.02116 -1.40189
v -0.06976 -0.08698 -1.40189
v -0.06976 -0.15676 -1.34553
v 0.05098 -0.18611 -1.33579
v 0.05098 0.17088 -1.40189
v 0.06976 0.14045 -1.40189
v -0.05098 -0.11726 -1.40189
v 0.06976 -0.02116 -1.40189
v -0.05098 -0.18611 -1.33579
v 0.05098 -0.11726 -1.40189
v 0.06976 -0.08698 -1.40189
v -0.05599 0.25997 -2.48347
v 0.05599 0.25997 -2.48347
v 0.05599 0.20439 -2.60000
v -0.05599 0.20439 -2.60000
v -0.07661 0.24191 -2.47124
v -0.07661 -0.40385 -2.38082
v 0.05599 -0.42368 -2.38674
v -0.05599 -0.42368 -2.38674
v -0.05599 -0.39574 -2.51173
v 0.05599 -0.39574 -2.51173
v 0.07661 -0.37974 -2.47963
v 0.07661 -0.40385 -2.38082
v -0.07661 -0.37974 -2.47963
v -0.07661 0.19187 -2.56790
v 0.07661 0.24191 -2.47124
v 0.07661 0.19187 -2.56790
vt -1.10373 0.11663
vt -1.10373 -0.00801
vt -1.03922 0.00162
vt -1.10373 0.11663
vt -1.03922 0.00162
vt -1.03922 0.11623
vt -0.94231 0.01071
vt -0.94571 0.18307
vt -0.85219 0.22488
vt -0.94231 0.01071
vt -0.85219 0.22488
vt -0.84539 0.01979
vt -1.97296 -0.31402
vt -2.04816 0.19064
vt -1.24283 0.20436
vt -1.97296 -0.31402
vt -1.24283 0.20436
vt -1.24283 -0.02877
vt -1.10373 -0.00801
vt -1.10373 0.11663
vt -1.03922 0.11623
vt -1.10373 -0.00801
vt -1.03922 0.11623
vt -1.03922 0.00162
vt 0.04248 -1.10373
vt -0.04248 -1.10373
vt -0.04248 -1.03922
vt 0.04248 -1.10373
vt -0.04248 -1.03922
vt 0.04248 -1.03922
vt -0.94571 0.18307
vt -0.94231 0.01071
vt -0.84539 0.01979
vt -0.94571 0.18307
vt -0.84539 0.01979
vt -0.85219 0.22488
vt -0.04248 -0.94198
vt 0.04248 -0.94198
vt 0.04248 -0.84473
vt -0.04248 -0.94198
vt 0.04248 -0.84473
vt -0.04248 -0.84473
vt 0.04248 -0.94603
vt -0.04248 -0.94603
vt -0.04248 -0.85285
vt 0.04248 -0.94603
vt -0.04248 -0.85285
vt 0.04248 -0.85285
vt -1.10373 -0.00801
vt -1.03922 0.00162
vt -1.03922 -0.08513
vt -1.10373 -0.00801
vt -1.03922 -0.08513
vt -1.12128 -0.13063
vt -1.10373 0.14199
vt -1.03922 0.14158
vt -1.03922 0.11623
vt -1.10373 0.14199
vt -1.03922 0.11623
vt -1.10373 0.11663
vt 0.04248 -0.02207
vt -0.04248 -0.02207
vt -0.04248 -0.10881
vt 0.04248 -0.02207
vt -0.04248 -0.10881
vt 0.04248 -0.10881
vt -1.02299 -0.02207
vt -1.03922 0.00162
vt -1.03922 -0.08513
vt -1.02299 -0.02207
vt -1.03922 -0.08513
vt -1.02299 -0.10881
vt -1.16824 0.14240
vt -1.24283 0.22972
vt -1.24283 0.20436
vt -1.16824 0.14240
vt -1.24283 0.20436
vt -1.16824 0.11704
vt -0.94198 -0.01450
vt -0.84473 -0.00538
vt -0.84539 0.01979
vt -0.94198 -0.01450
vt -0.84539 0.01979
vt -0.94231 0.01071
vt -0.94603 0.20814
vt -1.03922 0.14158
vt -1.03922 0.11623
vt -0.94603 0.20814
vt -1.03922 0.11623
vt -0.94571 0.18307
vt -0.94231 0.01071
vt -0.84539 0.01979
vt -0.84473 -0.00538
vt -0.94231 0.01071
vt -0.84473 -0.00538
vt -0.94198 -0.01450
vt -0.94571 0.18307
vt -1.03922 0.11623
vt -1.03922 0.14158
vt -0.94571 0.18307
vt -1.03922 0.14158
vt -0.94603 0.20814
vt -1.97296 -0.31402
vt -1.24283 -0.02877
vt -1.25841 -0.05934
vt -1.97296 -0.31402
vt -1.25841 -0.05934
vt -1.97712 -0.34077
vt 0.04248 -1.97712
vt 0.04248 -1.25841
vt -0.04248 -1.25841
vt 0.04248 -1.97712
vt -0.04248 -1.25841
vt -0.04248 -1.97712
vt -1.24283 0.20436
vt -2.04816 0.19064
vt -2.05748 0.21578
vt -1.24283 0.20436
vt -2.05748 0.21578
vt -1.24283 0.22972
vt -1.24283 0.22972
vt -2.05748 0.21578
vt -2.04816 0.19064
vt -1.24283 0.22972
vt -2.04816 0.19064
vt -1.24283 0.20436
vt -1.24283 -0.02877
vt -1.97296 -0.31402
vt -1.97712 -0.34077
vt -1.24283 -0.02877
vt -1.97712 -0.34077
vt -1.25841 -0.05934
vt 0.04248 -1.24283
vt 0.04248 -2.05748
vt -0.04248 -2.05748
vt 0.04248 -1.24283
vt -0.04248 -2.05748
vt -0.04248 -1.24283
vt -1.24283 -0.02877
vt -1.24283 0.20436
vt -2.04816 0.19064
vt -1.24283 -0.02877
vt -2.04816 0.19064
vt -1.97296 -0.31402
vt -1.10373 0.14199
vt -1.16824 0.14240
vt -1.16824 0.11704
vt -1.10373 0.14199
vt -1.16824 0.11704
vt -1.10373 0.11663
vt -1.10373 -0.00801
vt -1.16824 -0.01763
vt -1.16824 -0.07248
vt -1.10373 -0.00801
vt -1.16824 -0.07248
vt -1.12128 -0.13063
vt -1.02299 -0.10881
vt -1.11316 -0.15509
vt -1.12128 -0.13063
vt -1.02299 -0.10881
vt -1.12128 -0.13063
vt -1.03922 -0.08513
vt -1.24283 0.22972
vt -1.16824 0.14240
vt -1.16824 0.11704
vt -1.24283 0.22972
vt -1.16824 0.11704
vt -1.24283 0.20436
vt -1.24283 -0.02877
vt -1.25841 -0.05934
vt -1.16824 -0.09772
vt -1.24283 -0.02877
vt -1.16824 -0.09772
vt -1.16824 -0.07248
vt 0.04248 0.22972
vt -0.04248 0.22972
vt -0.04248 0.14240
vt 0.04248 0.22972
vt -0.04248 0.14240
vt 0.04248 0.14240
vt -1.24283 -0.02877
vt -1.24283 0.20436
vt -1.16824 0.11704
vt -1.24283 -0.02877
vt -1.16824 0.11704
vt -1.16824 -0.01763
vt -1.24283 0.20436
vt -1.24283 -0.02877
vt -1.16824 -0.01763
vt -1.24283 0.20436
vt -1.16824 -0.01763
vt -1.16824 0.11704
vt -0.85219 0.22488
vt -0.94571 0.18307
vt -0.94603 0.20814
vt -0.85219 0.22488
vt -0.94603 0.20814
vt -0.85285 0.24968
vt -1.03922 0.00162
vt -0.94231 0.01071
vt -0.94198 -0.01450
vt -1.03922 0.00162
vt -0.94198 -0.01450
vt -1.02299 -0.02207
vt -0.85285 0.24968
vt -0.94603 0.20814
vt -0.94571 0.18307
vt -0.85285 0.24968
vt -0.94571 0.18307
vt -0.85219 0.22488
vt -1.02299 -0.02207
vt -0.94198 -0.01450
vt -0.94231 0.01071
vt -1.02299 -0.02207
vt -0.94231 0.01071
vt -1.03922 0.00162
vt 0.04248 -1.03922
vt -0.04248 -1.03922
vt -0.04248 -0.94603
vt 0.04248 -1.03922
vt -0.04248 -0.94603
vt 0.04248 -0.94603
vt -0.04248 -1.02299
vt 0.04248 -1.02299
vt 0.04248 -0.94198
vt -0.04248 -1.02299
vt 0.04248 -0.94198
vt -0.04248 -0.94198
vt -1.03922 0.11623
vt -1.03922 0.00162
vt -0.94231 0.01071
vt -1.03922 0.11623
vt -0.94231 0.01071
vt -0.94571 0.18307
vt -1.03922 0.00162
vt -1.03922 0.11623
vt -0.94571 0.18307
vt -1.03922 0.00162
vt -0.94571 0.18307
vt -0.94231 0.01071
vt -0.04248 -1.11316
vt 0.04248 -1.11316
vt 0.04248 -1.02299
vt -0.04248 -1.11316
vt 0.04248 -1.02299
vt -0.04248 -1.02299
vt -1.03922 0.00162
vt -1.10373 -0.00801
vt -1.12128 -0.13063
vt -1.03922 0.00162
vt -1.12128 -0.13063
vt -1.03922 -0.08513
vt -1.11316 -0.15509
vt -1.02299 -0.10881
vt -1.03922 -0.08513
vt -1.11316 -0.15509
vt -1.03922 -0.08513
vt -1.12128 -0.13063
vt 0.04248 -1.25841
vt 0.04248 -1.16824
vt -0.04248 -1.16824
vt 0.04248 -1.25841
vt -0.04248 -1.16824
vt -0.04248 -1.25841
vt -1.11316 -0.15509
vt -1.16824 -0.09772
vt -1.16824 -0.07248
vt 0.04248 -0.15509
vt 0.05813 -0.07248
vt 0.05813 -0.13063
vt -0.04248 -0.09772
vt -0.04248 -0.15509
vt -0.05813 -0.13063
vt -1.16824 -0.09772
vt -1.12128 -0.13063
vt -1.16824 -0.07248
vt -1.03922 0.00162
vt -1.02299 -0.02207
vt -1.02299 -0.10881
vt -1.03922 0.00162
vt -1.02299 -0.10881
vt -1.03922 -0.08513
vt -1.16824 -0.01763
vt -1.24283 -0.02877
vt -1.16824 -0.07248
vt -1.24283 -0.02877
vt -1.16824 -0.01763
vt -1.16824 -0.07248
vt -0.04248 -0.09772
vt 0.04248 -0.09772
vt 0.04248 -0.15509
vt -0.04248 -0.09772
vt 0.04248 -0.15509
vt -0.04248 -0.15509
vt -1.16824 -0.09772
vt -1.25841 -0.05934
vt -1.24283 -0.02877
vt -1.16824 -0.09772
vt -1.24283 -0.02877
vt -1.16824 -0.07248
vt -1.03922 0.14158
vt -1.10373 0.14199
vt -1.10373 0.11663
vt -1.03922 0.14158
vt -1.10373 0.11663
vt -1.03922 0.11623
vt -1.16824 0.14240
vt -1.10373 0.14199
vt -1.10373 0.11663
vt -1.16824 0.14240
vt -1.10373 0.11663
vt -1.16824 0.11704
vt -1.16824 -0.01763
vt -1.10373 -0.00801
vt -1.12128 -0.13063
vt -1.16824 -0.01763
vt -1.12128 -0.13063
vt -1.16824 -0.07248
vt 0.04248 -1.16824
vt -0.04248 -1.16824
vt -0.04248 -1.10373
vt 0.04248 -1.16824
vt -0.04248 -1.10373
vt 0.04248 -1.10373
vt -1.16824 -0.01763
vt -1.16824 0.11704
vt -1.10373 0.11663
vt -1.16824 -0.01763
vt -1.10373 0.11663
vt -1.10373 -0.00801
vt -1.16824 0.11704
vt -1.16824 -0.01763
vt -1.10373 -0.00801
vt -1.16824 0.11704
vt -1.10373 -0.00801
vt -1.10373 0.11663
vt -0.04666 -2.06956
vt 0.04666 -2.06956
vt 0.04666 -2.16667
vt -0.04666 -2.06956
vt 0.04666 -2.16667
vt -0.04666 -2.16667
vt -1.97296 -0.31402
vt -2.04816 0.19064
vt -2.05937 0.20159
vt -1.97296 -0.31402
vt -2.05937 0.20159
vt -1.98402 -0.33654
vt 0.04248 -2.05748
vt 0.04666 -2.06956
vt -0.04666 -2.06956
vt 0.04248 -2.05748
vt -0.04666 -2.06956
vt -0.04248 -2.05748
vt 0.04666 -1.98895
vt -0.04666 -1.98895
vt -0.04666 -2.09311
vt 0.04666 -1.98895
vt -0.04666 -2.09311
vt 0.04666 -2.09311
vt -0.04666 -0.32978
vt -0.04666 0.17033
vt 0.04666 0.17033
vt -0.04666 -0.32978
vt 0.04666 0.17033
vt 0.04666 -0.32978
vt -2.06636 -0.31645
vt -1.98402 -0.33654
vt -1.98895 -0.35307
vt -2.06636 -0.31645
vt -1.98895 -0.35307
vt -2.09311 -0.32978
vt -1.98402 -0.33654
vt -2.06636 -0.31645
vt -2.09311 -0.32978
vt -1.98402 -0.33654
vt -2.09311 -0.32978
vt -1.98895 -0.35307
vt -2.13992 0.15989
vt -2.05937 0.20159
vt -2.06956 0.21664
vt -2.13992 0.15989
vt -2.06956 0.21664
vt -2.16667 0.17033
vt -2.05937 0.20159
vt -2.13992 0.15989
vt -2.16667 0.17033
vt -2.05937 0.20159
vt -2.16667 0.17033
vt -2.06956 0.21664
vt -0.05813 -0.31402
vt -0.06384 -0.33654
vt -0.04666 -0.35307
vt -0.05813 -0.31402
vt -0.04666 -0.35307
vt -0.04248 -0.34077
vt -2.06636 -0.31645
vt -2.13992 0.15989
vt -2.16667 0.17033
vt -2.06636 -0.31645
vt -2.16667 0.17033
vt -2.09311 -0.32978
vt -2.13992 0.15989
vt -2.06636 -0.31645
vt -2.09311 -0.32978
vt -2.13992 0.15989
vt -2.09311 -0.32978
vt -2.16667 0.17033
vt -0.04248 -2.05748
vt -0.04666 -2.06956
vt -0.06384 -2.05937
vt -0.04248 0.21578
vt -0.06384 0.20159
vt -0.05813 0.19064
vt 0.05813 0.19064
vt 0.06384 0.20159
vt 0.04666 0.21664
vt -2.04816 0.19064
vt -2.06956 0.21664
vt -2.05748 0.21578
vt -1.98402 -0.33654
vt -2.05937 0.20159
vt -2.13992 0.15989
vt -1.98402 -0.33654
vt -2.13992 0.15989
vt -2.06636 -0.31645
vt -2.05937 0.20159
vt -1.98402 -0.33654
vt -2.06636 -0.31645
vt -2.05937 0.20159
vt -2.06636 -0.31645
vt -2.13992 0.15989
vt 0.04666 -0.35307
vt 0.04248 -0.34077
vt -0.04248 -0.34077
vt 0.04666 -0.35307
vt -0.04248 -0.34077
vt -0.04666 -0.35307
vt 0.06384 -0.33654
vt 0.05813 -0.31402
vt 0.04248 -0.34077
vt 0.06384 -0.33654
vt 0.04248 -0.34077
vt 0.04666 -0.35307
vt -1.98402 -0.33654
vt -2.05937 0.20159
vt -2.04816 0.19064
vt -1.98402 -0.33654
vt -2.04816 0.19064
vt -1.97296 -0.31402
f 445/2485 446/2486 447/2487
f 445/2488 447/2489 448/2490
f 449/2491 450/2492 451/2493
f 449/2494 451/2495 452/2496
f 453/2497 454/2498 455/2499
f 453/2500 455/2501 456/2502
f 457/2503 458/2504 459/2505
f 457/2506 459/2507 460/2508
f 461/2509 462/2510 463/2511
f 461/2512 463/2513 464/2514
f 465/2515 466/2516 467/2517
f 465/2518 467/2519 468/2520
f 469/2521 470/2522 471/2523
f 469/2524 471/2525 472/2526
f 473/2527 474/2528 475/2529
f 473/2530 475/2531 476/2532
f 457/2533 460/2534 477/2535
f 457/2536 477/2537 478/2538
f 461/2539 464/2540 459/2541
f 461/2542 459/2543 458/2544
f 479/2545 480/2546 481/2547
f 479/2548 481/2549 482/2550
f 480/2551 447/2552 483/2553
f 480/2554 483/2555 481/2556
f 484/2557 485/2558 486/2559
f 484/2560 486/2561 487/2562
f 469/2563 472/2564 467/2565
f 469/2566 467/2567 466/2568
f 474/2569 463/2570 448/2571
f 474/2572 448/2573 465/2574
f 449/2575 452/2576 471/2577
f 449/2578 471/2579 470/2580
f 450/2581 459/2582 464/2583
f 450/2584 464/2585 473/2586
f 453/2587 456/2588 488/2589
f 453/2590 488/2591 489/2592
f 489/2593 488/2594 490/2595
f 489/2596 490/2597 491/2598
f 455/2599 454/2600 492/2601
f 455/2602 492/2603 493/2604
f 485/2605 494/2606 495/2607
f 485/2608 495/2609 486/2610
f 496/2611 497/2612 491/2613
f 496/2614 491/2615 490/2616
f 493/2617 492/2618 494/2619
f 493/2620 494/2621 485/2622
f 496/2623 486/2624 495/2625
f 496/2626 495/2627 497/2628
f 462/2629 484/2630 487/2631
f 462/2632 487/2633 445/2634
f 446/2635 498/2636 499/2637
f 446/2638 499/2639 500/2640
f 482/2641 501/2642 478/2643
f 482/2644 478/2645 477/2646
f 493/2647 502/2648 503/2649
f 493/2650 503/2651 455/2652
f 496/2653 490/2654 504/2655
f 496/2656 504/2657 499/2658
f 493/2659 485/2660 484/2661
f 493/2662 484/2663 502/2664
f 456/2665 455/2666 503/2667
f 456/2668 503/2669 505/2670
f 486/2671 496/2672 498/2673
f 486/2674 498/2675 487/2676
f 451/2677 450/2678 473/2679
f 451/2680 473/2681 476/2682
f 460/2683 449/2684 470/2685
f 460/2686 470/2687 479/2688
f 475/2689 474/2690 465/2691
f 475/2692 465/2693 468/2694
f 480/2695 469/2696 466/2697
f 480/2698 466/2699 447/2700
f 464/2701 463/2702 474/2703
f 464/2704 474/2705 473/2706
f 480/2707 479/2708 470/2709
f 480/2710 470/2711 469/2712
f 448/2713 447/2714 466/2715
f 448/2716 466/2717 465/2718
f 460/2719 459/2720 450/2721
f 460/2722 450/2723 449/2724
f 506/2725 501/2726 482/2727
f 506/2728 482/2729 481/2730
f 447/2731 446/2732 500/2733
f 447/2734 500/2735 483/2736
f 506/2737 481/2738 483/2739
f 506/2740 483/2741 500/2742
f 488/2743 507/2744 504/2745
f 488/2746 504/2747 490/2748
f 501/2749 507/2750 508/2751
f 501/2752 508/2753 478/2754
f 504/2755 506/2756 500/2757
f 504/2758 500/2759 499/2760
f 460/2761 479/2762 482/2763
f 460/2764 482/2765 477/2766
f 498/2767 496/2768 499/2769
f 456/2770 505/2771 508/2772
f 504/2773 507/2774 501/2775
f 504/2776 501/2777 506/2778
f 507/2779 488/2780 456/2781
f 507/2782 456/2783 508/2784
f 463/2785 462/2786 445/2787
f 463/2788 445/2789 448/2790
f 502/2791 461/2792 458/2793
f 502/2794 458/2795 503/2796
f 505/2797 457/2798 478/2799
f 505/2800 478/2801 508/2802
f 502/2803 484/2804 462/2805
f 502/2806 462/2807 461/2808
f 505/2809 503/2810 458/2811
f 505/2812 458/2813 457/2814
f 487/2815 498/2816 446/2817
f 487/2818 446/2819 445/2820
f 509/2821 510/2822 511/2823
f 509/2824 511/2825 512/2826
f 497/2827 495/2828 513/2829
f 497/2830 513/2831 514/2832
f 492/2833 510/2834 509/2835
f 492/2836 509/2837 494/2838
f 515/2839 516/2840 517/2841
f 515/2842 517/2843 518/2844
f 517/2845 512/2846 511/2847
f 517/2848 511/2849 518/2850
f 519/2851 520/2852 515/2853
f 519/2854 515/2855 518/2856
f 514/2857 521/2858 517/2859
f 514/2860 517/2861 516/2862
f 522/2863 513/2864 509/2865
f 522/2866 509/2867 512/2868
f 523/2869 524/2870 511/2871
f 523/2872 511/2873 510/2874
f 497/2875 514/2876 516/2877
f 497/2878 516/2879 491/2880
f 521/2881 522/2882 512/2883
f 521/2884 512/2885 517/2886
f 524/2887 519/2888 518/2889
f 524/2890 518/2891 511/2892
f 494/2893 509/2894 513/2895
f 494/2896 513/2897 495/2898
f 454/2899 523/2900 510/2901
f 454/2902 510/2903 492/2904
f 514/2905 513/2906 522/2907
f 514/2908 522/2909 521/2910
f 523/2911 520/2912 519/2913
f 523/2914 519/2915 524/2916
f 515/2917 489/2918 491/2919
f 515/2920 491/2921 516/2922
f 520/2923 453/2924 489/2925
f 520/2926 489/2927 515/2928
f 520/2929 523/2930 454/2931
f 520/2932 454/2933 453/2934
