mtllib pink_guns.mtl
o Body
g Body
usemtl PinkWhite
v -0.05412 0.26668 1.33050
v -0.05412 0.21692 1.21553
v -0.07406 0.18461 1.21553
v -0.07406 0.23437 1.33050
v -0.07406 0.19168 1.11441
v -0.07406 0.02074 1.11441
v -0.07406 0.00838 1.21553
v 0.05412 0.22395 1.11440
v -0.05412 0.22395 1.11440
v 0.05412 0.21692 1.21553
v 0.07406 0.02074 1.11441
v 0.07406 0.19168 1.11441
v 0.07406 0.18461 1.21553
v 0.07406 0.00838 1.21553
v -0.05412 -0.01141 1.11441
v 0.05412 -0.01141 1.11441
v 0.05412 -0.02377 1.21553
v -0.05412 -0.02377 1.21553
v 0.07406 -0.05690 1.51423
v 0.07406 -0.39247 2.40623
v 0.05412 -0.42654 2.41152
v 0.05412 -0.08904 1.51423
v -0.07406 -0.00878 1.33050
v -0.07406 -0.05690 1.51423
v -0.07406 0.27240 1.51423
v -0.05412 0.30470 1.51423
v 0.05412 0.30470 1.51423
v 0.05412 0.26668 1.33050
v 0.07406 -0.00878 1.33050
v 0.07406 0.23437 1.33050
v 0.07406 0.27240 1.51423
v -0.05412 -0.04093 1.33050
v 0.05412 -0.04093 1.33050
v -0.05412 -0.08904 1.51423
v -0.08134 -0.42117 2.42032
v -0.08134 0.26443 2.51631
v -0.07406 0.25048 2.50204
v -0.07406 -0.39247 2.40623
v 0.05412 0.28251 2.51391
v 0.07406 0.25048 2.50204
v -0.05412 -0.42654 2.41152
v -0.05944 -0.44222 2.42660
v 0.05412 0.00721 0.91582
v 0.07406 0.03928 0.91667
v -0.07406 0.30520 0.92533
v -0.07406 0.03928 0.91667
v -0.05412 0.33679 0.92617
v 0.05944 -0.44222 2.42660
v -0.08134 -0.38910 2.47221
v -0.08134 0.21777 2.56592
v 0.08134 -0.42117 2.42032
v 0.08134 0.26443 2.51631
v 0.08134 0.21777 2.56592
v 0.08134 -0.38910 2.47221
v 0.05412 0.33679 0.92617
v 0.07406 0.30520 0.92533
v -0.05944 0.28360 2.52930
v -0.05412 0.28251 2.51391
v 0.05944 0.28360 2.52930
v -0.05944 -0.40608 2.50629
v -0.05944 0.23107 2.60000
v 0.05944 0.23107 2.60000
v 0.05944 -0.40608 2.50629
v -0.05412 0.00721 0.91582
v -0.09206 0.08791 -0.90560
v -0.09206 0.08791 -0.85353
v -0.09206 0.27567 -0.85353
v -0.09206 0.27567 -0.90560
v -0.07857 0.32856 -0.85353
v -0.07857 0.32856 -0.90560
v -0.04600 0.35047 -0.85353
v -0.04600 0.35047 -0.90560
v -0.07857 0.03502 -0.90560
v -0.07857 0.03502 -0.85353
v -0.04600 0.01312 -0.90560
v -0.04600 0.01312 -0.85353
v 0.07857 0.32856 -0.85353
v 0.07857 0.32856 -0.90560
v 0.04600 0.35047 -0.90560
v 0.04600 0.35047 -0.85353
v 0.09206 0.27567 -0.85353
v 0.09206 0.27567 -0.90560
v 0.07857 0.03502 -0.90560
v 0.07857 0.03502 -0.85353
v 0.04600 0.01312 -0.85353
v 0.04600 0.01312 -0.90560
v 0.09206 0.08791 -0.90560
v 0.09206 0.08791 -0.85353
v 0.00968 0.38186 -2.26378
v 0.00968 0.38186 -2.36968
v -0.00968 0.38186 -2.36968
v -0.00968 0.38186 -2.26378
v 0.00968 0.32869 -2.36968
v 0.00968 0.32869 -2.22101
v -0.00968 0.32869 -2.22101
v -0.00968 0.32869 -2.36968
v -0.02896 0.02992 0.77995
v -0.02856 0.01477 0.84949
v 0.02856 0.01477 0.84949
v 0.02896 0.02992 0.77995
v -0.02865 -0.04880 0.80400
v -0.02853 -0.08649 0.81073
v -0.02874 -0.09290 0.83974
v -0.02809 -0.05561 0.85325
v 0.02809 -0.05561 0.85325
v 0.02892 0.02245 0.90933
v 0.02881 -0.02655 0.91156
v 0.02883 -0.04893 0.89263
v 0.02866 -0.04880 0.80400
v -0.02860 -0.12279 0.82619
v -0.02871 -0.15346 0.80658
v 0.02871 -0.15346 0.80658
v 0.02861 -0.12279 0.82619
v 0.02853 -0.08649 0.81073
v 0.02874 -0.09290 0.83974
v 0.02866 -0.15462 0.80291
v 0.02863 -0.15169 0.79567
v 0.02863 -0.14958 0.79484
v 0.02836 -0.12125 0.80701
v -0.02863 -0.14958 0.79484
v -0.02836 -0.12125 0.80701
v -0.02863 -0.15169 0.79567
v -0.02866 -0.15462 0.80291
v -0.02883 -0.04893 0.89263
v -0.02881 -0.02655 0.91156
v -0.02891 0.02245 0.90933
vt 1.10875 0.22223
vt 1.01294 0.18077
vt 1.01294 0.15384
vt 1.10875 0.22223
vt 1.01294 0.15384
vt 1.10875 0.19531
vt 0.92867 0.15973
vt 0.92867 0.01728
vt 1.01294 0.00698
vt 0.92867 0.15973
vt 1.01294 0.00698
vt 1.01294 0.15384
vt 0.04510 0.92867
vt -0.04510 0.92867
vt -0.04510 1.01294
vt 0.04510 0.92867
vt -0.04510 1.01294
vt 0.04510 1.01294
vt 0.92867 0.01728
vt 0.92867 0.15973
vt 1.01294 0.15384
vt 0.92867 0.01728
vt 1.01294 0.15384
vt 1.01294 0.00698
vt -0.04510 0.92867
vt 0.04510 0.92867
vt 0.04510 1.01294
vt -0.04510 0.92867
vt 0.04510 1.01294
vt -0.04510 1.01294
vt 0.92867 0.15973
vt 0.92867 0.18663
vt 1.01294 0.18077
vt 0.92867 0.15973
vt 1.01294 0.18077
vt 1.01294 0.15384
vt 0.92867 -0.00951
vt 0.92867 0.01728
vt 1.01294 0.00698
vt 0.92867 -0.00951
vt 1.01294 0.00698
vt 1.01294 -0.01981
vt 0.92867 0.01728
vt 0.92867 -0.00951
vt 1.01294 -0.01981
vt 0.92867 0.01728
vt 1.01294 -0.01981
vt 1.01294 0.00698
vt 0.92867 0.18663
vt 0.92867 0.15973
vt 1.01294 0.15384
vt 0.92867 0.18663
vt 1.01294 0.15384
vt 1.01294 0.18077
vt 1.26186 -0.04742
vt 2.00519 -0.32706
vt 2.00960 -0.35545
vt 1.26186 -0.04742
vt 2.00960 -0.35545
vt 1.26186 -0.07420
vt 1.10875 0.19531
vt 1.10875 -0.00732
vt 1.26186 -0.04742
vt 1.10875 0.19531
vt 1.26186 -0.04742
vt 1.26186 0.22700
vt -0.04510 1.26186
vt 0.04510 1.26186
vt 0.04510 1.10875
vt -0.04510 1.26186
vt 0.04510 1.10875
vt -0.04510 1.10875
vt 1.10875 -0.00732
vt 1.10875 0.19531
vt 1.26186 0.22700
vt 1.10875 -0.00732
vt 1.26186 0.22700
vt 1.26186 -0.04742
vt -0.04510 1.10875
vt 0.04510 1.10875
vt 0.04510 1.26186
vt -0.04510 1.10875
vt 0.04510 1.26186
vt -0.04510 1.26186
vt 1.26186 0.25392
vt 1.26186 0.22700
vt 1.10875 0.19531
vt 1.26186 0.25392
vt 1.10875 0.19531
vt 1.10875 0.22223
vt 1.26186 -0.04742
vt 1.26186 -0.07420
vt 1.10875 -0.03411
vt 1.26186 -0.04742
vt 1.10875 -0.03411
vt 1.10875 -0.00732
vt 1.26186 -0.07420
vt 1.26186 -0.04742
vt 1.10875 -0.00732
vt 1.26186 -0.07420
vt 1.10875 -0.00732
vt 1.10875 -0.03411
vt 1.26186 0.22700
vt 1.26186 0.25392
vt 1.10875 0.22223
vt 1.26186 0.22700
vt 1.10875 0.22223
vt 1.10875 0.19531
vt 2.01693 -0.35097
vt 2.09693 0.22036
vt 2.08503 0.20873
vt 2.01693 -0.35097
vt 2.08503 0.20873
vt 2.00519 -0.32706
vt 1.10875 -0.03411
vt 1.01294 -0.01981
vt 1.01294 0.00698
vt 1.10875 -0.03411
vt 1.01294 0.00698
vt 1.10875 -0.00732
vt 1.26186 0.25392
vt 2.09493 0.23542
vt 2.08503 0.20873
vt 1.26186 0.25392
vt 2.08503 0.20873
vt 1.26186 0.22700
vt -0.06778 -0.35097
vt -0.06172 -0.32706
vt -0.04510 -0.35545
vt -0.06778 -0.35097
vt -0.04510 -0.35545
vt -0.04953 -0.36852
vt 0.92867 -0.00951
vt 0.76318 0.00601
vt 0.76389 0.03273
vt 0.92867 -0.00951
vt 0.76389 0.03273
vt 0.92867 0.01728
vt 0.92867 0.01728
vt 0.92867 0.15973
vt 0.77111 0.25433
vt 0.92867 0.01728
vt 0.77111 0.25433
vt 0.76389 0.03273
vt 0.77111 0.25433
vt 0.92867 0.15973
vt 0.92867 0.18663
vt 0.77111 0.25433
vt 0.92867 0.18663
vt 0.77181 0.28066
vt -0.04953 -0.36852
vt -0.04510 -0.35545
vt 0.04510 -0.35545
vt -0.04953 -0.36852
vt 0.04510 -0.35545
vt 0.04953 -0.36852
vt 2.09693 0.22036
vt 2.01693 -0.35097
vt 2.06018 -0.32425
vt 2.09693 0.22036
vt 2.06018 -0.32425
vt 2.13827 0.18147
vt 2.01693 -0.35097
vt 2.09693 0.22036
vt 2.13827 0.18147
vt 2.01693 -0.35097
vt 2.13827 0.18147
vt 2.06018 -0.32425
vt 0.77181 0.28066
vt 0.92867 0.18663
vt 0.92867 0.15973
vt 0.77181 0.28066
vt 0.92867 0.15973
vt 0.77111 0.25433
vt -0.06172 0.20873
vt -0.06778 0.22036
vt -0.04953 0.23633
vt 2.08503 0.20873
vt 2.10775 0.23633
vt 2.09493 0.23542
vt 0.04510 2.09493
vt 0.04953 2.10775
vt 0.06778 2.09693
vt 0.04510 0.23542
vt 0.06778 0.22036
vt 0.06172 0.20873
vt 2.13827 0.18147
vt 2.06018 -0.32425
vt 2.08858 -0.33840
vt 2.13827 0.18147
vt 2.08858 -0.33840
vt 2.16667 0.19256
vt 2.06018 -0.32425
vt 2.13827 0.18147
vt 2.16667 0.19256
vt 2.06018 -0.32425
vt 2.16667 0.19256
vt 2.08858 -0.33840
vt 0.06172 -0.32706
vt 0.06778 -0.35097
vt 0.04953 -0.36852
vt 0.06172 -0.32706
vt 0.04953 -0.36852
vt 0.04510 -0.35545
vt 0.92867 0.01728
vt 0.76389 0.03273
vt 0.76318 0.00601
vt 0.92867 0.01728
vt 0.76318 0.00601
vt 0.92867 -0.00951
vt 2.09693 0.22036
vt 2.13827 0.18147
vt 2.16667 0.19256
vt 2.09693 0.22036
vt 2.16667 0.19256
vt 2.10775 0.23633
vt 2.13827 0.18147
vt 2.09693 0.22036
vt 2.10775 0.23633
vt 2.13827 0.18147
vt 2.10775 0.23633
vt 2.16667 0.19256
vt 2.01693 -0.35097
vt 2.06018 -0.32425
vt 2.08858 -0.33840
vt 2.01693 -0.35097
vt 2.08858 -0.33840
vt 2.02217 -0.36852
vt 2.06018 -0.32425
vt 2.01693 -0.35097
vt 2.02217 -0.36852
vt 2.06018 -0.32425
vt 2.02217 -0.36852
vt 2.08858 -0.33840
vt -0.04510 0.92867
vt 0.04510 0.92867
vt 0.04510 0.77181
vt -0.04510 0.92867
vt 0.04510 0.77181
vt -0.04510 0.77181
vt 1.01294 -0.01981
vt 1.10875 -0.03411
vt 1.10875 -0.00732
vt 1.01294 -0.01981
vt 1.10875 -0.00732
vt 1.01294 0.00698
vt 0.92867 0.15973
vt 0.92867 0.01728
vt 0.76389 0.03273
vt 0.92867 0.15973
vt 0.76389 0.03273
vt 0.77111 0.25433
vt -0.04510 1.26186
vt -0.04510 2.09493
vt 0.04510 2.09493
vt -0.04510 1.26186
vt 0.04510 2.09493
vt 0.04510 1.26186
vt 1.01294 0.18077
vt 1.10875 0.22223
vt 1.10875 0.19531
vt 1.01294 0.18077
vt 1.10875 0.19531
vt 1.01294 0.15384
vt 2.00519 -0.32706
vt 1.26186 -0.04742
vt 1.26186 -0.07420
vt 2.00519 -0.32706
vt 1.26186 -0.07420
vt 2.00960 -0.35545
vt -0.04510 2.00960
vt -0.04510 1.26186
vt 0.04510 1.26186
vt -0.04510 2.00960
vt 0.04510 1.26186
vt 0.04510 2.00960
vt 0.04953 -0.33840
vt 0.04953 0.19256
vt -0.04953 0.19256
vt 0.04953 -0.33840
vt -0.04953 0.19256
vt -0.04953 -0.33840
vt -0.04510 1.10875
vt 0.04510 1.10875
vt 0.04510 1.01294
vt -0.04510 1.10875
vt 0.04510 1.01294
vt -0.04510 1.01294
vt 0.04510 1.10875
vt -0.04510 1.10875
vt -0.04510 1.01294
vt 0.04510 1.10875
vt -0.04510 1.01294
vt 0.04510 1.01294
vt 1.10875 0.19531
vt 1.10875 -0.00732
vt 1.01294 0.00698
vt 1.10875 0.19531
vt 1.01294 0.00698
vt 1.01294 0.15384
vt -0.04953 2.02217
vt 0.04953 2.02217
vt 0.04953 2.08858
vt -0.04953 2.02217
vt 0.04953 2.08858
vt -0.04953 2.08858
vt -0.04510 2.09493
vt -0.04953 2.10775
vt 0.04953 2.10775
vt -0.04510 2.09493
vt 0.04953 2.10775
vt 0.04510 2.09493
vt 2.00519 -0.32706
vt 2.08503 0.20873
vt 2.09693 0.22036
vt 2.00519 -0.32706
vt 2.09693 0.22036
vt 2.01693 -0.35097
vt 0.04510 0.92867
vt -0.04510 0.92867
vt -0.04510 0.76318
vt 0.04510 0.92867
vt -0.04510 0.76318
vt 0.04510 0.76318
vt 2.00519 -0.32706
vt 2.08503 0.20873
vt 1.26186 0.22700
vt 2.00519 -0.32706
vt 1.26186 0.22700
vt 1.26186 -0.04742
vt 0.04953 2.10775
vt -0.04953 2.10775
vt -0.04953 2.16667
vt 0.04953 2.10775
vt -0.04953 2.16667
vt 0.04953 2.16667
vt 1.26186 0.22700
vt 2.08503 0.20873
vt 2.09493 0.23542
vt 1.26186 0.22700
vt 2.09493 0.23542
vt 1.26186 0.25392
vt 1.10875 -0.00732
vt 1.10875 0.19531
vt 1.01294 0.15384
vt 1.10875 -0.00732
vt 1.01294 0.15384
vt 1.01294 0.00698
vt 1.26186 -0.04742
vt 1.26186 0.22700
vt 2.08503 0.20873
vt 1.26186 -0.04742
vt 2.08503 0.20873
vt 2.00519 -0.32706
vt -0.75467 0.07326
vt -0.71127 0.07326
vt -0.71127 0.22973
vt -0.75467 0.07326
vt -0.71127 0.22973
vt -0.75467 0.22973
vt -0.71127 0.27380
vt -0.75467 0.27380
vt -0.75467 0.22973
vt -0.71127 0.27380
vt -0.75467 0.22973
vt -0.71127 0.22973
vt -0.03833 -0.71127
vt -0.03833 -0.75467
vt -0.06548 -0.75467
vt -0.03833 -0.71127
vt -0.06548 -0.75467
vt -0.06548 -0.71127
vt -0.75467 0.02918
vt -0.71127 0.02918
vt -0.71127 0.07326
vt -0.75467 0.02918
vt -0.71127 0.07326
vt -0.75467 0.07326
vt -0.03833 -0.75467
vt -0.03833 -0.71127
vt -0.06548 -0.71127
vt -0.03833 -0.75467
vt -0.06548 -0.71127
vt -0.06548 -0.75467
vt 0.06548 -0.71127
vt 0.06548 -0.75467
vt 0.03833 -0.75467
vt 0.06548 -0.71127
vt 0.03833 -0.75467
vt 0.03833 -0.71127
vt -0.71127 0.22973
vt -0.75467 0.22973
vt -0.75467 0.27380
vt -0.71127 0.22973
vt -0.75467 0.27380
vt -0.71127 0.27380
vt 0.06548 -0.75467
vt 0.06548 -0.71127
vt 0.03833 -0.71127
vt 0.06548 -0.75467
vt 0.03833 -0.71127
vt 0.03833 -0.75467
vt -0.75467 0.07326
vt -0.71127 0.07326
vt -0.71127 0.02918
vt -0.75467 0.07326
vt -0.71127 0.02918
vt -0.75467 0.02918
vt -0.03833 0.01093
vt -0.06548 0.02918
vt -0.07672 0.07326
vt -0.03833 0.01093
vt -0.07672 0.07326
vt -0.07672 0.22973
vt -0.03833 0.01093
vt -0.07672 0.22973
vt -0.06548 0.27380
vt -0.03833 0.01093
vt -0.06548 0.27380
vt -0.03833 0.29206
vt -0.03833 0.01093
vt -0.03833 0.29206
vt 0.03833 0.29206
vt -0.03833 0.01093
vt 0.03833 0.29206
vt 0.06548 0.27380
vt -0.03833 0.01093
vt 0.06548 0.27380
vt 0.07672 0.22973
vt -0.03833 0.01093
vt 0.07672 0.22973
vt 0.07672 0.07326
vt -0.03833 0.01093
vt 0.07672 0.07326
vt 0.06548 0.02918
vt -0.03833 0.01093
vt 0.06548 0.02918
vt 0.03833 0.01093
vt 0.03833 -0.75467
vt 0.03833 -0.71127
vt -0.03833 -0.71127
vt 0.03833 -0.75467
vt -0.03833 -0.71127
vt -0.03833 -0.75467
vt -0.75467 0.22973
vt -0.71127 0.22973
vt -0.71127 0.07326
vt -0.75467 0.22973
vt -0.71127 0.07326
vt -0.75467 0.07326
vt -0.07672 0.07326
vt -0.06548 0.02918
vt -0.03833 0.01093
vt -0.07672 0.07326
vt -0.03833 0.01093
vt 0.03833 0.01093
vt -0.07672 0.07326
vt 0.03833 0.01093
vt 0.06548 0.02918
vt -0.07672 0.07326
vt 0.06548 0.02918
vt 0.07672 0.07326
vt -0.07672 0.07326
vt 0.07672 0.07326
vt 0.07672 0.22973
vt -0.07672 0.07326
vt 0.07672 0.22973
vt 0.06548 0.27380
vt -0.07672 0.07326
vt 0.06548 0.27380
vt 0.03833 0.29206
vt -0.07672 0.07326
vt 0.03833 0.29206
vt -0.03833 0.29206
vt -0.07672 0.07326
vt -0.03833 0.29206
vt -0.06548 0.27380
vt -0.07672 0.07326
vt -0.06548 0.27380
vt -0.07672 0.22973
vt -0.03833 -0.75467
vt -0.03833 -0.71127
vt 0.03833 -0.71127
vt -0.03833 -0.75467
vt 0.03833 -0.71127
vt 0.03833 -0.75467
vt 0.00807 -1.88648
vt 0.00807 -1.97473
vt -0.00807 -1.97473
vt 0.00807 -1.88648
vt -0.00807 -1.97473
vt -0.00807 -1.88648
vt -1.97473 0.27391
vt -1.97473 0.31822
vt -1.88648 0.31822
vt -1.97473 0.27391
vt -1.88648 0.31822
vt -1.85084 0.27391
vt 0.00807 -1.85084
vt -0.00807 -1.85084
vt -0.00807 -1.97473
vt 0.00807 -1.85084
vt -0.00807 -1.97473
vt 0.00807 -1.97473
vt 0.00807 0.27391
vt 0.00807 0.31822
vt -0.00807 0.31822
vt 0.00807 0.27391
vt -0.00807 0.31822
vt -0.00807 0.27391
vt -0.00807 0.27391
vt -0.00807 0.31822
vt 0.00807 0.31822
vt -0.00807 0.27391
vt 0.00807 0.31822
vt 0.00807 0.27391
vt -1.85084 0.27391
vt -1.88648 0.31822
vt -1.97473 0.31822
vt -1.85084 0.27391
vt -1.97473 0.31822
vt -1.97473 0.27391
vt -0.02413 0.64996
vt -0.02380 0.70791
vt 0.02380 0.70791
vt -0.02413 0.64996
vt 0.02380 0.70791
vt 0.02413 0.64996
vt 0.67000 -0.04067
vt 0.67561 -0.07208
vt 0.69978 -0.07742
vt 0.67000 -0.04067
vt 0.69978 -0.07742
vt 0.71104 -0.04634
vt 0.71104 -0.04634
vt 0.70791 0.01231
vt 0.75777 0.01871
vt 0.71104 -0.04634
vt 0.75777 0.01871
vt 0.75963 -0.02213
vt 0.71104 -0.04634
vt 0.75963 -0.02213
vt 0.74386 -0.04078
vt 0.64996 0.02493
vt 0.67000 -0.04067
vt 0.71104 -0.04634
vt 0.64996 0.02493
vt 0.71104 -0.04634
vt 0.70791 0.01231
vt 0.70791 0.01231
vt 0.71104 -0.04634
vt 0.67000 -0.04067
vt 0.70791 0.01231
vt 0.67000 -0.04067
vt 0.64996 0.02493
vt -0.02383 -0.10232
vt -0.02393 -0.12788
vt 0.02393 -0.12788
vt -0.02383 -0.10232
vt 0.02393 -0.12788
vt 0.02384 -0.10232
vt 0.02388 -0.04067
vt 0.02378 -0.07208
vt -0.02378 -0.07208
vt 0.02388 -0.04067
vt -0.02378 -0.07208
vt -0.02388 -0.04067
vt -0.02341 -0.04634
vt -0.02395 -0.07742
vt 0.02395 -0.07742
vt -0.02341 -0.04634
vt 0.02395 -0.07742
vt 0.02341 -0.04634
vt 0.68849 -0.10232
vt 0.67215 -0.12788
vt 0.66909 -0.12885
vt 0.68849 -0.10232
vt 0.66909 -0.12885
vt 0.66306 -0.12641
vt 0.68849 -0.10232
vt 0.66306 -0.12641
vt 0.66237 -0.12465
vt 0.68849 -0.10232
vt 0.66237 -0.12465
vt 0.67251 -0.10104
vt 0.02363 -0.10104
vt 0.02386 -0.12465
vt -0.02386 -0.12465
vt 0.02363 -0.10104
vt -0.02386 -0.12465
vt -0.02363 -0.10104
vt -0.02386 0.66306
vt 0.02386 0.66306
vt 0.02388 0.66909
vt -0.02386 0.66306
vt 0.02388 0.66909
vt -0.02388 0.66909
vt 0.71104 -0.04634
vt 0.69978 -0.07742
vt 0.67561 -0.07208
vt 0.71104 -0.04634
vt 0.67561 -0.07208
vt 0.67000 -0.04067
vt 0.02413 0.02493
vt 0.02388 -0.04067
vt -0.02388 -0.04067
vt 0.02413 0.02493
vt -0.02388 -0.04067
vt -0.02413 0.02493
vt 0.70791 0.01231
vt 0.71104 -0.04634
vt 0.74386 -0.04078
vt 0.70791 0.01231
vt 0.74386 -0.04078
vt 0.75963 -0.02213
vt 0.70791 0.01231
vt 0.75963 -0.02213
vt 0.75777 0.01871
vt -0.02409 0.01871
vt -0.02401 -0.02213
vt 0.02401 -0.02213
vt -0.02409 0.01871
vt 0.02401 -0.02213
vt 0.02410 0.01871
vt 0.02380 0.70791
vt -0.02380 0.70791
vt -0.02409 0.75777
vt 0.02380 0.70791
vt -0.02409 0.75777
vt 0.02410 0.75777
vt -0.02403 -0.04078
vt 0.02403 -0.04078
vt 0.02401 -0.02213
vt -0.02403 -0.04078
vt 0.02401 -0.02213
vt -0.02401 -0.02213
vt -0.02341 0.71104
vt 0.02341 0.71104
vt 0.02403 0.74386
vt -0.02341 0.71104
vt 0.02403 0.74386
vt -0.02403 0.74386
vt -0.02378 -0.07208
vt 0.02378 -0.07208
vt 0.02363 -0.10104
vt -0.02378 -0.07208
vt 0.02363 -0.10104
vt -0.02363 -0.10104
vt 0.67561 -0.07208
vt 0.69978 -0.07742
vt 0.68849 -0.10232
vt 0.67561 -0.07208
vt 0.68849 -0.10232
vt 0.67251 -0.10104
vt 0.69978 -0.07742
vt 0.67561 -0.07208
vt 0.67251 -0.10104
vt 0.69978 -0.07742
vt 0.67251 -0.10104
vt 0.68849 -0.10232
vt 0.02395 -0.07742
vt -0.02395 -0.07742
vt -0.02383 -0.10232
vt 0.02395 -0.07742
vt -0.02383 -0.10232
vt 0.02384 -0.10232
vt 0.02386 -0.12641
vt -0.02386 -0.12641
vt -0.02386 -0.12465
vt 0.02386 -0.12641
vt -0.02386 -0.12465
vt 0.02386 -0.12465
vt -0.02388 0.66909
vt 0.02388 0.66909
vt 0.02393 0.67215
vt -0.02388 0.66909
vt 0.02393 0.67215
vt -0.02393 0.67215
vt 0.67251 -0.10104
vt 0.66237 -0.12465
vt 0.66306 -0.12641
vt 0.67251 -0.10104
vt 0.66306 -0.12641
vt 0.66909 -0.12885
vt 0.67251 -0.10104
vt 0.66909 -0.12885
vt 0.67215 -0.12788
vt 0.67251 -0.10104
vt 0.67215 -0.12788
vt 0.68849 -0.10232
f 1/1 2/2 3/3
f 1/4 3/5 4/6
f 5/7 6/8 7/9
f 5/10 7/11 3/12
f 8/13 9/14 2/15
f 8/16 2/17 10/18
f 11/19 12/20 13/21
f 11/22 13/23 14/24
f 15/25 16/26 17/27
f 15/28 17/29 18/30
f 12/31 8/32 10/33
f 12/34 10/35 13/36
f 16/37 11/38 14/39
f 16/40 14/41 17/42
f 6/43 15/44 18/45
f 6/46 18/47 7/48
f 9/49 5/50 3/51
f 9/52 3/53 2/54
f 19/55 20/56 21/57
f 19/58 21/59 22/60
f 4/61 23/62 24/63
f 4/64 24/65 25/66
f 26/67 27/68 28/69
f 26/70 28/71 1/72
f 29/73 30/74 31/75
f 29/76 31/77 19/78
f 32/79 33/80 22/81
f 32/82 22/83 34/84
f 27/85 31/86 30/87
f 27/88 30/89 28/90
f 19/91 22/92 33/93
f 19/94 33/95 29/96
f 34/97 24/98 23/99
f 34/100 23/101 32/102
f 25/103 26/104 1/105
f 25/106 1/107 4/108
f 35/109 36/110 37/111
f 35/112 37/113 38/114
f 33/115 17/116 14/117
f 33/118 14/119 29/120
f 27/121 39/122 40/123
f 27/124 40/125 31/126
f 35/127 38/128 41/129
f 35/130 41/131 42/132
f 16/133 43/134 44/135
f 16/136 44/137 11/138
f 6/139 5/140 45/141
f 6/142 45/143 46/144
f 45/145 5/146 9/147
f 45/148 9/149 47/150
f 42/151 41/152 21/153
f 42/154 21/155 48/156
f 36/157 35/158 49/159
f 36/160 49/161 50/162
f 51/163 52/164 53/165
f 51/166 53/167 54/168
f 55/169 8/170 12/171
f 55/172 12/173 56/174
f 37/175 36/176 57/177
f 37/178 57/179 58/180
f 39/181 59/182 52/183
f 39/184 52/185 40/186
f 50/187 49/188 60/189
f 50/190 60/191 61/192
f 54/193 53/194 62/195
f 54/196 62/197 63/198
f 20/199 51/200 48/201
f 20/202 48/203 21/204
f 6/205 46/206 64/207
f 6/208 64/209 15/210
f 36/211 50/212 61/213
f 36/214 61/215 57/216
f 53/217 52/218 59/219
f 53/220 59/221 62/222
f 51/223 54/224 63/225
f 51/226 63/227 48/228
f 49/229 35/230 42/231
f 49/232 42/233 60/234
f 9/235 8/236 55/237
f 9/238 55/239 47/240
f 18/241 32/242 23/243
f 18/244 23/245 7/246
f 12/247 11/248 44/249
f 12/250 44/251 56/252
f 26/253 58/254 39/255
f 26/256 39/257 27/258
f 10/259 28/260 30/261
f 10/262 30/263 13/264
f 38/265 24/266 34/267
f 38/268 34/269 41/270
f 41/271 34/272 22/273
f 41/274 22/275 21/276
f 63/277 62/278 61/279
f 63/280 61/281 60/282
f 1/283 28/284 10/285
f 1/286 10/287 2/288
f 33/289 32/290 18/291
f 33/292 18/293 17/294
f 30/295 29/296 14/297
f 30/298 14/299 13/300
f 42/301 48/302 63/303
f 42/304 63/305 60/306
f 58/307 57/308 59/309
f 58/310 59/311 39/312
f 20/313 40/314 52/315
f 20/316 52/317 51/318
f 16/319 15/320 64/321
f 16/322 64/323 43/324
f 38/325 37/326 25/327
f 38/328 25/329 24/330
f 59/331 57/332 61/333
f 59/334 61/335 62/336
f 25/337 37/338 58/339
f 25/340 58/341 26/342
f 23/343 4/344 3/345
f 23/346 3/347 7/348
f 19/349 31/350 40/351
f 19/352 40/353 20/354
f 65/355 66/356 67/357
f 65/358 67/359 68/360
f 69/361 70/362 68/363
f 69/364 68/365 67/366
f 71/367 72/368 70/369
f 71/370 70/371 69/372
f 73/373 74/374 66/375
f 73/376 66/377 65/378
f 75/379 76/380 74/381
f 75/382 74/383 73/384
f 77/385 78/386 79/387
f 77/388 79/389 80/390
f 81/391 82/392 78/393
f 81/394 78/395 77/396
f 83/397 84/398 85/399
f 83/400 85/401 86/402
f 87/403 88/404 84/405
f 87/406 84/407 83/408
f 75/409 73/410 65/411
f 75/412 65/413 68/414
f 75/415 68/416 70/417
f 75/418 70/419 72/420
f 75/421 72/422 79/423
f 75/424 79/425 78/426
f 75/427 78/428 82/429
f 75/430 82/431 87/432
f 75/433 87/434 83/435
f 75/436 83/437 86/438
f 86/439 85/440 76/441
f 86/442 76/443 75/444
f 82/445 81/446 88/447
f 82/448 88/449 87/450
f 66/451 74/452 76/453
f 66/454 76/455 85/456
f 66/457 85/458 84/459
f 66/460 84/461 88/462
f 66/463 88/464 81/465
f 66/466 81/467 77/468
f 66/469 77/470 80/471
f 66/472 80/473 71/474
f 66/475 71/476 69/477
f 66/478 69/479 67/480
f 72/481 71/482 80/483
f 72/484 80/485 79/486
f 89/487 90/488 91/489
f 89/490 91/491 92/492
f 93/493 90/494 89/495
f 93/496 89/497 94/498
f 94/499 95/500 96/501
f 94/502 96/503 93/504
f 94/505 89/506 92/507
f 94/508 92/509 95/510
f 96/511 91/512 90/513
f 96/514 90/515 93/516
f 95/517 92/518 91/519
f 95/520 91/521 96/522
f 97/523 98/524 99/525
f 97/526 99/527 100/528
f 101/529 102/530 103/531
f 101/532 103/533 104/534
f 105/535 99/536 106/537
f 105/538 106/539 107/540
f 105/541 107/542 108/543
f 97/544 101/545 104/546
f 97/547 104/548 98/549
f 99/550 105/551 109/552
f 99/553 109/554 100/555
f 110/556 111/557 112/558
f 110/559 112/560 113/561
f 109/562 114/563 102/564
f 109/565 102/566 101/567
f 104/568 103/569 115/570
f 104/571 115/572 105/573
f 113/574 112/575 116/576
f 113/577 116/578 117/579
f 113/580 117/581 118/582
f 113/583 118/584 119/585
f 119/586 118/587 120/588
f 119/589 120/590 121/591
f 122/592 117/593 116/594
f 122/595 116/596 123/597
f 105/598 115/599 114/600
f 105/601 114/602 109/603
f 100/604 109/605 101/606
f 100/607 101/608 97/609
f 98/610 104/611 124/612
f 98/613 124/614 125/615
f 98/616 125/617 126/618
f 126/619 125/620 107/621
f 126/622 107/623 106/624
f 99/625 98/626 126/627
f 99/628 126/629 106/630
f 124/631 108/632 107/633
f 124/634 107/635 125/636
f 104/637 105/638 108/639
f 104/640 108/641 124/642
f 102/643 114/644 119/645
f 102/646 119/647 121/648
f 114/649 115/650 113/651
f 114/652 113/653 119/654
f 103/655 102/656 121/657
f 103/658 121/659 110/660
f 115/661 103/662 110/663
f 115/664 110/665 113/666
f 117/667 122/668 120/669
f 117/670 120/671 118/672
f 123/673 116/674 112/675
f 123/676 112/677 111/678
f 121/679 120/680 122/681
f 121/682 122/683 123/684
f 121/685 123/686 111/687
f 121/688 111/689 110/690
o Grip
g Grip
usemtl Bubblegum
v -0.08041 0.10087 -0.02992
v -0.06718 0.04906 -0.02992
v -0.03523 0.02760 -0.02992
v 0.03523 0.02760 -0.02992
v 0.06718 0.04906 -0.02992
v 0.08041 0.10087 -0.02992
v 0.08041 0.23753 -0.02992
v 0.05789 0.27259 -0.02992
v -0.05789 0.27259 -0.02992
v -0.08041 0.23753 -0.02992
v -0.08041 0.23753 -0.89103
v -0.05789 0.27259 -0.89103
v 0.08041 0.23753 -0.89103
v 0.05789 0.27259 -0.89103
v 0.08041 0.10087 -0.89103
v 0.06718 0.04906 -0.89103
v 0.03523 0.02760 -0.89103
v -0.06718 0.04906 -0.89103
v -0.08041 0.10087 -0.89103
v -0.03523 0.02760 -0.89103
vt -0.06701 0.08406
vt -0.05598 0.04088
vt -0.02936 0.02300
vt -0.06701 0.08406
vt -0.02936 0.02300
vt 0.02936 0.02300
vt -0.06701 0.08406
vt 0.02936 0.02300
vt 0.05598 0.04088
vt -0.06701 0.08406
vt 0.05598 0.04088
vt 0.06701 0.08406
vt -0.06701 0.08406
vt 0.06701 0.08406
vt 0.06701 0.19794
vt -0.06701 0.08406
vt 0.06701 0.19794
vt 0.04824 0.22716
vt -0.06701 0.08406
vt 0.04824 0.22716
vt -0.04824 0.22716
vt -0.06701 0.08406
vt -0.04824 0.22716
vt -0.06701 0.19794
vt -0.74252 0.19794
vt -0.02493 0.19794
vt -0.02493 0.22716
vt -0.74252 0.19794
vt -0.02493 0.22716
vt -0.74252 0.22716
vt -0.02493 0.19794
vt -0.74252 0.19794
vt -0.74252 0.22716
vt -0.02493 0.19794
vt -0.74252 0.22716
vt -0.02493 0.22716
vt -0.02493 0.19794
vt -0.02493 0.08406
vt -0.74252 0.08406
vt -0.02493 0.19794
vt -0.74252 0.08406
vt -0.74252 0.19794
vt -0.02493 0.04088
vt -0.74252 0.04088
vt -0.74252 0.08406
vt -0.02493 0.04088
vt -0.74252 0.08406
vt -0.02493 0.08406
vt 0.02936 -0.02493
vt 0.02936 -0.74252
vt 0.05598 -0.74252
vt 0.02936 -0.02493
vt 0.05598 -0.74252
vt 0.05598 -0.02493
vt -0.74252 0.04088
vt -0.02493 0.04088
vt -0.02493 0.08406
vt -0.74252 0.04088
vt -0.02493 0.08406
vt -0.74252 0.08406
vt -0.02936 -0.74252
vt -0.02936 -0.02493
vt -0.05598 -0.02493
vt -0.02936 -0.74252
vt -0.05598 -0.02493
vt -0.05598 -0.74252
vt -0.02936 0.02300
vt -0.05598 0.04088
vt -0.06701 0.08406
vt -0.02936 0.02300
vt -0.06701 0.08406
vt -0.06701 0.19794
vt -0.02936 0.02300
vt -0.06701 0.19794
vt -0.04824 0.22716
vt -0.02936 0.02300
vt -0.04824 0.22716
vt 0.04824 0.22716
vt -0.02936 0.02300
vt 0.04824 0.22716
vt 0.06701 0.19794
vt -0.02936 0.02300
vt 0.06701 0.19794
vt 0.06701 0.08406
vt -0.02936 0.02300
vt 0.06701 0.08406
vt 0.05598 0.04088
vt -0.02936 0.02300
vt 0.05598 0.04088
vt 0.02936 0.02300
vt -0.04824 -0.02493
vt 0.04824 -0.02493
vt 0.04824 -0.74252
vt -0.04824 -0.02493
vt 0.04824 -0.74252
vt -0.04824 -0.74252
vt -0.02493 0.08406
vt -0.02493 0.19794
vt -0.74252 0.19794
vt -0.02493 0.08406
vt -0.74252 0.19794
vt -0.74252 0.08406
vt 0.02936 -0.02493
vt -0.02936 -0.02493
vt -0.02936 -0.74252
vt 0.02936 -0.02493
vt -0.02936 -0.74252
vt 0.02936 -0.74252
f 127/691 128/692 129/693
f 127/694 129/695 130/696
f 127/697 130/698 131/699
f 127/700 131/701 132/702
f 127/703 132/704 133/705
f 127/706 133/707 134/708
f 127/709 134/710 135/711
f 127/712 135/713 136/714
f 137/715 136/716 135/717
f 137/718 135/719 138/720
f 133/721 139/722 140/723
f 133/724 140/725 134/726
f 133/727 132/728 141/729
f 133/730 141/731 139/732
f 131/733 142/734 141/735
f 131/736 141/737 132/738
f 130/739 143/740 142/741
f 130/742 142/743 131/744
f 144/745 128/746 127/747
f 144/748 127/749 145/750
f 146/751 129/752 128/753
f 146/754 128/755 144/756
f 146/757 144/758 145/759
f 146/760 145/761 137/762
f 146/763 137/764 138/765
f 146/766 138/767 140/768
f 146/769 140/770 139/771
f 146/772 139/773 141/774
f 146/775 141/776 142/777
f 146/778 142/779 143/780
f 135/781 134/782 140/783
f 135/784 140/785 138/786
f 127/787 136/788 137/789
f 127/790 137/791 145/792
f 130/793 129/794 146/795
f 130/796 146/797 143/798
o Hardware
g Hardware
usemtl PlumDark
v -0.01346 0.34764 0.54772
v -0.02060 0.34764 0.54772
v -0.02060 0.38986 0.54772
v -0.01346 0.37989 0.54772
v -0.04037 0.34764 0.77481
v -0.02060 0.34764 0.77481
v -0.02060 0.38986 0.77481
v -0.04037 0.38986 0.77481
v -0.04037 0.38986 0.54772
v -0.04037 0.34764 0.54772
v 0.01346 0.34764 0.77481
v 0.01346 0.34764 0.54772
v 0.02029 0.34764 0.54772
v 0.02029 0.34764 0.77481
v 0.01346 0.37989 0.77481
v 0.02029 0.38986 0.77481
v 0.02029 0.38986 0.54772
v 0.01346 0.37989 0.54772
v 0.04037 0.34764 0.54772
v 0.04037 0.38986 0.54772
v -0.01346 0.34764 0.77481
v -0.01346 0.37989 0.77481
v 0.04037 0.34764 0.77481
v 0.04037 0.38986 0.77481
v -0.09509 0.04889 0.94416
v -0.08632 0.01426 0.94416
v 0.08632 0.01426 0.94416
v 0.09509 0.04889 0.94416
v 0.09509 0.27010 0.94416
v 0.06271 0.33490 0.94416
v -0.06271 0.33490 0.94416
v -0.09509 0.27010 0.94416
v 0.08632 0.01426 0.78248
v 0.09509 0.04889 0.78248
v -0.08632 0.01426 -0.04865
v -0.08632 0.01426 0.78248
v -0.09509 0.04889 0.78248
v -0.09509 0.04889 -0.04865
v 0.08632 0.01426 -0.04865
v 0.09509 0.04889 -0.04865
v 0.09509 0.29705 0.78248
v -0.09509 0.29705 -0.04865
v -0.09509 0.29705 0.78248
v -0.06271 0.36185 0.78248
v -0.06271 0.36185 -0.04865
v 0.06271 0.36185 0.78248
v 0.09509 0.29705 -0.04865
v 0.06271 0.36185 -0.04865
v -0.04290 -0.01629 0.64076
v 0.04290 -0.01629 0.64076
v 0.04476 0.02253 0.64759
v -0.04476 0.02253 0.64759
v -0.04476 -0.01629 0.54132
v -0.04476 0.02253 0.53448
v 0.04476 -0.01629 0.54132
v 0.04476 0.02253 0.53448
v 0.04265 -0.05080 0.55980
v -0.04265 -0.05080 0.55980
v 0.03806 -0.05080 0.62228
v -0.03806 -0.05080 0.62228
v -0.02773 -0.12347 0.62109
v 0.02773 -0.12347 0.62109
v -0.03132 -0.12629 0.58956
v 0.03132 -0.12629 0.58956
v -0.02186 -0.17270 0.64944
v 0.02186 -0.17270 0.64944
v -0.02186 -0.19765 0.63094
v 0.02186 -0.19765 0.63094
v 0.02186 -0.21640 0.70487
v -0.02186 -0.21640 0.70487
v 0.02186 -0.18748 0.70404
v -0.02186 -0.18748 0.70404
v -0.02186 -0.18750 0.78092
v 0.02186 -0.18750 0.78092
v -0.02186 -0.22198 0.78025
v 0.02186 -0.22198 0.78025
v -0.02186 -0.22125 0.85920
v -0.02186 -0.18359 0.85122
v 0.02186 -0.22125 0.85920
v 0.02186 -0.18359 0.85122
v 0.03007 -0.19427 0.92316
v -0.03007 -0.19427 0.92316
v 0.02653 -0.17029 0.89928
v -0.02653 -0.17029 0.89928
v -0.03358 -0.13233 0.92175
v 0.03358 -0.13233 0.92175
v -0.03783 -0.13358 0.94803
v 0.03783 -0.13358 0.94803
v 0.04332 -0.08886 0.96157
v -0.04332 -0.08886 0.96157
v 0.03899 -0.04904 0.92139
v -0.03899 -0.04904 0.92139
v 0.04476 0.00264 1.04997
v -0.04476 0.00264 1.04997
v 0.04476 0.03261 0.92033
v -0.04476 0.03261 0.92033
v -0.02354 0.41788 1.00914
v 0.02354 0.41788 1.00914
v 0.02354 0.44222 0.98662
v -0.02354 0.44222 0.98662
v 0.02354 0.40829 0.98848
v -0.02354 0.40829 0.98848
v -0.02354 0.42640 0.97023
v 0.02354 0.42640 0.97023
v -0.02354 0.31748 0.93138
v -0.02354 0.25924 1.05329
v -0.02354 0.33551 1.04410
v -0.02354 0.33889 0.95803
v 0.02354 0.31748 0.93138
v 0.02354 0.33889 0.95803
v 0.02354 0.33551 1.04410
v 0.02354 0.36533 1.01387
v -0.02354 0.36533 1.01387
v 0.02354 0.38137 0.98468
v 0.02354 0.39453 0.99069
v 0.02354 0.38622 1.01667
v -0.02354 0.38622 1.01667
v -0.02354 0.38137 0.98468
v -0.02354 0.39453 0.99069
v 0.02354 0.25924 1.05329
v 0.07503 0.27097 -2.42481
v 0.06498 0.30849 -2.42481
v 0.06498 0.30849 0.04548
v 0.07503 0.27097 0.04548
v 0.03752 0.33595 -2.42481
v 0.03752 0.33595 0.04548
v 0.00000 0.34600 -2.42481
v 0.00000 0.34600 0.04548
v -0.03752 0.33595 -2.42481
v -0.03752 0.33595 0.04548
v -0.06498 0.30849 -2.42481
v -0.06498 0.30849 0.04548
v -0.07503 0.27097 -2.42481
v -0.07503 0.27097 0.04548
v -0.06498 0.23345 -2.42481
v -0.06498 0.23345 0.04548
v -0.03752 0.20599 -2.42481
v -0.03752 0.20599 0.04548
v 0.00000 0.19593 -2.42481
v 0.00000 0.19593 0.04548
v 0.03752 0.20599 -2.42481
v 0.03752 0.20599 0.04548
v 0.06498 0.23345 -2.42481
v 0.06498 0.23345 0.04548
v 0.04228 0.19774 -2.42663
v 0.07323 0.22869 -2.42663
v -0.04228 0.19774 -2.42663
v -0.04228 0.19774 -2.51724
v 0.00000 0.18641 -2.51724
v 0.00000 0.18641 -2.42663
v 0.07323 0.31325 -2.42663
v 0.04228 0.34419 -2.42663
v -0.07323 0.22869 -2.42663
v -0.08455 0.27097 -2.42663
v -0.07323 0.31325 -2.42663
v -0.04228 0.34419 -2.42663
v 0.00000 0.35552 -2.42663
v 0.08455 0.27097 -2.42663
v 0.07323 0.31325 -2.51724
v 0.06556 0.30882 -2.51905
v 0.03785 0.33653 -2.51905
v 0.04228 0.34419 -2.51724
v -0.07323 0.31325 -2.51724
v -0.08455 0.27097 -2.51724
v 0.00000 0.35552 -2.51724
v 0.04228 0.19774 -2.51724
v -0.07323 0.22869 -2.51724
v -0.04228 0.34419 -2.51724
v 0.07323 0.22869 -2.51724
v 0.08455 0.27097 -2.51724
v 0.06556 0.23312 -2.51905
v 0.06556 0.23312 -2.60000
v 0.07570 0.27097 -2.60000
v 0.07570 0.27097 -2.51905
v -0.03785 0.20541 -2.51905
v 0.00000 0.19526 -2.51905
v -0.06556 0.30882 -2.51905
v -0.07570 0.27097 -2.51905
v 0.00000 0.34667 -2.51905
v 0.03785 0.20541 -2.51905
v -0.06556 0.23312 -2.51905
v -0.03785 0.33653 -2.51905
v -0.03785 0.33653 -2.60000
v -0.02654 0.31693 -2.60000
v -0.04596 0.29750 -2.60000
v -0.06556 0.30882 -2.60000
v 0.06556 0.30882 -2.60000
v 0.03785 0.33653 -2.60000
v -0.03785 0.20541 -2.60000
v 0.00000 0.19526 -2.60000
v -0.07570 0.27097 -2.60000
v 0.00000 0.34667 -2.60000
v 0.03785 0.20541 -2.60000
v -0.06556 0.23312 -2.60000
v -0.02654 0.31693 -2.13891
v -0.04596 0.29750 -2.13891
v 0.04596 0.24443 -2.60000
v 0.05307 0.27097 -2.60000
v 0.04596 0.29750 -2.60000
v 0.02654 0.31693 -2.60000
v -0.02654 0.22501 -2.60000
v 0.00000 0.21790 -2.60000
v -0.05307 0.27097 -2.60000
v 0.00000 0.32404 -2.60000
v 0.02654 0.22501 -2.60000
v -0.04596 0.24443 -2.60000
v 0.05307 0.27097 -2.13891
v 0.04596 0.24443 -2.13891
v 0.02654 0.22501 -2.13891
v 0.00000 0.21790 -2.13891
v -0.02654 0.22501 -2.13891
v -0.04596 0.24443 -2.13891
v -0.05307 0.27097 -2.13891
v 0.00000 0.32404 -2.13891
v 0.02654 0.31693 -2.13891
v 0.04596 0.29750 -2.13891
vt -0.01122 0.28970
vt -0.01717 0.28970
vt -0.01717 0.32488
vt -0.01122 0.28970
vt -0.01717 0.32488
vt -0.01122 0.31657
vt -0.03364 0.28970
vt -0.01717 0.28970
vt -0.01717 0.32488
vt -0.03364 0.28970
vt -0.01717 0.32488
vt -0.03364 0.32488
vt -0.03364 0.64567
vt -0.01717 0.64567
vt -0.01717 0.45643
vt -0.03364 0.64567
vt -0.01717 0.45643
vt -0.03364 0.45643
vt -0.03364 0.64567
vt -0.03364 0.45643
vt -0.01717 0.45643
vt -0.03364 0.64567
vt -0.01717 0.45643
vt -0.01717 0.64567
vt 0.01122 0.64567
vt 0.01122 0.45643
vt 0.01691 0.45643
vt 0.01122 0.64567
vt 0.01691 0.45643
vt 0.01691 0.64567
vt 0.64567 0.31657
vt 0.64567 0.32488
vt 0.45643 0.32488
vt 0.64567 0.31657
vt 0.45643 0.32488
vt 0.45643 0.31657
vt 0.01122 0.28970
vt 0.01691 0.28970
vt 0.01691 0.32488
vt 0.01122 0.28970
vt 0.01691 0.32488
vt 0.01122 0.31657
vt 0.03364 0.28970
vt 0.01691 0.28970
vt 0.01691 0.32488
vt 0.03364 0.28970
vt 0.01691 0.32488
vt 0.03364 0.32488
vt -0.01122 0.64567
vt -0.01122 0.45643
vt 0.01122 0.45643
vt -0.01122 0.64567
vt 0.01122 0.45643
vt 0.01122 0.64567
vt -0.01717 0.64567
vt -0.01717 0.45643
vt -0.01122 0.45643
vt -0.01717 0.64567
vt -0.01122 0.45643
vt -0.01122 0.64567
vt -0.01122 0.64567
vt 0.01122 0.64567
vt 0.01122 0.45643
vt -0.01122 0.64567
vt 0.01122 0.45643
vt -0.01122 0.45643
vt 0.64567 0.32488
vt 0.64567 0.31657
vt 0.45643 0.31657
vt 0.64567 0.32488
vt 0.45643 0.31657
vt 0.45643 0.32488
vt 0.01122 0.28970
vt -0.01122 0.28970
vt -0.01122 0.31657
vt 0.01122 0.28970
vt -0.01122 0.31657
vt 0.01122 0.31657
vt 0.01691 0.28970
vt 0.01122 0.28970
vt 0.01122 0.31657
vt 0.01691 0.28970
vt 0.01122 0.31657
vt 0.01691 0.32488
vt -0.01122 0.28970
vt 0.01122 0.28970
vt 0.01122 0.31657
vt -0.01122 0.28970
vt 0.01122 0.31657
vt -0.01122 0.31657
vt -0.01717 0.28970
vt -0.01122 0.28970
vt -0.01122 0.31657
vt -0.01717 0.28970
vt -0.01122 0.31657
vt -0.01717 0.32488
vt 0.01691 0.28970
vt 0.03364 0.28970
vt 0.03364 0.32488
vt 0.01691 0.28970
vt 0.03364 0.32488
vt 0.01691 0.32488
vt 0.64567 0.28970
vt 0.45643 0.28970
vt 0.45643 0.32488
vt 0.64567 0.28970
vt 0.45643 0.32488
vt 0.64567 0.32488
vt -0.01717 0.28970
vt -0.03364 0.28970
vt -0.03364 0.32488
vt -0.01717 0.28970
vt -0.03364 0.32488
vt -0.01717 0.32488
vt 0.45643 0.28970
vt 0.64567 0.28970
vt 0.64567 0.32488
vt 0.45643 0.28970
vt 0.64567 0.32488
vt 0.45643 0.32488
vt 0.01691 0.64567
vt 0.03364 0.64567
vt 0.03364 0.45643
vt 0.01691 0.64567
vt 0.03364 0.45643
vt 0.01691 0.45643
vt 0.01691 0.64567
vt 0.01691 0.45643
vt 0.03364 0.45643
vt 0.01691 0.64567
vt 0.03364 0.45643
vt 0.03364 0.64567
vt -0.07924 0.04074
vt -0.07193 0.01188
vt 0.07193 0.01188
vt -0.07924 0.04074
vt 0.07193 0.01188
vt 0.07924 0.04074
vt -0.07924 0.04074
vt 0.07924 0.04074
vt 0.07924 0.22508
vt -0.07924 0.04074
vt 0.07924 0.22508
vt 0.05226 0.27908
vt -0.07924 0.04074
vt 0.05226 0.27908
vt -0.05226 0.27908
vt -0.07924 0.04074
vt -0.05226 0.27908
vt -0.07924 0.22508
vt 0.78680 0.01188
vt 0.65207 0.01188
vt 0.65207 0.04074
vt 0.78680 0.01188
vt 0.65207 0.04074
vt 0.78680 0.04074
vt -0.04054 0.01188
vt 0.65207 0.01188
vt 0.65207 0.04074
vt -0.04054 0.01188
vt 0.65207 0.04074
vt -0.04054 0.04074
vt 0.65207 0.01188
vt -0.04054 0.01188
vt -0.04054 0.04074
vt 0.65207 0.01188
vt -0.04054 0.04074
vt 0.65207 0.04074
vt 0.65207 0.01188
vt 0.78680 0.01188
vt 0.78680 0.04074
vt 0.65207 0.01188
vt 0.78680 0.04074
vt 0.65207 0.04074
vt 0.78680 0.22508
vt 0.78680 0.04074
vt 0.65207 0.04074
vt 0.78680 0.22508
vt 0.65207 0.04074
vt 0.65207 0.24754
vt -0.04054 0.24754
vt 0.65207 0.24754
vt 0.65207 0.30154
vt -0.04054 0.24754
vt 0.65207 0.30154
vt -0.04054 0.30154
vt 0.78680 0.22508
vt 0.65207 0.24754
vt 0.65207 0.30154
vt 0.78680 0.22508
vt 0.65207 0.30154
vt 0.78680 0.27908
vt 0.65207 0.24754
vt 0.78680 0.22508
vt 0.78680 0.27908
vt 0.65207 0.24754
vt 0.78680 0.27908
vt 0.65207 0.30154
vt 0.65207 0.24754
vt -0.04054 0.24754
vt -0.04054 0.30154
vt 0.65207 0.24754
vt -0.04054 0.30154
vt 0.65207 0.30154
vt 0.07193 0.65207
vt -0.07193 0.65207
vt -0.07193 -0.04054
vt 0.07193 0.65207
vt -0.07193 -0.04054
vt 0.07193 -0.04054
vt 0.07193 0.78680
vt -0.07193 0.78680
vt -0.07193 0.65207
vt 0.07193 0.78680
vt -0.07193 0.65207
vt 0.07193 0.65207
vt -0.07193 0.01188
vt -0.07924 0.04074
vt -0.07924 0.24754
vt -0.07193 0.01188
vt -0.07924 0.24754
vt -0.05226 0.30154
vt -0.07193 0.01188
vt -0.05226 0.30154
vt 0.05226 0.30154
vt -0.07193 0.01188
vt 0.05226 0.30154
vt 0.07924 0.24754
vt -0.07193 0.01188
vt 0.07924 0.24754
vt 0.07924 0.04074
vt -0.07193 0.01188
vt 0.07924 0.04074
vt 0.07193 0.01188
vt 0.78680 0.04074
vt 0.78680 0.22508
vt 0.65207 0.24754
vt 0.78680 0.04074
vt 0.65207 0.24754
vt 0.65207 0.04074
vt 0.65207 0.04074
vt 0.65207 0.24754
vt -0.04054 0.24754
vt 0.65207 0.04074
vt -0.04054 0.24754
vt -0.04054 0.04074
vt 0.65207 0.24754
vt 0.65207 0.04074
vt -0.04054 0.04074
vt 0.65207 0.24754
vt -0.04054 0.04074
vt -0.04054 0.24754
vt -0.05226 0.65207
vt 0.05226 0.65207
vt 0.05226 -0.04054
vt -0.05226 0.65207
vt 0.05226 -0.04054
vt -0.05226 -0.04054
vt -0.05226 0.78680
vt 0.05226 0.78680
vt 0.05226 0.65207
vt -0.05226 0.78680
vt 0.05226 0.65207
vt -0.05226 0.65207
vt -0.03575 -0.01358
vt 0.03575 -0.01358
vt 0.03730 0.01878
vt -0.03575 -0.01358
vt 0.03730 0.01878
vt -0.03730 0.01878
vt 0.45110 -0.01358
vt 0.53397 -0.01358
vt 0.53966 0.01878
vt 0.45110 -0.01358
vt 0.53966 0.01878
vt 0.44540 0.01878
vt 0.03730 -0.01358
vt -0.03730 -0.01358
vt -0.03730 0.01878
vt 0.03730 -0.01358
vt -0.03730 0.01878
vt 0.03730 0.01878
vt 0.03730 0.44540
vt -0.03730 0.44540
vt -0.03730 0.53966
vt 0.03730 0.44540
vt -0.03730 0.53966
vt 0.03730 0.53966
vt 0.03554 -0.04233
vt -0.03554 -0.04233
vt -0.03730 -0.01358
vt 0.03554 -0.04233
vt -0.03730 -0.01358
vt 0.03730 -0.01358
vt 0.51857 -0.04233
vt 0.46650 -0.04233
vt 0.45110 -0.01358
vt 0.51857 -0.04233
vt 0.45110 -0.01358
vt 0.53397 -0.01358
vt -0.03172 -0.04233
vt 0.03172 -0.04233
vt 0.03575 -0.01358
vt -0.03172 -0.04233
vt 0.03575 -0.01358
vt -0.03575 -0.01358
vt 0.53397 -0.01358
vt 0.45110 -0.01358
vt 0.44540 0.01878
vt 0.53397 -0.01358
vt 0.44540 0.01878
vt 0.53966 0.01878
vt -0.02311 -0.10289
vt 0.02311 -0.10289
vt 0.03172 -0.04233
vt -0.02311 -0.10289
vt 0.03172 -0.04233
vt -0.03172 -0.04233
vt 0.49130 -0.10524
vt 0.51758 -0.10289
vt 0.51857 -0.04233
vt 0.49130 -0.10524
vt 0.51857 -0.04233
vt 0.46650 -0.04233
vt 0.02610 -0.10524
vt -0.02610 -0.10524
vt -0.03554 -0.04233
vt 0.02610 -0.10524
vt -0.03554 -0.04233
vt 0.03554 -0.04233
vt 0.46650 -0.04233
vt 0.51857 -0.04233
vt 0.53397 -0.01358
vt 0.46650 -0.04233
vt 0.53397 -0.01358
vt 0.45110 -0.01358
vt -0.01822 -0.14392
vt 0.01822 -0.14392
vt 0.02311 -0.10289
vt -0.01822 -0.14392
vt 0.02311 -0.10289
vt -0.02311 -0.10289
vt 0.52578 -0.16471
vt 0.54120 -0.14392
vt 0.51758 -0.10289
vt 0.52578 -0.16471
vt 0.51758 -0.10289
vt 0.49130 -0.10524
vt 0.01822 -0.16471
vt -0.01822 -0.16471
vt -0.02610 -0.10524
vt 0.01822 -0.16471
vt -0.02610 -0.10524
vt 0.02610 -0.10524
vt 0.51758 -0.10289
vt 0.49130 -0.10524
vt 0.46650 -0.04233
vt 0.51758 -0.10289
vt 0.46650 -0.04233
vt 0.51857 -0.04233
vt 0.01822 0.58739
vt -0.01822 0.58739
vt -0.01822 0.52578
vt 0.01822 0.58739
vt -0.01822 0.52578
vt 0.01822 0.52578
vt 0.58670 -0.15623
vt 0.58739 -0.18033
vt 0.52578 -0.16471
vt 0.58670 -0.15623
vt 0.52578 -0.16471
vt 0.54120 -0.14392
vt -0.01822 0.58670
vt 0.01822 0.58670
vt 0.01822 0.54120
vt -0.01822 0.58670
vt 0.01822 0.54120
vt -0.01822 0.54120
vt 0.54120 -0.14392
vt 0.52578 -0.16471
vt 0.49130 -0.10524
vt 0.54120 -0.14392
vt 0.49130 -0.10524
vt 0.51758 -0.10289
vt -0.01822 0.65077
vt 0.01822 0.65077
vt 0.01822 0.58670
vt -0.01822 0.65077
vt 0.01822 0.58670
vt -0.01822 0.58670
vt 0.65021 -0.18498
vt 0.65077 -0.15625
vt 0.58670 -0.15623
vt 0.65021 -0.18498
vt 0.58670 -0.15623
vt 0.58739 -0.18033
vt 0.01822 0.65021
vt -0.01822 0.65021
vt -0.01822 0.58739
vt 0.01822 0.65021
vt -0.01822 0.58739
vt 0.01822 0.58739
vt 0.58739 -0.18033
vt 0.58670 -0.15623
vt 0.54120 -0.14392
vt 0.58739 -0.18033
vt 0.54120 -0.14392
vt 0.52578 -0.16471
vt 0.71600 -0.18438
vt 0.70935 -0.15299
vt 0.65077 -0.15625
vt 0.71600 -0.18438
vt 0.65077 -0.15625
vt 0.65021 -0.18498
vt 0.01822 0.71600
vt -0.01822 0.71600
vt -0.01822 0.65021
vt 0.01822 0.71600
vt -0.01822 0.65021
vt 0.01822 0.65021
vt 0.70935 -0.15299
vt 0.71600 -0.18438
vt 0.65021 -0.18498
vt 0.70935 -0.15299
vt 0.65021 -0.18498
vt 0.65077 -0.15625
vt 0.65077 -0.15625
vt 0.65021 -0.18498
vt 0.58739 -0.18033
vt 0.65077 -0.15625
vt 0.58739 -0.18033
vt 0.58670 -0.15623
vt 0.02506 0.76930
vt -0.02506 0.76930
vt -0.01822 0.71600
vt 0.02506 0.76930
vt -0.01822 0.71600
vt 0.01822 0.71600
vt 0.74940 -0.14191
vt 0.76930 -0.16189
vt 0.71600 -0.18438
vt 0.74940 -0.14191
vt 0.71600 -0.18438
vt 0.70935 -0.15299
vt -0.02211 0.74940
vt 0.02211 0.74940
vt 0.01822 0.70935
vt -0.02211 0.74940
vt 0.01822 0.70935
vt -0.01822 0.70935
vt -0.01822 0.70935
vt 0.01822 0.70935
vt 0.01822 0.65077
vt -0.01822 0.70935
vt 0.01822 0.65077
vt -0.01822 0.65077
vt -0.02798 -0.11028
vt 0.02798 -0.11028
vt 0.02211 -0.14191
vt -0.02798 -0.11028
vt 0.02211 -0.14191
vt -0.02211 -0.14191
vt 0.79003 -0.11132
vt 0.76812 -0.11028
vt 0.74940 -0.14191
vt 0.79003 -0.11132
vt 0.74940 -0.14191
vt 0.76930 -0.16189
vt 0.03153 -0.11132
vt -0.03153 -0.11132
vt -0.02506 -0.16189
vt 0.03153 -0.11132
vt -0.02506 -0.16189
vt 0.02506 -0.16189
vt 0.76930 -0.16189
vt 0.74940 -0.14191
vt 0.70935 -0.15299
vt 0.76930 -0.16189
vt 0.70935 -0.15299
vt 0.71600 -0.18438
vt 0.03610 -0.07405
vt -0.03610 -0.07405
vt -0.03153 -0.11132
vt 0.03610 -0.07405
vt -0.03153 -0.11132
vt 0.03153 -0.11132
vt 0.76783 -0.04087
vt 0.80131 -0.07405
vt 0.79003 -0.11132
vt 0.76783 -0.04087
vt 0.79003 -0.11132
vt 0.76812 -0.11028
vt -0.03249 -0.04087
vt 0.03249 -0.04087
vt 0.02798 -0.11028
vt -0.03249 -0.04087
vt 0.02798 -0.11028
vt -0.02798 -0.11028
vt 0.76812 -0.11028
vt 0.79003 -0.11132
vt 0.76930 -0.16189
vt 0.76812 -0.11028
vt 0.76930 -0.16189
vt 0.74940 -0.14191
vt 0.03730 0.00220
vt -0.03730 0.00220
vt -0.03610 -0.07405
vt 0.03730 0.00220
vt -0.03610 -0.07405
vt 0.03610 -0.07405
vt 0.76694 0.02718
vt 0.87498 0.00220
vt 0.80131 -0.07405
vt 0.76694 0.02718
vt 0.80131 -0.07405
vt 0.76783 -0.04087
vt -0.03730 0.02718
vt 0.03730 0.02718
vt 0.03249 -0.04087
vt -0.03730 0.02718
vt 0.03249 -0.04087
vt -0.03249 -0.04087
vt 0.87498 0.00220
vt 0.76694 0.02718
vt 0.76783 -0.04087
vt 0.87498 0.00220
vt 0.76783 -0.04087
vt 0.80131 -0.07405
vt 0.80131 -0.07405
vt 0.76783 -0.04087
vt 0.76812 -0.11028
vt 0.80131 -0.07405
vt 0.76812 -0.11028
vt 0.79003 -0.11132
vt 0.03730 0.87498
vt 0.03730 0.76694
vt -0.03730 0.76694
vt 0.03730 0.87498
vt -0.03730 0.76694
vt -0.03730 0.87498
vt -0.01962 0.34823
vt 0.01962 0.34823
vt 0.01962 0.36852
vt -0.01962 0.34823
vt 0.01962 0.36852
vt -0.01962 0.36852
vt 0.01962 0.82373
vt -0.01962 0.82373
vt -0.01962 0.80853
vt 0.01962 0.82373
vt -0.01962 0.80853
vt 0.01962 0.80853
vt 0.84095 0.34823
vt 0.82373 0.34024
vt 0.80853 0.35533
vt 0.84095 0.34823
vt 0.80853 0.35533
vt 0.82218 0.36852
vt -0.01962 0.82218
vt 0.01962 0.82218
vt 0.01962 0.80853
vt -0.01962 0.82218
vt 0.01962 0.80853
vt -0.01962 0.80853
vt 0.77615 0.26457
vt 0.87774 0.21603
vt 0.87008 0.27959
vt 0.77615 0.26457
vt 0.87008 0.27959
vt 0.79836 0.28241
vt 0.01962 0.77615
vt -0.01962 0.77615
vt -0.01962 0.79836
vt 0.01962 0.77615
vt -0.01962 0.79836
vt 0.01962 0.79836
vt -0.01962 0.87008
vt 0.01962 0.87008
vt 0.01962 0.84489
vt -0.01962 0.87008
vt 0.01962 0.84489
vt -0.01962 0.84489
vt 0.84489 0.30444
vt 0.82057 0.31781
vt 0.82557 0.32877
vt 0.84489 0.30444
vt 0.82557 0.32877
vt 0.84723 0.32185
vt -0.01962 0.30444
vt 0.01962 0.30444
vt 0.01962 0.32185
vt -0.01962 0.30444
vt 0.01962 0.32185
vt -0.01962 0.32185
vt 0.82057 0.31781
vt 0.84489 0.30444
vt 0.84723 0.32185
vt 0.82057 0.31781
vt 0.84723 0.32185
vt 0.82557 0.32877
vt 0.01962 0.31781
vt -0.01962 0.31781
vt -0.01962 0.32877
vt 0.01962 0.31781
vt -0.01962 0.32877
vt 0.01962 0.32877
vt 0.01962 0.32877
vt -0.01962 0.32877
vt -0.01962 0.34024
vt 0.01962 0.32877
vt -0.01962 0.34024
vt 0.01962 0.34024
vt 0.82557 0.32877
vt 0.84723 0.32185
vt 0.84095 0.34823
vt 0.82557 0.32877
vt 0.84095 0.34823
vt 0.82373 0.34024
vt -0.01962 0.32185
vt 0.01962 0.32185
vt 0.01962 0.34823
vt -0.01962 0.32185
vt 0.01962 0.34823
vt -0.01962 0.34823
vt 0.87774 0.21603
vt 0.77615 0.26457
vt 0.79836 0.28241
vt 0.87774 0.21603
vt 0.79836 0.28241
vt 0.87008 0.27959
vt -0.01962 0.21603
vt 0.01962 0.21603
vt 0.01962 0.27959
vt -0.01962 0.21603
vt 0.01962 0.27959
vt -0.01962 0.27959
vt 0.87008 0.27959
vt 0.79836 0.28241
vt 0.82057 0.31781
vt 0.87008 0.27959
vt 0.82057 0.31781
vt 0.84489 0.30444
vt 0.84723 0.32185
vt 0.82557 0.32877
vt 0.82373 0.34024
vt 0.84723 0.32185
vt 0.82373 0.34024
vt 0.84095 0.34823
vt 0.82373 0.34024
vt 0.84095 0.34823
vt 0.82218 0.36852
vt 0.82373 0.34024
vt 0.82218 0.36852
vt 0.80853 0.35533
vt 0.01962 0.28241
vt -0.01962 0.28241
vt -0.01962 0.31781
vt 0.01962 0.28241
vt -0.01962 0.31781
vt 0.01962 0.31781
vt 0.79836 0.28241
vt 0.87008 0.27959
vt 0.84489 0.30444
vt 0.79836 0.28241
vt 0.84489 0.30444
vt 0.82057 0.31781
vt -0.01962 0.87774
vt -0.01962 0.77615
vt 0.01962 0.77615
vt -0.01962 0.87774
vt 0.01962 0.77615
vt 0.01962 0.87774
vt -2.02068 0.22581
vt -2.02068 0.25707
vt 0.03790 0.25707
vt -2.02068 0.22581
vt 0.03790 0.25707
vt 0.03790 0.22581
vt -2.02068 0.25707
vt -2.02068 0.27996
vt 0.03790 0.27996
vt -2.02068 0.25707
vt 0.03790 0.27996
vt 0.03790 0.25707
vt 0.03127 -2.02068
vt 0.00000 -2.02068
vt 0.00000 0.03790
vt 0.03127 -2.02068
vt 0.00000 0.03790
vt 0.03127 0.03790
vt 0.00000 -2.02068
vt -0.03127 -2.02068
vt -0.03127 0.03790
vt 0.00000 -2.02068
vt -0.03127 0.03790
vt 0.00000 0.03790
vt -2.02068 0.27996
vt -2.02068 0.25707
vt 0.03790 0.25707
vt -2.02068 0.27996
vt 0.03790 0.25707
vt 0.03790 0.27996
vt -2.02068 0.25707
vt -2.02068 0.22581
vt 0.03790 0.22581
vt -2.02068 0.25707
vt 0.03790 0.22581
vt 0.03790 0.25707
vt -2.02068 0.22581
vt -2.02068 0.19454
vt 0.03790 0.19454
vt -2.02068 0.22581
vt 0.03790 0.19454
vt 0.03790 0.22581
vt -0.05415 -2.02068
vt -0.03127 -2.02068
vt -0.03127 0.03790
vt -0.05415 -2.02068
vt -0.03127 0.03790
vt -0.05415 0.03790
vt -0.03127 -2.02068
vt 0.00000 -2.02068
vt 0.00000 0.03790
vt -0.03127 -2.02068
vt 0.00000 0.03790
vt -0.03127 0.03790
vt 0.00000 -2.02068
vt 0.03127 -2.02068
vt 0.03127 0.03790
vt 0.00000 -2.02068
vt 0.03127 0.03790
vt 0.00000 0.03790
vt 0.03127 -2.02068
vt 0.05415 -2.02068
vt 0.05415 0.03790
vt 0.03127 -2.02068
vt 0.05415 0.03790
vt 0.03127 0.03790
vt -2.02068 0.19454
vt -2.02068 0.22581
vt 0.03790 0.22581
vt -2.02068 0.19454
vt 0.03790 0.22581
vt 0.03790 0.19454
vt 0.03127 0.17166
vt 0.03523 0.16478
vt 0.06103 0.19058
vt 0.03127 0.17166
vt 0.06103 0.19058
vt 0.05415 0.19454
vt -0.03523 -2.02219
vt -0.03523 -2.09770
vt 0.00000 -2.09770
vt -0.03523 -2.02219
vt 0.00000 -2.09770
vt 0.00000 -2.02219
vt 0.05415 0.25707
vt 0.06103 0.26104
vt 0.03523 0.28682
vt 0.05415 0.25707
vt 0.03523 0.28682
vt 0.03127 0.27996
vt 0.00000 0.16328
vt 0.00000 0.15534
vt 0.03523 0.16478
vt 0.00000 0.16328
vt 0.03523 0.16478
vt 0.03127 0.17166
vt -0.03127 0.17166
vt -0.03523 0.16478
vt 0.00000 0.15534
vt -0.03127 0.17166
vt 0.00000 0.15534
vt 0.00000 0.16328
vt -0.05415 0.19454
vt -0.06103 0.19058
vt -0.03523 0.16478
vt -0.05415 0.19454
vt -0.03523 0.16478
vt -0.03127 0.17166
vt -0.06252 0.22581
vt -0.07046 0.22581
vt -0.06103 0.19058
vt -0.06252 0.22581
vt -0.06103 0.19058
vt -0.05415 0.19454
vt -0.05415 0.25707
vt -0.06103 0.26104
vt -0.07046 0.22581
vt -0.05415 0.25707
vt -0.07046 0.22581
vt -0.06252 0.22581
vt -0.03127 0.27996
vt -0.03523 0.28682
vt -0.06103 0.26104
vt -0.03127 0.27996
vt -0.06103 0.26104
vt -0.05415 0.25707
vt 0.00000 0.28833
vt 0.00000 0.29627
vt -0.03523 0.28682
vt 0.00000 0.28833
vt -0.03523 0.28682
vt -0.03127 0.27996
vt 0.05415 0.19454
vt 0.06103 0.19058
vt 0.07046 0.22581
vt 0.05415 0.19454
vt 0.07046 0.22581
vt 0.06252 0.22581
vt 0.06252 0.22581
vt 0.07046 0.22581
vt 0.06103 0.26104
vt 0.06252 0.22581
vt 0.06103 0.26104
vt 0.05415 0.25707
vt 0.03127 0.27996
vt 0.03523 0.28682
vt 0.00000 0.29627
vt 0.03127 0.27996
vt 0.00000 0.29627
vt 0.00000 0.28833
vt 0.06103 0.26104
vt 0.05463 0.25735
vt 0.03154 0.28044
vt 0.06103 0.26104
vt 0.03154 0.28044
vt 0.03523 0.28682
vt -2.02219 0.26104
vt -2.09770 0.26104
vt -2.09770 0.22581
vt -2.02219 0.26104
vt -2.09770 0.22581
vt -2.02219 0.22581
vt 0.03523 -2.02219
vt 0.03523 -2.09770
vt 0.00000 -2.09770
vt 0.03523 -2.02219
vt 0.00000 -2.09770
vt 0.00000 -2.02219
vt 0.00000 -2.02219
vt 0.00000 -2.09770
vt 0.03523 -2.09770
vt 0.00000 -2.02219
vt 0.03523 -2.09770
vt 0.03523 -2.02219
vt -2.02219 0.22581
vt -2.09770 0.22581
vt -2.09770 0.19058
vt -2.02219 0.22581
vt -2.09770 0.19058
vt -2.02219 0.19058
vt 0.00000 -2.02219
vt 0.00000 -2.09770
vt -0.03523 -2.09770
vt 0.00000 -2.02219
vt -0.03523 -2.09770
vt -0.03523 -2.02219
vt -2.02219 0.16478
vt -2.09770 0.16478
vt -2.09770 0.19058
vt -2.02219 0.16478
vt -2.09770 0.19058
vt -2.02219 0.19058
vt -2.02219 0.22581
vt -2.09770 0.22581
vt -2.09770 0.26104
vt -2.02219 0.22581
vt -2.09770 0.26104
vt -2.02219 0.26104
vt -2.02219 0.19058
vt -2.09770 0.19058
vt -2.09770 0.16478
vt -2.02219 0.19058
vt -2.09770 0.16478
vt -2.02219 0.16478
vt -0.03523 -2.02219
vt -0.03523 -2.09770
vt -0.06103 -2.09770
vt -0.03523 -2.02219
vt -0.06103 -2.09770
vt -0.06103 -2.02219
vt -2.02219 0.19058
vt -2.09770 0.19058
vt -2.09770 0.22581
vt -2.02219 0.19058
vt -2.09770 0.22581
vt -2.02219 0.22581
vt 0.06103 -2.02219
vt 0.06103 -2.09770
vt 0.03523 -2.09770
vt 0.06103 -2.02219
vt 0.03523 -2.09770
vt 0.03523 -2.02219
vt -2.09921 0.19427
vt -2.16667 0.19427
vt -2.16667 0.22581
vt -2.09921 0.19427
vt -2.16667 0.22581
vt -2.09921 0.22581
vt -0.03523 0.16478
vt -0.03154 0.17118
vt 0.00000 0.16272
vt -0.03523 0.16478
vt 0.00000 0.16272
vt 0.00000 0.15534
vt -0.06103 0.26104
vt -0.05463 0.25735
vt -0.06308 0.22581
vt -0.06103 0.26104
vt -0.06308 0.22581
vt -0.07046 0.22581
vt 0.03523 0.28682
vt 0.03154 0.28044
vt 0.00000 0.28889
vt 0.03523 0.28682
vt 0.00000 0.28889
vt 0.00000 0.29627
vt 0.00000 0.15534
vt 0.00000 0.16272
vt 0.03154 0.17118
vt 0.00000 0.15534
vt 0.03154 0.17118
vt 0.03523 0.16478
vt -0.07046 0.22581
vt -0.06308 0.22581
vt -0.05463 0.19427
vt -0.07046 0.22581
vt -0.05463 0.19427
vt -0.06103 0.19058
vt 0.00000 0.29627
vt 0.00000 0.28889
vt -0.03154 0.28044
vt 0.00000 0.29627
vt -0.03154 0.28044
vt -0.03523 0.28682
vt 0.03523 0.16478
vt 0.03154 0.17118
vt 0.05463 0.19427
vt 0.03523 0.16478
vt 0.05463 0.19427
vt 0.06103 0.19058
vt 0.07046 0.22581
vt 0.06308 0.22581
vt 0.05463 0.25735
vt 0.07046 0.22581
vt 0.05463 0.25735
vt 0.06103 0.26104
vt -0.06103 0.19058
vt -0.05463 0.19427
vt -0.03154 0.17118
vt -0.06103 0.19058
vt -0.03154 0.17118
vt -0.03523 0.16478
vt -0.03523 0.28682
vt -0.03154 0.28044
vt -0.05463 0.25735
vt -0.03523 0.28682
vt -0.05463 0.25735
vt -0.06103 0.26104
vt 0.06103 0.19058
vt 0.05463 0.19427
vt 0.06308 0.22581
vt 0.06103 0.19058
vt 0.06308 0.22581
vt 0.07046 0.22581
vt -0.03154 0.28044
vt -0.02212 0.26411
vt -0.03830 0.24792
vt -0.03154 0.28044
vt -0.03830 0.24792
vt -0.05463 0.25735
vt -2.09921 0.25735
vt -2.16667 0.25735
vt -2.16667 0.28044
vt -2.09921 0.25735
vt -2.16667 0.28044
vt -2.09921 0.28044
vt -0.03154 -2.09921
vt -0.03154 -2.16667
vt 0.00000 -2.16667
vt -0.03154 -2.09921
vt 0.00000 -2.16667
vt 0.00000 -2.09921
vt -2.09921 0.25735
vt -2.16667 0.25735
vt -2.16667 0.22581
vt -2.09921 0.25735
vt -2.16667 0.22581
vt -2.09921 0.22581
vt 0.03154 -2.09921
vt 0.03154 -2.16667
vt 0.00000 -2.16667
vt 0.03154 -2.09921
vt 0.00000 -2.16667
vt 0.00000 -2.09921
vt 0.00000 -2.09921
vt 0.00000 -2.16667
vt 0.03154 -2.16667
vt 0.00000 -2.09921
vt 0.03154 -2.16667
vt 0.03154 -2.09921
vt -2.09921 0.22581
vt -2.16667 0.22581
vt -2.16667 0.19427
vt -2.09921 0.22581
vt -2.16667 0.19427
vt -2.09921 0.19427
vt 0.00000 -2.09921
vt 0.00000 -2.16667
vt -0.03154 -2.16667
vt 0.00000 -2.09921
vt -0.03154 -2.16667
vt -0.03154 -2.09921
vt 0.03154 -2.09921
vt 0.03154 -2.16667
vt 0.05463 -2.16667
vt 0.03154 -2.09921
vt 0.05463 -2.16667
vt 0.05463 -2.09921
vt -2.09921 0.22581
vt -2.16667 0.22581
vt -2.16667 0.25735
vt -2.09921 0.22581
vt -2.16667 0.25735
vt -2.09921 0.25735
vt -0.05463 -2.09921
vt -0.05463 -2.16667
vt -0.03154 -2.16667
vt -0.05463 -2.09921
vt -0.03154 -2.16667
vt -0.03154 -2.09921
vt -2.09921 0.28044
vt -2.16667 0.28044
vt -2.16667 0.25735
vt -2.09921 0.28044
vt -2.16667 0.25735
vt -2.09921 0.25735
vt -2.16667 0.26411
vt -1.78243 0.26411
vt -1.78243 0.24792
vt -2.16667 0.26411
vt -1.78243 0.24792
vt -2.16667 0.24792
vt 0.05463 0.19427
vt 0.03830 0.20369
vt 0.04423 0.22581
vt 0.05463 0.19427
vt 0.04423 0.22581
vt 0.06308 0.22581
vt 0.05463 0.25735
vt 0.03830 0.24792
vt 0.02212 0.26411
vt 0.05463 0.25735
vt 0.02212 0.26411
vt 0.03154 0.28044
vt -0.03154 0.17118
vt -0.02212 0.18751
vt 0.00000 0.18158
vt -0.03154 0.17118
vt 0.00000 0.18158
vt 0.00000 0.16272
vt -0.05463 0.25735
vt -0.03830 0.24792
vt -0.04423 0.22581
vt -0.05463 0.25735
vt -0.04423 0.22581
vt -0.06308 0.22581
vt 0.03154 0.28044
vt 0.02212 0.26411
vt 0.00000 0.27003
vt 0.03154 0.28044
vt 0.00000 0.27003
vt 0.00000 0.28889
vt 0.00000 0.16272
vt 0.00000 0.18158
vt 0.02212 0.18751
vt 0.00000 0.16272
vt 0.02212 0.18751
vt 0.03154 0.17118
vt -0.06308 0.22581
vt -0.04423 0.22581
vt -0.03830 0.20369
vt -0.06308 0.22581
vt -0.03830 0.20369
vt -0.05463 0.19427
vt 0.00000 0.28889
vt 0.00000 0.27003
vt -0.02212 0.26411
vt 0.00000 0.28889
vt -0.02212 0.26411
vt -0.03154 0.28044
vt 0.03154 0.17118
vt 0.02212 0.18751
vt 0.03830 0.20369
vt 0.03154 0.17118
vt 0.03830 0.20369
vt 0.05463 0.19427
vt 0.06308 0.22581
vt 0.04423 0.22581
vt 0.03830 0.24792
vt 0.06308 0.22581
vt 0.03830 0.24792
vt 0.05463 0.25735
vt -0.05463 0.19427
vt -0.03830 0.20369
vt -0.02212 0.18751
vt -0.05463 0.19427
vt -0.02212 0.18751
vt -0.03154 0.17118
vt 0.04423 0.22581
vt 0.03830 0.20369
vt 0.02212 0.18751
vt 0.04423 0.22581
vt 0.02212 0.18751
vt 0.00000 0.18158
vt 0.04423 0.22581
vt 0.00000 0.18158
vt -0.02212 0.18751
vt 0.04423 0.22581
vt -0.02212 0.18751
vt -0.03830 0.20369
vt 0.04423 0.22581
vt -0.03830 0.20369
vt -0.04423 0.22581
vt 0.04423 0.22581
vt -0.04423 0.22581
vt -0.03830 0.24792
vt 0.04423 0.22581
vt -0.03830 0.24792
vt -0.02212 0.26411
vt 0.04423 0.22581
vt -0.02212 0.26411
vt 0.00000 0.27003
vt 0.04423 0.22581
vt 0.00000 0.27003
vt 0.02212 0.26411
vt 0.04423 0.22581
vt 0.02212 0.26411
vt 0.03830 0.24792
vt -2.16667 0.20369
vt -1.78243 0.20369
vt -1.78243 0.22581
vt -2.16667 0.20369
vt -1.78243 0.22581
vt -2.16667 0.22581
vt -2.16667 0.24792
vt -1.78243 0.24792
vt -1.78243 0.26411
vt -2.16667 0.24792
vt -1.78243 0.26411
vt -2.16667 0.26411
vt -0.02212 -2.16667
vt -0.02212 -1.78243
vt 0.00000 -1.78243
vt -0.02212 -2.16667
vt 0.00000 -1.78243
vt 0.00000 -2.16667
vt -2.16667 0.24792
vt -1.78243 0.24792
vt -1.78243 0.22581
vt -2.16667 0.24792
vt -1.78243 0.22581
vt -2.16667 0.22581
vt 0.02212 -2.16667
vt 0.02212 -1.78243
vt 0.00000 -1.78243
vt 0.02212 -2.16667
vt 0.00000 -1.78243
vt 0.00000 -2.16667
vt 0.00000 -2.16667
vt 0.00000 -1.78243
vt 0.02212 -1.78243
vt 0.00000 -2.16667
vt 0.02212 -1.78243
vt 0.02212 -2.16667
vt -2.16667 0.22581
vt -1.78243 0.22581
vt -1.78243 0.20369
vt -2.16667 0.22581
vt -1.78243 0.20369
vt -2.16667 0.20369
vt 0.00000 -2.16667
vt 0.00000 -1.78243
vt -0.02212 -1.78243
vt 0.00000 -2.16667
vt -0.02212 -1.78243
vt -0.02212 -2.16667
vt -2.16667 0.18751
vt -1.78243 0.18751
vt -1.78243 0.20369
vt -2.16667 0.18751
vt -1.78243 0.20369
vt -2.16667 0.20369
vt -2.16667 0.22581
vt -1.78243 0.22581
vt -1.78243 0.24792
vt -2.16667 0.22581
vt -1.78243 0.24792
vt -2.16667 0.24792
vt -2.16667 0.20369
vt -1.78243 0.20369
vt -1.78243 0.18751
vt -2.16667 0.20369
vt -1.78243 0.18751
vt -2.16667 0.18751
f 147/799 148/800 149/801
f 147/802 149/803 150/804
f 151/805 152/806 153/807
f 151/808 153/809 154/810
f 154/811 153/812 149/813
f 154/814 149/815 155/816
f 151/817 156/818 148/819
f 151/820 148/821 152/822
f 157/823 158/824 159/825
f 157/826 159/827 160/828
f 161/829 162/830 163/831
f 161/832 163/833 164/834
f 157/835 160/836 162/837
f 157/838 162/839 161/840
f 165/841 159/842 163/843
f 165/844 163/845 166/846
f 167/847 147/848 158/849
f 167/850 158/851 157/852
f 152/853 148/854 147/855
f 152/856 147/857 167/858
f 168/859 161/860 164/861
f 168/862 164/863 150/864
f 153/865 168/866 150/867
f 153/868 150/869 149/870
f 158/871 147/872 150/873
f 158/874 150/875 164/876
f 159/877 158/878 164/879
f 159/880 164/881 163/882
f 167/883 157/884 161/885
f 167/886 161/887 168/888
f 152/889 167/890 168/891
f 152/892 168/893 153/894
f 160/895 169/896 170/897
f 160/898 170/899 162/900
f 169/901 165/902 166/903
f 169/904 166/905 170/906
f 148/907 156/908 155/909
f 148/910 155/911 149/912
f 156/913 151/914 154/915
f 156/916 154/917 155/918
f 162/919 170/920 166/921
f 162/922 166/923 163/924
f 160/925 159/926 165/927
f 160/928 165/929 169/930
f 171/931 172/932 173/933
f 171/934 173/935 174/936
f 171/937 174/938 175/939
f 171/940 175/941 176/942
f 171/943 176/944 177/945
f 171/946 177/947 178/948
f 173/949 179/950 180/951
f 173/952 180/953 174/954
f 181/955 182/956 183/957
f 181/958 183/959 184/960
f 179/961 185/962 186/963
f 179/964 186/965 180/966
f 182/967 172/968 171/969
f 182/970 171/971 183/972
f 175/973 174/974 180/975
f 175/976 180/977 187/978
f 188/979 189/980 190/981
f 188/982 190/983 191/984
f 175/985 187/986 192/987
f 175/988 192/989 176/990
f 189/991 178/992 177/993
f 189/994 177/995 190/996
f 187/997 193/998 194/999
f 187/1000 194/1001 192/1002
f 179/1003 182/1004 181/1005
f 179/1006 181/1007 185/1008
f 173/1009 172/1010 182/1011
f 173/1012 182/1013 179/1014
f 181/1015 184/1016 188/1017
f 181/1018 188/1019 191/1020
f 181/1021 191/1022 194/1023
f 181/1024 194/1025 193/1026
f 181/1027 193/1028 186/1029
f 181/1030 186/1031 185/1032
f 171/1033 178/1034 189/1035
f 171/1036 189/1037 183/1038
f 183/1039 189/1040 188/1041
f 183/1042 188/1043 184/1044
f 187/1045 180/1046 186/1047
f 187/1048 186/1049 193/1050
f 190/1051 192/1052 194/1053
f 190/1054 194/1055 191/1056
f 177/1057 176/1058 192/1059
f 177/1060 192/1061 190/1062
f 195/1063 196/1064 197/1065
f 195/1066 197/1067 198/1068
f 199/1069 195/1070 198/1071
f 199/1072 198/1073 200/1074
f 201/1075 199/1076 200/1077
f 201/1078 200/1079 202/1080
f 202/1081 200/1082 198/1083
f 202/1084 198/1085 197/1086
f 203/1087 204/1088 199/1089
f 203/1090 199/1091 201/1092
f 205/1093 203/1094 201/1095
f 205/1096 201/1097 196/1098
f 206/1099 205/1100 196/1101
f 206/1102 196/1103 195/1104
f 196/1105 201/1106 202/1107
f 196/1108 202/1109 197/1110
f 207/1111 208/1112 205/1113
f 207/1114 205/1115 206/1116
f 209/1117 207/1118 206/1119
f 209/1120 206/1121 204/1122
f 210/1123 209/1124 204/1125
f 210/1126 204/1127 203/1128
f 204/1129 206/1130 195/1131
f 204/1132 195/1133 199/1134
f 211/1135 212/1136 208/1137
f 211/1138 208/1139 207/1140
f 213/1141 211/1142 207/1143
f 213/1144 207/1145 209/1146
f 214/1147 213/1148 209/1149
f 214/1150 209/1151 210/1152
f 208/1153 210/1154 203/1155
f 208/1156 203/1157 205/1158
f 215/1159 216/1160 213/1161
f 215/1162 213/1163 214/1164
f 217/1165 215/1166 214/1167
f 217/1168 214/1169 212/1170
f 218/1171 217/1172 212/1173
f 218/1174 212/1175 211/1176
f 212/1177 214/1178 210/1179
f 212/1180 210/1181 208/1182
f 219/1183 220/1184 217/1185
f 219/1186 217/1187 218/1188
f 221/1189 219/1190 218/1191
f 221/1192 218/1193 216/1194
f 222/1195 221/1196 216/1197
f 222/1198 216/1199 215/1200
f 216/1201 218/1202 211/1203
f 216/1204 211/1205 213/1206
f 223/1207 224/1208 219/1209
f 223/1210 219/1211 221/1212
f 225/1213 223/1214 221/1215
f 225/1216 221/1217 222/1218
f 226/1219 225/1220 222/1221
f 226/1222 222/1223 220/1224
f 220/1225 222/1226 215/1227
f 220/1228 215/1229 217/1230
f 227/1231 228/1232 223/1233
f 227/1234 223/1235 225/1236
f 229/1237 227/1238 225/1239
f 229/1240 225/1241 226/1242
f 230/1243 229/1244 226/1245
f 230/1246 226/1247 224/1248
f 224/1249 226/1250 220/1251
f 224/1252 220/1253 219/1254
f 231/1255 232/1256 229/1257
f 231/1258 229/1259 230/1260
f 233/1261 231/1262 230/1263
f 233/1264 230/1265 228/1266
f 234/1267 233/1268 228/1269
f 234/1270 228/1271 227/1272
f 228/1273 230/1274 224/1275
f 228/1276 224/1277 223/1278
f 235/1279 236/1280 233/1281
f 235/1282 233/1283 234/1284
f 237/1285 235/1286 234/1287
f 237/1288 234/1289 232/1290
f 238/1291 237/1292 232/1293
f 238/1294 232/1295 231/1296
f 232/1297 234/1298 227/1299
f 232/1300 227/1301 229/1302
f 239/1303 240/1304 236/1305
f 239/1306 236/1307 235/1308
f 241/1309 239/1310 235/1311
f 241/1312 235/1313 237/1314
f 242/1315 241/1316 237/1317
f 242/1318 237/1319 238/1320
f 240/1321 242/1322 238/1323
f 240/1324 238/1325 236/1326
f 236/1327 238/1328 231/1329
f 236/1330 231/1331 233/1332
f 239/1333 241/1334 242/1335
f 239/1336 242/1337 240/1338
f 243/1339 244/1340 245/1341
f 243/1342 245/1343 246/1344
f 247/1345 248/1346 249/1347
f 247/1348 249/1349 250/1350
f 244/1351 247/1352 250/1353
f 244/1354 250/1355 245/1356
f 246/1357 245/1358 250/1359
f 246/1360 250/1361 249/1362
f 251/1363 252/1364 253/1365
f 251/1366 253/1367 254/1368
f 255/1369 251/1370 254/1371
f 255/1372 254/1373 256/1374
f 253/1375 257/1376 258/1377
f 253/1378 258/1379 259/1380
f 258/1381 260/1382 261/1383
f 258/1384 261/1385 262/1386
f 259/1387 258/1388 262/1389
f 259/1390 262/1391 263/1392
f 264/1393 259/1394 263/1395
f 264/1396 263/1397 265/1398
f 260/1399 264/1400 265/1401
f 260/1402 265/1403 261/1404
f 261/1405 265/1406 248/1407
f 261/1408 248/1409 247/1410
f 265/1411 263/1412 243/1413
f 265/1414 243/1415 248/1416
f 263/1417 262/1418 244/1419
f 263/1420 244/1421 243/1422
f 266/1423 255/1424 256/1425
f 266/1426 256/1427 257/1428
f 252/1429 266/1430 257/1431
f 252/1432 257/1433 253/1434
f 257/1435 256/1436 260/1437
f 257/1438 260/1439 258/1440
f 262/1441 261/1442 247/1443
f 262/1444 247/1445 244/1446
f 248/1447 243/1448 246/1449
f 248/1450 246/1451 249/1452
f 256/1453 254/1454 264/1455
f 256/1456 264/1457 260/1458
f 254/1459 253/1460 259/1461
f 254/1462 259/1463 264/1464
f 252/1465 251/1466 255/1467
f 252/1468 255/1469 266/1470
f 267/1471 268/1472 269/1473
f 267/1474 269/1475 270/1476
f 268/1477 271/1478 272/1479
f 268/1480 272/1481 269/1482
f 271/1483 273/1484 274/1485
f 271/1486 274/1487 272/1488
f 273/1489 275/1490 276/1491
f 273/1492 276/1493 274/1494
f 275/1495 277/1496 278/1497
f 275/1498 278/1499 276/1500
f 277/1501 279/1502 280/1503
f 277/1504 280/1505 278/1506
f 279/1507 281/1508 282/1509
f 279/1510 282/1511 280/1512
f 281/1513 283/1514 284/1515
f 281/1516 284/1517 282/1518
f 283/1519 285/1520 286/1521
f 283/1522 286/1523 284/1524
f 285/1525 287/1526 288/1527
f 285/1528 288/1529 286/1530
f 287/1531 289/1532 290/1533
f 287/1534 290/1535 288/1536
f 289/1537 267/1538 270/1539
f 289/1540 270/1541 290/1542
f 287/1543 291/1544 292/1545
f 287/1546 292/1547 289/1548
f 293/1549 294/1550 295/1551
f 293/1552 295/1553 296/1554
f 268/1555 297/1556 298/1557
f 268/1558 298/1559 271/1560
f 285/1561 296/1562 291/1563
f 285/1564 291/1565 287/1566
f 283/1567 293/1568 296/1569
f 283/1570 296/1571 285/1572
f 281/1573 299/1574 293/1575
f 281/1576 293/1577 283/1578
f 279/1579 300/1580 299/1581
f 279/1582 299/1583 281/1584
f 277/1585 301/1586 300/1587
f 277/1588 300/1589 279/1590
f 275/1591 302/1592 301/1593
f 275/1594 301/1595 277/1596
f 273/1597 303/1598 302/1599
f 273/1600 302/1601 275/1602
f 289/1603 292/1604 304/1605
f 289/1606 304/1607 267/1608
f 267/1609 304/1610 297/1611
f 267/1612 297/1613 268/1614
f 271/1615 298/1616 303/1617
f 271/1618 303/1619 273/1620
f 305/1621 306/1622 307/1623
f 305/1624 307/1625 308/1626
f 301/1627 309/1628 310/1629
f 301/1630 310/1631 300/1632
f 298/1633 308/1634 311/1635
f 298/1636 311/1637 303/1638
f 296/1639 295/1640 312/1641
f 296/1642 312/1643 291/1644
f 300/1645 310/1646 313/1647
f 300/1648 313/1649 299/1650
f 303/1651 311/1652 314/1653
f 303/1654 314/1655 302/1656
f 291/1657 312/1658 315/1659
f 291/1660 315/1661 292/1662
f 304/1663 316/1664 305/1665
f 304/1666 305/1667 297/1668
f 299/1669 313/1670 294/1671
f 299/1672 294/1673 293/1674
f 302/1675 314/1676 309/1677
f 302/1678 309/1679 301/1680
f 292/1681 315/1682 316/1683
f 292/1684 316/1685 304/1686
f 297/1687 305/1688 308/1689
f 297/1690 308/1691 298/1692
f 317/1693 318/1694 319/1695
f 317/1696 319/1697 320/1698
f 294/1699 321/1700 322/1701
f 294/1702 322/1703 295/1704
f 309/1705 323/1706 324/1707
f 309/1708 324/1709 310/1710
f 308/1711 307/1712 325/1713
f 308/1714 325/1715 311/1716
f 295/1717 322/1718 326/1719
f 295/1720 326/1721 312/1722
f 310/1723 324/1724 327/1725
f 310/1726 327/1727 313/1728
f 311/1729 325/1730 328/1731
f 311/1732 328/1733 314/1734
f 312/1735 326/1736 317/1737
f 312/1738 317/1739 315/1740
f 316/1741 320/1742 306/1743
f 316/1744 306/1745 305/1746
f 313/1747 327/1748 321/1749
f 313/1750 321/1751 294/1752
f 314/1753 328/1754 323/1755
f 314/1756 323/1757 309/1758
f 315/1759 317/1760 320/1761
f 315/1762 320/1763 316/1764
f 329/1765 330/1766 331/1767
f 329/1768 331/1769 332/1770
f 306/1771 333/1772 334/1773
f 306/1774 334/1775 307/1776
f 321/1777 335/1778 336/1779
f 321/1780 336/1781 322/1782
f 323/1783 332/1784 337/1785
f 323/1786 337/1787 324/1788
f 307/1789 334/1790 338/1791
f 307/1792 338/1793 325/1794
f 322/1795 336/1796 339/1797
f 322/1798 339/1799 326/1800
f 324/1801 337/1802 340/1803
f 324/1804 340/1805 327/1806
f 325/1807 338/1808 329/1809
f 325/1810 329/1811 328/1812
f 326/1813 339/1814 318/1815
f 326/1816 318/1817 317/1818
f 320/1819 319/1820 333/1821
f 320/1822 333/1823 306/1824
f 327/1825 340/1826 335/1827
f 327/1828 335/1829 321/1830
f 328/1831 329/1832 332/1833
f 328/1834 332/1835 323/1836
f 330/1837 341/1838 342/1839
f 330/1840 342/1841 331/1842
f 318/1843 343/1844 344/1845
f 318/1846 344/1847 319/1848
f 333/1849 345/1850 346/1851
f 333/1852 346/1853 334/1854
f 335/1855 347/1856 348/1857
f 335/1858 348/1859 336/1860
f 332/1861 331/1862 349/1863
f 332/1864 349/1865 337/1866
f 334/1867 346/1868 350/1869
f 334/1870 350/1871 338/1872
f 336/1873 348/1874 351/1875
f 336/1876 351/1877 339/1878
f 337/1879 349/1880 352/1881
f 337/1882 352/1883 340/1884
f 338/1885 350/1886 330/1887
f 338/1888 330/1889 329/1890
f 339/1891 351/1892 343/1893
f 339/1894 343/1895 318/1896
f 319/1897 344/1898 345/1899
f 319/1900 345/1901 333/1902
f 340/1903 352/1904 347/1905
f 340/1906 347/1907 335/1908
f 353/1909 354/1910 355/1911
f 353/1912 355/1913 356/1914
f 353/1915 356/1916 357/1917
f 353/1918 357/1919 358/1920
f 353/1921 358/1922 359/1923
f 353/1924 359/1925 342/1926
f 353/1927 342/1928 341/1929
f 353/1930 341/1931 360/1932
f 353/1933 360/1934 361/1935
f 353/1936 361/1937 362/1938
f 343/1939 354/1940 353/1941
f 343/1942 353/1943 344/1944
f 345/1945 362/1946 361/1947
f 345/1948 361/1949 346/1950
f 347/1951 357/1952 356/1953
f 347/1954 356/1955 348/1956
f 331/1957 342/1958 359/1959
f 331/1960 359/1961 349/1962
f 346/1963 361/1964 360/1965
f 346/1966 360/1967 350/1968
f 348/1969 356/1970 355/1971
f 348/1972 355/1973 351/1974
f 349/1975 359/1976 358/1977
f 349/1978 358/1979 352/1980
f 350/1981 360/1982 341/1983
f 350/1984 341/1985 330/1986
f 351/1987 355/1988 354/1989
f 351/1990 354/1991 343/1992
f 344/1993 353/1994 362/1995
f 344/1996 362/1997 345/1998
f 352/1999 358/2000 357/2001
f 352/2002 357/2003 347/2004
