mtllib pink_guns.mtl
v 0.27469 0.57835 0.68640
v 0.29781 0.49208 0.68640
v 0.24662 0.49208 -2.60000
v 0.23014 0.55356 -2.60000
v 0.06218 0.59857 -2.60000
v 0.07063 0.58393 -2.59839
v 0.03181 0.54511 -2.59839
v 0.01717 0.55356 -2.60000
v 0.12526 0.66463 0.68640
v 0.21153 0.64151 0.68640
v 0.18514 0.59857 -2.60000
v 0.12366 0.61504 -2.60000
v 0.21153 0.34265 0.68640
v 0.12526 0.31953 0.68640
v 0.12366 0.36912 -2.60000
v 0.18514 0.38559 -2.60000
v -0.02417 0.40581 0.68640
v -0.04728 0.49208 0.68640
v 0.00070 0.49208 -2.60000
v 0.01717 0.43060 -2.60000
v 0.03899 0.64151 0.68640
v 0.27469 0.40581 0.68640
v 0.23014 0.43060 -2.60000
v 0.03899 0.34265 0.68640
v 0.06218 0.38559 -2.60000
v -0.02417 0.57835 0.68640
v 0.07968 0.59244 -1.93096
v 0.04632 0.55907 -1.93096
v 0.21551 0.43905 -2.59839
v 0.22972 0.49208 -2.59839
v 0.21551 0.54511 -2.59839
v 0.17669 0.58393 -2.59839
v 0.07063 0.40023 -2.59839
v 0.12366 0.38602 -2.59839
v 0.01760 0.49208 -2.59839
v 0.12366 0.59814 -2.59839
v 0.17669 0.40023 -2.59839
v 0.03181 0.43905 -2.59839
v 0.21642 0.51349 -1.93096
v 0.20421 0.46791 -1.93096
v 0.17084 0.43455 -1.93096
v 0.12526 0.42233 -1.93096
v 0.07968 0.43455 -1.93096
v 0.04632 0.46791 -1.93096
v 0.03410 0.51349 -1.93096
v 0.12526 0.60465 -1.93096
v 0.17084 0.59244 -1.93096
v 0.20421 0.55907 -1.93096
v 0.24381 0.42363 0.68640
v 0.19371 0.37353 0.68640
v 0.24381 0.56053 0.68640
v 0.26215 0.49208 0.68640
v 0.05682 0.37353 0.68640
v 0.00671 0.42363 0.68640
v 0.00671 0.56053 0.68640
v 0.05682 0.61063 0.68640
v 0.19371 0.61063 0.68640
v 0.12526 0.35519 0.68640
v -0.01163 0.49208 0.68640
v 0.12526 0.62897 0.68640
v 0.12526 0.62897 0.77068
v 0.19371 0.61063 0.77068
v -0.01163 0.49208 0.77068
v -0.00278 0.49208 0.81142
v 0.01437 0.55610 0.81142
v 0.00671 0.56053 0.77068
v 0.19371 0.37353 0.77068
v 0.12526 0.35519 0.77068
v 0.00671 0.42363 0.77068
v 0.05682 0.61063 0.77068
v 0.24381 0.42363 0.77068
v 0.24381 0.56053 0.77068
v 0.26215 0.49208 0.77068
v 0.05682 0.37353 0.77068
v 0.02525 0.49208 0.84162
v 0.03865 0.54209 0.84162
v 0.12526 0.62013 0.81142
v 0.18929 0.60297 0.81142
v 0.18929 0.38119 0.81142
v 0.12526 0.36403 0.81142
v 0.01437 0.42806 0.81142
v 0.06124 0.60297 0.81142
v 0.23615 0.42806 0.81142
v 0.23615 0.55610 0.81142
v 0.25331 0.49208 0.81142
v 0.06124 0.38119 0.81142
v 0.12526 0.39207 0.84162
v 0.12526 0.43992 0.86059
v 0.09918 0.44691 0.86059
v 0.07526 0.40547 0.84162
v 0.12526 0.59209 0.84162
v 0.17527 0.57869 0.84162
v 0.17527 0.40547 0.84162
v 0.03865 0.44207 0.84162
v 0.07526 0.57869 0.84162
v 0.21188 0.44207 0.84162
v 0.21188 0.54209 0.84162
v 0.22528 0.49208 0.84162
v 0.17043 0.51816 0.86059
v 0.15134 0.53725 0.86059
v 0.12526 0.54424 0.86059
v 0.09918 0.53725 0.86059
v 0.08009 0.51816 0.86059
v 0.07310 0.49208 0.86059
v 0.08009 0.46600 0.86059
v 0.15134 0.44691 0.86059
v 0.17043 0.46600 0.86059
v 0.17742 0.49208 0.86059
v -0.27469 0.57835 0.68640
v -0.23015 0.55356 -2.60000
v -0.24662 0.49208 -2.60000
v -0.29781 0.49208 0.68640
v -0.06218 0.59857 -2.60000
v -0.01717 0.55356 -2.60000
v -0.03181 0.54511 -2.59839
v -0.07063 0.58393 -2.59839
v -0.12526 0.66463 0.68640
v -0.12366 0.61504 -2.60000
v -0.18514 0.59857 -2.60000
v -0.21153 0.64151 0.68640
v -0.21153 0.34265 0.68640
v -0.18514 0.38559 -2.60000
v -0.12366 0.36912 -2.60000
v -0.12526 0.31953 0.68640
v 0.02417 0.40581 0.68640
v -0.01717 0.43060 -2.60000
v -0.00070 0.49208 -2.60000
v 0.04728 0.49208 0.68640
v -0.03899 0.64151 0.68640
v -0.27469 0.40581 0.68640
v -0.23015 0.43060 -2.60000
v -0.03899 0.34265 0.68640
v -0.06218 0.38559 -2.60000
v 0.02417 0.57835 0.68640
v -0.04632 0.55907 -1.93096
v -0.07968 0.59244 -1.93096
v -0.22972 0.49208 -2.59839
v -0.21551 0.43905 -2.59839
v -0.17669 0.58393 -2.59839
v -0.21551 0.54511 -2.59839
v -0.12366 0.38602 -2.59839
v -0.07063 0.40023 -2.59839
v -0.01760 0.49208 -2.59839
v -0.12366 0.59814 -2.59839
v -0.17669 0.40023 -2.59839
v -0.03181 0.43905 -2.59839
v -0.21642 0.51349 -1.93096
v -0.20421 0.55907 -1.93096
v -0.17084 0.59244 -1.93096
v -0.12526 0.60465 -1.93096
v -0.03410 0.51349 -1.93096
v -0.04632 0.46791 -1.93096
v -0.07968 0.43455 -1.93096
v -0.12526 0.42233 -1.93096
v -0.17084 0.43455 -1.93096
v -0.20421 0.46791 -1.93096
v -0.19371 0.37353 0.68640
v -0.24381 0.42363 0.68640
v -0.26215 0.49208 0.68640
v -0.24381 0.56053 0.68640
v -0.00671 0.42363 0.68640
v -0.05682 0.37353 0.68640
v -0.05682 0.61063 0.68640
v -0.00671 0.56053 0.68640
v -0.19371 0.61063 0.68640
v -0.12526 0.35519 0.68640
v 0.01163 0.49208 0.68640
v -0.12526 0.62897 0.68640
v -0.19371 0.61063 0.77068
v -0.12526 0.62897 0.77068
v 0.01163 0.49208 0.77068
v -0.00671 0.56053 0.77068
v -0.01437 0.55610 0.81142
v 0.00278 0.49208 0.81142
v -0.12526 0.35519 0.77068
v -0.19371 0.37353 0.77068
v -0.00671 0.42363 0.77068
v -0.05682 0.61063 0.77068
v -0.24381 0.42363 0.77068
v -0.26215 0.49208 0.77068
v -0.24381 0.56053 0.77068
v -0.05682 0.37353 0.77068
v -0.03865 0.54209 0.84162
v -0.02525 0.49208 0.84162
v -0.18929 0.60297 0.81142
v -0.12526 0.62013 0.81142
v -0.12526 0.36403 0.81142
v -0.18928 0.38119 0.81142
v -0.01437 0.42806 0.81142
v -0.06124 0.60297 0.81142
v -0.23615 0.42806 0.81142
v -0.25331 0.49208 0.81142
v -0.23615 0.55610 0.81142
v -0.06124 0.38119 0.81142
v -0.12526 0.39207 0.84162
v -0.07526 0.40547 0.84162
v -0.09918 0.44691 0.86059
v -0.12526 0.43992 0.86059
v -0.17527 0.57869 0.84162
v -0.12526 0.59209 0.84162
v -0.17527 0.40547 0.84162
v -0.03865 0.44207 0.84162
v -0.07526 0.57869 0.84162
v -0.21188 0.44207 0.84162
v -0.22528 0.49208 0.84162
v -0.21188 0.54209 0.84162
v -0.17043 0.51816 0.86059
v -0.17742 0.49208 0.86059
v -0.17043 0.46600 0.86059
v -0.15134 0.44691 0.86059
v -0.08009 0.46600 0.86059
v -0.07310 0.49208 0.86059
v -0.08009 0.51816 0.86059
v -0.09918 0.53725 0.86059
v -0.12526 0.54424 0.86059
v -0.15134 0.53725 0.86059
v 0.03061 0.62554 1.26823
v -0.00000 0.62554 1.26823
v -0.00000 0.65891 1.33957
v 0.03061 0.65891 1.33957
v -0.00000 0.51522 1.27418
v 0.03061 0.51522 1.27418
v 0.03061 0.56795 1.35207
v -0.00000 0.56795 1.35207
v 0.03061 0.60262 1.11942
v -0.00000 0.60262 1.11942
v -0.00000 0.71914 1.40506
v 0.03061 0.71914 1.40506
v 0.03061 0.62303 1.39967
v -0.00000 0.62303 1.39967
v -0.00000 0.70345 1.42994
v 0.03061 0.70345 1.42994
v -0.03061 0.62554 1.26823
v -0.03061 0.65891 1.33957
v -0.03061 0.56795 1.35207
v -0.03061 0.51522 1.27418
v -0.03061 0.60262 1.11942
v -0.03061 0.71914 1.40506
v -0.03061 0.62303 1.39967
v -0.03061 0.70345 1.42994
v -0.04278 0.02003 1.32318
v -0.04219 -0.00771 1.42460
v 0.04219 -0.00771 1.42460
v 0.04278 0.02003 1.32318
v -0.04233 -0.09798 1.35256
v -0.04215 -0.15410 1.35957
v -0.04247 -0.16579 1.40187
v -0.04150 -0.11183 1.42469
v 0.04150 -0.11183 1.42469
v 0.04272 -0.00100 1.51347
v 0.04256 -0.07347 1.51297
v 0.04260 -0.10502 1.48331
v 0.04233 -0.09797 1.35256
v -0.04226 -0.20885 1.37957
v -0.04242 -0.25258 1.34826
v 0.04242 -0.25258 1.34826
v 0.04226 -0.20885 1.37957
v 0.04215 -0.15410 1.35957
v 0.04247 -0.16579 1.40187
v 0.04235 -0.25401 1.34276
v 0.04229 -0.24913 1.33230
v 0.04230 -0.24594 1.33124
v 0.04189 -0.20508 1.35139
v -0.04230 -0.24594 1.33124
v -0.04189 -0.20508 1.35139
v -0.04229 -0.24913 1.33230
v -0.04235 -0.25401 1.34276
v -0.04260 -0.10502 1.48331
v -0.04256 -0.07347 1.51297
v -0.04272 -0.00100 1.51347
v 0.12503 -0.20527 1.96938
v 0.12503 -0.01750 2.21870
v 0.12503 -0.26345 2.40127
v 0.12503 -0.39153 2.10798
v -0.00000 -0.11895 1.75696
v 0.08563 -0.11895 1.75696
v 0.08563 -0.24707 1.91388
v 0.00000 -0.24707 1.91388
v 0.12503 0.02015 1.64086
v 0.12503 0.14255 1.63584
v 0.12503 0.36850 1.62691
v 0.12503 0.22782 1.95968
v 0.12503 -0.05784 1.78882
v -0.00000 -0.04820 1.62552
v 0.08563 -0.04820 1.62552
v 0.08990 -0.69738 2.14063
v 0.08563 -0.42008 2.04261
v 0.13454 -0.65851 2.21194
v 0.08563 0.44207 1.63688
v 0.08563 0.28961 1.99190
v 0.08563 0.53068 1.43958
v 0.08563 0.48456 1.54229
v 0.12503 0.41054 1.53329
v 0.12503 0.45712 1.42956
v 0.08563 -0.03132 1.47957
v 0.12503 0.03783 1.48798
v 0.08563 0.02416 2.27400
v 0.08563 -0.23501 2.46639
v 0.13454 -0.49264 2.52912
v 0.00000 -0.42008 2.04261
v 0.00000 -0.69738 2.14063
v 0.07918 -0.51097 2.58780
v 0.08869 -0.57681 2.51879
v 0.08990 -0.45400 2.60000
v 0.08869 -0.68883 2.31328
v 0.07914 -0.71914 2.20591
v 0.00000 -0.51097 2.58780
v 0.00000 -0.45400 2.60000
v 0.00000 -0.57681 2.51879
v 0.08563 0.03052 0.89881
v 0.12503 0.10053 0.90131
v 0.14565 0.08783 0.90131
v 0.09975 0.01273 0.89881
v 0.12503 0.55511 0.89629
v 0.08563 0.62926 0.89255
v 0.09975 0.65501 0.89255
v 0.14565 0.57547 0.89629
v 0.12503 0.12212 1.49508
v 0.12503 0.27162 1.52184
v -0.00000 0.03052 0.89881
v -0.00000 0.01273 0.89881
v -0.00000 0.62926 0.89255
v -0.00000 0.65501 0.89255
v 0.00000 -0.68883 2.31328
v 0.00000 -0.71914 2.20591
v 0.00000 -0.23501 2.46639
v -0.00000 0.53068 1.43958
v -0.00000 0.48155 1.54898
v -0.00000 0.02416 2.27400
v -0.00000 0.44207 1.63688
v -0.00000 0.28961 1.99190
v 0.08563 -0.01590 1.34626
v -0.00000 -0.03067 1.47400
v -0.00000 -0.01590 1.34626
v 0.12503 0.05244 1.36165
v -0.12503 -0.20527 1.96938
v -0.12503 -0.39153 2.10798
v -0.12503 -0.26345 2.40127
v -0.12503 -0.01750 2.21870
v -0.08563 -0.24707 1.91388
v -0.08563 -0.11895 1.75696
v -0.12503 0.02015 1.64086
v -0.12503 -0.05784 1.78882
v -0.12503 0.22782 1.95968
v -0.12503 0.36850 1.62691
v -0.12503 0.14255 1.63584
v -0.08563 -0.04820 1.62552
v -0.08990 -0.69738 2.14063
v -0.13454 -0.65851 2.21194
v -0.08563 -0.42008 2.04261
v -0.08563 0.28961 1.99190
v -0.08563 0.44207 1.63688
v -0.08563 0.53068 1.43958
v -0.12503 0.45712 1.42956
v -0.12503 0.41054 1.53329
v -0.08563 0.48456 1.54229
v -0.12503 0.03783 1.48798
v -0.08563 -0.03132 1.47957
v -0.08563 0.02416 2.27400
v -0.08563 -0.23501 2.46639
v -0.13454 -0.49264 2.52912
v -0.07918 -0.51097 2.58780
v -0.08990 -0.45400 2.60000
v -0.08869 -0.57681 2.51879
v -0.08869 -0.68883 2.31328
v -0.07914 -0.71914 2.20591
v -0.08563 0.03052 0.89881
v -0.09975 0.01273 0.89881
v -0.14565 0.08783 0.90131
v -0.12503 0.10053 0.90131
v -0.12503 0.55511 0.89629
v -0.14565 0.57547 0.89629
v -0.09975 0.65501 0.89255
v -0.08563 0.62926 0.89255
v -0.12503 0.12212 1.49508
v -0.12503 0.27162 1.52184
v -0.08563 -0.01590 1.34626
v -0.12503 0.05244 1.36165
v 0.14565 0.45314 1.41377
v 0.09975 0.55272 1.42150
v 0.14565 0.06034 1.34845
v 0.14565 0.24450 1.51855
v 0.14565 0.13350 1.49647
v 0.09975 -0.03707 1.33076
v -0.00000 0.55272 1.42150
v 0.14565 0.14734 1.60929
v -0.00000 -0.03707 1.33076
v -0.09975 0.55272 1.42150
v -0.14565 0.45314 1.41377
v -0.14565 0.06034 1.34845
v -0.14565 0.13350 1.49647
v -0.14565 0.24450 1.51855
v -0.09975 -0.03707 1.33076
v -0.14565 0.14734 1.60929
v -0.18342 0.10286 -0.18570
v -0.23016 0.40342 -0.18570
v -0.19281 0.40342 -2.12710
v -0.18623 0.38120 -2.12710
v -0.16186 0.29036 -2.04529
v -0.12578 0.29691 -2.12710
v 0.12598 0.29691 -2.12710
v 0.11048 0.23997 -2.07582
v -0.11051 0.23997 -2.07582
v 0.23016 0.40112 -0.18570
v 0.18347 0.10284 -0.18570
v 0.16204 0.29019 -2.04525
v 0.18678 0.38107 -2.12710
v 0.19281 0.40112 -2.12710
v 0.15849 0.32156 -2.12710
v -0.15818 0.32160 -2.12710
v 0.13188 0.04401 -0.18570
v 0.16455 0.06124 -0.18570
v -0.16454 0.06124 -0.18570
v -0.13191 0.04401 -0.18570
v -0.14024 0.25473 -2.06688
v 0.14029 0.25468 -2.06687
v 0.05546 -0.02558 1.61998
v 0.05559 -0.02123 1.54354
v -0.05559 -0.02123 1.54354
v -0.05546 -0.02558 1.61998
v -0.05291 -0.16259 1.60524
v -0.04706 -0.15381 1.54932
v -0.04012 -0.20851 1.52749
v -0.04576 -0.20814 1.58000
v 0.04706 -0.15381 1.54932
v 0.05291 -0.16259 1.60524
v 0.04012 -0.20851 1.52749
v 0.04576 -0.20814 1.58000
v 0.03559 -0.28301 1.51524
v 0.03067 -0.25172 1.49124
v -0.03559 -0.28301 1.51524
v -0.03067 -0.25172 1.49124
v -0.02445 -0.27620 1.41529
v -0.02489 -0.31686 1.42158
v 0.02445 -0.27620 1.41529
v 0.02447 -0.27679 1.30924
v -0.02447 -0.27679 1.30924
v 0.02489 -0.31686 1.42158
v 0.02457 -0.31233 1.30643
v 0.02469 -0.26577 1.11221
v 0.02421 -0.23748 1.11433
v -0.02457 -0.31233 1.30643
v -0.02469 -0.26577 1.11221
v -0.02421 -0.23748 1.11433
v -0.02430 -0.20234 1.06729
v -0.02506 -0.22243 1.04468
v 0.02430 -0.20234 1.06729
v 0.02506 -0.22243 1.04468
v 0.03729 -0.12322 1.00554
v 0.03222 -0.13245 1.03801
v 0.05209 -0.04082 0.97485
v 0.04598 -0.05255 1.03044
v -0.03729 -0.12322 1.00554
v -0.03222 -0.13245 1.03801
v -0.05209 -0.04082 0.97485
v -0.04598 -0.05255 1.03044
v -0.05261 -0.00271 1.06063
v -0.05499 0.01332 0.95808
v 0.05261 -0.00271 1.06063
v 0.05499 0.01332 0.95808
v 0.05562 0.06312 0.95783
v 0.05559 0.04563 1.07319
v -0.05562 0.06312 0.95783
v -0.05559 0.04563 1.07319
v 0.13156 0.07177 -0.20551
v -0.13156 0.07177 -0.20551
v -0.17376 0.13730 -0.20551
v -0.17376 0.39568 -0.20551
v 0.17376 0.39360 -0.20551
v 0.17376 0.13730 -0.20551
v 0.13156 -0.00350 0.69132
v -0.13156 -0.00350 0.69132
v -0.17376 0.55221 0.84155
v -0.17376 0.53411 0.94664
v -0.09558 0.65646 0.94664
v -0.09558 0.67480 0.84155
v 0.17376 0.06203 0.69132
v -0.13156 -0.01611 0.84155
v -0.13156 -0.01372 0.94664
v -0.17376 0.07688 0.94664
v -0.17376 0.04942 0.84155
v -0.17376 0.06203 0.69132
v 0.13156 -0.01372 0.94664
v 0.13156 -0.01611 0.84155
v 0.17376 0.04942 0.84155
v 0.17376 0.07688 0.94664
v -0.17376 0.55432 0.69132
v -0.09558 0.67692 0.69132
v 0.17376 0.53411 0.94664
v 0.17376 0.55221 0.84155
v 0.09558 0.67480 0.84155
v 0.09558 0.65646 0.94664
v -0.17376 0.32683 0.94664
v -0.17376 0.34779 0.84155
v 0.17376 0.32548 0.94664
v 0.17376 0.34230 0.84155
v 0.17376 0.34966 0.69132
v 0.17376 0.55432 0.69132
v -0.17376 0.35466 0.69132
v 0.09558 0.67692 0.69132
o Body
usemtl PinkWhite
vt 0.57200 0.48196
vt 0.57200 0.41007
vt -2.16667 0.41007
f 1/1 2/2 3/3
vt 0.57200 0.48196
vt -2.16667 0.41007
vt -2.16667 0.46130
f 1/4 3/5 4/6
vt 0.05182 0.49881
vt 0.05886 0.48661
vt 0.02651 0.45426
f 5/7 6/8 7/9
vt 0.05182 0.49881
vt 0.02651 0.45426
vt 0.01431 0.46130
f 5/10 7/11 8/12
vt 0.10438 0.57200
vt 0.17628 0.57200
vt 0.15428 -2.16667
f 9/13 10/14 11/15
vt 0.10438 0.57200
vt 0.15428 -2.16667
vt 0.10305 -2.16667
f 9/16 11/17 12/18
vt 0.17628 0.57200
vt 0.10438 0.57200
vt 0.10305 -2.16667
f 13/19 14/20 15/21
vt 0.17628 0.57200
vt 0.10305 -2.16667
vt 0.15428 -2.16667
f 13/22 15/23 16/24
vt 0.57200 0.33818
vt 0.57200 0.41007
vt -2.16667 0.41007
f 17/25 18/26 19/27
vt 0.57200 0.33818
vt -2.16667 0.41007
vt -2.16667 0.35883
f 17/28 19/29 20/30
vt 0.03249 0.57200
vt 0.10438 0.57200
vt 0.10305 -2.16667
f 21/31 9/32 12/33
vt 0.03249 0.57200
vt 0.10305 -2.16667
vt 0.05182 -2.16667
f 21/34 12/35 5/36
vt 0.57200 0.33818
vt 0.57200 0.28554
vt -2.16667 0.32133
f 22/37 13/38 16/39
vt 0.57200 0.33818
vt -2.16667 0.32133
vt -2.16667 0.35883
f 22/40 16/41 23/42
vt 0.57200 0.28554
vt 0.57200 0.33818
vt -2.16667 0.35883
f 24/43 17/44 20/45
vt 0.03249 0.57200
vt 0.01431 -2.16667
vt 0.05182 -2.16667
f 24/46 20/47 25/48
vt 0.57200 0.48196
vt 0.57200 0.53459
vt -2.16667 0.49881
f 26/49 21/50 5/51
vt 0.57200 0.48196
vt -2.16667 0.49881
vt -2.16667 0.46130
f 26/52 5/53 8/54
vt 0.57200 0.41007
vt 0.57200 0.33818
vt -2.16667 0.35883
f 2/55 22/56 23/57
vt 0.57200 0.41007
vt -2.16667 0.35883
vt -2.16667 0.41007
f 2/58 23/59 3/60
vt 0.57200 0.53459
vt 0.57200 0.48196
vt -2.16667 0.46130
f 10/61 1/62 4/63
vt 0.57200 0.53459
vt -2.16667 0.46130
vt -2.16667 0.49881
f 10/64 4/65 11/66
vt 0.10438 0.57200
vt 0.03249 0.57200
vt 0.05182 -2.16667
f 14/67 24/68 25/69
vt 0.10438 0.57200
vt 0.05182 -2.16667
vt 0.10305 -2.16667
f 14/70 25/71 15/72
vt 0.57200 0.41007
vt 0.57200 0.48196
vt -2.16667 0.46130
f 18/73 26/74 8/75
vt 0.57200 0.41007
vt -2.16667 0.46130
vt -2.16667 0.41007
f 18/76 8/77 19/78
vt -2.16533 0.48661
vt -1.60913 0.49370
vt -1.60913 0.46589
f 6/79 27/80 28/81
vt 0.05886 -2.16533
vt 0.03860 -1.60913
vt 0.02651 -2.16533
f 6/82 28/83 7/84
vt 0.19178 0.35883
vt 0.17959 0.36588
vt 0.19143 0.41007
f 23/85 29/86 30/87
vt 0.19178 0.35883
vt 0.19143 0.41007
vt 0.20552 0.41007
f 23/88 30/89 3/90
vt 0.19178 0.46130
vt 0.17959 0.45426
vt 0.14724 0.48661
f 4/91 31/92 32/93
vt 0.19178 0.46130
vt 0.14724 0.48661
vt 0.15428 0.49881
f 4/94 32/95 11/96
vt 0.05182 0.32133
vt 0.05886 0.33353
vt 0.10305 0.32168
f 25/97 33/98 34/99
vt 0.05182 0.32133
vt 0.10305 0.32168
vt 0.10305 0.30760
f 25/100 34/101 15/102
vt 0.01431 0.46130
vt 0.02651 0.45426
vt 0.01467 0.41007
f 8/103 7/104 35/105
vt 0.01431 0.46130
vt 0.01467 0.41007
vt 0.00058 0.41007
f 8/106 35/107 19/108
vt 0.15428 0.49881
vt 0.14724 0.48661
vt 0.10305 0.49845
f 11/109 32/110 36/111
vt 0.15428 0.49881
vt 0.10305 0.49845
vt 0.10305 0.51253
f 11/112 36/113 12/114
vt 0.10305 0.30760
vt 0.10305 0.32168
vt 0.14724 0.33353
f 15/115 34/116 37/117
vt 0.10305 0.30760
vt 0.14724 0.33353
vt 0.15428 0.32133
f 15/118 37/119 16/120
vt 0.00058 0.41007
vt 0.01467 0.41007
vt 0.02651 0.36588
f 19/121 35/122 38/123
vt 0.00058 0.41007
vt 0.02651 0.36588
vt 0.01431 0.35883
f 19/124 38/125 20/126
vt 0.10305 0.51253
vt 0.10305 0.49845
vt 0.05886 0.48661
f 12/127 36/128 6/129
vt 0.10305 0.51253
vt 0.05886 0.48661
vt 0.05182 0.49881
f 12/130 6/131 5/132
vt 0.15428 0.32133
vt 0.14724 0.33353
vt 0.17959 0.36588
f 16/133 37/134 29/135
vt 0.15428 0.32133
vt 0.17959 0.36588
vt 0.19178 0.35883
f 16/136 29/137 23/138
vt 0.20552 0.41007
vt 0.19143 0.41007
vt 0.17959 0.45426
f 3/139 30/140 31/141
vt 0.20552 0.41007
vt 0.17959 0.45426
vt 0.19178 0.46130
f 3/142 31/143 4/144
vt 0.01431 0.35883
vt 0.02651 0.36588
vt 0.05886 0.33353
f 20/145 38/146 33/147
vt 0.01431 0.35883
vt 0.05886 0.33353
vt 0.05182 0.32133
f 20/148 33/149 25/150
vt 0.18035 0.42791
vt 0.17018 0.38993
vt 0.14237 0.36213
f 39/151 40/152 41/153
vt 0.18035 0.42791
vt 0.14237 0.36213
vt 0.10438 0.35194
f 39/154 41/155 42/156
vt 0.18035 0.42791
vt 0.10438 0.35194
vt 0.06640 0.36213
f 39/157 42/158 43/159
vt 0.18035 0.42791
vt 0.06640 0.36213
vt 0.03860 0.38993
f 39/160 43/161 44/162
vt 0.18035 0.42791
vt 0.03860 0.38993
vt 0.02842 0.42791
f 39/163 44/164 45/165
vt 0.18035 0.42791
vt 0.02842 0.42791
vt 0.03860 0.46589
f 39/166 45/167 28/168
vt 0.18035 0.42791
vt 0.03860 0.46589
vt 0.06640 0.49370
f 39/169 28/170 27/171
vt 0.18035 0.42791
vt 0.06640 0.49370
vt 0.10438 0.50388
f 39/172 27/173 46/174
vt 0.18035 0.42791
vt 0.10438 0.50388
vt 0.14237 0.49370
f 39/175 46/176 47/177
vt 0.18035 0.42791
vt 0.14237 0.49370
vt 0.17018 0.46589
f 39/178 47/179 48/180
vt -2.16533 0.36588
vt -1.60913 0.38993
vt -1.60913 0.42791
f 29/181 40/182 39/183
vt -2.16533 0.36588
vt -1.60913 0.42791
vt -2.16533 0.41007
f 29/184 39/185 30/186
vt 0.17959 -2.16533
vt 0.17018 -1.60913
vt 0.14237 -1.60913
f 31/187 48/188 47/189
vt 0.17959 -2.16533
vt 0.14237 -1.60913
vt 0.14724 -2.16533
f 31/190 47/191 32/192
vt 0.05886 -2.16533
vt 0.06640 -1.60913
vt 0.10438 -1.60913
f 33/193 43/194 42/195
vt 0.05886 -2.16533
vt 0.10438 -1.60913
vt 0.10305 -2.16533
f 33/196 42/197 34/198
vt -2.16533 0.45426
vt -1.60913 0.46589
vt -1.60913 0.42791
f 7/199 28/200 45/201
vt -2.16533 0.45426
vt -1.60913 0.42791
vt -2.16533 0.41007
f 7/202 45/203 35/204
vt 0.14724 -2.16533
vt 0.14237 -1.60913
vt 0.10438 -1.60913
f 32/205 47/206 46/207
vt 0.14724 -2.16533
vt 0.10438 -1.60913
vt 0.10305 -2.16533
f 32/208 46/209 36/210
vt 0.10305 -2.16533
vt 0.10438 -1.60913
vt 0.14237 -1.60913
f 34/211 42/212 41/213
vt 0.10305 -2.16533
vt 0.14237 -1.60913
vt 0.14724 -2.16533
f 34/214 41/215 37/216
vt -2.16533 0.41007
vt -1.60913 0.42791
vt -1.60913 0.38993
f 35/217 45/218 44/219
vt -2.16533 0.41007
vt -1.60913 0.38993
vt -2.16533 0.36588
f 35/220 44/221 38/222
vt 0.10305 -2.16533
vt 0.10438 -1.60913
vt 0.06640 -1.60913
f 36/223 46/224 27/225
vt 0.10305 -2.16533
vt 0.06640 -1.60913
vt 0.05886 -2.16533
f 36/226 27/227 6/228
vt 0.14724 -2.16533
vt 0.14237 -1.60913
vt 0.17018 -1.60913
f 37/229 41/230 40/231
vt -2.16533 0.33353
vt -1.60913 0.38993
vt -2.16533 0.36588
f 37/232 40/233 29/234
vt -2.16533 0.41007
vt -1.60913 0.42791
vt -1.60913 0.46589
f 30/235 39/236 48/237
vt -2.16533 0.41007
vt -1.60913 0.46589
vt -2.16533 0.45426
f 30/238 48/239 31/240
vt 0.02651 -2.16533
vt 0.03860 -1.60913
vt 0.06640 -1.60913
f 38/241 44/242 43/243
vt -2.16533 0.36588
vt -1.60913 0.36213
vt -2.16533 0.33353
f 38/244 43/245 33/246
vt 0.22891 0.33818
vt 0.20317 0.35303
vt 0.16143 0.31127
f 22/247 49/248 50/249
vt 0.22891 0.33818
vt 0.16143 0.31127
vt 0.17628 0.28554
f 22/250 50/251 13/252
vt 0.22891 0.48196
vt 0.20317 0.46711
vt 0.21846 0.41007
f 1/253 51/254 52/255
vt 0.22891 0.48196
vt 0.21846 0.41007
vt 0.24818 0.41007
f 1/256 52/257 2/258
vt 0.03249 0.28554
vt 0.04735 0.31127
vt 0.00559 0.35303
f 24/259 53/260 54/261
vt 0.03249 0.28554
vt 0.00559 0.35303
vt -0.02014 0.33818
f 24/262 54/263 17/264
vt -0.02014 0.48196
vt 0.00559 0.46711
vt 0.04735 0.50886
f 26/265 55/266 56/267
vt -0.02014 0.48196
vt 0.04735 0.50886
vt 0.03249 0.53459
f 26/268 56/269 21/270
vt 0.24818 0.41007
vt 0.21846 0.41007
vt 0.20317 0.35303
f 2/271 52/272 49/273
vt 0.24818 0.41007
vt 0.20317 0.35303
vt 0.22891 0.33818
f 2/274 49/275 22/276
vt 0.17628 0.53459
vt 0.16143 0.50886
vt 0.20317 0.46711
f 10/277 57/278 51/279
vt 0.17628 0.53459
vt 0.20317 0.46711
vt 0.22891 0.48196
f 10/280 51/281 1/282
vt 0.10438 0.26627
vt 0.10438 0.29599
vt 0.04735 0.31127
f 14/283 58/284 53/285
vt 0.10438 0.26627
vt 0.04735 0.31127
vt 0.03249 0.28554
f 14/286 53/287 24/288
vt -0.03940 0.41007
vt -0.00969 0.41007
vt 0.00559 0.46711
f 18/289 59/290 55/291
vt -0.03940 0.41007
vt 0.00559 0.46711
vt -0.02014 0.48196
f 18/292 55/293 26/294
vt 0.10438 0.55386
vt 0.10438 0.52414
vt 0.16143 0.50886
f 9/295 60/296 57/297
vt 0.10438 0.55386
vt 0.16143 0.50886
vt 0.17628 0.53459
f 9/298 57/299 10/300
vt 0.17628 0.28554
vt 0.16143 0.31127
vt 0.10438 0.29599
f 13/301 50/302 58/303
vt 0.17628 0.28554
vt 0.10438 0.29599
vt 0.10438 0.26627
f 13/304 58/305 14/306
vt -0.02014 0.33818
vt 0.00559 0.35303
vt -0.00969 0.41007
f 17/307 54/308 59/309
vt -0.02014 0.33818
vt -0.00969 0.41007
vt -0.03940 0.41007
f 17/310 59/311 18/312
vt 0.03249 0.53459
vt 0.04735 0.50886
vt 0.10438 0.52414
f 21/313 56/314 60/315
vt 0.03249 0.53459
vt 0.10438 0.52414
vt 0.10438 0.55386
f 21/316 60/317 9/318
vt 0.10438 0.57200
vt 0.10438 0.64223
vt 0.16143 0.64223
f 60/319 61/320 62/321
vt 0.10438 0.57200
vt 0.16143 0.64223
vt 0.16143 0.57200
f 60/322 62/323 57/324
vt 0.64223 0.41007
vt 0.67618 0.41007
vt 0.67618 0.46342
f 63/325 64/326 65/327
vt 0.64223 0.41007
vt 0.67618 0.46342
vt 0.64223 0.46711
f 63/328 65/329 66/330
vt 0.16143 0.57200
vt 0.16143 0.64223
vt 0.10438 0.64223
f 50/331 67/332 68/333
vt 0.16143 0.57200
vt 0.10438 0.64223
vt 0.10438 0.57200
f 50/334 68/335 58/336
vt 0.57200 0.35303
vt 0.64223 0.35303
vt 0.64223 0.41007
f 54/337 69/338 63/339
vt 0.57200 0.35303
vt 0.64223 0.41007
vt 0.57200 0.41007
f 54/340 63/341 59/342
vt 0.04735 0.57200
vt 0.04735 0.64223
vt 0.10438 0.64223
f 56/343 70/344 61/345
vt 0.04735 0.57200
vt 0.10438 0.64223
vt 0.10438 0.57200
f 56/346 61/347 60/348
vt 0.57200 0.35303
vt 0.64223 0.35303
vt 0.64223 0.31127
f 49/349 71/350 67/351
vt 0.57200 0.35303
vt 0.64223 0.31127
vt 0.57200 0.31127
f 49/352 67/353 50/354
vt 0.57200 0.46711
vt 0.64223 0.46711
vt 0.64223 0.41007
f 51/355 72/356 73/357
vt 0.57200 0.46711
vt 0.64223 0.41007
vt 0.57200 0.41007
f 51/358 73/359 52/360
vt 0.04735 0.57200
vt 0.04735 0.64223
vt 0.00559 0.64223
f 53/361 74/362 69/363
vt 0.04735 0.57200
vt 0.00559 0.64223
vt 0.00559 0.57200
f 53/364 69/365 54/366
vt 0.00559 0.57200
vt 0.00559 0.64223
vt 0.04735 0.64223
f 55/367 66/368 70/369
vt 0.00559 0.57200
vt 0.04735 0.64223
vt 0.04735 0.57200
f 55/370 70/371 56/372
vt 0.57200 0.41007
vt 0.64223 0.41007
vt 0.64223 0.35303
f 52/373 73/374 71/375
vt 0.57200 0.41007
vt 0.64223 0.35303
vt 0.57200 0.35303
f 52/376 71/377 49/378
vt 0.57200 0.50886
vt 0.64223 0.50886
vt 0.64223 0.46711
f 57/379 62/380 72/381
vt 0.57200 0.50886
vt 0.64223 0.46711
vt 0.57200 0.46711
f 57/382 72/383 51/384
vt 0.10438 0.57200
vt 0.10438 0.64223
vt 0.04735 0.64223
f 58/385 68/386 74/387
vt 0.10438 0.57200
vt 0.04735 0.64223
vt 0.04735 0.57200
f 58/388 74/389 53/390
vt 0.57200 0.41007
vt 0.64223 0.41007
vt 0.64223 0.46711
f 59/391 63/392 66/393
vt 0.57200 0.41007
vt 0.64223 0.46711
vt 0.57200 0.46711
f 59/394 66/395 55/396
vt 0.67618 0.41007
vt 0.70135 0.41007
vt 0.70135 0.45174
f 64/397 75/398 76/399
vt 0.67618 0.41007
vt 0.70135 0.45174
vt 0.67618 0.46342
f 64/400 76/401 65/402
vt 0.10438 0.64223
vt 0.10438 0.67618
vt 0.15774 0.67618
f 61/403 77/404 78/405
vt 0.10438 0.64223
vt 0.15774 0.67618
vt 0.16143 0.64223
f 61/406 78/407 62/408
vt 0.16143 0.64223
vt 0.15774 0.67618
vt 0.10438 0.67618
f 67/409 79/410 80/411
vt 0.16143 0.64223
vt 0.10438 0.67618
vt 0.10438 0.64223
f 67/412 80/413 68/414
vt 0.64223 0.35303
vt 0.67618 0.35672
vt 0.67618 0.41007
f 69/415 81/416 64/417
vt 0.64223 0.35303
vt 0.67618 0.41007
vt 0.64223 0.41007
f 69/418 64/419 63/420
vt 0.04735 0.64223
vt 0.05103 0.67618
vt 0.10438 0.67618
f 70/421 82/422 77/423
vt 0.04735 0.64223
vt 0.10438 0.67618
vt 0.10438 0.64223
f 70/424 77/425 61/426
vt 0.64223 0.35303
vt 0.67618 0.35672
vt 0.67618 0.31766
f 71/427 83/428 79/429
vt 0.64223 0.35303
vt 0.67618 0.31766
vt 0.64223 0.31127
f 71/430 79/431 67/432
vt 0.64223 0.46711
vt 0.67618 0.46342
vt 0.67618 0.41007
f 72/433 84/434 85/435
vt 0.64223 0.46711
vt 0.67618 0.41007
vt 0.64223 0.41007
f 72/436 85/437 73/438
vt 0.64223 0.31127
vt 0.67618 0.31766
vt 0.67618 0.35672
f 74/439 86/440 81/441
vt 0.04735 0.64223
vt 0.01198 0.67618
vt 0.00559 0.64223
f 74/442 81/443 69/444
vt 0.00559 0.64223
vt 0.01198 0.67618
vt 0.05103 0.67618
f 66/445 65/446 82/447
vt 0.00559 0.64223
vt 0.05103 0.67618
vt 0.04735 0.64223
f 66/448 82/449 70/450
vt 0.64223 0.41007
vt 0.67618 0.41007
vt 0.67618 0.35672
f 73/451 85/452 83/453
vt 0.64223 0.41007
vt 0.67618 0.35672
vt 0.64223 0.35303
f 73/454 83/455 71/456
vt 0.64223 0.50886
vt 0.67618 0.50248
vt 0.67618 0.46342
f 62/457 78/458 84/459
vt 0.64223 0.50886
vt 0.67618 0.46342
vt 0.64223 0.46711
f 62/460 84/461 72/462
vt 0.10438 0.64223
vt 0.10438 0.67618
vt 0.05103 0.67618
f 68/463 80/464 86/465
vt 0.10438 0.64223
vt 0.05103 0.67618
vt 0.04735 0.64223
f 68/466 86/467 74/468
vt 0.10438 0.32672
vt 0.10438 0.36660
vt 0.08265 0.37243
f 87/469 88/470 89/471
vt 0.10438 0.32672
vt 0.08265 0.37243
vt 0.06272 0.33789
f 87/472 89/473 90/474
vt 0.10438 0.67618
vt 0.10438 0.70135
vt 0.14606 0.70135
f 77/475 91/476 92/477
vt 0.10438 0.67618
vt 0.14606 0.70135
vt 0.15774 0.67618
f 77/478 92/479 78/480
vt 0.15774 0.67618
vt 0.14606 0.70135
vt 0.10438 0.70135
f 79/481 93/482 87/483
vt 0.15774 0.67618
vt 0.10438 0.70135
vt 0.10438 0.67618
f 79/484 87/485 80/486
vt 0.67618 0.35672
vt 0.70135 0.36839
vt 0.70135 0.41007
f 81/487 94/488 75/489
vt 0.67618 0.35672
vt 0.70135 0.41007
vt 0.67618 0.41007
f 81/490 75/491 64/492
vt 0.05103 0.67618
vt 0.06272 0.70135
vt 0.10438 0.70135
f 82/493 95/494 91/495
vt 0.05103 0.67618
vt 0.10438 0.70135
vt 0.10438 0.67618
f 82/496 91/497 77/498
vt 0.19679 0.35672
vt 0.17657 0.36839
vt 0.14606 0.33789
f 83/499 96/500 93/501
vt 0.19679 0.35672
vt 0.14606 0.33789
vt 0.15774 0.31766
f 83/502 93/503 79/504
vt 0.67618 0.46342
vt 0.70135 0.45174
vt 0.70135 0.41007
f 84/505 97/506 98/507
vt 0.67618 0.46342
vt 0.70135 0.41007
vt 0.67618 0.41007
f 84/508 98/509 85/510
vt 0.05103 0.31766
vt 0.06272 0.33789
vt 0.03221 0.36839
f 86/511 90/512 94/513
vt 0.05103 0.31766
vt 0.03221 0.36839
vt 0.01198 0.35672
f 86/514 94/515 81/516
vt 0.01198 0.46342
vt 0.03221 0.45174
vt 0.06272 0.48224
f 65/517 76/518 95/519
vt 0.01198 0.46342
vt 0.06272 0.48224
vt 0.05103 0.50248
f 65/520 95/521 82/522
vt 0.67618 0.41007
vt 0.70135 0.41007
vt 0.70135 0.36839
f 85/523 98/524 96/525
vt 0.67618 0.41007
vt 0.70135 0.36839
vt 0.67618 0.35672
f 85/526 96/527 83/528
vt 0.15774 0.50248
vt 0.14606 0.48224
vt 0.17657 0.45174
f 78/529 92/530 97/531
vt 0.15774 0.50248
vt 0.17657 0.45174
vt 0.19679 0.46342
f 78/532 97/533 84/534
vt 0.10438 0.67618
vt 0.10438 0.70135
vt 0.06272 0.70135
f 80/535 87/536 90/537
vt 0.10438 0.67618
vt 0.06272 0.70135
vt 0.05103 0.67618
f 80/538 90/539 86/540
vt 0.14203 0.43180
vt 0.12612 0.44771
vt 0.10438 0.45353
f 99/541 100/542 101/543
vt 0.14203 0.43180
vt 0.10438 0.45353
vt 0.08265 0.44771
f 99/544 101/545 102/546
vt 0.14203 0.43180
vt 0.08265 0.44771
vt 0.06674 0.43180
f 99/547 102/548 103/549
vt 0.14203 0.43180
vt 0.06674 0.43180
vt 0.06092 0.41007
f 99/550 103/551 104/552
vt 0.14203 0.43180
vt 0.06092 0.41007
vt 0.06674 0.38833
f 99/553 104/554 105/555
vt 0.14203 0.43180
vt 0.06674 0.38833
vt 0.08265 0.37243
f 99/556 105/557 89/558
vt 0.14203 0.43180
vt 0.08265 0.37243
vt 0.10438 0.36660
f 99/559 89/560 88/561
vt 0.14203 0.43180
vt 0.10438 0.36660
vt 0.12612 0.37243
f 99/562 88/563 106/564
vt 0.14203 0.43180
vt 0.12612 0.37243
vt 0.14203 0.38833
f 99/565 106/566 107/567
vt 0.14203 0.43180
vt 0.14203 0.38833
vt 0.14785 0.41007
f 99/568 107/569 108/570
vt 0.02104 0.41007
vt 0.06092 0.41007
vt 0.06674 0.43180
f 75/571 104/572 103/573
vt 0.02104 0.41007
vt 0.06674 0.43180
vt 0.03221 0.45174
f 75/574 103/575 76/576
vt 0.10438 0.49341
vt 0.10438 0.45353
vt 0.12612 0.44771
f 91/577 101/578 100/579
vt 0.10438 0.49341
vt 0.12612 0.44771
vt 0.14606 0.48224
f 91/580 100/581 92/582
vt 0.14606 0.33789
vt 0.12612 0.37243
vt 0.10438 0.36660
f 93/583 106/584 88/585
vt 0.14606 0.33789
vt 0.10438 0.36660
vt 0.10438 0.32672
f 93/586 88/587 87/588
vt 0.03221 0.36839
vt 0.06674 0.38833
vt 0.06092 0.41007
f 94/589 105/590 104/591
vt 0.03221 0.36839
vt 0.06092 0.41007
vt 0.02104 0.41007
f 94/592 104/593 75/594
vt 0.06272 0.48224
vt 0.08265 0.44771
vt 0.10438 0.45353
f 95/595 102/596 101/597
vt 0.06272 0.48224
vt 0.10438 0.45353
vt 0.10438 0.49341
f 95/598 101/599 91/600
vt 0.17657 0.36839
vt 0.14203 0.38833
vt 0.12612 0.37243
f 96/601 107/602 106/603
vt 0.17657 0.36839
vt 0.12612 0.37243
vt 0.14606 0.33789
f 96/604 106/605 93/606
vt 0.17657 0.45174
vt 0.14203 0.43180
vt 0.14785 0.41007
f 97/607 99/608 108/609
vt 0.17657 0.45174
vt 0.14785 0.41007
vt 0.18773 0.41007
f 97/610 108/611 98/612
vt 0.06272 0.33789
vt 0.08265 0.37243
vt 0.06674 0.38833
f 90/613 89/614 105/615
vt 0.06272 0.33789
vt 0.06674 0.38833
vt 0.03221 0.36839
f 90/616 105/617 94/618
vt 0.03221 0.45174
vt 0.06674 0.43180
vt 0.08265 0.44771
f 76/619 103/620 102/621
vt 0.03221 0.45174
vt 0.08265 0.44771
vt 0.06272 0.48224
f 76/622 102/623 95/624
vt 0.18773 0.41007
vt 0.14785 0.41007
vt 0.14203 0.38833
f 98/625 108/626 107/627
vt 0.18773 0.41007
vt 0.14203 0.38833
vt 0.17657 0.36839
f 98/628 107/629 96/630
vt 0.14606 0.48224
vt 0.12612 0.44771
vt 0.14203 0.43180
f 92/631 100/632 99/633
vt 0.14606 0.48224
vt 0.14203 0.43180
vt 0.17657 0.45174
f 92/634 99/635 97/636
vt 0.57200 0.48196
vt -2.16667 0.46130
vt -2.16667 0.41007
f 109/637 110/638 111/639
vt 0.57200 0.48196
vt -2.16667 0.41007
vt 0.57200 0.41007
f 109/640 111/641 112/642
vt -0.05182 0.49881
vt -0.01431 0.46130
vt -0.02651 0.45426
f 113/643 114/644 115/645
vt -0.05182 0.49881
vt -0.02651 0.45426
vt -0.05886 0.48661
f 113/646 115/647 116/648
vt -0.10438 0.57200
vt -0.10305 -2.16667
vt -0.15428 -2.16667
f 117/649 118/650 119/651
vt -0.10438 0.57200
vt -0.15428 -2.16667
vt -0.17628 0.57200
f 117/652 119/653 120/654
vt -0.17628 0.57200
vt -0.15428 -2.16667
vt -0.10305 -2.16667
f 121/655 122/656 123/657
vt -0.17628 0.57200
vt -0.10305 -2.16667
vt -0.10438 0.57200
f 121/658 123/659 124/660
vt 0.57200 0.33818
vt -2.16667 0.35883
vt -2.16667 0.41007
f 125/661 126/662 127/663
vt 0.57200 0.33818
vt -2.16667 0.41007
vt 0.57200 0.41007
f 125/664 127/665 128/666
vt -0.03249 0.57200
vt -0.05182 -2.16667
vt -0.10305 -2.16667
f 129/667 113/668 118/669
vt -0.03249 0.57200
vt -0.10305 -2.16667
vt -0.10438 0.57200
f 129/670 118/671 117/672
vt 0.57200 0.33818
vt -2.16667 0.35883
vt -2.16667 0.32133
f 130/673 131/674 122/675
vt 0.57200 0.33818
vt -2.16667 0.32133
vt 0.57200 0.28554
f 130/676 122/677 121/678
vt -0.03249 0.57200
vt -0.05182 -2.16667
vt -0.01431 -2.16667
f 132/679 133/680 126/681
vt 0.57200 0.28554
vt -2.16667 0.35883
vt 0.57200 0.33818
f 132/682 126/683 125/684
vt 0.57200 0.48196
vt -2.16667 0.46130
vt -2.16667 0.49881
f 134/685 114/686 113/687
vt 0.57200 0.48196
vt -2.16667 0.49881
vt 0.57200 0.53459
f 134/688 113/689 129/690
vt 0.57200 0.41007
vt -2.16667 0.41007
vt -2.16667 0.35883
f 112/691 111/692 131/693
vt 0.57200 0.41007
vt -2.16667 0.35883
vt 0.57200 0.33818
f 112/694 131/695 130/696
vt -0.17628 0.57200
vt -0.15428 -2.16667
vt -0.19179 -2.16667
f 120/697 119/698 110/699
vt 0.57200 0.53459
vt -2.16667 0.46130
vt 0.57200 0.48196
f 120/700 110/701 109/702
vt -0.10438 0.57200
vt -0.10305 -2.16667
vt -0.05182 -2.16667
f 124/703 123/704 133/705
vt -0.10438 0.57200
vt -0.05182 -2.16667
vt -0.03249 0.57200
f 124/706 133/707 132/708
vt 0.57200 0.41007
vt -2.16667 0.41007
vt -2.16667 0.46130
f 128/709 127/710 114/711
vt 0.57200 0.41007
vt -2.16667 0.46130
vt 0.57200 0.48196
f 128/712 114/713 134/714
vt -0.05886 -2.16533
vt -0.02651 -2.16533
vt -0.03860 -1.60913
f 116/715 115/716 135/717
vt -2.16533 0.48661
vt -1.60913 0.46589
vt -1.60913 0.49370
f 116/718 135/719 136/720
vt -0.19179 0.35883
vt -0.20552 0.41007
vt -0.19143 0.41007
f 131/721 111/722 137/723
vt -0.19179 0.35883
vt -0.19143 0.41007
vt -0.17959 0.36588
f 131/724 137/725 138/726
vt -0.19179 0.46130
vt -0.15428 0.49881
vt -0.14724 0.48661
f 110/727 119/728 139/729
vt -0.19179 0.46130
vt -0.14724 0.48661
vt -0.17959 0.45426
f 110/730 139/731 140/732
vt -0.05182 0.32133
vt -0.10305 0.30760
vt -0.10305 0.32168
f 133/733 123/734 141/735
vt -0.05182 0.32133
vt -0.10305 0.32168
vt -0.05886 0.33353
f 133/736 141/737 142/738
vt -0.01431 0.46130
vt -0.00058 0.41007
vt -0.01467 0.41007
f 114/739 127/740 143/741
vt -0.01431 0.46130
vt -0.01467 0.41007
vt -0.02651 0.45426
f 114/742 143/743 115/744
vt -0.15428 0.49881
vt -0.10305 0.51253
vt -0.10305 0.49845
f 119/745 118/746 144/747
vt -0.15428 0.49881
vt -0.10305 0.49845
vt -0.14724 0.48661
f 119/748 144/749 139/750
vt -0.10305 0.30760
vt -0.15428 0.32133
vt -0.14724 0.33353
f 123/751 122/752 145/753
vt -0.10305 0.30760
vt -0.14724 0.33353
vt -0.10305 0.32168
f 123/754 145/755 141/756
vt -0.00058 0.41007
vt -0.01431 0.35883
vt -0.02651 0.36588
f 127/757 126/758 146/759
vt -0.00058 0.41007
vt -0.02651 0.36588
vt -0.01467 0.41007
f 127/760 146/761 143/762
vt -0.10305 0.51253
vt -0.05182 0.49881
vt -0.05886 0.48661
f 118/763 113/764 116/765
vt -0.10305 0.51253
vt -0.05886 0.48661
vt -0.10305 0.49845
f 118/766 116/767 144/768
vt -0.15428 0.32133
vt -0.19179 0.35883
vt -0.17959 0.36588
f 122/769 131/770 138/771
vt -0.15428 0.32133
vt -0.17959 0.36588
vt -0.14724 0.33353
f 122/772 138/773 145/774
vt -0.20552 0.41007
vt -0.19179 0.46130
vt -0.17959 0.45426
f 111/775 110/776 140/777
vt -0.20552 0.41007
vt -0.17959 0.45426
vt -0.19143 0.41007
f 111/778 140/779 137/780
vt -0.01431 0.35883
vt -0.05182 0.32133
vt -0.05886 0.33353
f 126/781 133/782 142/783
vt -0.01431 0.35883
vt -0.05886 0.33353
vt -0.02651 0.36588
f 126/784 142/785 146/786
vt -0.18035 0.42791
vt -0.17018 0.46589
vt -0.14237 0.49370
f 147/787 148/788 149/789
vt -0.18035 0.42791
vt -0.14237 0.49370
vt -0.10438 0.50388
f 147/790 149/791 150/792
vt -0.18035 0.42791
vt -0.10438 0.50388
vt -0.06640 0.49370
f 147/793 150/794 136/795
vt -0.18035 0.42791
vt -0.06640 0.49370
vt -0.03860 0.46589
f 147/796 136/797 135/798
vt -0.18035 0.42791
vt -0.03860 0.46589
vt -0.02842 0.42791
f 147/799 135/800 151/801
vt -0.18035 0.42791
vt -0.02842 0.42791
vt -0.03860 0.38993
f 147/802 151/803 152/804
vt -0.18035 0.42791
vt -0.03860 0.38993
vt -0.06640 0.36213
f 147/805 152/806 153/807
vt -0.18035 0.42791
vt -0.06640 0.36213
vt -0.10438 0.35194
f 147/808 153/809 154/810
vt -0.18035 0.42791
vt -0.10438 0.35194
vt -0.14237 0.36213
f 147/811 154/812 155/813
vt -0.18035 0.42791
vt -0.14237 0.36213
vt -0.17018 0.38993
f 147/814 155/815 156/816
vt -2.16533 0.36588
vt -2.16533 0.41007
vt -1.60913 0.42791
f 138/817 137/818 147/819
vt -2.16533 0.36588
vt -1.60913 0.42791
vt -1.60913 0.38993
f 138/820 147/821 156/822
vt -0.17959 -2.16533
vt -0.14724 -2.16533
vt -0.14237 -1.60913
f 140/823 139/824 149/825
vt -0.17959 -2.16533
vt -0.14237 -1.60913
vt -0.17018 -1.60913
f 140/826 149/827 148/828
vt -0.05886 -2.16533
vt -0.10305 -2.16533
vt -0.10438 -1.60913
f 142/829 141/830 154/831
vt -0.05886 -2.16533
vt -0.10438 -1.60913
vt -0.06640 -1.60913
f 142/832 154/833 153/834
vt -2.16533 0.45426
vt -2.16533 0.41007
vt -1.60913 0.42791
f 115/835 143/836 151/837
vt -2.16533 0.45426
vt -1.60913 0.42791
vt -1.60913 0.46589
f 115/838 151/839 135/840
vt -0.14724 -2.16533
vt -0.10305 -2.16533
vt -0.10438 -1.60913
f 139/841 144/842 150/843
vt -0.14724 -2.16533
vt -0.10438 -1.60913
vt -0.14237 -1.60913
f 139/844 150/845 149/846
vt -0.10305 -2.16533
vt -0.14724 -2.16533
vt -0.14237 -1.60913
f 141/847 145/848 155/849
vt -0.10305 -2.16533
vt -0.14237 -1.60913
vt -0.10438 -1.60913
f 141/850 155/851 154/852
vt -2.16533 0.41007
vt -2.16533 0.36588
vt -1.60913 0.38993
f 143/853 146/854 152/855
vt -2.16533 0.41007
vt -1.60913 0.38993
vt -1.60913 0.42791
f 143/856 152/857 151/858
vt -0.10305 -2.16533
vt -0.05886 -2.16533
vt -0.06640 -1.60913
f 144/859 116/860 136/861
vt -0.10305 -2.16533
vt -0.06640 -1.60913
vt -0.10438 -1.60913
f 144/862 136/863 150/864
vt -2.16533 0.33353
vt -2.16533 0.36588
vt -1.60913 0.38993
f 145/865 138/866 156/867
vt -0.14724 -2.16533
vt -0.17018 -1.60913
vt -0.14237 -1.60913
f 145/868 156/869 155/870
vt -2.16533 0.41007
vt -2.16533 0.45426
vt -1.60913 0.46589
f 137/871 140/872 148/873
vt -2.16533 0.41007
vt -1.60913 0.46589
vt -1.60913 0.42791
f 137/874 148/875 147/876
vt -2.16533 0.36588
vt -2.16533 0.33353
vt -1.60913 0.36213
f 146/877 142/878 153/879
vt -0.02651 -2.16533
vt -0.06640 -1.60913
vt -0.03860 -1.60913
f 146/880 153/881 152/882
vt -0.22891 0.33818
vt -0.17628 0.28554
vt -0.16143 0.31127
f 130/883 121/884 157/885
vt -0.22891 0.33818
vt -0.16143 0.31127
vt -0.20317 0.35303
f 130/886 157/887 158/888
vt -0.22891 0.48196
vt -0.24818 0.41007
vt -0.21846 0.41007
f 109/889 112/890 159/891
vt -0.22891 0.48196
vt -0.21846 0.41007
vt -0.20317 0.46711
f 109/892 159/893 160/894
vt -0.03249 0.28554
vt 0.02014 0.33818
vt -0.00559 0.35303
f 132/895 125/896 161/897
vt -0.03249 0.28554
vt -0.00559 0.35303
vt -0.04735 0.31127
f 132/898 161/899 162/900
vt 0.02014 0.48196
vt -0.03249 0.53459
vt -0.04735 0.50886
f 134/901 129/902 163/903
vt 0.02014 0.48196
vt -0.04735 0.50886
vt -0.00559 0.46711
f 134/904 163/905 164/906
vt -0.24818 0.41007
vt -0.22891 0.33818
vt -0.20317 0.35303
f 112/907 130/908 158/909
vt -0.24818 0.41007
vt -0.20317 0.35303
vt -0.21846 0.41007
f 112/910 158/911 159/912
vt -0.17628 0.53459
vt -0.22891 0.48196
vt -0.20317 0.46711
f 120/913 109/914 160/915
vt -0.17628 0.53459
vt -0.20317 0.46711
vt -0.16143 0.50886
f 120/916 160/917 165/918
vt -0.10438 0.26627
vt -0.03249 0.28554
vt -0.04735 0.31127
f 124/919 132/920 162/921
vt -0.10438 0.26627
vt -0.04735 0.31127
vt -0.10438 0.29599
f 124/922 162/923 166/924
vt 0.03940 0.41007
vt 0.02014 0.48196
vt -0.00559 0.46711
f 128/925 134/926 164/927
vt 0.03940 0.41007
vt -0.00559 0.46711
vt 0.00969 0.41007
f 128/928 164/929 167/930
vt -0.10438 0.55386
vt -0.17628 0.53459
vt -0.16143 0.50886
f 117/931 120/932 165/933
vt -0.10438 0.55386
vt -0.16143 0.50886
vt -0.10438 0.52414
f 117/934 165/935 168/936
vt -0.17628 0.28554
vt -0.10438 0.26627
vt -0.10438 0.29599
f 121/937 124/938 166/939
vt -0.17628 0.28554
vt -0.10438 0.29599
vt -0.16143 0.31127
f 121/940 166/941 157/942
vt 0.02014 0.33818
vt 0.03940 0.41007
vt 0.00969 0.41007
f 125/943 128/944 167/945
vt 0.02014 0.33818
vt 0.00969 0.41007
vt -0.00559 0.35303
f 125/946 167/947 161/948
vt -0.03249 0.53459
vt -0.10438 0.55386
vt -0.10438 0.52414
f 129/949 117/950 168/951
vt -0.03249 0.53459
vt -0.10438 0.52414
vt -0.04735 0.50886
f 129/952 168/953 163/954
vt -0.10438 0.57200
vt -0.16143 0.57200
vt -0.16143 0.64223
f 168/955 165/956 169/957
vt -0.10438 0.57200
vt -0.16143 0.64223
vt -0.10438 0.64223
f 168/958 169/959 170/960
vt 0.64223 0.41007
vt 0.64223 0.46711
vt 0.67618 0.46342
f 171/961 172/962 173/963
vt 0.64223 0.41007
vt 0.67618 0.46342
vt 0.67618 0.41007
f 171/964 173/965 174/966
vt -0.16143 0.57200
vt -0.10438 0.57200
vt -0.10438 0.64223
f 157/967 166/968 175/969
vt -0.16143 0.57200
vt -0.10438 0.64223
vt -0.16143 0.64223
f 157/970 175/971 176/972
vt 0.57200 0.35303
vt 0.57200 0.41007
vt 0.64223 0.41007
f 161/973 167/974 171/975
vt 0.57200 0.35303
vt 0.64223 0.41007
vt 0.64223 0.35303
f 161/976 171/977 177/978
vt -0.04735 0.57200
vt -0.10438 0.57200
vt -0.10438 0.64223
f 163/979 168/980 170/981
vt -0.04735 0.57200
vt -0.10438 0.64223
vt -0.04735 0.64223
f 163/982 170/983 178/984
vt 0.57200 0.35303
vt 0.57200 0.31127
vt 0.64223 0.31127
f 158/985 157/986 176/987
vt 0.57200 0.35303
vt 0.64223 0.31127
vt 0.64223 0.35303
f 158/988 176/989 179/990
vt 0.57200 0.46711
vt 0.57200 0.41007
vt 0.64223 0.41007
f 160/991 159/992 180/993
vt 0.57200 0.46711
vt 0.64223 0.41007
vt 0.64223 0.46711
f 160/994 180/995 181/996
vt -0.04735 0.57200
vt -0.00559 0.57200
vt -0.00559 0.64223
f 162/997 161/998 177/999
vt -0.04735 0.57200
vt -0.00559 0.64223
vt -0.04735 0.64223
f 162/1000 177/1001 182/1002
vt -0.00559 0.57200
vt -0.04735 0.57200
vt -0.04735 0.64223
f 164/1003 163/1004 178/1005
vt -0.00559 0.57200
vt -0.04735 0.64223
vt -0.00559 0.64223
f 164/1006 178/1007 172/1008
vt 0.57200 0.41007
vt 0.57200 0.35303
vt 0.64223 0.35303
f 159/1009 158/1010 179/1011
vt 0.57200 0.41007
vt 0.64223 0.35303
vt 0.64223 0.41007
f 159/1012 179/1013 180/1014
vt 0.57200 0.50886
vt 0.57200 0.46711
vt 0.64223 0.46711
f 165/1015 160/1016 181/1017
vt 0.57200 0.50886
vt 0.64223 0.46711
vt 0.64223 0.50886
f 165/1018 181/1019 169/1020
vt -0.10438 0.57200
vt -0.04735 0.57200
vt -0.04735 0.64223
f 166/1021 162/1022 182/1023
vt -0.10438 0.57200
vt -0.04735 0.64223
vt -0.10438 0.64223
f 166/1024 182/1025 175/1026
vt 0.57200 0.41007
vt 0.57200 0.46711
vt 0.64223 0.46711
f 167/1027 164/1028 172/1029
vt 0.57200 0.41007
vt 0.64223 0.46711
vt 0.64223 0.41007
f 167/1030 172/1031 171/1032
vt 0.67618 0.41007
vt 0.67618 0.46342
vt 0.70135 0.45174
f 174/1033 173/1034 183/1035
vt 0.67618 0.41007
vt 0.70135 0.45174
vt 0.70135 0.41007
f 174/1036 183/1037 184/1038
vt -0.10438 0.64223
vt -0.16143 0.64223
vt -0.15774 0.67618
f 170/1039 169/1040 185/1041
vt -0.10438 0.64223
vt -0.15774 0.67618
vt -0.10438 0.67618
f 170/1042 185/1043 186/1044
vt -0.16143 0.64223
vt -0.10438 0.64223
vt -0.10438 0.67618
f 176/1045 175/1046 187/1047
vt -0.16143 0.64223
vt -0.10438 0.67618
vt -0.15773 0.67618
f 176/1048 187/1049 188/1050
vt 0.64223 0.35303
vt 0.64223 0.41007
vt 0.67618 0.41007
f 177/1051 171/1052 174/1053
vt 0.64223 0.35303
vt 0.67618 0.41007
vt 0.67618 0.35672
f 177/1054 174/1055 189/1056
vt -0.04735 0.64223
vt -0.10438 0.64223
vt -0.10438 0.67618
f 178/1057 170/1058 186/1059
vt -0.04735 0.64223
vt -0.10438 0.67618
vt -0.05103 0.67618
f 178/1060 186/1061 190/1062
vt 0.64223 0.35303
vt 0.64223 0.31127
vt 0.67618 0.31766
f 179/1063 176/1064 188/1065
vt 0.64223 0.35303
vt 0.67618 0.31766
vt 0.67618 0.35672
f 179/1066 188/1067 191/1068
vt 0.64223 0.46711
vt 0.64223 0.41007
vt 0.67618 0.41007
f 181/1069 180/1070 192/1071
vt 0.64223 0.46711
vt 0.67618 0.41007
vt 0.67618 0.46342
f 181/1072 192/1073 193/1074
vt -0.04735 0.64223
vt -0.00559 0.64223
vt -0.01198 0.67618
f 182/1075 177/1076 189/1077
vt 0.64223 0.31127
vt 0.67618 0.35672
vt 0.67618 0.31766
f 182/1078 189/1079 194/1080
vt -0.00559 0.64223
vt -0.04735 0.64223
vt -0.05103 0.67618
f 172/1081 178/1082 190/1083
vt -0.00559 0.64223
vt -0.05103 0.67618
vt -0.01198 0.67618
f 172/1084 190/1085 173/1086
vt 0.64223 0.41007
vt 0.64223 0.35303
vt 0.67618 0.35672
f 180/1087 179/1088 191/1089
vt 0.64223 0.41007
vt 0.67618 0.35672
vt 0.67618 0.41007
f 180/1090 191/1091 192/1092
vt 0.64223 0.50886
vt 0.64223 0.46711
vt 0.67618 0.46342
f 169/1093 181/1094 193/1095
vt 0.64223 0.50886
vt 0.67618 0.46342
vt 0.67618 0.50248
f 169/1096 193/1097 185/1098
vt -0.10438 0.64223
vt -0.04735 0.64223
vt -0.05103 0.67618
f 175/1099 182/1100 194/1101
vt -0.10438 0.64223
vt -0.05103 0.67618
vt -0.10438 0.67618
f 175/1102 194/1103 187/1104
vt -0.10438 0.32672
vt -0.06272 0.33789
vt -0.08265 0.37243
f 195/1105 196/1106 197/1107
vt -0.10438 0.32672
vt -0.08265 0.37243
vt -0.10438 0.36660
f 195/1108 197/1109 198/1110
vt -0.10438 0.67618
vt -0.15774 0.67618
vt -0.14606 0.70135
f 186/1111 185/1112 199/1113
vt -0.10438 0.67618
vt -0.14606 0.70135
vt -0.10438 0.70135
f 186/1114 199/1115 200/1116
vt -0.15773 0.67618
vt -0.10438 0.67618
vt -0.10438 0.70135
f 188/1117 187/1118 195/1119
vt -0.15773 0.67618
vt -0.10438 0.70135
vt -0.14606 0.70135
f 188/1120 195/1121 201/1122
vt 0.67618 0.35672
vt 0.67618 0.41007
vt 0.70135 0.41007
f 189/1123 174/1124 184/1125
vt 0.67618 0.35672
vt 0.70135 0.41007
vt 0.70135 0.36839
f 189/1126 184/1127 202/1128
vt -0.05103 0.67618
vt -0.10438 0.67618
vt -0.10438 0.70135
f 190/1129 186/1130 200/1131
vt -0.05103 0.67618
vt -0.10438 0.70135
vt -0.06272 0.70135
f 190/1132 200/1133 203/1134
vt -0.19679 0.35672
vt -0.15773 0.31766
vt -0.14606 0.33789
f 191/1135 188/1136 201/1137
vt -0.19679 0.35672
vt -0.14606 0.33789
vt -0.17657 0.36839
f 191/1138 201/1139 204/1140
vt 0.67618 0.46342
vt 0.67618 0.41007
vt 0.70135 0.41007
f 193/1141 192/1142 205/1143
vt 0.67618 0.46342
vt 0.70135 0.41007
vt 0.70135 0.45174
f 193/1144 205/1145 206/1146
vt -0.05103 0.31766
vt -0.01198 0.35672
vt -0.03221 0.36839
f 194/1147 189/1148 202/1149
vt -0.05103 0.31766
vt -0.03221 0.36839
vt -0.06272 0.33789
f 194/1150 202/1151 196/1152
vt -0.01198 0.46342
vt -0.05103 0.50248
vt -0.06272 0.48224
f 173/1153 190/1154 203/1155
vt -0.01198 0.46342
vt -0.06272 0.48224
vt -0.03221 0.45174
f 173/1156 203/1157 183/1158
vt 0.67618 0.41007
vt 0.67618 0.35672
vt 0.70135 0.36839
f 192/1159 191/1160 204/1161
vt 0.67618 0.41007
vt 0.70135 0.36839
vt 0.70135 0.41007
f 192/1162 204/1163 205/1164
vt -0.15774 0.50248
vt -0.19679 0.46342
vt -0.17657 0.45174
f 185/1165 193/1166 206/1167
vt -0.15774 0.50248
vt -0.17657 0.45174
vt -0.14606 0.48224
f 185/1168 206/1169 199/1170
vt -0.10438 0.67618
vt -0.05103 0.67618
vt -0.06272 0.70135
f 187/1171 194/1172 196/1173
vt -0.10438 0.67618
vt -0.06272 0.70135
vt -0.10438 0.70135
f 187/1174 196/1175 195/1176
vt -0.14203 0.43180
vt -0.14785 0.41007
vt -0.14203 0.38833
f 207/1177 208/1178 209/1179
vt -0.14203 0.43180
vt -0.14203 0.38833
vt -0.12612 0.37243
f 207/1180 209/1181 210/1182
vt -0.14203 0.43180
vt -0.12612 0.37243
vt -0.10438 0.36660
f 207/1183 210/1184 198/1185
vt -0.14203 0.43180
vt -0.10438 0.36660
vt -0.08265 0.37243
f 207/1186 198/1187 197/1188
vt -0.14203 0.43180
vt -0.08265 0.37243
vt -0.06674 0.38833
f 207/1189 197/1190 211/1191
vt -0.14203 0.43180
vt -0.06674 0.38833
vt -0.06092 0.41007
f 207/1192 211/1193 212/1194
vt -0.14203 0.43180
vt -0.06092 0.41007
vt -0.06674 0.43180
f 207/1195 212/1196 213/1197
vt -0.14203 0.43180
vt -0.06674 0.43180
vt -0.08265 0.44771
f 207/1198 213/1199 214/1200
vt -0.14203 0.43180
vt -0.08265 0.44771
vt -0.10438 0.45353
f 207/1201 214/1202 215/1203
vt -0.14203 0.43180
vt -0.10438 0.45353
vt -0.12612 0.44771
f 207/1204 215/1205 216/1206
vt -0.02104 0.41007
vt -0.03221 0.45174
vt -0.06674 0.43180
f 184/1207 183/1208 213/1209
vt -0.02104 0.41007
vt -0.06674 0.43180
vt -0.06092 0.41007
f 184/1210 213/1211 212/1212
vt -0.10438 0.49341
vt -0.14606 0.48224
vt -0.12612 0.44771
f 200/1213 199/1214 216/1215
vt -0.10438 0.49341
vt -0.12612 0.44771
vt -0.10438 0.45353
f 200/1216 216/1217 215/1218
vt -0.14606 0.33789
vt -0.10438 0.32672
vt -0.10438 0.36660
f 201/1219 195/1220 198/1221
vt -0.14606 0.33789
vt -0.10438 0.36660
vt -0.12612 0.37243
f 201/1222 198/1223 210/1224
vt -0.03221 0.36839
vt -0.02104 0.41007
vt -0.06092 0.41007
f 202/1225 184/1226 212/1227
vt -0.03221 0.36839
vt -0.06092 0.41007
vt -0.06674 0.38833
f 202/1228 212/1229 211/1230
vt -0.06272 0.48224
vt -0.10438 0.49341
vt -0.10438 0.45353
f 203/1231 200/1232 215/1233
vt -0.06272 0.48224
vt -0.10438 0.45353
vt -0.08265 0.44771
f 203/1234 215/1235 214/1236
vt -0.17657 0.36839
vt -0.14606 0.33789
vt -0.12612 0.37243
f 204/1237 201/1238 210/1239
vt -0.17657 0.36839
vt -0.12612 0.37243
vt -0.14203 0.38833
f 204/1240 210/1241 209/1242
vt -0.17657 0.45174
vt -0.18773 0.41007
vt -0.14785 0.41007
f 206/1243 205/1244 208/1245
vt -0.17657 0.45174
vt -0.14785 0.41007
vt -0.14203 0.43180
f 206/1246 208/1247 207/1248
vt -0.06272 0.33789
vt -0.03221 0.36839
vt -0.06674 0.38833
f 196/1249 202/1250 211/1251
vt -0.06272 0.33789
vt -0.06674 0.38833
vt -0.08265 0.37243
f 196/1252 211/1253 197/1254
vt -0.03221 0.45174
vt -0.06272 0.48224
vt -0.08265 0.44771
f 183/1255 203/1256 214/1257
vt -0.03221 0.45174
vt -0.08265 0.44771
vt -0.06674 0.43180
f 183/1258 214/1259 213/1260
vt -0.18773 0.41007
vt -0.17657 0.36839
vt -0.14203 0.38833
f 205/1261 204/1262 209/1263
vt -0.18773 0.41007
vt -0.14203 0.38833
vt -0.14785 0.41007
f 205/1264 209/1265 208/1266
vt -0.14606 0.48224
vt -0.17657 0.45174
vt -0.14203 0.43180
f 199/1267 206/1268 207/1269
vt -0.14606 0.48224
vt -0.14203 0.43180
vt -0.12612 0.44771
f 199/1270 207/1271 216/1272
vt 0.02551 1.05686
vt -0.00000 1.05686
vt -0.00000 1.11631
f 217/1273 218/1274 219/1275
vt 0.02551 1.05686
vt -0.00000 1.11631
vt 0.02551 1.11631
f 217/1276 219/1277 220/1278
vt -0.00000 1.06182
vt 0.02551 1.06182
vt 0.02551 1.12673
f 221/1279 222/1280 223/1281
vt -0.00000 1.06182
vt 0.02551 1.12673
vt -0.00000 1.12673
f 221/1282 223/1283 224/1284
vt 0.02551 0.93285
vt -0.00000 0.93285
vt -0.00000 1.05686
f 225/1285 226/1286 218/1287
vt 0.02551 0.93285
vt -0.00000 1.05686
vt 0.02551 1.05686
f 225/1288 218/1289 217/1290
vt 1.06182 0.42935
vt 0.93285 0.50218
vt 1.05686 0.52128
f 222/1291 225/1292 217/1293
vt 1.06182 0.42935
vt 1.05686 0.52128
vt 1.12673 0.47329
f 222/1294 217/1295 223/1296
vt 0.02551 1.11631
vt -0.00000 1.11631
vt -0.00000 1.17088
f 220/1297 219/1298 227/1299
vt 0.02551 1.11631
vt -0.00000 1.17088
vt 0.02551 1.17088
f 220/1300 227/1301 228/1302
vt 1.12673 0.47329
vt 1.05686 0.52128
vt 1.11631 0.54909
f 223/1303 217/1304 220/1305
vt 1.12673 0.47329
vt 1.11631 0.54909
vt 1.16639 0.51919
f 223/1306 220/1307 229/1308
vt -0.00000 0.47329
vt 0.02551 0.47329
vt 0.02551 0.51919
f 224/1309 223/1310 229/1311
vt -0.00000 0.47329
vt 0.02551 0.51919
vt -0.00000 0.51919
f 224/1312 229/1313 230/1314
vt -0.00000 1.19162
vt 0.02551 1.19162
vt 0.02551 1.17088
f 231/1315 232/1316 228/1317
vt -0.00000 1.19162
vt 0.02551 1.17088
vt -0.00000 1.17088
f 231/1318 228/1319 227/1320
vt 1.16639 0.51919
vt 1.11631 0.54909
vt 1.17088 0.59928
f 229/1321 220/1322 228/1323
vt 1.16639 0.51919
vt 1.17088 0.59928
vt 1.19162 0.58621
f 229/1324 228/1325 232/1326
vt -0.00000 0.51919
vt 0.02551 0.51919
vt 0.02551 0.58621
f 230/1327 229/1328 232/1329
vt -0.00000 0.51919
vt 0.02551 0.58621
vt -0.00000 0.58621
f 230/1330 232/1331 231/1332
vt -0.02551 1.05686
vt -0.02551 1.11631
vt -0.00000 1.11631
f 233/1333 234/1334 219/1335
vt -0.02551 1.05686
vt -0.00000 1.11631
vt -0.00000 1.05686
f 233/1336 219/1337 218/1338
vt -0.00000 1.06182
vt -0.00000 1.12673
vt -0.02551 1.12673
f 221/1339 224/1340 235/1341
vt -0.00000 1.06182
vt -0.02551 1.12673
vt -0.02551 1.06182
f 221/1342 235/1343 236/1344
vt -0.02551 0.93285
vt -0.02551 1.05686
vt -0.00000 1.05686
f 237/1345 233/1346 218/1347
vt -0.02551 0.93285
vt -0.00000 1.05686
vt -0.00000 0.93285
f 237/1348 218/1349 226/1350
vt 1.06182 0.42935
vt 1.12673 0.47329
vt 1.05686 0.52128
f 236/1351 235/1352 233/1353
vt 1.06182 0.42935
vt 1.05686 0.52128
vt 0.93285 0.50218
f 236/1354 233/1355 237/1356
vt -0.02551 1.11631
vt -0.02551 1.17088
vt -0.00000 1.17088
f 234/1357 238/1358 227/1359
vt -0.02551 1.11631
vt -0.00000 1.17088
vt -0.00000 1.11631
f 234/1360 227/1361 219/1362
vt 1.12673 0.47329
vt 1.16639 0.51919
vt 1.11631 0.54909
f 235/1363 239/1364 234/1365
vt 1.12673 0.47329
vt 1.11631 0.54909
vt 1.05686 0.52128
f 235/1366 234/1367 233/1368
vt -0.00000 0.47329
vt -0.00000 0.51919
vt -0.02551 0.51919
f 224/1369 230/1370 239/1371
vt -0.00000 0.47329
vt -0.02551 0.51919
vt -0.02551 0.47329
f 224/1372 239/1373 235/1374
vt -0.00000 1.19162
vt -0.00000 1.17088
vt -0.02551 1.17088
f 231/1375 227/1376 238/1377
vt -0.00000 1.19162
vt -0.02551 1.17088
vt -0.02551 1.19162
f 231/1378 238/1379 240/1380
vt 1.16639 0.51919
vt 1.19162 0.58621
vt 1.17088 0.59928
f 239/1381 240/1382 238/1383
vt 1.16639 0.51919
vt 1.17088 0.59928
vt 1.11631 0.54909
f 239/1384 238/1385 234/1386
vt -0.00000 0.51919
vt -0.00000 0.58621
vt -0.02551 0.58621
f 230/1387 231/1388 240/1389
vt -0.00000 0.51919
vt -0.02551 0.58621
vt -0.02551 0.51919
f 230/1390 240/1391 239/1392
vt -0.03565 1.10265
vt -0.03516 1.18717
vt 0.03516 1.18717
f 241/1393 242/1394 243/1395
vt -0.03565 1.10265
vt 0.03516 1.18717
vt 0.03565 1.10265
f 241/1396 243/1397 244/1398
vt 1.12713 -0.08165
vt 1.13298 -0.12842
vt 1.16823 -0.13816
f 245/1399 246/1400 247/1401
vt 1.12713 -0.08165
vt 1.16823 -0.13816
vt 1.18724 -0.09319
f 245/1402 247/1403 248/1404
vt 1.18724 -0.09319
vt 1.18717 -0.00643
vt 1.26123 -0.00083
f 249/1405 243/1406 250/1407
vt 1.18724 -0.09319
vt 1.26123 -0.00083
vt 1.26081 -0.06122
f 249/1408 250/1409 251/1410
vt 1.18724 -0.09319
vt 1.26081 -0.06122
vt 1.23609 -0.08752
f 249/1411 251/1412 252/1413
vt 1.10265 0.01669
vt 1.12713 -0.08165
vt 1.18724 -0.09319
f 241/1414 245/1415 248/1416
vt 1.10265 0.01669
vt 1.18724 -0.09319
vt 1.18717 -0.00643
f 241/1417 248/1418 242/1419
vt 1.18717 -0.00643
vt 1.18724 -0.09319
vt 1.12713 -0.08164
f 243/1420 249/1421 253/1422
vt 1.18717 -0.00643
vt 1.12713 -0.08164
vt 1.10265 0.01669
f 243/1423 253/1424 244/1425
vt -0.03522 -0.17404
vt -0.03535 -0.21048
vt 0.03535 -0.21048
f 254/1426 255/1427 256/1428
vt -0.03522 -0.17404
vt 0.03535 -0.21048
vt 0.03522 -0.17404
f 254/1429 256/1430 257/1431
vt 0.03528 -0.08164
vt 0.03513 -0.12842
vt -0.03513 -0.12842
f 253/1432 258/1433 246/1434
vt 0.03528 -0.08164
vt -0.03513 -0.12842
vt -0.03528 -0.08165
f 253/1435 246/1436 245/1437
vt -0.03458 -0.09319
vt -0.03539 -0.13816
vt 0.03539 -0.13816
f 248/1438 247/1439 259/1440
vt -0.03458 -0.09319
vt 0.03539 -0.13816
vt 0.03458 -0.09319
f 248/1441 259/1442 249/1443
vt 1.14964 -0.17404
vt 1.12355 -0.21048
vt 1.11897 -0.21168
f 257/1444 256/1445 260/1446
vt 1.14964 -0.17404
vt 1.11897 -0.21168
vt 1.11025 -0.20761
f 257/1447 260/1448 261/1449
vt 1.14964 -0.17404
vt 1.11025 -0.20761
vt 1.10937 -0.20495
f 257/1450 261/1451 262/1452
vt 1.14964 -0.17404
vt 1.10937 -0.20495
vt 1.12616 -0.17090
f 257/1453 262/1454 263/1455
vt 0.03491 -0.17090
vt 0.03525 -0.20495
vt -0.03525 -0.20495
f 263/1456 262/1457 264/1458
vt 0.03491 -0.17090
vt -0.03525 -0.20495
vt -0.03491 -0.17090
f 263/1459 264/1460 265/1461
vt -0.03524 1.11025
vt 0.03524 1.11025
vt 0.03529 1.11897
f 266/1462 261/1463 260/1464
vt -0.03524 1.11025
vt 0.03529 1.11897
vt -0.03529 1.11897
f 266/1465 260/1466 267/1467
vt 1.18724 -0.09319
vt 1.16823 -0.13816
vt 1.13298 -0.12842
f 249/1468 259/1469 258/1470
vt 1.18724 -0.09319
vt 1.13298 -0.12842
vt 1.12713 -0.08164
f 249/1471 258/1472 253/1473
vt 0.03565 0.01669
vt 0.03528 -0.08164
vt -0.03528 -0.08165
f 244/1474 253/1475 245/1476
vt 0.03565 0.01669
vt -0.03528 -0.08165
vt -0.03565 0.01669
f 244/1477 245/1478 241/1479
vt 1.18717 -0.00643
vt 1.18724 -0.09319
vt 1.23609 -0.08752
f 242/1480 248/1481 268/1482
vt 1.18717 -0.00643
vt 1.23609 -0.08752
vt 1.26081 -0.06122
f 242/1483 268/1484 269/1485
vt 1.18717 -0.00643
vt 1.26081 -0.06122
vt 1.26123 -0.00083
f 242/1486 269/1487 270/1488
vt -0.03560 -0.00083
vt -0.03547 -0.06122
vt 0.03547 -0.06122
f 270/1489 269/1490 251/1491
vt -0.03560 -0.00083
vt 0.03547 -0.06122
vt 0.03560 -0.00083
f 270/1492 251/1493 250/1494
vt 0.03516 1.18717
vt -0.03516 1.18717
vt -0.03560 1.26123
f 243/1495 242/1496 270/1497
vt 0.03516 1.18717
vt -0.03560 1.26123
vt 0.03560 1.26123
f 243/1498 270/1499 250/1500
vt -0.03550 -0.08752
vt 0.03550 -0.08752
vt 0.03547 -0.06122
f 268/1501 252/1502 251/1503
vt -0.03550 -0.08752
vt 0.03547 -0.06122
vt -0.03547 -0.06122
f 268/1504 251/1505 269/1506
vt -0.03458 1.18724
vt 0.03458 1.18724
vt 0.03550 1.23609
f 248/1507 249/1508 252/1509
vt -0.03458 1.18724
vt 0.03550 1.23609
vt -0.03550 1.23609
f 248/1510 252/1511 268/1512
vt -0.03513 -0.12842
vt 0.03513 -0.12842
vt 0.03491 -0.17090
f 246/1513 258/1514 263/1515
vt -0.03513 -0.12842
vt 0.03491 -0.17090
vt -0.03491 -0.17090
f 246/1516 263/1517 265/1518
vt 1.13298 -0.12842
vt 1.16823 -0.13816
vt 1.14964 -0.17404
f 258/1519 259/1520 257/1521
vt 1.13298 -0.12842
vt 1.14964 -0.17404
vt 1.12616 -0.17090
f 258/1522 257/1523 263/1524
vt 1.16823 -0.13816
vt 1.13298 -0.12842
vt 1.12616 -0.17090
f 247/1525 246/1526 265/1527
vt 1.16823 -0.13816
vt 1.12616 -0.17090
vt 1.14964 -0.17404
f 247/1528 265/1529 254/1530
vt 0.03539 -0.13816
vt -0.03539 -0.13816
vt -0.03522 -0.17404
f 259/1531 247/1532 254/1533
vt 0.03539 -0.13816
vt -0.03522 -0.17404
vt 0.03522 -0.17404
f 259/1534 254/1535 257/1536
vt 0.03524 -0.20761
vt -0.03524 -0.20761
vt -0.03525 -0.20495
f 261/1537 266/1538 264/1539
vt 0.03524 -0.20761
vt -0.03525 -0.20495
vt 0.03525 -0.20495
f 261/1540 264/1541 262/1542
vt -0.03529 1.11897
vt 0.03529 1.11897
vt 0.03535 1.12355
f 267/1543 260/1544 256/1545
vt -0.03529 1.11897
vt 0.03535 1.12355
vt -0.03535 1.12355
f 267/1546 256/1547 255/1548
vt 1.12616 -0.17090
vt 1.10937 -0.20495
vt 1.11025 -0.20761
f 265/1549 264/1550 266/1551
vt 1.12616 -0.17090
vt 1.11025 -0.20761
vt 1.11897 -0.21168
f 265/1552 266/1553 267/1554
vt 1.12616 -0.17090
vt 1.11897 -0.21168
vt 1.12355 -0.21048
f 265/1555 267/1556 255/1557
vt 1.12616 -0.17090
vt 1.12355 -0.21048
vt 1.14964 -0.17404
f 265/1558 255/1559 254/1560
o Grip
usemtl Bubblegum
vt 1.64115 -0.17106
vt 1.84892 -0.01458
vt 2.00106 -0.21954
f 271/1561 272/1562 273/1563
vt 1.64115 -0.17106
vt 2.00106 -0.21954
vt 1.75665 -0.32627
f 271/1564 273/1565 274/1566
vt -0.00000 1.46413
vt 0.07136 1.46413
vt 0.07136 1.59490
f 275/1567 276/1568 277/1569
vt -0.00000 1.46413
vt 0.07136 1.59490
vt 0.00000 1.59490
f 275/1570 277/1571 278/1572
vt 1.36738 0.01679
vt 1.36320 0.11879
vt 1.35576 0.30708
f 279/1573 280/1574 281/1575
vt 1.36738 0.01679
vt 1.35576 0.30708
vt 1.63307 0.18985
f 279/1576 281/1577 282/1578
vt 1.36738 0.01679
vt 1.63307 0.18985
vt 1.49068 -0.04820
f 279/1579 282/1580 283/1581
vt -0.00000 1.35460
vt 0.07136 1.35460
vt 0.07136 1.46413
f 284/1582 285/1583 276/1584
vt -0.00000 1.35460
vt 0.07136 1.46413
vt -0.00000 1.46413
f 284/1585 276/1586 275/1587
vt 1.49068 -0.04820
vt 1.63307 0.18985
vt 1.84892 -0.01458
f 283/1588 282/1589 272/1590
vt 1.49068 -0.04820
vt 1.84892 -0.01458
vt 1.64115 -0.17106
f 283/1591 272/1592 271/1593
vt 1.78386 -0.58115
vt 1.70217 -0.35007
vt 1.75665 -0.32627
f 286/1594 287/1595 274/1596
vt 1.78386 -0.58115
vt 1.75665 -0.32627
vt 1.84328 -0.54876
f 286/1597 274/1598 288/1599
vt 1.46413 -0.09913
vt 1.35460 -0.04017
vt 1.36738 0.01679
f 276/1600 285/1601 279/1602
vt 1.46413 -0.09913
vt 1.36738 0.01679
vt 1.49068 -0.04820
f 276/1603 279/1604 283/1605
vt 1.63307 0.18985
vt 1.35576 0.30708
vt 1.36407 0.36839
f 282/1606 281/1607 289/1608
vt 1.63307 0.18985
vt 1.36407 0.36839
vt 1.65992 0.24134
f 282/1609 289/1610 290/1611
vt 1.19965 0.44223
vt 1.28524 0.40380
vt 1.27774 0.34212
f 291/1612 292/1613 293/1614
vt 1.19965 0.44223
vt 1.27774 0.34212
vt 1.19130 0.38093
f 291/1615 293/1616 294/1617
vt 1.35460 -0.04017
vt 1.23298 -0.02610
vt 1.23998 0.03153
f 285/1618 295/1619 296/1620
vt 1.35460 -0.04017
vt 1.23998 0.03153
vt 1.36738 0.01679
f 285/1621 296/1622 279/1623
vt 1.84892 -0.01458
vt 1.63307 0.18985
vt 1.65992 0.24134
f 272/1624 282/1625 290/1626
vt 1.84892 -0.01458
vt 1.65992 0.24134
vt 1.89500 0.02013
f 272/1627 290/1628 297/1629
vt 1.59490 -0.20589
vt 1.46413 -0.09913
vt 1.49068 -0.04820
f 277/1630 276/1631 283/1632
vt 1.59490 -0.20589
vt 1.49068 -0.04820
vt 1.64115 -0.17106
f 277/1633 283/1634 271/1635
vt 2.00106 -0.21954
vt 1.84892 -0.01458
vt 1.89500 0.02013
f 273/1636 272/1637 297/1638
vt 2.00106 -0.21954
vt 1.89500 0.02013
vt 2.05533 -0.19584
f 273/1639 297/1640 298/1641
vt 1.70217 -0.35007
vt 1.59490 -0.20589
vt 1.64115 -0.17106
f 287/1642 277/1643 271/1644
vt 1.70217 -0.35007
vt 1.64115 -0.17106
vt 1.75665 -0.32627
f 287/1645 271/1646 274/1647
vt 1.75665 -0.32627
vt 2.00106 -0.21954
vt 2.10760 -0.41053
f 274/1648 273/1649 299/1650
vt 1.75665 -0.32627
vt 2.10760 -0.41053
vt 1.84328 -0.54876
f 274/1651 299/1652 288/1653
vt 0.00000 -0.35007
vt 0.07136 -0.35007
vt 0.07492 -0.58115
f 300/1654 287/1655 286/1656
vt 0.00000 -0.35007
vt 0.07492 -0.58115
vt 0.00000 -0.58115
f 300/1657 286/1658 301/1659
vt 0.00000 -0.20589
vt 0.07136 -0.20589
vt 0.07136 -0.35007
f 278/1660 277/1661 287/1662
vt 0.00000 -0.20589
vt 0.07136 -0.35007
vt 0.00000 -0.35007
f 278/1663 287/1664 300/1665
vt 2.15650 -0.42581
vt 2.09899 -0.48068
vt 2.10760 -0.41053
f 302/1666 303/1667 299/1668
vt 2.15650 -0.42581
vt 2.10760 -0.41053
vt 2.16667 -0.37833
f 302/1669 299/1670 304/1671
vt 1.92773 -0.57403
vt 1.83826 -0.59928
vt 1.78386 -0.58115
f 305/1672 306/1673 286/1674
vt 0.07391 1.92773
vt 0.07492 1.78386
vt 0.11212 1.84328
f 305/1675 286/1676 288/1677
vt 0.00000 -0.42581
vt 0.06598 -0.42581
vt 0.07492 -0.37833
f 307/1678 302/1679 304/1680
vt 0.00000 -0.42581
vt 0.07492 -0.37833
vt 0.00000 -0.37833
f 307/1681 304/1682 308/1683
vt 2.05533 -0.19584
vt 2.16667 -0.37833
vt 2.10760 -0.41053
f 298/1684 304/1685 299/1686
vt 2.05533 -0.19584
vt 2.10760 -0.41053
vt 2.00106 -0.21954
f 298/1687 299/1688 273/1689
vt 0.00000 2.09899
vt 0.07391 2.09899
vt 0.06598 2.15650
f 309/1690 303/1691 302/1692
vt 0.00000 2.09899
vt 0.06598 2.15650
vt 0.00000 2.15650
f 309/1693 302/1694 307/1695
vt 1.84328 -0.54876
vt 2.10760 -0.41053
vt 2.09899 -0.48068
f 288/1696 299/1697 303/1698
vt 1.84328 -0.54876
vt 2.09899 -0.48068
vt 1.92773 -0.57403
f 288/1699 303/1700 305/1701
vt 0.07136 0.02543
vt 0.10419 0.08378
vt 0.12138 0.07319
f 310/1702 311/1703 312/1704
vt 0.07136 0.02543
vt 0.12138 0.07319
vt 0.08313 0.01061
f 310/1705 312/1706 313/1707
vt 0.10419 0.46259
vt 0.07136 0.52438
vt 0.08313 0.54584
f 314/1708 315/1709 316/1710
vt 0.10419 0.46259
vt 0.08313 0.54584
vt 0.12138 0.47956
f 314/1711 316/1712 317/1713
vt 1.36320 0.11879
vt 1.36738 0.01679
vt 1.23998 0.03153
f 280/1714 279/1715 296/1716
vt 1.36320 0.11879
vt 1.23998 0.03153
vt 1.24590 0.10177
f 280/1717 296/1718 318/1719
vt 1.36320 0.11879
vt 1.26820 0.22635
vt 1.27774 0.34212
f 280/1720 319/1721 293/1722
vt 1.36320 0.11879
vt 1.27774 0.34212
vt 1.35576 0.30708
f 280/1723 293/1724 281/1725
vt 0.10419 0.08378
vt 0.10419 0.46259
vt 0.12138 0.47956
f 311/1726 314/1727 317/1728
vt 0.10419 0.08378
vt 0.12138 0.47956
vt 0.12138 0.07319
f 311/1729 317/1730 312/1731
vt -0.00000 0.02543
vt 0.07136 0.02543
vt 0.08313 0.01061
f 320/1732 310/1733 313/1734
vt -0.00000 0.02543
vt 0.08313 0.01061
vt -0.00000 0.01061
f 320/1735 313/1736 321/1737
vt 0.07136 0.52438
vt -0.00000 0.52438
vt -0.00000 0.54584
f 315/1738 322/1739 323/1740
vt 0.07136 0.52438
vt -0.00000 0.54584
vt 0.08313 0.54584
f 315/1741 323/1742 316/1743
vt 0.07391 1.92773
vt 0.00000 1.92773
vt 0.00000 1.83826
f 305/1744 324/1745 325/1746
vt 0.07391 1.92773
vt 0.00000 1.83826
vt 0.06595 1.83826
f 305/1747 325/1748 306/1749
vt 0.06595 1.83826
vt 0.00000 1.83826
vt 0.00000 1.78386
f 306/1750 325/1751 301/1752
vt 0.06595 1.83826
vt 0.00000 1.78386
vt 0.07492 1.78386
f 306/1753 301/1754 286/1755
vt 0.07391 2.09899
vt 0.00000 2.09899
vt 0.00000 1.92773
f 303/1756 309/1757 324/1758
vt 0.07391 2.09899
vt 0.00000 1.92773
vt 0.07391 1.92773
f 303/1759 324/1760 305/1761
vt 0.07136 -0.19584
vt 0.00000 -0.19584
vt 0.00000 -0.37833
f 298/1762 326/1763 308/1764
vt 0.07136 -0.19584
vt 0.00000 -0.37833
vt 0.07492 -0.37833
f 298/1765 308/1766 304/1767
vt 0.07136 1.19965
vt -0.00000 1.19965
vt -0.00000 1.29082
f 291/1768 327/1769 328/1770
vt 0.07136 1.19965
vt -0.00000 1.29082
vt 0.07136 1.28524
f 291/1771 328/1772 292/1773
vt 0.07136 0.02013
vt -0.00000 0.02013
vt 0.00000 -0.19584
f 297/1774 329/1775 326/1776
vt 0.07136 0.02013
vt 0.00000 -0.19584
vt 0.07136 -0.19584
f 297/1777 326/1778 298/1779
vt 0.07136 1.36407
vt -0.00000 1.36407
vt -0.00000 1.65992
f 289/1780 330/1781 331/1782
vt 0.07136 1.36407
vt -0.00000 1.65992
vt 0.07136 1.65992
f 289/1783 331/1784 290/1785
vt 0.07136 1.12188
vt 0.07136 1.23298
vt -0.00000 1.22833
f 332/1786 295/1787 333/1788
vt 0.07136 1.12188
vt -0.00000 1.22833
vt -0.00000 1.12188
f 332/1789 333/1790 334/1791
vt 0.07136 1.65992
vt -0.00000 1.65992
vt -0.00000 1.89500
f 290/1792 331/1793 329/1794
vt 0.07136 1.65992
vt -0.00000 1.89500
vt 0.07136 1.89500
f 290/1795 329/1796 297/1797
vt 1.27774 0.34212
vt 1.28524 0.40380
vt 1.36407 0.36839
f 293/1798 292/1799 289/1800
vt 1.27774 0.34212
vt 1.36407 0.36839
vt 1.35576 0.30708
f 293/1801 289/1802 281/1803
vt 1.24590 0.10177
vt 1.23998 0.03153
vt 1.13471 0.04370
f 318/1804 296/1805 335/1806
vt 1.23998 0.03153
vt 1.23298 -0.02610
vt 1.12188 -0.01325
f 296/1807 295/1808 332/1809
vt 1.23998 0.03153
vt 1.12188 -0.01325
vt 1.13471 0.04370
f 296/1810 332/1811 335/1812
vt 1.27774 0.34212
vt 1.26820 0.22635
vt 1.19130 0.38093
f 293/1813 319/1814 294/1815
vt 0.07136 1.28524
vt -0.00000 1.29082
vt -0.00000 1.36407
f 292/1816 328/1817 330/1818
vt 0.07136 1.28524
vt -0.00000 1.36407
vt 0.07136 1.36407
f 292/1819 330/1820 289/1821
vt -0.00000 1.22833
vt 0.07136 1.23298
vt 0.07136 1.35460
f 333/1822 295/1823 285/1824
vt -0.00000 1.22833
vt 0.07136 1.35460
vt -0.00000 1.35460
f 333/1825 285/1826 284/1827
vt 1.64115 -0.17106
vt 1.75665 -0.32627
vt 2.00106 -0.21954
f 336/1828 337/1829 338/1830
vt 1.64115 -0.17106
vt 2.00106 -0.21954
vt 1.84892 -0.01458
f 336/1831 338/1832 339/1833
vt -0.00000 1.46413
vt 0.00000 1.59490
vt -0.07136 1.59490
f 275/1834 278/1835 340/1836
vt -0.00000 1.46413
vt -0.07136 1.59490
vt -0.07136 1.46413
f 275/1837 340/1838 341/1839
vt 1.36738 0.01679
vt 1.49068 -0.04820
vt 1.63307 0.18985
f 342/1840 343/1841 344/1842
vt 1.36738 0.01679
vt 1.63307 0.18985
vt 1.35576 0.30708
f 342/1843 344/1844 345/1845
vt 1.36738 0.01679
vt 1.35576 0.30708
vt 1.36320 0.11879
f 342/1846 345/1847 346/1848
vt -0.00000 1.35460
vt -0.00000 1.46413
vt -0.07136 1.46413
f 284/1849 275/1850 341/1851
vt -0.00000 1.35460
vt -0.07136 1.46413
vt -0.07136 1.35460
f 284/1852 341/1853 347/1854
vt 1.49068 -0.04820
vt 1.64115 -0.17106
vt 1.84892 -0.01458
f 343/1855 336/1856 339/1857
vt 1.49068 -0.04820
vt 1.84892 -0.01458
vt 1.63307 0.18985
f 343/1858 339/1859 344/1860
vt 1.78386 -0.58115
vt 1.84328 -0.54876
vt 1.75665 -0.32627
f 348/1861 349/1862 337/1863
vt 1.78386 -0.58115
vt 1.75665 -0.32627
vt 1.70217 -0.35007
f 348/1864 337/1865 350/1866
vt 1.46413 -0.09913
vt 1.49068 -0.04820
vt 1.36738 0.01679
f 341/1867 343/1868 342/1869
vt 1.46413 -0.09913
vt 1.36738 0.01679
vt 1.35460 -0.04017
f 341/1870 342/1871 347/1872
vt 1.63307 0.18985
vt 1.65992 0.24134
vt 1.36407 0.36839
f 344/1873 351/1874 352/1875
vt 1.63307 0.18985
vt 1.36407 0.36839
vt 1.35576 0.30708
f 344/1876 352/1877 345/1878
vt 1.19965 0.44223
vt 1.19130 0.38093
vt 1.27774 0.34212
f 353/1879 354/1880 355/1881
vt 1.19965 0.44223
vt 1.27774 0.34212
vt 1.28524 0.40380
f 353/1882 355/1883 356/1884
vt 1.35460 -0.04017
vt 1.36738 0.01679
vt 1.23998 0.03153
f 347/1885 342/1886 357/1887
vt 1.35460 -0.04017
vt 1.23998 0.03153
vt 1.23298 -0.02610
f 347/1888 357/1889 358/1890
vt 1.84892 -0.01458
vt 1.89500 0.02013
vt 1.65992 0.24134
f 339/1891 359/1892 351/1893
vt 1.84892 -0.01458
vt 1.65992 0.24134
vt 1.63307 0.18985
f 339/1894 351/1895 344/1896
vt 1.59490 -0.20589
vt 1.64115 -0.17106
vt 1.49068 -0.04820
f 340/1897 336/1898 343/1899
vt 1.59490 -0.20589
vt 1.49068 -0.04820
vt 1.46413 -0.09913
f 340/1900 343/1901 341/1902
vt 2.00106 -0.21954
vt 2.05533 -0.19584
vt 1.89500 0.02013
f 338/1903 360/1904 359/1905
vt 2.00106 -0.21954
vt 1.89500 0.02013
vt 1.84892 -0.01458
f 338/1906 359/1907 339/1908
vt 1.70217 -0.35007
vt 1.75665 -0.32627
vt 1.64115 -0.17106
f 350/1909 337/1910 336/1911
vt 1.70217 -0.35007
vt 1.64115 -0.17106
vt 1.59490 -0.20589
f 350/1912 336/1913 340/1914
vt 1.75665 -0.32627
vt 1.84328 -0.54876
vt 2.10760 -0.41053
f 337/1915 349/1916 361/1917
vt 1.75665 -0.32627
vt 2.10760 -0.41053
vt 2.00106 -0.21954
f 337/1918 361/1919 338/1920
vt 0.00000 -0.35007
vt 0.00000 -0.58115
vt -0.07492 -0.58115
f 300/1921 301/1922 348/1923
vt 0.00000 -0.35007
vt -0.07492 -0.58115
vt -0.07136 -0.35007
f 300/1924 348/1925 350/1926
vt 0.00000 -0.20589
vt 0.00000 -0.35007
vt -0.07136 -0.35007
f 278/1927 300/1928 350/1929
vt 0.00000 -0.20589
vt -0.07136 -0.35007
vt -0.07136 -0.20589
f 278/1930 350/1931 340/1932
vt 2.15650 -0.42581
vt 2.16667 -0.37833
vt 2.10760 -0.41053
f 362/1933 363/1934 361/1935
vt 2.15650 -0.42581
vt 2.10760 -0.41053
vt 2.09899 -0.48068
f 362/1936 361/1937 364/1938
vt -0.07391 1.92773
vt -0.11212 1.84328
vt -0.07492 1.78386
f 365/1939 349/1940 348/1941
vt 1.92773 -0.57403
vt 1.78386 -0.58115
vt 1.83826 -0.59928
f 365/1942 348/1943 366/1944
vt 0.00000 -0.42581
vt 0.00000 -0.37833
vt -0.07492 -0.37833
f 307/1945 308/1946 363/1947
vt 0.00000 -0.42581
vt -0.07492 -0.37833
vt -0.06598 -0.42581
f 307/1948 363/1949 362/1950
vt 2.05533 -0.19584
vt 2.00106 -0.21954
vt 2.10760 -0.41053
f 360/1951 338/1952 361/1953
vt 2.05533 -0.19584
vt 2.10760 -0.41053
vt 2.16667 -0.37833
f 360/1954 361/1955 363/1956
vt 0.00000 2.09899
vt 0.00000 2.15650
vt -0.06598 2.15650
f 309/1957 307/1958 362/1959
vt 0.00000 2.09899
vt -0.06598 2.15650
vt -0.07391 2.09899
f 309/1960 362/1961 364/1962
vt 1.84328 -0.54876
vt 1.92773 -0.57403
vt 2.09899 -0.48068
f 349/1963 365/1964 364/1965
vt 1.84328 -0.54876
vt 2.09899 -0.48068
vt 2.10760 -0.41053
f 349/1966 364/1967 361/1968
vt -0.07136 0.02543
vt -0.08313 0.01061
vt -0.12138 0.07319
f 367/1969 368/1970 369/1971
vt -0.07136 0.02543
vt -0.12138 0.07319
vt -0.10419 0.08378
f 367/1972 369/1973 370/1974
vt -0.10419 0.46259
vt -0.12138 0.47956
vt -0.08313 0.54584
f 371/1975 372/1976 373/1977
vt -0.10419 0.46259
vt -0.08313 0.54584
vt -0.07136 0.52438
f 371/1978 373/1979 374/1980
vt 1.36320 0.11879
vt 1.24590 0.10177
vt 1.23998 0.03153
f 346/1981 375/1982 357/1983
vt 1.36320 0.11879
vt 1.23998 0.03153
vt 1.36738 0.01679
f 346/1984 357/1985 342/1986
vt 1.36320 0.11879
vt 1.35576 0.30708
vt 1.27774 0.34212
f 346/1987 345/1988 355/1989
vt 1.36320 0.11879
vt 1.27774 0.34212
vt 1.26820 0.22635
f 346/1990 355/1991 376/1992
vt -0.10419 0.08378
vt -0.12138 0.07319
vt -0.12138 0.47956
f 370/1993 369/1994 372/1995
vt -0.10419 0.08378
vt -0.12138 0.47956
vt -0.10419 0.46259
f 370/1996 372/1997 371/1998
vt -0.00000 0.02543
vt -0.00000 0.01061
vt -0.08313 0.01061
f 320/1999 321/2000 368/2001
vt -0.00000 0.02543
vt -0.08313 0.01061
vt -0.07136 0.02543
f 320/2002 368/2003 367/2004
vt -0.07136 0.52438
vt -0.08313 0.54584
vt -0.00000 0.54584
f 374/2005 373/2006 323/2007
vt -0.07136 0.52438
vt -0.00000 0.54584
vt -0.00000 0.52438
f 374/2008 323/2009 322/2010
vt -0.07391 1.92773
vt -0.06595 1.83826
vt 0.00000 1.83826
f 365/2011 366/2012 325/2013
vt -0.07391 1.92773
vt 0.00000 1.83826
vt 0.00000 1.92773
f 365/2014 325/2015 324/2016
vt -0.06595 1.83826
vt -0.07492 1.78386
vt 0.00000 1.78386
f 366/2017 348/2018 301/2019
vt -0.06595 1.83826
vt 0.00000 1.78386
vt 0.00000 1.83826
f 366/2020 301/2021 325/2022
vt -0.07391 2.09899
vt -0.07391 1.92773
vt 0.00000 1.92773
f 364/2023 365/2024 324/2025
vt -0.07391 2.09899
vt 0.00000 1.92773
vt 0.00000 2.09899
f 364/2026 324/2027 309/2028
vt -0.07136 -0.19584
vt -0.07492 -0.37833
vt 0.00000 -0.37833
f 360/2029 363/2030 308/2031
vt -0.07136 -0.19584
vt 0.00000 -0.37833
vt 0.00000 -0.19584
f 360/2032 308/2033 326/2034
vt -0.07136 1.19965
vt -0.07136 1.28524
vt -0.00000 1.29082
f 353/2035 356/2036 328/2037
vt -0.07136 1.19965
vt -0.00000 1.29082
vt -0.00000 1.19965
f 353/2038 328/2039 327/2040
vt -0.07136 0.02013
vt -0.07136 -0.19584
vt 0.00000 -0.19584
f 359/2041 360/2042 326/2043
vt -0.07136 0.02013
vt 0.00000 -0.19584
vt -0.00000 0.02013
f 359/2044 326/2045 329/2046
vt -0.07136 1.36407
vt -0.07136 1.65992
vt -0.00000 1.65992
f 352/2047 351/2048 331/2049
vt -0.07136 1.36407
vt -0.00000 1.65992
vt -0.00000 1.36407
f 352/2050 331/2051 330/2052
vt -0.07136 1.12188
vt -0.00000 1.12188
vt -0.00000 1.22833
f 377/2053 334/2054 333/2055
vt -0.07136 1.12188
vt -0.00000 1.22833
vt -0.07136 1.23298
f 377/2056 333/2057 358/2058
vt -0.07136 1.65992
vt -0.07136 1.89500
vt -0.00000 1.89500
f 351/2059 359/2060 329/2061
vt -0.07136 1.65992
vt -0.00000 1.89500
vt -0.00000 1.65992
f 351/2062 329/2063 331/2064
vt 1.27774 0.34212
vt 1.35576 0.30708
vt 1.36407 0.36839
f 355/2065 345/2066 352/2067
vt 1.27774 0.34212
vt 1.36407 0.36839
vt 1.28524 0.40380
f 355/2068 352/2069 356/2070
vt 1.24590 0.10177
vt 1.13471 0.04370
vt 1.23998 0.03153
f 375/2071 378/2072 357/2073
vt 1.23998 0.03153
vt 1.13471 0.04370
vt 1.12188 -0.01325
f 357/2074 378/2075 377/2076
vt 1.23998 0.03153
vt 1.12188 -0.01325
vt 1.23298 -0.02610
f 357/2077 377/2078 358/2079
vt 1.27774 0.34212
vt 1.19130 0.38093
vt 1.26820 0.22635
f 355/2080 354/2081 376/2082
vt -0.07136 1.28524
vt -0.07136 1.36407
vt -0.00000 1.36407
f 356/2083 352/2084 330/2085
vt -0.07136 1.28524
vt -0.00000 1.36407
vt -0.00000 1.29082
f 356/2086 330/2087 328/2088
vt -0.00000 1.22833
vt -0.00000 1.35460
vt -0.07136 1.35460
f 333/2089 284/2090 347/2091
vt -0.00000 1.22833
vt -0.07136 1.35460
vt -0.07136 1.23298
f 333/2092 347/2093 358/2094
vt 0.07136 0.44223
vt 0.10419 0.38093
vt 0.12138 0.37762
f 291/2095 294/2096 379/2097
vt 0.07136 0.44223
vt 0.12138 0.37762
vt 0.08313 0.46060
f 291/2098 379/2099 380/2100
vt 1.12371 0.05028
vt 1.17814 0.37762
vt 1.26546 0.20375
f 381/2101 379/2102 382/2103
vt 1.12371 0.05028
vt 1.26546 0.20375
vt 1.24706 0.11125
f 381/2104 382/2105 383/2106
vt 1.12371 0.05028
vt 1.10897 -0.03089
vt 0.74901 0.01061
f 381/2107 384/2108 313/2109
vt 1.12371 0.05028
vt 0.74901 0.01061
vt 0.75109 0.07319
f 381/2110 313/2111 312/2112
vt 1.17814 0.37762
vt 1.12371 0.05028
vt 0.75109 0.07319
f 379/2113 381/2114 312/2115
vt 1.17814 0.37762
vt 0.75109 0.07319
vt 0.74691 0.47956
f 379/2116 312/2117 317/2118
vt 1.18458 0.46060
vt 1.17814 0.37762
vt 0.74691 0.47956
f 380/2119 379/2120 317/2121
vt 1.18458 0.46060
vt 0.74691 0.47956
vt 0.74379 0.54584
f 380/2122 317/2123 316/2124
vt -0.00000 1.18458
vt 0.08313 1.18458
vt 0.08313 0.74379
f 385/2125 380/2126 316/2127
vt -0.00000 1.18458
vt 0.08313 0.74379
vt -0.00000 0.74379
f 385/2128 316/2129 323/2130
vt 0.10419 1.36320
vt 0.10419 1.24590
vt 0.12138 1.24706
f 280/2131 318/2132 383/2133
vt 0.10419 1.36320
vt 0.12138 1.24706
vt 0.12138 1.34108
f 280/2134 383/2135 386/2136
vt 0.10419 0.04370
vt 0.07136 -0.01325
vt 0.08313 -0.03089
f 335/2137 332/2138 384/2139
vt 0.10419 0.04370
vt 0.08313 -0.03089
vt 0.12138 0.05028
f 335/2140 384/2141 381/2142
vt 0.10419 0.38093
vt 0.10419 0.22635
vt 0.12138 0.20375
f 294/2143 319/2144 382/2145
vt 0.10419 0.38093
vt 0.12138 0.20375
vt 0.12138 0.37762
f 294/2146 382/2147 379/2148
vt -0.00000 0.44223
vt 0.07136 0.44223
vt 0.08313 0.46060
f 327/2149 291/2150 380/2151
vt -0.00000 0.44223
vt 0.08313 0.46060
vt -0.00000 0.46060
f 327/2152 380/2153 385/2154
vt 0.08313 1.10897
vt -0.00000 1.10897
vt -0.00000 0.74901
f 384/2155 387/2156 321/2157
vt 0.08313 1.10897
vt -0.00000 0.74901
vt 0.08313 0.74901
f 384/2158 321/2159 313/2160
vt 0.07136 -0.01325
vt -0.00000 -0.01325
vt -0.00000 -0.03089
f 332/2161 334/2162 387/2163
vt 0.07136 -0.01325
vt -0.00000 -0.03089
vt 0.08313 -0.03089
f 332/2164 387/2165 384/2166
vt 1.26546 0.20375
vt 1.26820 0.22635
vt 1.36320 0.11879
f 382/2167 319/2168 280/2169
vt 1.26546 0.20375
vt 1.36320 0.11879
vt 1.34108 0.12278
f 382/2170 280/2171 386/2172
vt 0.12138 1.24706
vt 0.10419 1.24590
vt 0.10419 1.13471
f 383/2173 318/2174 335/2175
vt 0.12138 1.24706
vt 0.10419 1.13471
vt 0.12138 1.12371
f 383/2176 335/2177 381/2178
vt 1.24706 0.11125
vt 1.26546 0.20375
vt 1.34108 0.12278
f 383/2179 382/2180 386/2181
vt -0.07136 0.44223
vt -0.08313 0.46060
vt -0.12138 0.37762
f 353/2182 388/2183 389/2184
vt -0.07136 0.44223
vt -0.12138 0.37762
vt -0.10419 0.38093
f 353/2185 389/2186 354/2187
vt 1.12371 0.05028
vt 1.24706 0.11125
vt 1.26546 0.20375
f 390/2188 391/2189 392/2190
vt 1.12371 0.05028
vt 1.26546 0.20375
vt 1.17814 0.37762
f 390/2191 392/2192 389/2193
vt 1.12371 0.05028
vt 0.75109 0.07319
vt 0.74901 0.01061
f 390/2194 369/2195 368/2196
vt 1.12371 0.05028
vt 0.74901 0.01061
vt 1.10897 -0.03089
f 390/2197 368/2198 393/2199
vt 1.17814 0.37762
vt 0.74691 0.47956
vt 0.75109 0.07319
f 389/2200 372/2201 369/2202
vt 1.17814 0.37762
vt 0.75109 0.07319
vt 1.12371 0.05028
f 389/2203 369/2204 390/2205
vt 1.18458 0.46060
vt 0.74379 0.54584
vt 0.74691 0.47956
f 388/2206 373/2207 372/2208
vt 1.18458 0.46060
vt 0.74691 0.47956
vt 1.17814 0.37762
f 388/2209 372/2210 389/2211
vt -0.00000 1.18458
vt -0.00000 0.74379
vt -0.08313 0.74379
f 385/2212 323/2213 373/2214
vt -0.00000 1.18458
vt -0.08313 0.74379
vt -0.08313 1.18458
f 385/2215 373/2216 388/2217
vt -0.10419 1.36320
vt -0.12138 1.34108
vt -0.12138 1.24706
f 346/2218 394/2219 391/2220
vt -0.10419 1.36320
vt -0.12138 1.24706
vt -0.10419 1.24590
f 346/2221 391/2222 375/2223
vt -0.10419 0.04370
vt -0.12138 0.05028
vt -0.08313 -0.03089
f 378/2224 390/2225 393/2226
vt -0.10419 0.04370
vt -0.08313 -0.03089
vt -0.07136 -0.01325
f 378/2227 393/2228 377/2229
vt -0.10419 0.38093
vt -0.12138 0.37762
vt -0.12138 0.20375
f 354/2230 389/2231 392/2232
vt -0.10419 0.38093
vt -0.12138 0.20375
vt -0.10419 0.22635
f 354/2233 392/2234 376/2235
vt -0.00000 0.44223
vt -0.00000 0.46060
vt -0.08313 0.46060
f 327/2236 385/2237 388/2238
vt -0.00000 0.44223
vt -0.08313 0.46060
vt -0.07136 0.44223
f 327/2239 388/2240 353/2241
vt -0.08313 1.10897
vt -0.08313 0.74901
vt -0.00000 0.74901
f 393/2242 368/2243 321/2244
vt -0.08313 1.10897
vt -0.00000 0.74901
vt -0.00000 1.10897
f 393/2245 321/2246 387/2247
vt -0.07136 -0.01325
vt -0.08313 -0.03089
vt -0.00000 -0.03089
f 377/2248 393/2249 387/2250
vt -0.07136 -0.01325
vt -0.00000 -0.03089
vt -0.00000 -0.01325
f 377/2251 387/2252 334/2253
vt 1.26546 0.20375
vt 1.34108 0.12278
vt 1.36320 0.11879
f 392/2254 394/2255 346/2256
vt 1.26546 0.20375
vt 1.36320 0.11879
vt 1.26820 0.22635
f 392/2257 346/2258 376/2259
vt -0.12138 1.24706
vt -0.12138 1.12371
vt -0.10419 1.13471
f 391/2260 390/2261 378/2262
vt -0.12138 1.24706
vt -0.10419 1.13471
vt -0.10419 1.24590
f 391/2263 378/2264 375/2265
vt 1.24706 0.11125
vt 1.34108 0.12278
vt 1.26546 0.20375
f 391/2266 394/2267 392/2268
vt -0.15475 0.08572
vt -0.15475 0.33618
vt -1.77258 0.33618
f 395/2269 396/2270 397/2271
vt -0.15475 0.08572
vt -1.77258 0.33618
vt -1.77258 0.31767
f 395/2272 397/2273 398/2274
vt -0.15475 0.08572
vt -1.77258 0.31767
vt -1.70441 0.24197
f 395/2275 398/2276 399/2277
vt -0.10482 0.24743
vt 0.10498 0.24743
vt 0.09207 0.19997
f 400/2278 401/2279 402/2280
vt -0.10482 0.24743
vt 0.09207 0.19997
vt -0.09209 0.19997
f 400/2281 402/2282 403/2283
vt -0.15475 0.33427
vt -0.15475 0.08570
vt -1.70437 0.24183
f 404/2284 405/2285 406/2286
vt -0.15475 0.33427
vt -1.70437 0.24183
vt -1.77258 0.31756
f 404/2287 406/2288 407/2289
vt -0.15475 0.33427
vt -1.77258 0.31756
vt -1.77258 0.33427
f 404/2290 407/2291 408/2292
vt -0.19180 -0.15475
vt 0.19180 -0.15475
vt 0.16068 -1.77258
f 396/2293 404/2294 408/2295
vt -0.19180 -0.15475
vt 0.16068 -1.77258
vt -0.16068 -1.77258
f 396/2296 408/2297 397/2298
vt 0.15565 0.31756
vt 0.13207 0.26797
vt 0.10498 0.24743
f 407/2299 409/2300 401/2301
vt 0.15565 0.31756
vt 0.10498 0.24743
vt -0.10482 0.24743
f 407/2302 401/2303 400/2304
vt 0.15565 0.31756
vt -0.10482 0.24743
vt -0.13182 0.26800
f 407/2305 400/2306 410/2307
vt 0.15565 0.31756
vt -0.13182 0.26800
vt -0.15519 0.31767
f 407/2308 410/2309 398/2310
vt 0.15565 0.31756
vt -0.15519 0.31767
vt -0.16068 0.33618
f 407/2311 398/2312 397/2313
vt 0.15565 0.31756
vt -0.16068 0.33618
vt 0.16068 0.33427
f 407/2314 397/2315 408/2316
vt 0.10990 0.03667
vt 0.13712 0.05103
vt 0.15289 0.08570
f 411/2317 412/2318 405/2319
vt 0.10990 0.03667
vt 0.15289 0.08570
vt 0.19180 0.33427
f 411/2320 405/2321 404/2322
vt 0.10990 0.03667
vt 0.19180 0.33427
vt -0.19180 0.33618
f 411/2323 404/2324 396/2325
vt 0.10990 0.03667
vt -0.19180 0.33618
vt -0.15285 0.08572
f 411/2326 396/2327 395/2328
vt 0.10990 0.03667
vt -0.15285 0.08572
vt -0.13712 0.05103
f 411/2329 395/2330 413/2331
vt 0.10990 0.03667
vt -0.13712 0.05103
vt -0.10993 0.03667
f 411/2332 413/2333 414/2334
vt -1.70441 0.24197
vt -1.77258 0.31767
vt -1.77258 0.26800
f 399/2335 398/2336 410/2337
vt -1.70441 0.24197
vt -1.77258 0.26800
vt -1.72240 0.21228
f 399/2338 410/2339 415/2340
vt -0.11687 -1.72240
vt -0.13182 -1.77258
vt -0.10482 -1.77258
f 415/2341 410/2342 400/2343
vt -0.11687 -1.72240
vt -0.10482 -1.77258
vt -0.09209 -1.72985
f 415/2344 400/2345 403/2346
vt -1.77258 0.31756
vt -1.70437 0.24183
vt -1.72239 0.21223
f 407/2347 406/2348 416/2349
vt -1.77258 0.31756
vt -1.72239 0.21223
vt -1.77258 0.26797
f 407/2350 416/2351 409/2352
vt 0.13207 -1.77258
vt 0.11691 -1.72239
vt 0.09207 -1.72985
f 409/2353 416/2354 402/2355
vt 0.13207 -1.77258
vt 0.09207 -1.72985
vt 0.10498 -1.77258
f 409/2356 402/2357 401/2358
vt -1.70437 0.24183
vt -0.15475 0.08570
vt -0.15475 0.05103
f 406/2359 405/2360 412/2361
vt -1.70437 0.24183
vt -0.15475 0.05103
vt -1.72239 0.21223
f 406/2362 412/2363 416/2364
vt 0.11691 -1.72239
vt 0.13712 -0.15475
vt 0.10990 -0.15475
f 416/2365 412/2366 411/2367
vt 0.11691 -1.72239
vt 0.10990 -0.15475
vt 0.09207 -1.72985
f 416/2368 411/2369 402/2370
vt -0.15475 0.08572
vt -1.70441 0.24197
vt -1.72240 0.21228
f 395/2371 399/2372 415/2373
vt -0.15475 0.08572
vt -1.72240 0.21228
vt -0.15475 0.05103
f 395/2374 415/2375 413/2376
vt -0.13712 -0.15475
vt -0.11687 -1.72240
vt -0.09209 -1.72985
f 413/2377 415/2378 403/2379
vt -0.13712 -0.15475
vt -0.09209 -1.72985
vt -0.10993 -0.15475
f 413/2380 403/2381 414/2382
vt 0.10990 -0.15475
vt -0.10993 -0.15475
vt -0.09209 -1.72985
f 411/2383 414/2384 403/2385
vt 0.10990 -0.15475
vt -0.09209 -1.72985
vt 0.09207 -1.72985
f 411/2386 403/2387 402/2388
o Hardware
usemtl PlumDark
vt 0.04622 1.34998
vt 0.04633 1.28628
vt -0.04633 1.28628
f 417/2389 418/2390 419/2391
vt 0.04622 1.34998
vt -0.04633 1.28628
vt -0.04622 1.34998
f 417/2392 419/2393 420/2394
vt 1.33770 -0.13549
vt 1.29110 -0.12818
vt 1.27291 -0.17376
f 421/2395 422/2396 423/2397
vt 1.33770 -0.13549
vt 1.27291 -0.17376
vt 1.31667 -0.17345
f 421/2398 423/2399 424/2400
vt 1.34998 -0.02132
vt 1.28628 -0.01769
vt 1.29110 -0.12818
f 420/2401 419/2402 422/2403
vt 1.34998 -0.02132
vt 1.29110 -0.12818
vt 1.33770 -0.13549
f 420/2404 422/2405 421/2406
vt -0.04633 -0.01769
vt 0.04633 -0.01769
vt 0.03922 -0.12818
f 419/2407 418/2408 425/2409
vt -0.04633 -0.01769
vt 0.03922 -0.12818
vt -0.03922 -0.12818
f 419/2410 425/2411 422/2412
vt 1.28628 -0.01769
vt 1.34998 -0.02132
vt 1.33770 -0.13549
f 418/2413 417/2414 426/2415
vt 1.28628 -0.01769
vt 1.33770 -0.13549
vt 1.29110 -0.12818
f 418/2416 426/2417 425/2418
vt 0.04622 -0.02132
vt -0.04622 -0.02132
vt -0.04409 -0.13549
f 417/2419 420/2420 421/2421
vt 0.04622 -0.02132
vt -0.04409 -0.13549
vt 0.04409 -0.13549
f 417/2422 421/2423 426/2424
vt 1.27291 -0.17376
vt 1.31667 -0.17345
vt 1.26270 -0.23584
f 427/2425 428/2426 429/2427
vt 1.27291 -0.17376
vt 1.26270 -0.23584
vt 1.24270 -0.20977
f 427/2428 429/2429 430/2430
vt -0.03922 -0.12818
vt 0.03922 -0.12818
vt 0.03343 -0.17376
f 422/2431 425/2432 427/2433
vt -0.03922 -0.12818
vt 0.03343 -0.17376
vt -0.03343 -0.17376
f 422/2434 427/2435 423/2436
vt 1.29110 -0.12818
vt 1.33770 -0.13549
vt 1.31667 -0.17345
f 425/2437 426/2438 428/2439
vt 1.29110 -0.12818
vt 1.31667 -0.17345
vt 1.27291 -0.17376
f 425/2440 428/2441 427/2442
vt 0.04409 -0.13549
vt -0.04409 -0.13549
vt -0.03813 -0.17345
f 426/2443 421/2444 424/2445
vt 0.04409 -0.13549
vt -0.03813 -0.17345
vt 0.03813 -0.17345
f 426/2446 424/2447 428/2448
vt 1.26270 -0.23584
vt 1.24270 -0.20977
vt 1.17941 -0.23017
f 431/2449 432/2450 433/2451
vt 1.26270 -0.23584
vt 1.17941 -0.23017
vt 1.18465 -0.26405
f 431/2452 433/2453 434/2454
vt 0.03813 -0.17345
vt -0.03813 -0.17345
vt -0.02966 -0.23584
f 428/2455 424/2456 431/2457
vt 0.03813 -0.17345
vt -0.02966 -0.23584
vt 0.02966 -0.23584
f 428/2458 431/2459 429/2460
vt 1.31667 -0.17345
vt 1.27291 -0.17376
vt 1.24270 -0.20977
f 424/2461 423/2462 432/2463
vt 1.31667 -0.17345
vt 1.24270 -0.20977
vt 1.26270 -0.23584
f 424/2464 432/2465 431/2466
vt -0.03343 -0.17376
vt 0.03343 -0.17376
vt 0.02556 -0.20977
f 423/2467 427/2468 430/2469
vt -0.03343 -0.17376
vt 0.02556 -0.20977
vt -0.02556 -0.20977
f 423/2470 430/2471 432/2472
vt -0.02038 1.17941
vt 0.02038 1.17941
vt 0.02039 1.09103
f 433/2473 435/2474 436/2475
vt -0.02038 1.17941
vt 0.02039 1.09103
vt -0.02039 1.09103
f 433/2476 436/2477 437/2478
vt -0.02556 1.24270
vt 0.02556 1.24270
vt 0.02038 1.17941
f 432/2479 430/2480 435/2481
vt -0.02556 1.24270
vt 0.02038 1.17941
vt -0.02038 1.17941
f 432/2482 435/2483 433/2484
vt 1.24270 -0.20977
vt 1.26270 -0.23584
vt 1.18465 -0.26405
f 430/2485 429/2486 438/2487
vt 1.24270 -0.20977
vt 1.18465 -0.26405
vt 1.17941 -0.23017
f 430/2488 438/2489 435/2490
vt 0.02966 1.26270
vt -0.02966 1.26270
vt -0.02074 1.18465
f 429/2491 431/2492 434/2493
vt 0.02966 1.26270
vt -0.02074 1.18465
vt 0.02074 1.18465
f 429/2494 434/2495 438/2496
vt 1.09103 -0.23066
vt 1.08869 -0.26028
vt 0.92684 -0.22148
f 436/2497 439/2498 440/2499
vt 1.09103 -0.23066
vt 0.92684 -0.22148
vt 0.92861 -0.19790
f 436/2500 440/2501 441/2502
vt 1.17941 -0.23017
vt 1.18465 -0.26405
vt 1.08869 -0.26028
f 435/2503 438/2504 439/2505
vt 1.17941 -0.23017
vt 1.08869 -0.26028
vt 1.09103 -0.23066
f 435/2506 439/2507 436/2508
vt 0.02074 1.18465
vt -0.02074 1.18465
vt -0.02048 1.08869
f 438/2509 434/2510 442/2511
vt 0.02074 1.18465
vt -0.02048 1.08869
vt 0.02048 1.08869
f 438/2512 442/2513 439/2514
vt 1.18465 -0.26405
vt 1.17941 -0.23017
vt 1.09103 -0.23066
f 434/2515 433/2516 437/2517
vt 1.18465 -0.26405
vt 1.09103 -0.23066
vt 1.08869 -0.26028
f 434/2518 437/2519 442/2520
vt 0.92684 -0.22148
vt 0.92861 -0.19790
vt 0.88941 -0.16862
f 443/2521 444/2522 445/2523
vt 0.92684 -0.22148
vt 0.88941 -0.16862
vt 0.87057 -0.18536
f 443/2524 445/2525 446/2526
vt 0.02048 1.08869
vt -0.02048 1.08869
vt -0.02057 0.92684
f 439/2527 442/2528 443/2529
vt 0.02048 1.08869
vt -0.02057 0.92684
vt 0.02057 0.92684
f 439/2530 443/2531 440/2532
vt 1.08869 -0.26028
vt 1.09103 -0.23066
vt 0.92861 -0.19790
f 442/2533 437/2534 444/2535
vt 1.08869 -0.26028
vt 0.92861 -0.19790
vt 0.92684 -0.22148
f 442/2536 444/2537 443/2538
vt -0.02039 1.09103
vt 0.02039 1.09103
vt 0.02017 0.92861
f 437/2539 436/2540 441/2541
vt -0.02039 1.09103
vt 0.02017 0.92861
vt -0.02017 0.92861
f 437/2542 441/2543 444/2544
vt 0.88941 -0.16862
vt 0.87057 -0.18536
vt 0.83795 -0.10268
f 447/2545 448/2546 449/2547
vt 0.88941 -0.16862
vt 0.83795 -0.10268
vt 0.86501 -0.11038
f 447/2548 449/2549 450/2550
vt -0.02017 0.92861
vt 0.02017 0.92861
vt 0.02025 0.88941
f 444/2551 441/2552 447/2553
vt -0.02017 0.92861
vt 0.02025 0.88941
vt -0.02025 0.88941
f 444/2554 447/2555 445/2556
vt 0.92861 -0.19790
vt 0.92684 -0.22148
vt 0.87057 -0.18536
f 441/2557 440/2558 448/2559
vt 0.92861 -0.19790
vt 0.87057 -0.18536
vt 0.88941 -0.16862
f 441/2560 448/2561 447/2562
vt 0.02057 0.92684
vt -0.02057 0.92684
vt -0.02088 0.87057
f 440/2563 443/2564 446/2565
vt 0.02057 0.92684
vt -0.02088 0.87057
vt 0.02088 0.87057
f 440/2566 446/2567 448/2568
vt 0.86501 -0.11038
vt 0.83795 -0.10268
vt 0.81238 -0.03402
f 450/2569 449/2570 451/2571
vt 0.86501 -0.11038
vt 0.81238 -0.03402
vt 0.85870 -0.04379
f 450/2572 451/2573 452/2574
vt 0.02088 -0.18536
vt -0.02088 -0.18536
vt -0.03107 -0.10268
f 448/2575 446/2576 453/2577
vt 0.02088 -0.18536
vt -0.03107 -0.10268
vt 0.03107 -0.10268
f 448/2578 453/2579 449/2580
vt 0.87057 -0.18536
vt 0.88941 -0.16862
vt 0.86501 -0.11038
f 446/2581 445/2582 454/2583
vt 0.87057 -0.18536
vt 0.86501 -0.11038
vt 0.83795 -0.10268
f 446/2584 454/2585 453/2586
vt -0.02025 -0.16862
vt 0.02025 -0.16862
vt 0.02685 -0.11038
f 445/2587 447/2588 450/2589
vt -0.02025 -0.16862
vt 0.02685 -0.11038
vt -0.02685 -0.11038
f 445/2590 450/2591 454/2592
vt 0.81238 -0.03402
vt 0.85870 -0.04379
vt 0.88386 -0.00226
f 455/2593 456/2594 457/2595
vt 0.81238 -0.03402
vt 0.88386 -0.00226
vt 0.79840 0.01110
f 455/2596 457/2597 458/2598
vt 0.03107 -0.10268
vt -0.03107 -0.10268
vt -0.04341 -0.03402
f 449/2599 453/2600 455/2601
vt 0.03107 -0.10268
vt -0.04341 -0.03402
vt 0.04341 -0.03402
f 449/2602 455/2603 451/2604
vt 0.83795 -0.10268
vt 0.86501 -0.11038
vt 0.85870 -0.04379
f 453/2605 454/2606 456/2607
vt 0.83795 -0.10268
vt 0.85870 -0.04379
vt 0.81238 -0.03402
f 453/2608 456/2609 455/2610
vt -0.02685 -0.11038
vt 0.02685 -0.11038
vt 0.03832 -0.04379
f 454/2611 450/2612 452/2613
vt -0.02685 -0.11038
vt 0.03832 -0.04379
vt -0.03832 -0.04379
f 454/2614 452/2615 456/2616
vt 0.88386 -0.00226
vt 0.79840 0.01110
vt 0.79819 0.05260
f 459/2617 460/2618 461/2619
vt 0.88386 -0.00226
vt 0.79819 0.05260
vt 0.89433 0.03802
f 459/2620 461/2621 462/2622
vt -0.03832 -0.04379
vt 0.03832 -0.04379
vt 0.04384 -0.00226
f 456/2623 452/2624 459/2625
vt -0.03832 -0.04379
vt 0.04384 -0.00226
vt -0.04384 -0.00226
f 456/2626 459/2627 457/2628
vt 0.85870 -0.04379
vt 0.81238 -0.03402
vt 0.79840 0.01110
f 452/2629 451/2630 460/2631
vt 0.85870 -0.04379
vt 0.79840 0.01110
vt 0.88386 -0.00226
f 452/2632 460/2633 459/2634
vt 0.04341 -0.03402
vt -0.04341 -0.03402
vt -0.04582 0.01110
f 451/2635 455/2636 458/2637
vt 0.04341 -0.03402
vt -0.04582 0.01110
vt 0.04582 0.01110
f 451/2638 458/2639 460/2640
vt 0.04635 0.79819
vt -0.04635 0.79819
vt -0.04633 0.89433
f 461/2641 463/2642 464/2643
vt 0.04635 0.79819
vt -0.04633 0.89433
vt 0.04633 0.89433
f 461/2644 464/2645 462/2646
vt 0.04582 0.01110
vt -0.04582 0.01110
vt -0.04635 0.05260
f 460/2647 458/2648 463/2649
vt 0.04582 0.01110
vt -0.04635 0.05260
vt 0.04635 0.05260
f 460/2650 463/2651 461/2652
vt 0.79840 0.01110
vt 0.88386 -0.00226
vt 0.89433 0.03802
f 458/2653 457/2654 464/2655
vt 0.79840 0.01110
vt 0.89433 0.03802
vt 0.79819 0.05260
f 458/2656 464/2657 463/2658
vt -0.04384 -0.00226
vt 0.04384 -0.00226
vt 0.04633 0.03802
f 457/2659 459/2660 462/2661
vt -0.04384 -0.00226
vt 0.04633 0.03802
vt -0.04633 0.03802
f 457/2662 462/2663 464/2664
vt 0.10963 0.05981
vt -0.10963 0.05981
vt -0.14480 0.11442
f 465/2665 466/2666 467/2667
vt 0.10963 0.05981
vt -0.14480 0.11442
vt -0.14480 0.32973
f 465/2668 467/2669 468/2670
vt 0.10963 0.05981
vt -0.14480 0.32973
vt 0.14480 0.32800
f 465/2671 468/2672 469/2673
vt 0.10963 0.05981
vt 0.14480 0.32800
vt 0.14480 0.11442
f 465/2674 469/2675 470/2676
vt 0.10963 0.57610
vt -0.10963 0.57610
vt -0.10963 -0.17126
f 471/2677 472/2678 466/2679
vt 0.10963 0.57610
vt -0.10963 -0.17126
vt 0.10963 -0.17126
f 471/2680 466/2681 465/2682
vt 0.70129 0.46018
vt 0.78887 0.44509
vt 0.78887 0.54705
f 473/2683 474/2684 475/2685
vt 0.70129 0.46018
vt 0.78887 0.54705
vt 0.70129 0.56233
f 473/2686 475/2687 476/2688
vt 0.57610 -0.00292
vt -0.17126 0.05981
vt -0.17126 0.11442
f 471/2689 465/2690 470/2691
vt 0.57610 -0.00292
vt -0.17126 0.11442
vt 0.57610 0.05169
f 471/2692 470/2693 477/2694
vt 0.70129 -0.01342
vt 0.78887 -0.01143
vt 0.78887 0.06407
f 478/2695 479/2696 480/2697
vt 0.70129 -0.01342
vt 0.78887 0.06407
vt 0.70129 0.04118
f 478/2698 480/2699 481/2700
vt 0.57610 -0.00292
vt 0.70129 -0.01342
vt 0.70129 0.04118
f 472/2701 478/2702 481/2703
vt 0.57610 -0.00292
vt 0.70129 0.04118
vt 0.57610 0.05169
f 472/2704 481/2705 482/2706
vt 0.78887 -0.01143
vt 0.70129 -0.01342
vt 0.70129 0.04118
f 483/2707 484/2708 485/2709
vt 0.78887 -0.01143
vt 0.70129 0.04118
vt 0.78887 0.06407
f 483/2710 485/2711 486/2712
vt 0.57610 0.46193
vt 0.70129 0.46018
vt 0.70129 0.56233
f 487/2713 473/2714 476/2715
vt 0.57610 0.46193
vt 0.70129 0.56233
vt 0.57610 0.56410
f 487/2716 476/2717 488/2718
vt 0.78887 0.44509
vt 0.70129 0.46018
vt 0.70129 0.56233
f 489/2719 490/2720 491/2721
vt 0.78887 0.44509
vt 0.70129 0.56233
vt 0.78887 0.54705
f 489/2722 491/2723 492/2724
vt 0.10963 0.78887
vt -0.10963 0.78887
vt -0.10963 0.70129
f 483/2725 479/2726 478/2727
vt 0.10963 0.78887
vt -0.10963 0.70129
vt 0.10963 0.70129
f 483/2728 478/2729 484/2730
vt 0.78887 0.27236
vt 0.78887 0.44509
vt 0.70129 0.46018
f 493/2731 474/2732 473/2733
vt 0.78887 0.27236
vt 0.70129 0.46018
vt 0.70129 0.28982
f 493/2734 473/2735 494/2736
vt 0.78887 0.27123
vt 0.78887 0.06407
vt 0.70129 0.04118
f 495/2737 486/2738 485/2739
vt 0.78887 0.27123
vt 0.70129 0.04118
vt 0.70129 0.28525
f 495/2740 485/2741 496/2742
vt -0.07965 0.78887
vt 0.07965 0.78887
vt 0.07965 0.70129
f 475/2743 492/2744 491/2745
vt -0.07965 0.78887
vt 0.07965 0.70129
vt -0.07965 0.70129
f 475/2746 491/2747 476/2748
vt 0.57610 0.29138
vt 0.57610 0.05169
vt -0.17126 0.11442
f 497/2749 477/2750 470/2751
vt 0.57610 0.29138
vt -0.17126 0.11442
vt -0.17126 0.32800
f 497/2752 470/2753 469/2754
vt 0.70129 0.28525
vt 0.70129 0.04118
vt 0.57610 0.05169
f 496/2755 485/2756 477/2757
vt 0.70129 0.28525
vt 0.57610 0.05169
vt 0.57610 0.29138
f 496/2758 477/2759 497/2760
vt 0.14480 0.46193
vt 0.14480 0.29138
vt -0.14480 0.29555
f 498/2761 497/2762 499/2763
vt 0.14480 0.46193
vt -0.14480 0.29555
vt -0.14480 0.46193
f 498/2764 499/2765 487/2766
vt 0.14480 0.46193
vt -0.14480 0.46193
vt -0.07965 0.56410
f 498/2767 487/2768 488/2769
vt 0.14480 0.46193
vt -0.07965 0.56410
vt 0.07965 0.56410
f 498/2770 488/2771 500/2772
vt -0.17126 0.05981
vt 0.57610 -0.00292
vt 0.57610 0.05169
f 466/2773 472/2774 482/2775
vt -0.17126 0.05981
vt 0.57610 0.05169
vt -0.17126 0.11442
f 466/2776 482/2777 467/2778
vt 0.70129 -0.01342
vt 0.57610 -0.00292
vt 0.57610 0.05169
f 484/2779 471/2780 477/2781
vt 0.70129 -0.01342
vt 0.57610 0.05169
vt 0.70129 0.04118
f 484/2782 477/2783 485/2784
vt 0.70129 0.46018
vt 0.57610 0.46193
vt 0.57610 0.56410
f 490/2785 498/2786 500/2787
vt 0.70129 0.46018
vt 0.57610 0.56410
vt 0.70129 0.56233
f 490/2788 500/2789 491/2790
vt 0.10963 0.70129
vt -0.10963 0.70129
vt -0.10963 0.57610
f 484/2791 478/2792 472/2793
vt 0.10963 0.70129
vt -0.10963 0.57610
vt 0.10963 0.57610
f 484/2794 472/2795 471/2796
vt 0.70129 0.28982
vt 0.70129 0.46018
vt 0.57610 0.46193
f 494/2797 473/2798 487/2799
vt 0.70129 0.28982
vt 0.57610 0.46193
vt 0.57610 0.29555
f 494/2800 487/2801 499/2802
vt -0.07965 0.70129
vt 0.07965 0.70129
vt 0.07965 0.57610
f 476/2803 491/2804 500/2805
vt -0.07965 0.70129
vt 0.07965 0.57610
vt -0.07965 0.57610
f 476/2806 500/2807 488/2808
vt 0.70129 0.04118
vt 0.70129 0.28982
vt 0.57610 0.29555
f 481/2809 494/2810 499/2811
vt 0.70129 0.04118
vt 0.57610 0.29555
vt 0.57610 0.05169
f 481/2812 499/2813 482/2814
vt 0.78887 0.06407
vt 0.78887 0.27236
vt 0.70129 0.28982
f 480/2815 493/2816 494/2817
vt 0.78887 0.06407
vt 0.70129 0.28982
vt 0.70129 0.04118
f 480/2818 494/2819 481/2820
vt 0.57610 0.05169
vt 0.57610 0.29555
vt -0.17126 0.32973
f 482/2821 499/2822 468/2823
vt 0.57610 0.05169
vt -0.17126 0.32973
vt -0.17126 0.11442
f 482/2824 468/2825 467/2826
vt 0.70129 0.46018
vt 0.70129 0.28525
vt 0.57610 0.29138
f 490/2827 496/2828 497/2829
vt 0.70129 0.46018
vt 0.57610 0.29138
vt 0.57610 0.46193
f 490/2830 497/2831 498/2832
vt 0.14480 0.57610
vt 0.14480 -0.17126
vt -0.14480 -0.17126
f 497/2833 469/2834 468/2835
vt 0.14480 0.57610
vt -0.14480 -0.17126
vt -0.14480 0.57610
f 497/2836 468/2837 499/2838
vt 0.78887 0.44509
vt 0.78887 0.27123
vt 0.70129 0.28525
f 489/2839 495/2840 496/2841
vt 0.78887 0.44509
vt 0.70129 0.28525
vt 0.70129 0.46018
f 489/2842 496/2843 490/2844
vt 0.14480 0.44509
vt 0.07965 0.54705
vt -0.07965 0.54705
f 489/2845 492/2846 475/2847
vt 0.14480 0.44509
vt -0.07965 0.54705
vt -0.14480 0.44509
f 489/2848 475/2849 474/2850
vt 0.14480 0.44509
vt -0.14480 0.44509
vt -0.14480 0.27236
f 489/2851 474/2852 493/2853
vt 0.14480 0.44509
vt -0.14480 0.27236
vt -0.14480 0.06407
f 489/2854 493/2855 480/2856
vt 0.14480 0.44509
vt -0.14480 0.06407
vt -0.10963 -0.01143
f 489/2857 480/2858 479/2859
vt 0.14480 0.44509
vt -0.10963 -0.01143
vt 0.10963 -0.01143
f 489/2860 479/2861 483/2862
vt 0.14480 0.44509
vt 0.10963 -0.01143
vt 0.14480 0.06407
f 489/2863 483/2864 486/2865
vt 0.78887 0.44509
vt 0.78887 0.06407
vt 0.78887 0.27123
f 489/2866 486/2867 495/2868
