# Scope4x — Pink Panic Stage 1 attachment
# faces -Z, up +Y, right +X; origin at the mating face
# authored for this project — no third-party geometry
mtllib pinkpanic.mtl
o Scope4x_Body
g Scope4x_Body
usemtl BodyPink
v 0.00000 0.20000 -0.33000
v 0.09500 0.20000 -0.33000
v 0.09500 0.20000 0.33000
v 0.00000 0.20000 0.33000
v 0.08927 0.23249 -0.33000
v 0.08927 0.23249 0.33000
v 0.07277 0.26106 -0.33000
v 0.07277 0.26106 0.33000
v 0.04750 0.28227 -0.33000
v 0.04750 0.28227 0.33000
v 0.01650 0.29356 -0.33000
v 0.01650 0.29356 0.33000
v -0.01650 0.29356 -0.33000
v -0.01650 0.29356 0.33000
v -0.04750 0.28227 -0.33000
v -0.04750 0.28227 0.33000
v -0.07277 0.26106 -0.33000
v -0.07277 0.26106 0.33000
v -0.08927 0.23249 -0.33000
v -0.08927 0.23249 0.33000
v -0.09500 0.20000 -0.33000
v -0.09500 0.20000 0.33000
v -0.08927 0.16751 -0.33000
v -0.08927 0.16751 0.33000
v -0.07277 0.13894 -0.33000
v -0.07277 0.13894 0.33000
v -0.04750 0.11773 -0.33000
v -0.04750 0.11773 0.33000
v -0.01650 0.10644 -0.33000
v -0.01650 0.10644 0.33000
v 0.01650 0.10644 -0.33000
v 0.01650 0.10644 0.33000
v 0.04750 0.11773 -0.33000
v 0.04750 0.11773 0.33000
v 0.07277 0.13894 -0.33000
v 0.07277 0.13894 0.33000
v 0.08927 0.16751 -0.33000
v 0.08927 0.16751 0.33000
v -0.07500 0.00750 -0.11860
v -0.07500 0.00750 0.15860
v -0.07500 0.08250 -0.11860
v -0.07500 0.08250 0.15860
v 0.07500 0.00750 -0.11860
v 0.07500 0.00750 0.15860
v 0.07500 0.08250 -0.11860
v 0.07500 0.08250 0.15860
v -0.09000 0.06000 -0.15560
v -0.09000 0.06000 -0.05560
v -0.09000 0.11000 -0.15560
v -0.09000 0.11000 -0.05560
v 0.09000 0.06000 -0.15560
v 0.09000 0.06000 -0.05560
v 0.09000 0.11000 -0.15560
v 0.09000 0.11000 -0.05560
v -0.09000 0.06000 0.05560
v -0.09000 0.06000 0.15560
v -0.09000 0.11000 0.05560
v -0.09000 0.11000 0.15560
v 0.09000 0.06000 0.05560
v 0.09000 0.06000 0.15560
v 0.09000 0.11000 0.05560
v 0.09000 0.11000 0.15560
vt 0.00000 0.67294
vt 0.00000 0.67294
vt 0.00000 0.78653
vt 0.00000 0.67294
vt 0.00000 0.78653
vt 1.00000 0.67294
vt 1.00000 0.67294
vt 0.00000 0.78653
vt 1.00000 0.78653
vt 1.00000 0.67294
vt 1.00000 0.78653
vt 1.00000 0.67294
vt 0.00000 0.78653
vt 0.00000 0.67294
vt 0.00000 0.88641
vt 0.00000 0.78653
vt 0.00000 0.88641
vt 1.00000 0.78653
vt 1.00000 0.78653
vt 0.00000 0.88641
vt 1.00000 0.88641
vt 1.00000 0.78653
vt 1.00000 0.88641
vt 1.00000 0.67294
vt 0.00000 0.88641
vt 0.00000 0.67294
vt 0.00000 0.96055
vt 0.00000 0.88641
vt 0.00000 0.96055
vt 1.00000 0.88641
vt 1.00000 0.88641
vt 0.00000 0.96055
vt 1.00000 0.96055
vt 1.00000 0.88641
vt 1.00000 0.96055
vt 1.00000 0.67294
vt 0.00000 0.96055
vt 0.00000 0.67294
vt 0.00000 1.00000
vt 0.00000 0.96055
vt 0.00000 1.00000
vt 1.00000 0.96055
vt 1.00000 0.96055
vt 0.00000 1.00000
vt 1.00000 1.00000
vt 1.00000 0.96055
vt 1.00000 1.00000
vt 1.00000 0.67294
vt 0.00000 1.00000
vt 0.00000 0.67294
vt 0.00000 1.00000
vt 0.00000 1.00000
vt 0.00000 1.00000
vt 1.00000 1.00000
vt 1.00000 1.00000
vt 0.00000 1.00000
vt 1.00000 1.00000
vt 1.00000 1.00000
vt 1.00000 1.00000
vt 1.00000 0.67294
vt 0.00000 1.00000
vt 0.00000 0.67294
vt 0.00000 0.96055
vt 0.00000 1.00000
vt 0.00000 0.96055
vt 1.00000 1.00000
vt 1.00000 1.00000
vt 0.00000 0.96055
vt 1.00000 0.96055
vt 1.00000 1.00000
vt 1.00000 0.96055
vt 1.00000 0.67294
vt 0.00000 0.96055
vt 0.00000 0.67294
vt 0.00000 0.88641
vt 0.00000 0.96055
vt 0.00000 0.88641
vt 1.00000 0.96055
vt 1.00000 0.96055
vt 0.00000 0.88641
vt 1.00000 0.88641
vt 1.00000 0.96055
vt 1.00000 0.88641
vt 1.00000 0.67294
vt 0.00000 0.88641
vt 0.00000 0.67294
vt 0.00000 0.78653
vt 0.00000 0.88641
vt 0.00000 0.78653
vt 1.00000 0.88641
vt 1.00000 0.88641
vt 0.00000 0.78653
vt 1.00000 0.78653
vt 1.00000 0.88641
vt 1.00000 0.78653
vt 1.00000 0.67294
vt 0.00000 0.78653
vt 0.00000 0.67294
vt 0.00000 0.67294
vt 0.00000 0.78653
vt 0.00000 0.67294
vt 1.00000 0.78653
vt 1.00000 0.78653
vt 0.00000 0.67294
vt 1.00000 0.67294
vt 1.00000 0.78653
vt 1.00000 0.67294
vt 1.00000 0.67294
vt 0.00000 0.67294
vt 0.00000 0.67294
vt 0.00000 0.55936
vt 0.00000 0.67294
vt 0.00000 0.55936
vt 1.00000 0.67294
vt 1.00000 0.67294
vt 0.00000 0.55936
vt 1.00000 0.55936
vt 1.00000 0.67294
vt 1.00000 0.55936
vt 1.00000 0.67294
vt 0.00000 0.55936
vt 0.00000 0.67294
vt 0.00000 0.45947
vt 0.00000 0.55936
vt 0.00000 0.45947
vt 1.00000 0.55936
vt 1.00000 0.55936
vt 0.00000 0.45947
vt 1.00000 0.45947
vt 1.00000 0.55936
vt 1.00000 0.45947
vt 1.00000 0.67294
vt 0.00000 0.45947
vt 0.00000 0.67294
vt 0.00000 0.38533
vt 0.00000 0.45947
vt 0.00000 0.38533
vt 1.00000 0.45947
vt 1.00000 0.45947
vt 0.00000 0.38533
vt 1.00000 0.38533
vt 1.00000 0.45947
vt 1.00000 0.38533
vt 1.00000 0.67294
vt 0.00000 0.38533
vt 0.00000 0.67294
vt 0.00000 0.34589
vt 0.00000 0.38533
vt 0.00000 0.34589
vt 1.00000 0.38533
vt 1.00000 0.38533
vt 0.00000 0.34589
vt 1.00000 0.34589
vt 1.00000 0.38533
vt 1.00000 0.34589
vt 1.00000 0.67294
vt 0.00000 0.34589
vt 0.00000 0.67294
vt 0.00000 0.34589
vt 0.00000 0.34589
vt 0.00000 0.34589
vt 1.00000 0.34589
vt 1.00000 0.34589
vt 0.00000 0.34589
vt 1.00000 0.34589
vt 1.00000 0.34589
vt 1.00000 0.34589
vt 1.00000 0.67294
vt 0.00000 0.34589
vt 0.00000 0.67294
vt 0.00000 0.38533
vt 0.00000 0.34589
vt 0.00000 0.38533
vt 1.00000 0.34589
vt 1.00000 0.34589
vt 0.00000 0.38533
vt 1.00000 0.38533
vt 1.00000 0.34589
vt 1.00000 0.38533
vt 1.00000 0.67294
vt 0.00000 0.38533
vt 0.00000 0.67294
vt 0.00000 0.45947
vt 0.00000 0.38533
vt 0.00000 0.45947
vt 1.00000 0.38533
vt 1.00000 0.38533
vt 0.00000 0.45947
vt 1.00000 0.45947
vt 1.00000 0.38533
vt 1.00000 0.45947
vt 1.00000 0.67294
vt 0.00000 0.45947
vt 0.00000 0.67294
vt 0.00000 0.55936
vt 0.00000 0.45947
vt 0.00000 0.55936
vt 1.00000 0.45947
vt 1.00000 0.45947
vt 0.00000 0.55936
vt 1.00000 0.55936
vt 1.00000 0.45947
vt 1.00000 0.55936
vt 1.00000 0.67294
vt 0.00000 0.55936
vt 0.00000 0.67294
vt 0.00000 0.67294
vt 0.00000 0.55936
vt 0.00000 0.67294
vt 1.00000 0.55936
vt 1.00000 0.55936
vt 0.00000 0.67294
vt 1.00000 0.67294
vt 1.00000 0.55936
vt 1.00000 0.67294
vt 1.00000 0.67294
vt 0.74030 0.00000
vt 0.74030 0.26219
vt 0.32030 0.00000
vt 0.32030 0.00000
vt 0.74030 0.00000
vt 0.32030 0.00000
vt 0.32030 0.00000
vt 0.74030 0.26219
vt 0.32030 0.26219
vt 0.32030 0.26219
vt 0.32030 0.00000
vt 0.32030 0.00000
vt 0.74030 0.00000
vt 0.74030 0.26219
vt 0.74030 0.26219
vt 0.74030 0.00000
vt 0.74030 0.00000
vt 0.32030 0.00000
vt 0.74030 0.00000
vt 0.74030 0.26219
vt 0.74030 0.00000
vt 0.74030 0.26219
vt 0.74030 0.26219
vt 0.32030 0.26219
vt 0.32030 0.26219
vt 0.32030 0.00000
vt 0.32030 0.26219
vt 0.32030 0.26219
vt 0.74030 0.26219
vt 0.32030 0.26219
vt 0.32030 0.26219
vt 0.74030 0.00000
vt 0.32030 0.00000
vt 0.74030 0.26219
vt 0.74030 0.00000
vt 0.32030 0.26219
vt 0.41576 0.18353
vt 0.41576 0.35832
vt 0.26424 0.18353
vt 0.26424 0.18353
vt 0.41576 0.18353
vt 0.26424 0.18353
vt 0.26424 0.18353
vt 0.41576 0.35832
vt 0.26424 0.35832
vt 0.26424 0.35832
vt 0.26424 0.18353
vt 0.26424 0.18353
vt 0.41576 0.18353
vt 0.41576 0.35832
vt 0.41576 0.35832
vt 0.41576 0.18353
vt 0.41576 0.18353
vt 0.26424 0.18353
vt 0.41576 0.18353
vt 0.41576 0.35832
vt 0.41576 0.18353
vt 0.41576 0.35832
vt 0.41576 0.35832
vt 0.26424 0.35832
vt 0.26424 0.35832
vt 0.26424 0.18353
vt 0.26424 0.35832
vt 0.26424 0.35832
vt 0.41576 0.35832
vt 0.26424 0.35832
vt 0.26424 0.35832
vt 0.41576 0.18353
vt 0.26424 0.18353
vt 0.41576 0.35832
vt 0.41576 0.18353
vt 0.26424 0.35832
vt 0.73576 0.18353
vt 0.73576 0.35832
vt 0.58424 0.18353
vt 0.58424 0.18353
vt 0.73576 0.18353
vt 0.58424 0.18353
vt 0.58424 0.18353
vt 0.73576 0.35832
vt 0.58424 0.35832
vt 0.58424 0.35832
vt 0.58424 0.18353
vt 0.58424 0.18353
vt 0.73576 0.18353
vt 0.73576 0.35832
vt 0.73576 0.35832
vt 0.73576 0.18353
vt 0.73576 0.18353
vt 0.58424 0.18353
vt 0.73576 0.18353
vt 0.73576 0.35832
vt 0.73576 0.18353
vt 0.73576 0.35832
vt 0.73576 0.35832
vt 0.58424 0.35832
vt 0.58424 0.35832
vt 0.58424 0.18353
vt 0.58424 0.35832
vt 0.58424 0.35832
vt 0.73576 0.35832
vt 0.58424 0.35832
vt 0.58424 0.35832
vt 0.73576 0.18353
vt 0.58424 0.18353
vt 0.73576 0.35832
vt 0.73576 0.18353
vt 0.58424 0.35832
f 2/1 1/2 5/3
f 2/4 5/5 3/6
f 3/7 5/8 6/9
f 3/10 6/11 4/12
f 5/13 1/14 7/15
f 5/16 7/17 6/18
f 6/19 7/20 8/21
f 6/22 8/23 4/24
f 7/25 1/26 9/27
f 7/28 9/29 8/30
f 8/31 9/32 10/33
f 8/34 10/35 4/36
f 9/37 1/38 11/39
f 9/40 11/41 10/42
f 10/43 11/44 12/45
f 10/46 12/47 4/48
f 11/49 1/50 13/51
f 11/52 13/53 12/54
f 12/55 13/56 14/57
f 12/58 14/59 4/60
f 13/61 1/62 15/63
f 13/64 15/65 14/66
f 14/67 15/68 16/69
f 14/70 16/71 4/72
f 15/73 1/74 17/75
f 15/76 17/77 16/78
f 16/79 17/80 18/81
f 16/82 18/83 4/84
f 17/85 1/86 19/87
f 17/88 19/89 18/90
f 18/91 19/92 20/93
f 18/94 20/95 4/96
f 19/97 1/98 21/99
f 19/100 21/101 20/102
f 20/103 21/104 22/105
f 20/106 22/107 4/108
f 21/109 1/110 23/111
f 21/112 23/113 22/114
f 22/115 23/116 24/117
f 22/118 24/119 4/120
f 23/121 1/122 25/123
f 23/124 25/125 24/126
f 24/127 25/128 26/129
f 24/130 26/131 4/132
f 25/133 1/134 27/135
f 25/136 27/137 26/138
f 26/139 27/140 28/141
f 26/142 28/143 4/144
f 27/145 1/146 29/147
f 27/148 29/149 28/150
f 28/151 29/152 30/153
f 28/154 30/155 4/156
f 29/157 1/158 31/159
f 29/160 31/161 30/162
f 30/163 31/164 32/165
f 30/166 32/167 4/168
f 31/169 1/170 33/171
f 31/172 33/173 32/174
f 32/175 33/176 34/177
f 32/178 34/179 4/180
f 33/181 1/182 35/183
f 33/184 35/185 34/186
f 34/187 35/188 36/189
f 34/190 36/191 4/192
f 35/193 1/194 37/195
f 35/196 37/197 36/198
f 36/199 37/200 38/201
f 36/202 38/203 4/204
f 37/205 1/206 2/207
f 37/208 2/209 38/210
f 38/211 2/212 3/213
f 38/214 3/215 4/216
f 40/217 42/218 39/219
f 43/220 40/221 39/222
f 39/223 42/224 41/225
f 41/226 43/227 39/228
f 40/229 46/230 42/231
f 44/232 40/233 43/234
f 44/235 46/236 40/237
f 42/238 46/239 41/240
f 45/241 43/242 41/243
f 41/244 46/245 45/246
f 45/247 44/248 43/249
f 46/250 44/251 45/252
f 48/253 50/254 47/255
f 51/256 48/257 47/258
f 47/259 50/260 49/261
f 49/262 51/263 47/264
f 48/265 54/266 50/267
f 52/268 48/269 51/270
f 52/271 54/272 48/273
f 50/274 54/275 49/276
f 53/277 51/278 49/279
f 49/280 54/281 53/282
f 53/283 52/284 51/285
f 54/286 52/287 53/288
f 56/289 58/290 55/291
f 59/292 56/293 55/294
f 55/295 58/296 57/297
f 57/298 59/299 55/300
f 56/301 62/302 58/303
f 60/304 56/305 59/306
f 60/307 62/308 56/309
f 58/310 62/311 57/312
f 61/313 59/314 57/315
f 57/316 62/317 61/318
f 61/319 60/320 59/321
f 62/322 60/323 61/324
o Scope4x_Detail
g Scope4x_Detail
usemtl GoldSoft
v 0.00000 0.20000 -0.33000
v 0.12350 0.20000 -0.33000
v 0.12350 0.20000 -0.22440
v 0.00000 0.20000 -0.22440
v 0.11605 0.24224 -0.33000
v 0.11605 0.24224 -0.22440
v 0.09461 0.27938 -0.33000
v 0.09461 0.27938 -0.22440
v 0.06175 0.30695 -0.33000
v 0.06175 0.30695 -0.22440
v 0.02145 0.32162 -0.33000
v 0.02145 0.32162 -0.22440
v -0.02145 0.32162 -0.33000
v -0.02145 0.32162 -0.22440
v -0.06175 0.30695 -0.33000
v -0.06175 0.30695 -0.22440
v -0.09461 0.27938 -0.33000
v -0.09461 0.27938 -0.22440
v -0.11605 0.24224 -0.33000
v -0.11605 0.24224 -0.22440
v -0.12350 0.20000 -0.33000
v -0.12350 0.20000 -0.22440
v -0.11605 0.15776 -0.33000
v -0.11605 0.15776 -0.22440
v -0.09461 0.12062 -0.33000
v -0.09461 0.12062 -0.22440
v -0.06175 0.09305 -0.33000
v -0.06175 0.09305 -0.22440
v -0.02145 0.07838 -0.33000
v -0.02145 0.07838 -0.22440
v 0.02145 0.07838 -0.33000
v 0.02145 0.07838 -0.22440
v 0.06175 0.09305 -0.33000
v 0.06175 0.09305 -0.22440
v 0.09461 0.12062 -0.33000
v 0.09461 0.12062 -0.22440
v 0.11605 0.15776 -0.33000
v 0.11605 0.15776 -0.22440
v 0.00000 0.20000 0.25080
v 0.11590 0.20000 0.25080
v 0.11590 0.20000 0.33000
v 0.00000 0.20000 0.33000
v 0.10891 0.23964 0.25080
v 0.10891 0.23964 0.33000
v 0.08878 0.27450 0.25080
v 0.08878 0.27450 0.33000
v 0.05795 0.30037 0.25080
v 0.05795 0.30037 0.33000
v 0.02013 0.31414 0.25080
v 0.02013 0.31414 0.33000
v -0.02013 0.31414 0.25080
v -0.02013 0.31414 0.33000
v -0.05795 0.30037 0.25080
v -0.05795 0.30037 0.33000
v -0.08878 0.27450 0.25080
v -0.08878 0.27450 0.33000
v -0.10891 0.23964 0.25080
v -0.10891 0.23964 0.33000
v -0.11590 0.20000 0.25080
v -0.11590 0.20000 0.33000
v -0.10891 0.16036 0.25080
v -0.10891 0.16036 0.33000
v -0.08878 0.12550 0.25080
v -0.08878 0.12550 0.33000
v -0.05795 0.09963 0.25080
v -0.05795 0.09963 0.33000
v -0.02013 0.08586 0.25080
v -0.02013 0.08586 0.33000
v 0.02013 0.08586 0.25080
v 0.02013 0.08586 0.33000
v 0.05795 0.09963 0.25080
v 0.05795 0.09963 0.33000
v 0.08878 0.12550 0.25080
v 0.08878 0.12550 0.33000
v 0.10891 0.16036 0.25080
v 0.10891 0.16036 0.33000
v 0.00000 0.35500 -0.00000
v 0.03200 0.35500 -0.00000
v 0.03200 0.28500 0.00000
v 0.00000 0.28500 0.00000
v 0.02589 0.35500 0.01881
v 0.02589 0.28500 0.01881
v 0.00989 0.35500 0.03043
v 0.00989 0.28500 0.03043
v -0.00989 0.35500 0.03043
v -0.00989 0.28500 0.03043
v -0.02589 0.35500 0.01881
v -0.02589 0.28500 0.01881
v -0.03200 0.35500 0.00000
v -0.03200 0.28500 0.00000
v -0.02589 0.35500 -0.01881
v -0.02589 0.28500 -0.01881
v -0.00989 0.35500 -0.03043
v -0.00989 0.28500 -0.03043
v 0.00989 0.35500 -0.03043
v 0.00989 0.28500 -0.03043
v 0.02589 0.35500 -0.01881
v 0.02589 0.28500 -0.01881
v 0.08500 0.20000 -0.00000
v 0.08500 0.20000 -0.03000
v 0.14500 0.20000 -0.03000
v 0.14500 0.20000 0.00000
v 0.08500 0.21763 -0.02427
v 0.14500 0.21763 -0.02427
v 0.08500 0.22853 -0.00927
v 0.14500 0.22853 -0.00927
v 0.08500 0.22853 0.00927
v 0.14500 0.22853 0.00927
v 0.08500 0.21763 0.02427
v 0.14500 0.21763 0.02427
v 0.08500 0.20000 0.03000
v 0.14500 0.20000 0.03000
v 0.08500 0.18237 0.02427
v 0.14500 0.18237 0.02427
v 0.08500 0.17147 0.00927
v 0.14500 0.17147 0.00927
v 0.08500 0.17147 -0.00927
v 0.14500 0.17147 -0.00927
v 0.08500 0.18237 -0.02427
v 0.14500 0.18237 -0.02427
v 0.00000 0.20000 0.05700
v 0.10070 0.20000 0.05700
v 0.10070 0.20000 0.07500
v 0.00000 0.20000 0.07500
v 0.09463 0.23444 0.05700
v 0.09463 0.23444 0.07500
v 0.07714 0.26473 0.05700
v 0.07714 0.26473 0.07500
v 0.05035 0.28721 0.05700
v 0.05035 0.28721 0.07500
v 0.01749 0.29917 0.05700
v 0.01749 0.29917 0.07500
v -0.01749 0.29917 0.05700
v -0.01749 0.29917 0.07500
v -0.05035 0.28721 0.05700
v -0.05035 0.28721 0.07500
v -0.07714 0.26473 0.05700
v -0.07714 0.26473 0.07500
v -0.09463 0.23444 0.05700
v -0.09463 0.23444 0.07500
v -0.10070 0.20000 0.05700
v -0.10070 0.20000 0.07500
v -0.09463 0.16556 0.05700
v -0.09463 0.16556 0.07500
v -0.07714 0.13527 0.05700
v -0.07714 0.13527 0.07500
v -0.05035 0.11279 0.05700
v -0.05035 0.11279 0.07500
v -0.01749 0.10083 0.05700
v -0.01749 0.10083 0.07500
v 0.01749 0.10083 0.05700
v 0.01749 0.10083 0.07500
v 0.05035 0.11279 0.05700
v 0.05035 0.11279 0.07500
v 0.07714 0.13527 0.05700
v 0.07714 0.13527 0.07500
v 0.09463 0.16556 0.05700
v 0.09463 0.16556 0.07500
v 0.00000 0.20000 0.10320
v 0.10070 0.20000 0.10320
v 0.10070 0.20000 0.12120
v 0.00000 0.20000 0.12120
v 0.09463 0.23444 0.10320
v 0.09463 0.23444 0.12120
v 0.07714 0.26473 0.10320
v 0.07714 0.26473 0.12120
v 0.05035 0.28721 0.10320
v 0.05035 0.28721 0.12120
v 0.01749 0.29917 0.10320
v 0.01749 0.29917 0.12120
v -0.01749 0.29917 0.10320
v -0.01749 0.29917 0.12120
v -0.05035 0.28721 0.10320
v -0.05035 0.28721 0.12120
v -0.07714 0.26473 0.10320
v -0.07714 0.26473 0.12120
v -0.09463 0.23444 0.10320
v -0.09463 0.23444 0.12120
v -0.10070 0.20000 0.10320
v -0.10070 0.20000 0.12120
v -0.09463 0.16556 0.10320
v -0.09463 0.16556 0.12120
v -0.07714 0.13527 0.10320
v -0.07714 0.13527 0.12120
v -0.05035 0.11279 0.10320
v -0.05035 0.11279 0.12120
v -0.01749 0.10083 0.10320
v -0.01749 0.10083 0.12120
v 0.01749 0.10083 0.10320
v 0.01749 0.10083 0.12120
v 0.05035 0.11279 0.10320
v 0.05035 0.11279 0.12120
v 0.07714 0.13527 0.10320
v 0.07714 0.13527 0.12120
v 0.09463 0.16556 0.10320
v 0.09463 0.16556 0.12120
v 0.00000 0.20000 0.14940
v 0.10070 0.20000 0.14940
v 0.10070 0.20000 0.16740
v 0.00000 0.20000 0.16740
v 0.09463 0.23444 0.14940
v 0.09463 0.23444 0.16740
v 0.07714 0.26473 0.14940
v 0.07714 0.26473 0.16740
v 0.05035 0.28721 0.14940
v 0.05035 0.28721 0.16740
v 0.01749 0.29917 0.14940
v 0.01749 0.29917 0.16740
v -0.01749 0.29917 0.14940
v -0.01749 0.29917 0.16740
v -0.05035 0.28721 0.14940
v -0.05035 0.28721 0.16740
v -0.07714 0.26473 0.14940
v -0.07714 0.26473 0.16740
v -0.09463 0.23444 0.14940
v -0.09463 0.23444 0.16740
v -0.10070 0.20000 0.14940
v -0.10070 0.20000 0.16740
v -0.09463 0.16556 0.14940
v -0.09463 0.16556 0.16740
v -0.07714 0.13527 0.14940
v -0.07714 0.13527 0.16740
v -0.05035 0.11279 0.14940
v -0.05035 0.11279 0.16740
v -0.01749 0.10083 0.14940
v -0.01749 0.10083 0.16740
v 0.01749 0.10083 0.14940
v 0.01749 0.10083 0.16740
v 0.05035 0.11279 0.14940
v 0.05035 0.11279 0.16740
v 0.07714 0.13527 0.14940
v 0.07714 0.13527 0.16740
v 0.09463 0.16556 0.14940
v 0.09463 0.16556 0.16740
vt 0.00000 0.43967
vt 0.00000 0.43967
vt 0.00000 0.59237
vt 0.00000 0.43967
vt 0.00000 0.59237
vt 0.16000 0.43967
vt 0.16000 0.43967
vt 0.00000 0.59237
vt 0.16000 0.59237
vt 0.16000 0.43967
vt 0.16000 0.59237
vt 0.16000 0.43967
vt 0.00000 0.59237
vt 0.00000 0.43967
vt 0.00000 0.72665
vt 0.00000 0.59237
vt 0.00000 0.72665
vt 0.16000 0.59237
vt 0.16000 0.59237
vt 0.00000 0.72665
vt 0.16000 0.72665
vt 0.16000 0.59237
vt 0.16000 0.72665
vt 0.16000 0.43967
vt 0.00000 0.72665
vt 0.00000 0.43967
vt 0.00000 0.82631
vt 0.00000 0.72665
vt 0.00000 0.82631
vt 0.16000 0.72665
vt 0.16000 0.72665
vt 0.00000 0.82631
vt 0.16000 0.82631
vt 0.16000 0.72665
vt 0.16000 0.82631
vt 0.16000 0.43967
vt 0.00000 0.82631
vt 0.00000 0.43967
vt 0.00000 0.87934
vt 0.00000 0.82631
vt 0.00000 0.87934
vt 0.16000 0.82631
vt 0.16000 0.82631
vt 0.00000 0.87934
vt 0.16000 0.87934
vt 0.16000 0.82631
vt 0.16000 0.87934
vt 0.16000 0.43967
vt 0.00000 0.87934
vt 0.00000 0.43967
vt 0.00000 0.87934
vt 0.00000 0.87934
vt 0.00000 0.87934
vt 0.16000 0.87934
vt 0.16000 0.87934
vt 0.00000 0.87934
vt 0.16000 0.87934
vt 0.16000 0.87934
vt 0.16000 0.87934
vt 0.16000 0.43967
vt 0.00000 0.87934
vt 0.00000 0.43967
vt 0.00000 0.82631
vt 0.00000 0.87934
vt 0.00000 0.82631
vt 0.16000 0.87934
vt 0.16000 0.87934
vt 0.00000 0.82631
vt 0.16000 0.82631
vt 0.16000 0.87934
vt 0.16000 0.82631
vt 0.16000 0.43967
vt 0.00000 0.82631
vt 0.00000 0.43967
vt 0.00000 0.72665
vt 0.00000 0.82631
vt 0.00000 0.72665
vt 0.16000 0.82631
vt 0.16000 0.82631
vt 0.00000 0.72665
vt 0.16000 0.72665
vt 0.16000 0.82631
vt 0.16000 0.72665
vt 0.16000 0.43967
vt 0.00000 0.72665
vt 0.00000 0.43967
vt 0.00000 0.59237
vt 0.00000 0.72665
vt 0.00000 0.59237
vt 0.16000 0.72665
vt 0.16000 0.72665
vt 0.00000 0.59237
vt 0.16000 0.59237
vt 0.16000 0.72665
vt 0.16000 0.59237
vt 0.16000 0.43967
vt 0.00000 0.59237
vt 0.00000 0.43967
vt 0.00000 0.43967
vt 0.00000 0.59237
vt 0.00000 0.43967
vt 0.16000 0.59237
vt 0.16000 0.59237
vt 0.00000 0.43967
vt 0.16000 0.43967
vt 0.16000 0.59237
vt 0.16000 0.43967
vt 0.16000 0.43967
vt 0.00000 0.43967
vt 0.00000 0.43967
vt 0.00000 0.28698
vt 0.00000 0.43967
vt 0.00000 0.28698
vt 0.16000 0.43967
vt 0.16000 0.43967
vt 0.00000 0.28698
vt 0.16000 0.28698
vt 0.16000 0.43967
vt 0.16000 0.28698
vt 0.16000 0.43967
vt 0.00000 0.28698
vt 0.00000 0.43967
vt 0.00000 0.15270
vt 0.00000 0.28698
vt 0.00000 0.15270
vt 0.16000 0.28698
vt 0.16000 0.28698
vt 0.00000 0.15270
vt 0.16000 0.15270
vt 0.16000 0.28698
vt 0.16000 0.15270
vt 0.16000 0.43967
vt 0.00000 0.15270
vt 0.00000 0.43967
vt 0.00000 0.05303
vt 0.00000 0.15270
vt 0.00000 0.05303
vt 0.16000 0.15270
vt 0.16000 0.15270
vt 0.00000 0.05303
vt 0.16000 0.05303
vt 0.16000 0.15270
vt 0.16000 0.05303
vt 0.16000 0.43967
vt 0.00000 0.05303
vt 0.00000 0.43967
vt 0.00000 0.00000
vt 0.00000 0.05303
vt 0.00000 0.00000
vt 0.16000 0.05303
vt 0.16000 0.05303
vt 0.00000 0.00000
vt 0.16000 0.00000
vt 0.16000 0.05303
vt 0.16000 0.00000
vt 0.16000 0.43967
vt 0.00000 0.00000
vt 0.00000 0.43967
vt 0.00000 0.00000
vt 0.00000 0.00000
vt 0.00000 0.00000
vt 0.16000 0.00000
vt 0.16000 0.00000
vt 0.00000 0.00000
vt 0.16000 0.00000
vt 0.16000 0.00000
vt 0.16000 0.00000
vt 0.16000 0.43967
vt 0.00000 0.00000
vt 0.00000 0.43967
vt 0.00000 0.05303
vt 0.00000 0.00000
vt 0.00000 0.05303
vt 0.16000 0.00000
vt 0.16000 0.00000
vt 0.00000 0.05303
vt 0.16000 0.05303
vt 0.16000 0.00000
vt 0.16000 0.05303
vt 0.16000 0.43967
vt 0.00000 0.05303
vt 0.00000 0.43967
vt 0.00000 0.15270
vt 0.00000 0.05303
vt 0.00000 0.15270
vt 0.16000 0.05303
vt 0.16000 0.05303
vt 0.00000 0.15270
vt 0.16000 0.15270
vt 0.16000 0.05303
vt 0.16000 0.15270
vt 0.16000 0.43967
vt 0.00000 0.15270
vt 0.00000 0.43967
vt 0.00000 0.28698
vt 0.00000 0.15270
vt 0.00000 0.28698
vt 0.16000 0.15270
vt 0.16000 0.15270
vt 0.00000 0.28698
vt 0.16000 0.28698
vt 0.16000 0.15270
vt 0.16000 0.28698
vt 0.16000 0.43967
vt 0.00000 0.28698
vt 0.00000 0.43967
vt 0.00000 0.43967
vt 0.00000 0.28698
vt 0.00000 0.43967
vt 0.16000 0.28698
vt 0.16000 0.28698
vt 0.00000 0.43967
vt 0.16000 0.43967
vt 0.16000 0.28698
vt 0.16000 0.43967
vt 0.16000 0.43967
vt 0.88000 0.43967
vt 0.88000 0.43967
vt 0.88000 0.58297
vt 0.88000 0.43967
vt 0.88000 0.58297
vt 1.00000 0.43967
vt 1.00000 0.43967
vt 0.88000 0.58297
vt 1.00000 0.58297
vt 1.00000 0.43967
vt 1.00000 0.58297
vt 1.00000 0.43967
vt 0.88000 0.58297
vt 0.88000 0.43967
vt 0.88000 0.70899
vt 0.88000 0.58297
vt 0.88000 0.70899
vt 1.00000 0.58297
vt 1.00000 0.58297
vt 0.88000 0.70899
vt 1.00000 0.70899
vt 1.00000 0.58297
vt 1.00000 0.70899
vt 1.00000 0.43967
vt 0.88000 0.70899
vt 0.88000 0.43967
vt 0.88000 0.80252
vt 0.88000 0.70899
vt 0.88000 0.80252
vt 1.00000 0.70899
vt 1.00000 0.70899
vt 0.88000 0.80252
vt 1.00000 0.80252
vt 1.00000 0.70899
vt 1.00000 0.80252
vt 1.00000 0.43967
vt 0.88000 0.80252
vt 0.88000 0.43967
vt 0.88000 0.85229
vt 0.88000 0.80252
vt 0.88000 0.85229
vt 1.00000 0.80252
vt 1.00000 0.80252
vt 0.88000 0.85229
vt 1.00000 0.85229
vt 1.00000 0.80252
vt 1.00000 0.85229
vt 1.00000 0.43967
vt 0.88000 0.85229
vt 0.88000 0.43967
vt 0.88000 0.85229
vt 0.88000 0.85229
vt 0.88000 0.85229
vt 1.00000 0.85229
vt 1.00000 0.85229
vt 0.88000 0.85229
vt 1.00000 0.85229
vt 1.00000 0.85229
vt 1.00000 0.85229
vt 1.00000 0.43967
vt 0.88000 0.85229
vt 0.88000 0.43967
vt 0.88000 0.80252
vt 0.88000 0.85229
vt 0.88000 0.80252
vt 1.00000 0.85229
vt 1.00000 0.85229
vt 0.88000 0.80252
vt 1.00000 0.80252
vt 1.00000 0.85229
vt 1.00000 0.80252
vt 1.00000 0.43967
vt 0.88000 0.80252
vt 0.88000 0.43967
vt 0.88000 0.70899
vt 0.88000 0.80252
vt 0.88000 0.70899
vt 1.00000 0.80252
vt 1.00000 0.80252
vt 0.88000 0.70899
vt 1.00000 0.70899
vt 1.00000 0.80252
vt 1.00000 0.70899
vt 1.00000 0.43967
vt 0.88000 0.70899
vt 0.88000 0.43967
vt 0.88000 0.58297
vt 0.88000 0.70899
vt 0.88000 0.58297
vt 1.00000 0.70899
vt 1.00000 0.70899
vt 0.88000 0.58297
vt 1.00000 0.58297
vt 1.00000 0.70899
vt 1.00000 0.58297
vt 1.00000 0.43967
vt 0.88000 0.58297
vt 0.88000 0.43967
vt 0.88000 0.43967
vt 0.88000 0.58297
vt 0.88000 0.43967
vt 1.00000 0.58297
vt 1.00000 0.58297
vt 0.88000 0.43967
vt 1.00000 0.43967
vt 1.00000 0.58297
vt 1.00000 0.43967
vt 1.00000 0.43967
vt 0.88000 0.43967
vt 0.88000 0.43967
vt 0.88000 0.29637
vt 0.88000 0.43967
vt 0.88000 0.29637
vt 1.00000 0.43967
vt 1.00000 0.43967
vt 0.88000 0.29637
vt 1.00000 0.29637
vt 1.00000 0.43967
vt 1.00000 0.29637
vt 1.00000 0.43967
vt 0.88000 0.29637
vt 0.88000 0.43967
vt 0.88000 0.17036
vt 0.88000 0.29637
vt 0.88000 0.17036
vt 1.00000 0.29637
vt 1.00000 0.29637
vt 0.88000 0.17036
vt 1.00000 0.17036
vt 1.00000 0.29637
vt 1.00000 0.17036
vt 1.00000 0.43967
vt 0.88000 0.17036
vt 0.88000 0.43967
vt 0.88000 0.07682
vt 0.88000 0.17036
vt 0.88000 0.07682
vt 1.00000 0.17036
vt 1.00000 0.17036
vt 0.88000 0.07682
vt 1.00000 0.07682
vt 1.00000 0.17036
vt 1.00000 0.07682
vt 1.00000 0.43967
vt 0.88000 0.07682
vt 0.88000 0.43967
vt 0.88000 0.02706
vt 0.88000 0.07682
vt 0.88000 0.02706
vt 1.00000 0.07682
vt 1.00000 0.07682
vt 0.88000 0.02706
vt 1.00000 0.02706
vt 1.00000 0.07682
vt 1.00000 0.02706
vt 1.00000 0.43967
vt 0.88000 0.02706
vt 0.88000 0.43967
vt 0.88000 0.02706
vt 0.88000 0.02706
vt 0.88000 0.02706
vt 1.00000 0.02706
vt 1.00000 0.02706
vt 0.88000 0.02706
vt 1.00000 0.02706
vt 1.00000 0.02706
vt 1.00000 0.02706
vt 1.00000 0.43967
vt 0.88000 0.02706
vt 0.88000 0.43967
vt 0.88000 0.07682
vt 0.88000 0.02706
vt 0.88000 0.07682
vt 1.00000 0.02706
vt 1.00000 0.02706
vt 0.88000 0.07682
vt 1.00000 0.07682
vt 1.00000 0.02706
vt 1.00000 0.07682
vt 1.00000 0.43967
vt 0.88000 0.07682
vt 0.88000 0.43967
vt 0.88000 0.17036
vt 0.88000 0.07682
vt 0.88000 0.17036
vt 1.00000 0.07682
vt 1.00000 0.07682
vt 0.88000 0.17036
vt 1.00000 0.17036
vt 1.00000 0.07682
vt 1.00000 0.17036
vt 1.00000 0.43967
vt 0.88000 0.17036
vt 0.88000 0.43967
vt 0.88000 0.29637
vt 0.88000 0.17036
vt 0.88000 0.29637
vt 1.00000 0.17036
vt 1.00000 0.17036
vt 0.88000 0.29637
vt 1.00000 0.29637
vt 1.00000 0.17036
vt 1.00000 0.29637
vt 1.00000 0.43967
vt 0.88000 0.29637
vt 0.88000 0.43967
vt 0.88000 0.43967
vt 0.88000 0.29637
vt 0.88000 0.43967
vt 1.00000 0.29637
vt 1.00000 0.29637
vt 0.88000 0.43967
vt 1.00000 0.43967
vt 1.00000 0.29637
vt 1.00000 0.43967
vt 1.00000 0.43967
vt 0.50000 1.00000
vt 0.50000 1.00000
vt 0.52850 1.00000
vt 0.50000 1.00000
vt 0.52850 1.00000
vt 0.50000 0.74695
vt 0.50000 0.74695
vt 0.52850 1.00000
vt 0.52850 0.74695
vt 0.50000 0.74695
vt 0.52850 0.74695
vt 0.50000 0.74695
vt 0.52850 1.00000
vt 0.50000 1.00000
vt 0.54611 1.00000
vt 0.52850 1.00000
vt 0.54611 1.00000
vt 0.52850 0.74695
vt 0.52850 0.74695
vt 0.54611 1.00000
vt 0.54611 0.74695
vt 0.52850 0.74695
vt 0.54611 0.74695
vt 0.50000 0.74695
vt 0.54611 1.00000
vt 0.50000 1.00000
vt 0.54611 1.00000
vt 0.54611 1.00000
vt 0.54611 1.00000
vt 0.54611 0.74695
vt 0.54611 0.74695
vt 0.54611 1.00000
vt 0.54611 0.74695
vt 0.54611 0.74695
vt 0.54611 0.74695
vt 0.50000 0.74695
vt 0.54611 1.00000
vt 0.50000 1.00000
vt 0.52850 1.00000
vt 0.54611 1.00000
vt 0.52850 1.00000
vt 0.54611 0.74695
vt 0.54611 0.74695
vt 0.52850 1.00000
vt 0.52850 0.74695
vt 0.54611 0.74695
vt 0.52850 0.74695
vt 0.50000 0.74695
vt 0.52850 1.00000
vt 0.50000 1.00000
vt 0.50000 1.00000
vt 0.52850 1.00000
vt 0.50000 1.00000
vt 0.52850 0.74695
vt 0.52850 0.74695
vt 0.50000 1.00000
vt 0.50000 0.74695
vt 0.52850 0.74695
vt 0.50000 0.74695
vt 0.50000 0.74695
vt 0.50000 1.00000
vt 0.50000 1.00000
vt 0.47150 1.00000
vt 0.50000 1.00000
vt 0.47150 1.00000
vt 0.50000 0.74695
vt 0.50000 0.74695
vt 0.47150 1.00000
vt 0.47150 0.74695
vt 0.50000 0.74695
vt 0.47150 0.74695
vt 0.50000 0.74695
vt 0.47150 1.00000
vt 0.50000 1.00000
vt 0.45389 1.00000
vt 0.47150 1.00000
vt 0.45389 1.00000
vt 0.47150 0.74695
vt 0.47150 0.74695
vt 0.45389 1.00000
vt 0.45389 0.74695
vt 0.47150 0.74695
vt 0.45389 0.74695
vt 0.50000 0.74695
vt 0.45389 1.00000
vt 0.50000 1.00000
vt 0.45389 1.00000
vt 0.45389 1.00000
vt 0.45389 1.00000
vt 0.45389 0.74695
vt 0.45389 0.74695
vt 0.45389 1.00000
vt 0.45389 0.74695
vt 0.45389 0.74695
vt 0.45389 0.74695
vt 0.50000 0.74695
vt 0.45389 1.00000
vt 0.50000 1.00000
vt 0.47150 1.00000
vt 0.45389 1.00000
vt 0.47150 1.00000
vt 0.45389 0.74695
vt 0.45389 0.74695
vt 0.47150 1.00000
vt 0.47150 0.74695
vt 0.45389 0.74695
vt 0.47150 0.74695
vt 0.50000 0.74695
vt 0.47150 1.00000
vt 0.50000 1.00000
vt 0.50000 1.00000
vt 0.47150 1.00000
vt 0.50000 1.00000
vt 0.47150 0.74695
vt 0.47150 0.74695
vt 0.50000 1.00000
vt 0.50000 0.74695
vt 0.47150 0.74695
vt 0.50000 0.74695
vt 0.50000 0.74695
vt 0.45455 0.43967
vt 0.50000 0.43967
vt 0.46323 0.50342
vt 0.45455 0.43967
vt 0.46323 0.50342
vt 0.45455 0.43967
vt 0.45455 0.43967
vt 0.46323 0.50342
vt 0.46323 0.50342
vt 0.45455 0.43967
vt 0.46323 0.50342
vt 0.50000 0.43967
vt 0.46323 0.50342
vt 0.50000 0.43967
vt 0.48595 0.54281
vt 0.46323 0.50342
vt 0.48595 0.54281
vt 0.46323 0.50342
vt 0.46323 0.50342
vt 0.48595 0.54281
vt 0.48595 0.54281
vt 0.46323 0.50342
vt 0.48595 0.54281
vt 0.50000 0.43967
vt 0.48595 0.54281
vt 0.50000 0.43967
vt 0.51405 0.54281
vt 0.48595 0.54281
vt 0.51405 0.54281
vt 0.48595 0.54281
vt 0.48595 0.54281
vt 0.51405 0.54281
vt 0.51405 0.54281
vt 0.48595 0.54281
vt 0.51405 0.54281
vt 0.50000 0.43967
vt 0.51405 0.54281
vt 0.50000 0.43967
vt 0.53677 0.50342
vt 0.51405 0.54281
vt 0.53677 0.50342
vt 0.51405 0.54281
vt 0.51405 0.54281
vt 0.53677 0.50342
vt 0.53677 0.50342
vt 0.51405 0.54281
vt 0.53677 0.50342
vt 0.50000 0.43967
vt 0.53677 0.50342
vt 0.50000 0.43967
vt 0.54545 0.43967
vt 0.53677 0.50342
vt 0.54545 0.43967
vt 0.53677 0.50342
vt 0.53677 0.50342
vt 0.54545 0.43967
vt 0.54545 0.43967
vt 0.53677 0.50342
vt 0.54545 0.43967
vt 0.50000 0.43967
vt 0.54545 0.43967
vt 0.50000 0.43967
vt 0.53677 0.37593
vt 0.54545 0.43967
vt 0.53677 0.37593
vt 0.54545 0.43967
vt 0.54545 0.43967
vt 0.53677 0.37593
vt 0.53677 0.37593
vt 0.54545 0.43967
vt 0.53677 0.37593
vt 0.50000 0.43967
vt 0.53677 0.37593
vt 0.50000 0.43967
vt 0.51405 0.33653
vt 0.53677 0.37593
vt 0.51405 0.33653
vt 0.53677 0.37593
vt 0.53677 0.37593
vt 0.51405 0.33653
vt 0.51405 0.33653
vt 0.53677 0.37593
vt 0.51405 0.33653
vt 0.50000 0.43967
vt 0.51405 0.33653
vt 0.50000 0.43967
vt 0.48595 0.33653
vt 0.51405 0.33653
vt 0.48595 0.33653
vt 0.51405 0.33653
vt 0.51405 0.33653
vt 0.48595 0.33653
vt 0.48595 0.33653
vt 0.51405 0.33653
vt 0.48595 0.33653
vt 0.50000 0.43967
vt 0.48595 0.33653
vt 0.50000 0.43967
vt 0.46323 0.37593
vt 0.48595 0.33653
vt 0.46323 0.37593
vt 0.48595 0.33653
vt 0.48595 0.33653
vt 0.46323 0.37593
vt 0.46323 0.37593
vt 0.48595 0.33653
vt 0.46323 0.37593
vt 0.50000 0.43967
vt 0.46323 0.37593
vt 0.50000 0.43967
vt 0.45455 0.43967
vt 0.46323 0.37593
vt 0.45455 0.43967
vt 0.46323 0.37593
vt 0.46323 0.37593
vt 0.45455 0.43967
vt 0.45455 0.43967
vt 0.46323 0.37593
vt 0.45455 0.43967
vt 0.50000 0.43967
vt 0.58636 0.43967
vt 0.58636 0.43967
vt 0.58636 0.56418
vt 0.58636 0.43967
vt 0.58636 0.56418
vt 0.61364 0.43967
vt 0.61364 0.43967
vt 0.58636 0.56418
vt 0.61364 0.56418
vt 0.61364 0.43967
vt 0.61364 0.56418
vt 0.61364 0.43967
vt 0.58636 0.56418
vt 0.58636 0.43967
vt 0.58636 0.67367
vt 0.58636 0.56418
vt 0.58636 0.67367
vt 0.61364 0.56418
vt 0.61364 0.56418
vt 0.58636 0.67367
vt 0.61364 0.67367
vt 0.61364 0.56418
vt 0.61364 0.67367
vt 0.61364 0.43967
vt 0.58636 0.67367
vt 0.58636 0.43967
vt 0.58636 0.75493
vt 0.58636 0.67367
vt 0.58636 0.75493
vt 0.61364 0.67367
vt 0.61364 0.67367
vt 0.58636 0.75493
vt 0.61364 0.75493
vt 0.61364 0.67367
vt 0.61364 0.75493
vt 0.61364 0.43967
vt 0.58636 0.75493
vt 0.58636 0.43967
vt 0.58636 0.79817
vt 0.58636 0.75493
vt 0.58636 0.79817
vt 0.61364 0.75493
vt 0.61364 0.75493
vt 0.58636 0.79817
vt 0.61364 0.79817
vt 0.61364 0.75493
vt 0.61364 0.79817
vt 0.61364 0.43967
vt 0.58636 0.79817
vt 0.58636 0.43967
vt 0.58636 0.79817
vt 0.58636 0.79817
vt 0.58636 0.79817
vt 0.61364 0.79817
vt 0.61364 0.79817
vt 0.58636 0.79817
vt 0.61364 0.79817
vt 0.61364 0.79817
vt 0.61364 0.79817
vt 0.61364 0.43967
vt 0.58636 0.79817
vt 0.58636 0.43967
vt 0.58636 0.75493
vt 0.58636 0.79817
vt 0.58636 0.75493
vt 0.61364 0.79817
vt 0.61364 0.79817
vt 0.58636 0.75493
vt 0.61364 0.75493
vt 0.61364 0.79817
vt 0.61364 0.75493
vt 0.61364 0.43967
vt 0.58636 0.75493
vt 0.58636 0.43967
vt 0.58636 0.67367
vt 0.58636 0.75493
vt 0.58636 0.67367
vt 0.61364 0.75493
vt 0.61364 0.75493
vt 0.58636 0.67367
vt 0.61364 0.67367
vt 0.61364 0.75493
vt 0.61364 0.67367
vt 0.61364 0.43967
vt 0.58636 0.67367
vt 0.58636 0.43967
vt 0.58636 0.56418
vt 0.58636 0.67367
vt 0.58636 0.56418
vt 0.61364 0.67367
vt 0.61364 0.67367
vt 0.58636 0.56418
vt 0.61364 0.56418
vt 0.61364 0.67367
vt 0.61364 0.56418
vt 0.61364 0.43967
vt 0.58636 0.56418
vt 0.58636 0.43967
vt 0.58636 0.43967
vt 0.58636 0.56418
vt 0.58636 0.43967
vt 0.61364 0.56418
vt 0.61364 0.56418
vt 0.58636 0.43967
vt 0.61364 0.43967
vt 0.61364 0.56418
vt 0.61364 0.43967
vt 0.61364 0.43967
vt 0.58636 0.43967
vt 0.58636 0.43967
vt 0.58636 0.31517
vt 0.58636 0.43967
vt 0.58636 0.31517
vt 0.61364 0.43967
vt 0.61364 0.43967
vt 0.58636 0.31517
vt 0.61364 0.31517
vt 0.61364 0.43967
vt 0.61364 0.31517
vt 0.61364 0.43967
vt 0.58636 0.31517
vt 0.58636 0.43967
vt 0.58636 0.20568
vt 0.58636 0.31517
vt 0.58636 0.20568
vt 0.61364 0.31517
vt 0.61364 0.31517
vt 0.58636 0.20568
vt 0.61364 0.20568
vt 0.61364 0.31517
vt 0.61364 0.20568
vt 0.61364 0.43967
vt 0.58636 0.20568
vt 0.58636 0.43967
vt 0.58636 0.12441
vt 0.58636 0.20568
vt 0.58636 0.12441
vt 0.61364 0.20568
vt 0.61364 0.20568
vt 0.58636 0.12441
vt 0.61364 0.12441
vt 0.61364 0.20568
vt 0.61364 0.12441
vt 0.61364 0.43967
vt 0.58636 0.12441
vt 0.58636 0.43967
vt 0.58636 0.08117
vt 0.58636 0.12441
vt 0.58636 0.08117
vt 0.61364 0.12441
vt 0.61364 0.12441
vt 0.58636 0.08117
vt 0.61364 0.08117
vt 0.61364 0.12441
vt 0.61364 0.08117
vt 0.61364 0.43967
vt 0.58636 0.08117
vt 0.58636 0.43967
vt 0.58636 0.08117
vt 0.58636 0.08117
vt 0.58636 0.08117
vt 0.61364 0.08117
vt 0.61364 0.08117
vt 0.58636 0.08117
vt 0.61364 0.08117
vt 0.61364 0.08117
vt 0.61364 0.08117
vt 0.61364 0.43967
vt 0.58636 0.08117
vt 0.58636 0.43967
vt 0.58636 0.12441
vt 0.58636 0.08117
vt 0.58636 0.12441
vt 0.61364 0.08117
vt 0.61364 0.08117
vt 0.58636 0.12441
vt 0.61364 0.12441
vt 0.61364 0.08117
vt 0.61364 0.12441
vt 0.61364 0.43967
vt 0.58636 0.12441
vt 0.58636 0.43967
vt 0.58636 0.20568
vt 0.58636 0.12441
vt 0.58636 0.20568
vt 0.61364 0.12441
vt 0.61364 0.12441
vt 0.58636 0.20568
vt 0.61364 0.20568
vt 0.61364 0.12441
vt 0.61364 0.20568
vt 0.61364 0.43967
vt 0.58636 0.20568
vt 0.58636 0.43967
vt 0.58636 0.31517
vt 0.58636 0.20568
vt 0.58636 0.31517
vt 0.61364 0.20568
vt 0.61364 0.20568
vt 0.58636 0.31517
vt 0.61364 0.31517
vt 0.61364 0.20568
vt 0.61364 0.31517
vt 0.61364 0.43967
vt 0.58636 0.31517
vt 0.58636 0.43967
vt 0.58636 0.43967
vt 0.58636 0.31517
vt 0.58636 0.43967
vt 0.61364 0.31517
vt 0.61364 0.31517
vt 0.58636 0.43967
vt 0.61364 0.43967
vt 0.61364 0.31517
vt 0.61364 0.43967
vt 0.61364 0.43967
vt 0.65636 0.43967
vt 0.65636 0.43967
vt 0.65636 0.56418
vt 0.65636 0.43967
vt 0.65636 0.56418
vt 0.68364 0.43967
vt 0.68364 0.43967
vt 0.65636 0.56418
vt 0.68364 0.56418
vt 0.68364 0.43967
vt 0.68364 0.56418
vt 0.68364 0.43967
vt 0.65636 0.56418
vt 0.65636 0.43967
vt 0.65636 0.67367
vt 0.65636 0.56418
vt 0.65636 0.67367
vt 0.68364 0.56418
vt 0.68364 0.56418
vt 0.65636 0.67367
vt 0.68364 0.67367
vt 0.68364 0.56418
vt 0.68364 0.67367
vt 0.68364 0.43967
vt 0.65636 0.67367
vt 0.65636 0.43967
vt 0.65636 0.75493
vt 0.65636 0.67367
vt 0.65636 0.75493
vt 0.68364 0.67367
vt 0.68364 0.67367
vt 0.65636 0.75493
vt 0.68364 0.75493
vt 0.68364 0.67367
vt 0.68364 0.75493
vt 0.68364 0.43967
vt 0.65636 0.75493
vt 0.65636 0.43967
vt 0.65636 0.79817
vt 0.65636 0.75493
vt 0.65636 0.79817
vt 0.68364 0.75493
vt 0.68364 0.75493
vt 0.65636 0.79817
vt 0.68364 0.79817
vt 0.68364 0.75493
vt 0.68364 0.79817
vt 0.68364 0.43967
vt 0.65636 0.79817
vt 0.65636 0.43967
vt 0.65636 0.79817
vt 0.65636 0.79817
vt 0.65636 0.79817
vt 0.68364 0.79817
vt 0.68364 0.79817
vt 0.65636 0.79817
vt 0.68364 0.79817
vt 0.68364 0.79817
vt 0.68364 0.79817
vt 0.68364 0.43967
vt 0.65636 0.79817
vt 0.65636 0.43967
vt 0.65636 0.75493
vt 0.65636 0.79817
vt 0.65636 0.75493
vt 0.68364 0.79817
vt 0.68364 0.79817
vt 0.65636 0.75493
vt 0.68364 0.75493
vt 0.68364 0.79817
vt 0.68364 0.75493
vt 0.68364 0.43967
vt 0.65636 0.75493
vt 0.65636 0.43967
vt 0.65636 0.67367
vt 0.65636 0.75493
vt 0.65636 0.67367
vt 0.68364 0.75493
vt 0.68364 0.75493
vt 0.65636 0.67367
vt 0.68364 0.67367
vt 0.68364 0.75493
vt 0.68364 0.67367
vt 0.68364 0.43967
vt 0.65636 0.67367
vt 0.65636 0.43967
vt 0.65636 0.56418
vt 0.65636 0.67367
vt 0.65636 0.56418
vt 0.68364 0.67367
vt 0.68364 0.67367
vt 0.65636 0.56418
vt 0.68364 0.56418
vt 0.68364 0.67367
vt 0.68364 0.56418
vt 0.68364 0.43967
vt 0.65636 0.56418
vt 0.65636 0.43967
vt 0.65636 0.43967
vt 0.65636 0.56418
vt 0.65636 0.43967
vt 0.68364 0.56418
vt 0.68364 0.56418
vt 0.65636 0.43967
vt 0.68364 0.43967
vt 0.68364 0.56418
vt 0.68364 0.43967
vt 0.68364 0.43967
vt 0.65636 0.43967
vt 0.65636 0.43967
vt 0.65636 0.31517
vt 0.65636 0.43967
vt 0.65636 0.31517
vt 0.68364 0.43967
vt 0.68364 0.43967
vt 0.65636 0.31517
vt 0.68364 0.31517
vt 0.68364 0.43967
vt 0.68364 0.31517
vt 0.68364 0.43967
vt 0.65636 0.31517
vt 0.65636 0.43967
vt 0.65636 0.20568
vt 0.65636 0.31517
vt 0.65636 0.20568
vt 0.68364 0.31517
vt 0.68364 0.31517
vt 0.65636 0.20568
vt 0.68364 0.20568
vt 0.68364 0.31517
vt 0.68364 0.20568
vt 0.68364 0.43967
vt 0.65636 0.20568
vt 0.65636 0.43967
vt 0.65636 0.12441
vt 0.65636 0.20568
vt 0.65636 0.12441
vt 0.68364 0.20568
vt 0.68364 0.20568
vt 0.65636 0.12441
vt 0.68364 0.12441
vt 0.68364 0.20568
vt 0.68364 0.12441
vt 0.68364 0.43967
vt 0.65636 0.12441
vt 0.65636 0.43967
vt 0.65636 0.08117
vt 0.65636 0.12441
vt 0.65636 0.08117
vt 0.68364 0.12441
vt 0.68364 0.12441
vt 0.65636 0.08117
vt 0.68364 0.08117
vt 0.68364 0.12441
vt 0.68364 0.08117
vt 0.68364 0.43967
vt 0.65636 0.08117
vt 0.65636 0.43967
vt 0.65636 0.08117
vt 0.65636 0.08117
vt 0.65636 0.08117
vt 0.68364 0.08117
vt 0.68364 0.08117
vt 0.65636 0.08117
vt 0.68364 0.08117
vt 0.68364 0.08117
vt 0.68364 0.08117
vt 0.68364 0.43967
vt 0.65636 0.08117
vt 0.65636 0.43967
vt 0.65636 0.12441
vt 0.65636 0.08117
vt 0.65636 0.12441
vt 0.68364 0.08117
vt 0.68364 0.08117
vt 0.65636 0.12441
vt 0.68364 0.12441
vt 0.68364 0.08117
vt 0.68364 0.12441
vt 0.68364 0.43967
vt 0.65636 0.12441
vt 0.65636 0.43967
vt 0.65636 0.20568
vt 0.65636 0.12441
vt 0.65636 0.20568
vt 0.68364 0.12441
vt 0.68364 0.12441
vt 0.65636 0.20568
vt 0.68364 0.20568
vt 0.68364 0.12441
vt 0.68364 0.20568
vt 0.68364 0.43967
vt 0.65636 0.20568
vt 0.65636 0.43967
vt 0.65636 0.31517
vt 0.65636 0.20568
vt 0.65636 0.31517
vt 0.68364 0.20568
vt 0.68364 0.20568
vt 0.65636 0.31517
vt 0.68364 0.31517
vt 0.68364 0.20568
vt 0.68364 0.31517
vt 0.68364 0.43967
vt 0.65636 0.31517
vt 0.65636 0.43967
vt 0.65636 0.43967
vt 0.65636 0.31517
vt 0.65636 0.43967
vt 0.68364 0.31517
vt 0.68364 0.31517
vt 0.65636 0.43967
vt 0.68364 0.43967
vt 0.68364 0.31517
vt 0.68364 0.43967
vt 0.68364 0.43967
vt 0.72636 0.43967
vt 0.72636 0.43967
vt 0.72636 0.56418
vt 0.72636 0.43967
vt 0.72636 0.56418
vt 0.75364 0.43967
vt 0.75364 0.43967
vt 0.72636 0.56418
vt 0.75364 0.56418
vt 0.75364 0.43967
vt 0.75364 0.56418
vt 0.75364 0.43967
vt 0.72636 0.56418
vt 0.72636 0.43967
vt 0.72636 0.67367
vt 0.72636 0.56418
vt 0.72636 0.67367
vt 0.75364 0.56418
vt 0.75364 0.56418
vt 0.72636 0.67367
vt 0.75364 0.67367
vt 0.75364 0.56418
vt 0.75364 0.67367
vt 0.75364 0.43967
vt 0.72636 0.67367
vt 0.72636 0.43967
vt 0.72636 0.75493
vt 0.72636 0.67367
vt 0.72636 0.75493
vt 0.75364 0.67367
vt 0.75364 0.67367
vt 0.72636 0.75493
vt 0.75364 0.75493
vt 0.75364 0.67367
vt 0.75364 0.75493
vt 0.75364 0.43967
vt 0.72636 0.75493
vt 0.72636 0.43967
vt 0.72636 0.79817
vt 0.72636 0.75493
vt 0.72636 0.79817
vt 0.75364 0.75493
vt 0.75364 0.75493
vt 0.72636 0.79817
vt 0.75364 0.79817
vt 0.75364 0.75493
vt 0.75364 0.79817
vt 0.75364 0.43967
vt 0.72636 0.79817
vt 0.72636 0.43967
vt 0.72636 0.79817
vt 0.72636 0.79817
vt 0.72636 0.79817
vt 0.75364 0.79817
vt 0.75364 0.79817
vt 0.72636 0.79817
vt 0.75364 0.79817
vt 0.75364 0.79817
vt 0.75364 0.79817
vt 0.75364 0.43967
vt 0.72636 0.79817
vt 0.72636 0.43967
vt 0.72636 0.75493
vt 0.72636 0.79817
vt 0.72636 0.75493
vt 0.75364 0.79817
vt 0.75364 0.79817
vt 0.72636 0.75493
vt 0.75364 0.75493
vt 0.75364 0.79817
vt 0.75364 0.75493
vt 0.75364 0.43967
vt 0.72636 0.75493
vt 0.72636 0.43967
vt 0.72636 0.67367
vt 0.72636 0.75493
vt 0.72636 0.67367
vt 0.75364 0.75493
vt 0.75364 0.75493
vt 0.72636 0.67367
vt 0.75364 0.67367
vt 0.75364 0.75493
vt 0.75364 0.67367
vt 0.75364 0.43967
vt 0.72636 0.67367
vt 0.72636 0.43967
vt 0.72636 0.56418
vt 0.72636 0.67367
vt 0.72636 0.56418
vt 0.75364 0.67367
vt 0.75364 0.67367
vt 0.72636 0.56418
vt 0.75364 0.56418
vt 0.75364 0.67367
vt 0.75364 0.56418
vt 0.75364 0.43967
vt 0.72636 0.56418
vt 0.72636 0.43967
vt 0.72636 0.43967
vt 0.72636 0.56418
vt 0.72636 0.43967
vt 0.75364 0.56418
vt 0.75364 0.56418
vt 0.72636 0.43967
vt 0.75364 0.43967
vt 0.75364 0.56418
vt 0.75364 0.43967
vt 0.75364 0.43967
vt 0.72636 0.43967
vt 0.72636 0.43967
vt 0.72636 0.31517
vt 0.72636 0.43967
vt 0.72636 0.31517
vt 0.75364 0.43967
vt 0.75364 0.43967
vt 0.72636 0.31517
vt 0.75364 0.31517
vt 0.75364 0.43967
vt 0.75364 0.31517
vt 0.75364 0.43967
vt 0.72636 0.31517
vt 0.72636 0.43967
vt 0.72636 0.20568
vt 0.72636 0.31517
vt 0.72636 0.20568
vt 0.75364 0.31517
vt 0.75364 0.31517
vt 0.72636 0.20568
vt 0.75364 0.20568
vt 0.75364 0.31517
vt 0.75364 0.20568
vt 0.75364 0.43967
vt 0.72636 0.20568
vt 0.72636 0.43967
vt 0.72636 0.12441
vt 0.72636 0.20568
vt 0.72636 0.12441
vt 0.75364 0.20568
vt 0.75364 0.20568
vt 0.72636 0.12441
vt 0.75364 0.12441
vt 0.75364 0.20568
vt 0.75364 0.12441
vt 0.75364 0.43967
vt 0.72636 0.12441
vt 0.72636 0.43967
vt 0.72636 0.08117
vt 0.72636 0.12441
vt 0.72636 0.08117
vt 0.75364 0.12441
vt 0.75364 0.12441
vt 0.72636 0.08117
vt 0.75364 0.08117
vt 0.75364 0.12441
vt 0.75364 0.08117
vt 0.75364 0.43967
vt 0.72636 0.08117
vt 0.72636 0.43967
vt 0.72636 0.08117
vt 0.72636 0.08117
vt 0.72636 0.08117
vt 0.75364 0.08117
vt 0.75364 0.08117
vt 0.72636 0.08117
vt 0.75364 0.08117
vt 0.75364 0.08117
vt 0.75364 0.08117
vt 0.75364 0.43967
vt 0.72636 0.08117
vt 0.72636 0.43967
vt 0.72636 0.12441
vt 0.72636 0.08117
vt 0.72636 0.12441
vt 0.75364 0.08117
vt 0.75364 0.08117
vt 0.72636 0.12441
vt 0.75364 0.12441
vt 0.75364 0.08117
vt 0.75364 0.12441
vt 0.75364 0.43967
vt 0.72636 0.12441
vt 0.72636 0.43967
vt 0.72636 0.20568
vt 0.72636 0.12441
vt 0.72636 0.20568
vt 0.75364 0.12441
vt 0.75364 0.12441
vt 0.72636 0.20568
vt 0.75364 0.20568
vt 0.75364 0.12441
vt 0.75364 0.20568
vt 0.75364 0.43967
vt 0.72636 0.20568
vt 0.72636 0.43967
vt 0.72636 0.31517
vt 0.72636 0.20568
vt 0.72636 0.31517
vt 0.75364 0.20568
vt 0.75364 0.20568
vt 0.72636 0.31517
vt 0.75364 0.31517
vt 0.75364 0.20568
vt 0.75364 0.31517
vt 0.75364 0.43967
vt 0.72636 0.31517
vt 0.72636 0.43967
vt 0.72636 0.43967
vt 0.72636 0.31517
vt 0.72636 0.43967
vt 0.75364 0.31517
vt 0.75364 0.31517
vt 0.72636 0.43967
vt 0.75364 0.43967
vt 0.75364 0.31517
vt 0.75364 0.43967
vt 0.75364 0.43967
f 64/325 63/326 67/327
f 64/328 67/329 65/330
f 65/331 67/332 68/333
f 65/334 68/335 66/336
f 67/337 63/338 69/339
f 67/340 69/341 68/342
f 68/343 69/344 70/345
f 68/346 70/347 66/348
f 69/349 63/350 71/351
f 69/352 71/353 70/354
f 70/355 71/356 72/357
f 70/358 72/359 66/360
f 71/361 63/362 73/363
f 71/364 73/365 72/366
f 72/367 73/368 74/369
f 72/370 74/371 66/372
f 73/373 63/374 75/375
f 73/376 75/377 74/378
f 74/379 75/380 76/381
f 74/382 76/383 66/384
f 75/385 63/386 77/387
f 75/388 77/389 76/390
f 76/391 77/392 78/393
f 76/394 78/395 66/396
f 77/397 63/398 79/399
f 77/400 79/401 78/402
f 78/403 79/404 80/405
f 78/406 80/407 66/408
f 79/409 63/410 81/411
f 79/412 81/413 80/414
f 80/415 81/416 82/417
f 80/418 82/419 66/420
f 81/421 63/422 83/423
f 81/424 83/425 82/426
f 82/427 83/428 84/429
f 82/430 84/431 66/432
f 83/433 63/434 85/435
f 83/436 85/437 84/438
f 84/439 85/440 86/441
f 84/442 86/443 66/444
f 85/445 63/446 87/447
f 85/448 87/449 86/450
f 86/451 87/452 88/453
f 86/454 88/455 66/456
f 87/457 63/458 89/459
f 87/460 89/461 88/462
f 88/463 89/464 90/465
f 88/466 90/467 66/468
f 89/469 63/470 91/471
f 89/472 91/473 90/474
f 90/475 91/476 92/477
f 90/478 92/479 66/480
f 91/481 63/482 93/483
f 91/484 93/485 92/486
f 92/487 93/488 94/489
f 92/490 94/491 66/492
f 93/493 63/494 95/495
f 93/496 95/497 94/498
f 94/499 95/500 96/501
f 94/502 96/503 66/504
f 95/505 63/506 97/507
f 95/508 97/509 96/510
f 96/511 97/512 98/513
f 96/514 98/515 66/516
f 97/517 63/518 99/519
f 97/520 99/521 98/522
f 98/523 99/524 100/525
f 98/526 100/527 66/528
f 99/529 63/530 64/531
f 99/532 64/533 100/534
f 100/535 64/536 65/537
f 100/538 65/539 66/540
f 102/541 101/542 105/543
f 102/544 105/545 103/546
f 103/547 105/548 106/549
f 103/550 106/551 104/552
f 105/553 101/554 107/555
f 105/556 107/557 106/558
f 106/559 107/560 108/561
f 106/562 108/563 104/564
f 107/565 101/566 109/567
f 107/568 109/569 108/570
f 108/571 109/572 110/573
f 108/574 110/575 104/576
f 109/577 101/578 111/579
f 109/580 111/581 110/582
f 110/583 111/584 112/585
f 110/586 112/587 104/588
f 111/589 101/590 113/591
f 111/592 113/593 112/594
f 112/595 113/596 114/597
f 112/598 114/599 104/600
f 113/601 101/602 115/603
f 113/604 115/605 114/606
f 114/607 115/608 116/609
f 114/610 116/611 104/612
f 115/613 101/614 117/615
f 115/616 117/617 116/618
f 116/619 117/620 118/621
f 116/622 118/623 104/624
f 117/625 101/626 119/627
f 117/628 119/629 118/630
f 118/631 119/632 120/633
f 118/634 120/635 104/636
f 119/637 101/638 121/639
f 119/640 121/641 120/642
f 120/643 121/644 122/645
f 120/646 122/647 104/648
f 121/649 101/650 123/651
f 121/652 123/653 122/654
f 122/655 123/656 124/657
f 122/658 124/659 104/660
f 123/661 101/662 125/663
f 123/664 125/665 124/666
f 124/667 125/668 126/669
f 124/670 126/671 104/672
f 125/673 101/674 127/675
f 125/676 127/677 126/678
f 126/679 127/680 128/681
f 126/682 128/683 104/684
f 127/685 101/686 129/687
f 127/688 129/689 128/690
f 128/691 129/692 130/693
f 128/694 130/695 104/696
f 129/697 101/698 131/699
f 129/700 131/701 130/702
f 130/703 131/704 132/705
f 130/706 132/707 104/708
f 131/709 101/710 133/711
f 131/712 133/713 132/714
f 132/715 133/716 134/717
f 132/718 134/719 104/720
f 133/721 101/722 135/723
f 133/724 135/725 134/726
f 134/727 135/728 136/729
f 134/730 136/731 104/732
f 135/733 101/734 137/735
f 135/736 137/737 136/738
f 136/739 137/740 138/741
f 136/742 138/743 104/744
f 137/745 101/746 102/747
f 137/748 102/749 138/750
f 138/751 102/752 103/753
f 138/754 103/755 104/756
f 140/757 139/758 143/759
f 140/760 143/761 141/762
f 141/763 143/764 144/765
f 141/766 144/767 142/768
f 143/769 139/770 145/771
f 143/772 145/773 144/774
f 144/775 145/776 146/777
f 144/778 146/779 142/780
f 145/781 139/782 147/783
f 145/784 147/785 146/786
f 146/787 147/788 148/789
f 146/790 148/791 142/792
f 147/793 139/794 149/795
f 147/796 149/797 148/798
f 148/799 149/800 150/801
f 148/802 150/803 142/804
f 149/805 139/806 151/807
f 149/808 151/809 150/810
f 150/811 151/812 152/813
f 150/814 152/815 142/816
f 151/817 139/818 153/819
f 151/820 153/821 152/822
f 152/823 153/824 154/825
f 152/826 154/827 142/828
f 153/829 139/830 155/831
f 153/832 155/833 154/834
f 154/835 155/836 156/837
f 154/838 156/839 142/840
f 155/841 139/842 157/843
f 155/844 157/845 156/846
f 156/847 157/848 158/849
f 156/850 158/851 142/852
f 157/853 139/854 159/855
f 157/856 159/857 158/858
f 158/859 159/860 160/861
f 158/862 160/863 142/864
f 159/865 139/866 140/867
f 159/868 140/869 160/870
f 160/871 140/872 141/873
f 160/874 141/875 142/876
f 162/877 161/878 165/879
f 162/880 165/881 163/882
f 163/883 165/884 166/885
f 163/886 166/887 164/888
f 165/889 161/890 167/891
f 165/892 167/893 166/894
f 166/895 167/896 168/897
f 166/898 168/899 164/900
f 167/901 161/902 169/903
f 167/904 169/905 168/906
f 168/907 169/908 170/909
f 168/910 170/911 164/912
f 169/913 161/914 171/915
f 169/916 171/917 170/918
f 170/919 171/920 172/921
f 170/922 172/923 164/924
f 171/925 161/926 173/927
f 171/928 173/929 172/930
f 172/931 173/932 174/933
f 172/934 174/935 164/936
f 173/937 161/938 175/939
f 173/940 175/941 174/942
f 174/943 175/944 176/945
f 174/946 176/947 164/948
f 175/949 161/950 177/951
f 175/952 177/953 176/954
f 176/955 177/956 178/957
f 176/958 178/959 164/960
f 177/961 161/962 179/963
f 177/964 179/965 178/966
f 178/967 179/968 180/969
f 178/970 180/971 164/972
f 179/973 161/974 181/975
f 179/976 181/977 180/978
f 180/979 181/980 182/981
f 180/982 182/983 164/984
f 181/985 161/986 162/987
f 181/988 162/989 182/990
f 182/991 162/992 163/993
f 182/994 163/995 164/996
f 184/997 183/998 187/999
f 184/1000 187/1001 185/1002
f 185/1003 187/1004 188/1005
f 185/1006 188/1007 186/1008
f 187/1009 183/1010 189/1011
f 187/1012 189/1013 188/1014
f 188/1015 189/1016 190/1017
f 188/1018 190/1019 186/1020
f 189/1021 183/1022 191/1023
f 189/1024 191/1025 190/1026
f 190/1027 191/1028 192/1029
f 190/1030 192/1031 186/1032
f 191/1033 183/1034 193/1035
f 191/1036 193/1037 192/1038
f 192/1039 193/1040 194/1041
f 192/1042 194/1043 186/1044
f 193/1045 183/1046 195/1047
f 193/1048 195/1049 194/1050
f 194/1051 195/1052 196/1053
f 194/1054 196/1055 186/1056
f 195/1057 183/1058 197/1059
f 195/1060 197/1061 196/1062
f 196/1063 197/1064 198/1065
f 196/1066 198/1067 186/1068
f 197/1069 183/1070 199/1071
f 197/1072 199/1073 198/1074
f 198/1075 199/1076 200/1077
f 198/1078 200/1079 186/1080
f 199/1081 183/1082 201/1083
f 199/1084 201/1085 200/1086
f 200/1087 201/1088 202/1089
f 200/1090 202/1091 186/1092
f 201/1093 183/1094 203/1095
f 201/1096 203/1097 202/1098
f 202/1099 203/1100 204/1101
f 202/1102 204/1103 186/1104
f 203/1105 183/1106 205/1107
f 203/1108 205/1109 204/1110
f 204/1111 205/1112 206/1113
f 204/1114 206/1115 186/1116
f 205/1117 183/1118 207/1119
f 205/1120 207/1121 206/1122
f 206/1123 207/1124 208/1125
f 206/1126 208/1127 186/1128
f 207/1129 183/1130 209/1131
f 207/1132 209/1133 208/1134
f 208/1135 209/1136 210/1137
f 208/1138 210/1139 186/1140
f 209/1141 183/1142 211/1143
f 209/1144 211/1145 210/1146
f 210/1147 211/1148 212/1149
f 210/1150 212/1151 186/1152
f 211/1153 183/1154 213/1155
f 211/1156 213/1157 212/1158
f 212/1159 213/1160 214/1161
f 212/1162 214/1163 186/1164
f 213/1165 183/1166 215/1167
f 213/1168 215/1169 214/1170
f 214/1171 215/1172 216/1173
f 214/1174 216/1175 186/1176
f 215/1177 183/1178 217/1179
f 215/1180 217/1181 216/1182
f 216/1183 217/1184 218/1185
f 216/1186 218/1187 186/1188
f 217/1189 183/1190 219/1191
f 217/1192 219/1193 218/1194
f 218/1195 219/1196 220/1197
f 218/1198 220/1199 186/1200
f 219/1201 183/1202 184/1203
f 219/1204 184/1205 220/1206
f 220/1207 184/1208 185/1209
f 220/1210 185/1211 186/1212
f 222/1213 221/1214 225/1215
f 222/1216 225/1217 223/1218
f 223/1219 225/1220 226/1221
f 223/1222 226/1223 224/1224
f 225/1225 221/1226 227/1227
f 225/1228 227/1229 226/1230
f 226/1231 227/1232 228/1233
f 226/1234 228/1235 224/1236
f 227/1237 221/1238 229/1239
f 227/1240 229/1241 228/1242
f 228/1243 229/1244 230/1245
f 228/1246 230/1247 224/1248
f 229/1249 221/1250 231/1251
f 229/1252 231/1253 230/1254
f 230/1255 231/1256 232/1257
f 230/1258 232/1259 224/1260
f 231/1261 221/1262 233/1263
f 231/1264 233/1265 232/1266
f 232/1267 233/1268 234/1269
f 232/1270 234/1271 224/1272
f 233/1273 221/1274 235/1275
f 233/1276 235/1277 234/1278
f 234/1279 235/1280 236/1281
f 234/1282 236/1283 224/1284
f 235/1285 221/1286 237/1287
f 235/1288 237/1289 236/1290
f 236/1291 237/1292 238/1293
f 236/1294 238/1295 224/1296
f 237/1297 221/1298 239/1299
f 237/1300 239/1301 238/1302
f 238/1303 239/1304 240/1305
f 238/1306 240/1307 224/1308
f 239/1309 221/1310 241/1311
f 239/1312 241/1313 240/1314
f 240/1315 241/1316 242/1317
f 240/1318 242/1319 224/1320
f 241/1321 221/1322 243/1323
f 241/1324 243/1325 242/1326
f 242/1327 243/1328 244/1329
f 242/1330 244/1331 224/1332
f 243/1333 221/1334 245/1335
f 243/1336 245/1337 244/1338
f 244/1339 245/1340 246/1341
f 244/1342 246/1343 224/1344
f 245/1345 221/1346 247/1347
f 245/1348 247/1349 246/1350
f 246/1351 247/1352 248/1353
f 246/1354 248/1355 224/1356
f 247/1357 221/1358 249/1359
f 247/1360 249/1361 248/1362
f 248/1363 249/1364 250/1365
f 248/1366 250/1367 224/1368
f 249/1369 221/1370 251/1371
f 249/1372 251/1373 250/1374
f 250/1375 251/1376 252/1377
f 250/1378 252/1379 224/1380
f 251/1381 221/1382 253/1383
f 251/1384 253/1385 252/1386
f 252/1387 253/1388 254/1389
f 252/1390 254/1391 224/1392
f 253/1393 221/1394 255/1395
f 253/1396 255/1397 254/1398
f 254/1399 255/1400 256/1401
f 254/1402 256/1403 224/1404
f 255/1405 221/1406 257/1407
f 255/1408 257/1409 256/1410
f 256/1411 257/1412 258/1413
f 256/1414 258/1415 224/1416
f 257/1417 221/1418 222/1419
f 257/1420 222/1421 258/1422
f 258/1423 222/1424 223/1425
f 258/1426 223/1427 224/1428
f 260/1429 259/1430 263/1431
f 260/1432 263/1433 261/1434
f 261/1435 263/1436 264/1437
f 261/1438 264/1439 262/1440
f 263/1441 259/1442 265/1443
f 263/1444 265/1445 264/1446
f 264/1447 265/1448 266/1449
f 264/1450 266/1451 262/1452
f 265/1453 259/1454 267/1455
f 265/1456 267/1457 266/1458
f 266/1459 267/1460 268/1461
f 266/1462 268/1463 262/1464
f 267/1465 259/1466 269/1467
f 267/1468 269/1469 268/1470
f 268/1471 269/1472 270/1473
f 268/1474 270/1475 262/1476
f 269/1477 259/1478 271/1479
f 269/1480 271/1481 270/1482
f 270/1483 271/1484 272/1485
f 270/1486 272/1487 262/1488
f 271/1489 259/1490 273/1491
f 271/1492 273/1493 272/1494
f 272/1495 273/1496 274/1497
f 272/1498 274/1499 262/1500
f 273/1501 259/1502 275/1503
f 273/1504 275/1505 274/1506
f 274/1507 275/1508 276/1509
f 274/1510 276/1511 262/1512
f 275/1513 259/1514 277/1515
f 275/1516 277/1517 276/1518
f 276/1519 277/1520 278/1521
f 276/1522 278/1523 262/1524
f 277/1525 259/1526 279/1527
f 277/1528 279/1529 278/1530
f 278/1531 279/1532 280/1533
f 278/1534 280/1535 262/1536
f 279/1537 259/1538 281/1539
f 279/1540 281/1541 280/1542
f 280/1543 281/1544 282/1545
f 280/1546 282/1547 262/1548
f 281/1549 259/1550 283/1551
f 281/1552 283/1553 282/1554
f 282/1555 283/1556 284/1557
f 282/1558 284/1559 262/1560
f 283/1561 259/1562 285/1563
f 283/1564 285/1565 284/1566
f 284/1567 285/1568 286/1569
f 284/1570 286/1571 262/1572
f 285/1573 259/1574 287/1575
f 285/1576 287/1577 286/1578
f 286/1579 287/1580 288/1581
f 286/1582 288/1583 262/1584
f 287/1585 259/1586 289/1587
f 287/1588 289/1589 288/1590
f 288/1591 289/1592 290/1593
f 288/1594 290/1595 262/1596
f 289/1597 259/1598 291/1599
f 289/1600 291/1601 290/1602
f 290/1603 291/1604 292/1605
f 290/1606 292/1607 262/1608
f 291/1609 259/1610 293/1611
f 291/1612 293/1613 292/1614
f 292/1615 293/1616 294/1617
f 292/1618 294/1619 262/1620
f 293/1621 259/1622 295/1623
f 293/1624 295/1625 294/1626
f 294/1627 295/1628 296/1629
f 294/1630 296/1631 262/1632
f 295/1633 259/1634 260/1635
f 295/1636 260/1637 296/1638
f 296/1639 260/1640 261/1641
f 296/1642 261/1643 262/1644
o Lens
g Lens
usemtl AccentHot
v 0.00000 0.20000 -0.32940
v 0.09975 0.20000 -0.32940
v 0.09975 0.20000 -0.31740
v 0.00000 0.20000 -0.31740
v 0.09373 0.23412 -0.32940
v 0.09373 0.23412 -0.31740
v 0.07641 0.26412 -0.32940
v 0.07641 0.26412 -0.31740
v 0.04988 0.28639 -0.32940
v 0.04988 0.28639 -0.31740
v 0.01732 0.29823 -0.32940
v 0.01732 0.29823 -0.31740
v -0.01732 0.29823 -0.32940
v -0.01732 0.29823 -0.31740
v -0.04987 0.28639 -0.32940
v -0.04987 0.28639 -0.31740
v -0.07641 0.26412 -0.32940
v -0.07641 0.26412 -0.31740
v -0.09373 0.23412 -0.32940
v -0.09373 0.23412 -0.31740
v -0.09975 0.20000 -0.32940
v -0.09975 0.20000 -0.31740
v -0.09373 0.16588 -0.32940
v -0.09373 0.16588 -0.31740
v -0.07641 0.13588 -0.32940
v -0.07641 0.13588 -0.31740
v -0.04988 0.11361 -0.32940
v -0.04988 0.11361 -0.31740
v -0.01732 0.10177 -0.32940
v -0.01732 0.10177 -0.31740
v 0.01732 0.10177 -0.32940
v 0.01732 0.10177 -0.31740
v 0.04988 0.11361 -0.32940
v 0.04988 0.11361 -0.31740
v 0.07641 0.13588 -0.32940
v 0.07641 0.13588 -0.31740
v 0.09373 0.16588 -0.32940
v 0.09373 0.16588 -0.31740
vt 0.00000 0.50000
vt 0.00000 0.50000
vt 0.00000 0.67365
vt 0.00000 0.50000
vt 0.00000 0.67365
vt 1.00000 0.50000
vt 1.00000 0.50000
vt 0.00000 0.67365
vt 1.00000 0.67365
vt 1.00000 0.50000
vt 1.00000 0.67365
vt 1.00000 0.50000
vt 0.00000 0.67365
vt 0.00000 0.50000
vt 0.00000 0.82635
vt 0.00000 0.67365
vt 0.00000 0.82635
vt 1.00000 0.67365
vt 1.00000 0.67365
vt 0.00000 0.82635
vt 1.00000 0.82635
vt 1.00000 0.67365
vt 1.00000 0.82635
vt 1.00000 0.50000
vt 0.00000 0.82635
vt 0.00000 0.50000
vt 0.00000 0.93969
vt 0.00000 0.82635
vt 0.00000 0.93969
vt 1.00000 0.82635
vt 1.00000 0.82635
vt 0.00000 0.93969
vt 1.00000 0.93969
vt 1.00000 0.82635
vt 1.00000 0.93969
vt 1.00000 0.50000
vt 0.00000 0.93969
vt 0.00000 0.50000
vt 0.00000 1.00000
vt 0.00000 0.93969
vt 0.00000 1.00000
vt 1.00000 0.93969
vt 1.00000 0.93969
vt 0.00000 1.00000
vt 1.00000 1.00000
vt 1.00000 0.93969
vt 1.00000 1.00000
vt 1.00000 0.50000
vt 0.00000 1.00000
vt 0.00000 0.50000
vt 0.00000 1.00000
vt 0.00000 1.00000
vt 0.00000 1.00000
vt 1.00000 1.00000
vt 1.00000 1.00000
vt 0.00000 1.00000
vt 1.00000 1.00000
vt 1.00000 1.00000
vt 1.00000 1.00000
vt 1.00000 0.50000
vt 0.00000 1.00000
vt 0.00000 0.50000
vt 0.00000 0.93969
vt 0.00000 1.00000
vt 0.00000 0.93969
vt 1.00000 1.00000
vt 1.00000 1.00000
vt 0.00000 0.93969
vt 1.00000 0.93969
vt 1.00000 1.00000
vt 1.00000 0.93969
vt 1.00000 0.50000
vt 0.00000 0.93969
vt 0.00000 0.50000
vt 0.00000 0.82635
vt 0.00000 0.93969
vt 0.00000 0.82635
vt 1.00000 0.93969
vt 1.00000 0.93969
vt 0.00000 0.82635
vt 1.00000 0.82635
vt 1.00000 0.93969
vt 1.00000 0.82635
vt 1.00000 0.50000
vt 0.00000 0.82635
vt 0.00000 0.50000
vt 0.00000 0.67365
vt 0.00000 0.82635
vt 0.00000 0.67365
vt 1.00000 0.82635
vt 1.00000 0.82635
vt 0.00000 0.67365
vt 1.00000 0.67365
vt 1.00000 0.82635
vt 1.00000 0.67365
vt 1.00000 0.50000
vt 0.00000 0.67365
vt 0.00000 0.50000
vt 0.00000 0.50000
vt 0.00000 0.67365
vt 0.00000 0.50000
vt 1.00000 0.67365
vt 1.00000 0.67365
vt 0.00000 0.50000
vt 1.00000 0.50000
vt 1.00000 0.67365
vt 1.00000 0.50000
vt 1.00000 0.50000
vt 0.00000 0.50000
vt 0.00000 0.50000
vt 0.00000 0.32635
vt 0.00000 0.50000
vt 0.00000 0.32635
vt 1.00000 0.50000
vt 1.00000 0.50000
vt 0.00000 0.32635
vt 1.00000 0.32635
vt 1.00000 0.50000
vt 1.00000 0.32635
vt 1.00000 0.50000
vt 0.00000 0.32635
vt 0.00000 0.50000
vt 0.00000 0.17365
vt 0.00000 0.32635
vt 0.00000 0.17365
vt 1.00000 0.32635
vt 1.00000 0.32635
vt 0.00000 0.17365
vt 1.00000 0.17365
vt 1.00000 0.32635
vt 1.00000 0.17365
vt 1.00000 0.50000
vt 0.00000 0.17365
vt 0.00000 0.50000
vt 0.00000 0.06031
vt 0.00000 0.17365
vt 0.00000 0.06031
vt 1.00000 0.17365
vt 1.00000 0.17365
vt 0.00000 0.06031
vt 1.00000 0.06031
vt 1.00000 0.17365
vt 1.00000 0.06031
vt 1.00000 0.50000
vt 0.00000 0.06031
vt 0.00000 0.50000
vt 0.00000 0.00000
vt 0.00000 0.06031
vt 0.00000 0.00000
vt 1.00000 0.06031
vt 1.00000 0.06031
vt 0.00000 0.00000
vt 1.00000 0.00000
vt 1.00000 0.06031
vt 1.00000 0.00000
vt 1.00000 0.50000
vt 0.00000 0.00000
vt 0.00000 0.50000
vt 0.00000 0.00000
vt 0.00000 0.00000
vt 0.00000 0.00000
vt 1.00000 0.00000
vt 1.00000 0.00000
vt 0.00000 0.00000
vt 1.00000 0.00000
vt 1.00000 0.00000
vt 1.00000 0.00000
vt 1.00000 0.50000
vt 0.00000 0.00000
vt 0.00000 0.50000
vt 0.00000 0.06031
vt 0.00000 0.00000
vt 0.00000 0.06031
vt 1.00000 0.00000
vt 1.00000 0.00000
vt 0.00000 0.06031
vt 1.00000 0.06031
vt 1.00000 0.00000
vt 1.00000 0.06031
vt 1.00000 0.50000
vt 0.00000 0.06031
vt 0.00000 0.50000
vt 0.00000 0.17365
vt 0.00000 0.06031
vt 0.00000 0.17365
vt 1.00000 0.06031
vt 1.00000 0.06031
vt 0.00000 0.17365
vt 1.00000 0.17365
vt 1.00000 0.06031
vt 1.00000 0.17365
vt 1.00000 0.50000
vt 0.00000 0.17365
vt 0.00000 0.50000
vt 0.00000 0.32635
vt 0.00000 0.17365
vt 0.00000 0.32635
vt 1.00000 0.17365
vt 1.00000 0.17365
vt 0.00000 0.32635
vt 1.00000 0.32635
vt 1.00000 0.17365
vt 1.00000 0.32635
vt 1.00000 0.50000
vt 0.00000 0.32635
vt 0.00000 0.50000
vt 0.00000 0.50000
vt 0.00000 0.32635
vt 0.00000 0.50000
vt 1.00000 0.32635
vt 1.00000 0.32635
vt 0.00000 0.50000
vt 1.00000 0.50000
vt 1.00000 0.32635
vt 1.00000 0.50000
vt 1.00000 0.50000
f 298/1645 297/1646 301/1647
f 298/1648 301/1649 299/1650
f 299/1651 301/1652 302/1653
f 299/1654 302/1655 300/1656
f 301/1657 297/1658 303/1659
f 301/1660 303/1661 302/1662
f 302/1663 303/1664 304/1665
f 302/1666 304/1667 300/1668
f 303/1669 297/1670 305/1671
f 303/1672 305/1673 304/1674
f 304/1675 305/1676 306/1677
f 304/1678 306/1679 300/1680
f 305/1681 297/1682 307/1683
f 305/1684 307/1685 306/1686
f 306/1687 307/1688 308/1689
f 306/1690 308/1691 300/1692
f 307/1693 297/1694 309/1695
f 307/1696 309/1697 308/1698
f 308/1699 309/1700 310/1701
f 308/1702 310/1703 300/1704
f 309/1705 297/1706 311/1707
f 309/1708 311/1709 310/1710
f 310/1711 311/1712 312/1713
f 310/1714 312/1715 300/1716
f 311/1717 297/1718 313/1719
f 311/1720 313/1721 312/1722
f 312/1723 313/1724 314/1725
f 312/1726 314/1727 300/1728
f 313/1729 297/1730 315/1731
f 313/1732 315/1733 314/1734
f 314/1735 315/1736 316/1737
f 314/1738 316/1739 300/1740
f 315/1741 297/1742 317/1743
f 315/1744 317/1745 316/1746
f 316/1747 317/1748 318/1749
f 316/1750 318/1751 300/1752
f 317/1753 297/1754 319/1755
f 317/1756 319/1757 318/1758
f 318/1759 319/1760 320/1761
f 318/1762 320/1763 300/1764
f 319/1765 297/1766 321/1767
f 319/1768 321/1769 320/1770
f 320/1771 321/1772 322/1773
f 320/1774 322/1775 300/1776
f 321/1777 297/1778 323/1779
f 321/1780 323/1781 322/1782
f 322/1783 323/1784 324/1785
f 322/1786 324/1787 300/1788
f 323/1789 297/1790 325/1791
f 323/1792 325/1793 324/1794
f 324/1795 325/1796 326/1797
f 324/1798 326/1799 300/1800
f 325/1801 297/1802 327/1803
f 325/1804 327/1805 326/1806
f 326/1807 327/1808 328/1809
f 326/1810 328/1811 300/1812
f 327/1813 297/1814 329/1815
f 327/1816 329/1817 328/1818
f 328/1819 329/1820 330/1821
f 328/1822 330/1823 300/1824
f 329/1825 297/1826 331/1827
f 329/1828 331/1829 330/1830
f 330/1831 331/1832 332/1833
f 330/1834 332/1835 300/1836
f 331/1837 297/1838 333/1839
f 331/1840 333/1841 332/1842
f 332/1843 333/1844 334/1845
f 332/1846 334/1847 300/1848
f 333/1849 297/1850 298/1851
f 333/1852 298/1853 334/1854
f 334/1855 298/1856 299/1857
f 334/1858 299/1859 300/1860
