# Suppressor — Pink Panic Stage 1 attachment
# faces -Z, up +Y, right +X; origin at the mating face
# authored for this project — no third-party geometry
mtllib pinkpanic.mtl
o Suppressor_Body
g Suppressor_Body
usemtl BodyPink
v 0.00000 0.00000 -0.30000
v 0.08800 0.00000 -0.30000
v 0.08800 0.00000 0.30000
v 0.00000 0.00000 0.30000
v 0.08269 0.03010 -0.30000
v 0.08269 0.03010 0.30000
v 0.06741 0.05657 -0.30000
v 0.06741 0.05657 0.30000
v 0.04400 0.07621 -0.30000
v 0.04400 0.07621 0.30000
v 0.01528 0.08666 -0.30000
v 0.01528 0.08666 0.30000
v -0.01528 0.08666 -0.30000
v -0.01528 0.08666 0.30000
v -0.04400 0.07621 -0.30000
v -0.04400 0.07621 0.30000
v -0.06741 0.05657 -0.30000
v -0.06741 0.05657 0.30000
v -0.08269 0.03010 -0.30000
v -0.08269 0.03010 0.30000
v -0.08800 0.00000 -0.30000
v -0.08800 0.00000 0.30000
v -0.08269 -0.03010 -0.30000
v -0.08269 -0.03010 0.30000
v -0.06741 -0.05657 -0.30000
v -0.06741 -0.05657 0.30000
v -0.04400 -0.07621 -0.30000
v -0.04400 -0.07621 0.30000
v -0.01528 -0.08666 -0.30000
v -0.01528 -0.08666 0.30000
v 0.01528 -0.08666 -0.30000
v 0.01528 -0.08666 0.30000
v 0.04400 -0.07621 -0.30000
v 0.04400 -0.07621 0.30000
v 0.06741 -0.05657 -0.30000
v 0.06741 -0.05657 0.30000
v 0.08269 -0.03010 -0.30000
v 0.08269 -0.03010 0.30000
vt 0.00000 0.50000
vt 0.00000 0.50000
vt 0.00000 0.67365
vt 0.00000 0.50000
vt 0.00000 0.67365
vt 1.00000 0.50000
vt 1.00000 0.50000
vt 0.00000 0.67365
vt 1.00000 0.67365
vt 1.00000 0.50000
vt 1.00000 0.67365
vt 1.00000 0.50000
vt 0.00000 0.67365
vt 0.00000 0.50000
vt 0.00000 0.82635
vt 0.00000 0.67365
vt 0.00000 0.82635
vt 1.00000 0.67365
vt 1.00000 0.67365
vt 0.00000 0.82635
vt 1.00000 0.82635
vt 1.00000 0.67365
vt 1.00000 0.82635
vt 1.00000 0.50000
vt 0.00000 0.82635
vt 0.00000 0.50000
vt 0.00000 0.93969
vt 0.00000 0.82635
vt 0.00000 0.93969
vt 1.00000 0.82635
vt 1.00000 0.82635
vt 0.00000 0.93969
vt 1.00000 0.93969
vt 1.00000 0.82635
vt 1.00000 0.93969
vt 1.00000 0.50000
vt 0.00000 0.93969
vt 0.00000 0.50000
vt 0.00000 1.00000
vt 0.00000 0.93969
vt 0.00000 1.00000
vt 1.00000 0.93969
vt 1.00000 0.93969
vt 0.00000 1.00000
vt 1.00000 1.00000
vt 1.00000 0.93969
vt 1.00000 1.00000
vt 1.00000 0.50000
vt 0.00000 1.00000
vt 0.00000 0.50000
vt 0.00000 1.00000
vt 0.00000 1.00000
vt 0.00000 1.00000
vt 1.00000 1.00000
vt 1.00000 1.00000
vt 0.00000 1.00000
vt 1.00000 1.00000
vt 1.00000 1.00000
vt 1.00000 1.00000
vt 1.00000 0.50000
vt 0.00000 1.00000
vt 0.00000 0.50000
vt 0.00000 0.93969
vt 0.00000 1.00000
vt 0.00000 0.93969
vt 1.00000 1.00000
vt 1.00000 1.00000
vt 0.00000 0.93969
vt 1.00000 0.93969
vt 1.00000 1.00000
vt 1.00000 0.93969
vt 1.00000 0.50000
vt 0.00000 0.93969
vt 0.00000 0.50000
vt 0.00000 0.82635
vt 0.00000 0.93969
vt 0.00000 0.82635
vt 1.00000 0.93969
vt 1.00000 0.93969
vt 0.00000 0.82635
vt 1.00000 0.82635
vt 1.00000 0.93969
vt 1.00000 0.82635
vt 1.00000 0.50000
vt 0.00000 0.82635
vt 0.00000 0.50000
vt 0.00000 0.67365
vt 0.00000 0.82635
vt 0.00000 0.67365
vt 1.00000 0.82635
vt 1.00000 0.82635
vt 0.00000 0.67365
vt 1.00000 0.67365
vt 1.00000 0.82635
vt 1.00000 0.67365
vt 1.00000 0.50000
vt 0.00000 0.67365
vt 0.00000 0.50000
vt 0.00000 0.50000
vt 0.00000 0.67365
vt 0.00000 0.50000
vt 1.00000 0.67365
vt 1.00000 0.67365
vt 0.00000 0.50000
vt 1.00000 0.50000
vt 1.00000 0.67365
vt 1.00000 0.50000
vt 1.00000 0.50000
vt 0.00000 0.50000
vt 0.00000 0.50000
vt 0.00000 0.32635
vt 0.00000 0.50000
vt 0.00000 0.32635
vt 1.00000 0.50000
vt 1.00000 0.50000
vt 0.00000 0.32635
vt 1.00000 0.32635
vt 1.00000 0.50000
vt 1.00000 0.32635
vt 1.00000 0.50000
vt 0.00000 0.32635
vt 0.00000 0.50000
vt 0.00000 0.17365
vt 0.00000 0.32635
vt 0.00000 0.17365
vt 1.00000 0.32635
vt 1.00000 0.32635
vt 0.00000 0.17365
vt 1.00000 0.17365
vt 1.00000 0.32635
vt 1.00000 0.17365
vt 1.00000 0.50000
vt 0.00000 0.17365
vt 0.00000 0.50000
vt 0.00000 0.06031
vt 0.00000 0.17365
vt 0.00000 0.06031
vt 1.00000 0.17365
vt 1.00000 0.17365
vt 0.00000 0.06031
vt 1.00000 0.06031
vt 1.00000 0.17365
vt 1.00000 0.06031
vt 1.00000 0.50000
vt 0.00000 0.06031
vt 0.00000 0.50000
vt 0.00000 0.00000
vt 0.00000 0.06031
vt 0.00000 0.00000
vt 1.00000 0.06031
vt 1.00000 0.06031
vt 0.00000 0.00000
vt 1.00000 0.00000
vt 1.00000 0.06031
vt 1.00000 0.00000
vt 1.00000 0.50000
vt 0.00000 0.00000
vt 0.00000 0.50000
vt 0.00000 0.00000
vt 0.00000 0.00000
vt 0.00000 0.00000
vt 1.00000 0.00000
vt 1.00000 0.00000
vt 0.00000 0.00000
vt 1.00000 0.00000
vt 1.00000 0.00000
vt 1.00000 0.00000
vt 1.00000 0.50000
vt 0.00000 0.00000
vt 0.00000 0.50000
vt 0.00000 0.06031
vt 0.00000 0.00000
vt 0.00000 0.06031
vt 1.00000 0.00000
vt 1.00000 0.00000
vt 0.00000 0.06031
vt 1.00000 0.06031
vt 1.00000 0.00000
vt 1.00000 0.06031
vt 1.00000 0.50000
vt 0.00000 0.06031
vt 0.00000 0.50000
vt 0.00000 0.17365
vt 0.00000 0.06031
vt 0.00000 0.17365
vt 1.00000 0.06031
vt 1.00000 0.06031
vt 0.00000 0.17365
vt 1.00000 0.17365
vt 1.00000 0.06031
vt 1.00000 0.17365
vt 1.00000 0.50000
vt 0.00000 0.17365
vt 0.00000 0.50000
vt 0.00000 0.32635
vt 0.00000 0.17365
vt 0.00000 0.32635
vt 1.00000 0.17365
vt 1.00000 0.17365
vt 0.00000 0.32635
vt 1.00000 0.32635
vt 1.00000 0.17365
vt 1.00000 0.32635
vt 1.00000 0.50000
vt 0.00000 0.32635
vt 0.00000 0.50000
vt 0.00000 0.50000
vt 0.00000 0.32635
vt 0.00000 0.50000
vt 1.00000 0.32635
vt 1.00000 0.32635
vt 0.00000 0.50000
vt 1.00000 0.50000
vt 1.00000 0.32635
vt 1.00000 0.50000
vt 1.00000 0.50000
f 2/1 1/2 5/3
f 2/4 5/5 3/6
f 3/7 5/8 6/9
f 3/10 6/11 4/12
f 5/13 1/14 7/15
f 5/16 7/17 6/18
f 6/19 7/20 8/21
f 6/22 8/23 4/24
f 7/25 1/26 9/27
f 7/28 9/29 8/30
f 8/31 9/32 10/33
f 8/34 10/35 4/36
f 9/37 1/38 11/39
f 9/40 11/41 10/42
f 10/43 11/44 12/45
f 10/46 12/47 4/48
f 11/49 1/50 13/51
f 11/52 13/53 12/54
f 12/55 13/56 14/57
f 12/58 14/59 4/60
f 13/61 1/62 15/63
f 13/64 15/65 14/66
f 14/67 15/68 16/69
f 14/70 16/71 4/72
f 15/73 1/74 17/75
f 15/76 17/77 16/78
f 16/79 17/80 18/81
f 16/82 18/83 4/84
f 17/85 1/86 19/87
f 17/88 19/89 18/90
f 18/91 19/92 20/93
f 18/94 20/95 4/96
f 19/97 1/98 21/99
f 19/100 21/101 20/102
f 20/103 21/104 22/105
f 20/106 22/107 4/108
f 21/109 1/110 23/111
f 21/112 23/113 22/114
f 22/115 23/116 24/117
f 22/118 24/119 4/120
f 23/121 1/122 25/123
f 23/124 25/125 24/126
f 24/127 25/128 26/129
f 24/130 26/131 4/132
f 25/133 1/134 27/135
f 25/136 27/137 26/138
f 26/139 27/140 28/141
f 26/142 28/143 4/144
f 27/145 1/146 29/147
f 27/148 29/149 28/150
f 28/151 29/152 30/153
f 28/154 30/155 4/156
f 29/157 1/158 31/159
f 29/160 31/161 30/162
f 30/163 31/164 32/165
f 30/166 32/167 4/168
f 31/169 1/170 33/171
f 31/172 33/173 32/174
f 32/175 33/176 34/177
f 32/178 34/179 4/180
f 33/181 1/182 35/183
f 33/184 35/185 34/186
f 34/187 35/188 36/189
f 34/190 36/191 4/192
f 35/193 1/194 37/195
f 35/196 37/197 36/198
f 36/199 37/200 38/201
f 36/202 38/203 4/204
f 37/205 1/206 2/207
f 37/208 2/209 38/210
f 38/211 2/212 3/213
f 38/214 3/215 4/216
o Suppressor_Detail
g Suppressor_Detail
usemtl GoldSoft
v 0.00000 0.00000 0.24500
v 0.09800 0.00000 0.24500
v 0.09800 0.00000 0.29500
v 0.00000 0.00000 0.29500
v 0.09209 0.03352 0.24500
v 0.09209 0.03352 0.29500
v 0.07507 0.06299 0.24500
v 0.07507 0.06299 0.29500
v 0.04900 0.08487 0.24500
v 0.04900 0.08487 0.29500
v 0.01702 0.09651 0.24500
v 0.01702 0.09651 0.29500
v -0.01702 0.09651 0.24500
v -0.01702 0.09651 0.29500
v -0.04900 0.08487 0.24500
v -0.04900 0.08487 0.29500
v -0.07507 0.06299 0.24500
v -0.07507 0.06299 0.29500
v -0.09209 0.03352 0.24500
v -0.09209 0.03352 0.29500
v -0.09800 0.00000 0.24500
v -0.09800 0.00000 0.29500
v -0.09209 -0.03352 0.24500
v -0.09209 -0.03352 0.29500
v -0.07507 -0.06299 0.24500
v -0.07507 -0.06299 0.29500
v -0.04900 -0.08487 0.24500
v -0.04900 -0.08487 0.29500
v -0.01702 -0.09651 0.24500
v -0.01702 -0.09651 0.29500
v 0.01702 -0.09651 0.24500
v 0.01702 -0.09651 0.29500
v 0.04900 -0.08487 0.24500
v 0.04900 -0.08487 0.29500
v 0.07507 -0.06299 0.24500
v 0.07507 -0.06299 0.29500
v 0.09209 -0.03352 0.24500
v 0.09209 -0.03352 0.29500
v 0.00000 0.00000 -0.29500
v 0.09800 0.00000 -0.29500
v 0.09800 0.00000 -0.24500
v 0.00000 0.00000 -0.24500
v 0.09209 0.03352 -0.29500
v 0.09209 0.03352 -0.24500
v 0.07507 0.06299 -0.29500
v 0.07507 0.06299 -0.24500
v 0.04900 0.08487 -0.29500
v 0.04900 0.08487 -0.24500
v 0.01702 0.09651 -0.29500
v 0.01702 0.09651 -0.24500
v -0.01702 0.09651 -0.29500
v -0.01702 0.09651 -0.24500
v -0.04900 0.08487 -0.29500
v -0.04900 0.08487 -0.24500
v -0.07507 0.06299 -0.29500
v -0.07507 0.06299 -0.24500
v -0.09209 0.03352 -0.29500
v -0.09209 0.03352 -0.24500
v -0.09800 0.00000 -0.29500
v -0.09800 0.00000 -0.24500
v -0.09209 -0.03352 -0.29500
v -0.09209 -0.03352 -0.24500
v -0.07507 -0.06299 -0.29500
v -0.07507 -0.06299 -0.24500
v -0.04900 -0.08487 -0.29500
v -0.04900 -0.08487 -0.24500
v -0.01702 -0.09651 -0.29500
v -0.01702 -0.09651 -0.24500
v 0.01702 -0.09651 -0.29500
v 0.01702 -0.09651 -0.24500
v 0.04900 -0.08487 -0.29500
v 0.04900 -0.08487 -0.24500
v 0.07507 -0.06299 -0.29500
v 0.07507 -0.06299 -0.24500
v 0.09209 -0.03352 -0.29500
v 0.09209 -0.03352 -0.24500
v 0.00000 0.00000 -0.12600
v 0.09200 0.00000 -0.12600
v 0.09200 0.00000 -0.11400
v 0.00000 0.00000 -0.11400
v 0.08645 0.03147 -0.12600
v 0.08645 0.03147 -0.11400
v 0.07048 0.05914 -0.12600
v 0.07048 0.05914 -0.11400
v 0.04600 0.07967 -0.12600
v 0.04600 0.07967 -0.11400
v 0.01598 0.09060 -0.12600
v 0.01598 0.09060 -0.11400
v -0.01598 0.09060 -0.12600
v -0.01598 0.09060 -0.11400
v -0.04600 0.07967 -0.12600
v -0.04600 0.07967 -0.11400
v -0.07048 0.05914 -0.12600
v -0.07048 0.05914 -0.11400
v -0.08645 0.03147 -0.12600
v -0.08645 0.03147 -0.11400
v -0.09200 0.00000 -0.12600
v -0.09200 0.00000 -0.11400
v -0.08645 -0.03147 -0.12600
v -0.08645 -0.03147 -0.11400
v -0.07048 -0.05914 -0.12600
v -0.07048 -0.05914 -0.11400
v -0.04600 -0.07967 -0.12600
v -0.04600 -0.07967 -0.11400
v -0.01598 -0.09060 -0.12600
v -0.01598 -0.09060 -0.11400
v 0.01598 -0.09060 -0.12600
v 0.01598 -0.09060 -0.11400
v 0.04600 -0.07967 -0.12600
v 0.04600 -0.07967 -0.11400
v 0.07048 -0.05914 -0.12600
v 0.07048 -0.05914 -0.11400
v 0.08645 -0.03147 -0.12600
v 0.08645 -0.03147 -0.11400
v 0.00000 0.00000 -0.00600
v 0.09200 0.00000 -0.00600
v 0.09200 0.00000 0.00600
v 0.00000 0.00000 0.00600
v 0.08645 0.03147 -0.00600
v 0.08645 0.03147 0.00600
v 0.07048 0.05914 -0.00600
v 0.07048 0.05914 0.00600
v 0.04600 0.07967 -0.00600
v 0.04600 0.07967 0.00600
v 0.01598 0.09060 -0.00600
v 0.01598 0.09060 0.00600
v -0.01598 0.09060 -0.00600
v -0.01598 0.09060 0.00600
v -0.04600 0.07967 -0.00600
v -0.04600 0.07967 0.00600
v -0.07048 0.05914 -0.00600
v -0.07048 0.05914 0.00600
v -0.08645 0.03147 -0.00600
v -0.08645 0.03147 0.00600
v -0.09200 0.00000 -0.00600
v -0.09200 0.00000 0.00600
v -0.08645 -0.03147 -0.00600
v -0.08645 -0.03147 0.00600
v -0.07048 -0.05914 -0.00600
v -0.07048 -0.05914 0.00600
v -0.04600 -0.07967 -0.00600
v -0.04600 -0.07967 0.00600
v -0.01598 -0.09060 -0.00600
v -0.01598 -0.09060 0.00600
v 0.01598 -0.09060 -0.00600
v 0.01598 -0.09060 0.00600
v 0.04600 -0.07967 -0.00600
v 0.04600 -0.07967 0.00600
v 0.07048 -0.05914 -0.00600
v 0.07048 -0.05914 0.00600
v 0.08645 -0.03147 -0.00600
v 0.08645 -0.03147 0.00600
v 0.00000 0.00000 0.11400
v 0.09200 0.00000 0.11400
v 0.09200 0.00000 0.12600
v 0.00000 0.00000 0.12600
v 0.08645 0.03147 0.11400
v 0.08645 0.03147 0.12600
v 0.07048 0.05914 0.11400
v 0.07048 0.05914 0.12600
v 0.04600 0.07967 0.11400
v 0.04600 0.07967 0.12600
v 0.01598 0.09060 0.11400
v 0.01598 0.09060 0.12600
v -0.01598 0.09060 0.11400
v -0.01598 0.09060 0.12600
v -0.04600 0.07967 0.11400
v -0.04600 0.07967 0.12600
v -0.07048 0.05914 0.11400
v -0.07048 0.05914 0.12600
v -0.08645 0.03147 0.11400
v -0.08645 0.03147 0.12600
v -0.09200 0.00000 0.11400
v -0.09200 0.00000 0.12600
v -0.08645 -0.03147 0.11400
v -0.08645 -0.03147 0.12600
v -0.07048 -0.05914 0.11400
v -0.07048 -0.05914 0.12600
v -0.04600 -0.07967 0.11400
v -0.04600 -0.07967 0.12600
v -0.01598 -0.09060 0.11400
v -0.01598 -0.09060 0.12600
v 0.01598 -0.09060 0.11400
v 0.01598 -0.09060 0.12600
v 0.04600 -0.07967 0.11400
v 0.04600 -0.07967 0.12600
v 0.07048 -0.05914 0.11400
v 0.07048 -0.05914 0.12600
v 0.08645 -0.03147 0.11400
v 0.08645 -0.03147 0.12600
vt 0.91525 0.50000
vt 0.91525 0.50000
vt 0.91525 0.67365
vt 0.91525 0.50000
vt 0.91525 0.67365
vt 1.00000 0.50000
vt 1.00000 0.50000
vt 0.91525 0.67365
vt 1.00000 0.67365
vt 1.00000 0.50000
vt 1.00000 0.67365
vt 1.00000 0.50000
vt 0.91525 0.67365
vt 0.91525 0.50000
vt 0.91525 0.82635
vt 0.91525 0.67365
vt 0.91525 0.82635
vt 1.00000 0.67365
vt 1.00000 0.67365
vt 0.91525 0.82635
vt 1.00000 0.82635
vt 1.00000 0.67365
vt 1.00000 0.82635
vt 1.00000 0.50000
vt 0.91525 0.82635
vt 0.91525 0.50000
vt 0.91525 0.93969
vt 0.91525 0.82635
vt 0.91525 0.93969
vt 1.00000 0.82635
vt 1.00000 0.82635
vt 0.91525 0.93969
vt 1.00000 0.93969
vt 1.00000 0.82635
vt 1.00000 0.93969
vt 1.00000 0.50000
vt 0.91525 0.93969
vt 0.91525 0.50000
vt 0.91525 1.00000
vt 0.91525 0.93969
vt 0.91525 1.00000
vt 1.00000 0.93969
vt 1.00000 0.93969
vt 0.91525 1.00000
vt 1.00000 1.00000
vt 1.00000 0.93969
vt 1.00000 1.00000
vt 1.00000 0.50000
vt 0.91525 1.00000
vt 0.91525 0.50000
vt 0.91525 1.00000
vt 0.91525 1.00000
vt 0.91525 1.00000
vt 1.00000 1.00000
vt 1.00000 1.00000
vt 0.91525 1.00000
vt 1.00000 1.00000
vt 1.00000 1.00000
vt 1.00000 1.00000
vt 1.00000 0.50000
vt 0.91525 1.00000
vt 0.91525 0.50000
vt 0.91525 0.93969
vt 0.91525 1.00000
vt 0.91525 0.93969
vt 1.00000 1.00000
vt 1.00000 1.00000
vt 0.91525 0.93969
vt 1.00000 0.93969
vt 1.00000 1.00000
vt 1.00000 0.93969
vt 1.00000 0.50000
vt 0.91525 0.93969
vt 0.91525 0.50000
vt 0.91525 0.82635
vt 0.91525 0.93969
vt 0.91525 0.82635
vt 1.00000 0.93969
vt 1.00000 0.93969
vt 0.91525 0.82635
vt 1.00000 0.82635
vt 1.00000 0.93969
vt 1.00000 0.82635
vt 1.00000 0.50000
vt 0.91525 0.82635
vt 0.91525 0.50000
vt 0.91525 0.67365
vt 0.91525 0.82635
vt 0.91525 0.67365
vt 1.00000 0.82635
vt 1.00000 0.82635
vt 0.91525 0.67365
vt 1.00000 0.67365
vt 1.00000 0.82635
vt 1.00000 0.67365
vt 1.00000 0.50000
vt 0.91525 0.67365
vt 0.91525 0.50000
vt 0.91525 0.50000
vt 0.91525 0.67365
vt 0.91525 0.50000
vt 1.00000 0.67365
vt 1.00000 0.67365
vt 0.91525 0.50000
vt 1.00000 0.50000
vt 1.00000 0.67365
vt 1.00000 0.50000
vt 1.00000 0.50000
vt 0.91525 0.50000
vt 0.91525 0.50000
vt 0.91525 0.32635
vt 0.91525 0.50000
vt 0.91525 0.32635
vt 1.00000 0.50000
vt 1.00000 0.50000
vt 0.91525 0.32635
vt 1.00000 0.32635
vt 1.00000 0.50000
vt 1.00000 0.32635
vt 1.00000 0.50000
vt 0.91525 0.32635
vt 0.91525 0.50000
vt 0.91525 0.17365
vt 0.91525 0.32635
vt 0.91525 0.17365
vt 1.00000 0.32635
vt 1.00000 0.32635
vt 0.91525 0.17365
vt 1.00000 0.17365
vt 1.00000 0.32635
vt 1.00000 0.17365
vt 1.00000 0.50000
vt 0.91525 0.17365
vt 0.91525 0.50000
vt 0.91525 0.06031
vt 0.91525 0.17365
vt 0.91525 0.06031
vt 1.00000 0.17365
vt 1.00000 0.17365
vt 0.91525 0.06031
vt 1.00000 0.06031
vt 1.00000 0.17365
vt 1.00000 0.06031
vt 1.00000 0.50000
vt 0.91525 0.06031
vt 0.91525 0.50000
vt 0.91525 0.00000
vt 0.91525 0.06031
vt 0.91525 0.00000
vt 1.00000 0.06031
vt 1.00000 0.06031
vt 0.91525 0.00000
vt 1.00000 0.00000
vt 1.00000 0.06031
vt 1.00000 0.00000
vt 1.00000 0.50000
vt 0.91525 0.00000
vt 0.91525 0.50000
vt 0.91525 0.00000
vt 0.91525 0.00000
vt 0.91525 0.00000
vt 1.00000 0.00000
vt 1.00000 0.00000
vt 0.91525 0.00000
vt 1.00000 0.00000
vt 1.00000 0.00000
vt 1.00000 0.00000
vt 1.00000 0.50000
vt 0.91525 0.00000
vt 0.91525 0.50000
vt 0.91525 0.06031
vt 0.91525 0.00000
vt 0.91525 0.06031
vt 1.00000 0.00000
vt 1.00000 0.00000
vt 0.91525 0.06031
vt 1.00000 0.06031
vt 1.00000 0.00000
vt 1.00000 0.06031
vt 1.00000 0.50000
vt 0.91525 0.06031
vt 0.91525 0.50000
vt 0.91525 0.17365
vt 0.91525 0.06031
vt 0.91525 0.17365
vt 1.00000 0.06031
vt 1.00000 0.06031
vt 0.91525 0.17365
vt 1.00000 0.17365
vt 1.00000 0.06031
vt 1.00000 0.17365
vt 1.00000 0.50000
vt 0.91525 0.17365
vt 0.91525 0.50000
vt 0.91525 0.32635
vt 0.91525 0.17365
vt 0.91525 0.32635
vt 1.00000 0.17365
vt 1.00000 0.17365
vt 0.91525 0.32635
vt 1.00000 0.32635
vt 1.00000 0.17365
vt 1.00000 0.32635
vt 1.00000 0.50000
vt 0.91525 0.32635
vt 0.91525 0.50000
vt 0.91525 0.50000
vt 0.91525 0.32635
vt 0.91525 0.50000
vt 1.00000 0.32635
vt 1.00000 0.32635
vt 0.91525 0.50000
vt 1.00000 0.50000
vt 1.00000 0.32635
vt 1.00000 0.50000
vt 1.00000 0.50000
vt 0.00000 0.50000
vt 0.00000 0.50000
vt 0.00000 0.67365
vt 0.00000 0.50000
vt 0.00000 0.67365
vt 0.08475 0.50000
vt 0.08475 0.50000
vt 0.00000 0.67365
vt 0.08475 0.67365
vt 0.08475 0.50000
vt 0.08475 0.67365
vt 0.08475 0.50000
vt 0.00000 0.67365
vt 0.00000 0.50000
vt 0.00000 0.82635
vt 0.00000 0.67365
vt 0.00000 0.82635
vt 0.08475 0.67365
vt 0.08475 0.67365
vt 0.00000 0.82635
vt 0.08475 0.82635
vt 0.08475 0.67365
vt 0.08475 0.82635
vt 0.08475 0.50000
vt 0.00000 0.82635
vt 0.00000 0.50000
vt 0.00000 0.93969
vt 0.00000 0.82635
vt 0.00000 0.93969
vt 0.08475 0.82635
vt 0.08475 0.82635
vt 0.00000 0.93969
vt 0.08475 0.93969
vt 0.08475 0.82635
vt 0.08475 0.93969
vt 0.08475 0.50000
vt 0.00000 0.93969
vt 0.00000 0.50000
vt 0.00000 1.00000
vt 0.00000 0.93969
vt 0.00000 1.00000
vt 0.08475 0.93969
vt 0.08475 0.93969
vt 0.00000 1.00000
vt 0.08475 1.00000
vt 0.08475 0.93969
vt 0.08475 1.00000
vt 0.08475 0.50000
vt 0.00000 1.00000
vt 0.00000 0.50000
vt 0.00000 1.00000
vt 0.00000 1.00000
vt 0.00000 1.00000
vt 0.08475 1.00000
vt 0.08475 1.00000
vt 0.00000 1.00000
vt 0.08475 1.00000
vt 0.08475 1.00000
vt 0.08475 1.00000
vt 0.08475 0.50000
vt 0.00000 1.00000
vt 0.00000 0.50000
vt 0.00000 0.93969
vt 0.00000 1.00000
vt 0.00000 0.93969
vt 0.08475 1.00000
vt 0.08475 1.00000
vt 0.00000 0.93969
vt 0.08475 0.93969
vt 0.08475 1.00000
vt 0.08475 0.93969
vt 0.08475 0.50000
vt 0.00000 0.93969
vt 0.00000 0.50000
vt 0.00000 0.82635
vt 0.00000 0.93969
vt 0.00000 0.82635
vt 0.08475 0.93969
vt 0.08475 0.93969
vt 0.00000 0.82635
vt 0.08475 0.82635
vt 0.08475 0.93969
vt 0.08475 0.82635
vt 0.08475 0.50000
vt 0.00000 0.82635
vt 0.00000 0.50000
vt 0.00000 0.67365
vt 0.00000 0.82635
vt 0.00000 0.67365
vt 0.08475 0.82635
vt 0.08475 0.82635
vt 0.00000 0.67365
vt 0.08475 0.67365
vt 0.08475 0.82635
vt 0.08475 0.67365
vt 0.08475 0.50000
vt 0.00000 0.67365
vt 0.00000 0.50000
vt 0.00000 0.50000
vt 0.00000 0.67365
vt 0.00000 0.50000
vt 0.08475 0.67365
vt 0.08475 0.67365
vt 0.00000 0.50000
vt 0.08475 0.50000
vt 0.08475 0.67365
vt 0.08475 0.50000
vt 0.08475 0.50000
vt 0.00000 0.50000
vt 0.00000 0.50000
vt 0.00000 0.32635
vt 0.00000 0.50000
vt 0.00000 0.32635
vt 0.08475 0.50000
vt 0.08475 0.50000
vt 0.00000 0.32635
vt 0.08475 0.32635
vt 0.08475 0.50000
vt 0.08475 0.32635
vt 0.08475 0.50000
vt 0.00000 0.32635
vt 0.00000 0.50000
vt 0.00000 0.17365
vt 0.00000 0.32635
vt 0.00000 0.17365
vt 0.08475 0.32635
vt 0.08475 0.32635
vt 0.00000 0.17365
vt 0.08475 0.17365
vt 0.08475 0.32635
vt 0.08475 0.17365
vt 0.08475 0.50000
vt 0.00000 0.17365
vt 0.00000 0.50000
vt 0.00000 0.06031
vt 0.00000 0.17365
vt 0.00000 0.06031
vt 0.08475 0.17365
vt 0.08475 0.17365
vt 0.00000 0.06031
vt 0.08475 0.06031
vt 0.08475 0.17365
vt 0.08475 0.06031
vt 0.08475 0.50000
vt 0.00000 0.06031
vt 0.00000 0.50000
vt 0.00000 0.00000
vt 0.00000 0.06031
vt 0.00000 0.00000
vt 0.08475 0.06031
vt 0.08475 0.06031
vt 0.00000 0.00000
vt 0.08475 0.00000
vt 0.08475 0.06031
vt 0.08475 0.00000
vt 0.08475 0.50000
vt 0.00000 0.00000
vt 0.00000 0.50000
vt 0.00000 0.00000
vt 0.00000 0.00000
vt 0.00000 0.00000
vt 0.08475 0.00000
vt 0.08475 0.00000
vt 0.00000 0.00000
vt 0.08475 0.00000
vt 0.08475 0.00000
vt 0.08475 0.00000
vt 0.08475 0.50000
vt 0.00000 0.00000
vt 0.00000 0.50000
vt 0.00000 0.06031
vt 0.00000 0.00000
vt 0.00000 0.06031
vt 0.08475 0.00000
vt 0.08475 0.00000
vt 0.00000 0.06031
vt 0.08475 0.06031
vt 0.08475 0.00000
vt 0.08475 0.06031
vt 0.08475 0.50000
vt 0.00000 0.06031
vt 0.00000 0.50000
vt 0.00000 0.17365
vt 0.00000 0.06031
vt 0.00000 0.17365
vt 0.08475 0.06031
vt 0.08475 0.06031
vt 0.00000 0.17365
vt 0.08475 0.17365
vt 0.08475 0.06031
vt 0.08475 0.17365
vt 0.08475 0.50000
vt 0.00000 0.17365
vt 0.00000 0.50000
vt 0.00000 0.32635
vt 0.00000 0.17365
vt 0.00000 0.32635
vt 0.08475 0.17365
vt 0.08475 0.17365
vt 0.00000 0.32635
vt 0.08475 0.32635
vt 0.08475 0.17365
vt 0.08475 0.32635
vt 0.08475 0.50000
vt 0.00000 0.32635
vt 0.00000 0.50000
vt 0.00000 0.50000
vt 0.00000 0.32635
vt 0.00000 0.50000
vt 0.08475 0.32635
vt 0.08475 0.32635
vt 0.00000 0.50000
vt 0.08475 0.50000
vt 0.08475 0.32635
vt 0.08475 0.50000
vt 0.08475 0.50000
vt 0.28644 0.50000
vt 0.28644 0.50000
vt 0.28644 0.66302
vt 0.28644 0.50000
vt 0.28644 0.66302
vt 0.30678 0.50000
vt 0.30678 0.50000
vt 0.28644 0.66302
vt 0.30678 0.66302
vt 0.30678 0.50000
vt 0.30678 0.66302
vt 0.30678 0.50000
vt 0.28644 0.66302
vt 0.28644 0.50000
vt 0.28644 0.80637
vt 0.28644 0.66302
vt 0.28644 0.80637
vt 0.30678 0.66302
vt 0.30678 0.66302
vt 0.28644 0.80637
vt 0.30678 0.80637
vt 0.30678 0.66302
vt 0.30678 0.80637
vt 0.30678 0.50000
vt 0.28644 0.80637
vt 0.28644 0.50000
vt 0.28644 0.91277
vt 0.28644 0.80637
vt 0.28644 0.91277
vt 0.30678 0.80637
vt 0.30678 0.80637
vt 0.28644 0.91277
vt 0.30678 0.91277
vt 0.30678 0.80637
vt 0.30678 0.91277
vt 0.30678 0.50000
vt 0.28644 0.91277
vt 0.28644 0.50000
vt 0.28644 0.96939
vt 0.28644 0.91277
vt 0.28644 0.96939
vt 0.30678 0.91277
vt 0.30678 0.91277
vt 0.28644 0.96939
vt 0.30678 0.96939
vt 0.30678 0.91277
vt 0.30678 0.96939
vt 0.30678 0.50000
vt 0.28644 0.96939
vt 0.28644 0.50000
vt 0.28644 0.96939
vt 0.28644 0.96939
vt 0.28644 0.96939
vt 0.30678 0.96939
vt 0.30678 0.96939
vt 0.28644 0.96939
vt 0.30678 0.96939
vt 0.30678 0.96939
vt 0.30678 0.96939
vt 0.30678 0.50000
vt 0.28644 0.96939
vt 0.28644 0.50000
vt 0.28644 0.91277
vt 0.28644 0.96939
vt 0.28644 0.91277
vt 0.30678 0.96939
vt 0.30678 0.96939
vt 0.28644 0.91277
vt 0.30678 0.91277
vt 0.30678 0.96939
vt 0.30678 0.91277
vt 0.30678 0.50000
vt 0.28644 0.91277
vt 0.28644 0.50000
vt 0.28644 0.80637
vt 0.28644 0.91277
vt 0.28644 0.80637
vt 0.30678 0.91277
vt 0.30678 0.91277
vt 0.28644 0.80637
vt 0.30678 0.80637
vt 0.30678 0.91277
vt 0.30678 0.80637
vt 0.30678 0.50000
vt 0.28644 0.80637
vt 0.28644 0.50000
vt 0.28644 0.66302
vt 0.28644 0.80637
vt 0.28644 0.66302
vt 0.30678 0.80637
vt 0.30678 0.80637
vt 0.28644 0.66302
vt 0.30678 0.66302
vt 0.30678 0.80637
vt 0.30678 0.66302
vt 0.30678 0.50000
vt 0.28644 0.66302
vt 0.28644 0.50000
vt 0.28644 0.50000
vt 0.28644 0.66302
vt 0.28644 0.50000
vt 0.30678 0.66302
vt 0.30678 0.66302
vt 0.28644 0.50000
vt 0.30678 0.50000
vt 0.30678 0.66302
vt 0.30678 0.50000
vt 0.30678 0.50000
vt 0.28644 0.50000
vt 0.28644 0.50000
vt 0.28644 0.33698
vt 0.28644 0.50000
vt 0.28644 0.33698
vt 0.30678 0.50000
vt 0.30678 0.50000
vt 0.28644 0.33698
vt 0.30678 0.33698
vt 0.30678 0.50000
vt 0.30678 0.33698
vt 0.30678 0.50000
vt 0.28644 0.33698
vt 0.28644 0.50000
vt 0.28644 0.19363
vt 0.28644 0.33698
vt 0.28644 0.19363
vt 0.30678 0.33698
vt 0.30678 0.33698
vt 0.28644 0.19363
vt 0.30678 0.19363
vt 0.30678 0.33698
vt 0.30678 0.19363
vt 0.30678 0.50000
vt 0.28644 0.19363
vt 0.28644 0.50000
vt 0.28644 0.08723
vt 0.28644 0.19363
vt 0.28644 0.08723
vt 0.30678 0.19363
vt 0.30678 0.19363
vt 0.28644 0.08723
vt 0.30678 0.08723
vt 0.30678 0.19363
vt 0.30678 0.08723
vt 0.30678 0.50000
vt 0.28644 0.08723
vt 0.28644 0.50000
vt 0.28644 0.03061
vt 0.28644 0.08723
vt 0.28644 0.03061
vt 0.30678 0.08723
vt 0.30678 0.08723
vt 0.28644 0.03061
vt 0.30678 0.03061
vt 0.30678 0.08723
vt 0.30678 0.03061
vt 0.30678 0.50000
vt 0.28644 0.03061
vt 0.28644 0.50000
vt 0.28644 0.03061
vt 0.28644 0.03061
vt 0.28644 0.03061
vt 0.30678 0.03061
vt 0.30678 0.03061
vt 0.28644 0.03061
vt 0.30678 0.03061
vt 0.30678 0.03061
vt 0.30678 0.03061
vt 0.30678 0.50000
vt 0.28644 0.03061
vt 0.28644 0.50000
vt 0.28644 0.08723
vt 0.28644 0.03061
vt 0.28644 0.08723
vt 0.30678 0.03061
vt 0.30678 0.03061
vt 0.28644 0.08723
vt 0.30678 0.08723
vt 0.30678 0.03061
vt 0.30678 0.08723
vt 0.30678 0.50000
vt 0.28644 0.08723
vt 0.28644 0.50000
vt 0.28644 0.19363
vt 0.28644 0.08723
vt 0.28644 0.19363
vt 0.30678 0.08723
vt 0.30678 0.08723
vt 0.28644 0.19363
vt 0.30678 0.19363
vt 0.30678 0.08723
vt 0.30678 0.19363
vt 0.30678 0.50000
vt 0.28644 0.19363
vt 0.28644 0.50000
vt 0.28644 0.33698
vt 0.28644 0.19363
vt 0.28644 0.33698
vt 0.30678 0.19363
vt 0.30678 0.19363
vt 0.28644 0.33698
vt 0.30678 0.33698
vt 0.30678 0.19363
vt 0.30678 0.33698
vt 0.30678 0.50000
vt 0.28644 0.33698
vt 0.28644 0.50000
vt 0.28644 0.50000
vt 0.28644 0.33698
vt 0.28644 0.50000
vt 0.30678 0.33698
vt 0.30678 0.33698
vt 0.28644 0.50000
vt 0.30678 0.50000
vt 0.30678 0.33698
vt 0.30678 0.50000
vt 0.30678 0.50000
vt 0.48983 0.50000
vt 0.48983 0.50000
vt 0.48983 0.66302
vt 0.48983 0.50000
vt 0.48983 0.66302
vt 0.51017 0.50000
vt 0.51017 0.50000
vt 0.48983 0.66302
vt 0.51017 0.66302
vt 0.51017 0.50000
vt 0.51017 0.66302
vt 0.51017 0.50000
vt 0.48983 0.66302
vt 0.48983 0.50000
vt 0.48983 0.80637
vt 0.48983 0.66302
vt 0.48983 0.80637
vt 0.51017 0.66302
vt 0.51017 0.66302
vt 0.48983 0.80637
vt 0.51017 0.80637
vt 0.51017 0.66302
vt 0.51017 0.80637
vt 0.51017 0.50000
vt 0.48983 0.80637
vt 0.48983 0.50000
vt 0.48983 0.91277
vt 0.48983 0.80637
vt 0.48983 0.91277
vt 0.51017 0.80637
vt 0.51017 0.80637
vt 0.48983 0.91277
vt 0.51017 0.91277
vt 0.51017 0.80637
vt 0.51017 0.91277
vt 0.51017 0.50000
vt 0.48983 0.91277
vt 0.48983 0.50000
vt 0.48983 0.96939
vt 0.48983 0.91277
vt 0.48983 0.96939
vt 0.51017 0.91277
vt 0.51017 0.91277
vt 0.48983 0.96939
vt 0.51017 0.96939
vt 0.51017 0.91277
vt 0.51017 0.96939
vt 0.51017 0.50000
vt 0.48983 0.96939
vt 0.48983 0.50000
vt 0.48983 0.96939
vt 0.48983 0.96939
vt 0.48983 0.96939
vt 0.51017 0.96939
vt 0.51017 0.96939
vt 0.48983 0.96939
vt 0.51017 0.96939
vt 0.51017 0.96939
vt 0.51017 0.96939
vt 0.51017 0.50000
vt 0.48983 0.96939
vt 0.48983 0.50000
vt 0.48983 0.91277
vt 0.48983 0.96939
vt 0.48983 0.91277
vt 0.51017 0.96939
vt 0.51017 0.96939
vt 0.48983 0.91277
vt 0.51017 0.91277
vt 0.51017 0.96939
vt 0.51017 0.91277
vt 0.51017 0.50000
vt 0.48983 0.91277
vt 0.48983 0.50000
vt 0.48983 0.80637
vt 0.48983 0.91277
vt 0.48983 0.80637
vt 0.51017 0.91277
vt 0.51017 0.91277
vt 0.48983 0.80637
vt 0.51017 0.80637
vt 0.51017 0.91277
vt 0.51017 0.80637
vt 0.51017 0.50000
vt 0.48983 0.80637
vt 0.48983 0.50000
vt 0.48983 0.66302
vt 0.48983 0.80637
vt 0.48983 0.66302
vt 0.51017 0.80637
vt 0.51017 0.80637
vt 0.48983 0.66302
vt 0.51017 0.66302
vt 0.51017 0.80637
vt 0.51017 0.66302
vt 0.51017 0.50000
vt 0.48983 0.66302
vt 0.48983 0.50000
vt 0.48983 0.50000
vt 0.48983 0.66302
vt 0.48983 0.50000
vt 0.51017 0.66302
vt 0.51017 0.66302
vt 0.48983 0.50000
vt 0.51017 0.50000
vt 0.51017 0.66302
vt 0.51017 0.50000
vt 0.51017 0.50000
vt 0.48983 0.50000
vt 0.48983 0.50000
vt 0.48983 0.33698
vt 0.48983 0.50000
vt 0.48983 0.33698
vt 0.51017 0.50000
vt 0.51017 0.50000
vt 0.48983 0.33698
vt 0.51017 0.33698
vt 0.51017 0.50000
vt 0.51017 0.33698
vt 0.51017 0.50000
vt 0.48983 0.33698
vt 0.48983 0.50000
vt 0.48983 0.19363
vt 0.48983 0.33698
vt 0.48983 0.19363
vt 0.51017 0.33698
vt 0.51017 0.33698
vt 0.48983 0.19363
vt 0.51017 0.19363
vt 0.51017 0.33698
vt 0.51017 0.19363
vt 0.51017 0.50000
vt 0.48983 0.19363
vt 0.48983 0.50000
vt 0.48983 0.08723
vt 0.48983 0.19363
vt 0.48983 0.08723
vt 0.51017 0.19363
vt 0.51017 0.19363
vt 0.48983 0.08723
vt 0.51017 0.08723
vt 0.51017 0.19363
vt 0.51017 0.08723
vt 0.51017 0.50000
vt 0.48983 0.08723
vt 0.48983 0.50000
vt 0.48983 0.03061
vt 0.48983 0.08723
vt 0.48983 0.03061
vt 0.51017 0.08723
vt 0.51017 0.08723
vt 0.48983 0.03061
vt 0.51017 0.03061
vt 0.51017 0.08723
vt 0.51017 0.03061
vt 0.51017 0.50000
vt 0.48983 0.03061
vt 0.48983 0.50000
vt 0.48983 0.03061
vt 0.48983 0.03061
vt 0.48983 0.03061
vt 0.51017 0.03061
vt 0.51017 0.03061
vt 0.48983 0.03061
vt 0.51017 0.03061
vt 0.51017 0.03061
vt 0.51017 0.03061
vt 0.51017 0.50000
vt 0.48983 0.03061
vt 0.48983 0.50000
vt 0.48983 0.08723
vt 0.48983 0.03061
vt 0.48983 0.08723
vt 0.51017 0.03061
vt 0.51017 0.03061
vt 0.48983 0.08723
vt 0.51017 0.08723
vt 0.51017 0.03061
vt 0.51017 0.08723
vt 0.51017 0.50000
vt 0.48983 0.08723
vt 0.48983 0.50000
vt 0.48983 0.19363
vt 0.48983 0.08723
vt 0.48983 0.19363
vt 0.51017 0.08723
vt 0.51017 0.08723
vt 0.48983 0.19363
vt 0.51017 0.19363
vt 0.51017 0.08723
vt 0.51017 0.19363
vt 0.51017 0.50000
vt 0.48983 0.19363
vt 0.48983 0.50000
vt 0.48983 0.33698
vt 0.48983 0.19363
vt 0.48983 0.33698
vt 0.51017 0.19363
vt 0.51017 0.19363
vt 0.48983 0.33698
vt 0.51017 0.33698
vt 0.51017 0.19363
vt 0.51017 0.33698
vt 0.51017 0.50000
vt 0.48983 0.33698
vt 0.48983 0.50000
vt 0.48983 0.50000
vt 0.48983 0.33698
vt 0.48983 0.50000
vt 0.51017 0.33698
vt 0.51017 0.33698
vt 0.48983 0.50000
vt 0.51017 0.50000
vt 0.51017 0.33698
vt 0.51017 0.50000
vt 0.51017 0.50000
vt 0.69322 0.50000
vt 0.69322 0.50000
vt 0.69322 0.66302
vt 0.69322 0.50000
vt 0.69322 0.66302
vt 0.71356 0.50000
vt 0.71356 0.50000
vt 0.69322 0.66302
vt 0.71356 0.66302
vt 0.71356 0.50000
vt 0.71356 0.66302
vt 0.71356 0.50000
vt 0.69322 0.66302
vt 0.69322 0.50000
vt 0.69322 0.80637
vt 0.69322 0.66302
vt 0.69322 0.80637
vt 0.71356 0.66302
vt 0.71356 0.66302
vt 0.69322 0.80637
vt 0.71356 0.80637
vt 0.71356 0.66302
vt 0.71356 0.80637
vt 0.71356 0.50000
vt 0.69322 0.80637
vt 0.69322 0.50000
vt 0.69322 0.91277
vt 0.69322 0.80637
vt 0.69322 0.91277
vt 0.71356 0.80637
vt 0.71356 0.80637
vt 0.69322 0.91277
vt 0.71356 0.91277
vt 0.71356 0.80637
vt 0.71356 0.91277
vt 0.71356 0.50000
vt 0.69322 0.91277
vt 0.69322 0.50000
vt 0.69322 0.96939
vt 0.69322 0.91277
vt 0.69322 0.96939
vt 0.71356 0.91277
vt 0.71356 0.91277
vt 0.69322 0.96939
vt 0.71356 0.96939
vt 0.71356 0.91277
vt 0.71356 0.96939
vt 0.71356 0.50000
vt 0.69322 0.96939
vt 0.69322 0.50000
vt 0.69322 0.96939
vt 0.69322 0.96939
vt 0.69322 0.96939
vt 0.71356 0.96939
vt 0.71356 0.96939
vt 0.69322 0.96939
vt 0.71356 0.96939
vt 0.71356 0.96939
vt 0.71356 0.96939
vt 0.71356 0.50000
vt 0.69322 0.96939
vt 0.69322 0.50000
vt 0.69322 0.91277
vt 0.69322 0.96939
vt 0.69322 0.91277
vt 0.71356 0.96939
vt 0.71356 0.96939
vt 0.69322 0.91277
vt 0.71356 0.91277
vt 0.71356 0.96939
vt 0.71356 0.91277
vt 0.71356 0.50000
vt 0.69322 0.91277
vt 0.69322 0.50000
vt 0.69322 0.80637
vt 0.69322 0.91277
vt 0.69322 0.80637
vt 0.71356 0.91277
vt 0.71356 0.91277
vt 0.69322 0.80637
vt 0.71356 0.80637
vt 0.71356 0.91277
vt 0.71356 0.80637
vt 0.71356 0.50000
vt 0.69322 0.80637
vt 0.69322 0.50000
vt 0.69322 0.66302
vt 0.69322 0.80637
vt 0.69322 0.66302
vt 0.71356 0.80637
vt 0.71356 0.80637
vt 0.69322 0.66302
vt 0.71356 0.66302
vt 0.71356 0.80637
vt 0.71356 0.66302
vt 0.71356 0.50000
vt 0.69322 0.66302
vt 0.69322 0.50000
vt 0.69322 0.50000
vt 0.69322 0.66302
vt 0.69322 0.50000
vt 0.71356 0.66302
vt 0.71356 0.66302
vt 0.69322 0.50000
vt 0.71356 0.50000
vt 0.71356 0.66302
vt 0.71356 0.50000
vt 0.71356 0.50000
vt 0.69322 0.50000
vt 0.69322 0.50000
vt 0.69322 0.33698
vt 0.69322 0.50000
vt 0.69322 0.33698
vt 0.71356 0.50000
vt 0.71356 0.50000
vt 0.69322 0.33698
vt 0.71356 0.33698
vt 0.71356 0.50000
vt 0.71356 0.33698
vt 0.71356 0.50000
vt 0.69322 0.33698
vt 0.69322 0.50000
vt 0.69322 0.19363
vt 0.69322 0.33698
vt 0.69322 0.19363
vt 0.71356 0.33698
vt 0.71356 0.33698
vt 0.69322 0.19363
vt 0.71356 0.19363
vt 0.71356 0.33698
vt 0.71356 0.19363
vt 0.71356 0.50000
vt 0.69322 0.19363
vt 0.69322 0.50000
vt 0.69322 0.08723
vt 0.69322 0.19363
vt 0.69322 0.08723
vt 0.71356 0.19363
vt 0.71356 0.19363
vt 0.69322 0.08723
vt 0.71356 0.08723
vt 0.71356 0.19363
vt 0.71356 0.08723
vt 0.71356 0.50000
vt 0.69322 0.08723
vt 0.69322 0.50000
vt 0.69322 0.03061
vt 0.69322 0.08723
vt 0.69322 0.03061
vt 0.71356 0.08723
vt 0.71356 0.08723
vt 0.69322 0.03061
vt 0.71356 0.03061
vt 0.71356 0.08723
vt 0.71356 0.03061
vt 0.71356 0.50000
vt 0.69322 0.03061
vt 0.69322 0.50000
vt 0.69322 0.03061
vt 0.69322 0.03061
vt 0.69322 0.03061
vt 0.71356 0.03061
vt 0.71356 0.03061
vt 0.69322 0.03061
vt 0.71356 0.03061
vt 0.71356 0.03061
vt 0.71356 0.03061
vt 0.71356 0.50000
vt 0.69322 0.03061
vt 0.69322 0.50000
vt 0.69322 0.08723
vt 0.69322 0.03061
vt 0.69322 0.08723
vt 0.71356 0.03061
vt 0.71356 0.03061
vt 0.69322 0.08723
vt 0.71356 0.08723
vt 0.71356 0.03061
vt 0.71356 0.08723
vt 0.71356 0.50000
vt 0.69322 0.08723
vt 0.69322 0.50000
vt 0.69322 0.19363
vt 0.69322 0.08723
vt 0.69322 0.19363
vt 0.71356 0.08723
vt 0.71356 0.08723
vt 0.69322 0.19363
vt 0.71356 0.19363
vt 0.71356 0.08723
vt 0.71356 0.19363
vt 0.71356 0.50000
vt 0.69322 0.19363
vt 0.69322 0.50000
vt 0.69322 0.33698
vt 0.69322 0.19363
vt 0.69322 0.33698
vt 0.71356 0.19363
vt 0.71356 0.19363
vt 0.69322 0.33698
vt 0.71356 0.33698
vt 0.71356 0.19363
vt 0.71356 0.33698
vt 0.71356 0.50000
vt 0.69322 0.33698
vt 0.69322 0.50000
vt 0.69322 0.50000
vt 0.69322 0.33698
vt 0.69322 0.50000
vt 0.71356 0.33698
vt 0.71356 0.33698
vt 0.69322 0.50000
vt 0.71356 0.50000
vt 0.71356 0.33698
vt 0.71356 0.50000
vt 0.71356 0.50000
f 40/217 39/218 43/219
f 40/220 43/221 41/222
f 41/223 43/224 44/225
f 41/226 44/227 42/228
f 43/229 39/230 45/231
f 43/232 45/233 44/234
f 44/235 45/236 46/237
f 44/238 46/239 42/240
f 45/241 39/242 47/243
f 45/244 47/245 46/246
f 46/247 47/248 48/249
f 46/250 48/251 42/252
f 47/253 39/254 49/255
f 47/256 49/257 48/258
f 48/259 49/260 50/261
f 48/262 50/263 42/264
f 49/265 39/266 51/267
f 49/268 51/269 50/270
f 50/271 51/272 52/273
f 50/274 52/275 42/276
f 51/277 39/278 53/279
f 51/280 53/281 52/282
f 52/283 53/284 54/285
f 52/286 54/287 42/288
f 53/289 39/290 55/291
f 53/292 55/293 54/294
f 54/295 55/296 56/297
f 54/298 56/299 42/300
f 55/301 39/302 57/303
f 55/304 57/305 56/306
f 56/307 57/308 58/309
f 56/310 58/311 42/312
f 57/313 39/314 59/315
f 57/316 59/317 58/318
f 58/319 59/320 60/321
f 58/322 60/323 42/324
f 59/325 39/326 61/327
f 59/328 61/329 60/330
f 60/331 61/332 62/333
f 60/334 62/335 42/336
f 61/337 39/338 63/339
f 61/340 63/341 62/342
f 62/343 63/344 64/345
f 62/346 64/347 42/348
f 63/349 39/350 65/351
f 63/352 65/353 64/354
f 64/355 65/356 66/357
f 64/358 66/359 42/360
f 65/361 39/362 67/363
f 65/364 67/365 66/366
f 66/367 67/368 68/369
f 66/370 68/371 42/372
f 67/373 39/374 69/375
f 67/376 69/377 68/378
f 68/379 69/380 70/381
f 68/382 70/383 42/384
f 69/385 39/386 71/387
f 69/388 71/389 70/390
f 70/391 71/392 72/393
f 70/394 72/395 42/396
f 71/397 39/398 73/399
f 71/400 73/401 72/402
f 72/403 73/404 74/405
f 72/406 74/407 42/408
f 73/409 39/410 75/411
f 73/412 75/413 74/414
f 74/415 75/416 76/417
f 74/418 76/419 42/420
f 75/421 39/422 40/423
f 75/424 40/425 76/426
f 76/427 40/428 41/429
f 76/430 41/431 42/432
f 78/433 77/434 81/435
f 78/436 81/437 79/438
f 79/439 81/440 82/441
f 79/442 82/443 80/444
f 81/445 77/446 83/447
f 81/448 83/449 82/450
f 82/451 83/452 84/453
f 82/454 84/455 80/456
f 83/457 77/458 85/459
f 83/460 85/461 84/462
f 84/463 85/464 86/465
f 84/466 86/467 80/468
f 85/469 77/470 87/471
f 85/472 87/473 86/474
f 86/475 87/476 88/477
f 86/478 88/479 80/480
f 87/481 77/482 89/483
f 87/484 89/485 88/486
f 88/487 89/488 90/489
f 88/490 90/491 80/492
f 89/493 77/494 91/495
f 89/496 91/497 90/498
f 90/499 91/500 92/501
f 90/502 92/503 80/504
f 91/505 77/506 93/507
f 91/508 93/509 92/510
f 92/511 93/512 94/513
f 92/514 94/515 80/516
f 93/517 77/518 95/519
f 93/520 95/521 94/522
f 94/523 95/524 96/525
f 94/526 96/527 80/528
f 95/529 77/530 97/531
f 95/532 97/533 96/534
f 96/535 97/536 98/537
f 96/538 98/539 80/540
f 97/541 77/542 99/543
f 97/544 99/545 98/546
f 98/547 99/548 100/549
f 98/550 100/551 80/552
f 99/553 77/554 101/555
f 99/556 101/557 100/558
f 100/559 101/560 102/561
f 100/562 102/563 80/564
f 101/565 77/566 103/567
f 101/568 103/569 102/570
f 102/571 103/572 104/573
f 102/574 104/575 80/576
f 103/577 77/578 105/579
f 103/580 105/581 104/582
f 104/583 105/584 106/585
f 104/586 106/587 80/588
f 105/589 77/590 107/591
f 105/592 107/593 106/594
f 106/595 107/596 108/597
f 106/598 108/599 80/600
f 107/601 77/602 109/603
f 107/604 109/605 108/606
f 108/607 109/608 110/609
f 108/610 110/611 80/612
f 109/613 77/614 111/615
f 109/616 111/617 110/618
f 110/619 111/620 112/621
f 110/622 112/623 80/624
f 111/625 77/626 113/627
f 111/628 113/629 112/630
f 112/631 113/632 114/633
f 112/634 114/635 80/636
f 113/637 77/638 78/639
f 113/640 78/641 114/642
f 114/643 78/644 79/645
f 114/646 79/647 80/648
f 116/649 115/650 119/651
f 116/652 119/653 117/654
f 117/655 119/656 120/657
f 117/658 120/659 118/660
f 119/661 115/662 121/663
f 119/664 121/665 120/666
f 120/667 121/668 122/669
f 120/670 122/671 118/672
f 121/673 115/674 123/675
f 121/676 123/677 122/678
f 122/679 123/680 124/681
f 122/682 124/683 118/684
f 123/685 115/686 125/687
f 123/688 125/689 124/690
f 124/691 125/692 126/693
f 124/694 126/695 118/696
f 125/697 115/698 127/699
f 125/700 127/701 126/702
f 126/703 127/704 128/705
f 126/706 128/707 118/708
f 127/709 115/710 129/711
f 127/712 129/713 128/714
f 128/715 129/716 130/717
f 128/718 130/719 118/720
f 129/721 115/722 131/723
f 129/724 131/725 130/726
f 130/727 131/728 132/729
f 130/730 132/731 118/732
f 131/733 115/734 133/735
f 131/736 133/737 132/738
f 132/739 133/740 134/741
f 132/742 134/743 118/744
f 133/745 115/746 135/747
f 133/748 135/749 134/750
f 134/751 135/752 136/753
f 134/754 136/755 118/756
f 135/757 115/758 137/759
f 135/760 137/761 136/762
f 136/763 137/764 138/765
f 136/766 138/767 118/768
f 137/769 115/770 139/771
f 137/772 139/773 138/774
f 138/775 139/776 140/777
f 138/778 140/779 118/780
f 139/781 115/782 141/783
f 139/784 141/785 140/786
f 140/787 141/788 142/789
f 140/790 142/791 118/792
f 141/793 115/794 143/795
f 141/796 143/797 142/798
f 142/799 143/800 144/801
f 142/802 144/803 118/804
f 143/805 115/806 145/807
f 143/808 145/809 144/810
f 144/811 145/812 146/813
f 144/814 146/815 118/816
f 145/817 115/818 147/819
f 145/820 147/821 146/822
f 146/823 147/824 148/825
f 146/826 148/827 118/828
f 147/829 115/830 149/831
f 147/832 149/833 148/834
f 148/835 149/836 150/837
f 148/838 150/839 118/840
f 149/841 115/842 151/843
f 149/844 151/845 150/846
f 150/847 151/848 152/849
f 150/850 152/851 118/852
f 151/853 115/854 116/855
f 151/856 116/857 152/858
f 152/859 116/860 117/861
f 152/862 117/863 118/864
f 154/865 153/866 157/867
f 154/868 157/869 155/870
f 155/871 157/872 158/873
f 155/874 158/875 156/876
f 157/877 153/878 159/879
f 157/880 159/881 158/882
f 158/883 159/884 160/885
f 158/886 160/887 156/888
f 159/889 153/890 161/891
f 159/892 161/893 160/894
f 160/895 161/896 162/897
f 160/898 162/899 156/900
f 161/901 153/902 163/903
f 161/904 163/905 162/906
f 162/907 163/908 164/909
f 162/910 164/911 156/912
f 163/913 153/914 165/915
f 163/916 165/917 164/918
f 164/919 165/920 166/921
f 164/922 166/923 156/924
f 165/925 153/926 167/927
f 165/928 167/929 166/930
f 166/931 167/932 168/933
f 166/934 168/935 156/936
f 167/937 153/938 169/939
f 167/940 169/941 168/942
f 168/943 169/944 170/945
f 168/946 170/947 156/948
f 169/949 153/950 171/951
f 169/952 171/953 170/954
f 170/955 171/956 172/957
f 170/958 172/959 156/960
f 171/961 153/962 173/963
f 171/964 173/965 172/966
f 172/967 173/968 174/969
f 172/970 174/971 156/972
f 173/973 153/974 175/975
f 173/976 175/977 174/978
f 174/979 175/980 176/981
f 174/982 176/983 156/984
f 175/985 153/986 177/987
f 175/988 177/989 176/990
f 176/991 177/992 178/993
f 176/994 178/995 156/996
f 177/997 153/998 179/999
f 177/1000 179/1001 178/1002
f 178/1003 179/1004 180/1005
f 178/1006 180/1007 156/1008
f 179/1009 153/1010 181/1011
f 179/1012 181/1013 180/1014
f 180/1015 181/1016 182/1017
f 180/1018 182/1019 156/1020
f 181/1021 153/1022 183/1023
f 181/1024 183/1025 182/1026
f 182/1027 183/1028 184/1029
f 182/1030 184/1031 156/1032
f 183/1033 153/1034 185/1035
f 183/1036 185/1037 184/1038
f 184/1039 185/1040 186/1041
f 184/1042 186/1043 156/1044
f 185/1045 153/1046 187/1047
f 185/1048 187/1049 186/1050
f 186/1051 187/1052 188/1053
f 186/1054 188/1055 156/1056
f 187/1057 153/1058 189/1059
f 187/1060 189/1061 188/1062
f 188/1063 189/1064 190/1065
f 188/1066 190/1067 156/1068
f 189/1069 153/1070 154/1071
f 189/1072 154/1073 190/1074
f 190/1075 154/1076 155/1077
f 190/1078 155/1079 156/1080
f 192/1081 191/1082 195/1083
f 192/1084 195/1085 193/1086
f 193/1087 195/1088 196/1089
f 193/1090 196/1091 194/1092
f 195/1093 191/1094 197/1095
f 195/1096 197/1097 196/1098
f 196/1099 197/1100 198/1101
f 196/1102 198/1103 194/1104
f 197/1105 191/1106 199/1107
f 197/1108 199/1109 198/1110
f 198/1111 199/1112 200/1113
f 198/1114 200/1115 194/1116
f 199/1117 191/1118 201/1119
f 199/1120 201/1121 200/1122
f 200/1123 201/1124 202/1125
f 200/1126 202/1127 194/1128
f 201/1129 191/1130 203/1131
f 201/1132 203/1133 202/1134
f 202/1135 203/1136 204/1137
f 202/1138 204/1139 194/1140
f 203/1141 191/1142 205/1143
f 203/1144 205/1145 204/1146
f 204/1147 205/1148 206/1149
f 204/1150 206/1151 194/1152
f 205/1153 191/1154 207/1155
f 205/1156 207/1157 206/1158
f 206/1159 207/1160 208/1161
f 206/1162 208/1163 194/1164
f 207/1165 191/1166 209/1167
f 207/1168 209/1169 208/1170
f 208/1171 209/1172 210/1173
f 208/1174 210/1175 194/1176
f 209/1177 191/1178 211/1179
f 209/1180 211/1181 210/1182
f 210/1183 211/1184 212/1185
f 210/1186 212/1187 194/1188
f 211/1189 191/1190 213/1191
f 211/1192 213/1193 212/1194
f 212/1195 213/1196 214/1197
f 212/1198 214/1199 194/1200
f 213/1201 191/1202 215/1203
f 213/1204 215/1205 214/1206
f 214/1207 215/1208 216/1209
f 214/1210 216/1211 194/1212
f 215/1213 191/1214 217/1215
f 215/1216 217/1217 216/1218
f 216/1219 217/1220 218/1221
f 216/1222 218/1223 194/1224
f 217/1225 191/1226 219/1227
f 217/1228 219/1229 218/1230
f 218/1231 219/1232 220/1233
f 218/1234 220/1235 194/1236
f 219/1237 191/1238 221/1239
f 219/1240 221/1241 220/1242
f 220/1243 221/1244 222/1245
f 220/1246 222/1247 194/1248
f 221/1249 191/1250 223/1251
f 221/1252 223/1253 222/1254
f 222/1255 223/1256 224/1257
f 222/1258 224/1259 194/1260
f 223/1261 191/1262 225/1263
f 223/1264 225/1265 224/1266
f 224/1267 225/1268 226/1269
f 224/1270 226/1271 194/1272
f 225/1273 191/1274 227/1275
f 225/1276 227/1277 226/1278
f 226/1279 227/1280 228/1281
f 226/1282 228/1283 194/1284
f 227/1285 191/1286 192/1287
f 227/1288 192/1289 228/1290
f 228/1291 192/1292 193/1293
f 228/1294 193/1295 194/1296
