mtllib trashcan.mtl
o Curb
g Curb
usemtl PinkWhite
v 5.29410 0.00000 -4.82963
v 5.91342 0.00000 -4.61940
v 6.50000 0.00000 -4.33013
v 7.04381 0.00000 -3.96677
v 7.53553 0.00000 -3.53553
v 7.96677 0.00000 -3.04381
v 8.33013 0.00000 -2.50000
v 8.61940 0.00000 -1.91342
v 8.82963 0.00000 -1.29410
v 8.95722 0.00000 -0.65263
v 9.00000 0.00000 0.00000
v 8.95722 -0.00000 0.65263
v 8.82963 -0.00000 1.29410
v 8.61940 -0.00000 1.91342
v 8.33013 -0.00000 2.50000
v 7.96677 -0.00000 3.04381
v 7.53553 -0.00000 3.53553
v 7.04381 -0.00000 3.96677
v 6.50000 -0.00000 4.33013
v 5.91342 -0.00000 4.61940
v 5.29410 -0.00000 4.82963
v 4.65263 -0.00000 4.95722
v 4.00000 -0.00000 5.00000
v -4.00000 -0.00000 5.00000
v -4.65263 -0.00000 4.95722
v -5.29410 -0.00000 4.82963
v -5.91342 -0.00000 4.61940
v -6.50000 -0.00000 4.33013
v -7.04381 -0.00000 3.96677
v -7.53553 -0.00000 3.53553
v -7.96677 -0.00000 3.04381
v -8.33013 -0.00000 2.50000
v -8.61940 -0.00000 1.91342
v -8.82963 -0.00000 1.29410
v -8.95722 -0.00000 0.65263
v -9.00000 0.00000 0.00000
v -8.95722 0.00000 -0.65263
v -8.82963 0.00000 -1.29410
v -8.61940 0.00000 -1.91342
v -8.33013 0.00000 -2.50000
v -7.96677 0.00000 -3.04381
v -7.53553 0.00000 -3.53553
v -7.04381 0.00000 -3.96677
v -6.50000 0.00000 -4.33013
v -5.91342 0.00000 -4.61940
v -5.29410 0.00000 -4.82963
v -4.65263 0.00000 -4.95722
v -4.00000 0.00000 -5.00000
v 4.00000 0.00000 -5.00000
v 4.65263 0.00000 -4.95722
v -4.49600 0.00000 -3.76749
v -4.98351 0.00000 -3.67052
v -5.45420 0.00000 -3.51074
v -5.90000 0.00000 -3.29090
v -6.31329 0.00000 -3.01474
v -6.68701 0.00000 -2.68701
v -7.01474 0.00000 -2.31329
v -7.29090 0.00000 -1.90000
v -7.51074 0.00000 -1.45420
v -7.67052 0.00000 -0.98351
v -7.76749 0.00000 -0.49600
v -7.80000 0.00000 0.00000
v -7.76749 -0.00000 0.49600
v -7.67052 -0.00000 0.98351
v -7.51074 -0.00000 1.45420
v -7.29090 -0.00000 1.90000
v -7.01474 -0.00000 2.31329
v -6.68701 -0.00000 2.68701
v -6.31329 -0.00000 3.01474
v -5.90000 -0.00000 3.29090
v -5.45420 -0.00000 3.51074
v -4.98351 -0.00000 3.67052
v -4.49600 -0.00000 3.76749
v -4.00000 -0.00000 3.80000
v 4.00000 -0.00000 3.80000
v 4.49600 -0.00000 3.76749
v 4.98351 -0.00000 3.67052
v 5.45420 -0.00000 3.51074
v 5.90000 -0.00000 3.29090
v 6.31329 -0.00000 3.01474
v 6.68701 -0.00000 2.68701
v 7.01474 -0.00000 2.31329
v 7.29090 -0.00000 1.90000
v 7.51074 -0.00000 1.45420
v 7.67052 -0.00000 0.98351
v 7.76749 -0.00000 0.49600
v 7.80000 0.00000 0.00000
v 7.76749 0.00000 -0.49600
v 7.67052 0.00000 -0.98351
v 7.51074 0.00000 -1.45420
v 7.29090 0.00000 -1.90000
v 7.01474 0.00000 -2.31329
v 6.68701 0.00000 -2.68701
v 6.31329 0.00000 -3.01474
v 5.90000 0.00000 -3.29090
v 5.45420 0.00000 -3.51074
v 4.98351 0.00000 -3.67052
v 4.49600 0.00000 -3.76749
v 4.00000 0.00000 -3.80000
v -4.00000 0.00000 -3.80000
v 5.29410 1.00000 -4.82963
v 5.91342 1.00000 -4.61940
v 6.50000 1.00000 -4.33013
v 7.04381 1.00000 -3.96677
v 7.53553 1.00000 -3.53553
v 7.96677 1.00000 -3.04381
v 8.33013 1.00000 -2.50000
v 8.61940 1.00000 -1.91342
v 8.82963 1.00000 -1.29410
v 8.95722 1.00000 -0.65263
v 9.00000 1.00000 0.00000
v 8.95722 1.00000 0.65263
v 8.82963 1.00000 1.29410
v 8.61940 1.00000 1.91342
v 8.33013 1.00000 2.50000
v 7.96677 1.00000 3.04381
v 7.53553 1.00000 3.53553
v 7.04381 1.00000 3.96677
v 6.50000 1.00000 4.33013
v 5.91342 1.00000 4.61940
v 5.29410 1.00000 4.82963
v 4.65263 1.00000 4.95722
v 4.00000 1.00000 5.00000
v -4.00000 1.00000 5.00000
v -4.65263 1.00000 4.95722
v -5.29410 1.00000 4.82963
v -5.91342 1.00000 4.61940
v -6.50000 1.00000 4.33013
v -7.04381 1.00000 3.96677
v -7.53553 1.00000 3.53553
v -7.96677 1.00000 3.04381
v -8.33013 1.00000 2.50000
v -8.61940 1.00000 1.91342
v -8.82963 1.00000 1.29410
v -8.95722 1.00000 0.65263
v -9.00000 1.00000 0.00000
v -8.95722 1.00000 -0.65263
v -8.82963 1.00000 -1.29410
v -8.61940 1.00000 -1.91342
v -8.33013 1.00000 -2.50000
v -7.96677 1.00000 -3.04381
v -7.53553 1.00000 -3.53553
v -7.04381 1.00000 -3.96677
v -6.50000 1.00000 -4.33013
v -5.91342 1.00000 -4.61940
v -5.29410 1.00000 -4.82963
v -4.65263 1.00000 -4.95722
v -4.00000 1.00000 -5.00000
v 4.00000 1.00000 -5.00000
v 4.65263 1.00000 -4.95722
v -4.49600 1.00000 -3.76749
v -4.98351 1.00000 -3.67052
v -5.45420 1.00000 -3.51074
v -5.90000 1.00000 -3.29090
v -6.31329 1.00000 -3.01474
v -6.68701 1.00000 -2.68701
v -7.01474 1.00000 -2.31329
v -7.29090 1.00000 -1.90000
v -7.51074 1.00000 -1.45420
v -7.67052 1.00000 -0.98351
v -7.76749 1.00000 -0.49600
v -7.80000 1.00000 0.00000
v -7.76749 1.00000 0.49600
v -7.67052 1.00000 0.98351
v -7.51074 1.00000 1.45420
v -7.29090 1.00000 1.90000
v -7.01474 1.00000 2.31329
v -6.68701 1.00000 2.68701
v -6.31329 1.00000 3.01474
v -5.90000 1.00000 3.29090
v -5.45420 1.00000 3.51074
v -4.98351 1.00000 3.67052
v -4.49600 1.00000 3.76749
v -4.00000 1.00000 3.80000
v 4.00000 1.00000 3.80000
v 4.49600 1.00000 3.76749
v 4.98351 1.00000 3.67052
v 5.45420 1.00000 3.51074
v 5.90000 1.00000 3.29090
v 6.31329 1.00000 3.01474
v 6.68701 1.00000 2.68701
v 7.01474 1.00000 2.31329
v 7.29090 1.00000 1.90000
v 7.51074 1.00000 1.45420
v 7.67052 1.00000 0.98351
v 7.76749 1.00000 0.49600
v 7.80000 1.00000 0.00000
v 7.76749 1.00000 -0.49600
v 7.67052 1.00000 -0.98351
v 7.51074 1.00000 -1.45420
v 7.29090 1.00000 -1.90000
v 7.01474 1.00000 -2.31329
v 6.68701 1.00000 -2.68701
v 6.31329 1.00000 -3.01474
v 5.90000 1.00000 -3.29090
v 5.45420 1.00000 -3.51074
v 4.98351 1.00000 -3.67052
v 4.49600 1.00000 -3.76749
v 4.00000 1.00000 -3.80000
v -4.00000 1.00000 -3.80000
vn 0.1867 -0.6927 -0.6967
vn 0.2760 -0.6927 -0.6663
vn 0.3606 -0.6927 -0.6246
vn 0.4391 -0.6927 -0.5722
vn 0.5100 -0.6927 -0.5100
vn 0.5722 -0.6927 -0.4391
vn 0.6246 -0.6927 -0.3606
vn 0.6663 -0.6927 -0.2760
vn 0.6967 -0.6927 -0.1867
vn 0.7151 -0.6927 -0.0941
vn 0.7212 -0.6927 0.0000
vn 0.7151 -0.6927 0.0941
vn 0.6967 -0.6927 0.1867
vn 0.6663 -0.6927 0.2760
vn 0.6246 -0.6927 0.3606
vn 0.5722 -0.6927 0.4391
vn 0.5100 -0.6927 0.5100
vn 0.4391 -0.6927 0.5722
vn 0.3606 -0.6927 0.6246
vn 0.2760 -0.6927 0.6663
vn 0.1867 -0.6927 0.6967
vn 0.0941 -0.6927 0.7151
vn 0.0234 -0.6998 0.7139
vn -0.0234 -0.6998 0.7139
vn -0.0941 -0.6927 0.7151
vn -0.1867 -0.6927 0.6967
vn -0.2760 -0.6927 0.6663
vn -0.3606 -0.6927 0.6246
vn -0.4391 -0.6927 0.5722
vn -0.5100 -0.6927 0.5100
vn -0.5722 -0.6927 0.4391
vn -0.6246 -0.6927 0.3606
vn -0.6663 -0.6927 0.2760
vn -0.6967 -0.6927 0.1867
vn -0.7151 -0.6927 0.0941
vn -0.7212 -0.6927 -0.0000
vn -0.7151 -0.6927 -0.0941
vn -0.6967 -0.6927 -0.1867
vn -0.6663 -0.6927 -0.2760
vn -0.6246 -0.6927 -0.3606
vn -0.5722 -0.6927 -0.4391
vn -0.5100 -0.6927 -0.5100
vn -0.4391 -0.6927 -0.5722
vn -0.3606 -0.6927 -0.6246
vn -0.2760 -0.6927 -0.6663
vn -0.1867 -0.6927 -0.6967
vn -0.0941 -0.6927 -0.7151
vn -0.0234 -0.6998 -0.7139
vn 0.0234 -0.6998 -0.7139
vn 0.0941 -0.6927 -0.7151
vn 0.0903 -0.7221 0.6858
vn 0.1790 -0.7221 0.6682
vn 0.2647 -0.7221 0.6391
vn 0.3459 -0.7221 0.5991
vn 0.4211 -0.7221 0.5488
vn 0.4891 -0.7221 0.4891
vn 0.5488 -0.7221 0.4211
vn 0.5991 -0.7221 0.3459
vn 0.6391 -0.7221 0.2647
vn 0.6682 -0.7221 0.1790
vn 0.6858 -0.7221 0.0903
vn 0.6918 -0.7221 0.0000
vn 0.6858 -0.7221 -0.0903
vn 0.6682 -0.7221 -0.1790
vn 0.6391 -0.7221 -0.2647
vn 0.5991 -0.7221 -0.3459
vn 0.5488 -0.7221 -0.4211
vn 0.4891 -0.7221 -0.4891
vn 0.4211 -0.7221 -0.5488
vn 0.3459 -0.7221 -0.5991
vn 0.2647 -0.7221 -0.6391
vn 0.1790 -0.7221 -0.6682
vn 0.0903 -0.7221 -0.6858
vn 0.0229 -0.7145 -0.6992
vn -0.0229 -0.7145 -0.6992
vn -0.0903 -0.7221 -0.6858
vn -0.1790 -0.7221 -0.6682
vn -0.2647 -0.7221 -0.6391
vn -0.3459 -0.7221 -0.5991
vn -0.4211 -0.7221 -0.5488
vn -0.4891 -0.7221 -0.4891
vn -0.5488 -0.7221 -0.4211
vn -0.5991 -0.7221 -0.3459
vn -0.6391 -0.7221 -0.2647
vn -0.6682 -0.7221 -0.1790
vn -0.6858 -0.7221 -0.0903
vn -0.6918 -0.7221 -0.0000
vn -0.6858 -0.7221 0.0903
vn -0.6682 -0.7221 0.1790
vn -0.6391 -0.7221 0.2647
vn -0.5991 -0.7221 0.3459
vn -0.5488 -0.7221 0.4211
vn -0.4891 -0.7221 0.4891
vn -0.4211 -0.7221 0.5488
vn -0.3459 -0.7221 0.5991
vn -0.2647 -0.7221 0.6391
vn -0.1790 -0.7221 0.6682
vn -0.0903 -0.7221 0.6858
vn -0.0229 -0.7145 0.6992
vn 0.0229 -0.7145 0.6992
vn 0.1867 0.6927 -0.6967
vn 0.2760 0.6927 -0.6663
vn 0.3606 0.6927 -0.6246
vn 0.4391 0.6927 -0.5722
vn 0.5100 0.6927 -0.5100
vn 0.5722 0.6927 -0.4391
vn 0.6246 0.6927 -0.3606
vn 0.6663 0.6927 -0.2760
vn 0.6967 0.6927 -0.1867
vn 0.7151 0.6927 -0.0941
vn 0.7212 0.6927 0.0000
vn 0.7151 0.6927 0.0941
vn 0.6967 0.6927 0.1867
vn 0.6663 0.6927 0.2760
vn 0.6246 0.6927 0.3606
vn 0.5722 0.6927 0.4391
vn 0.5100 0.6927 0.5100
vn 0.4391 0.6927 0.5722
vn 0.3606 0.6927 0.6246
vn 0.2760 0.6927 0.6663
vn 0.1867 0.6927 0.6967
vn 0.0941 0.6927 0.7151
vn 0.0234 0.6998 0.7139
vn -0.0234 0.6998 0.7139
vn -0.0941 0.6927 0.7151
vn -0.1867 0.6927 0.6967
vn -0.2760 0.6927 0.6663
vn -0.3606 0.6927 0.6246
vn -0.4391 0.6927 0.5722
vn -0.5100 0.6927 0.5100
vn -0.5722 0.6927 0.4391
vn -0.6246 0.6927 0.3606
vn -0.6663 0.6927 0.2760
vn -0.6967 0.6927 0.1867
vn -0.7151 0.6927 0.0941
vn -0.7212 0.6927 -0.0000
vn -0.7151 0.6927 -0.0941
vn -0.6967 0.6927 -0.1867
vn -0.6663 0.6927 -0.2760
vn -0.6246 0.6927 -0.3606
vn -0.5722 0.6927 -0.4391
vn -0.5100 0.6927 -0.5100
vn -0.4391 0.6927 -0.5722
vn -0.3606 0.6927 -0.6246
vn -0.2760 0.6927 -0.6663
vn -0.1867 0.6927 -0.6967
vn -0.0941 0.6927 -0.7151
vn -0.0234 0.6998 -0.7139
vn 0.0234 0.6998 -0.7139
vn 0.0941 0.6927 -0.7151
vn 0.0903 0.7221 0.6858
vn 0.1790 0.7221 0.6682
vn 0.2647 0.7221 0.6391
vn 0.3459 0.7221 0.5991
vn 0.4211 0.7221 0.5488
vn 0.4891 0.7221 0.4891
vn 0.5488 0.7221 0.4211
vn 0.5991 0.7221 0.3459
vn 0.6391 0.7221 0.2647
vn 0.6682 0.7221 0.1790
vn 0.6858 0.7221 0.0903
vn 0.6918 0.7221 0.0000
vn 0.6858 0.7221 -0.0903
vn 0.6682 0.7221 -0.1790
vn 0.6391 0.7221 -0.2647
vn 0.5991 0.7221 -0.3459
vn 0.5488 0.7221 -0.4211
vn 0.4891 0.7221 -0.4891
vn 0.4211 0.7221 -0.5488
vn 0.3459 0.7221 -0.5991
vn 0.2647 0.7221 -0.6391
vn 0.1790 0.7221 -0.6682
vn 0.0903 0.7221 -0.6858
vn 0.0229 0.7145 -0.6992
vn -0.0229 0.7145 -0.6992
vn -0.0903 0.7221 -0.6858
vn -0.1790 0.7221 -0.6682
vn -0.2647 0.7221 -0.6391
vn -0.3459 0.7221 -0.5991
vn -0.4211 0.7221 -0.5488
vn -0.4891 0.7221 -0.4891
vn -0.5488 0.7221 -0.4211
vn -0.5991 0.7221 -0.3459
vn -0.6391 0.7221 -0.2647
vn -0.6682 0.7221 -0.1790
vn -0.6858 0.7221 -0.0903
vn -0.6918 0.7221 -0.0000
vn -0.6858 0.7221 0.0903
vn -0.6682 0.7221 0.1790
vn -0.6391 0.7221 0.2647
vn -0.5991 0.7221 0.3459
vn -0.5488 0.7221 0.4211
vn -0.4891 0.7221 0.4891
vn -0.4211 0.7221 0.5488
vn -0.3459 0.7221 0.5991
vn -0.2647 0.7221 0.6391
vn -0.1790 0.7221 0.6682
vn -0.0903 0.7221 0.6858
vn -0.0229 0.7145 0.6992
vn 0.0229 0.7145 0.6992
f 61//61 62//62 36//36
f 36//36 62//62 63//63
f 34//34 35//35 36//36
f 32//32 33//33 34//34
f 30//30 31//31 32//32
f 28//28 29//29 30//30
f 26//26 27//27 28//28
f 24//24 25//25 26//26
f 22//22 23//23 24//24
f 20//20 21//21 22//22
f 18//18 19//19 20//20
f 16//16 17//17 18//18
f 14//14 15//15 16//16
f 12//12 13//13 14//14
f 10//10 11//11 12//12
f 8//8 9//9 10//10
f 6//6 7//7 8//8
f 4//4 5//5 6//6
f 2//2 3//3 4//4
f 50//50 1//1 2//2
f 48//48 49//49 50//50
f 46//46 47//47 48//48
f 44//44 45//45 46//46
f 42//42 43//43 44//44
f 40//40 41//41 42//42
f 38//38 39//39 40//40
f 36//36 37//37 38//38
f 60//60 61//61 36//36
f 36//36 63//63 64//64
f 32//32 34//34 36//36
f 28//28 30//30 32//32
f 24//24 26//26 28//28
f 20//20 22//22 24//24
f 16//16 18//18 20//20
f 12//12 14//14 16//16
f 8//8 10//10 12//12
f 4//4 6//6 8//8
f 50//50 2//2 4//4
f 46//46 48//48 50//50
f 42//42 44//44 46//46
f 38//38 40//40 42//42
f 60//60 36//36 38//38
f 36//36 64//64 65//65
f 28//28 32//32 36//36
f 20//20 24//24 28//28
f 12//12 16//16 20//20
f 4//4 8//8 12//12
f 46//46 50//50 4//4
f 38//38 42//42 46//46
f 59//59 60//60 38//38
f 36//36 65//65 66//66
f 58//58 59//59 38//38
f 36//36 66//66 67//67
f 57//57 58//58 38//38
f 28//28 36//36 67//67
f 57//57 38//38 46//46
f 28//28 67//67 68//68
f 56//56 57//57 46//46
f 28//28 68//68 69//69
f 55//55 56//56 46//46
f 28//28 69//69 70//70
f 54//54 55//55 46//46
f 28//28 70//70 71//71
f 53//53 54//54 46//46
f 28//28 71//71 72//72
f 52//52 53//53 46//46
f 28//28 72//72 73//73
f 51//51 52//52 46//46
f 28//28 73//73 74//74
f 100//100 51//51 46//46
f 28//28 74//74 75//75
f 100//100 46//46 4//4
f 20//20 28//28 75//75
f 99//99 100//100 4//4
f 20//20 75//75 76//76
f 98//98 99//99 4//4
f 20//20 76//76 77//77
f 97//97 98//98 4//4
f 20//20 77//77 78//78
f 96//96 97//97 4//4
f 20//20 78//78 79//79
f 95//95 96//96 4//4
f 20//20 79//79 80//80
f 94//94 95//95 4//4
f 20//20 80//80 81//81
f 93//93 94//94 4//4
f 20//20 81//81 82//82
f 92//92 93//93 4//4
f 20//20 82//82 83//83
f 91//91 92//92 4//4
f 12//12 20//20 83//83
f 91//91 4//4 12//12
f 12//12 83//83 84//84
f 90//90 91//91 12//12
f 12//12 84//84 85//85
f 89//89 90//90 12//12
f 12//12 85//85 86//86
f 88//88 89//89 12//12
f 12//12 86//86 87//87
f 87//87 88//88 12//12
f 136//136 162//162 161//161
f 163//163 162//162 136//136
f 136//136 135//135 134//134
f 134//134 133//133 132//132
f 132//132 131//131 130//130
f 130//130 129//129 128//128
f 128//128 127//127 126//126
f 126//126 125//125 124//124
f 124//124 123//123 122//122
f 122//122 121//121 120//120
f 120//120 119//119 118//118
f 118//118 117//117 116//116
f 116//116 115//115 114//114
f 114//114 113//113 112//112
f 112//112 111//111 110//110
f 110//110 109//109 108//108
f 108//108 107//107 106//106
f 106//106 105//105 104//104
f 104//104 103//103 102//102
f 102//102 101//101 150//150
f 150//150 149//149 148//148
f 148//148 147//147 146//146
f 146//146 145//145 144//144
f 144//144 143//143 142//142
f 142//142 141//141 140//140
f 140//140 139//139 138//138
f 138//138 137//137 136//136
f 136//136 161//161 160//160
f 164//164 163//163 136//136
f 136//136 134//134 132//132
f 132//132 130//130 128//128
f 128//128 126//126 124//124
f 124//124 122//122 120//120
f 120//120 118//118 116//116
f 116//116 114//114 112//112
f 112//112 110//110 108//108
f 108//108 106//106 104//104
f 104//104 102//102 150//150
f 150//150 148//148 146//146
f 146//146 144//144 142//142
f 142//142 140//140 138//138
f 138//138 136//136 160//160
f 165//165 164//164 136//136
f 136//136 132//132 128//128
f 128//128 124//124 120//120
f 120//120 116//116 112//112
f 112//112 108//108 104//104
f 104//104 150//150 146//146
f 146//146 142//142 138//138
f 138//138 160//160 159//159
f 166//166 165//165 136//136
f 138//138 159//159 158//158
f 167//167 166//166 136//136
f 138//138 158//158 157//157
f 167//167 136//136 128//128
f 146//146 138//138 157//157
f 168//168 167//167 128//128
f 146//146 157//157 156//156
f 169//169 168//168 128//128
f 146//146 156//156 155//155
f 170//170 169//169 128//128
f 146//146 155//155 154//154
f 171//171 170//170 128//128
f 146//146 154//154 153//153
f 172//172 171//171 128//128
f 146//146 153//153 152//152
f 173//173 172//172 128//128
f 146//146 152//152 151//151
f 174//174 173//173 128//128
f 146//146 151//151 200//200
f 175//175 174//174 128//128
f 104//104 146//146 200//200
f 175//175 128//128 120//120
f 104//104 200//200 199//199
f 176//176 175//175 120//120
f 104//104 199//199 198//198
f 177//177 176//176 120//120
f 104//104 198//198 197//197
f 178//178 177//177 120//120
f 104//104 197//197 196//196
f 179//179 178//178 120//120
f 104//104 196//196 195//195
f 180//180 179//179 120//120
f 104//104 195//195 194//194
f 181//181 180//180 120//120
f 104//104 194//194 193//193
f 182//182 181//181 120//120
f 104//104 193//193 192//192
f 183//183 182//182 120//120
f 104//104 192//192 191//191
f 183//183 120//120 112//112
f 112//112 104//104 191//191
f 184//184 183//183 112//112
f 112//112 191//191 190//190
f 185//185 184//184 112//112
f 112//112 190//190 189//189
f 186//186 185//185 112//112
f 112//112 189//189 188//188
f 187//187 186//186 112//112
f 112//112 188//188 187//187
f 101//101 102//102 1//1
f 1//1 102//102 2//2
f 102//102 103//103 2//2
f 2//2 103//103 3//3
f 103//103 104//104 3//3
f 3//3 104//104 4//4
f 104//104 105//105 4//4
f 4//4 105//105 5//5
f 105//105 106//106 5//5
f 5//5 106//106 6//6
f 106//106 107//107 6//6
f 6//6 107//107 7//7
f 107//107 108//108 7//7
f 7//7 108//108 8//8
f 108//108 109//109 8//8
f 8//8 109//109 9//9
f 109//109 110//110 9//9
f 9//9 110//110 10//10
f 110//110 111//111 10//10
f 10//10 111//111 11//11
f 111//111 112//112 11//11
f 11//11 112//112 12//12
f 112//112 113//113 12//12
f 12//12 113//113 13//13
f 113//113 114//114 13//13
f 13//13 114//114 14//14
f 114//114 115//115 14//14
f 14//14 115//115 15//15
f 115//115 116//116 15//15
f 15//15 116//116 16//16
f 116//116 117//117 16//16
f 16//16 117//117 17//17
f 117//117 118//118 17//17
f 17//17 118//118 18//18
f 118//118 119//119 18//18
f 18//18 119//119 19//19
f 119//119 120//120 19//19
f 19//19 120//120 20//20
f 120//120 121//121 20//20
f 20//20 121//121 21//21
f 121//121 122//122 21//21
f 21//21 122//122 22//22
f 122//122 123//123 22//22
f 22//22 123//123 23//23
f 123//123 124//124 23//23
f 23//23 124//124 24//24
f 124//124 125//125 24//24
f 24//24 125//125 25//25
f 125//125 126//126 25//25
f 25//25 126//126 26//26
f 126//126 127//127 26//26
f 26//26 127//127 27//27
f 127//127 128//128 27//27
f 27//27 128//128 28//28
f 128//128 129//129 28//28
f 28//28 129//129 29//29
f 129//129 130//130 29//29
f 29//29 130//130 30//30
f 130//130 131//131 30//30
f 30//30 131//131 31//31
f 131//131 132//132 31//31
f 31//31 132//132 32//32
f 132//132 133//133 32//32
f 32//32 133//133 33//33
f 133//133 134//134 33//33
f 33//33 134//134 34//34
f 134//134 135//135 34//34
f 34//34 135//135 35//35
f 135//135 136//136 35//35
f 35//35 136//136 36//36
f 136//136 137//137 36//36
f 36//36 137//137 37//37
f 137//137 138//138 37//37
f 37//37 138//138 38//38
f 138//138 139//139 38//38
f 38//38 139//139 39//39
f 139//139 140//140 39//39
f 39//39 140//140 40//40
f 140//140 141//141 40//40
f 40//40 141//141 41//41
f 141//141 142//142 41//41
f 41//41 142//142 42//42
f 142//142 143//143 42//42
f 42//42 143//143 43//43
f 143//143 144//144 43//43
f 43//43 144//144 44//44
f 144//144 145//145 44//44
f 44//44 145//145 45//45
f 145//145 146//146 45//45
f 45//45 146//146 46//46
f 146//146 147//147 46//46
f 46//46 147//147 47//47
f 147//147 148//148 47//47
f 47//47 148//148 48//48
f 148//148 149//149 48//48
f 48//48 149//149 49//49
f 150//150 101//101 50//50
f 50//50 101//101 1//1
f 149//149 150//150 49//49
f 49//49 150//150 50//50
f 151//151 152//152 51//51
f 51//51 152//152 52//52
f 152//152 153//153 52//52
f 52//52 153//153 53//53
f 153//153 154//154 53//53
f 53//53 154//154 54//54
f 154//154 155//155 54//54
f 54//54 155//155 55//55
f 155//155 156//156 55//55
f 55//55 156//156 56//56
f 156//156 157//157 56//56
f 56//56 157//157 57//57
f 157//157 158//158 57//57
f 57//57 158//158 58//58
f 158//158 159//159 58//58
f 58//58 159//159 59//59
f 159//159 160//160 59//59
f 59//59 160//160 60//60
f 160//160 161//161 60//60
f 60//60 161//161 61//61
f 161//161 162//162 61//61
f 61//61 162//162 62//62
f 162//162 163//163 62//62
f 62//62 163//163 63//63
f 163//163 164//164 63//63
f 63//63 164//164 64//64
f 164//164 165//165 64//64
f 64//64 165//165 65//65
f 165//165 166//166 65//65
f 65//65 166//166 66//66
f 166//166 167//167 66//66
f 66//66 167//167 67//67
f 167//167 168//168 67//67
f 67//67 168//168 68//68
f 168//168 169//169 68//68
f 68//68 169//169 69//69
f 169//169 170//170 69//69
f 69//69 170//170 70//70
f 170//170 171//171 70//70
f 70//70 171//171 71//71
f 171//171 172//172 71//71
f 71//71 172//172 72//72
f 172//172 173//173 72//72
f 72//72 173//173 73//73
f 173//173 174//174 73//73
f 73//73 174//174 74//74
f 174//174 175//175 74//74
f 74//74 175//175 75//75
f 175//175 176//176 75//75
f 75//75 176//176 76//76
f 176//176 177//177 76//76
f 76//76 177//177 77//77
f 177//177 178//178 77//77
f 77//77 178//178 78//78
f 178//178 179//179 78//78
f 78//78 179//179 79//79
f 179//179 180//180 79//79
f 79//79 180//180 80//80
f 180//180 181//181 80//80
f 80//80 181//181 81//81
f 181//181 182//182 81//81
f 81//81 182//182 82//82
f 182//182 183//183 82//82
f 82//82 183//183 83//83
f 183//183 184//184 83//83
f 83//83 184//184 84//84
f 184//184 185//185 84//84
f 84//84 185//185 85//85
f 185//185 186//186 85//85
f 85//85 186//186 86//86
f 186//186 187//187 86//86
f 86//86 187//187 87//87
f 187//187 188//188 87//87
f 87//87 188//188 88//88
f 188//188 189//189 88//88
f 88//88 189//189 89//89
f 189//189 190//190 89//89
f 89//89 190//190 90//90
f 190//190 191//191 90//90
f 90//90 191//191 91//91
f 191//191 192//192 91//91
f 91//91 192//192 92//92
f 192//192 193//193 92//92
f 92//92 193//193 93//93
f 193//193 194//194 93//93
f 93//93 194//194 94//94
f 194//194 195//195 94//94
f 94//94 195//195 95//95
f 195//195 196//196 95//95
f 95//95 196//196 96//96
f 196//196 197//197 96//96
f 96//96 197//197 97//97
f 197//197 198//198 97//97
f 97//97 198//198 98//98
f 198//198 199//199 98//98
f 98//98 199//199 99//99
f 200//200 151//151 100//100
f 100//100 151//151 51//51
f 199//199 200//200 99//99
f 99//99 200//200 100//100
o Grass
g Grass
usemtl PinkWhite
v 4.49600 0.00000 -3.76749
v 4.98351 0.00000 -3.67052
v 5.45420 0.00000 -3.51074
v 5.90000 0.00000 -3.29090
v 6.31329 0.00000 -3.01474
v 6.68701 0.00000 -2.68701
v 7.01474 0.00000 -2.31329
v 7.29090 0.00000 -1.90000
v 7.51074 0.00000 -1.45420
v 7.67052 0.00000 -0.98351
v 7.76749 0.00000 -0.49600
v 7.80000 0.00000 0.00000
v 7.76749 -0.00000 0.49600
v 7.67052 -0.00000 0.98351
v 7.51074 -0.00000 1.45420
v 7.29090 -0.00000 1.90000
v 7.01474 -0.00000 2.31329
v 6.68701 -0.00000 2.68701
v 6.31329 -0.00000 3.01474
v 5.90000 -0.00000 3.29090
v 5.45420 -0.00000 3.51074
v 4.98351 -0.00000 3.67052
v 4.49600 -0.00000 3.76749
v 4.00000 -0.00000 3.80000
v -4.00000 -0.00000 3.80000
v -4.49600 -0.00000 3.76749
v -4.98351 -0.00000 3.67052
v -5.45420 -0.00000 3.51074
v -5.90000 -0.00000 3.29090
v -6.31329 -0.00000 3.01474
v -6.68701 -0.00000 2.68701
v -7.01474 -0.00000 2.31329
v -7.29090 -0.00000 1.90000
v -7.51074 -0.00000 1.45420
v -7.67052 -0.00000 0.98351
v -7.76749 -0.00000 0.49600
v -7.80000 0.00000 0.00000
v -7.76749 0.00000 -0.49600
v -7.67052 0.00000 -0.98351
v -7.51074 0.00000 -1.45420
v -7.29090 0.00000 -1.90000
v -7.01474 0.00000 -2.31329
v -6.68701 0.00000 -2.68701
v -6.31329 0.00000 -3.01474
v -5.90000 0.00000 -3.29090
v -5.45420 0.00000 -3.51074
v -4.98351 0.00000 -3.67052
v -4.49600 0.00000 -3.76749
v -4.00000 0.00000 -3.80000
v 4.00000 0.00000 -3.80000
v 4.49600 0.65000 -3.76749
v 4.98351 0.65000 -3.67052
v 5.45420 0.65000 -3.51074
v 5.90000 0.65000 -3.29090
v 6.31329 0.65000 -3.01474
v 6.68701 0.65000 -2.68701
v 7.01474 0.65000 -2.31329
v 7.29090 0.65000 -1.90000
v 7.51074 0.65000 -1.45420
v 7.67052 0.65000 -0.98351
v 7.76749 0.65000 -0.49600
v 7.80000 0.65000 0.00000
v 7.76749 0.65000 0.49600
v 7.67052 0.65000 0.98351
v 7.51074 0.65000 1.45420
v 7.29090 0.65000 1.90000
v 7.01474 0.65000 2.31329
v 6.68701 0.65000 2.68701
v 6.31329 0.65000 3.01474
v 5.90000 0.65000 3.29090
v 5.45420 0.65000 3.51074
v 4.98351 0.65000 3.67052
v 4.49600 0.65000 3.76749
v 4.00000 0.65000 3.80000
v -4.00000 0.65000 3.80000
v -4.49600 0.65000 3.76749
v -4.98351 0.65000 3.67052
v -5.45420 0.65000 3.51074
v -5.90000 0.65000 3.29090
v -6.31329 0.65000 3.01474
v -6.68701 0.65000 2.68701
v -7.01474 0.65000 2.31329
v -7.29090 0.65000 1.90000
v -7.51074 0.65000 1.45420
v -7.67052 0.65000 0.98351
v -7.76749 0.65000 0.49600
v -7.80000 0.65000 0.00000
v -7.76749 0.65000 -0.49600
v -7.67052 0.65000 -0.98351
v -7.51074 0.65000 -1.45420
v -7.29090 0.65000 -1.90000
v -7.01474 0.65000 -2.31329
v -6.68701 0.65000 -2.68701
v -6.31329 0.65000 -3.01474
v -5.90000 0.65000 -3.29090
v -5.45420 0.65000 -3.51074
v -4.98351 0.65000 -3.67052
v -4.49600 0.65000 -3.76749
v -4.00000 0.65000 -3.80000
v 4.00000 0.65000 -3.80000
vn 0.0941 -0.6927 -0.7151
vn 0.1867 -0.6927 -0.6967
vn 0.2760 -0.6927 -0.6663
vn 0.3606 -0.6927 -0.6246
vn 0.4391 -0.6927 -0.5722
vn 0.5100 -0.6927 -0.5100
vn 0.5722 -0.6927 -0.4391
vn 0.6246 -0.6927 -0.3606
vn 0.6663 -0.6927 -0.2760
vn 0.6967 -0.6927 -0.1867
vn 0.7151 -0.6927 -0.0941
vn 0.7212 -0.6927 -0.0000
vn 0.7151 -0.6927 0.0941
vn 0.6967 -0.6927 0.1867
vn 0.6663 -0.6927 0.2760
vn 0.6246 -0.6927 0.3606
vn 0.5722 -0.6927 0.4391
vn 0.5100 -0.6927 0.5100
vn 0.4391 -0.6927 0.5722
vn 0.3606 -0.6927 0.6246
vn 0.2760 -0.6927 0.6663
vn 0.1867 -0.6927 0.6967
vn 0.0941 -0.6927 0.7151
vn 0.0234 -0.6998 0.7139
vn -0.0234 -0.6998 0.7139
vn -0.0941 -0.6927 0.7151
vn -0.1867 -0.6927 0.6967
vn -0.2760 -0.6927 0.6663
vn -0.3606 -0.6927 0.6246
vn -0.4391 -0.6927 0.5722
vn -0.5100 -0.6927 0.5100
vn -0.5722 -0.6927 0.4391
vn -0.6246 -0.6927 0.3606
vn -0.6663 -0.6927 0.2760
vn -0.6967 -0.6927 0.1867
vn -0.7151 -0.6927 0.0941
vn -0.7212 -0.6927 -0.0000
vn -0.7151 -0.6927 -0.0941
vn -0.6967 -0.6927 -0.1867
vn -0.6663 -0.6927 -0.2760
vn -0.6246 -0.6927 -0.3606
vn -0.5722 -0.6927 -0.4391
vn -0.5100 -0.6927 -0.5100
vn -0.4391 -0.6927 -0.5722
vn -0.3606 -0.6927 -0.6246
vn -0.2760 -0.6927 -0.6663
vn -0.1867 -0.6927 -0.6967
vn -0.0941 -0.6927 -0.7151
vn -0.0234 -0.6998 -0.7139
vn 0.0234 -0.6998 -0.7139
vn 0.0941 0.6927 -0.7151
vn 0.1867 0.6927 -0.6967
vn 0.2760 0.6927 -0.6663
vn 0.3606 0.6927 -0.6246
vn 0.4391 0.6927 -0.5722
vn 0.5100 0.6927 -0.5100
vn 0.5722 0.6927 -0.4391
vn 0.6246 0.6927 -0.3606
vn 0.6663 0.6927 -0.2760
vn 0.6967 0.6927 -0.1867
vn 0.7151 0.6927 -0.0941
vn 0.7212 0.6927 0.0000
vn 0.7151 0.6927 0.0941
vn 0.6967 0.6927 0.1867
vn 0.6663 0.6927 0.2760
vn 0.6246 0.6927 0.3606
vn 0.5722 0.6927 0.4391
vn 0.5100 0.6927 0.5100
vn 0.4391 0.6927 0.5722
vn 0.3606 0.6927 0.6246
vn 0.2760 0.6927 0.6663
vn 0.1867 0.6927 0.6967
vn 0.0941 0.6927 0.7151
vn 0.0234 0.6998 0.7139
vn -0.0234 0.6998 0.7139
vn -0.0941 0.6927 0.7151
vn -0.1867 0.6927 0.6967
vn -0.2760 0.6927 0.6663
vn -0.3606 0.6927 0.6246
vn -0.4391 0.6927 0.5722
vn -0.5100 0.6927 0.5100
vn -0.5722 0.6927 0.4391
vn -0.6246 0.6927 0.3606
vn -0.6663 0.6927 0.2760
vn -0.6967 0.6927 0.1867
vn -0.7151 0.6927 0.0941
vn -0.7212 0.6927 -0.0000
vn -0.7151 0.6927 -0.0941
vn -0.6967 0.6927 -0.1867
vn -0.6663 0.6927 -0.2760
vn -0.6246 0.6927 -0.3606
vn -0.5722 0.6927 -0.4391
vn -0.5100 0.6927 -0.5100
vn -0.4391 0.6927 -0.5722
vn -0.3606 0.6927 -0.6246
vn -0.2760 0.6927 -0.6663
vn -0.1867 0.6927 -0.6967
vn -0.0941 0.6927 -0.7151
vn -0.0234 0.6998 -0.7139
vn 0.0234 0.6998 -0.7139
f 249//249 250//250 201//201
f 247//247 248//248 249//249
f 245//245 246//246 247//247
f 243//243 244//244 245//245
f 241//241 242//242 243//243
f 239//239 240//240 241//241
f 237//237 238//238 239//239
f 235//235 236//236 237//237
f 233//233 234//234 235//235
f 231//231 232//232 233//233
f 229//229 230//230 231//231
f 227//227 228//228 229//229
f 225//225 226//226 227//227
f 223//223 224//224 225//225
f 221//221 222//222 223//223
f 219//219 220//220 221//221
f 217//217 218//218 219//219
f 215//215 216//216 217//217
f 213//213 214//214 215//215
f 211//211 212//212 213//213
f 209//209 210//210 211//211
f 207//207 208//208 209//209
f 205//205 206//206 207//207
f 203//203 204//204 205//205
f 201//201 202//202 203//203
f 247//247 249//249 201//201
f 243//243 245//245 247//247
f 239//239 241//241 243//243
f 235//235 237//237 239//239
f 231//231 233//233 235//235
f 227//227 229//229 231//231
f 223//223 225//225 227//227
f 219//219 221//221 223//223
f 215//215 217//217 219//219
f 211//211 213//213 215//215
f 207//207 209//209 211//211
f 203//203 205//205 207//207
f 247//247 201//201 203//203
f 239//239 243//243 247//247
f 231//231 235//235 239//239
f 223//223 227//227 231//231
f 215//215 219//219 223//223
f 207//207 211//211 215//215
f 247//247 203//203 207//207
f 231//231 239//239 247//247
f 215//215 223//223 231//231
f 247//247 207//207 215//215
f 215//215 231//231 247//247
f 251//251 300//300 299//299
f 299//299 298//298 297//297
f 297//297 296//296 295//295
f 295//295 294//294 293//293
f 293//293 292//292 291//291
f 291//291 290//290 289//289
f 289//289 288//288 287//287
f 287//287 286//286 285//285
f 285//285 284//284 283//283
f 283//283 282//282 281//281
f 281//281 280//280 279//279
f 279//279 278//278 277//277
f 277//277 276//276 275//275
f 275//275 274//274 273//273
f 273//273 272//272 271//271
f 271//271 270//270 269//269
f 269//269 268//268 267//267
f 267//267 266//266 265//265
f 265//265 264//264 263//263
f 263//263 262//262 261//261
f 261//261 260//260 259//259
f 259//259 258//258 257//257
f 257//257 256//256 255//255
f 255//255 254//254 253//253
f 253//253 252//252 251//251
f 251//251 299//299 297//297
f 297//297 295//295 293//293
f 293//293 291//291 289//289
f 289//289 287//287 285//285
f 285//285 283//283 281//281
f 281//281 279//279 277//277
f 277//277 275//275 273//273
f 273//273 271//271 269//269
f 269//269 267//267 265//265
f 265//265 263//263 261//261
f 261//261 259//259 257//257
f 257//257 255//255 253//253
f 253//253 251//251 297//297
f 297//297 293//293 289//289
f 289//289 285//285 281//281
f 281//281 277//277 273//273
f 273//273 269//269 265//265
f 265//265 261//261 257//257
f 257//257 253//253 297//297
f 297//297 289//289 281//281
f 281//281 273//273 265//265
f 265//265 257//257 297//297
f 297//297 281//281 265//265
f 251//251 252//252 201//201
f 201//201 252//252 202//202
f 252//252 253//253 202//202
f 202//202 253//253 203//203
f 253//253 254//254 203//203
f 203//203 254//254 204//204
f 254//254 255//255 204//204
f 204//204 255//255 205//205
f 255//255 256//256 205//205
f 205//205 256//256 206//206
f 256//256 257//257 206//206
f 206//206 257//257 207//207
f 257//257 258//258 207//207
f 207//207 258//258 208//208
f 258//258 259//259 208//208
f 208//208 259//259 209//209
f 259//259 260//260 209//209
f 209//209 260//260 210//210
f 260//260 261//261 210//210
f 210//210 261//261 211//211
f 261//261 262//262 211//211
f 211//211 262//262 212//212
f 262//262 263//263 212//212
f 212//212 263//263 213//213
f 263//263 264//264 213//213
f 213//213 264//264 214//214
f 264//264 265//265 214//214
f 214//214 265//265 215//215
f 265//265 266//266 215//215
f 215//215 266//266 216//216
f 266//266 267//267 216//216
f 216//216 267//267 217//217
f 267//267 268//268 217//217
f 217//217 268//268 218//218
f 268//268 269//269 218//218
f 218//218 269//269 219//219
f 269//269 270//270 219//219
f 219//219 270//270 220//220
f 270//270 271//271 220//220
f 220//220 271//271 221//221
f 271//271 272//272 221//221
f 221//221 272//272 222//222
f 272//272 273//273 222//222
f 222//222 273//273 223//223
f 273//273 274//274 223//223
f 223//223 274//274 224//224
f 274//274 275//275 224//224
f 224//224 275//275 225//225
f 275//275 276//276 225//225
f 225//225 276//276 226//226
f 276//276 277//277 226//226
f 226//226 277//277 227//227
f 277//277 278//278 227//227
f 227//227 278//278 228//228
f 278//278 279//279 228//228
f 228//228 279//279 229//229
f 279//279 280//280 229//229
f 229//229 280//280 230//230
f 280//280 281//281 230//230
f 230//230 281//281 231//231
f 281//281 282//282 231//231
f 231//231 282//282 232//232
f 282//282 283//283 232//232
f 232//232 283//283 233//233
f 283//283 284//284 233//233
f 233//233 284//284 234//234
f 284//284 285//285 234//234
f 234//234 285//285 235//235
f 285//285 286//286 235//235
f 235//235 286//286 236//236
f 286//286 287//287 236//236
f 236//236 287//287 237//237
f 287//287 288//288 237//237
f 237//237 288//288 238//238
f 288//288 289//289 238//238
f 238//238 289//289 239//239
f 289//289 290//290 239//239
f 239//239 290//290 240//240
f 290//290 291//291 240//240
f 240//240 291//291 241//241
f 291//291 292//292 241//241
f 241//241 292//292 242//242
f 292//292 293//293 242//242
f 242//242 293//293 243//243
f 293//293 294//294 243//243
f 243//243 294//294 244//244
f 294//294 295//295 244//244
f 244//244 295//295 245//245
f 295//295 296//296 245//245
f 245//245 296//296 246//246
f 296//296 297//297 246//246
f 246//246 297//297 247//247
f 297//297 298//298 247//247
f 247//247 298//298 248//248
f 298//298 299//299 248//248
f 248//248 299//299 249//249
f 300//300 251//251 250//250
f 250//250 251//251 201//201
f 299//299 300//300 249//249
f 249//249 300//300 250//250
