mtllib trashcan.mtl
o Curb
g Curb
usemtl PinkWhite
v 4.82963 -0.00000 1.29410
v 4.61940 -0.00000 1.91342
v 4.33013 -0.00000 2.50000
v 3.96677 -0.00000 3.04381
v 3.53553 -0.00000 3.53553
v 3.04381 -0.00000 3.96677
v 2.50000 -0.00000 4.33013
v 1.91342 -0.00000 4.61940
v 1.29410 -0.00000 4.82963
v 0.65263 -0.00000 4.95722
v 0.00000 -0.00000 5.00000
v -0.65263 -0.00000 4.95722
v -1.29410 -0.00000 4.82963
v -1.91342 -0.00000 4.61940
v -2.50000 -0.00000 4.33013
v -3.04381 -0.00000 3.96677
v -3.53553 -0.00000 3.53553
v -3.96677 -0.00000 3.04381
v -4.33013 -0.00000 2.50000
v -4.61940 -0.00000 1.91342
v -4.82963 -0.00000 1.29410
v -4.95722 -0.00000 0.65263
v -5.00000 0.00000 0.00000
v -4.95722 0.00000 -0.65263
v -4.82963 0.00000 -1.29410
v -4.61940 0.00000 -1.91342
v -4.33013 0.00000 -2.50000
v -3.96677 0.00000 -3.04381
v -3.53553 0.00000 -3.53553
v -3.04381 0.00000 -3.96677
v -2.50000 0.00000 -4.33013
v -1.91342 0.00000 -4.61940
v -1.29410 0.00000 -4.82963
v -0.65263 0.00000 -4.95722
v 0.00000 0.00000 -5.00000
v 0.65263 0.00000 -4.95722
v 1.29410 0.00000 -4.82963
v 1.91342 0.00000 -4.61940
v 2.50000 0.00000 -4.33013
v 3.04381 0.00000 -3.96677
v 3.53553 0.00000 -3.53553
v 3.96677 0.00000 -3.04381
v 4.33013 0.00000 -2.50000
v 4.61940 0.00000 -1.91342
v 4.82963 0.00000 -1.29410
v 4.95722 0.00000 -0.65263
v 5.00000 0.00000 0.00000
v 4.95722 -0.00000 0.65263
v 3.67052 0.00000 -0.98351
v 3.51074 0.00000 -1.45420
v 3.29090 0.00000 -1.90000
v 3.01474 0.00000 -2.31329
v 2.68701 0.00000 -2.68701
v 2.31329 0.00000 -3.01474
v 1.90000 0.00000 -3.29090
v 1.45420 0.00000 -3.51074
v 0.98351 0.00000 -3.67052
v 0.49600 0.00000 -3.76749
v 0.00000 0.00000 -3.80000
v -0.49600 0.00000 -3.76749
v -0.98351 0.00000 -3.67052
v -1.45420 0.00000 -3.51074
v -1.90000 0.00000 -3.29090
v -2.31329 0.00000 -3.01474
v -2.68701 0.00000 -2.68701
v -3.01474 0.00000 -2.31329
v -3.29090 0.00000 -1.90000
v -3.51074 0.00000 -1.45420
v -3.67052 0.00000 -0.98351
v -3.76749 0.00000 -0.49600
v -3.80000 0.00000 0.00000
v -3.76749 -0.00000 0.49600
v -3.67052 -0.00000 0.98351
v -3.51074 -0.00000 1.45420
v -3.29090 -0.00000 1.90000
v -3.01474 -0.00000 2.31329
v -2.68701 -0.00000 2.68701
v -2.31329 -0.00000 3.01474
v -1.90000 -0.00000 3.29090
v -1.45420 -0.00000 3.51074
v -0.98351 -0.00000 3.67052
v -0.49600 -0.00000 3.76749
v 0.00000 -0.00000 3.80000
v 0.49600 -0.00000 3.76749
v 0.98351 -0.00000 3.67052
v 1.45420 -0.00000 3.51074
v 1.90000 -0.00000 3.29090
v 2.31329 -0.00000 3.01474
v 2.68701 -0.00000 2.68701
v 3.01474 -0.00000 2.31329
v 3.29090 -0.00000 1.90000
v 3.51074 -0.00000 1.45420
v 3.67052 -0.00000 0.98351
v 3.76749 -0.00000 0.49600
v 3.80000 0.00000 0.00000
v 3.76749 0.00000 -0.49600
v 4.82963 1.00000 1.29410
v 4.61940 1.00000 1.91342
v 4.33013 1.00000 2.50000
v 3.96677 1.00000 3.04381
v 3.53553 1.00000 3.53553
v 3.04381 1.00000 3.96677
v 2.50000 1.00000 4.33013
v 1.91342 1.00000 4.61940
v 1.29410 1.00000 4.82963
v 0.65263 1.00000 4.95722
v 0.00000 1.00000 5.00000
v -0.65263 1.00000 4.95722
v -1.29410 1.00000 4.82963
v -1.91342 1.00000 4.61940
v -2.50000 1.00000 4.33013
v -3.04381 1.00000 3.96677
v -3.53553 1.00000 3.53553
v -3.96677 1.00000 3.04381
v -4.33013 1.00000 2.50000
v -4.61940 1.00000 1.91342
v -4.82963 1.00000 1.29410
v -4.95722 1.00000 0.65263
v -5.00000 1.00000 0.00000
v -4.95722 1.00000 -0.65263
v -4.82963 1.00000 -1.29410
v -4.61940 1.00000 -1.91342
v -4.33013 1.00000 -2.50000
v -3.96677 1.00000 -3.04381
v -3.53553 1.00000 -3.53553
v -3.04381 1.00000 -3.96677
v -2.50000 1.00000 -4.33013
v -1.91342 1.00000 -4.61940
v -1.29410 1.00000 -4.82963
v -0.65263 1.00000 -4.95722
v 0.00000 1.00000 -5.00000
v 0.65263 1.00000 -4.95722
v 1.29410 1.00000 -4.82963
v 1.91342 1.00000 -4.61940
v 2.50000 1.00000 -4.33013
v 3.04381 1.00000 -3.96677
v 3.53553 1.00000 -3.53553
v 3.96677 1.00000 -3.04381
v 4.33013 1.00000 -2.50000
v 4.61940 1.00000 -1.91342
v 4.82963 1.00000 -1.29410
v 4.95722 1.00000 -0.65263
v 5.00000 1.00000 0.00000
v 4.95722 1.00000 0.65263
v 3.67052 1.00000 -0.98351
v 3.51074 1.00000 -1.45420
v 3.29090 1.00000 -1.90000
v 3.01474 1.00000 -2.31329
v 2.68701 1.00000 -2.68701
v 2.31329 1.00000 -3.01474
v 1.90000 1.00000 -3.29090
v 1.45420 1.00000 -3.51074
v 0.98351 1.00000 -3.67052
v 0.49600 1.00000 -3.76749
v 0.00000 1.00000 -3.80000
v -0.49600 1.00000 -3.76749
v -0.98351 1.00000 -3.67052
v -1.45420 1.00000 -3.51074
v -1.90000 1.00000 -3.29090
v -2.31329 1.00000 -3.01474
v -2.68701 1.00000 -2.68701
v -3.01474 1.00000 -2.31329
v -3.29090 1.00000 -1.90000
v -3.51074 1.00000 -1.45420
v -3.67052 1.00000 -0.98351
v -3.76749 1.00000 -0.49600
v -3.80000 1.00000 0.00000
v -3.76749 1.00000 0.49600
v -3.67052 1.00000 0.98351
v -3.51074 1.00000 1.45420
v -3.29090 1.00000 1.90000
v -3.01474 1.00000 2.31329
v -2.68701 1.00000 2.68701
v -2.31329 1.00000 3.01474
v -1.90000 1.00000 3.29090
v -1.45420 1.00000 3.51074
v -0.98351 1.00000 3.67052
v -0.49600 1.00000 3.76749
v 0.00000 1.00000 3.80000
v 0.49600 1.00000 3.76749
v 0.98351 1.00000 3.67052
v 1.45420 1.00000 3.51074
v 1.90000 1.00000 3.29090
v 2.31329 1.00000 3.01474
v 2.68701 1.00000 2.68701
v 3.01474 1.00000 2.31329
v 3.29090 1.00000 1.90000
v 3.51074 1.00000 1.45420
v 3.67052 1.00000 0.98351
v 3.76749 1.00000 0.49600
v 3.80000 1.00000 0.00000
v 3.76749 1.00000 -0.49600
vn 0.6967 -0.6927 0.1867
vn 0.6663 -0.6927 0.2760
vn 0.6246 -0.6927 0.3606
vn 0.5722 -0.6927 0.4391
vn 0.5100 -0.6927 0.5100
vn 0.4391 -0.6927 0.5722
vn 0.3606 -0.6927 0.6246
vn 0.2760 -0.6927 0.6663
vn 0.1867 -0.6927 0.6967
vn 0.0941 -0.6927 0.7151
vn 0.0000 -0.6927 0.7212
vn -0.0941 -0.6927 0.7151
vn -0.1867 -0.6927 0.6967
vn -0.2760 -0.6927 0.6663
vn -0.3606 -0.6927 0.6246
vn -0.4391 -0.6927 0.5722
vn -0.5100 -0.6927 0.5100
vn -0.5722 -0.6927 0.4391
vn -0.6246 -0.6927 0.3606
vn -0.6663 -0.6927 0.2760
vn -0.6967 -0.6927 0.1867
vn -0.7151 -0.6927 0.0941
vn -0.7212 -0.6927 0.0000
vn -0.7151 -0.6927 -0.0941
vn -0.6967 -0.6927 -0.1867
vn -0.6663 -0.6927 -0.2760
vn -0.6246 -0.6927 -0.3606
vn -0.5722 -0.6927 -0.4391
vn -0.5100 -0.6927 -0.5100
vn -0.4391 -0.6927 -0.5722
vn -0.3606 -0.6927 -0.6246
vn -0.2760 -0.6927 -0.6663
vn -0.1867 -0.6927 -0.6967
vn -0.0941 -0.6927 -0.7151
vn -0.0000 -0.6927 -0.7212
vn 0.0941 -0.6927 -0.7151
vn 0.1867 -0.6927 -0.6967
vn 0.2760 -0.6927 -0.6663
vn 0.3606 -0.6927 -0.6246
vn 0.4391 -0.6927 -0.5722
vn 0.5100 -0.6927 -0.5100
vn 0.5722 -0.6927 -0.4391
vn 0.6246 -0.6927 -0.3606
vn 0.6663 -0.6927 -0.2760
vn 0.6967 -0.6927 -0.1867
vn 0.7151 -0.6927 -0.0941
vn 0.7212 -0.6927 -0.0000
vn 0.7151 -0.6927 0.0941
vn -0.6682 -0.7221 0.1790
vn -0.6391 -0.7221 0.2647
vn -0.5991 -0.7221 0.3459
vn -0.5488 -0.7221 0.4211
vn -0.4891 -0.7221 0.4891
vn -0.4211 -0.7221 0.5488
vn -0.3459 -0.7221 0.5991
vn -0.2647 -0.7221 0.6391
vn -0.1790 -0.7221 0.6682
vn -0.0903 -0.7221 0.6858
vn 0.0000 -0.7221 0.6918
vn 0.0903 -0.7221 0.6858
vn 0.1790 -0.7221 0.6682
vn 0.2647 -0.7221 0.6391
vn 0.3459 -0.7221 0.5991
vn 0.4211 -0.7221 0.5488
vn 0.4891 -0.7221 0.4891
vn 0.5488 -0.7221 0.4211
vn 0.5991 -0.7221 0.3459
vn 0.6391 -0.7221 0.2647
vn 0.6682 -0.7221 0.1790
vn 0.6858 -0.7221 0.0903
vn 0.6918 -0.7221 -0.0000
vn 0.6858 -0.7221 -0.0903
vn 0.6682 -0.7221 -0.1790
vn 0.6391 -0.7221 -0.2647
vn 0.5991 -0.7221 -0.3459
vn 0.5488 -0.7221 -0.4211
vn 0.4891 -0.7221 -0.4891
vn 0.4211 -0.7221 -0.5488
vn 0.3459 -0.7221 -0.5991
vn 0.2647 -0.7221 -0.6391
vn 0.1790 -0.7221 -0.6682
vn 0.0903 -0.7221 -0.6858
vn -0.0000 -0.7221 -0.6918
vn -0.0903 -0.7221 -0.6858
vn -0.1790 -0.7221 -0.6682
vn -0.2647 -0.7221 -0.6391
vn -0.3459 -0.7221 -0.5991
vn -0.4211 -0.7221 -0.5488
vn -0.4891 -0.7221 -0.4891
vn -0.5488 -0.7221 -0.4211
vn -0.5991 -0.7221 -0.3459
vn -0.6391 -0.7221 -0.2647
vn -0.6682 -0.7221 -0.1790
vn -0.6858 -0.7221 -0.0903
vn -0.6918 -0.7221 0.0000
vn -0.6858 -0.7221 0.0903
vn 0.6967 0.6927 0.1867
vn 0.6663 0.6927 0.2760
vn 0.6246 0.6927 0.3606
vn 0.5722 0.6927 0.4391
vn 0.5100 0.6927 0.5100
vn 0.4391 0.6927 0.5722
vn 0.3606 0.6927 0.6246
vn 0.2760 0.6927 0.6663
vn 0.1867 0.6927 0.6967
vn 0.0941 0.6927 0.7151
vn 0.0000 0.6927 0.7212
vn -0.0941 0.6927 0.7151
vn -0.1867 0.6927 0.6967
vn -0.2760 0.6927 0.6663
vn -0.3606 0.6927 0.6246
vn -0.4391 0.6927 0.5722
vn -0.5100 0.6927 0.5100
vn -0.5722 0.6927 0.4391
vn -0.6246 0.6927 0.3606
vn -0.6663 0.6927 0.2760
vn -0.6967 0.6927 0.1867
vn -0.7151 0.6927 0.0941
vn -0.7212 0.6927 0.0000
vn -0.7151 0.6927 -0.0941
vn -0.6967 0.6927 -0.1867
vn -0.6663 0.6927 -0.2760
vn -0.6246 0.6927 -0.3606
vn -0.5722 0.6927 -0.4391
vn -0.5100 0.6927 -0.5100
vn -0.4391 0.6927 -0.5722
vn -0.3606 0.6927 -0.6246
vn -0.2760 0.6927 -0.6663
vn -0.1867 0.6927 -0.6967
vn -0.0941 0.6927 -0.7151
vn -0.0000 0.6927 -0.7212
vn 0.0941 0.6927 -0.7151
vn 0.1867 0.6927 -0.6967
vn 0.2760 0.6927 -0.6663
vn 0.3606 0.6927 -0.6246
vn 0.4391 0.6927 -0.5722
vn 0.5100 0.6927 -0.5100
vn 0.5722 0.6927 -0.4391
vn 0.6246 0.6927 -0.3606
vn 0.6663 0.6927 -0.2760
vn 0.6967 0.6927 -0.1867
vn 0.7151 0.6927 -0.0941
vn 0.7212 0.6927 -0.0000
vn 0.7151 0.6927 0.0941
vn -0.6682 0.7221 0.1790
vn -0.6391 0.7221 0.2647
vn -0.5991 0.7221 0.3459
vn -0.5488 0.7221 0.4211
vn -0.4891 0.7221 0.4891
vn -0.4211 0.7221 0.5488
vn -0.3459 0.7221 0.5991
vn -0.2647 0.7221 0.6391
vn -0.1790 0.7221 0.6682
vn -0.0903 0.7221 0.6858
vn 0.0000 0.7221 0.6918
vn 0.0903 0.7221 0.6858
vn 0.1790 0.7221 0.6682
vn 0.2647 0.7221 0.6391
vn 0.3459 0.7221 0.5991
vn 0.4211 0.7221 0.5488
vn 0.4891 0.7221 0.4891
vn 0.5488 0.7221 0.4211
vn 0.5991 0.7221 0.3459
vn 0.6391 0.7221 0.2647
vn 0.6682 0.7221 0.1790
vn 0.6858 0.7221 0.0903
vn 0.6918 0.7221 -0.0000
vn 0.6858 0.7221 -0.0903
vn 0.6682 0.7221 -0.1790
vn 0.6391 0.7221 -0.2647
vn 0.5991 0.7221 -0.3459
vn 0.5488 0.7221 -0.4211
vn 0.4891 0.7221 -0.4891
vn 0.4211 0.7221 -0.5488
vn 0.3459 0.7221 -0.5991
vn 0.2647 0.7221 -0.6391
vn 0.1790 0.7221 -0.6682
vn 0.0903 0.7221 -0.6858
vn -0.0000 0.7221 -0.6918
vn -0.0903 0.7221 -0.6858
vn -0.1790 0.7221 -0.6682
vn -0.2647 0.7221 -0.6391
vn -0.3459 0.7221 -0.5991
vn -0.4211 0.7221 -0.5488
vn -0.4891 0.7221 -0.4891
vn -0.5488 0.7221 -0.4211
vn -0.5991 0.7221 -0.3459
vn -0.6391 0.7221 -0.2647
vn -0.6682 0.7221 -0.1790
vn -0.6858 0.7221 -0.0903
vn -0.6918 0.7221 0.0000
vn -0.6858 0.7221 0.0903
f 70//70 71//71 23//23
f 23//23 71//71 72//72
f 21//21 22//22 23//23
f 19//19 20//20 21//21
f 17//17 18//18 19//19
f 15//15 16//16 17//17
f 13//13 14//14 15//15
f 11//11 12//12 13//13
f 9//9 10//10 11//11
f 7//7 8//8 9//9
f 5//5 6//6 7//7
f 3//3 4//4 5//5
f 1//1 2//2 3//3
f 47//47 48//48 1//1
f 45//45 46//46 47//47
f 43//43 44//44 45//45
f 41//41 42//42 43//43
f 39//39 40//40 41//41
f 37//37 38//38 39//39
f 35//35 36//36 37//37
f 33//33 34//34 35//35
f 31//31 32//32 33//33
f 29//29 30//30 31//31
f 27//27 28//28 29//29
f 25//25 26//26 27//27
f 23//23 24//24 25//25
f 69//69 70//70 23//23
f 23//23 72//72 73//73
f 19//19 21//21 23//23
f 15//15 17//17 19//19
f 11//11 13//13 15//15
f 7//7 9//9 11//11
f 3//3 5//5 7//7
f 47//47 1//1 3//3
f 43//43 45//45 47//47
f 39//39 41//41 43//43
f 35//35 37//37 39//39
f 31//31 33//33 35//35
f 27//27 29//29 31//31
f 23//23 25//25 27//27
f 68//68 69//69 23//23
f 23//23 73//73 74//74
f 15//15 19//19 23//23
f 7//7 11//11 15//15
f 47//47 3//3 7//7
f 39//39 43//43 47//47
f 31//31 35//35 39//39
f 23//23 27//27 31//31
f 67//67 68//68 23//23
f 23//23 74//74 75//75
f 67//67 23//23 31//31
f 23//23 75//75 76//76
f 66//66 67//67 31//31
f 15//15 23//23 76//76
f 65//65 66//66 31//31
f 15//15 76//76 77//77
f 64//64 65//65 31//31
f 15//15 77//77 78//78
f 63//63 64//64 31//31
f 15//15 78//78 79//79
f 62//62 63//63 31//31
f 15//15 79//79 80//80
f 61//61 62//62 31//31
f 15//15 80//80 81//81
f 60//60 61//61 31//31
f 15//15 81//81 82//82
f 60//60 31//31 39//39
f 15//15 82//82 83//83
f 59//59 60//60 39//39
f 15//15 83//83 84//84
f 58//58 59//59 39//39
f 7//7 15//15 84//84
f 57//57 58//58 39//39
f 7//7 84//84 85//85
f 56//56 57//57 39//39
f 7//7 85//85 86//86
f 55//55 56//56 39//39
f 7//7 86//86 87//87
f 54//54 55//55 39//39
f 7//7 87//87 88//88
f 53//53 54//54 39//39
f 7//7 88//88 89//89
f 52//52 53//53 39//39
f 7//7 89//89 90//90
f 52//52 39//39 47//47
f 7//7 90//90 91//91
f 51//51 52//52 47//47
f 7//7 91//91 92//92
f 50//50 51//51 47//47
f 47//47 7//7 92//92
f 49//49 50//50 47//47
f 47//47 92//92 93//93
f 96//96 49//49 47//47
f 47//47 93//93 94//94
f 95//95 96//96 47//47
f 47//47 94//94 95//95
f 119//119 167//167 166//166
f 168//168 167//167 119//119
f 119//119 118//118 117//117
f 117//117 116//116 115//115
f 115//115 114//114 113//113
f 113//113 112//112 111//111
f 111//111 110//110 109//109
f 109//109 108//108 107//107
f 107//107 106//106 105//105
f 105//105 104//104 103//103
f 103//103 102//102 101//101
f 101//101 100//100 99//99
f 99//99 98//98 97//97
f 97//97 144//144 143//143
f 143//143 142//142 141//141
f 141//141 140//140 139//139
f 139//139 138//138 137//137
f 137//137 136//136 135//135
f 135//135 134//134 133//133
f 133//133 132//132 131//131
f 131//131 130//130 129//129
f 129//129 128//128 127//127
f 127//127 126//126 125//125
f 125//125 124//124 123//123
f 123//123 122//122 121//121
f 121//121 120//120 119//119
f 119//119 166//166 165//165
f 169//169 168//168 119//119
f 119//119 117//117 115//115
f 115//115 113//113 111//111
f 111//111 109//109 107//107
f 107//107 105//105 103//103
f 103//103 101//101 99//99
f 99//99 97//97 143//143
f 143//143 141//141 139//139
f 139//139 137//137 135//135
f 135//135 133//133 131//131
f 131//131 129//129 127//127
f 127//127 125//125 123//123
f 123//123 121//121 119//119
f 119//119 165//165 164//164
f 170//170 169//169 119//119
f 119//119 115//115 111//111
f 111//111 107//107 103//103
f 103//103 99//99 143//143
f 143//143 139//139 135//135
f 135//135 131//131 127//127
f 127//127 123//123 119//119
f 119//119 164//164 163//163
f 171//171 170//170 119//119
f 127//127 119//119 163//163
f 172//172 171//171 119//119
f 127//127 163//163 162//162
f 172//172 119//119 111//111
f 127//127 162//162 161//161
f 173//173 172//172 111//111
f 127//127 161//161 160//160
f 174//174 173//173 111//111
f 127//127 160//160 159//159
f 175//175 174//174 111//111
f 127//127 159//159 158//158
f 176//176 175//175 111//111
f 127//127 158//158 157//157
f 177//177 176//176 111//111
f 127//127 157//157 156//156
f 178//178 177//177 111//111
f 135//135 127//127 156//156
f 179//179 178//178 111//111
f 135//135 156//156 155//155
f 180//180 179//179 111//111
f 135//135 155//155 154//154
f 180//180 111//111 103//103
f 135//135 154//154 153//153
f 181//181 180//180 103//103
f 135//135 153//153 152//152
f 182//182 181//181 103//103
f 135//135 152//152 151//151
f 183//183 182//182 103//103
f 135//135 151//151 150//150
f 184//184 183//183 103//103
f 135//135 150//150 149//149
f 185//185 184//184 103//103
f 135//135 149//149 148//148
f 186//186 185//185 103//103
f 143//143 135//135 148//148
f 187//187 186//186 103//103
f 143//143 148//148 147//147
f 188//188 187//187 103//103
f 143//143 147//147 146//146
f 188//188 103//103 143//143
f 143//143 146//146 145//145
f 189//189 188//188 143//143
f 143//143 145//145 192//192
f 190//190 189//189 143//143
f 143//143 192//192 191//191
f 191//191 190//190 143//143
f 97//97 98//98 1//1
f 1//1 98//98 2//2
f 98//98 99//99 2//2
f 2//2 99//99 3//3
f 99//99 100//100 3//3
f 3//3 100//100 4//4
f 100//100 101//101 4//4
f 4//4 101//101 5//5
f 101//101 102//102 5//5
f 5//5 102//102 6//6
f 102//102 103//103 6//6
f 6//6 103//103 7//7
f 103//103 104//104 7//7
f 7//7 104//104 8//8
f 104//104 105//105 8//8
f 8//8 105//105 9//9
f 105//105 106//106 9//9
f 9//9 106//106 10//10
f 106//106 107//107 10//10
f 10//10 107//107 11//11
f 107//107 108//108 11//11
f 11//11 108//108 12//12
f 108//108 109//109 12//12
f 12//12 109//109 13//13
f 109//109 110//110 13//13
f 13//13 110//110 14//14
f 110//110 111//111 14//14
f 14//14 111//111 15//15
f 111//111 112//112 15//15
f 15//15 112//112 16//16
f 112//112 113//113 16//16
f 16//16 113//113 17//17
f 113//113 114//114 17//17
f 17//17 114//114 18//18
f 114//114 115//115 18//18
f 18//18 115//115 19//19
f 115//115 116//116 19//19
f 19//19 116//116 20//20
f 116//116 117//117 20//20
f 20//20 117//117 21//21
f 117//117 118//118 21//21
f 21//21 118//118 22//22
f 118//118 119//119 22//22
f 22//22 119//119 23//23
f 119//119 120//120 23//23
f 23//23 120//120 24//24
f 120//120 121//121 24//24
f 24//24 121//121 25//25
f 121//121 122//122 25//25
f 25//25 122//122 26//26
f 122//122 123//123 26//26
f 26//26 123//123 27//27
f 123//123 124//124 27//27
f 27//27 124//124 28//28
f 124//124 125//125 28//28
f 28//28 125//125 29//29
f 125//125 126//126 29//29
f 29//29 126//126 30//30
f 126//126 127//127 30//30
f 30//30 127//127 31//31
f 127//127 128//128 31//31
f 31//31 128//128 32//32
f 128//128 129//129 32//32
f 32//32 129//129 33//33
f 129//129 130//130 33//33
f 33//33 130//130 34//34
f 130//130 131//131 34//34
f 34//34 131//131 35//35
f 131//131 132//132 35//35
f 35//35 132//132 36//36
f 132//132 133//133 36//36
f 36//36 133//133 37//37
f 133//133 134//134 37//37
f 37//37 134//134 38//38
f 134//134 135//135 38//38
f 38//38 135//135 39//39
f 135//135 136//136 39//39
f 39//39 136//136 40//40
f 136//136 137//137 40//40
f 40//40 137//137 41//41
f 137//137 138//138 41//41
f 41//41 138//138 42//42
f 138//138 139//139 42//42
f 42//42 139//139 43//43
f 139//139 140//140 43//43
f 43//43 140//140 44//44
f 140//140 141//141 44//44
f 44//44 141//141 45//45
f 141//141 142//142 45//45
f 45//45 142//142 46//46
f 142//142 143//143 46//46
f 46//46 143//143 47//47
f 144//144 97//97 48//48
f 48//48 97//97 1//1
f 143//143 144//144 47//47
f 47//47 144//144 48//48
f 145//145 146//146 49//49
f 49//49 146//146 50//50
f 146//146 147//147 50//50
f 50//50 147//147 51//51
f 147//147 148//148 51//51
f 51//51 148//148 52//52
f 148//148 149//149 52//52
f 52//52 149//149 53//53
f 149//149 150//150 53//53
f 53//53 150//150 54//54
f 150//150 151//151 54//54
f 54//54 151//151 55//55
f 151//151 152//152 55//55
f 55//55 152//152 56//56
f 152//152 153//153 56//56
f 56//56 153//153 57//57
f 153//153 154//154 57//57
f 57//57 154//154 58//58
f 154//154 155//155 58//58
f 58//58 155//155 59//59
f 155//155 156//156 59//59
f 59//59 156//156 60//60
f 156//156 157//157 60//60
f 60//60 157//157 61//61
f 157//157 158//158 61//61
f 61//61 158//158 62//62
f 158//158 159//159 62//62
f 62//62 159//159 63//63
f 159//159 160//160 63//63
f 63//63 160//160 64//64
f 160//160 161//161 64//64
f 64//64 161//161 65//65
f 161//161 162//162 65//65
f 65//65 162//162 66//66
f 162//162 163//163 66//66
f 66//66 163//163 67//67
f 163//163 164//164 67//67
f 67//67 164//164 68//68
f 164//164 165//165 68//68
f 68//68 165//165 69//69
f 165//165 166//166 69//69
f 69//69 166//166 70//70
f 166//166 167//167 70//70
f 70//70 167//167 71//71
f 167//167 168//168 71//71
f 71//71 168//168 72//72
f 168//168 169//169 72//72
f 72//72 169//169 73//73
f 169//169 170//170 73//73
f 73//73 170//170 74//74
f 170//170 171//171 74//74
f 74//74 171//171 75//75
f 171//171 172//172 75//75
f 75//75 172//172 76//76
f 172//172 173//173 76//76
f 76//76 173//173 77//77
f 173//173 174//174 77//77
f 77//77 174//174 78//78
f 174//174 175//175 78//78
f 78//78 175//175 79//79
f 175//175 176//176 79//79
f 79//79 176//176 80//80
f 176//176 177//177 80//80
f 80//80 177//177 81//81
f 177//177 178//178 81//81
f 81//81 178//178 82//82
f 178//178 179//179 82//82
f 82//82 179//179 83//83
f 179//179 180//180 83//83
f 83//83 180//180 84//84
f 180//180 181//181 84//84
f 84//84 181//181 85//85
f 181//181 182//182 85//85
f 85//85 182//182 86//86
f 182//182 183//183 86//86
f 86//86 183//183 87//87
f 183//183 184//184 87//87
f 87//87 184//184 88//88
f 184//184 185//185 88//88
f 88//88 185//185 89//89
f 185//185 186//186 89//89
f 89//89 186//186 90//90
f 186//186 187//187 90//90
f 90//90 187//187 91//91
f 187//187 188//188 91//91
f 91//91 188//188 92//92
f 188//188 189//189 92//92
f 92//92 189//189 93//93
f 189//189 190//190 93//93
f 93//93 190//190 94//94
f 190//190 191//191 94//94
f 94//94 191//191 95//95
f 192//192 145//145 96//96
f 96//96 145//145 49//49
f 191//191 192//192 95//95
f 95//95 192//192 96//96
o Grass
g Grass
usemtl PinkWhite
v 3.76749 -0.00000 0.49600
v 3.67052 -0.00000 0.98351
v 3.51074 -0.00000 1.45420
v 3.29090 -0.00000 1.90000
v 3.01474 -0.00000 2.31329
v 2.68701 -0.00000 2.68701
v 2.31329 -0.00000 3.01474
v 1.90000 -0.00000 3.29090
v 1.45420 -0.00000 3.51074
v 0.98351 -0.00000 3.67052
v 0.49600 -0.00000 3.76749
v 0.00000 -0.00000 3.80000
v -0.49600 -0.00000 3.76749
v -0.98351 -0.00000 3.67052
v -1.45420 -0.00000 3.51074
v -1.90000 -0.00000 3.29090
v -2.31329 -0.00000 3.01474
v -2.68701 -0.00000 2.68701
v -3.01474 -0.00000 2.31329
v -3.29090 -0.00000 1.90000
v -3.51074 -0.00000 1.45420
v -3.67052 -0.00000 0.98351
v -3.76749 -0.00000 0.49600
v -3.80000 0.00000 0.00000
v -3.76749 0.00000 -0.49600
v -3.67052 0.00000 -0.98351
v -3.51074 0.00000 -1.45420
v -3.29090 0.00000 -1.90000
v -3.01474 0.00000 -2.31329
v -2.68701 0.00000 -2.68701
v -2.31329 0.00000 -3.01474
v -1.90000 0.00000 -3.29090
v -1.45420 0.00000 -3.51074
v -0.98351 0.00000 -3.67052
v -0.49600 0.00000 -3.76749
v 0.00000 0.00000 -3.80000
v 0.49600 0.00000 -3.76749
v 0.98351 0.00000 -3.67052
v 1.45420 0.00000 -3.51074
v 1.90000 0.00000 -3.29090
v 2.31329 0.00000 -3.01474
v 2.68701 0.00000 -2.68701
v 3.01474 0.00000 -2.31329
v 3.29090 0.00000 -1.90000
v 3.51074 0.00000 -1.45420
v 3.67052 0.00000 -0.98351
v 3.76749 0.00000 -0.49600
v 3.80000 0.00000 0.00000
v 3.76749 0.65000 0.49600
v 3.67052 0.65000 0.98351
v 3.51074 0.65000 1.45420
v 3.29090 0.65000 1.90000
v 3.01474 0.65000 2.31329
v 2.68701 0.65000 2.68701
v 2.31329 0.65000 3.01474
v 1.90000 0.65000 3.29090
v 1.45420 0.65000 3.51074
v 0.98351 0.65000 3.67052
v 0.49600 0.65000 3.76749
v 0.00000 0.65000 3.80000
v -0.49600 0.65000 3.76749
v -0.98351 0.65000 3.67052
v -1.45420 0.65000 3.51074
v -1.90000 0.65000 3.29090
v -2.31329 0.65000 3.01474
v -2.68701 0.65000 2.68701
v -3.01474 0.65000 2.31329
v -3.29090 0.65000 1.90000
v -3.51074 0.65000 1.45420
v -3.67052 0.65000 0.98351
v -3.76749 0.65000 0.49600
v -3.80000 0.65000 0.00000
v -3.76749 0.65000 -0.49600
v -3.67052 0.65000 -0.98351
v -3.51074 0.65000 -1.45420
v -3.29090 0.65000 -1.90000
v -3.01474 0.65000 -2.31329
v -2.68701 0.65000 -2.68701
v -2.31329 0.65000 -3.01474
v -1.90000 0.65000 -3.29090
v -1.45420 0.65000 -3.51074
v -0.98351 0.65000 -3.67052
v -0.49600 0.65000 -3.76749
v 0.00000 0.65000 -3.80000
v 0.49600 0.65000 -3.76749
v 0.98351 0.65000 -3.67052
v 1.45420 0.65000 -3.51074
v 1.90000 0.65000 -3.29090
v 2.31329 0.65000 -3.01474
v 2.68701 0.65000 -2.68701
v 3.01474 0.65000 -2.31329
v 3.29090 0.65000 -1.90000
v 3.51074 0.65000 -1.45420
v 3.67052 0.65000 -0.98351
v 3.76749 0.65000 -0.49600
v 3.80000 0.65000 0.00000
vn 0.7151 -0.6927 0.0941
vn 0.6967 -0.6927 0.1867
vn 0.6663 -0.6927 0.2760
vn 0.6246 -0.6927 0.3606
vn 0.5722 -0.6927 0.4391
vn 0.5100 -0.6927 0.5100
vn 0.4391 -0.6927 0.5722
vn 0.3606 -0.6927 0.6246
vn 0.2760 -0.6927 0.6663
vn 0.1867 -0.6927 0.6967
vn 0.0941 -0.6927 0.7151
vn 0.0000 -0.6927 0.7212
vn -0.0941 -0.6927 0.7151
vn -0.1867 -0.6927 0.6967
vn -0.2760 -0.6927 0.6663
vn -0.3606 -0.6927 0.6246
vn -0.4391 -0.6927 0.5722
vn -0.5100 -0.6927 0.5100
vn -0.5722 -0.6927 0.4391
vn -0.6246 -0.6927 0.3606
vn -0.6663 -0.6927 0.2760
vn -0.6967 -0.6927 0.1867
vn -0.7151 -0.6927 0.0941
vn -0.7212 -0.6927 0.0000
vn -0.7151 -0.6927 -0.0941
vn -0.6967 -0.6927 -0.1867
vn -0.6663 -0.6927 -0.2760
vn -0.6246 -0.6927 -0.3606
vn -0.5722 -0.6927 -0.4391
vn -0.5100 -0.6927 -0.5100
vn -0.4391 -0.6927 -0.5722
vn -0.3606 -0.6927 -0.6246
vn -0.2760 -0.6927 -0.6663
vn -0.1867 -0.6927 -0.6967
vn -0.0941 -0.6927 -0.7151
vn -0.0000 -0.6927 -0.7212
vn 0.0941 -0.6927 -0.7151
vn 0.1867 -0.6927 -0.6967
vn 0.2760 -0.6927 -0.6663
vn 0.3606 -0.6927 -0.6246
vn 0.4391 -0.6927 -0.5722
vn 0.5100 -0.6927 -0.5100
vn 0.5722 -0.6927 -0.4391
vn 0.6246 -0.6927 -0.3606
vn 0.6663 -0.6927 -0.2760
vn 0.6967 -0.6927 -0.1867
vn 0.7151 -0.6927 -0.0941
vn 0.7212 -0.6927 -0.0000
vn 0.7151 0.6927 0.0941
vn 0.6967 0.6927 0.1867
vn 0.6663 0.6927 0.2760
vn 0.6246 0.6927 0.3606
vn 0.5722 0.6927 0.4391
vn 0.5100 0.6927 0.5100
vn 0.4391 0.6927 0.5722
vn 0.3606 0.6927 0.6246
vn 0.2760 0.6927 0.6663
vn 0.1867 0.6927 0.6967
vn 0.0941 0.6927 0.7151
vn 0.0000 0.6927 0.7212
vn -0.0941 0.6927 0.7151
vn -0.1867 0.6927 0.6967
vn -0.2760 0.6927 0.6663
vn -0.3606 0.6927 0.6246
vn -0.4391 0.6927 0.5722
vn -0.5100 0.6927 0.5100
vn -0.5722 0.6927 0.4391
vn -0.6246 0.6927 0.3606
vn -0.6663 0.6927 0.2760
vn -0.6967 0.6927 0.1867
vn -0.7151 0.6927 0.0941
vn -0.7212 0.6927 0.0000
vn -0.7151 0.6927 -0.0941
vn -0.6967 0.6927 -0.1867
vn -0.6663 0.6927 -0.2760
vn -0.6246 0.6927 -0.3606
vn -0.5722 0.6927 -0.4391
vn -0.5100 0.6927 -0.5100
vn -0.4391 0.6927 -0.5722
vn -0.3606 0.6927 -0.6246
vn -0.2760 0.6927 -0.6663
vn -0.1867 0.6927 -0.6967
vn -0.0941 0.6927 -0.7151
vn -0.0000 0.6927 -0.7212
vn 0.0941 0.6927 -0.7151
vn 0.1867 0.6927 -0.6967
vn 0.2760 0.6927 -0.6663
vn 0.3606 0.6927 -0.6246
vn 0.4391 0.6927 -0.5722
vn 0.5100 0.6927 -0.5100
vn 0.5722 0.6927 -0.4391
vn 0.6246 0.6927 -0.3606
vn 0.6663 0.6927 -0.2760
vn 0.6967 0.6927 -0.1867
vn 0.7151 0.6927 -0.0941
vn 0.7212 0.6927 -0.0000
f 239//239 240//240 193//193
f 237//237 238//238 239//239
f 235//235 236//236 237//237
f 233//233 234//234 235//235
f 231//231 232//232 233//233
f 229//229 230//230 231//231
f 227//227 228//228 229//229
f 225//225 226//226 227//227
f 223//223 224//224 225//225
f 221//221 222//222 223//223
f 219//219 220//220 221//221
f 217//217 218//218 219//219
f 215//215 216//216 217//217
f 213//213 214//214 215//215
f 211//211 212//212 213//213
f 209//209 210//210 211//211
f 207//207 208//208 209//209
f 205//205 206//206 207//207
f 203//203 204//204 205//205
f 201//201 202//202 203//203
f 199//199 200//200 201//201
f 197//197 198//198 199//199
f 195//195 196//196 197//197
f 193//193 194//194 195//195
f 237//237 239//239 193//193
f 233//233 235//235 237//237
f 229//229 231//231 233//233
f 225//225 227//227 229//229
f 221//221 223//223 225//225
f 217//217 219//219 221//221
f 213//213 215//215 217//217
f 209//209 211//211 213//213
f 205//205 207//207 209//209
f 201//201 203//203 205//205
f 197//197 199//199 201//201
f 193//193 195//195 197//197
f 233//233 237//237 193//193
f 225//225 229//229 233//233
f 217//217 221//221 225//225
f 209//209 213//213 217//217
f 201//201 205//205 209//209
f 193//193 197//197 201//201
f 225//225 233//233 193//193
f 209//209 217//217 225//225
f 193//193 201//201 209//209
f 209//209 225//225 193//193
f 241//241 288//288 287//287
f 287//287 286//286 285//285
f 285//285 284//284 283//283
f 283//283 282//282 281//281
f 281//281 280//280 279//279
f 279//279 278//278 277//277
f 277//277 276//276 275//275
f 275//275 274//274 273//273
f 273//273 272//272 271//271
f 271//271 270//270 269//269
f 269//269 268//268 267//267
f 267//267 266//266 265//265
f 265//265 264//264 263//263
f 263//263 262//262 261//261
f 261//261 260//260 259//259
f 259//259 258//258 257//257
f 257//257 256//256 255//255
f 255//255 254//254 253//253
f 253//253 252//252 251//251
f 251//251 250//250 249//249
f 249//249 248//248 247//247
f 247//247 246//246 245//245
f 245//245 244//244 243//243
f 243//243 242//242 241//241
f 241//241 287//287 285//285
f 285//285 283//283 281//281
f 281//281 279//279 277//277
f 277//277 275//275 273//273
f 273//273 271//271 269//269
f 269//269 267//267 265//265
f 265//265 263//263 261//261
f 261//261 259//259 257//257
f 257//257 255//255 253//253
f 253//253 251//251 249//249
f 249//249 247//247 245//245
f 245//245 243//243 241//241
f 241//241 285//285 281//281
f 281//281 277//277 273//273
f 273//273 269//269 265//265
f 265//265 261//261 257//257
f 257//257 253//253 249//249
f 249//249 245//245 241//241
f 241//241 281//281 273//273
f 273//273 265//265 257//257
f 257//257 249//249 241//241
f 241//241 273//273 257//257
f 241//241 242//242 193//193
f 193//193 242//242 194//194
f 242//242 243//243 194//194
f 194//194 243//243 195//195
f 243//243 244//244 195//195
f 195//195 244//244 196//196
f 244//244 245//245 196//196
f 196//196 245//245 197//197
f 245//245 246//246 197//197
f 197//197 246//246 198//198
f 246//246 247//247 198//198
f 198//198 247//247 199//199
f 247//247 248//248 199//199
f 199//199 248//248 200//200
f 248//248 249//249 200//200
f 200//200 249//249 201//201
f 249//249 250//250 201//201
f 201//201 250//250 202//202
f 250//250 251//251 202//202
f 202//202 251//251 203//203
f 251//251 252//252 203//203
f 203//203 252//252 204//204
f 252//252 253//253 204//204
f 204//204 253//253 205//205
f 253//253 254//254 205//205
f 205//205 254//254 206//206
f 254//254 255//255 206//206
f 206//206 255//255 207//207
f 255//255 256//256 207//207
f 207//207 256//256 208//208
f 256//256 257//257 208//208
f 208//208 257//257 209//209
f 257//257 258//258 209//209
f 209//209 258//258 210//210
f 258//258 259//259 210//210
f 210//210 259//259 211//211
f 259//259 260//260 211//211
f 211//211 260//260 212//212
f 260//260 261//261 212//212
f 212//212 261//261 213//213
f 261//261 262//262 213//213
f 213//213 262//262 214//214
f 262//262 263//263 214//214
f 214//214 263//263 215//215
f 263//263 264//264 215//215
f 215//215 264//264 216//216
f 264//264 265//265 216//216
f 216//216 265//265 217//217
f 265//265 266//266 217//217
f 217//217 266//266 218//218
f 266//266 267//267 218//218
f 218//218 267//267 219//219
f 267//267 268//268 219//219
f 219//219 268//268 220//220
f 268//268 269//269 220//220
f 220//220 269//269 221//221
f 269//269 270//270 221//221
f 221//221 270//270 222//222
f 270//270 271//271 222//222
f 222//222 271//271 223//223
f 271//271 272//272 223//223
f 223//223 272//272 224//224
f 272//272 273//273 224//224
f 224//224 273//273 225//225
f 273//273 274//274 225//225
f 225//225 274//274 226//226
f 274//274 275//275 226//226
f 226//226 275//275 227//227
f 275//275 276//276 227//227
f 227//227 276//276 228//228
f 276//276 277//277 228//228
f 228//228 277//277 229//229
f 277//277 278//278 229//229
f 229//229 278//278 230//230
f 278//278 279//279 230//230
f 230//230 279//279 231//231
f 279//279 280//280 231//231
f 231//231 280//280 232//232
f 280//280 281//281 232//232
f 232//232 281//281 233//233
f 281//281 282//282 233//233
f 233//233 282//282 234//234
f 282//282 283//283 234//234
f 234//234 283//283 235//235
f 283//283 284//284 235//235
f 235//235 284//284 236//236
f 284//284 285//285 236//236
f 236//236 285//285 237//237
f 285//285 286//286 237//237
f 237//237 286//286 238//238
f 286//286 287//287 238//238
f 238//238 287//287 239//239
f 288//288 241//241 240//240
f 240//240 241//241 193//193
f 287//287 288//288 239//239
f 239//239 288//288 240//240
