mtllib props.mtl


g rock-small

v -3.0965 0.4389 -0.5664
v -2.3906 1.4537 -1.2991
v -2.0848 1.4537 -0.3097
v -2.5335 0.0000 -3.3211
v -2.0571 1.4537 -2.4786
v -3.3292 0.0000 -0.5064
v -1.2960 0.0000 -3.3211
v -1.3978 1.4537 -2.4786
v -1.8959 1.4537 -0.9454
v -1.3114 1.4537 0.3361
v -1.1105 1.4537 -0.3747
v -1.8452 0.0000 0.7329
v -0.7884 7.2108 -2.2574
v -0.9380 2.4496 -3.5307
v 0.1687 7.2108 -2.9527
v 1.8345 7.2108 -1.5377
v 2.5690 2.5445 -0.9766
v 0.8714 7.2108 -0.3097
v 1.9436 0.0000 -3.8281
v 2.8938 0.0000 -0.9037
v 1.3748 7.2108 -2.9527
v -1.1313 0.0000 -3.8281
v -1.2960 0.0000 -3.3211
v -1.8959 1.4537 -0.9454
v -1.1611 7.2108 -1.1103
v 2.6751 0.0000 -0.7448
v 1.8142 3.1998 -0.5077
v 0.4062 3.1998 0.5152
v 0.4062 7.2108 0.0283
v -0.6407 3.1998 -0.2453
v -1.1105 1.4537 -0.3747
v -1.6765 1.2948 1.4644
v -0.9380 3.1998 0.8065
v -0.2283 3.1998 2.0222
v 2.3282 3.1998 1.3106
v 0.6238 3.1998 2.7339
v 1.8142 3.1998 -0.5077
v 0.4062 3.1998 0.5152
v -0.6407 3.1998 -0.2453
v 0.6238 0.0000 3.8281
v -2.0815 0.0000 1.5689
v 3.3292 0.0000 1.5689
v 2.6751 0.0000 -0.7448
v -1.1105 1.4537 -0.3747
v -1.3114 1.4537 0.3361
v -1.8452 0.0000 0.7329
v 2.8938 0.0000 -0.9037
v -2.5335 0.0000 -3.3211
v -2.5038 0.0000 1.4403
v -2.5038 0.0000 0.7334
v -3.1161 0.0000 1.7938
v -3.1161 0.0000 0.3799
v -3.7283 0.0000 1.4403
v -3.7283 0.0000 0.7334
v -2.7365 0.7069 0.8677
v -2.7365 0.7069 1.3060
v -3.1161 0.7069 0.6486
v -3.1161 0.7069 1.5252
v -3.4957 0.7069 0.8677
v -3.4957 0.7069 1.3060
v 1.3843 3.1998 0.8650
v 1.3843 3.1998 0.1580
v 0.7721 3.1998 1.2185
v 0.7721 3.1998 -0.1954
v 0.1599 3.1998 0.8650
v 0.1599 3.1998 0.1580
v 1.1517 3.9067 0.2924
v 1.1517 3.9067 0.7307
v 0.7721 3.9067 0.0732
v 0.7721 3.9067 0.9498
v 0.3925 3.9067 0.2924
v 0.3925 3.9067 0.7307
v -0.7459 -0.0000 -4.4874
v -0.7459 -0.0000 -5.1944
v -1.3581 -0.0000 -4.1339
v -1.3581 -0.0000 -5.5478
v -1.9703 -0.0000 -4.4874
v -1.9703 -0.0000 -5.1944
v -0.9785 0.7069 -5.0600
v -0.9785 0.7069 -4.6217
v -1.3581 0.7069 -5.2792
v -1.3581 0.7069 -4.4026
v -1.7377 0.7069 -5.0600
v -1.7377 0.7069 -4.6217

vn -0.7180132 0.6597039 0.2219188
vn -0.8698902 0.4275792 -0.2459007
vn 0 0.5014654 -0.8651778
vn 0 1 0
vn -0.5856468 0.406471 0.7012841
vn -0.5722171 0.2286281 -0.7875893
vn 0.7718507 0.194281 0.6053935
vn 0.6058505 0.1077548 0.7882474
vn 0.6651753 0.1370916 0.7339944
vn 0.9450901 0.1118372 -0.3070784
vn 0 0.1205144 -0.9927117
vn -0.9450901 0.1118372 -0.3070784
vn 0.5849708 0.09774375 0.8051431
vn -0.5849708 0.09774375 0.8051431
vn -0.7696949 0.4535042 0.4493369
vn -0.6199859 0.2538795 0.7424034
vn 0.6199859 0.2538795 0.7424034
vn 0.9268758 0.2687978 -0.2620094
vn -0.9268758 0.2687978 -0.2620094
vn 0 -1 0
vn 0.8095464 0.3552178 -0.4673918
vn 0.8095464 0.3552178 0.4673918
vn 0 0.3552178 -0.9347836
vn 0 0.3552178 0.9347836
vn -0.8095464 0.3552178 0.4673918
vn -0.8095464 0.3552178 -0.4673918

vt 0.21875 0.366103
vt 0.21875 0.3826804
vt 0.21875 0.3589336
vt 0.21875 0.4710369
vt 0.21875 0.4224055
vt 0.21875 0.4233752
vt 0.21875 0.397385
vt 0.21875 0.4122329
vt 0.21875 0.430068
vt 0.21875 0.3394707
vt 0.21875 0.4271742
vt 0.21875 0.2798622
vt 0.21875 0.346786
vt 0.21875 0.3090797
vt 0.21875 0.325
vt 0.21875 0.425

usemtl colormap

f 3/2/1 2/2/1 1/1/1
f 6/3/2 5/2/2 4/3/2
f 5/2/2 6/3/2 2/2/2
f 2/2/2 6/3/2 1/1/2
f 5/2/3 7/3/3 4/3/3
f 7/3/3 5/2/3 8/2/3
f 5/2/4 9/2/4 8/2/4
f 3/2/4 9/2/4 5/2/4
f 3/2/4 5/2/4 2/2/4
f 10/2/4 9/2/4 3/2/4
f 9/2/4 10/2/4 11/2/4
f 10/2/5 6/3/5 12/3/5
f 6/3/5 10/2/5 1/1/5
f 1/1/5 10/2/5 3/2/5
f 15/4/6 14/5/6 13/4/6
f 18/4/9 17/6/8 16/4/7
f 21/4/10 20/7/10 19/7/10
f 20/7/10 21/4/10 16/4/10
f 20/7/10 16/4/10 17/6/10
f 14/5/11 19/7/11 22/7/11
f 19/7/11 14/5/11 21/4/11
f 21/4/11 14/5/11 15/4/11
f 23/7/12 14/5/12 22/7/12
f 14/5/12 23/7/12 13/4/12
f 13/4/12 23/7/12 8/8/12
f 13/4/12 8/8/12 24/8/12
f 13/4/12 24/8/12 25/4/12
f 17/6/8 26/7/13 20/7/13
f 26/7/13 17/6/8 27/9/13
f 27/9/13 17/6/8 18/4/9
f 27/9/13 18/4/9 28/9/13
f 28/9/13 18/4/9 29/4/13
f 21/4/4 18/4/4 16/4/4
f 18/4/4 21/4/4 15/4/4
f 18/4/4 15/4/4 29/4/4
f 29/4/4 15/4/4 25/4/4
f 25/4/4 15/4/4 13/4/4
f 29/4/14 30/9/14 28/9/14
f 25/4/14 30/9/14 29/4/14
f 25/4/14 31/8/14 30/9/14
f 31/8/14 25/4/14 24/8/14
f 34/11/15 33/11/15 32/10/15
f 37/11/4 36/11/4 35/11/4
f 36/11/4 37/11/4 38/11/4
f 36/11/4 38/11/4 34/11/4
f 34/11/4 38/11/4 39/11/4
f 34/11/4 39/11/4 33/11/4
f 36/11/16 41/12/16 40/12/16
f 41/12/16 36/11/16 32/10/16
f 32/10/16 36/11/16 34/11/16
f 35/11/17 40/12/17 42/12/17
f 40/12/17 35/11/17 36/11/17
f 37/11/18 42/12/18 43/12/18
f 42/12/18 37/11/18 35/11/18
f 45/13/19 39/11/19 44/13/19
f 39/11/19 45/13/19 33/11/19
f 33/11/19 45/13/19 46/12/19
f 33/11/19 46/12/19 41/12/19
f 33/11/19 41/12/19 32/10/19
f 19/14/20 47/14/20 43/14/20
f 43/14/20 40/14/20 19/14/20
f 40/14/20 43/14/20 42/14/20
f 19/14/20 40/14/20 22/14/20
f 22/14/20 40/14/20 46/14/20
f 46/14/20 40/14/20 41/14/20
f 22/14/20 46/14/20 7/14/20
f 46/14/20 48/14/20 7/14/20
f 48/14/20 46/14/20 6/14/20
f 51/15/20 50/15/20 49/15/20
f 50/15/20 51/15/20 52/15/20
f 52/15/20 51/15/20 53/15/20
f 52/15/20 53/15/20 54/15/20
f 57/16/4 56/16/4 55/16/4
f 56/16/4 57/16/4 58/16/4
f 58/16/4 57/16/4 59/16/4
f 58/16/4 59/16/4 60/16/4
f 55/16/21 49/15/22 50/15/21
f 49/15/22 55/16/21 56/16/22
f 57/16/23 50/15/21 52/15/23
f 50/15/21 57/16/23 55/16/21
f 58/16/24 53/15/25 51/15/24
f 53/15/25 58/16/24 60/16/25
f 53/15/25 59/16/26 54/15/26
f 59/16/26 53/15/25 60/16/25
f 56/16/22 51/15/24 49/15/22
f 51/15/24 56/16/22 58/16/24
f 59/16/26 52/15/23 54/15/26
f 52/15/23 59/16/26 57/16/23
f 63/15/20 62/15/20 61/15/20
f 62/15/20 63/15/20 64/15/20
f 64/15/20 63/15/20 65/15/20
f 64/15/20 65/15/20 66/15/20
f 69/16/4 68/16/4 67/16/4
f 68/16/4 69/16/4 70/16/4
f 70/16/4 69/16/4 71/16/4
f 70/16/4 71/16/4 72/16/4
f 67/16/21 61/15/22 62/15/21
f 61/15/22 67/16/21 68/16/22
f 69/16/23 62/15/21 64/15/23
f 62/15/21 69/16/23 67/16/21
f 70/16/24 65/15/25 63/15/24
f 65/15/25 70/16/24 72/16/25
f 65/15/25 71/16/26 66/15/26
f 71/16/26 65/15/25 72/16/25
f 68/16/22 63/15/24 61/15/22
f 63/15/24 68/16/22 70/16/24
f 71/16/26 64/15/23 66/15/26
f 64/15/23 71/16/26 69/16/23
f 75/15/20 74/15/20 73/15/20
f 74/15/20 75/15/20 76/15/20
f 76/15/20 75/15/20 77/15/20
f 76/15/20 77/15/20 78/15/20
f 81/16/4 80/16/4 79/16/4
f 80/16/4 81/16/4 82/16/4
f 82/16/4 81/16/4 83/16/4
f 82/16/4 83/16/4 84/16/4
f 79/16/21 73/15/22 74/15/21
f 73/15/22 79/16/21 80/16/22
f 81/16/23 74/15/21 76/15/23
f 74/15/21 81/16/23 79/16/21
f 82/16/24 77/15/25 75/15/24
f 77/15/25 82/16/24 84/16/25
f 77/15/25 83/16/26 78/15/26
f 83/16/26 77/15/25 84/16/25
f 80/16/22 75/15/24 73/15/22
f 75/15/24 80/16/22 82/16/24
f 83/16/26 76/15/23 78/15/26
f 76/15/23 83/16/26 81/16/23

g rock-small




usemtl colormap

f 3/2/1 2/2/1 1/1/1
f 6/3/2 5/2/2 4/3/2
f 5/2/2 6/3/2 2/2/2
f 2/2/2 6/3/2 1/1/2
f 5/2/3 7/3/3 4/3/3
f 7/3/3 5/2/3 8/2/3
f 5/2/4 9/2/4 8/2/4
f 3/2/4 9/2/4 5/2/4
f 3/2/4 5/2/4 2/2/4
f 10/2/4 9/2/4 3/2/4
f 9/2/4 10/2/4 11/2/4
f 10/2/5 6/3/5 12/3/5
f 6/3/5 10/2/5 1/1/5
f 1/1/5 10/2/5 3/2/5
f 15/4/6 14/5/6 13/4/6
f 18/4/9 17/6/8 16/4/7
f 21/4/10 20/7/10 19/7/10
f 20/7/10 21/4/10 16/4/10
f 20/7/10 16/4/10 17/6/10
f 14/5/11 19/7/11 22/7/11
f 19/7/11 14/5/11 21/4/11
f 21/4/11 14/5/11 15/4/11
f 23/7/12 14/5/12 22/7/12
f 14/5/12 23/7/12 13/4/12
f 13/4/12 23/7/12 8/8/12
f 13/4/12 8/8/12 24/8/12
f 13/4/12 24/8/12 25/4/12
f 17/6/8 26/7/13 20/7/13
f 26/7/13 17/6/8 27/9/13
f 27/9/13 17/6/8 18/4/9
f 27/9/13 18/4/9 28/9/13
f 28/9/13 18/4/9 29/4/13
f 21/4/4 18/4/4 16/4/4
f 18/4/4 21/4/4 15/4/4
f 18/4/4 15/4/4 29/4/4
f 29/4/4 15/4/4 25/4/4
f 25/4/4 15/4/4 13/4/4
f 29/4/14 30/9/14 28/9/14
f 25/4/14 30/9/14 29/4/14
f 25/4/14 31/8/14 30/9/14
f 31/8/14 25/4/14 24/8/14
f 34/11/15 33/11/15 32/10/15
f 37/11/4 36/11/4 35/11/4
f 36/11/4 37/11/4 38/11/4
f 36/11/4 38/11/4 34/11/4
f 34/11/4 38/11/4 39/11/4
f 34/11/4 39/11/4 33/11/4
f 36/11/16 41/12/16 40/12/16
f 41/12/16 36/11/16 32/10/16
f 32/10/16 36/11/16 34/11/16
f 35/11/17 40/12/17 42/12/17
f 40/12/17 35/11/17 36/11/17
f 37/11/18 42/12/18 43/12/18
f 42/12/18 37/11/18 35/11/18
f 45/13/19 39/11/19 44/13/19
f 39/11/19 45/13/19 33/11/19
f 33/11/19 45/13/19 46/12/19
f 33/11/19 46/12/19 41/12/19
f 33/11/19 41/12/19 32/10/19
f 19/14/20 47/14/20 43/14/20
f 43/14/20 40/14/20 19/14/20
f 40/14/20 43/14/20 42/14/20
f 19/14/20 40/14/20 22/14/20
f 22/14/20 40/14/20 46/14/20
f 46/14/20 40/14/20 41/14/20
f 22/14/20 46/14/20 7/14/20
f 46/14/20 48/14/20 7/14/20
f 48/14/20 46/14/20 6/14/20
f 51/15/20 50/15/20 49/15/20
f 50/15/20 51/15/20 52/15/20
f 52/15/20 51/15/20 53/15/20
f 52/15/20 53/15/20 54/15/20
f 57/16/4 56/16/4 55/16/4
f 56/16/4 57/16/4 58/16/4
f 58/16/4 57/16/4 59/16/4
f 58/16/4 59/16/4 60/16/4
f 55/16/21 49/15/22 50/15/21
f 49/15/22 55/16/21 56/16/22
f 57/16/23 50/15/21 52/15/23
f 50/15/21 57/16/23 55/16/21
f 58/16/24 53/15/25 51/15/24
f 53/15/25 58/16/24 60/16/25
f 53/15/25 59/16/26 54/15/26
f 59/16/26 53/15/25 60/16/25
f 56/16/22 51/15/24 49/15/22
f 51/15/24 56/16/22 58/16/24
f 59/16/26 52/15/23 54/15/26
f 52/15/23 59/16/26 57/16/23
f 63/15/20 62/15/20 61/15/20
f 62/15/20 63/15/20 64/15/20
f 64/15/20 63/15/20 65/15/20
f 64/15/20 65/15/20 66/15/20
f 69/16/4 68/16/4 67/16/4
f 68/16/4 69/16/4 70/16/4
f 70/16/4 69/16/4 71/16/4
f 70/16/4 71/16/4 72/16/4
f 67/16/21 61/15/22 62/15/21
f 61/15/22 67/16/21 68/16/22
f 69/16/23 62/15/21 64/15/23
f 62/15/21 69/16/23 67/16/21
f 70/16/24 65/15/25 63/15/24
f 65/15/25 70/16/24 72/16/25
f 65/15/25 71/16/26 66/15/26
f 71/16/26 65/15/25 72/16/25
f 68/16/22 63/15/24 61/15/22
f 63/15/24 68/16/22 70/16/24
f 71/16/26 64/15/23 66/15/26
f 64/15/23 71/16/26 69/16/23
f 75/15/20 74/15/20 73/15/20
f 74/15/20 75/15/20 76/15/20
f 76/15/20 75/15/20 77/15/20
f 76/15/20 77/15/20 78/15/20
f 81/16/4 80/16/4 79/16/4
f 80/16/4 81/16/4 82/16/4
f 82/16/4 81/16/4 83/16/4
f 82/16/4 83/16/4 84/16/4
f 79/16/21 73/15/22 74/15/21
f 73/15/22 79/16/21 80/16/22
f 81/16/23 74/15/21 76/15/23
f 74/15/21 81/16/23 79/16/21
f 82/16/24 77/15/25 75/15/24
f 77/15/25 82/16/24 84/16/25
f 77/15/25 83/16/26 78/15/26
f 83/16/26 77/15/25 84/16/25
f 80/16/22 75/15/24 73/15/22
f 75/15/24 80/16/22 82/16/24
f 83/16/26 76/15/23 78/15/26
f 76/15/23 83/16/26 81/16/23

