mtllib trashcan.mtl
o Body
g Body
usemtl PinkWhite
v 1.15000 2.85000 0.00000
v 1.06246 2.85000 -0.44009
v 0.81317 2.85000 -0.81317
v 0.44009 2.85000 -1.06246
v 0.00000 2.85000 -1.15000
v -0.44009 2.85000 -1.06246
v -0.81317 2.85000 -0.81317
v -1.06246 2.85000 -0.44009
v -1.15000 2.85000 -0.00000
v -1.06246 2.85000 0.44009
v -0.81317 2.85000 0.81317
v -0.44009 2.85000 1.06246
v -0.00000 2.85000 1.15000
v 0.44009 2.85000 1.06246
v 0.81317 2.85000 0.81317
v 1.06246 2.85000 0.44009
v 1.15000 0.35000 -0.00000
v 1.06246 0.35000 -0.44009
v 0.81317 0.35000 -0.81317
v 0.44009 0.35000 -1.06246
v 0.00000 0.35000 -1.15000
v -0.44009 0.35000 -1.06246
v -0.81317 0.35000 -0.81317
v -1.06246 0.35000 -0.44009
v -1.15000 0.35000 -0.00000
v -1.06246 0.35000 0.44009
v -0.81317 0.35000 0.81317
v -0.44009 0.35000 1.06246
v -0.00000 0.35000 1.15000
v 0.44009 0.35000 1.06246
v 0.81317 0.35000 0.81317
v 1.06246 0.35000 0.44009
v 0.90000 3.10000 0.00000
v 0.83149 3.10000 -0.34442
v 0.63640 3.10000 -0.63640
v 0.34442 3.10000 -0.83149
v 0.00000 3.10000 -0.90000
v -0.34442 3.10000 -0.83149
v -0.63640 3.10000 -0.63640
v -0.83149 3.10000 -0.34442
v -0.90000 3.10000 -0.00000
v -0.83149 3.10000 0.34442
v -0.63640 3.10000 0.63640
v -0.34442 3.10000 0.83149
v -0.00000 3.10000 0.90000
v 0.34442 3.10000 0.83149
v 0.63640 3.10000 0.63640
v 0.83149 3.10000 0.34442
v 0.90000 0.10000 -0.00000
v 0.83149 0.10000 -0.34442
v 0.63640 0.10000 -0.63640
v 0.34442 0.10000 -0.83149
v 0.00000 0.10000 -0.90000
v -0.34442 0.10000 -0.83149
v -0.63640 0.10000 -0.63640
v -0.83149 0.10000 -0.34442
v -0.90000 0.10000 -0.00000
v -0.83149 0.10000 0.34442
v -0.63640 0.10000 0.63640
v -0.34442 0.10000 0.83149
v -0.00000 0.10000 0.90000
v 0.34442 0.10000 0.83149
v 0.63640 0.10000 0.63640
v 0.83149 0.10000 0.34442
vn 0.9303 0.3668 0.0000
vn 0.8595 0.3668 -0.3560
vn 0.6578 0.3668 -0.6578
vn 0.3560 0.3668 -0.8595
vn 0.0000 0.3668 -0.9303
vn -0.3560 0.3668 -0.8595
vn -0.6578 0.3668 -0.6578
vn -0.8595 0.3668 -0.3560
vn -0.9303 0.3668 -0.0000
vn -0.8595 0.3668 0.3560
vn -0.6578 0.3668 0.6578
vn -0.3560 0.3668 0.8595
vn -0.0000 0.3668 0.9303
vn 0.3560 0.3668 0.8595
vn 0.6578 0.3668 0.6578
vn 0.8595 0.3668 0.3560
vn 0.9303 -0.3668 0.0000
vn 0.8595 -0.3668 -0.3560
vn 0.6578 -0.3668 -0.6578
vn 0.3560 -0.3668 -0.8595
vn 0.0000 -0.3668 -0.9303
vn -0.3560 -0.3668 -0.8595
vn -0.6578 -0.3668 -0.6578
vn -0.8595 -0.3668 -0.3560
vn -0.9303 -0.3668 -0.0000
vn -0.8595 -0.3668 0.3560
vn -0.6578 -0.3668 0.6578
vn -0.3560 -0.3668 0.8595
vn -0.0000 -0.3668 0.9303
vn 0.3560 -0.3668 0.8595
vn 0.6578 -0.3668 0.6578
vn 0.8595 -0.3668 0.3560
vn 0.4220 0.9066 0.0000
vn 0.3899 0.9066 -0.1615
vn 0.2984 0.9066 -0.2984
vn 0.1615 0.9066 -0.3899
vn -0.0000 0.9066 -0.4220
vn -0.1615 0.9066 -0.3899
vn -0.2984 0.9066 -0.2984
vn -0.3899 0.9066 -0.1615
vn -0.4220 0.9066 -0.0000
vn -0.3899 0.9066 0.1615
vn -0.2984 0.9066 0.2984
vn -0.1615 0.9066 0.3899
vn -0.0000 0.9066 0.4220
vn 0.1615 0.9066 0.3899
vn 0.2984 0.9066 0.2984
vn 0.3899 0.9066 0.1615
vn 0.4220 -0.9066 -0.0000
vn 0.3899 -0.9066 -0.1615
vn 0.2984 -0.9066 -0.2984
vn 0.1615 -0.9066 -0.3899
vn 0.0000 -0.9066 -0.4220
vn -0.1615 -0.9066 -0.3899
vn -0.2984 -0.9066 -0.2984
vn -0.3899 -0.9066 -0.1615
vn -0.4220 -0.9066 -0.0000
vn -0.3899 -0.9066 0.1615
vn -0.2984 -0.9066 0.2984
vn -0.1615 -0.9066 0.3899
vn -0.0000 -0.9066 0.4220
vn 0.1615 -0.9066 0.3899
vn 0.2984 -0.9066 0.2984
vn 0.3899 -0.9066 0.1615
f 32//32 17//17 16//16
f 16//16 17//17 1//1
f 1//1 33//33 16//16
f 33//33 48//48 16//16
f 28//28 12//12 11//11
f 28//28 11//11 27//27
f 58//58 26//26 57//57
f 57//57 26//26 25//25
f 47//47 16//16 48//48
f 15//15 16//16 47//47
f 47//47 14//14 15//15
f 46//46 14//14 47//47
f 59//59 26//26 58//58
f 27//27 26//26 59//59
f 59//59 28//28 27//27
f 59//59 60//60 28//28
f 32//32 16//16 31//31
f 31//31 16//16 15//15
f 15//15 14//14 31//31
f 31//31 14//14 30//30
f 12//12 28//28 29//29
f 13//13 12//12 29//29
f 30//30 14//14 29//29
f 29//29 14//14 13//13
f 25//25 26//26 10//10
f 9//9 25//25 10//10
f 27//27 11//11 10//10
f 10//10 26//26 27//27
f 9//9 10//10 41//41
f 41//41 10//10 42//42
f 43//43 10//10 11//11
f 42//42 10//10 43//43
f 11//11 12//12 43//43
f 12//12 44//44 43//43
f 45//45 14//14 46//46
f 13//13 14//14 45//45
f 45//45 12//12 13//13
f 45//45 44//44 12//12
f 24//24 25//25 9//9
f 9//9 8//8 24//24
f 7//7 23//23 24//24
f 24//24 8//8 7//7
f 6//6 38//38 37//37
f 6//6 37//37 5//5
f 22//22 6//6 5//5
f 5//5 21//21 22//22
f 22//22 23//23 7//7
f 7//7 6//6 22//22
f 34//34 33//33 1//1
f 1//1 2//2 34//34
f 34//34 2//2 3//3
f 3//3 35//35 34//34
f 5//5 37//37 36//36
f 36//36 4//4 5//5
f 36//36 35//35 3//3
f 3//3 4//4 36//36
f 1//1 17//17 18//18
f 18//18 2//2 1//1
f 3//3 2//2 18//18
f 18//18 19//19 3//3
f 49//49 50//50 18//18
f 18//18 17//17 49//49
f 40//40 8//8 9//9
f 9//9 41//41 40//40
f 28//28 60//60 61//61
f 61//61 29//29 28//28
f 30//30 29//29 61//61
f 61//61 62//62 30//30
f 64//64 17//17 32//32
f 49//49 17//17 64//64
f 56//56 57//57 25//25
f 25//25 24//24 56//56
f 56//56 24//24 23//23
f 23//23 55//55 56//56
f 54//54 22//22 21//21
f 21//21 53//53 54//54
f 23//23 22//22 54//54
f 54//54 55//55 23//23
f 19//19 18//18 51//51
f 51//51 18//18 50//50
f 20//20 52//52 53//53
f 20//20 53//53 21//21
f 20//20 51//51 52//52
f 19//19 51//51 20//20
f 20//20 21//21 5//5
f 5//5 4//4 20//20
f 20//20 4//4 3//3
f 3//3 19//19 20//20
f 39//39 48//48 33//33
f 42//42 43//43 39//39
f 39//39 47//47 48//48
f 46//46 47//47 39//39
f 37//37 38//38 39//39
f 39//39 45//45 46//46
f 39//39 41//41 42//42
f 33//33 34//34 39//39
f 39//39 36//36 37//37
f 39//39 43//43 44//44
f 44//44 45//45 39//39
f 39//39 34//34 35//35
f 35//35 36//36 39//39
f 39//39 40//40 41//41
f 39//39 6//6 7//7
f 38//38 6//6 39//39
f 7//7 8//8 39//39
f 8//8 40//40 39//39
f 58//58 57//57 63//63
f 63//63 61//61 60//60
f 63//63 50//50 49//49
f 63//63 59//59 58//58
f 60//60 59//59 63//63
f 49//49 64//64 63//63
f 63//63 54//54 53//53
f 57//57 56//56 63//63
f 53//53 52//52 63//63
f 62//62 61//61 63//63
f 63//63 51//51 50//50
f 63//63 56//56 55//55
f 55//55 54//54 63//63
f 52//52 51//51 63//63
f 63//63 31//31 30//30
f 30//30 62//62 63//63
f 32//32 31//31 63//63
f 63//63 64//64 32//32
o Hardware
g Hardware
usemtl PlumDark
v 1.30000 3.30500 0.00000
v 1.20104 3.30500 -0.49749
v 0.91924 3.30500 -0.91924
v 0.49749 3.30500 -1.20104
v 0.00000 3.30500 -1.30000
v -0.49749 3.30500 -1.20104
v -0.91924 3.30500 -0.91924
v -1.20104 3.30500 -0.49749
v -1.30000 3.30500 -0.00000
v -1.20104 3.30500 0.49749
v -0.91924 3.30500 0.91924
v -0.49749 3.30500 1.20104
v -0.00000 3.30500 1.30000
v 0.49749 3.30500 1.20104
v 0.91924 3.30500 0.91924
v 1.20104 3.30500 0.49749
v 1.30000 3.19500 -0.00000
v 1.20104 3.19500 -0.49749
v 0.91924 3.19500 -0.91924
v 0.49749 3.19500 -1.20104
v 0.00000 3.19500 -1.30000
v -0.49749 3.19500 -1.20104
v -0.91924 3.19500 -0.91924
v -1.20104 3.19500 -0.49749
v -1.30000 3.19500 -0.00000
v -1.20104 3.19500 0.49749
v -0.91924 3.19500 0.91924
v -0.49749 3.19500 1.20104
v -0.00000 3.19500 1.30000
v 0.49749 3.19500 1.20104
v 0.91924 3.19500 0.91924
v 1.20104 3.19500 0.49749
v 1.18000 3.42500 0.00000
v 1.09018 3.42500 -0.45157
v 0.83439 3.42500 -0.83439
v 0.45157 3.42500 -1.09018
v 0.00000 3.42500 -1.18000
v -0.45157 3.42500 -1.09018
v -0.83439 3.42500 -0.83439
v -1.09018 3.42500 -0.45157
v -1.18000 3.42500 -0.00000
v -1.09018 3.42500 0.45157
v -0.83439 3.42500 0.83439
v -0.45157 3.42500 1.09018
v -0.00000 3.42500 1.18000
v 0.45157 3.42500 1.09018
v 0.83439 3.42500 0.83439
v 1.09018 3.42500 0.45157
v 1.18000 3.07500 -0.00000
v 1.09018 3.07500 -0.45157
v 0.83439 3.07500 -0.83439
v 0.45157 3.07500 -1.09018
v 0.00000 3.07500 -1.18000
v -0.45157 3.07500 -1.09018
v -0.83439 3.07500 -0.83439
v -1.09018 3.07500 -0.45157
v -1.18000 3.07500 -0.00000
v -1.09018 3.07500 0.45157
v -0.83439 3.07500 0.83439
v -0.45157 3.07500 1.09018
v -0.00000 3.07500 1.18000
v 0.45157 3.07500 1.09018
v 0.83439 3.07500 0.83439
v 1.09018 3.07500 0.45157
v 0.35000 3.73000 0.00000
v 0.28316 3.73000 -0.20572
v 0.10816 3.73000 -0.33287
v -0.10816 3.73000 -0.33287
v -0.28316 3.73000 -0.20572
v -0.35000 3.73000 -0.00000
v -0.28316 3.73000 0.20572
v -0.10816 3.73000 0.33287
v 0.10816 3.73000 0.33287
v 0.28316 3.73000 0.20572
v 0.35000 3.47000 -0.00000
v 0.28316 3.47000 -0.20572
v 0.10816 3.47000 -0.33287
v -0.10816 3.47000 -0.33287
v -0.28316 3.47000 -0.20572
v -0.35000 3.47000 -0.00000
v -0.28316 3.47000 0.20572
v -0.10816 3.47000 0.33287
v 0.10816 3.47000 0.33287
v 0.28316 3.47000 0.20572
v 0.23000 3.85000 0.00000
v 0.18607 3.85000 -0.13519
v 0.07107 3.85000 -0.21874
v -0.07107 3.85000 -0.21874
v -0.18607 3.85000 -0.13519
v -0.23000 3.85000 -0.00000
v -0.18607 3.85000 0.13519
v -0.07107 3.85000 0.21874
v 0.07107 3.85000 0.21874
v 0.18607 3.85000 0.13519
v 0.23000 3.35000 -0.00000
v 0.18607 3.35000 -0.13519
v 0.07107 3.35000 -0.21874
v -0.07107 3.35000 -0.21874
v -0.18607 3.35000 -0.13519
v -0.23000 3.35000 -0.00000
v -0.18607 3.35000 0.13519
v -0.07107 3.35000 0.21874
v 0.07107 3.35000 0.21874
v 0.18607 3.35000 0.13519
v 1.25000 0.25000 0.00000
v 1.15485 0.25000 -0.47835
v 0.88388 0.25000 -0.88388
v 0.47835 0.25000 -1.15485
v 0.00000 0.25000 -1.25000
v -0.47835 0.25000 -1.15485
v -0.88388 0.25000 -0.88388
v -1.15485 0.25000 -0.47835
v -1.25000 0.25000 -0.00000
v -1.15485 0.25000 0.47835
v -0.88388 0.25000 0.88388
v -0.47835 0.25000 1.15485
v -0.00000 0.25000 1.25000
v 0.47835 0.25000 1.15485
v 0.88388 0.25000 0.88388
v 1.15485 0.25000 0.47835
v 1.25000 0.15000 -0.00000
v 1.15485 0.15000 -0.47835
v 0.88388 0.15000 -0.88388
v 0.47835 0.15000 -1.15485
v 0.00000 0.15000 -1.25000
v -0.47835 0.15000 -1.15485
v -0.88388 0.15000 -0.88388
v -1.15485 0.15000 -0.47835
v -1.25000 0.15000 -0.00000
v -1.15485 0.15000 0.47835
v -0.88388 0.15000 0.88388
v -0.47835 0.15000 1.15485
v -0.00000 0.15000 1.25000
v 0.47835 0.15000 1.15485
v 0.88388 0.15000 0.88388
v 1.15485 0.15000 0.47835
v 1.15000 0.35000 0.00000
v 1.06246 0.35000 -0.44009
v 0.81317 0.35000 -0.81317
v 0.44009 0.35000 -1.06246
v 0.00000 0.35000 -1.15000
v -0.44009 0.35000 -1.06246
v -0.81317 0.35000 -0.81317
v -1.06246 0.35000 -0.44009
v -1.15000 0.35000 -0.00000
v -1.06246 0.35000 0.44009
v -0.81317 0.35000 0.81317
v -0.44009 0.35000 1.06246
v -0.00000 0.35000 1.15000
v 0.44009 0.35000 1.06246
v 0.81317 0.35000 0.81317
v 1.06246 0.35000 0.44009
v 1.15000 0.05000 -0.00000
v 1.06246 0.05000 -0.44009
v 0.81317 0.05000 -0.81317
v 0.44009 0.05000 -1.06246
v 0.00000 0.05000 -1.15000
v -0.44009 0.05000 -1.06246
v -0.81317 0.05000 -0.81317
v -1.06246 0.05000 -0.44009
v -1.15000 0.05000 -0.00000
v -1.06246 0.05000 0.44009
v -0.81317 0.05000 0.81317
v -0.44009 0.05000 1.06246
v -0.00000 0.05000 1.15000
v 0.44009 0.05000 1.06246
v 0.81317 0.05000 0.81317
v 1.06246 0.05000 0.44009
vn 0.9303 0.3668 0.0000
vn 0.8595 0.3668 -0.3560
vn 0.6578 0.3668 -0.6578
vn 0.3560 0.3668 -0.8595
vn -0.0000 0.3668 -0.9303
vn -0.3560 0.3668 -0.8595
vn -0.6578 0.3668 -0.6578
vn -0.8595 0.3668 -0.3560
vn -0.9303 0.3668 -0.0000
vn -0.8595 0.3668 0.3560
vn -0.6578 0.3668 0.6578
vn -0.3560 0.3668 0.8595
vn 0.0000 0.3668 0.9303
vn 0.3560 0.3668 0.8595
vn 0.6578 0.3668 0.6578
vn 0.8595 0.3668 0.3560
vn 0.9303 -0.3668 0.0000
vn 0.8595 -0.3668 -0.3560
vn 0.6578 -0.3668 -0.6578
vn 0.3560 -0.3668 -0.8595
vn 0.0000 -0.3668 -0.9303
vn -0.3560 -0.3668 -0.8595
vn -0.6578 -0.3668 -0.6578
vn -0.8595 -0.3668 -0.3560
vn -0.9303 -0.3668 -0.0000
vn -0.8595 -0.3668 0.3560
vn -0.6578 -0.3668 0.6578
vn -0.3560 -0.3668 0.8595
vn -0.0000 -0.3668 0.9303
vn 0.3560 -0.3668 0.8595
vn 0.6578 -0.3668 0.6578
vn 0.8595 -0.3668 0.3560
vn 0.4220 0.9066 0.0000
vn 0.3899 0.9066 -0.1615
vn 0.2984 0.9066 -0.2984
vn 0.1615 0.9066 -0.3899
vn 0.0000 0.9066 -0.4220
vn -0.1615 0.9066 -0.3899
vn -0.2984 0.9066 -0.2984
vn -0.3899 0.9066 -0.1615
vn -0.4220 0.9066 -0.0000
vn -0.3899 0.9066 0.1615
vn -0.2984 0.9066 0.2984
vn -0.1615 0.9066 0.3899
vn -0.0000 0.9066 0.4220
vn 0.1615 0.9066 0.3899
vn 0.2984 0.9066 0.2984
vn 0.3899 0.9066 0.1615
vn 0.4220 -0.9066 -0.0000
vn 0.3899 -0.9066 -0.1615
vn 0.2984 -0.9066 -0.2984
vn 0.1615 -0.9066 -0.3899
vn 0.0000 -0.9066 -0.4220
vn -0.1615 -0.9066 -0.3899
vn -0.2984 -0.9066 -0.2984
vn -0.3899 -0.9066 -0.1615
vn -0.4220 -0.9066 -0.0000
vn -0.3899 -0.9066 0.1615
vn -0.2984 -0.9066 0.2984
vn -0.1615 -0.9066 0.3899
vn -0.0000 -0.9066 0.4220
vn 0.1615 -0.9066 0.3899
vn 0.2984 -0.9066 0.2984
vn 0.3899 -0.9066 0.1615
vn 0.9336 0.3584 0.0000
vn 0.7553 0.3584 -0.5487
vn 0.2885 0.3584 -0.8879
vn -0.2885 0.3584 -0.8879
vn -0.7553 0.3584 -0.5487
vn -0.9336 0.3584 -0.0000
vn -0.7553 0.3584 0.5487
vn -0.2885 0.3584 0.8879
vn 0.2885 0.3584 0.8879
vn 0.7553 0.3584 0.5487
vn 0.9336 -0.3584 -0.0000
vn 0.7553 -0.3584 -0.5487
vn 0.2885 -0.3584 -0.8879
vn -0.2885 -0.3584 -0.8879
vn -0.7553 -0.3584 -0.5487
vn -0.9336 -0.3584 -0.0000
vn -0.7553 -0.3584 0.5487
vn -0.2885 -0.3584 0.8879
vn 0.2885 -0.3584 0.8879
vn 0.7553 -0.3584 0.5487
vn 0.4440 0.8960 0.0000
vn 0.3592 0.8960 -0.2610
vn 0.1372 0.8960 -0.4223
vn -0.1372 0.8960 -0.4223
vn -0.3592 0.8960 -0.2610
vn -0.4440 0.8960 0.0000
vn -0.3592 0.8960 0.2610
vn -0.1372 0.8960 0.4223
vn 0.1372 0.8960 0.4223
vn 0.3592 0.8960 0.2610
vn 0.4440 -0.8960 -0.0000
vn 0.3592 -0.8960 -0.2610
vn 0.1372 -0.8960 -0.4223
vn -0.1372 -0.8960 -0.4223
vn -0.3592 -0.8960 -0.2610
vn -0.4440 -0.8960 -0.0000
vn -0.3592 -0.8960 0.2610
vn -0.1372 -0.8960 0.4223
vn 0.1372 -0.8960 0.4223
vn 0.3592 -0.8960 0.2610
vn 0.9303 0.3668 0.0000
vn 0.8595 0.3668 -0.3560
vn 0.6578 0.3668 -0.6578
vn 0.3560 0.3668 -0.8595
vn 0.0000 0.3668 -0.9303
vn -0.3560 0.3668 -0.8595
vn -0.6578 0.3668 -0.6578
vn -0.8595 0.3668 -0.3560
vn -0.9303 0.3668 -0.0000
vn -0.8595 0.3668 0.3560
vn -0.6578 0.3668 0.6578
vn -0.3560 0.3668 0.8595
vn -0.0000 0.3668 0.9303
vn 0.3560 0.3668 0.8595
vn 0.6578 0.3668 0.6578
vn 0.8595 0.3668 0.3560
vn 0.9303 -0.3668 0.0000
vn 0.8595 -0.3668 -0.3560
vn 0.6578 -0.3668 -0.6578
vn 0.3560 -0.3668 -0.8595
vn 0.0000 -0.3668 -0.9303
vn -0.3560 -0.3668 -0.8595
vn -0.6578 -0.3668 -0.6578
vn -0.8595 -0.3668 -0.3560
vn -0.9303 -0.3668 -0.0000
vn -0.8595 -0.3668 0.3560
vn -0.6578 -0.3668 0.6578
vn -0.3560 -0.3668 0.8595
vn -0.0000 -0.3668 0.9303
vn 0.3560 -0.3668 0.8595
vn 0.6578 -0.3668 0.6578
vn 0.8595 -0.3668 0.3560
vn 0.4220 0.9066 0.0000
vn 0.3899 0.9066 -0.1615
vn 0.2984 0.9066 -0.2984
vn 0.1615 0.9066 -0.3899
vn -0.0000 0.9066 -0.4220
vn -0.1615 0.9066 -0.3899
vn -0.2984 0.9066 -0.2984
vn -0.3899 0.9066 -0.1615
vn -0.4220 0.9066 0.0000
vn -0.3899 0.9066 0.1615
vn -0.2984 0.9066 0.2984
vn -0.1615 0.9066 0.3899
vn -0.0000 0.9066 0.4220
vn 0.1615 0.9066 0.3899
vn 0.2984 0.9066 0.2984
vn 0.3899 0.9066 0.1615
vn 0.4220 -0.9066 -0.0000
vn 0.3899 -0.9066 -0.1615
vn 0.2984 -0.9066 -0.2984
vn 0.1615 -0.9066 -0.3899
vn -0.0000 -0.9066 -0.4220
vn -0.1615 -0.9066 -0.3899
vn -0.2984 -0.9066 -0.2984
vn -0.3899 -0.9066 -0.1615
vn -0.4220 -0.9066 -0.0000
vn -0.3899 -0.9066 0.1615
vn -0.2984 -0.9066 0.2984
vn -0.1615 -0.9066 0.3899
vn -0.0000 -0.9066 0.4220
vn 0.1615 -0.9066 0.3899
vn 0.2984 -0.9066 0.2984
vn 0.3899 -0.9066 0.1615
f 128//128 81//81 96//96
f 113//113 81//81 128//128
f 96//96 81//81 80//80
f 80//80 81//81 65//65
f 122//122 89//89 121//121
f 90//90 89//89 122//122
f 77//77 93//93 94//94
f 94//94 78//78 77//77
f 112//112 80//80 65//65
f 65//65 97//97 112//112
f 74//74 89//89 90//90
f 73//73 89//89 74//74
f 73//73 74//74 105//105
f 105//105 74//74 106//106
f 91//91 122//122 123//123
f 90//90 122//122 91//91
f 91//91 74//74 90//90
f 75//75 74//74 91//91
f 96//96 80//80 79//79
f 95//95 96//96 79//79
f 78//78 94//94 79//79
f 79//79 94//94 95//95
f 77//77 78//78 109//109
f 109//109 78//78 110//110
f 106//106 74//74 107//107
f 107//107 74//74 75//75
f 75//75 91//91 76//76
f 76//76 91//91 92//92
f 108//108 107//107 76//76
f 76//76 107//107 75//75
f 76//76 93//93 77//77
f 76//76 92//92 93//93
f 76//76 109//109 108//108
f 77//77 109//109 76//76
f 124//124 91//91 123//123
f 92//92 91//91 124//124
f 93//93 92//92 124//124
f 124//124 125//125 93//93
f 126//126 94//94 93//93
f 93//93 125//125 126//126
f 78//78 79//79 111//111
f 110//110 78//78 111//111
f 80//80 112//112 111//111
f 111//111 79//79 80//80
f 67//67 83//83 84//84
f 84//84 68//68 67//67
f 65//65 81//81 82//82
f 82//82 66//66 65//65
f 82//82 83//83 67//67
f 67//67 66//66 82//82
f 68//68 84//84 85//85
f 69//69 68//68 85//85
f 69//69 85//85 70//70
f 70//70 85//85 86//86
f 86//86 85//85 118//118
f 118//118 85//85 117//117
f 87//87 86//86 118//118
f 118//118 119//119 87//87
f 121//121 89//89 120//120
f 89//89 88//88 120//120
f 87//87 119//119 120//120
f 120//120 88//88 87//87
f 127//127 128//128 96//96
f 127//127 96//96 95//95
f 95//95 94//94 127//127
f 94//94 126//126 127//127
f 72//72 89//89 73//73
f 72//72 88//88 89//89
f 73//73 105//105 72//72
f 105//105 104//104 72//72
f 98//98 97//97 65//65
f 65//65 66//66 98//98
f 98//98 66//66 67//67
f 67//67 99//99 98//98
f 100//100 68//68 69//69
f 69//69 101//101 100//100
f 67//67 68//68 100//100
f 100//100 99//99 67//67
f 116//116 85//85 84//84
f 117//117 85//85 116//116
f 116//116 84//84 83//83
f 116//116 83//83 115//115
f 113//113 128//128 114//114
f 117//117 116//116 114//114
f 123//123 122//122 114//114
f 114//114 118//118 117//117
f 114//114 122//122 121//121
f 128//128 127//127 114//114
f 114//114 124//124 123//123
f 121//121 120//120 114//114
f 125//125 124//124 114//114
f 114//114 126//126 125//125
f 119//119 118//118 114//114
f 114//114 120//120 119//119
f 114//114 127//127 126//126
f 114//114 116//116 115//115
f 114//114 81//81 113//113
f 114//114 82//82 81//81
f 83//83 82//82 114//114
f 115//115 83//83 114//114
f 69//69 70//70 102//102
f 102//102 101//101 69//69
f 71//71 70//70 86//86
f 71//71 86//86 87//87
f 87//87 88//88 71//71
f 88//88 72//72 71//71
f 103//103 105//105 106//106
f 103//103 112//112 97//97
f 106//106 107//107 103//103
f 103//103 104//104 105//105
f 103//103 109//109 110//110
f 110//110 111//111 103//103
f 108//108 109//109 103//103
f 103//103 107//107 108//108
f 103//103 111//111 112//112
f 103//103 100//100 101//101
f 97//97 98//98 103//103
f 103//103 98//98 99//99
f 99//99 100//100 103//103
f 101//101 102//102 103//103
f 103//103 72//72 104//104
f 103//103 71//71 72//72
f 103//103 102//102 70//70
f 70//70 71//71 103//103
f 129//129 139//139 130//130
f 130//130 139//139 140//140
f 141//141 130//130 140//140
f 131//131 130//130 141//141
f 148//148 138//138 137//137
f 137//137 147//147 148//148
f 129//129 138//138 148//148
f 148//148 139//139 129//129
f 140//140 139//139 160//160
f 160//160 139//139 159//159
f 136//136 135//135 146//146
f 146//146 135//135 145//145
f 137//137 136//136 146//146
f 146//146 147//147 137//137
f 147//147 146//146 167//167
f 167//167 146//146 166//166
f 139//139 148//148 168//168
f 159//159 139//139 168//168
f 168//168 148//148 147//147
f 147//147 167//167 168//168
f 166//166 146//146 165//165
f 165//165 146//146 145//145
f 144//144 135//135 134//134
f 145//145 135//135 144//144
f 161//161 141//141 140//140
f 140//140 160//160 161//161
f 131//131 141//141 142//142
f 142//142 132//132 131//131
f 142//142 161//161 162//162
f 141//141 161//161 142//142
f 159//159 168//168 164//164
f 164//164 160//160 159//159
f 164//164 167//167 166//166
f 166//166 165//165 164//164
f 164//164 168//168 167//167
f 164//164 161//161 160//160
f 163//163 162//162 164//164
f 162//162 161//161 164//164
f 164//164 165//165 145//145
f 145//145 144//144 164//164
f 158//158 138//138 129//129
f 129//129 149//149 158//158
f 143//143 144//144 134//134
f 134//134 133//133 143//143
f 132//132 142//142 143//143
f 133//133 132//132 143//143
f 163//163 164//164 143//143
f 143//143 164//164 144//144
f 143//143 162//162 163//163
f 143//143 142//142 162//162
f 134//134 135//135 155//155
f 155//155 154//154 134//134
f 137//137 138//138 157//157
f 138//138 158//158 157//157
f 129//129 130//130 150//150
f 150//150 149//149 129//129
f 150//150 130//130 131//131
f 131//131 151//151 150//150
f 131//131 132//132 152//152
f 152//152 151//151 131//131
f 156//156 135//135 136//136
f 156//156 155//155 135//135
f 156//156 136//136 137//137
f 137//137 157//157 156//156
f 153//153 158//158 149//149
f 154//154 155//155 153//153
f 153//153 157//157 158//158
f 149//149 150//150 153//153
f 155//155 156//156 153//153
f 153//153 150//150 151//151
f 151//151 152//152 153//153
f 153//153 156//156 157//157
f 153//153 133//133 134//134
f 134//134 154//154 153//153
f 153//153 132//132 133//133
f 153//153 152//152 132//132
f 232//232 185//185 200//200
f 217//217 185//185 232//232
f 200//200 185//185 184//184
f 184//184 185//185 169//169
f 226//226 193//193 225//225
f 194//194 193//193 226//226
f 181//181 197//197 198//198
f 198//198 182//182 181//181
f 200//200 184//184 183//183
f 199//199 200//200 183//183
f 182//182 198//198 183//183
f 183//183 198//198 199//199
f 178//178 193//193 194//194
f 177//177 193//193 178//178
f 177//177 178//178 209//209
f 209//209 178//178 210//210
f 195//195 226//226 227//227
f 194//194 226//226 195//195
f 195//195 178//178 194//194
f 179//179 178//178 195//195
f 216//216 184//184 169//169
f 169//169 201//201 216//216
f 181//181 182//182 213//213
f 213//213 182//182 214//214
f 210//210 178//178 211//211
f 211//211 178//178 179//179
f 179//179 195//195 180//180
f 180//180 195//195 196//196
f 212//212 211//211 180//180
f 180//180 211//211 179//179
f 180//180 197//197 181//181
f 180//180 196//196 197//197
f 180//180 213//213 212//212
f 181//181 213//213 180//180
f 169//169 185//185 186//186
f 186//186 170//170 169//169
f 228//228 195//195 227//227
f 196//196 195//195 228//228
f 197//197 196//196 228//228
f 228//228 229//229 197//197
f 230//230 198//198 197//197
f 197//197 229//229 230//230
f 182//182 183//183 215//215
f 214//214 182//182 215//215
f 215//215 183//183 184//184
f 184//184 216//216 215//215
f 218//218 185//185 217//217
f 218//218 186//186 185//185
f 170//170 186//186 187//187
f 171//171 170//170 187//187
f 187//187 218//218 219//219
f 186//186 218//218 187//187
f 187//187 172//172 171//171
f 187//187 188//188 172//172
f 220//220 187//187 219//219
f 188//188 187//187 220//220
f 172//172 188//188 189//189
f 173//173 172//172 189//189
f 189//189 220//220 221//221
f 188//188 220//220 189//189
f 173//173 189//189 174//174
f 174//174 189//189 190//190
f 222//222 189//189 221//221
f 190//190 189//189 222//222
f 191//191 190//190 222//222
f 222//222 223//223 191//191
f 225//225 193//193 224//224
f 193//193 192//192 224//224
f 191//191 223//223 224//224
f 224//224 192//192 191//191
f 217//217 232//232 231//231
f 225//225 224//224 231//231
f 227//227 226//226 231//231
f 231//231 222//222 221//221
f 231//231 226//226 225//225
f 231//231 218//218 217//217
f 231//231 228//228 227//227
f 221//221 220//220 231//231
f 229//229 228//228 231//231
f 231//231 230//230 229//229
f 219//219 218//218 231//231
f 231//231 220//220 219//219
f 223//223 222//222 231//231
f 231//231 224//224 223//223
f 231//231 232//232 200//200
f 231//231 200//200 199//199
f 199//199 198//198 231//231
f 198//198 230//230 231//231
f 176//176 193//193 177//177
f 176//176 192//192 193//193
f 177//177 209//209 176//176
f 209//209 208//208 176//176
f 202//202 201//201 169//169
f 169//169 170//170 202//202
f 202//202 170//170 171//171
f 171//171 203//203 202//202
f 204//204 172//172 173//173
f 173//173 205//205 204//204
f 171//171 172//172 204//204
f 204//204 203//203 171//171
f 175//175 174//174 190//190
f 175//175 190//190 191//191
f 191//191 192//192 175//175
f 192//192 176//176 175//175
f 173//173 174//174 206//206
f 206//206 205//205 173//173
f 207//207 216//216 201//201
f 207//207 208//208 209//209
f 207//207 209//209 210//210
f 207//207 213//213 214//214
f 210//210 211//211 207//207
f 214//214 215//215 207//207
f 212//212 213//213 207//207
f 207//207 211//211 212//212
f 207//207 215//215 216//216
f 207//207 204//204 205//205
f 201//201 202//202 207//207
f 207//207 202//202 203//203
f 203//203 204//204 207//207
f 205//205 206//206 207//207
f 207//207 176//176 208//208
f 207//207 175//175 176//176
f 174//174 175//175 207//207
f 207//207 206//206 174//174
o Accent
g Accent
usemtl HotPink
v 0.00268 1.86588 0.99500
v 0.02042 1.91540 0.99500
v 0.06349 1.97739 0.99500
v 0.13403 2.02896 0.99500
v 0.22490 2.05061 0.99500
v 0.32134 2.03235 0.99500
v 0.40482 1.97563 0.99500
v 0.45793 1.89095 0.99500
v 0.46917 1.79248 0.99500
v 0.43607 1.69240 0.99500
v 0.36588 1.59760 0.99500
v 0.27355 1.50961 0.99500
v 0.17770 1.42736 0.99500
v 0.09556 1.35084 0.99500
v 0.03844 1.28346 0.99500
v 0.00886 1.23190 0.99500
v 0.00034 1.20366 0.99500
v -0.00034 1.20366 0.99500
v -0.00886 1.23190 0.99500
v -0.03844 1.28346 0.99500
v -0.09556 1.35084 0.99500
v -0.17770 1.42736 0.99500
v -0.27355 1.50961 0.99500
v -0.36588 1.59760 0.99500
v -0.43607 1.69240 0.99500
v -0.46917 1.79248 0.99500
v -0.45793 1.89095 0.99500
v -0.40482 1.97563 0.99500
v -0.32134 2.03235 0.99500
v -0.22490 2.05061 0.99500
v -0.13403 2.02896 0.99500
v -0.06349 1.97739 0.99500
v -0.02042 1.91540 0.99500
v -0.00268 1.86588 0.99500
v -0.00000 1.84706 0.99500
v 0.00268 1.86588 1.24500
v 0.02042 1.91540 1.24500
v 0.06349 1.97739 1.24500
v 0.13403 2.02896 1.24500
v 0.22490 2.05061 1.24500
v 0.32134 2.03235 1.24500
v 0.40482 1.97563 1.24500
v 0.45793 1.89095 1.24500
v 0.46917 1.79248 1.24500
v 0.43607 1.69240 1.24500
v 0.36588 1.59760 1.24500
v 0.27355 1.50961 1.24500
v 0.17770 1.42736 1.24500
v 0.09556 1.35084 1.24500
v 0.03844 1.28346 1.24500
v 0.00886 1.23190 1.24500
v 0.00034 1.20366 1.24500
v -0.00034 1.20366 1.24500
v -0.00886 1.23190 1.24500
v -0.03844 1.28346 1.24500
v -0.09556 1.35084 1.24500
v -0.17770 1.42736 1.24500
v -0.27355 1.50961 1.24500
v -0.36588 1.59760 1.24500
v -0.43607 1.69240 1.24500
v -0.46917 1.79248 1.24500
v -0.45793 1.89095 1.24500
v -0.40482 1.97563 1.24500
v -0.32134 2.03235 1.24500
v -0.22490 2.05061 1.24500
v -0.13403 2.02896 1.24500
v -0.06349 1.97739 1.24500
v -0.02042 1.91540 1.24500
v -0.00268 1.86588 1.24500
v -0.00000 1.84706 1.24500
vn -0.7072 0.1750 -0.6850
vn -0.6529 0.3363 -0.6787
vn -0.5301 0.5175 -0.6717
vn -0.3130 0.6778 -0.6653
vn -0.0175 0.7485 -0.6629
vn 0.2856 0.6910 -0.6641
vn 0.5385 0.5192 -0.6637
vn 0.7086 0.2482 -0.6605
vn 0.7457 -0.0770 -0.6618
vn 0.6565 -0.3404 -0.6731
vn 0.5438 -0.4802 -0.6883
vn 0.4782 -0.5287 -0.7013
vn 0.4682 -0.5236 -0.7117
vn 0.5016 -0.4787 -0.7206
vn 0.5610 -0.3938 -0.7282
vn 0.6241 -0.2690 -0.7336
vn 0.4795 -0.6456 -0.5943
vn -0.4795 -0.6456 -0.5943
vn -0.6241 -0.2690 -0.7336
vn -0.5610 -0.3938 -0.7282
vn -0.5016 -0.4787 -0.7206
vn -0.4682 -0.5236 -0.7117
vn -0.4782 -0.5287 -0.7013
vn -0.5438 -0.4802 -0.6883
vn -0.6565 -0.3404 -0.6731
vn -0.7457 -0.0770 -0.6618
vn -0.7086 0.2482 -0.6605
vn -0.5385 0.5192 -0.6637
vn -0.2856 0.6910 -0.6641
vn 0.0175 0.7485 -0.6629
vn 0.3130 0.6778 -0.6653
vn 0.5301 0.5175 -0.6717
vn 0.6529 0.3363 -0.6787
vn 0.7072 0.1750 -0.6850
vn 0.0000 0.0736 -0.9973
vn -0.7072 0.1750 0.6850
vn -0.6529 0.3363 0.6787
vn -0.5301 0.5175 0.6717
vn -0.3130 0.6778 0.6653
vn -0.0175 0.7485 0.6629
vn 0.2856 0.6910 0.6641
vn 0.5385 0.5192 0.6637
vn 0.7086 0.2482 0.6605
vn 0.7457 -0.0770 0.6618
vn 0.6565 -0.3404 0.6731
vn 0.5438 -0.4802 0.6883
vn 0.4782 -0.5287 0.7013
vn 0.4682 -0.5236 0.7117
vn 0.5016 -0.4787 0.7206
vn 0.5610 -0.3938 0.7282
vn 0.6241 -0.2690 0.7336
vn 0.4795 -0.6456 0.5943
vn -0.4795 -0.6456 0.5943
vn -0.6241 -0.2690 0.7336
vn -0.5610 -0.3938 0.7282
vn -0.5016 -0.4787 0.7206
vn -0.4682 -0.5236 0.7117
vn -0.4782 -0.5287 0.7013
vn -0.5438 -0.4802 0.6883
vn -0.6565 -0.3404 0.6731
vn -0.7457 -0.0770 0.6618
vn -0.7086 0.2482 0.6605
vn -0.5385 0.5192 0.6637
vn -0.2856 0.6910 0.6641
vn 0.0175 0.7485 0.6629
vn 0.3130 0.6778 0.6653
vn 0.5301 0.5175 0.6717
vn 0.6529 0.3363 0.6787
vn 0.7072 0.1750 0.6850
vn -0.0000 0.0736 0.9973
f 265//265 266//266 267//267
f 263//263 264//264 265//265
f 261//261 262//262 263//263
f 259//259 260//260 261//261
f 257//257 258//258 259//259
f 255//255 256//256 257//257
f 249//249 250//250 251//251
f 243//243 244//244 245//245
f 241//241 242//242 243//243
f 239//239 240//240 241//241
f 237//237 238//238 239//239
f 235//235 236//236 237//237
f 233//233 234//234 235//235
f 263//263 265//265 267//267
f 259//259 261//261 263//263
f 255//255 257//257 259//259
f 248//248 249//249 251//251
f 241//241 243//243 245//245
f 237//237 239//239 241//241
f 233//233 235//235 237//237
f 259//259 263//263 267//267
f 254//254 255//255 259//259
f 248//248 251//251 252//252
f 241//241 245//245 246//246
f 233//233 237//237 241//241
f 254//254 259//259 267//267
f 248//248 252//252 253//253
f 241//241 246//246 247//247
f 267//267 233//233 241//241
f 254//254 267//267 267//267
f 247//247 248//248 253//253
f 267//267 241//241 247//247
f 253//253 254//254 267//267
f 267//267 247//247 253//253
f 302//302 301//301 300//300
f 300//300 299//299 298//298
f 298//298 297//297 296//296
f 296//296 295//295 294//294
f 294//294 293//293 292//292
f 292//292 291//291 290//290
f 286//286 285//285 284//284
f 280//280 279//279 278//278
f 278//278 277//277 276//276
f 276//276 275//275 274//274
f 274//274 273//273 272//272
f 272//272 271//271 270//270
f 270//270 269//269 268//268
f 302//302 300//300 298//298
f 298//298 296//296 294//294
f 294//294 292//292 290//290
f 286//286 284//284 283//283
f 280//280 278//278 276//276
f 276//276 274//274 272//272
f 272//272 270//270 268//268
f 302//302 298//298 294//294
f 294//294 290//290 289//289
f 287//287 286//286 283//283
f 281//281 280//280 276//276
f 276//276 272//272 268//268
f 302//302 294//294 289//289
f 288//288 287//287 283//283
f 282//282 281//281 276//276
f 276//276 268//268 302//302
f 302//302 302//302 289//289
f 288//288 283//283 282//282
f 282//282 276//276 302//302
f 302//302 289//289 288//288
f 288//288 282//282 302//302
f 268//268 269//269 233//233
f 233//233 269//269 234//234
f 269//269 270//270 234//234
f 234//234 270//270 235//235
f 270//270 271//271 235//235
f 235//235 271//271 236//236
f 271//271 272//272 236//236
f 236//236 272//272 237//237
f 272//272 273//273 237//237
f 237//237 273//273 238//238
f 273//273 274//274 238//238
f 238//238 274//274 239//239
f 274//274 275//275 239//239
f 239//239 275//275 240//240
f 275//275 276//276 240//240
f 240//240 276//276 241//241
f 276//276 277//277 241//241
f 241//241 277//277 242//242
f 277//277 278//278 242//242
f 242//242 278//278 243//243
f 278//278 279//279 243//243
f 243//243 279//279 244//244
f 279//279 280//280 244//244
f 244//244 280//280 245//245
f 280//280 281//281 245//245
f 245//245 281//281 246//246
f 281//281 282//282 246//246
f 246//246 282//282 247//247
f 282//282 283//283 247//247
f 247//247 283//283 248//248
f 283//283 284//284 248//248
f 248//248 284//284 249//249
f 284//284 285//285 249//249
f 249//249 285//285 250//250
f 285//285 286//286 250//250
f 250//250 286//286 251//251
f 286//286 287//287 251//251
f 251//251 287//287 252//252
f 287//287 288//288 252//252
f 252//252 288//288 253//253
f 288//288 289//289 253//253
f 253//253 289//289 254//254
f 289//289 290//290 254//254
f 254//254 290//290 255//255
f 290//290 291//291 255//255
f 255//255 291//291 256//256
f 291//291 292//292 256//256
f 256//256 292//292 257//257
f 292//292 293//293 257//257
f 257//257 293//293 258//258
f 293//293 294//294 258//258
f 258//258 294//294 259//259
f 294//294 295//295 259//259
f 259//259 295//295 260//260
f 295//295 296//296 260//260
f 260//260 296//296 261//261
f 296//296 297//297 261//261
f 261//261 297//297 262//262
f 297//297 298//298 262//262
f 262//262 298//298 263//263
f 298//298 299//299 263//263
f 263//263 299//299 264//264
f 299//299 300//300 264//264
f 264//264 300//300 265//265
f 300//300 301//301 265//265
f 265//265 301//301 266//266
f 301//301 302//302 266//266
f 266//266 302//302 267//267
f 302//302 268//268 267//267
f 267//267 268//268 233//233
f 302//302 302//302 267//267
f 267//267 302//302 267//267
