mtllib blossom.mtl


g tree-crooked

v -1.0203 -0.0000 -1.0203
v 1.0203 -0.0000 -1.0203
v -0.6632 0.9648 -0.6632
v 0.6632 0.9648 -0.6632
v 0.6632 0.9648 0.6632
v 0.5239 3.4318 -0.5239
v 0.5239 3.4318 0.5239
v -0.5239 3.4318 -0.5239
v 1.0203 -0.0000 1.0203
v -1.0203 -0.0000 1.0203
v -0.6632 0.9648 0.6632
v -0.5239 3.4318 0.5239
v 0.2161 2.0565 0.6015
v 0.2161 1.4354 0.6366
v 0.0948 1.9832 1.4554
v 0.0948 1.6043 1.4767
v -0.4060 2.0565 0.6015
v -0.2847 1.9832 1.4554
v -0.4060 1.4354 0.6366
v -0.2847 1.6043 1.4767
v 0.0000 13.3456 -0.9609
v 0.7115 13.3554 -0.6663
v 0.0000 17.0555 -0.0772
v -0.7115 13.3554 -0.6663
v -1.0062 13.3790 0.0448
v 0.0000 13.4124 1.0504
v -0.7115 13.4026 0.7559
v 1.0062 13.3790 0.0448
v 0.7115 13.4026 0.7559
v 1.4172 12.4016 0.0772
v 1.0021 12.4348 1.0787
v 1.0021 12.3684 -0.9244
v 0.0000 12.4486 1.4936
v 0.0000 12.3546 -1.3392
v -1.0021 12.4348 1.0787
v -1.0021 12.3684 -0.9244
v -1.4172 12.4016 0.0772
v -0.9912 10.8479 1.0021
v -0.8031 12.4216 0.6803
v 0.0073 10.9335 1.4172
v -0.1212 12.4314 0.9763
v 0.0073 10.9335 -1.4172
v 1.0057 11.0191 -1.0021
v -0.1155 12.3660 -0.9956
v 0.6010 12.3753 -0.7148
v 1.0057 11.0191 1.0021
v 0.5870 12.4224 0.7048
v 2.1218 9.6362 -0.0000
v 1.5393 9.5863 -1.4114
v 1.5393 9.5863 1.4114
v 0.1331 9.4657 1.9960
v 0.1331 9.4657 -1.9960
v -1.2732 9.3451 1.4114
v -1.2732 9.3451 -1.4114
v -1.8556 9.2952 -0.0000
v 1.4193 11.0546 -0.0000
v 0.8966 12.3990 -0.0000
v -0.9912 10.8479 -1.0021
v -0.8086 12.3762 -0.6896
v -1.4047 10.8125 -0.0000
v -1.0836 12.3990 -0.0000
v 1.8488 6.7735 -2.2173
v 1.4337 8.3823 -1.4694
v -0.1848 7.0732 -3.0400
v -0.0101 8.5951 -2.0535
v 2.6911 6.4899 -0.1895
v 1.8488 6.3885 1.8556
v 2.0318 8.1810 -0.0296
v 1.4337 8.1090 1.4224
v -0.1848 6.5287 2.7199
v -0.0101 8.2085 2.0360
v -2.2183 7.2134 -2.1757
v -1.4539 8.6946 -1.4398
v -3.0606 7.1120 -0.1307
v -2.0520 8.6226 0.0121
v 1.2391 9.5605 -1.0319
v 0.0881 9.4618 -1.6181
v 1.2062 9.5577 1.1782
v 0.1221 9.4648 1.6788
v -1.4539 8.4213 1.4519
v -1.0918 9.3607 1.2788
v -2.2183 6.8284 1.8972
v -1.1863 9.3526 -1.1841
v -1.6952 9.3090 0.0770
v 1.6520 9.5959 0.1041
v 1.8154 5.4536 1.8154
v 0.0000 5.4536 2.5674
v 1.5423 6.4516 1.5423
v 0.0000 6.5636 2.1377
v -2.5674 5.4536 -0.0000
v -1.8154 5.4536 1.8154
v -3.6160 3.4318 -0.0000
v -2.5569 3.4318 2.5569
v -0.0000 3.4318 3.6160
v -2.5569 3.4318 -2.5569
v -1.8154 5.4536 -1.8154
v -0.0000 3.4318 -3.6160
v 0.0000 5.4536 -2.5674
v 2.5569 3.4318 -2.5569
v 1.8154 5.4536 -1.8154
v 2.5569 3.4318 2.5569
v -1.4505 6.7868 1.4505
v 3.6160 3.4318 -0.0000
v 2.5674 5.4536 -0.0000
v 2.1503 6.5310 -0.0000
v -1.3794 7.0466 -1.3794
v 0.0000 6.9535 -1.9868
v 1.4621 6.7443 -1.4621
v -1.9761 6.9813 -0.0000

vn 0 0.3470959 -0.9378296
vn 0 0.2207408 -0.9753324
vn 0.9753324 0.2207408 0
vn 0.9984103 0.05636281 0
vn 0 0.05636281 -0.9984103
vn 0 0.3470959 0.9378296
vn 0 0.2207408 0.9753324
vn -0.9753324 0.2207408 0
vn -0.9984103 0.05636281 0
vn 0.9899297 0.007978717 0.1413349
vn -0.9899297 0.007978717 0.1413349
vn 0 0.9963348 0.08553969
vn 0 -0.9803773 0.1971301
vn 0 0.05636281 0.9984103
vn 0 -1 0
vn 0.9378296 0.3470959 0
vn -0.9378296 0.3470959 0
vn 0 0.2999001 -0.9539706
vn 0.6671573 0.3090624 -0.6777769
vn 0.3710195 0.215177 -0.9033512
vn -0.6671573 0.3090624 -0.6777769
vn -0.8957203 0.2325735 -0.3789389
vn -0.9435029 0.3311821 -0.01098645
vn 0 0.3624641 0.9319977
vn -0.6671573 0.3533018 0.6558041
vn -0.3710195 0.2745726 0.8871045
vn -0.3710195 0.215177 -0.9033512
vn 0.8957203 0.2325735 -0.3789389
vn 0.9435029 0.3311821 -0.01098645
vn 0.8957203 0.257176 0.3626922
vn 0.6671573 0.3533018 0.6558041
vn 0.3710195 0.2745726 0.8871045
vn -0.8957203 0.257176 0.3626922
vn 0.9219008 0.3872128 -0.01284518
vn 0.6518824 0.4088261 0.6386788
vn 0 -0.9994503 0.0331552
vn 0 0.4177787 0.9085488
vn 0 0.3566471 -0.9342393
vn -0.6518824 0.3655996 -0.6643691
vn -0.6518824 0.4088261 0.6386788
vn 0.6518824 0.3655996 -0.6643691
vn -0.9219008 0.3872128 -0.01284518
vn -0.6936824 0.2689821 0.6681717
vn -0.7059917 0.2218855 0.6725641
vn -0.02795279 0.3260553 0.9449374
vn -0.04336679 0.2786493 0.9594133
vn -0.02795279 0.3260553 -0.9449374
vn 0.6377769 0.3831284 -0.6681716
vn -0.04333138 0.2786525 -0.9594139
vn 0.6461009 0.3378008 -0.6844299
vn 0.6377769 0.3831284 0.6681716
vn 0.6385053 0.3371084 0.6918589
vn 0.0854169 -0.9963452 0
vn -0.0312372 0.3643662 0.9307318
vn 0.6244842 0.4205813 0.6581267
vn 0.9135311 0.4067689 0
vn 0.9320253 0.3623151 0.007515698
vn -0.6936824 0.2689821 -0.6681717
vn -0.7133883 0.2212101 -0.6649384
vn -0.9694366 0.2453416 0
vn -0.9800944 0.1983886 0.007553337
vn -0.6869587 0.3081511 -0.6581268
vn -0.9585674 0.2848659 0
vn 0.8960929 0.4438664 0
vn -0.6869587 0.3081511 0.6581268
vn -0.0312372 0.3643662 -0.9307318
vn 0.6244842 0.4205813 -0.6581267
vn 0.6737553 0.4472689 -0.5882214
vn 0.6841006 0.4034982 -0.6076147
vn 0.04972418 0.539228 -0.8406907
vn 0.04497019 0.4976823 -0.8661928
vn 0.9322374 0.3602414 0.03405284
vn 0.6737553 0.3291249 0.6616122
vn 0.948837 0.3143649 0.02971623
vn 0.6841006 0.2824955 0.6724602
vn 0.04972418 0.3721471 0.9268409
vn 0.04497019 0.3265586 0.9441065
vn -0.5743069 0.5822501 -0.5754619
vn -0.5941601 0.5417455 -0.5945465
vn -0.832789 0.5511337 0.05209747
vn -0.8588966 0.5098761 0.04819748
vn 0.7256306 0.3416241 -0.5972882
vn 0.08198084 0.4399623 -0.8942663
vn 0.7053901 0.2241362 0.6724492
vn 0.08163232 0.2646424 0.9608853
vn -0.5941601 0.4207428 0.6855285
vn -0.5839704 0.3592494 0.727955
vn -0.5743069 0.4641061 0.6743717
vn -0.6054488 0.4900203 -0.6271458
vn -0.8879359 0.4554401 0.06437476
vn 0.9658942 0.254972 0.04514262
vn -0.1079994 -0.9897389 -0.09355788
vn 0.6428906 0.4163931 0.6428906
vn 0 0.4163931 0.9091846
vn 0.6578095 0.3609734 0.6610483
vn -0.02417072 0.3608688 0.9323033
vn -0.9091846 0.4163931 0
vn -0.6428906 0.4163931 0.6428906
vn -0.8877054 0.4604119 0
vn -0.6277025 0.4604119 0.6277025
vn 0 0.4604119 0.8877054
vn -0.6277025 0.4604119 -0.6277025
vn -0.6428906 0.4163931 -0.6428906
vn 0 0.4604119 -0.8877054
vn 0 0.4163931 -0.9091846
vn 0.6277025 0.4604119 -0.6277025
vn 0.6428906 0.4163931 -0.6428906
vn 0.6277025 0.4604119 0.6277025
vn -0.68155 0.3607924 0.6366463
vn 0.9091846 0.4163931 0
vn 0.8877054 0.4604119 0
vn 0.932371 0.3608951 -0.02095214
vn -0.6610326 0.3609734 -0.6578253
vn -0.02400036 0.3608704 -0.9323072
vn 0.6366273 0.360792 -0.681568
vn -0.9323742 0.3608963 -0.02078578

vt 0.59375 0.225
vt 0.59375 0.1687706
vt 0.59375 0.025
vt 0.59375 0.1051489
vt 0.59375 0.1413471
vt 0.59375 0.109421
vt 0.59375 0.1315019
vt 0.46875 0.09608198
vt 0.46875 0.09628984
vt 0.46875 0.175
vt 0.46875 0.09679165
vt 0.46875 0.09750132
vt 0.46875 0.09729346
vt 0.46875 0.07599953
vt 0.46875 0.0767063
vt 0.46875 0.07529275
vt 0.46875 0.07699905
vt 0.46875 0.075
vt 0.46875 0.1245092
vt 0.46875 0.1746869
vt 0.46875 0.1272385
vt 0.46875 0.1299678
vt 0.46875 0.1729142
vt 0.46875 0.1732112
vt 0.46875 0.1747127
vt 0.46875 0.08587266
vt 0.46875 0.08428039
vt 0.46875 0.08043633
vt 0.46875 0.07659227
vt 0.46875 0.1310983
vt 0.46875 0.1739673
vt 0.46875 0.1732378
vt 0.46875 0.1233787
vt 0.46875 0.08700347
vt 0.46875 0.1371635
vt 0.46875 0.09634653
vt 0.46875 0.1437971
vt 0.46875 0.07816144
vt 0.46875 0.1308856
vt 0.46875 0.128641
vt 0.46875 0.07937106
vt 0.46875 0.1317445
vt 0.46875 0.1007176
vt 0.46875 0.1469005
vt 0.46875 0.09755615
vt 0.46875 0.1446559
vt 0.46875 0.1738963
vt 0.46875 0.1708198
vt 0.46875 0.1738084
vt 0.46875 0.1709107
vt 0.46875 0.138378
vt 0.46875 0.167666
vt 0.46875 0.08871413
vt 0.46875 0.1674134
vt 0.46875 0.1660531
vt 0.46875 0.1309329
vt 0.46875 0.1585401
vt 0.46875 0.1616385
vt 0.46875 0.1678143
vt 0.46875 0.1607376
vt 0.46875 0.1724244
vt 0.46875 0.1666386
vt 0.46875 0.1731939

usemtl colormap

f 3/2/2 2/1/1 1/1/1
f 2/1/1 3/2/2 4/2/2
f 6/3/4 5/2/3 4/2/3
f 5/2/3 6/3/4 7/3/4
f 8/3/5 4/2/2 3/2/2
f 4/2/2 8/3/5 6/3/5
f 5/2/7 10/1/6 9/1/6
f 10/1/6 5/2/7 11/2/7
f 11/2/8 8/3/9 3/2/8
f 8/3/9 11/2/8 12/3/9
f 15/6/10 14/5/10 13/4/10
f 14/5/10 15/6/10 16/7/10
f 19/5/11 18/6/11 17/4/11
f 18/6/11 19/5/11 20/7/11
f 17/4/12 15/6/12 13/4/12
f 15/6/12 17/4/12 18/6/12
f 16/7/13 19/5/13 14/5/13
f 19/5/13 16/7/13 20/7/13
f 15/6/14 20/7/14 16/7/14
f 20/7/14 15/6/14 18/6/14
f 10/1/15 2/1/15 9/1/15
f 2/1/15 10/1/15 1/1/15
f 4/2/3 9/1/16 2/1/16
f 9/1/16 4/2/3 5/2/3
f 10/1/17 3/2/8 1/1/17
f 3/2/8 10/1/17 11/2/8
f 14/5/14 7/3/14 13/4/14
f 13/4/14 7/3/14 17/4/14
f 14/5/14 5/2/7 7/3/14
f 12/3/14 17/4/14 7/3/14
f 5/2/7 14/5/14 11/2/7
f 12/3/14 19/5/14 17/4/14
f 11/2/7 19/5/14 12/3/14
f 19/5/14 11/2/7 14/5/14
f 23/10/20 22/9/19 21/8/18
f 25/11/23 23/10/22 24/9/21
f 23/10/26 27/13/25 26/12/24
f 23/10/27 21/8/18 24/9/21
f 28/11/29 22/9/19 23/10/28
f 29/13/31 28/11/29 23/10/30
f 23/10/32 26/12/24 29/13/31
f 27/13/25 23/10/33 25/11/23
f 29/13/31 30/14/34 28/11/29
f 30/14/34 29/13/31 31/15/35
f 31/15/36 32/16/36 30/14/36
f 32/16/36 31/15/36 33/17/36
f 32/16/36 33/17/36 34/18/36
f 34/18/36 33/17/36 35/15/36
f 34/18/36 35/15/36 36/16/36
f 36/16/36 35/15/36 37/14/36
f 29/13/31 33/17/37 31/15/35
f 33/17/37 29/13/31 26/12/24
f 36/16/39 21/8/18 34/18/38
f 21/8/18 36/16/39 24/9/21
f 33/17/37 27/13/25 35/15/40
f 27/13/25 33/17/37 26/12/24
f 22/9/19 30/14/34 32/16/41
f 30/14/34 22/9/19 28/11/29
f 37/14/42 27/13/25 25/11/23
f 27/13/25 37/14/42 35/15/40
f 21/8/18 32/16/41 34/18/38
f 32/16/41 21/8/18 22/9/19
f 37/14/42 24/9/21 36/16/39
f 24/9/21 37/14/42 25/11/23
f 40/21/45 39/20/44 38/19/43
f 39/20/44 40/21/45 41/10/46
f 44/23/49 43/22/48 42/21/47
f 43/22/48 44/23/49 45/24/50
f 46/22/51 41/10/46 40/21/45
f 41/10/46 46/22/51 47/25/52
f 50/27/53 49/27/53 48/26/53
f 49/27/53 50/27/53 51/28/53
f 49/27/53 51/28/53 52/28/53
f 52/28/53 51/28/53 53/29/53
f 52/28/53 53/29/53 54/29/53
f 54/29/53 53/29/53 55/18/53
f 50/27/55 40/21/45 51/28/54
f 40/21/45 50/27/55 46/22/51
f 57/31/57 46/22/51 56/30/56
f 46/22/51 57/31/57 47/25/52
f 60/33/60 59/32/59 58/19/58
f 59/32/59 60/33/60 61/31/61
f 55/18/63 58/19/58 54/29/62
f 58/19/58 55/18/63 60/33/60
f 46/22/51 48/26/64 56/30/56
f 48/26/64 46/22/51 50/27/55
f 38/19/43 61/31/61 60/33/60
f 61/31/61 38/19/43 39/20/44
f 51/28/54 38/19/43 53/29/65
f 38/19/43 51/28/54 40/21/45
f 58/19/58 52/28/66 54/29/62
f 52/28/66 58/19/58 42/21/47
f 42/21/47 49/27/67 52/28/66
f 49/27/67 42/21/47 43/22/48
f 43/22/48 48/26/64 49/27/67
f 48/26/64 43/22/48 56/30/56
f 45/24/50 56/30/56 43/22/48
f 56/30/56 45/24/50 57/31/57
f 55/18/63 38/19/43 60/33/60
f 38/19/43 55/18/63 53/29/65
f 59/32/59 42/21/47 58/19/58
f 42/21/47 59/32/59 44/23/49
f 64/36/70 63/35/69 62/34/68
f 63/35/69 64/36/70 65/37/71
f 68/39/74 67/18/73 66/38/72
f 67/18/73 68/39/74 69/40/75
f 69/40/75 70/41/76 67/18/73
f 70/41/76 69/40/75 71/42/77
f 74/45/80 73/44/79 72/43/78
f 73/44/79 74/45/80 75/46/81
f 65/37/71 76/47/82 63/35/69
f 76/47/82 65/37/71 77/48/83
f 78/49/84 71/42/77 69/40/75
f 71/42/77 78/49/84 79/50/85
f 79/50/85 80/51/86 71/42/77
f 80/51/86 79/50/85 81/52/87
f 72/43/78 65/37/71 64/36/70
f 65/37/71 72/43/78 73/44/79
f 63/35/69 66/38/72 62/34/68
f 66/38/72 63/35/69 68/39/74
f 71/42/77 82/53/88 70/41/76
f 82/53/88 71/42/77 80/51/86
f 73/44/79 77/48/83 65/37/71
f 77/48/83 73/44/79 83/54/89
f 75/46/81 83/54/89 73/44/79
f 83/54/89 75/46/81 84/55/90
f 85/10/91 69/40/75 68/39/74
f 69/40/75 85/10/91 78/49/84
f 67/18/92 62/34/92 66/38/92
f 62/34/92 67/18/92 70/41/92
f 62/34/92 70/41/92 64/36/92
f 64/36/92 70/41/92 82/53/92
f 64/36/92 82/53/92 72/43/92
f 72/43/92 82/53/92 74/45/92
f 80/51/86 84/55/90 75/46/81
f 84/55/90 80/51/86 81/52/87
f 82/53/88 75/46/81 74/45/80
f 75/46/81 82/53/88 80/51/86
f 76/47/82 68/39/74 63/35/69
f 68/39/74 76/47/82 85/10/91
f 88/57/95 87/56/94 86/56/93
f 87/56/94 88/57/95 89/58/96
f 92/18/99 91/56/98 90/56/97
f 91/56/98 92/18/99 93/18/100
f 87/56/94 93/18/100 94/18/101
f 93/18/100 87/56/94 91/56/98
f 92/18/99 96/56/103 95/18/102
f 96/56/103 92/18/99 90/56/97
f 96/56/103 97/18/104 95/18/102
f 97/18/104 96/56/103 98/56/105
f 98/56/105 99/18/106 97/18/104
f 99/18/106 98/56/105 100/56/107
f 86/56/93 94/18/101 101/18/108
f 94/18/101 86/56/93 87/56/94
f 89/58/96 91/56/98 87/56/94
f 91/56/98 89/58/96 102/59/109
f 101/18/15 99/18/15 103/18/15
f 99/18/15 101/18/15 94/18/15
f 99/18/15 94/18/15 97/18/15
f 97/18/15 94/18/15 93/18/15
f 97/18/15 93/18/15 95/18/15
f 95/18/15 93/18/15 92/18/15
f 86/56/93 103/18/111 104/56/110
f 103/18/111 86/56/93 101/18/108
f 105/60/112 86/56/93 104/56/110
f 86/56/93 105/60/112 88/57/95
f 106/10/113 98/56/105 96/56/103
f 98/56/105 106/10/113 107/61/114
f 107/61/114 100/56/107 98/56/105
f 100/56/107 107/61/114 108/62/115
f 108/62/115 104/56/110 100/56/107
f 104/56/110 108/62/115 105/60/112
f 100/56/107 103/18/111 99/18/106
f 103/18/111 100/56/107 104/56/110
f 90/56/97 106/10/113 96/56/103
f 106/10/113 90/56/97 109/63/116
f 91/56/98 109/63/116 90/56/97
f 109/63/116 91/56/98 102/59/109

g tree-crooked




usemtl colormap

f 3/2/2 2/1/1 1/1/1
f 2/1/1 3/2/2 4/2/2
f 6/3/4 5/2/3 4/2/3
f 5/2/3 6/3/4 7/3/4
f 8/3/5 4/2/2 3/2/2
f 4/2/2 8/3/5 6/3/5
f 5/2/7 10/1/6 9/1/6
f 10/1/6 5/2/7 11/2/7
f 11/2/8 8/3/9 3/2/8
f 8/3/9 11/2/8 12/3/9
f 15/6/10 14/5/10 13/4/10
f 14/5/10 15/6/10 16/7/10
f 19/5/11 18/6/11 17/4/11
f 18/6/11 19/5/11 20/7/11
f 17/4/12 15/6/12 13/4/12
f 15/6/12 17/4/12 18/6/12
f 16/7/13 19/5/13 14/5/13
f 19/5/13 16/7/13 20/7/13
f 15/6/14 20/7/14 16/7/14
f 20/7/14 15/6/14 18/6/14
f 10/1/15 2/1/15 9/1/15
f 2/1/15 10/1/15 1/1/15
f 4/2/3 9/1/16 2/1/16
f 9/1/16 4/2/3 5/2/3
f 10/1/17 3/2/8 1/1/17
f 3/2/8 10/1/17 11/2/8
f 14/5/14 7/3/14 13/4/14
f 13/4/14 7/3/14 17/4/14
f 14/5/14 5/2/7 7/3/14
f 12/3/14 17/4/14 7/3/14
f 5/2/7 14/5/14 11/2/7
f 12/3/14 19/5/14 17/4/14
f 11/2/7 19/5/14 12/3/14
f 19/5/14 11/2/7 14/5/14
f 23/10/20 22/9/19 21/8/18
f 25/11/23 23/10/22 24/9/21
f 23/10/26 27/13/25 26/12/24
f 23/10/27 21/8/18 24/9/21
f 28/11/29 22/9/19 23/10/28
f 29/13/31 28/11/29 23/10/30
f 23/10/32 26/12/24 29/13/31
f 27/13/25 23/10/33 25/11/23
f 29/13/31 30/14/34 28/11/29
f 30/14/34 29/13/31 31/15/35
f 31/15/36 32/16/36 30/14/36
f 32/16/36 31/15/36 33/17/36
f 32/16/36 33/17/36 34/18/36
f 34/18/36 33/17/36 35/15/36
f 34/18/36 35/15/36 36/16/36
f 36/16/36 35/15/36 37/14/36
f 29/13/31 33/17/37 31/15/35
f 33/17/37 29/13/31 26/12/24
f 36/16/39 21/8/18 34/18/38
f 21/8/18 36/16/39 24/9/21
f 33/17/37 27/13/25 35/15/40
f 27/13/25 33/17/37 26/12/24
f 22/9/19 30/14/34 32/16/41
f 30/14/34 22/9/19 28/11/29
f 37/14/42 27/13/25 25/11/23
f 27/13/25 37/14/42 35/15/40
f 21/8/18 32/16/41 34/18/38
f 32/16/41 21/8/18 22/9/19
f 37/14/42 24/9/21 36/16/39
f 24/9/21 37/14/42 25/11/23
f 40/21/45 39/20/44 38/19/43
f 39/20/44 40/21/45 41/10/46
f 44/23/49 43/22/48 42/21/47
f 43/22/48 44/23/49 45/24/50
f 46/22/51 41/10/46 40/21/45
f 41/10/46 46/22/51 47/25/52
f 50/27/53 49/27/53 48/26/53
f 49/27/53 50/27/53 51/28/53
f 49/27/53 51/28/53 52/28/53
f 52/28/53 51/28/53 53/29/53
f 52/28/53 53/29/53 54/29/53
f 54/29/53 53/29/53 55/18/53
f 50/27/55 40/21/45 51/28/54
f 40/21/45 50/27/55 46/22/51
f 57/31/57 46/22/51 56/30/56
f 46/22/51 57/31/57 47/25/52
f 60/33/60 59/32/59 58/19/58
f 59/32/59 60/33/60 61/31/61
f 55/18/63 58/19/58 54/29/62
f 58/19/58 55/18/63 60/33/60
f 46/22/51 48/26/64 56/30/56
f 48/26/64 46/22/51 50/27/55
f 38/19/43 61/31/61 60/33/60
f 61/31/61 38/19/43 39/20/44
f 51/28/54 38/19/43 53/29/65
f 38/19/43 51/28/54 40/21/45
f 58/19/58 52/28/66 54/29/62
f 52/28/66 58/19/58 42/21/47
f 42/21/47 49/27/67 52/28/66
f 49/27/67 42/21/47 43/22/48
f 43/22/48 48/26/64 49/27/67
f 48/26/64 43/22/48 56/30/56
f 45/24/50 56/30/56 43/22/48
f 56/30/56 45/24/50 57/31/57
f 55/18/63 38/19/43 60/33/60
f 38/19/43 55/18/63 53/29/65
f 59/32/59 42/21/47 58/19/58
f 42/21/47 59/32/59 44/23/49
f 64/36/70 63/35/69 62/34/68
f 63/35/69 64/36/70 65/37/71
f 68/39/74 67/18/73 66/38/72
f 67/18/73 68/39/74 69/40/75
f 69/40/75 70/41/76 67/18/73
f 70/41/76 69/40/75 71/42/77
f 74/45/80 73/44/79 72/43/78
f 73/44/79 74/45/80 75/46/81
f 65/37/71 76/47/82 63/35/69
f 76/47/82 65/37/71 77/48/83
f 78/49/84 71/42/77 69/40/75
f 71/42/77 78/49/84 79/50/85
f 79/50/85 80/51/86 71/42/77
f 80/51/86 79/50/85 81/52/87
f 72/43/78 65/37/71 64/36/70
f 65/37/71 72/43/78 73/44/79
f 63/35/69 66/38/72 62/34/68
f 66/38/72 63/35/69 68/39/74
f 71/42/77 82/53/88 70/41/76
f 82/53/88 71/42/77 80/51/86
f 73/44/79 77/48/83 65/37/71
f 77/48/83 73/44/79 83/54/89
f 75/46/81 83/54/89 73/44/79
f 83/54/89 75/46/81 84/55/90
f 85/10/91 69/40/75 68/39/74
f 69/40/75 85/10/91 78/49/84
f 67/18/92 62/34/92 66/38/92
f 62/34/92 67/18/92 70/41/92
f 62/34/92 70/41/92 64/36/92
f 64/36/92 70/41/92 82/53/92
f 64/36/92 82/53/92 72/43/92
f 72/43/92 82/53/92 74/45/92
f 80/51/86 84/55/90 75/46/81
f 84/55/90 80/51/86 81/52/87
f 82/53/88 75/46/81 74/45/80
f 75/46/81 82/53/88 80/51/86
f 76/47/82 68/39/74 63/35/69
f 68/39/74 76/47/82 85/10/91
f 88/57/95 87/56/94 86/56/93
f 87/56/94 88/57/95 89/58/96
f 92/18/99 91/56/98 90/56/97
f 91/56/98 92/18/99 93/18/100
f 87/56/94 93/18/100 94/18/101
f 93/18/100 87/56/94 91/56/98
f 92/18/99 96/56/103 95/18/102
f 96/56/103 92/18/99 90/56/97
f 96/56/103 97/18/104 95/18/102
f 97/18/104 96/56/103 98/56/105
f 98/56/105 99/18/106 97/18/104
f 99/18/106 98/56/105 100/56/107
f 86/56/93 94/18/101 101/18/108
f 94/18/101 86/56/93 87/56/94
f 89/58/96 91/56/98 87/56/94
f 91/56/98 89/58/96 102/59/109
f 101/18/15 99/18/15 103/18/15
f 99/18/15 101/18/15 94/18/15
f 99/18/15 94/18/15 97/18/15
f 97/18/15 94/18/15 93/18/15
f 97/18/15 93/18/15 95/18/15
f 95/18/15 93/18/15 92/18/15
f 86/56/93 103/18/111 104/56/110
f 103/18/111 86/56/93 101/18/108
f 105/60/112 86/56/93 104/56/110
f 86/56/93 105/60/112 88/57/95
f 106/10/113 98/56/105 96/56/103
f 98/56/105 106/10/113 107/61/114
f 107/61/114 100/56/107 98/56/105
f 100/56/107 107/61/114 108/62/115
f 108/62/115 104/56/110 100/56/107
f 104/56/110 108/62/115 105/60/112
f 100/56/107 103/18/111 99/18/106
f 103/18/111 100/56/107 104/56/110
f 90/56/97 106/10/113 96/56/103
f 106/10/113 90/56/97 109/63/116
f 91/56/98 109/63/116 90/56/97
f 109/63/116 91/56/98 102/59/109

