mtllib pink_guns.mtl
o Body
g Body
usemtl PinkWhite
v 0.02728 0.01798 -0.88569
v 0.02690 0.00371 -0.95119
v -0.02690 0.00371 -0.95119
v -0.02728 0.01798 -0.88569
v 0.02699 -0.05617 -0.90834
v 0.02687 -0.09167 -0.91468
v 0.02707 -0.09770 -0.94200
v 0.02646 -0.06258 -0.95473
v -0.02646 -0.06258 -0.95473
v -0.02724 0.01095 -1.00755
v -0.02714 -0.03521 -1.00965
v -0.02716 -0.05629 -0.99182
v -0.02699 -0.05617 -0.90834
v 0.02694 -0.12586 -0.92924
v 0.02704 -0.15475 -0.91077
v -0.02704 -0.15475 -0.91077
v -0.02694 -0.12586 -0.92924
v -0.02687 -0.09167 -0.91468
v -0.02707 -0.09770 -0.94200
v -0.02700 -0.15584 -0.90732
v -0.02696 -0.15308 -0.90049
v -0.02697 -0.15109 -0.89971
v -0.02671 -0.12440 -0.91118
v 0.02697 -0.15109 -0.89971
v 0.02671 -0.12440 -0.91118
v 0.02696 -0.15308 -0.90049
v 0.02700 -0.15584 -0.90732
v 0.02716 -0.05629 -0.99182
v 0.02713 -0.03521 -1.00965
v 0.02723 0.01095 -1.00755
v -0.08166 0.09403 2.28108
v -0.07072 0.05320 2.28108
v -0.04083 0.02331 2.28108
v -0.00000 0.01237 2.28108
v 0.04083 0.02331 2.28108
v 0.07072 0.05320 2.28108
v 0.08166 0.09403 2.28108
v 0.07045 0.13596 2.28079
v 0.05056 0.17093 2.27953
v -0.05056 0.17093 2.27953
v -0.07045 0.13596 2.28079
v -0.08166 0.28095 2.28108
v -0.07045 0.23903 2.28079
v -0.05056 0.20405 2.27953
v 0.05056 0.20405 2.27953
v 0.07045 0.23903 2.28079
v 0.08166 0.28095 2.28108
v 0.07072 0.32178 2.28108
v 0.04083 0.35167 2.28108
v -0.00000 0.36262 2.28108
v -0.04083 0.35167 2.28108
v -0.07072 0.32178 2.28108
v -0.08166 0.09403 2.22007
v -0.07045 0.13596 2.22035
v -0.05056 0.17093 2.22162
v 0.05056 0.17093 2.22162
v 0.07045 0.13596 2.22035
v 0.08166 0.09403 2.22007
v 0.07072 0.05320 2.22007
v 0.04083 0.02331 2.22007
v -0.00000 0.01237 2.22007
v -0.04083 0.02331 2.22007
v -0.07072 0.05320 2.22007
v -0.08166 0.28095 2.22007
v -0.07072 0.32178 2.22007
v -0.04083 0.35167 2.22007
v -0.00000 0.36262 2.22007
v 0.04083 0.35167 2.22007
v 0.07072 0.32178 2.22007
v 0.08166 0.28095 2.22007
v 0.07045 0.23903 2.22035
v 0.05056 0.20405 2.22162
v -0.05056 0.20405 2.22162
v -0.07045 0.23903 2.22035
v -0.00912 0.40606 2.14664
v -0.00912 0.40606 2.19731
v 0.00912 0.40606 2.19731
v 0.00912 0.40606 2.14664
v -0.00912 0.33346 2.19731
v -0.00912 0.33346 2.10636
v 0.00912 0.33346 2.10636
v 0.00912 0.33346 2.19731
v 0.04881 0.35680 0.70504
v 0.04881 0.35680 0.64979
v -0.04881 0.35680 0.64979
v -0.04881 0.35680 0.70504
v 0.09768 0.05643 0.64979
v 0.08336 -0.00032 0.64979
v 0.04881 -0.02382 0.64979
v -0.04881 -0.02382 0.64979
v -0.08336 -0.00032 0.64979
v -0.09768 0.05643 0.64979
v -0.09768 0.27655 0.64979
v -0.08336 0.33329 0.64979
v 0.08336 0.33329 0.64979
v 0.09768 0.27655 0.64979
v -0.09768 0.27655 0.70504
v -0.09768 0.05643 0.70504
v -0.04881 -0.02382 0.70504
v 0.04881 -0.02382 0.70504
v 0.08336 -0.00032 0.70504
v 0.09768 0.05643 0.70504
v 0.09768 0.27655 0.70504
v 0.08336 0.33329 0.70504
v -0.08336 0.33329 0.70504
v -0.08336 -0.00032 0.70504
v -0.07068 0.27910 2.43499
v -0.06121 0.31443 2.43499
v -0.06121 0.31443 -0.19389
v -0.07068 0.27910 -0.19389
v -0.03534 0.34030 2.43499
v -0.03534 0.34030 -0.19389
v -0.00000 0.34977 2.43499
v -0.00000 0.34977 -0.19389
v 0.03534 0.34030 2.43499
v 0.03534 0.34030 -0.19389
v 0.06121 0.31443 2.43499
v 0.06121 0.31443 -0.19389
v 0.07068 0.27910 2.43499
v 0.07068 0.27910 -0.19389
v 0.06121 0.24376 2.43499
v 0.06121 0.24376 -0.19389
v 0.03534 0.21789 2.43499
v 0.03534 0.21789 -0.19389
v -0.00000 0.20842 2.43499
v -0.00000 0.20842 -0.19389
v -0.03534 0.21789 2.43499
v -0.03534 0.21789 -0.19389
v -0.06121 0.24376 2.43499
v -0.06121 0.24376 -0.19389
v -0.03982 0.21012 2.43670
v -0.06897 0.23927 2.43670
v -0.07068 0.09485 2.37172
v -0.06121 0.13019 2.37172
v -0.06121 0.13019 -0.19389
v -0.07068 0.09485 -0.19389
v -0.03534 0.15605 2.37172
v -0.03534 0.15605 -0.19389
v -0.00000 0.16552 2.37172
v -0.00000 0.16552 -0.19389
v 0.03534 0.15605 2.37172
v 0.03534 0.15605 -0.19389
v 0.06121 0.13019 2.37172
v 0.06121 0.13019 -0.19389
v 0.07068 0.09485 2.37172
v 0.07068 0.09485 -0.19389
v 0.06121 0.05951 2.37172
v 0.06121 0.05951 -0.19389
v 0.03534 0.03364 2.37172
v 0.03534 0.03364 -0.19389
v -0.00000 0.02417 2.37172
v -0.00000 0.02417 -0.19389
v -0.03534 0.03364 2.37172
v -0.03534 0.03364 -0.19389
v -0.06121 0.05951 2.37172
v -0.06121 0.05951 -0.19389
v 0.03982 0.21012 2.43670
v 0.03982 0.21012 2.52205
v -0.00000 0.19945 2.52205
v -0.00000 0.19945 2.43670
v -0.06897 0.31892 2.43670
v -0.03982 0.34807 2.43670
v 0.06897 0.23927 2.43670
v 0.07964 0.27910 2.43670
v 0.06897 0.31892 2.43670
v 0.03982 0.34807 2.43670
v -0.00000 0.35874 2.43670
v -0.07964 0.27910 2.43670
v -0.06897 0.31892 2.52205
v -0.06175 0.31475 2.52375
v -0.03565 0.34085 2.52375
v -0.03982 0.34807 2.52205
v 0.06897 0.31892 2.52205
v 0.07964 0.27910 2.52205
v -0.00000 0.35874 2.52205
v -0.03982 0.21012 2.52205
v 0.06897 0.23927 2.52205
v 0.03982 0.34807 2.52205
v -0.06897 0.23927 2.52205
v -0.07964 0.27910 2.52205
v -0.06175 0.24344 2.52375
v -0.06175 0.24344 2.60000
v -0.07131 0.27910 2.60000
v -0.07131 0.27910 2.52375
v 0.03565 0.21734 2.52375
v -0.00000 0.20779 2.52375
v 0.06175 0.31475 2.52375
v 0.07131 0.27910 2.52375
v -0.00000 0.35040 2.52375
v -0.03565 0.21734 2.52375
v 0.06175 0.24344 2.52375
v 0.03565 0.34085 2.52375
v 0.03565 0.34085 2.60000
v 0.02499 0.32239 2.60000
v 0.04329 0.30409 2.60000
v 0.06175 0.31475 2.60000
v -0.06175 0.31475 2.60000
v -0.03565 0.34085 2.60000
v 0.03565 0.21734 2.60000
v -0.00000 0.20779 2.60000
v 0.07131 0.27910 2.60000
v -0.00000 0.35040 2.60000
v -0.03565 0.21734 2.60000
v 0.06175 0.24344 2.60000
v 0.02499 0.32239 2.16569
v 0.04329 0.30409 2.16569
v -0.04329 0.25410 2.60000
v -0.04999 0.27910 2.60000
v -0.04329 0.30409 2.60000
v -0.02499 0.32239 2.60000
v 0.02499 0.23580 2.60000
v -0.00000 0.22911 2.60000
v 0.04999 0.27910 2.60000
v -0.00000 0.32908 2.60000
v -0.02499 0.23580 2.60000
v 0.04329 0.25410 2.60000
v -0.04999 0.27909 2.16569
v -0.04329 0.25410 2.16569
v -0.02499 0.23580 2.16569
v -0.00000 0.22911 2.16569
v 0.02499 0.23580 2.16569
v 0.04329 0.25410 2.16569
v 0.04999 0.27909 2.16569
v -0.00000 0.32908 2.16569
v -0.02499 0.32239 2.16569
v -0.04329 0.30409 2.16569
v 0.02217 0.23398 -1.14315
v 0.02217 0.28883 -1.02832
v -0.02217 0.28883 -1.02832
v -0.02217 0.23398 -1.14315
v 0.02217 0.33070 -1.05342
v 0.02217 0.32752 -1.13449
v 0.02217 0.35745 -1.10602
v 0.02217 0.37256 -1.07852
v -0.02217 0.33070 -1.05342
v -0.02217 0.37256 -1.07852
v 0.02217 0.42619 -1.09973
v -0.02217 0.42619 -1.09973
v -0.02217 0.42673 -1.07828
v 0.02217 0.42673 -1.07828
v -0.02217 0.39076 -1.11133
v -0.02217 0.39859 -1.08686
v -0.02217 0.32752 -1.13449
v -0.02217 0.35745 -1.10602
v 0.02217 0.39076 -1.11133
v 0.02217 0.39859 -1.08686
vt 0.02273 -0.73808
vt 0.02242 -0.79266
vt -0.02242 -0.79266
f 1/1 2/2 3/3
vt 0.02273 -0.73808
vt -0.02242 -0.79266
vt -0.02273 -0.73808
f 1/4 3/5 4/6
vt -0.75695 -0.04681
vt -0.76223 -0.07639
vt -0.78500 -0.08142
f 5/7 6/8 7/9
vt -0.75695 -0.04681
vt -0.78500 -0.08142
vt -0.79561 -0.05215
f 5/10 7/11 8/12
vt -0.79561 -0.05215
vt -0.79266 0.00309
vt -0.83962 0.00912
f 9/13 3/14 10/15
vt -0.79561 -0.05215
vt -0.83962 0.00912
vt -0.84137 -0.02934
f 9/16 10/17 11/18
vt -0.79561 -0.05215
vt -0.84137 -0.02934
vt -0.82652 -0.04691
f 9/19 11/20 12/21
vt -0.73808 0.01498
vt -0.75695 -0.04681
vt -0.79561 -0.05215
f 1/22 5/23 8/24
vt -0.73808 0.01498
vt -0.79561 -0.05215
vt -0.79266 0.00309
f 1/25 8/26 2/27
vt -0.79266 0.00309
vt -0.79561 -0.05215
vt -0.75695 -0.04681
f 3/28 9/29 13/30
vt -0.79266 0.00309
vt -0.75695 -0.04681
vt -0.73808 0.01498
f 3/31 13/32 4/33
vt 0.02245 -0.10488
vt 0.02253 -0.12896
vt -0.02253 -0.12896
f 14/34 15/35 16/36
vt 0.02245 -0.10488
vt -0.02253 -0.12896
vt -0.02245 -0.10488
f 14/37 16/38 17/39
vt -0.02249 -0.04681
vt -0.02239 -0.07639
vt 0.02239 -0.07639
f 13/40 18/41 6/42
vt -0.02249 -0.04681
vt 0.02239 -0.07639
vt 0.02249 -0.04681
f 13/43 6/44 5/45
vt 0.02205 -0.05215
vt 0.02256 -0.08142
vt -0.02256 -0.08142
f 8/46 7/47 19/48
vt 0.02205 -0.05215
vt -0.02256 -0.08142
vt -0.02205 -0.05215
f 8/49 19/50 9/51
vt -0.77437 -0.10488
vt -0.75897 -0.12896
vt -0.75610 -0.12987
f 17/52 16/53 20/54
vt -0.77437 -0.10488
vt -0.75610 -0.12987
vt -0.75041 -0.12757
f 17/55 20/56 21/57
vt -0.77437 -0.10488
vt -0.75041 -0.12757
vt -0.74976 -0.12591
f 17/58 21/59 22/60
vt -0.77437 -0.10488
vt -0.74976 -0.12591
vt -0.75932 -0.10367
f 17/61 22/62 23/63
vt -0.02226 -0.10367
vt -0.02248 -0.12591
vt 0.02248 -0.12591
f 23/64 22/65 24/66
vt -0.02226 -0.10367
vt 0.02248 -0.12591
vt 0.02226 -0.10367
f 23/67 24/68 25/69
vt 0.02247 -0.75041
vt -0.02247 -0.75041
vt -0.02250 -0.75610
f 26/70 21/71 20/72
vt 0.02247 -0.75041
vt -0.02250 -0.75610
vt 0.02250 -0.75610
f 26/73 20/74 27/75
vt -0.79561 -0.05215
vt -0.78500 -0.08142
vt -0.76223 -0.07639
f 9/76 19/77 18/78
vt -0.79561 -0.05215
vt -0.76223 -0.07639
vt -0.75695 -0.04681
f 9/79 18/80 13/81
vt -0.02273 0.01498
vt -0.02249 -0.04681
vt 0.02249 -0.04681
f 4/82 13/83 5/84
vt -0.02273 0.01498
vt 0.02249 -0.04681
vt 0.02273 0.01498
f 4/85 5/86 1/87
vt -0.79266 0.00309
vt -0.79561 -0.05215
vt -0.82652 -0.04691
f 2/88 8/89 28/90
vt -0.79266 0.00309
vt -0.82652 -0.04691
vt -0.84137 -0.02934
f 2/91 28/92 29/93
vt -0.79266 0.00309
vt -0.84137 -0.02934
vt -0.83962 0.00912
f 2/94 29/95 30/96
vt 0.02269 0.00912
vt 0.02261 -0.02934
vt -0.02262 -0.02934
f 30/97 29/98 11/99
vt 0.02269 0.00912
vt -0.02262 -0.02934
vt -0.02270 0.00912
f 30/100 11/101 10/102
vt -0.02242 -0.79266
vt 0.02242 -0.79266
vt 0.02269 -0.83962
f 3/103 2/104 30/105
vt -0.02242 -0.79266
vt 0.02269 -0.83962
vt -0.02270 -0.83962
f 3/106 30/107 10/108
vt 0.02263 -0.04691
vt -0.02263 -0.04691
vt -0.02262 -0.02934
f 28/109 12/110 11/111
vt 0.02263 -0.04691
vt -0.02262 -0.02934
vt 0.02261 -0.02934
f 28/112 11/113 29/114
vt 0.02205 -0.79561
vt -0.02205 -0.79561
vt -0.02263 -0.82652
f 8/115 9/116 12/117
vt 0.02205 -0.79561
vt -0.02263 -0.82652
vt 0.02263 -0.82652
f 8/118 12/119 28/120
vt 0.02239 -0.07639
vt -0.02239 -0.07639
vt -0.02226 -0.10367
f 6/121 18/122 23/123
vt 0.02239 -0.07639
vt -0.02226 -0.10367
vt 0.02226 -0.10367
f 6/124 23/125 25/126
vt -0.76223 -0.07639
vt -0.78500 -0.08142
vt -0.77437 -0.10488
f 18/127 19/128 17/129
vt -0.76223 -0.07639
vt -0.77437 -0.10488
vt -0.75932 -0.10367
f 18/130 17/131 23/132
vt -0.78500 -0.08142
vt -0.76223 -0.07639
vt -0.75932 -0.10367
f 7/133 6/134 25/135
vt -0.78500 -0.08142
vt -0.75932 -0.10367
vt -0.77437 -0.10488
f 7/136 25/137 14/138
vt -0.02256 -0.08142
vt 0.02256 -0.08142
vt 0.02245 -0.10488
f 19/139 7/140 14/141
vt -0.02256 -0.08142
vt 0.02245 -0.10488
vt -0.02245 -0.10488
f 19/142 14/143 17/144
vt -0.02247 -0.12757
vt 0.02247 -0.12757
vt 0.02248 -0.12591
f 21/145 26/146 24/147
vt -0.02247 -0.12757
vt 0.02248 -0.12591
vt -0.02248 -0.12591
f 21/148 24/149 22/150
vt 0.02250 -0.75610
vt -0.02250 -0.75610
vt -0.02253 -0.75897
f 27/151 20/152 16/153
vt 0.02250 -0.75610
vt -0.02253 -0.75897
vt 0.02253 -0.75897
f 27/154 16/155 15/156
vt -0.75932 -0.10367
vt -0.74976 -0.12591
vt -0.75041 -0.12757
f 25/157 24/158 26/159
vt -0.75932 -0.10367
vt -0.75041 -0.12757
vt -0.75610 -0.12987
f 25/160 26/161 27/162
vt -0.75932 -0.10367
vt -0.75610 -0.12987
vt -0.75897 -0.12896
f 25/163 27/164 15/165
vt -0.75932 -0.10367
vt -0.75897 -0.12896
vt -0.77437 -0.10488
f 25/166 15/167 14/168
vt -0.06805 0.07836
vt -0.05893 0.04433
vt -0.03402 0.01943
f 31/169 32/170 33/171
vt -0.06805 0.07836
vt -0.03402 0.01943
vt -0.00000 0.01031
f 31/172 33/173 34/174
vt -0.06805 0.07836
vt -0.00000 0.01031
vt 0.03402 0.01943
f 31/175 34/176 35/177
vt -0.06805 0.07836
vt 0.03402 0.01943
vt 0.05893 0.04433
f 31/178 35/179 36/180
vt -0.06805 0.07836
vt 0.05893 0.04433
vt 0.06805 0.07836
f 31/181 36/182 37/183
vt -0.06805 0.07836
vt 0.06805 0.07836
vt 0.05871 0.11330
f 31/184 37/185 38/186
vt -0.06805 0.07836
vt 0.05871 0.11330
vt 0.04213 0.14244
f 31/187 38/188 39/189
vt -0.06805 0.07836
vt 0.04213 0.14244
vt -0.04213 0.14244
f 31/190 39/191 40/192
vt -0.06805 0.07836
vt -0.04213 0.14244
vt -0.05871 0.11330
f 31/193 40/194 41/195
vt -0.06805 0.23412
vt -0.05871 0.19919
vt -0.04213 0.17004
f 42/196 43/197 44/198
vt -0.06805 0.23412
vt -0.04213 0.17004
vt 0.04213 0.17004
f 42/199 44/200 45/201
vt -0.06805 0.23412
vt 0.04213 0.17004
vt 0.05871 0.19919
f 42/202 45/203 46/204
vt -0.06805 0.23412
vt 0.05871 0.19919
vt 0.06805 0.23412
f 42/205 46/206 47/207
vt -0.06805 0.23412
vt 0.06805 0.23412
vt 0.05893 0.26815
f 42/208 47/209 48/210
vt -0.06805 0.23412
vt 0.05893 0.26815
vt 0.03402 0.29306
f 42/211 48/212 49/213
vt -0.06805 0.23412
vt 0.03402 0.29306
vt -0.00000 0.30218
f 42/214 49/215 50/216
vt -0.06805 0.23412
vt -0.00000 0.30218
vt -0.03402 0.29306
f 42/217 50/218 51/219
vt -0.06805 0.23412
vt -0.03402 0.29306
vt -0.05893 0.26815
f 42/220 51/221 52/222
vt -0.06805 0.07836
vt -0.05871 0.11330
vt -0.04213 0.14244
f 53/223 54/224 55/225
vt -0.06805 0.07836
vt -0.04213 0.14244
vt 0.04213 0.14244
f 53/226 55/227 56/228
vt -0.06805 0.07836
vt 0.04213 0.14244
vt 0.05871 0.11330
f 53/229 56/230 57/231
vt -0.06805 0.07836
vt 0.05871 0.11330
vt 0.06805 0.07836
f 53/232 57/233 58/234
vt -0.06805 0.07836
vt 0.06805 0.07836
vt 0.05893 0.04433
f 53/235 58/236 59/237
vt -0.06805 0.07836
vt 0.05893 0.04433
vt 0.03402 0.01943
f 53/238 59/239 60/240
vt -0.06805 0.07836
vt 0.03402 0.01943
vt -0.00000 0.01031
f 53/241 60/242 61/243
vt -0.06805 0.07836
vt -0.00000 0.01031
vt -0.03402 0.01943
f 53/244 61/245 62/246
vt -0.06805 0.07836
vt -0.03402 0.01943
vt -0.05893 0.04433
f 53/247 62/248 63/249
vt -0.06805 0.23412
vt -0.05893 0.26815
vt -0.03402 0.29306
f 64/250 65/251 66/252
vt -0.06805 0.23412
vt -0.03402 0.29306
vt -0.00000 0.30218
f 64/253 66/254 67/255
vt -0.06805 0.23412
vt -0.00000 0.30218
vt 0.03402 0.29306
f 64/256 67/257 68/258
vt -0.06805 0.23412
vt 0.03402 0.29306
vt 0.05893 0.26815
f 64/259 68/260 69/261
vt -0.06805 0.23412
vt 0.05893 0.26815
vt 0.06805 0.23412
f 64/262 69/263 70/264
vt -0.06805 0.23412
vt 0.06805 0.23412
vt 0.05871 0.19919
f 64/265 70/266 71/267
vt -0.06805 0.23412
vt 0.05871 0.19919
vt 0.04213 0.17004
f 64/268 71/269 72/270
vt -0.06805 0.23412
vt 0.04213 0.17004
vt -0.04213 0.17004
f 64/271 72/272 73/273
vt -0.06805 0.23412
vt -0.04213 0.17004
vt -0.05871 0.19919
f 64/274 73/275 74/276
vt 0.04213 0.17004
vt -0.04213 0.17004
vt -0.04213 0.14244
f 45/277 44/278 40/279
vt 0.04213 0.17004
vt -0.04213 0.14244
vt 0.04213 0.14244
f 45/280 40/281 39/282
vt 0.04213 0.17004
vt 0.04213 0.14244
vt -0.04213 0.14244
f 72/283 56/284 55/285
vt 0.04213 0.17004
vt -0.04213 0.14244
vt -0.04213 0.17004
f 72/286 55/287 73/288
vt 0.03402 1.90090
vt -0.00000 1.90090
vt -0.00000 1.85006
f 35/289 34/290 61/291
vt 0.03402 1.90090
vt -0.00000 1.85006
vt 0.03402 1.85006
f 35/292 61/293 60/294
vt 1.90066 0.19919
vt 1.90090 0.23412
vt 1.85006 0.23412
f 43/295 42/296 64/297
vt 1.90066 0.19919
vt 1.85006 0.23412
vt 1.85029 0.19919
f 43/298 64/299 74/300
vt 1.90066 0.11330
vt 1.89961 0.14244
vt 1.85135 0.14244
f 41/301 40/302 55/303
vt 1.90066 0.11330
vt 1.85135 0.14244
vt 1.85029 0.11330
f 41/304 55/305 54/306
vt 0.03402 1.90090
vt 0.05893 1.90090
vt 0.05893 1.85006
f 49/307 48/308 69/309
vt 0.03402 1.90090
vt 0.05893 1.85006
vt 0.03402 1.85006
f 49/310 69/311 68/312
vt -0.00000 1.90090
vt -0.03402 1.90090
vt -0.03402 1.85006
f 34/313 33/314 62/315
vt -0.00000 1.90090
vt -0.03402 1.85006
vt -0.00000 1.85006
f 34/316 62/317 61/318
vt 1.89961 0.14244
vt 1.89961 0.17004
vt 1.85135 0.17004
f 40/319 44/320 73/321
vt 1.89961 0.14244
vt 1.85135 0.17004
vt 1.85135 0.14244
f 40/322 73/323 55/324
vt 1.90090 0.26815
vt 1.90090 0.23412
vt 1.85006 0.23412
f 48/325 47/326 70/327
vt 1.90090 0.26815
vt 1.85006 0.23412
vt 1.85006 0.26815
f 48/328 70/329 69/330
vt -0.03402 1.90090
vt -0.05893 1.90090
vt -0.05893 1.85006
f 33/331 32/332 63/333
vt -0.03402 1.90090
vt -0.05893 1.85006
vt -0.03402 1.85006
f 33/334 63/335 62/336
vt 1.90090 0.23412
vt 1.90066 0.19919
vt 1.85029 0.19919
f 47/337 46/338 71/339
vt 1.90090 0.23412
vt 1.85029 0.19919
vt 1.85006 0.23412
f 47/340 71/341 70/342
vt 1.90090 0.04433
vt 1.90090 0.07836
vt 1.85006 0.07836
f 32/343 31/344 53/345
vt 1.90090 0.04433
vt 1.85006 0.07836
vt 1.85006 0.04433
f 32/346 53/347 63/348
vt 1.89961 0.17004
vt 1.89961 0.14244
vt 1.85135 0.14244
f 45/349 39/350 56/351
vt 1.89961 0.17004
vt 1.85135 0.14244
vt 1.85135 0.17004
f 45/352 56/353 72/354
vt 1.89961 0.14244
vt 1.90066 0.11330
vt 1.85029 0.11330
f 39/355 38/356 57/357
vt 1.89961 0.14244
vt 1.85029 0.11330
vt 1.85135 0.14244
f 39/358 57/359 56/360
vt 1.90066 0.19919
vt 1.89961 0.17004
vt 1.85135 0.17004
f 46/361 45/362 72/363
vt 1.90066 0.19919
vt 1.85135 0.17004
vt 1.85029 0.19919
f 46/364 72/365 71/366
vt 1.90090 0.23412
vt 1.90090 0.26815
vt 1.85006 0.26815
f 42/367 52/368 65/369
vt 1.90090 0.23412
vt 1.85006 0.26815
vt 1.85006 0.23412
f 42/370 65/371 64/372
vt 1.90066 0.11330
vt 1.90090 0.07836
vt 1.85006 0.07836
f 38/373 37/374 58/375
vt 1.90066 0.11330
vt 1.85006 0.07836
vt 1.85029 0.11330
f 38/376 58/377 57/378
vt -0.05893 1.90090
vt -0.03402 1.90090
vt -0.03402 1.85006
f 52/379 51/380 66/381
vt -0.05893 1.90090
vt -0.03402 1.85006
vt -0.05893 1.85006
f 52/382 66/383 65/384
vt 1.90090 0.07836
vt 1.90090 0.04433
vt 1.85006 0.04433
f 37/385 36/386 59/387
vt 1.90090 0.07836
vt 1.85006 0.04433
vt 1.85006 0.07836
f 37/388 59/389 58/390
vt -0.03402 1.90090
vt -0.00000 1.90090
vt -0.00000 1.85006
f 51/391 50/392 67/393
vt -0.03402 1.90090
vt -0.00000 1.85006
vt -0.03402 1.85006
f 51/394 67/395 66/396
vt 0.05893 1.90090
vt 0.03402 1.90090
vt 0.03402 1.85006
f 36/397 35/398 60/399
vt 0.05893 1.90090
vt 0.03402 1.85006
vt 0.05893 1.85006
f 36/400 60/401 59/402
vt 1.89961 0.17004
vt 1.90066 0.19919
vt 1.85029 0.19919
f 44/403 43/404 74/405
vt 1.89961 0.17004
vt 1.85029 0.19919
vt 1.85135 0.17004
f 44/406 74/407 73/408
vt 1.90090 0.07836
vt 1.90066 0.11330
vt 1.85029 0.11330
f 31/409 41/410 54/411
vt 1.90090 0.07836
vt 1.85029 0.11330
vt 1.85006 0.07836
f 31/412 54/413 53/414
vt -0.00000 1.90090
vt 0.03402 1.90090
vt 0.03402 1.85006
f 50/415 49/416 68/417
vt -0.00000 1.90090
vt 0.03402 1.85006
vt -0.00000 1.85006
f 50/418 68/419 67/420
vt -0.00760 1.78887
vt -0.00760 1.83109
vt 0.00760 1.83109
f 75/421 76/422 77/423
vt -0.00760 1.78887
vt 0.00760 1.83109
vt 0.00760 1.78887
f 75/424 77/425 78/426
vt 1.83109 0.27788
vt 1.83109 0.33838
vt 1.78887 0.33838
f 79/427 76/428 75/429
vt 1.83109 0.27788
vt 1.78887 0.33838
vt 1.75530 0.27788
f 79/430 75/431 80/432
vt -0.00760 1.75530
vt 0.00760 1.75530
vt 0.00760 1.83109
f 80/433 81/434 82/435
vt -0.00760 1.75530
vt 0.00760 1.83109
vt -0.00760 1.83109
f 80/436 82/437 79/438
vt -0.00760 0.27788
vt -0.00760 0.33838
vt 0.00760 0.33838
f 80/439 75/440 78/441
vt -0.00760 0.27788
vt 0.00760 0.33838
vt 0.00760 0.27788
f 80/442 78/443 81/444
vt 0.00760 0.27788
vt 0.00760 0.33838
vt -0.00760 0.33838
f 82/445 77/446 76/447
vt 0.00760 0.27788
vt -0.00760 0.33838
vt -0.00760 0.27788
f 82/448 76/449 79/450
vt 1.75530 0.27788
vt 1.78887 0.33838
vt 1.83109 0.33838
f 81/451 78/452 77/453
vt 1.75530 0.27788
vt 1.83109 0.33838
vt 1.83109 0.27788
f 81/454 77/455 82/456
vt 0.04068 0.58753
vt 0.04068 0.54149
vt -0.04068 0.54149
f 83/457 84/458 85/459
vt 0.04068 0.58753
vt -0.04068 0.54149
vt -0.04068 0.58753
f 83/460 85/461 86/462
vt 0.08140 0.04703
vt 0.06947 -0.00027
vt 0.04068 -0.01985
f 87/463 88/464 89/465
vt 0.08140 0.04703
vt 0.04068 -0.01985
vt -0.04068 -0.01985
f 87/466 89/467 90/468
vt 0.08140 0.04703
vt -0.04068 -0.01985
vt -0.06947 -0.00027
f 87/469 90/470 91/471
vt 0.08140 0.04703
vt -0.06947 -0.00027
vt -0.08140 0.04703
f 87/472 91/473 92/474
vt 0.08140 0.04703
vt -0.08140 0.04703
vt -0.08140 0.23046
f 87/475 92/476 93/477
vt 0.08140 0.04703
vt -0.08140 0.23046
vt -0.06947 0.27774
f 87/478 93/479 94/480
vt 0.08140 0.04703
vt -0.06947 0.27774
vt -0.04068 0.29733
f 87/481 94/482 85/483
vt 0.08140 0.04703
vt -0.04068 0.29733
vt 0.04068 0.29733
f 87/484 85/485 84/486
vt 0.08140 0.04703
vt 0.04068 0.29733
vt 0.06947 0.27774
f 87/487 84/488 95/489
vt 0.08140 0.04703
vt 0.06947 0.27774
vt 0.08140 0.23046
f 87/490 95/491 96/492
vt 0.58753 0.23046
vt 0.54149 0.23046
vt 0.54149 0.04703
f 97/493 93/494 92/495
vt 0.58753 0.23046
vt 0.54149 0.04703
vt 0.58753 0.04703
f 97/496 92/497 98/498
vt -0.04068 0.58753
vt -0.04068 0.54149
vt 0.04068 0.54149
f 99/499 90/500 89/501
vt -0.04068 0.58753
vt 0.04068 0.54149
vt 0.04068 0.58753
f 99/502 89/503 100/504
vt 0.04068 -0.01985
vt 0.06947 -0.00027
vt 0.08140 0.04703
f 100/505 101/506 102/507
vt 0.04068 -0.01985
vt 0.08140 0.04703
vt 0.08140 0.23046
f 100/508 102/509 103/510
vt 0.04068 -0.01985
vt 0.08140 0.23046
vt 0.06947 0.27774
f 100/511 103/512 104/513
vt 0.04068 -0.01985
vt 0.06947 0.27774
vt 0.04068 0.29733
f 100/514 104/515 83/516
vt 0.04068 -0.01985
vt 0.04068 0.29733
vt -0.04068 0.29733
f 100/517 83/518 86/519
vt 0.04068 -0.01985
vt -0.04068 0.29733
vt -0.06947 0.27774
f 100/520 86/521 105/522
vt 0.04068 -0.01985
vt -0.06947 0.27774
vt -0.08140 0.23046
f 100/523 105/524 97/525
vt 0.04068 -0.01985
vt -0.08140 0.23046
vt -0.08140 0.04703
f 100/526 97/527 98/528
vt 0.04068 -0.01985
vt -0.08140 0.04703
vt -0.06947 -0.00027
f 100/529 98/530 106/531
vt 0.04068 -0.01985
vt -0.06947 -0.00027
vt -0.04068 -0.01985
f 100/532 106/533 99/534
vt 0.58753 0.04703
vt 0.54149 0.04703
vt 0.54149 -0.00027
f 98/535 92/536 91/537
vt 0.58753 0.04703
vt 0.54149 -0.00027
vt 0.58753 -0.00027
f 98/538 91/539 106/540
vt -0.06947 0.58753
vt -0.06947 0.54149
vt -0.04068 0.54149
f 106/541 91/542 90/543
vt -0.06947 0.58753
vt -0.04068 0.54149
vt -0.04068 0.58753
f 106/544 90/545 99/546
vt 0.54149 0.23046
vt 0.58753 0.23046
vt 0.58753 0.27774
f 93/547 97/548 105/549
vt 0.54149 0.23046
vt 0.58753 0.27774
vt 0.54149 0.27774
f 93/550 105/551 94/552
vt -0.06947 0.54149
vt -0.06947 0.58753
vt -0.04068 0.58753
f 94/553 105/554 86/555
vt -0.06947 0.54149
vt -0.04068 0.58753
vt -0.04068 0.54149
f 94/556 86/557 85/558
vt 0.04068 0.58753
vt 0.04068 0.54149
vt 0.06947 0.54149
f 100/559 89/560 88/561
vt 0.04068 0.58753
vt 0.06947 0.54149
vt 0.06947 0.58753
f 100/562 88/563 101/564
vt 0.58753 -0.00027
vt 0.54149 -0.00027
vt 0.54149 0.04703
f 101/565 88/566 87/567
vt 0.58753 -0.00027
vt 0.54149 0.04703
vt 0.58753 0.04703
f 101/568 87/569 102/570
vt 0.04068 0.54149
vt 0.04068 0.58753
vt 0.06947 0.58753
f 84/571 83/572 104/573
vt 0.04068 0.54149
vt 0.06947 0.58753
vt 0.06947 0.54149
f 84/574 104/575 95/576
vt 0.54149 0.27774
vt 0.58753 0.27774
vt 0.58753 0.23046
f 95/577 104/578 103/579
vt 0.54149 0.27774
vt 0.58753 0.23046
vt 0.54149 0.23046
f 95/580 103/581 96/582
vt 0.58753 0.04703
vt 0.54149 0.04703
vt 0.54149 0.23046
f 102/583 87/584 96/585
vt 0.58753 0.04703
vt 0.54149 0.23046
vt 0.58753 0.23046
f 102/586 96/587 103/588
vt 2.02916 0.23258
vt 2.02916 0.26203
vt -0.16158 0.26203
f 107/589 108/590 109/591
vt 2.02916 0.23258
vt -0.16158 0.26203
vt -0.16158 0.23258
f 107/592 109/593 110/594
vt 2.02916 0.26203
vt 2.02916 0.28358
vt -0.16158 0.28358
f 108/595 111/596 112/597
vt 2.02916 0.26203
vt -0.16158 0.28358
vt -0.16158 0.26203
f 108/598 112/599 109/600
vt -0.02945 2.02916
vt -0.00000 2.02916
vt -0.00000 -0.16158
f 111/601 113/602 114/603
vt -0.02945 2.02916
vt -0.00000 -0.16158
vt -0.02945 -0.16158
f 111/604 114/605 112/606
vt -0.00000 2.02916
vt 0.02945 2.02916
vt 0.02945 -0.16158
f 113/607 115/608 116/609
vt -0.00000 2.02916
vt 0.02945 -0.16158
vt -0.00000 -0.16158
f 113/610 116/611 114/612
vt 2.02916 0.28358
vt 2.02916 0.26203
vt -0.16158 0.26203
f 115/613 117/614 118/615
vt 2.02916 0.28358
vt -0.16158 0.26203
vt -0.16158 0.28358
f 115/616 118/617 116/618
vt 2.02916 0.26203
vt 2.02916 0.23258
vt -0.16158 0.23258
f 117/619 119/620 120/621
vt 2.02916 0.26203
vt -0.16158 0.23258
vt -0.16158 0.26203
f 117/622 120/623 118/624
vt 2.02916 0.23258
vt 2.02916 0.20313
vt -0.16158 0.20313
f 119/625 121/626 122/627
vt 2.02916 0.23258
vt -0.16158 0.20313
vt -0.16158 0.23258
f 119/628 122/629 120/630
vt 2.02916 0.20313
vt 2.02916 0.18158
vt -0.16158 0.18158
f 121/631 123/632 124/633
vt 2.02916 0.20313
vt -0.16158 0.18158
vt -0.16158 0.20313
f 121/634 124/635 122/636
vt 0.02945 2.02916
vt -0.00000 2.02916
vt -0.00000 -0.16158
f 123/637 125/638 126/639
vt 0.02945 2.02916
vt -0.00000 -0.16158
vt 0.02945 -0.16158
f 123/640 126/641 124/642
vt -0.00000 2.02916
vt -0.02945 2.02916
vt -0.02945 -0.16158
f 125/643 127/644 128/645
vt -0.00000 2.02916
vt -0.02945 -0.16158
vt -0.00000 -0.16158
f 125/646 128/647 126/648
vt 2.02916 0.18158
vt 2.02916 0.20313
vt -0.16158 0.20313
f 127/649 129/650 130/651
vt 2.02916 0.18158
vt -0.16158 0.20313
vt -0.16158 0.18158
f 127/652 130/653 128/654
vt 2.02916 0.20313
vt 2.02916 0.23258
vt -0.16158 0.23258
f 129/655 107/656 110/657
vt 2.02916 0.20313
vt -0.16158 0.23258
vt -0.16158 0.20313
f 129/658 110/659 130/660
vt -0.02945 0.18158
vt -0.03318 0.17510
vt -0.05748 0.19939
f 127/661 131/662 132/663
vt -0.02945 0.18158
vt -0.05748 0.19939
vt -0.05101 0.20313
f 127/664 132/665 129/666
vt 1.97643 0.07904
vt 1.97643 0.10849
vt -0.16158 0.10849
f 133/667 134/668 135/669
vt 1.97643 0.07904
vt -0.16158 0.10849
vt -0.16158 0.07904
f 133/670 135/671 136/672
vt -0.05101 1.97643
vt -0.02945 1.97643
vt -0.02945 -0.16158
f 134/673 137/674 138/675
vt -0.05101 1.97643
vt -0.02945 -0.16158
vt -0.05101 -0.16158
f 134/676 138/677 135/678
vt -0.02945 1.97643
vt -0.00000 1.97643
vt -0.00000 -0.16158
f 137/679 139/680 140/681
vt -0.02945 1.97643
vt -0.00000 -0.16158
vt -0.02945 -0.16158
f 137/682 140/683 138/684
vt -0.00000 1.97643
vt 0.02945 1.97643
vt 0.02945 -0.16158
f 139/685 141/686 142/687
vt -0.00000 1.97643
vt 0.02945 -0.16158
vt -0.00000 -0.16158
f 139/688 142/689 140/690
vt 0.02945 1.97643
vt 0.05101 1.97643
vt 0.05101 -0.16158
f 141/691 143/692 144/693
vt 0.02945 1.97643
vt 0.05101 -0.16158
vt 0.02945 -0.16158
f 141/694 144/695 142/696
vt 1.97643 0.10849
vt 1.97643 0.07904
vt -0.16158 0.07904
f 143/697 145/698 146/699
vt 1.97643 0.10849
vt -0.16158 0.07904
vt -0.16158 0.10849
f 143/700 146/701 144/702
vt 1.97643 0.07904
vt 1.97643 0.04959
vt -0.16158 0.04959
f 145/703 147/704 148/705
vt 1.97643 0.07904
vt -0.16158 0.04959
vt -0.16158 0.07904
f 145/706 148/707 146/708
vt 1.97643 0.04959
vt 1.97643 0.02803
vt -0.16158 0.02803
f 147/709 149/710 150/711
vt 1.97643 0.04959
vt -0.16158 0.02803
vt -0.16158 0.04959
f 147/712 150/713 148/714
vt 0.02945 1.97643
vt -0.00000 1.97643
vt -0.00000 -0.16158
f 149/715 151/716 152/717
vt 0.02945 1.97643
vt -0.00000 -0.16158
vt 0.02945 -0.16158
f 149/718 152/719 150/720
vt -0.00000 1.97643
vt -0.02945 1.97643
vt -0.02945 -0.16158
f 151/721 153/722 154/723
vt -0.00000 1.97643
vt -0.02945 -0.16158
vt -0.00000 -0.16158
f 151/724 154/725 152/726
vt 1.97643 0.02803
vt 1.97643 0.04959
vt -0.16158 0.04959
f 153/727 155/728 156/729
vt 1.97643 0.02803
vt -0.16158 0.04959
vt -0.16158 0.02803
f 153/730 156/731 154/732
vt 1.97643 0.04959
vt 1.97643 0.07904
vt -0.16158 0.07904
f 155/733 133/734 136/735
vt 1.97643 0.04959
vt -0.16158 0.07904
vt -0.16158 0.04959
f 155/736 136/737 156/738
vt -0.05890 0.07904
vt -0.05101 0.04959
vt -0.02945 0.02803
f 133/739 155/740 153/741
vt -0.05890 0.07904
vt -0.02945 0.02803
vt -0.00000 0.02014
f 133/742 153/743 151/744
vt -0.05890 0.07904
vt -0.00000 0.02014
vt 0.02945 0.02803
f 133/745 151/746 149/747
vt -0.05890 0.07904
vt 0.02945 0.02803
vt 0.05101 0.04959
f 133/748 149/749 147/750
vt -0.05890 0.07904
vt 0.05101 0.04959
vt 0.05890 0.07904
f 133/751 147/752 145/753
vt -0.05890 0.07904
vt 0.05890 0.07904
vt 0.05101 0.10849
f 133/754 145/755 143/756
vt -0.05890 0.07904
vt 0.05101 0.10849
vt 0.02945 0.13004
f 133/757 143/758 141/759
vt -0.05890 0.07904
vt 0.02945 0.13004
vt -0.00000 0.13793
f 133/760 141/761 139/762
vt -0.05890 0.07904
vt -0.00000 0.13793
vt -0.02945 0.13004
f 133/763 139/764 137/765
vt -0.05890 0.07904
vt -0.02945 0.13004
vt -0.05101 0.10849
f 133/766 137/767 134/768
vt 0.03318 2.03058
vt 0.03318 2.10171
vt -0.00000 2.10171
f 157/769 158/770 159/771
vt 0.03318 2.03058
vt -0.00000 2.10171
vt -0.00000 2.03058
f 157/772 159/773 160/774
vt -0.05101 0.26203
vt -0.05748 0.26577
vt -0.03318 0.29006
f 108/775 161/776 162/777
vt -0.05101 0.26203
vt -0.03318 0.29006
vt -0.02945 0.28358
f 108/778 162/779 111/780
vt -0.00000 0.17368
vt -0.00000 0.16621
vt -0.03318 0.17510
f 125/781 160/782 131/783
vt -0.00000 0.17368
vt -0.03318 0.17510
vt -0.02945 0.18158
f 125/784 131/785 127/786
vt 0.02945 0.18158
vt 0.03318 0.17510
vt -0.00000 0.16621
f 123/787 157/788 160/789
vt 0.02945 0.18158
vt -0.00000 0.16621
vt -0.00000 0.17368
f 123/790 160/791 125/792
vt 0.05101 0.20313
vt 0.05748 0.19939
vt 0.03318 0.17510
f 121/793 163/794 157/795
vt 0.05101 0.20313
vt 0.03318 0.17510
vt 0.02945 0.18158
f 121/796 157/797 123/798
vt 0.05890 0.23258
vt 0.06637 0.23258
vt 0.05748 0.19939
f 119/799 164/800 163/801
vt 0.05890 0.23258
vt 0.05748 0.19939
vt 0.05101 0.20313
f 119/802 163/803 121/804
vt 0.05101 0.26203
vt 0.05748 0.26577
vt 0.06637 0.23258
f 117/805 165/806 164/807
vt 0.05101 0.26203
vt 0.06637 0.23258
vt 0.05890 0.23258
f 117/808 164/809 119/810
vt 0.02945 0.28358
vt 0.03318 0.29006
vt 0.05748 0.26577
f 115/811 166/812 165/813
vt 0.02945 0.28358
vt 0.05748 0.26577
vt 0.05101 0.26203
f 115/814 165/815 117/816
vt -0.00000 0.29148
vt -0.00000 0.29895
vt 0.03318 0.29006
f 113/817 167/818 166/819
vt -0.00000 0.29148
vt 0.03318 0.29006
vt 0.02945 0.28358
f 113/820 166/821 115/822
vt -0.05101 0.20313
vt -0.05748 0.19939
vt -0.06637 0.23258
f 129/823 132/824 168/825
vt -0.05101 0.20313
vt -0.06637 0.23258
vt -0.05890 0.23258
f 129/826 168/827 107/828
vt -0.05890 0.23258
vt -0.06637 0.23258
vt -0.05748 0.26577
f 107/829 168/830 161/831
vt -0.05890 0.23258
vt -0.05748 0.26577
vt -0.05101 0.26203
f 107/832 161/833 108/834
vt -0.02945 0.28358
vt -0.03318 0.29006
vt -0.00000 0.29895
f 111/835 162/836 167/837
vt -0.02945 0.28358
vt -0.00000 0.29895
vt -0.00000 0.29148
f 111/838 167/839 113/840
vt -0.05748 0.26577
vt -0.05146 0.26229
vt -0.02971 0.28404
f 169/841 170/842 171/843
vt -0.05748 0.26577
vt -0.02971 0.28404
vt -0.03318 0.29006
f 169/844 171/845 172/846
vt 2.03058 0.26577
vt 2.10171 0.26577
vt 2.10171 0.23258
f 165/847 173/848 174/849
vt 2.03058 0.26577
vt 2.10171 0.23258
vt 2.03058 0.23258
f 165/850 174/851 164/852
vt -0.03318 2.03058
vt -0.03318 2.10171
vt -0.00000 2.10171
f 162/853 172/854 175/855
vt -0.03318 2.03058
vt -0.00000 2.10171
vt -0.00000 2.03058
f 162/856 175/857 167/858
vt -0.00000 2.03058
vt -0.00000 2.10171
vt -0.03318 2.10171
f 160/859 159/860 176/861
vt -0.00000 2.03058
vt -0.03318 2.10171
vt -0.03318 2.03058
f 160/862 176/863 131/864
vt 2.03058 0.23258
vt 2.10171 0.23258
vt 2.10171 0.19939
f 164/865 174/866 177/867
vt 2.03058 0.23258
vt 2.10171 0.19939
vt 2.03058 0.19939
f 164/868 177/869 163/870
vt -0.00000 2.03058
vt -0.00000 2.10171
vt 0.03318 2.10171
f 167/871 175/872 178/873
vt -0.00000 2.03058
vt 0.03318 2.10171
vt 0.03318 2.03058
f 167/874 178/875 166/876
vt 2.03058 0.17510
vt 2.10171 0.17510
vt 2.10171 0.19939
f 131/877 176/878 179/879
vt 2.03058 0.17510
vt 2.10171 0.19939
vt 2.03058 0.19939
f 131/880 179/881 132/882
vt 2.03058 0.23258
vt 2.10171 0.23258
vt 2.10171 0.26577
f 168/883 180/884 169/885
vt 2.03058 0.23258
vt 2.10171 0.26577
vt 2.03058 0.26577
f 168/886 169/887 161/888
vt 2.03058 0.19939
vt 2.10171 0.19939
vt 2.10171 0.17510
f 163/889 177/890 158/891
vt 2.03058 0.19939
vt 2.10171 0.17510
vt 2.03058 0.17510
f 163/892 158/893 157/894
vt 2.03058 0.29006
vt 2.10171 0.29006
vt 2.10171 0.26577
f 166/895 178/896 173/897
vt 2.03058 0.29006
vt 2.10171 0.26577
vt 2.03058 0.26577
f 166/898 173/899 165/900
vt 2.03058 0.19939
vt 2.10171 0.19939
vt 2.10171 0.23258
f 132/901 179/902 180/903
vt 2.03058 0.19939
vt 2.10171 0.23258
vt 2.03058 0.23258
f 132/904 180/905 168/906
vt 2.03058 0.26577
vt 2.10171 0.26577
vt 2.10171 0.29006
f 161/907 169/908 172/909
vt 2.03058 0.26577
vt 2.10171 0.29006
vt 2.03058 0.29006
f 161/910 172/911 162/912
vt 2.10313 0.20287
vt 2.16667 0.20287
vt 2.16667 0.23258
f 181/913 182/914 183/915
vt 2.10313 0.20287
vt 2.16667 0.23258
vt 2.10313 0.23258
f 181/916 183/917 184/918
vt 0.03318 0.17510
vt 0.02971 0.18112
vt -0.00000 0.17316
f 158/919 185/920 186/921
vt 0.03318 0.17510
vt -0.00000 0.17316
vt -0.00000 0.16621
f 158/922 186/923 159/924
vt 0.05748 0.26577
vt 0.05146 0.26229
vt 0.05942 0.23258
f 173/925 187/926 188/927
vt 0.05748 0.26577
vt 0.05942 0.23258
vt 0.06637 0.23258
f 173/928 188/929 174/930
vt -0.03318 0.29006
vt -0.02971 0.28404
vt -0.00000 0.29200
f 172/931 171/932 189/933
vt -0.03318 0.29006
vt -0.00000 0.29200
vt -0.00000 0.29895
f 172/934 189/935 175/936
vt -0.00000 0.16621
vt -0.00000 0.17316
vt -0.02971 0.18112
f 159/937 186/938 190/939
vt -0.00000 0.16621
vt -0.02971 0.18112
vt -0.03318 0.17510
f 159/940 190/941 176/942
vt 0.06637 0.23258
vt 0.05942 0.23258
vt 0.05146 0.20287
f 174/943 188/944 191/945
vt 0.06637 0.23258
vt 0.05146 0.20287
vt 0.05748 0.19939
f 174/946 191/947 177/948
vt -0.00000 0.29895
vt -0.00000 0.29200
vt 0.02971 0.28404
f 175/949 189/950 192/951
vt -0.00000 0.29895
vt 0.02971 0.28404
vt 0.03318 0.29006
f 175/952 192/953 178/954
vt -0.03318 0.17510
vt -0.02971 0.18112
vt -0.05146 0.20287
f 176/955 190/956 181/957
vt -0.03318 0.17510
vt -0.05146 0.20287
vt -0.05748 0.19939
f 176/958 181/959 179/960
vt -0.06637 0.23258
vt -0.05942 0.23258
vt -0.05146 0.26229
f 180/961 184/962 170/963
vt -0.06637 0.23258
vt -0.05146 0.26229
vt -0.05748 0.26577
f 180/964 170/965 169/966
vt 0.05748 0.19939
vt 0.05146 0.20287
vt 0.02971 0.18112
f 177/967 191/968 185/969
vt 0.05748 0.19939
vt 0.02971 0.18112
vt 0.03318 0.17510
f 177/970 185/971 158/972
vt 0.03318 0.29006
vt 0.02971 0.28404
vt 0.05146 0.26229
f 178/973 192/974 187/975
vt 0.03318 0.29006
vt 0.05146 0.26229
vt 0.05748 0.26577
f 178/976 187/977 173/978
vt -0.05748 0.19939
vt -0.05146 0.20287
vt -0.05942 0.23258
f 179/979 181/980 184/981
vt -0.05748 0.19939
vt -0.05942 0.23258
vt -0.06637 0.23258
f 179/982 184/983 180/984
vt 0.02971 0.28404
vt 0.02082 0.26866
vt 0.03608 0.25341
f 193/985 194/986 195/987
vt 0.02971 0.28404
vt 0.03608 0.25341
vt 0.05146 0.26229
f 193/988 195/989 196/990
vt 2.10313 0.26229
vt 2.16667 0.26229
vt 2.16667 0.28404
f 170/991 197/992 198/993
vt 2.10313 0.26229
vt 2.16667 0.28404
vt 2.10313 0.28404
f 170/994 198/995 171/996
vt 0.02971 2.10313
vt 0.02971 2.16667
vt -0.00000 2.16667
f 185/997 199/998 200/999
vt 0.02971 2.10313
vt -0.00000 2.16667
vt -0.00000 2.10313
f 185/1000 200/1001 186/1002
vt 2.10313 0.26229
vt 2.16667 0.26229
vt 2.16667 0.23258
f 187/1003 196/1004 201/1005
vt 2.10313 0.26229
vt 2.16667 0.23258
vt 2.10313 0.23258
f 187/1006 201/1007 188/1008
vt -0.02971 2.10313
vt -0.02971 2.16667
vt -0.00000 2.16667
f 171/1009 198/1010 202/1011
vt -0.02971 2.10313
vt -0.00000 2.16667
vt -0.00000 2.10313
f 171/1012 202/1013 189/1014
vt -0.00000 2.10313
vt -0.00000 2.16667
vt -0.02971 2.16667
f 186/1015 200/1016 203/1017
vt -0.00000 2.10313
vt -0.02971 2.16667
vt -0.02971 2.10313
f 186/1018 203/1019 190/1020
vt 2.10313 0.23258
vt 2.16667 0.23258
vt 2.16667 0.20287
f 188/1021 201/1022 204/1023
vt 2.10313 0.23258
vt 2.16667 0.20287
vt 2.10313 0.20287
f 188/1024 204/1025 191/1026
vt -0.00000 2.10313
vt -0.00000 2.16667
vt 0.02971 2.16667
f 189/1027 202/1028 193/1029
vt -0.00000 2.10313
vt 0.02971 2.16667
vt 0.02971 2.10313
f 189/1030 193/1031 192/1032
vt -0.02971 2.10313
vt -0.02971 2.16667
vt -0.05146 2.16667
f 190/1033 203/1034 182/1035
vt -0.02971 2.10313
vt -0.05146 2.16667
vt -0.05146 2.10313
f 190/1036 182/1037 181/1038
vt 2.10313 0.23258
vt 2.16667 0.23258
vt 2.16667 0.26229
f 184/1039 183/1040 197/1041
vt 2.10313 0.23258
vt 2.16667 0.26229
vt 2.10313 0.26229
f 184/1042 197/1043 170/1044
vt 0.05146 2.10313
vt 0.05146 2.16667
vt 0.02971 2.16667
f 191/1045 204/1046 199/1047
vt 0.05146 2.10313
vt 0.02971 2.16667
vt 0.02971 2.10313
f 191/1048 199/1049 185/1050
vt 2.10313 0.28404
vt 2.16667 0.28404
vt 2.16667 0.26229
f 192/1051 193/1052 196/1053
vt 2.10313 0.28404
vt 2.16667 0.26229
vt 2.10313 0.26229
f 192/1054 196/1055 187/1056
vt 0.02082 2.16667
vt 0.02082 1.80474
vt 0.03608 1.80474
f 194/1057 205/1058 206/1059
vt 0.02082 2.16667
vt 0.03608 1.80474
vt 0.03608 2.16667
f 194/1060 206/1061 195/1062
vt -0.05146 0.20287
vt -0.03608 0.21175
vt -0.04166 0.23258
f 182/1063 207/1064 208/1065
vt -0.05146 0.20287
vt -0.04166 0.23258
vt -0.05942 0.23258
f 182/1066 208/1067 183/1068
vt -0.05146 0.26229
vt -0.03608 0.25341
vt -0.02082 0.26866
f 197/1069 209/1070 210/1071
vt -0.05146 0.26229
vt -0.02082 0.26866
vt -0.02971 0.28404
f 197/1072 210/1073 198/1074
vt 0.02971 0.18112
vt 0.02082 0.19650
vt -0.00000 0.19093
f 199/1075 211/1076 212/1077
vt 0.02971 0.18112
vt -0.00000 0.19093
vt -0.00000 0.17316
f 199/1078 212/1079 200/1080
vt 0.05146 0.26229
vt 0.03608 0.25341
vt 0.04166 0.23258
f 196/1081 195/1082 213/1083
vt 0.05146 0.26229
vt 0.04166 0.23258
vt 0.05942 0.23258
f 196/1084 213/1085 201/1086
vt -0.02971 0.28404
vt -0.02082 0.26866
vt -0.00000 0.27423
f 198/1087 210/1088 214/1089
vt -0.02971 0.28404
vt -0.00000 0.27423
vt -0.00000 0.29200
f 198/1090 214/1091 202/1092
vt -0.00000 0.17316
vt -0.00000 0.19093
vt -0.02082 0.19650
f 200/1093 212/1094 215/1095
vt -0.00000 0.17316
vt -0.02082 0.19650
vt -0.02971 0.18112
f 200/1096 215/1097 203/1098
vt 0.05942 0.23258
vt 0.04166 0.23258
vt 0.03608 0.21175
f 201/1099 213/1100 216/1101
vt 0.05942 0.23258
vt 0.03608 0.21175
vt 0.05146 0.20287
f 201/1102 216/1103 204/1104
vt -0.00000 0.29200
vt -0.00000 0.27423
vt 0.02082 0.26866
f 202/1105 214/1106 194/1107
vt -0.00000 0.29200
vt 0.02082 0.26866
vt 0.02971 0.28404
f 202/1108 194/1109 193/1110
vt -0.02971 0.18112
vt -0.02082 0.19650
vt -0.03608 0.21175
f 203/1111 215/1112 207/1113
vt -0.02971 0.18112
vt -0.03608 0.21175
vt -0.05146 0.20287
f 203/1114 207/1115 182/1116
vt -0.05942 0.23258
vt -0.04166 0.23258
vt -0.03608 0.25341
f 183/1117 208/1118 209/1119
vt -0.05942 0.23258
vt -0.03608 0.25341
vt -0.05146 0.26229
f 183/1120 209/1121 197/1122
vt 0.05146 0.20287
vt 0.03608 0.21175
vt 0.02082 0.19650
f 204/1123 216/1124 211/1125
vt 0.05146 0.20287
vt 0.02082 0.19650
vt 0.02971 0.18112
f 204/1126 211/1127 199/1128
vt -0.04166 0.23258
vt -0.03608 0.21175
vt -0.02082 0.19650
f 217/1129 218/1130 219/1131
vt -0.04166 0.23258
vt -0.02082 0.19650
vt -0.00000 0.19093
f 217/1132 219/1133 220/1134
vt -0.04166 0.23258
vt -0.00000 0.19093
vt 0.02082 0.19650
f 217/1135 220/1136 221/1137
vt -0.04166 0.23258
vt 0.02082 0.19650
vt 0.03608 0.21175
f 217/1138 221/1139 222/1140
vt -0.04166 0.23258
vt 0.03608 0.21175
vt 0.04166 0.23258
f 217/1141 222/1142 223/1143
vt -0.04166 0.23258
vt 0.04166 0.23258
vt 0.03608 0.25341
f 217/1144 223/1145 206/1146
vt -0.04166 0.23258
vt 0.03608 0.25341
vt 0.02082 0.26866
f 217/1147 206/1148 205/1149
vt -0.04166 0.23258
vt 0.02082 0.26866
vt -0.00000 0.27423
f 217/1150 205/1151 224/1152
vt -0.04166 0.23258
vt -0.00000 0.27423
vt -0.02082 0.26866
f 217/1153 224/1154 225/1155
vt -0.04166 0.23258
vt -0.02082 0.26866
vt -0.03608 0.25341
f 217/1156 225/1157 226/1158
vt 2.16667 0.21175
vt 1.80474 0.21175
vt 1.80474 0.23258
f 207/1159 218/1160 217/1161
vt 2.16667 0.21175
vt 1.80474 0.23258
vt 2.16667 0.23258
f 207/1162 217/1163 208/1164
vt -0.03608 2.16667
vt -0.03608 1.80474
vt -0.02082 1.80474
f 209/1165 226/1166 225/1167
vt -0.03608 2.16667
vt -0.02082 1.80474
vt -0.02082 2.16667
f 209/1168 225/1169 210/1170
vt 0.02082 2.16667
vt 0.02082 1.80474
vt -0.00000 1.80474
f 211/1171 221/1172 220/1173
vt 0.02082 2.16667
vt -0.00000 1.80474
vt -0.00000 2.16667
f 211/1174 220/1175 212/1176
vt 2.16667 0.25341
vt 1.80474 0.25341
vt 1.80474 0.23258
f 195/1177 206/1178 223/1179
vt 2.16667 0.25341
vt 1.80474 0.23258
vt 2.16667 0.23258
f 195/1180 223/1181 213/1182
vt -0.02082 2.16667
vt -0.02082 1.80474
vt -0.00000 1.80474
f 210/1183 225/1184 224/1185
vt -0.02082 2.16667
vt -0.00000 1.80474
vt -0.00000 2.16667
f 210/1186 224/1187 214/1188
vt -0.00000 2.16667
vt -0.00000 1.80474
vt -0.02082 1.80474
f 212/1189 220/1190 219/1191
vt -0.00000 2.16667
vt -0.02082 1.80474
vt -0.02082 2.16667
f 212/1192 219/1193 215/1194
vt 2.16667 0.23258
vt 1.80474 0.23258
vt 1.80474 0.21175
f 213/1195 223/1196 222/1197
vt 2.16667 0.23258
vt 1.80474 0.21175
vt 2.16667 0.21175
f 213/1198 222/1199 216/1200
vt -0.00000 2.16667
vt -0.00000 1.80474
vt 0.02082 1.80474
f 214/1201 224/1202 205/1203
vt -0.00000 2.16667
vt 0.02082 1.80474
vt 0.02082 2.16667
f 214/1204 205/1205 194/1206
vt -0.02082 2.16667
vt -0.02082 1.80474
vt -0.03608 1.80474
f 215/1207 219/1208 218/1209
vt -0.02082 2.16667
vt -0.03608 1.80474
vt -0.03608 2.16667
f 215/1210 218/1211 207/1212
vt 2.16667 0.23258
vt 1.80474 0.23258
vt 1.80474 0.25341
f 208/1213 217/1214 226/1215
vt 2.16667 0.23258
vt 1.80474 0.25341
vt 2.16667 0.25341
f 208/1216 226/1217 209/1218
vt 0.03608 2.16667
vt 0.03608 1.80474
vt 0.02082 1.80474
f 216/1219 222/1220 221/1221
vt 0.03608 2.16667
vt 0.02082 1.80474
vt 0.02082 2.16667
f 216/1222 221/1223 211/1224
vt 0.01847 -0.95263
vt 0.01847 -0.85693
vt -0.01847 -0.85693
f 227/1225 228/1226 229/1227
vt 0.01847 -0.95263
vt -0.01847 -0.85693
vt -0.01847 -0.95263
f 227/1228 229/1229 230/1230
vt -0.87785 0.27558
vt -0.94541 0.27293
vt -0.92168 0.29788
f 231/1231 232/1232 233/1233
vt -0.87785 0.27558
vt -0.92168 0.29788
vt -0.89877 0.31047
f 231/1234 233/1235 234/1236
vt -0.01847 0.27558
vt 0.01847 0.27558
vt 0.01847 0.31047
f 235/1237 231/1238 234/1239
vt -0.01847 0.27558
vt 0.01847 0.31047
vt -0.01847 0.31047
f 235/1240 234/1241 236/1242
vt 0.01847 -0.91644
vt -0.01847 -0.91644
vt -0.01847 -0.89857
f 237/1243 238/1244 239/1245
vt 0.01847 -0.91644
vt -0.01847 -0.89857
vt 0.01847 -0.89857
f 237/1246 239/1247 240/1248
vt -0.92611 0.32563
vt -0.90572 0.33216
vt -0.89857 0.35561
f 241/1249 242/1250 239/1251
vt -0.92611 0.32563
vt -0.89857 0.35561
vt -0.91644 0.35516
f 241/1252 239/1253 238/1254
vt -0.94541 0.27293
vt -0.87785 0.27558
vt -0.89877 0.31047
f 243/1255 235/1256 236/1257
vt -0.94541 0.27293
vt -0.89877 0.31047
vt -0.92168 0.29788
f 243/1258 236/1259 244/1260
vt 0.01847 0.19498
vt -0.01847 0.19498
vt -0.01847 0.27293
f 227/1261 230/1262 243/1263
vt 0.01847 0.19498
vt -0.01847 0.27293
vt 0.01847 0.27293
f 227/1264 243/1265 232/1266
vt -0.95263 0.19498
vt -0.85693 0.24069
vt -0.87785 0.27558
f 230/1267 229/1268 235/1269
vt -0.95263 0.19498
vt -0.87785 0.27558
vt -0.94541 0.27293
f 230/1270 235/1271 243/1272
vt 0.01847 0.32563
vt -0.01847 0.32563
vt -0.01847 0.35516
f 245/1273 241/1274 238/1275
vt 0.01847 0.32563
vt -0.01847 0.35516
vt 0.01847 0.35516
f 245/1276 238/1277 237/1278
vt -0.90572 0.33216
vt -0.92611 0.32563
vt -0.91644 0.35516
f 246/1279 245/1280 237/1281
vt -0.90572 0.33216
vt -0.91644 0.35516
vt -0.89857 0.35561
f 246/1282 237/1283 240/1284
vt -0.01847 0.33216
vt 0.01847 0.33216
vt 0.01847 0.35561
f 242/1285 246/1286 240/1287
vt -0.01847 0.33216
vt 0.01847 0.35561
vt -0.01847 0.35561
f 242/1288 240/1289 239/1290
vt -0.01847 0.31047
vt 0.01847 0.31047
vt 0.01847 0.33216
f 236/1291 234/1292 246/1293
vt -0.01847 0.31047
vt 0.01847 0.33216
vt -0.01847 0.33216
f 236/1294 246/1295 242/1296
vt -0.89877 0.31047
vt -0.92168 0.29788
vt -0.92611 0.32563
f 234/1297 233/1298 245/1299
vt -0.89877 0.31047
vt -0.92611 0.32563
vt -0.90572 0.33216
f 234/1300 245/1301 246/1302
vt 0.01847 0.29788
vt -0.01847 0.29788
vt -0.01847 0.32563
f 233/1303 244/1304 241/1305
vt 0.01847 0.29788
vt -0.01847 0.32563
vt 0.01847 0.32563
f 233/1306 241/1307 245/1308
vt -0.92168 0.29788
vt -0.89877 0.31047
vt -0.90572 0.33216
f 244/1309 236/1310 242/1311
vt -0.92168 0.29788
vt -0.90572 0.33216
vt -0.92611 0.32563
f 244/1312 242/1313 241/1314
vt 0.01847 0.27293
vt -0.01847 0.27293
vt -0.01847 0.29788
f 232/1315 243/1316 244/1317
vt 0.01847 0.27293
vt -0.01847 0.29788
vt 0.01847 0.29788
f 232/1318 244/1319 233/1320
vt -0.01847 0.24069
vt 0.01847 0.24069
vt 0.01847 0.27558
f 229/1321 228/1322 231/1323
vt -0.01847 0.24069
vt 0.01847 0.27558
vt -0.01847 0.27558
f 229/1324 231/1325 235/1326
vt -0.85693 0.24069
vt -0.95263 0.19498
vt -0.94541 0.27293
f 228/1327 227/1328 232/1329
vt -0.85693 0.24069
vt -0.94541 0.27293
vt -0.87785 0.27558
f 228/1330 232/1331 231/1332
o Grip
g Grip
usemtl Bubblegum
v -0.06976 0.16427 -1.21564
v -0.06976 0.00794 -1.21564
v -0.06976 0.02680 -1.01447
v -0.06976 0.29787 -1.02263
v 0.06976 0.00794 -1.21564
v 0.06976 0.02680 -1.01447
v 0.05098 -0.00341 -1.01367
v 0.05098 -0.02235 -1.21564
v 0.06976 -0.37987 -2.41748
v 0.06976 0.22573 -2.50773
v 0.06976 0.24827 -1.49140
v 0.06976 -0.03148 -1.49140
v 0.06976 0.16427 -1.21564
v 0.06976 0.29787 -1.02263
v 0.06976 0.15743 -1.28152
v 0.06976 -0.00015 -1.28152
v -0.05098 0.32763 -1.02342
v -0.05098 0.19468 -1.21564
v -0.05098 -0.06176 -1.49140
v -0.05098 -0.03043 -1.28152
v -0.06976 -0.00015 -1.28152
v -0.06976 -0.03148 -1.49140
v 0.05098 0.27871 -1.49140
v -0.05098 0.27871 -1.49140
v -0.05098 0.18786 -1.28152
v 0.05098 0.18786 -1.28152
v -0.05098 -0.02235 -1.21564
v -0.05098 -0.00341 -1.01367
v 0.05098 0.19468 -1.21564
v 0.05098 0.32763 -1.02342
v 0.05098 -0.06176 -1.49140
v 0.05098 -0.03043 -1.28152
v -0.06976 0.24827 -1.49140
v -0.06976 0.15743 -1.28152
v 0.05098 -0.41197 -2.42247
v -0.05098 -0.41197 -2.42247
v 0.05098 0.25589 -2.51891
v -0.05098 0.25589 -2.51891
v -0.06976 0.22573 -2.50773
v -0.06976 -0.37987 -2.41748
v -0.03318 -0.00984 -0.12287
v 0.03318 -0.00984 -0.12287
v 0.03318 -0.00984 0.84680
v -0.03318 -0.00984 0.84680
v 0.07574 0.05918 -0.12287
v 0.07574 0.21352 -0.12287
v 0.07574 0.21352 0.84680
v 0.07574 0.05918 0.84680
v 0.05452 0.24655 -0.12287
v -0.05452 0.24655 -0.12287
v -0.05452 0.24655 0.84680
v 0.05452 0.24655 0.84680
v 0.06328 0.01038 0.84680
v -0.07574 0.21352 0.84680
v -0.07574 0.05918 0.84680
v -0.06328 0.01038 0.84680
v 0.06328 0.01038 -0.12287
v -0.06328 0.01038 -0.12287
v -0.07574 0.05918 -0.12287
v -0.07574 0.21352 -0.12287
vt -1.01303 0.13689
vt -1.01303 0.00662
vt -0.84539 0.02233
f 247/1333 248/1334 249/1335
vt -1.01303 0.13689
vt -0.84539 0.02233
vt -0.85219 0.24823
f 247/1336 249/1337 250/1338
vt -1.01303 0.00662
vt -0.84539 0.02233
vt -0.84473 -0.00284
f 251/1339 252/1340 253/1341
vt -1.01303 0.00662
vt -0.84473 -0.00284
vt -1.01303 -0.01862
f 251/1342 253/1343 254/1344
vt -2.01457 -0.31656
vt -2.08977 0.18811
vt -1.24283 0.20689
f 255/1345 256/1346 257/1347
vt -2.01457 -0.31656
vt -1.24283 0.20689
vt -1.24283 -0.02623
f 255/1348 257/1349 258/1350
vt -1.01303 0.00662
vt -1.01303 0.13689
vt -0.85219 0.24823
f 251/1351 259/1352 260/1353
vt -1.01303 0.00662
vt -0.85219 0.24823
vt -0.84539 0.02233
f 251/1354 260/1355 252/1356
vt -1.24283 -0.02623
vt -1.24283 0.20689
vt -1.06793 0.13119
f 258/1357 257/1358 261/1359
vt -1.24283 -0.02623
vt -1.06793 0.13119
vt -1.06793 -0.00013
f 258/1360 261/1361 262/1362
vt -0.85285 0.27303
vt -1.01303 0.16223
vt -1.01303 0.13689
f 263/1363 264/1364 247/1365
vt -0.85285 0.27303
vt -1.01303 0.13689
vt -0.85219 0.24823
f 263/1366 247/1367 250/1368
vt -1.24283 -0.05147
vt -1.06793 -0.02536
vt -1.06793 -0.00013
f 265/1369 266/1370 267/1371
vt -1.24283 -0.05147
vt -1.06793 -0.00013
vt -1.24283 -0.02623
f 265/1372 267/1373 268/1374
vt 0.04248 -1.24283
vt -0.04248 -1.24283
vt -0.04248 -1.06793
f 269/1375 270/1376 271/1377
vt 0.04248 -1.24283
vt -0.04248 -1.06793
vt 0.04248 -1.06793
f 269/1378 271/1379 272/1380
vt -0.04248 -1.01303
vt 0.04248 -1.01303
vt 0.04248 -0.84473
f 273/1381 254/1382 253/1383
vt -0.04248 -1.01303
vt 0.04248 -0.84473
vt -0.04248 -0.84473
f 273/1384 253/1385 274/1386
vt -0.85219 0.24823
vt -1.01303 0.13689
vt -1.01303 0.16223
f 260/1387 259/1388 275/1389
vt -0.85219 0.24823
vt -1.01303 0.16223
vt -0.85285 0.27303
f 260/1390 275/1391 276/1392
vt -0.04248 -1.24283
vt 0.04248 -1.24283
vt 0.04248 -1.06793
f 265/1393 277/1394 278/1395
vt -0.04248 -1.24283
vt 0.04248 -1.06793
vt -0.04248 -1.06793
f 265/1396 278/1397 266/1398
vt -1.01303 -0.01862
vt -0.84473 -0.00284
vt -0.84539 0.02233
f 273/1399 274/1400 249/1401
vt -1.01303 -0.01862
vt -0.84539 0.02233
vt -1.01303 0.00662
f 273/1402 249/1403 248/1404
vt -1.24283 0.20689
vt -1.24283 -0.02623
vt -1.06793 -0.00013
f 279/1405 268/1406 267/1407
vt -1.24283 0.20689
vt -1.06793 -0.00013
vt -1.06793 0.13119
f 279/1408 267/1409 280/1410
vt -1.06793 0.15655
vt -1.24283 0.23226
vt -1.24283 0.20689
f 271/1411 270/1412 279/1413
vt -1.06793 0.15655
vt -1.24283 0.20689
vt -1.06793 0.13119
f 271/1414 279/1415 280/1416
vt -1.06793 -0.02536
vt -1.24283 -0.05147
vt -1.24283 -0.02623
f 278/1417 277/1418 258/1419
vt -1.06793 -0.02536
vt -1.24283 -0.02623
vt -1.06793 -0.00013
f 278/1420 258/1421 262/1422
vt 0.04248 -1.01303
vt -0.04248 -1.01303
vt -0.04248 -0.85285
f 275/1423 264/1424 263/1425
vt 0.04248 -1.01303
vt -0.04248 -0.85285
vt 0.04248 -0.85285
f 275/1426 263/1427 276/1428
vt -2.01457 -0.31656
vt -1.24283 -0.02623
vt -1.24283 -0.05147
f 255/1429 258/1430 277/1431
vt -2.01457 -0.31656
vt -1.24283 -0.05147
vt -2.01873 -0.34331
f 255/1432 277/1433 281/1434
vt 0.04248 -2.01873
vt 0.04248 -1.24283
vt -0.04248 -1.24283
f 281/1435 277/1436 265/1437
vt 0.04248 -2.01873
vt -0.04248 -1.24283
vt -0.04248 -2.01873
f 281/1438 265/1439 282/1440
vt -1.24283 0.20689
vt -2.08977 0.18811
vt -2.09909 0.21324
f 257/1441 256/1442 283/1443
vt -1.24283 0.20689
vt -2.09909 0.21324
vt -1.24283 0.23226
f 257/1444 283/1445 269/1446
vt -1.24283 0.23226
vt -2.09909 0.21324
vt -2.08977 0.18811
f 270/1447 284/1448 285/1449
vt -1.24283 0.23226
vt -2.08977 0.18811
vt -1.24283 0.20689
f 270/1450 285/1451 279/1452
vt -1.24283 -0.02623
vt -2.01457 -0.31656
vt -2.01873 -0.34331
f 268/1453 286/1454 282/1455
vt -1.24283 -0.02623
vt -2.01873 -0.34331
vt -1.24283 -0.05147
f 268/1456 282/1457 265/1458
vt 0.04248 -1.24283
vt 0.04248 -2.09909
vt -0.04248 -2.09909
f 269/1459 283/1460 284/1461
vt 0.04248 -1.24283
vt -0.04248 -2.09909
vt -0.04248 -1.24283
f 269/1462 284/1463 270/1464
vt -1.24283 -0.02623
vt -1.24283 0.20689
vt -2.08977 0.18811
f 268/1465 279/1466 285/1467
vt -1.24283 -0.02623
vt -2.08977 0.18811
vt -2.01457 -0.31656
f 268/1468 285/1469 286/1470
vt -1.01303 0.16223
vt -1.01303 0.13689
vt -1.06793 0.13119
f 275/1471 259/1472 261/1473
vt -1.01303 0.16223
vt -1.06793 0.13119
vt -1.06793 0.15655
f 275/1474 261/1475 272/1476
vt -1.01303 0.00662
vt -1.01303 -0.01862
vt -1.06793 -0.02536
f 251/1477 254/1478 278/1479
vt -1.01303 0.00662
vt -1.06793 -0.02536
vt -1.06793 -0.00013
f 251/1480 278/1481 262/1482
vt -1.01303 -0.01862
vt -1.01303 0.00662
vt -1.06793 -0.00013
f 273/1483 248/1484 267/1485
vt -1.01303 -0.01862
vt -1.06793 -0.00013
vt -1.06793 -0.02536
f 273/1486 267/1487 266/1488
vt -1.01303 0.13689
vt -1.01303 0.16223
vt -1.06793 0.15655
f 247/1489 264/1490 271/1491
vt -1.01303 0.13689
vt -1.06793 0.15655
vt -1.06793 0.13119
f 247/1492 271/1493 280/1494
vt 0.04248 -1.01303
vt -0.04248 -1.01303
vt -0.04248 -1.06793
f 254/1495 273/1496 266/1497
vt 0.04248 -1.01303
vt -0.04248 -1.06793
vt 0.04248 -1.06793
f 254/1498 266/1499 278/1500
vt -1.01303 0.00662
vt -1.01303 0.13689
vt -1.06793 0.13119
f 248/1501 247/1502 280/1503
vt -1.01303 0.00662
vt -1.06793 0.13119
vt -1.06793 -0.00013
f 248/1504 280/1505 267/1506
vt -0.04248 -1.01303
vt 0.04248 -1.01303
vt 0.04248 -1.06793
f 264/1507 275/1508 272/1509
vt -0.04248 -1.01303
vt 0.04248 -1.06793
vt -0.04248 -1.06793
f 264/1510 272/1511 271/1512
vt -1.01303 0.13689
vt -1.01303 0.00662
vt -1.06793 -0.00013
f 259/1513 251/1514 262/1515
vt -1.01303 0.13689
vt -1.06793 -0.00013
vt -1.06793 0.13119
f 259/1516 262/1517 261/1518
vt -1.24283 0.23226
vt -1.06793 0.15655
vt -1.06793 0.13119
f 269/1519 272/1520 261/1521
vt -1.24283 0.23226
vt -1.06793 0.13119
vt -1.24283 0.20689
f 269/1522 261/1523 257/1524
vt -0.02765 -0.10239
vt 0.02765 -0.10239
vt 0.02765 0.70567
f 287/1525 288/1526 289/1527
vt -0.02765 -0.10239
vt 0.02765 0.70567
vt -0.02765 0.70567
f 287/1528 289/1529 290/1530
vt -0.10239 0.04932
vt -0.10239 0.17793
vt 0.70567 0.17793
f 291/1531 292/1532 293/1533
vt -0.10239 0.04932
vt 0.70567 0.17793
vt 0.70567 0.04932
f 291/1534 293/1535 294/1536
vt 0.04543 -0.10239
vt -0.04543 -0.10239
vt -0.04543 0.70567
f 295/1537 296/1538 297/1539
vt 0.04543 -0.10239
vt -0.04543 0.70567
vt 0.04543 0.70567
f 295/1540 297/1541 298/1542
vt 0.02765 -0.00820
vt 0.05273 0.00865
vt 0.06312 0.04932
f 289/1543 299/1544 294/1545
vt 0.02765 -0.00820
vt 0.06312 0.04932
vt 0.06312 0.17793
f 289/1546 294/1547 293/1548
vt 0.02765 -0.00820
vt 0.06312 0.17793
vt 0.04543 0.20546
f 289/1549 293/1550 298/1551
vt 0.02765 -0.00820
vt 0.04543 0.20546
vt -0.04543 0.20546
f 289/1552 298/1553 297/1554
vt 0.02765 -0.00820
vt -0.04543 0.20546
vt -0.06312 0.17793
f 289/1555 297/1556 300/1557
vt 0.02765 -0.00820
vt -0.06312 0.17793
vt -0.06312 0.04932
f 289/1558 300/1559 301/1560
vt 0.02765 -0.00820
vt -0.06312 0.04932
vt -0.05273 0.00865
f 289/1561 301/1562 302/1563
vt 0.02765 -0.00820
vt -0.05273 0.00865
vt -0.02765 -0.00820
f 289/1564 302/1565 290/1566
vt 0.02765 0.70567
vt 0.02765 -0.10239
vt 0.05273 -0.10239
f 289/1567 288/1568 303/1569
vt 0.02765 0.70567
vt 0.05273 -0.10239
vt 0.05273 0.70567
f 289/1570 303/1571 299/1572
vt 0.70567 0.00865
vt -0.10239 0.00865
vt -0.10239 0.04932
f 299/1573 303/1574 291/1575
vt 0.70567 0.00865
vt -0.10239 0.04932
vt 0.70567 0.04932
f 299/1576 291/1577 294/1578
vt -0.02765 -0.10239
vt -0.02765 0.70567
vt -0.05273 0.70567
f 287/1579 290/1580 302/1581
vt -0.02765 -0.10239
vt -0.05273 0.70567
vt -0.05273 -0.10239
f 287/1582 302/1583 304/1584
vt -0.10239 0.00865
vt 0.70567 0.00865
vt 0.70567 0.04932
f 304/1585 302/1586 301/1587
vt -0.10239 0.00865
vt 0.70567 0.04932
vt -0.10239 0.04932
f 304/1588 301/1589 305/1590
vt -0.10239 0.17793
vt -0.10239 0.04932
vt 0.70567 0.04932
f 306/1591 305/1592 301/1593
vt -0.10239 0.17793
vt 0.70567 0.04932
vt 0.70567 0.17793
f 306/1594 301/1595 300/1596
vt -0.10239 0.17793
vt 0.70567 0.17793
vt 0.70567 0.20546
f 306/1597 300/1598 297/1599
vt -0.10239 0.17793
vt 0.70567 0.20546
vt -0.10239 0.20546
f 306/1600 297/1601 296/1602
vt 0.70567 0.17793
vt -0.10239 0.17793
vt -0.10239 0.20546
f 293/1603 292/1604 295/1605
vt 0.70567 0.17793
vt -0.10239 0.20546
vt 0.70567 0.20546
f 293/1606 295/1607 298/1608
vt 0.06312 0.04932
vt 0.05273 0.00865
vt 0.02765 -0.00820
f 291/1609 303/1610 288/1611
vt 0.06312 0.04932
vt 0.02765 -0.00820
vt -0.02765 -0.00820
f 291/1612 288/1613 287/1614
vt 0.06312 0.04932
vt -0.02765 -0.00820
vt -0.05273 0.00865
f 291/1615 287/1616 304/1617
vt 0.06312 0.04932
vt -0.05273 0.00865
vt -0.06312 0.04932
f 291/1618 304/1619 305/1620
vt 0.06312 0.04932
vt -0.06312 0.04932
vt -0.06312 0.17793
f 291/1621 305/1622 306/1623
vt 0.06312 0.04932
vt -0.06312 0.17793
vt -0.04543 0.20546
f 291/1624 306/1625 296/1626
vt 0.06312 0.04932
vt -0.04543 0.20546
vt 0.04543 0.20546
f 291/1627 296/1628 295/1629
vt 0.06312 0.04932
vt 0.04543 0.20546
vt 0.06312 0.17793
f 291/1630 295/1631 292/1632
o Hardware
g Hardware
usemtl PlumDark
v 0.06976 -0.37987 -2.41748
v 0.06976 0.22573 -2.50773
v 0.05098 -0.41197 -2.42247
v -0.05098 -0.41197 -2.42247
v 0.05098 0.25589 -2.51891
v -0.05098 0.25589 -2.51891
v -0.06976 0.22573 -2.50773
v -0.06976 -0.37987 -2.41748
v -0.05599 0.25692 -2.53340
v 0.05599 0.25692 -2.53340
v 0.05599 0.20744 -2.60000
v -0.05599 0.20744 -2.60000
v -0.07661 0.23887 -2.52117
v -0.07661 -0.40690 -2.43076
v 0.05599 -0.42673 -2.43668
v -0.05599 -0.42673 -2.43668
v -0.05599 -0.39269 -2.51173
v 0.05599 -0.39269 -2.51173
v 0.05723 0.33460 -1.04036
v -0.05723 0.33460 -1.04036
v -0.05723 0.36520 -0.88807
v 0.05723 0.36520 -0.88807
v -0.05723 0.36520 -0.10523
v 0.05723 0.36520 -0.10523
v -0.10404 0.29162 -0.88807
v -0.10404 0.00986 -0.88807
v -0.10404 0.00986 -0.10523
v -0.10404 0.29162 -0.10523
v 0.10404 0.00986 -0.88807
v 0.10404 0.29162 -0.88807
v 0.10404 0.29162 -0.10523
v 0.10404 0.00986 -0.10523
v -0.04216 -0.00772 -1.14002
v -0.04216 -0.00419 -0.99796
v 0.04216 -0.00419 -0.99796
v 0.04216 -0.00772 -1.14002
v 0.04081 -0.09390 -1.05676
v 0.03673 -0.09155 -1.01131
v 0.03163 -0.13485 -1.01925
v 0.03563 -0.13602 -1.04400
v -0.03673 -0.09155 -1.01131
v -0.04081 -0.09390 -1.05676
v -0.03163 -0.13485 -1.01925
v -0.03563 -0.13602 -1.04400
v -0.02832 -0.19318 -1.02058
v -0.02499 -0.17060 -0.99809
v 0.02832 -0.19318 -1.02058
v 0.02499 -0.17060 -0.99809
v 0.02059 -0.18313 -0.95282
v 0.02059 -0.21859 -0.96034
v -0.02059 -0.18313 -0.95282
v -0.02059 -0.18681 -0.88660
v 0.02059 -0.18681 -0.88660
v -0.02059 -0.21859 -0.96034
v -0.02059 -0.21929 -0.88597
v -0.02059 -0.21403 -0.81497
v -0.02059 -0.18679 -0.81419
v 0.02059 -0.21929 -0.88597
v 0.02059 -0.21403 -0.81497
v 0.02059 -0.18679 -0.81419
v 0.02059 -0.17290 -0.76281
v 0.02059 -0.19634 -0.74530
v -0.02059 -0.17290 -0.76281
v -0.02059 -0.19634 -0.74530
v -0.02950 -0.12916 -0.70636
v -0.02612 -0.12650 -0.73606
v -0.04017 -0.07230 -0.67833
v -0.03585 -0.07230 -0.73717
v 0.02950 -0.12916 -0.70636
v 0.02612 -0.12650 -0.73606
v 0.04017 -0.07230 -0.67833
v 0.03585 -0.07230 -0.73717
v 0.04041 -0.03980 -0.75459
v 0.04216 -0.03980 -0.66092
v -0.04041 -0.03980 -0.75459
v -0.04216 -0.03980 -0.66092
v -0.04216 -0.00323 -0.65448
v -0.04216 -0.00323 -0.76102
v 0.04216 -0.00323 -0.65448
v 0.04216 -0.00323 -0.76102
v 0.07661 -0.37670 -2.47963
v 0.07661 -0.40690 -2.43076
v -0.07661 -0.37670 -2.47963
v -0.07661 0.19492 -2.56790
v 0.07661 0.23887 -2.52117
v 0.07661 0.19492 -2.56790
v 0.10404 0.00986 -1.04036
v 0.10404 0.26102 -1.04036
v 0.07877 -0.02947 -0.10523
v -0.07877 -0.02947 -0.10523
v -0.07877 -0.02947 -1.04036
v 0.07877 -0.02947 -1.04036
v 0.07877 -0.02947 -0.88807
v -0.07877 -0.02947 -0.88807
v -0.10404 0.26102 -1.04036
v -0.10404 0.00986 -1.04036
v -0.11080 0.00471 -0.11341
v -0.11080 0.00471 -0.05297
v -0.11080 0.29505 -0.05297
v -0.11080 0.29505 -0.11341
v 0.11080 0.00471 -0.11341
v 0.08233 -0.03961 -0.11341
v -0.08233 -0.03961 -0.11341
v -0.06355 0.37258 -0.11341
v 0.06355 0.37258 -0.11341
v 0.11080 0.29505 -0.11341
v -0.06355 0.37258 -0.05297
v 0.06355 0.37258 -0.05297
v -0.08233 -0.03961 -0.05297
v 0.08233 -0.03961 -0.05297
v 0.11080 0.00471 -0.05297
v 0.11080 0.29505 -0.05297
vt -0.04666 -2.11117
vt 0.04666 -2.11117
vt 0.04666 -2.16667
f 315/1633 316/1634 317/1635
vt -0.04666 -2.11117
vt 0.04666 -2.16667
vt -0.04666 -2.16667
f 315/1636 317/1637 318/1638
vt -2.01457 -0.31656
vt -2.08977 0.18811
vt -2.10098 0.19906
f 314/1639 313/1640 319/1641
vt -2.01457 -0.31656
vt -2.10098 0.19906
vt -2.02563 -0.33908
f 314/1642 319/1643 320/1644
vt 0.04248 -2.09909
vt 0.04666 -2.11117
vt -0.04666 -2.11117
f 311/1645 316/1646 315/1647
vt 0.04248 -2.09909
vt -0.04666 -2.11117
vt -0.04248 -2.09909
f 311/1648 315/1649 312/1650
vt 0.04666 -2.03057
vt -0.04666 -2.03057
vt -0.04666 -2.09311
f 321/1651 322/1652 323/1653
vt 0.04666 -2.03057
vt -0.04666 -2.09311
vt 0.04666 -2.09311
f 321/1654 323/1655 324/1656
vt 0.04769 -0.86697
vt -0.04769 -0.86697
vt -0.04769 -0.74006
f 325/1657 326/1658 327/1659
vt 0.04769 -0.86697
vt -0.04769 -0.74006
vt 0.04769 -0.74006
f 325/1660 327/1661 328/1662
vt 0.04769 -0.74006
vt -0.04769 -0.74006
vt -0.04769 -0.08769
f 328/1663 327/1664 329/1665
vt 0.04769 -0.74006
vt -0.04769 -0.08769
vt 0.04769 -0.08769
f 328/1666 329/1667 330/1668
vt -0.74006 0.24302
vt -0.74006 0.00822
vt -0.08769 0.00822
f 331/1669 332/1670 333/1671
vt -0.74006 0.24302
vt -0.08769 0.00822
vt -0.08769 0.24302
f 331/1672 333/1673 334/1674
vt -0.74006 0.00822
vt -0.74006 0.24302
vt -0.08769 0.24302
f 335/1675 336/1676 337/1677
vt -0.74006 0.00822
vt -0.08769 0.24302
vt -0.08769 0.00822
f 335/1678 337/1679 338/1680
vt -0.03513 -0.95002
vt -0.03513 -0.83163
vt 0.03513 -0.83163
f 339/1681 340/1682 341/1683
vt -0.03513 -0.95002
vt 0.03513 -0.83163
vt 0.03513 -0.95002
f 339/1684 341/1685 342/1686
vt -0.88063 -0.07825
vt -0.84276 -0.07629
vt -0.84937 -0.11238
f 343/1687 344/1688 345/1689
vt -0.88063 -0.07825
vt -0.84937 -0.11238
vt -0.87000 -0.11335
f 343/1690 345/1691 346/1692
vt -0.95002 -0.00643
vt -0.83163 -0.00349
vt -0.84276 -0.07629
f 342/1693 341/1694 344/1695
vt -0.95002 -0.00643
vt -0.84276 -0.07629
vt -0.88063 -0.07825
f 342/1696 344/1697 343/1698
vt 0.03513 -0.00349
vt -0.03513 -0.00349
vt -0.03061 -0.07629
f 341/1699 340/1700 347/1701
vt 0.03513 -0.00349
vt -0.03061 -0.07629
vt 0.03061 -0.07629
f 341/1702 347/1703 344/1704
vt -0.83163 -0.00349
vt -0.95002 -0.00643
vt -0.88063 -0.07825
f 340/1705 339/1706 348/1707
vt -0.83163 -0.00349
vt -0.88063 -0.07825
vt -0.84276 -0.07629
f 340/1708 348/1709 347/1710
vt -0.03513 -0.00643
vt 0.03513 -0.00643
vt 0.03401 -0.07825
f 339/1711 342/1712 343/1713
vt -0.03513 -0.00643
vt 0.03401 -0.07825
vt -0.03401 -0.07825
f 339/1714 343/1715 348/1716
vt -0.84937 -0.11238
vt -0.87000 -0.11335
vt -0.85048 -0.16098
f 349/1717 350/1718 351/1719
vt -0.84937 -0.11238
vt -0.85048 -0.16098
vt -0.83174 -0.14217
f 349/1720 351/1721 352/1722
vt 0.03061 -0.07629
vt -0.03061 -0.07629
vt -0.02636 -0.11238
f 344/1723 347/1724 349/1725
vt 0.03061 -0.07629
vt -0.02636 -0.11238
vt 0.02636 -0.11238
f 344/1726 349/1727 345/1728
vt -0.84276 -0.07629
vt -0.88063 -0.07825
vt -0.87000 -0.11335
f 347/1729 348/1730 350/1731
vt -0.84276 -0.07629
vt -0.87000 -0.11335
vt -0.84937 -0.11238
f 347/1732 350/1733 349/1734
vt -0.03401 -0.07825
vt 0.03401 -0.07825
vt 0.02969 -0.11335
f 348/1735 343/1736 346/1737
vt -0.03401 -0.07825
vt 0.02969 -0.11335
vt -0.02969 -0.11335
f 348/1738 346/1739 350/1740
vt -0.85048 -0.16098
vt -0.83174 -0.14217
vt -0.79402 -0.15261
f 353/1741 354/1742 355/1743
vt -0.85048 -0.16098
vt -0.79402 -0.15261
vt -0.80028 -0.18216
f 353/1744 355/1745 356/1746
vt -0.02969 -0.11335
vt 0.02969 -0.11335
vt 0.02360 -0.16098
f 350/1747 346/1748 353/1749
vt -0.02969 -0.11335
vt 0.02360 -0.16098
vt -0.02360 -0.16098
f 350/1750 353/1751 351/1752
vt -0.87000 -0.11335
vt -0.84937 -0.11238
vt -0.83174 -0.14217
f 346/1753 345/1754 354/1755
vt -0.87000 -0.11335
vt -0.83174 -0.14217
vt -0.85048 -0.16098
f 346/1756 354/1757 353/1758
vt 0.02636 -0.11238
vt -0.02636 -0.11238
vt -0.02082 -0.14217
f 345/1759 349/1760 352/1761
vt 0.02636 -0.11238
vt -0.02082 -0.14217
vt 0.02082 -0.14217
f 345/1762 352/1763 354/1764
vt 0.01716 -0.79402
vt -0.01716 -0.79402
vt -0.01716 -0.73883
f 355/1765 357/1766 358/1767
vt 0.01716 -0.79402
vt -0.01716 -0.73883
vt 0.01716 -0.73883
f 355/1768 358/1769 359/1770
vt 0.02082 -0.83174
vt -0.02082 -0.83174
vt -0.01716 -0.79402
f 354/1771 352/1772 357/1773
vt 0.02082 -0.83174
vt -0.01716 -0.79402
vt 0.01716 -0.79402
f 354/1774 357/1775 355/1776
vt -0.83174 -0.14217
vt -0.85048 -0.16098
vt -0.80028 -0.18216
f 352/1777 351/1778 360/1779
vt -0.83174 -0.14217
vt -0.80028 -0.18216
vt -0.79402 -0.15261
f 352/1780 360/1781 357/1782
vt -0.02360 -0.85048
vt 0.02360 -0.85048
vt 0.01716 -0.80028
f 351/1783 353/1784 356/1785
vt -0.02360 -0.85048
vt 0.01716 -0.80028
vt -0.01716 -0.80028
f 351/1786 356/1787 360/1788
vt -0.73883 -0.15568
vt -0.73831 -0.18274
vt -0.67914 -0.17836
f 358/1789 361/1790 362/1791
vt -0.73883 -0.15568
vt -0.67914 -0.17836
vt -0.67849 -0.15566
f 358/1792 362/1793 363/1794
vt -0.79402 -0.15261
vt -0.80028 -0.18216
vt -0.73831 -0.18274
f 357/1795 360/1796 361/1797
vt -0.79402 -0.15261
vt -0.73831 -0.18274
vt -0.73883 -0.15568
f 357/1798 361/1799 358/1800
vt -0.01716 -0.80028
vt 0.01716 -0.80028
vt 0.01716 -0.73831
f 360/1801 356/1802 364/1803
vt -0.01716 -0.80028
vt 0.01716 -0.73831
vt -0.01716 -0.73831
f 360/1804 364/1805 361/1806
vt -0.80028 -0.18216
vt -0.79402 -0.15261
vt -0.73883 -0.15568
f 356/1807 355/1808 359/1809
vt -0.80028 -0.18216
vt -0.73883 -0.15568
vt -0.73831 -0.18274
f 356/1810 359/1811 364/1812
vt -0.67914 -0.17836
vt -0.67849 -0.15566
vt -0.63567 -0.14408
f 365/1813 366/1814 367/1815
vt -0.67914 -0.17836
vt -0.63567 -0.14408
vt -0.62108 -0.16362
f 365/1816 367/1817 368/1818
vt -0.01716 -0.73831
vt 0.01716 -0.73831
vt 0.01716 -0.67914
f 361/1819 364/1820 365/1821
vt -0.01716 -0.73831
vt 0.01716 -0.67914
vt -0.01716 -0.67914
f 361/1822 365/1823 362/1824
vt -0.73831 -0.18274
vt -0.73883 -0.15568
vt -0.67849 -0.15566
f 364/1825 359/1826 366/1827
vt -0.73831 -0.18274
vt -0.67849 -0.15566
vt -0.67914 -0.17836
f 364/1828 366/1829 365/1830
vt 0.01716 -0.73883
vt -0.01716 -0.73883
vt -0.01716 -0.67849
f 359/1831 358/1832 363/1833
vt 0.01716 -0.73883
vt -0.01716 -0.67849
vt 0.01716 -0.67849
f 359/1834 363/1835 366/1836
vt -0.63567 -0.14408
vt -0.62108 -0.16362
vt -0.58863 -0.10763
f 369/1837 370/1838 371/1839
vt -0.63567 -0.14408
vt -0.58863 -0.10763
vt -0.61338 -0.10542
f 369/1840 371/1841 372/1842
vt 0.01716 -0.67849
vt -0.01716 -0.67849
vt -0.01716 -0.63567
f 366/1843 363/1844 369/1845
vt 0.01716 -0.67849
vt -0.01716 -0.63567
vt 0.01716 -0.63567
f 366/1846 369/1847 367/1848
vt -0.67849 -0.15566
vt -0.67914 -0.17836
vt -0.62108 -0.16362
f 363/1849 362/1850 370/1851
vt -0.67849 -0.15566
vt -0.62108 -0.16362
vt -0.63567 -0.14408
f 363/1852 370/1853 369/1854
vt -0.01716 -0.67914
vt 0.01716 -0.67914
vt 0.01716 -0.62108
f 362/1855 365/1856 368/1857
vt -0.01716 -0.67914
vt 0.01716 -0.62108
vt -0.01716 -0.62108
f 362/1858 368/1859 370/1860
vt -0.61338 -0.10542
vt -0.58863 -0.10763
vt -0.56527 -0.06025
f 372/1861 371/1862 373/1863
vt -0.61338 -0.10542
vt -0.56527 -0.06025
vt -0.61431 -0.06025
f 372/1864 373/1865 374/1866
vt -0.01716 -0.16362
vt 0.01716 -0.16362
vt 0.02458 -0.10763
f 370/1867 368/1868 375/1869
vt -0.01716 -0.16362
vt 0.02458 -0.10763
vt -0.02458 -0.10763
f 370/1870 375/1871 371/1872
vt -0.62108 -0.16362
vt -0.63567 -0.14408
vt -0.61338 -0.10542
f 368/1873 367/1874 376/1875
vt -0.62108 -0.16362
vt -0.61338 -0.10542
vt -0.58863 -0.10763
f 368/1876 376/1877 375/1878
vt 0.01716 -0.14408
vt -0.01716 -0.14408
vt -0.02177 -0.10542
f 367/1879 369/1880 372/1881
vt 0.01716 -0.14408
vt -0.02177 -0.10542
vt 0.02177 -0.10542
f 367/1882 372/1883 376/1884
vt -0.56527 -0.06025
vt -0.61431 -0.06025
vt -0.62882 -0.03317
f 377/1885 378/1886 379/1887
vt -0.56527 -0.06025
vt -0.62882 -0.03317
vt -0.55077 -0.03317
f 377/1888 379/1889 380/1890
vt -0.02458 -0.10763
vt 0.02458 -0.10763
vt 0.03347 -0.06025
f 371/1891 375/1892 377/1893
vt -0.02458 -0.10763
vt 0.03347 -0.06025
vt -0.03347 -0.06025
f 371/1894 377/1895 373/1896
vt -0.58863 -0.10763
vt -0.61338 -0.10542
vt -0.61431 -0.06025
f 375/1897 376/1898 378/1899
vt -0.58863 -0.10763
vt -0.61431 -0.06025
vt -0.56527 -0.06025
f 375/1900 378/1901 377/1902
vt 0.02177 -0.10542
vt -0.02177 -0.10542
vt -0.02988 -0.06025
f 376/1903 372/1904 374/1905
vt 0.02177 -0.10542
vt -0.02988 -0.06025
vt 0.02988 -0.06025
f 376/1906 374/1907 378/1908
vt -0.62882 -0.03317
vt -0.55077 -0.03317
vt -0.54540 -0.00269
f 381/1909 382/1910 383/1911
vt -0.62882 -0.03317
vt -0.54540 -0.00269
vt -0.63418 -0.00269
f 381/1912 383/1913 384/1914
vt 0.02988 -0.06025
vt -0.02988 -0.06025
vt -0.03368 -0.03317
f 378/1915 374/1916 381/1917
vt 0.02988 -0.06025
vt -0.03368 -0.03317
vt 0.03368 -0.03317
f 378/1918 381/1919 379/1920
vt -0.61431 -0.06025
vt -0.56527 -0.06025
vt -0.55077 -0.03317
f 374/1921 373/1922 382/1923
vt -0.61431 -0.06025
vt -0.55077 -0.03317
vt -0.62882 -0.03317
f 374/1924 382/1925 381/1926
vt -0.03347 -0.06025
vt 0.03347 -0.06025
vt 0.03513 -0.03317
f 373/1927 377/1928 380/1929
vt -0.03347 -0.06025
vt 0.03513 -0.03317
vt -0.03513 -0.03317
f 373/1930 380/1931 382/1932
vt -0.03513 -0.54540
vt 0.03513 -0.54540
vt 0.03513 -0.63418
f 383/1933 385/1934 386/1935
vt -0.03513 -0.54540
vt 0.03513 -0.63418
vt -0.03513 -0.63418
f 383/1936 386/1937 384/1938
vt -0.03513 -0.03317
vt 0.03513 -0.03317
vt 0.03513 -0.00269
f 382/1939 380/1940 385/1941
vt -0.03513 -0.03317
vt 0.03513 -0.00269
vt -0.03513 -0.00269
f 382/1942 385/1943 383/1944
vt -0.55077 -0.03317
vt -0.62882 -0.03317
vt -0.63418 -0.00269
f 380/1945 379/1946 386/1947
vt -0.55077 -0.03317
vt -0.63418 -0.00269
vt -0.54540 -0.00269
f 380/1948 386/1949 385/1950
vt 0.03368 -0.03317
vt -0.03368 -0.03317
vt -0.03513 -0.00269
f 379/1951 381/1952 384/1953
vt 0.03368 -0.03317
vt -0.03513 -0.00269
vt 0.03513 -0.00269
f 379/1954 384/1955 386/1956
vt -0.04666 -0.32724
vt -0.04666 0.17287
vt 0.04666 0.17287
f 323/1957 318/1958 317/1959
vt -0.04666 -0.32724
vt 0.04666 0.17287
vt 0.04666 -0.32724
f 323/1960 317/1961 324/1962
vt -2.06636 -0.31392
vt -2.02563 -0.33908
vt -2.03057 -0.35561
f 387/1963 388/1964 321/1965
vt -2.06636 -0.31392
vt -2.03057 -0.35561
vt -2.09311 -0.32724
f 387/1966 321/1967 324/1968
vt -2.02563 -0.33908
vt -2.06636 -0.31392
vt -2.09311 -0.32724
f 320/1969 389/1970 323/1971
vt -2.02563 -0.33908
vt -2.09311 -0.32724
vt -2.03057 -0.35561
f 320/1972 323/1973 322/1974
vt -2.13992 0.16243
vt -2.10098 0.19906
vt -2.11117 0.21410
f 390/1975 319/1976 315/1977
vt -2.13992 0.16243
vt -2.11117 0.21410
vt -2.16667 0.17287
f 390/1978 315/1979 318/1980
vt -2.10098 0.19906
vt -2.13992 0.16243
vt -2.16667 0.17287
f 391/1981 392/1982 317/1983
vt -2.10098 0.19906
vt -2.16667 0.17287
vt -2.11117 0.21410
f 391/1984 317/1985 316/1986
vt -0.05813 -0.31656
vt -0.06384 -0.33908
vt -0.04666 -0.35561
f 314/1987 320/1988 322/1989
vt -0.05813 -0.31656
vt -0.04666 -0.35561
vt -0.04248 -0.34331
f 314/1990 322/1991 310/1992
vt -2.06636 -0.31392
vt -2.13992 0.16243
vt -2.16667 0.17287
f 389/1993 390/1994 318/1995
vt -2.06636 -0.31392
vt -2.16667 0.17287
vt -2.09311 -0.32724
f 389/1996 318/1997 323/1998
vt -2.13992 0.16243
vt -2.06636 -0.31392
vt -2.09311 -0.32724
f 392/1999 387/2000 324/2001
vt -2.13992 0.16243
vt -2.09311 -0.32724
vt -2.16667 0.17287
f 392/2002 324/2003 317/2004
vt -0.04248 -2.09909
vt -0.04666 -2.11117
vt -0.06384 -2.10098
f 312/2005 315/2006 319/2007
vt -0.04248 0.21324
vt -0.06384 0.19906
vt -0.05813 0.18811
f 312/2008 319/2009 313/2010
vt 0.05813 0.18811
vt 0.06384 0.19906
vt 0.04666 0.21410
f 308/2011 391/2012 316/2013
vt -2.08977 0.18811
vt -2.11117 0.21410
vt -2.09909 0.21324
f 308/2014 316/2015 311/2016
vt -0.86697 0.00822
vt -0.86697 0.21752
vt -0.74006 0.24302
f 393/2017 394/2018 336/2019
vt -0.86697 0.00822
vt -0.74006 0.24302
vt -0.74006 0.00822
f 393/2020 336/2021 335/2022
vt 0.06564 -0.02456
vt 0.08670 0.00822
vt 0.08670 0.24302
f 395/2023 338/2024 337/2025
vt 0.06564 -0.02456
vt 0.08670 0.24302
vt 0.04769 0.30433
f 395/2026 337/2027 330/2028
vt 0.06564 -0.02456
vt 0.04769 0.30433
vt -0.04769 0.30433
f 395/2029 330/2030 329/2031
vt 0.06564 -0.02456
vt -0.04769 0.30433
vt -0.08670 0.24302
f 395/2032 329/2033 334/2034
vt 0.06564 -0.02456
vt -0.08670 0.24302
vt -0.08670 0.00822
f 395/2035 334/2036 333/2037
vt 0.06564 -0.02456
vt -0.08670 0.00822
vt -0.06564 -0.02456
f 395/2038 333/2039 396/2040
vt -0.06564 -0.86697
vt 0.06564 -0.86697
vt 0.06564 -0.74006
f 397/2041 398/2042 399/2043
vt -0.06564 -0.86697
vt 0.06564 -0.74006
vt -0.06564 -0.74006
f 397/2044 399/2045 400/2046
vt -0.06564 -0.74006
vt 0.06564 -0.74006
vt 0.06564 -0.08769
f 400/2047 399/2048 395/2049
vt -0.06564 -0.74006
vt 0.06564 -0.08769
vt -0.06564 -0.08769
f 400/2050 395/2051 396/2052
vt -0.74006 0.24302
vt -0.08769 0.24302
vt -0.08769 0.30433
f 331/2053 334/2054 329/2055
vt -0.74006 0.24302
vt -0.08769 0.30433
vt -0.74006 0.30433
f 331/2056 329/2057 327/2058
vt -0.74006 0.24302
vt -0.86697 0.21752
vt -0.86697 0.27883
f 336/2059 394/2060 325/2061
vt -0.74006 0.24302
vt -0.86697 0.27883
vt -0.74006 0.30433
f 336/2062 325/2063 328/2064
vt -0.86697 0.21752
vt -0.74006 0.24302
vt -0.74006 0.30433
f 401/2065 331/2066 327/2067
vt -0.86697 0.21752
vt -0.74006 0.30433
vt -0.86697 0.27883
f 401/2068 327/2069 326/2070
vt -0.08769 0.24302
vt -0.74006 0.24302
vt -0.74006 0.30433
f 337/2071 336/2072 328/2073
vt -0.08769 0.24302
vt -0.74006 0.30433
vt -0.08769 0.30433
f 337/2074 328/2075 330/2076
vt -0.86697 0.21752
vt -0.86697 0.00822
vt -0.74006 0.00822
f 401/2077 402/2078 332/2079
vt -0.86697 0.21752
vt -0.74006 0.00822
vt -0.74006 0.24302
f 401/2080 332/2081 331/2082
vt -0.74006 -0.02456
vt -0.86697 -0.02456
vt -0.86697 0.00822
f 399/2083 398/2084 393/2085
vt -0.74006 -0.02456
vt -0.86697 0.00822
vt -0.74006 0.00822
f 399/2086 393/2087 335/2088
vt -0.74006 -0.02456
vt -0.08769 -0.02456
vt -0.08769 0.00822
f 400/2089 396/2090 333/2091
vt -0.74006 -0.02456
vt -0.08769 0.00822
vt -0.74006 0.00822
f 400/2092 333/2093 332/2094
vt -0.08769 -0.02456
vt -0.74006 -0.02456
vt -0.74006 0.00822
f 395/2095 399/2096 335/2097
vt -0.08769 -0.02456
vt -0.74006 0.00822
vt -0.08769 0.00822
f 395/2098 335/2099 338/2100
vt -0.86697 -0.02456
vt -0.74006 -0.02456
vt -0.74006 0.00822
f 397/2101 400/2102 332/2103
vt -0.86697 -0.02456
vt -0.74006 0.00822
vt -0.86697 0.00822
f 397/2104 332/2105 402/2106
vt 0.08670 0.00822
vt 0.06564 -0.02456
vt -0.06564 -0.02456
f 393/2107 398/2108 397/2109
vt 0.08670 0.00822
vt -0.06564 -0.02456
vt -0.08670 0.00822
f 393/2110 397/2111 402/2112
vt 0.08670 0.00822
vt -0.08670 0.00822
vt -0.08670 0.21752
f 393/2113 402/2114 401/2115
vt 0.08670 0.00822
vt -0.08670 0.21752
vt -0.04769 0.27883
f 393/2116 401/2117 326/2118
vt 0.08670 0.00822
vt -0.04769 0.27883
vt 0.04769 0.27883
f 393/2119 326/2120 325/2121
vt 0.08670 0.00822
vt 0.04769 0.27883
vt 0.08670 0.21752
f 393/2122 325/2123 394/2124
vt -0.09451 0.00392
vt -0.04414 0.00392
vt -0.04414 0.24587
f 403/2125 404/2126 405/2127
vt -0.09451 0.00392
vt -0.04414 0.24587
vt -0.09451 0.24587
f 403/2128 405/2129 406/2130
vt 0.09233 0.00392
vt 0.06861 -0.03301
vt -0.06861 -0.03301
f 407/2131 408/2132 409/2133
vt 0.09233 0.00392
vt -0.06861 -0.03301
vt -0.09233 0.00392
f 407/2134 409/2135 403/2136
vt 0.09233 0.00392
vt -0.09233 0.00392
vt -0.09233 0.24587
f 407/2137 403/2138 406/2139
vt 0.09233 0.00392
vt -0.09233 0.24587
vt -0.05296 0.31048
f 407/2140 406/2141 410/2142
vt 0.09233 0.00392
vt -0.05296 0.31048
vt 0.05296 0.31048
f 407/2143 410/2144 411/2145
vt 0.09233 0.00392
vt 0.05296 0.31048
vt 0.09233 0.24587
f 407/2146 411/2147 412/2148
vt -0.05296 -0.09451
vt -0.05296 -0.04414
vt 0.05296 -0.04414
f 410/2149 413/2150 414/2151
vt -0.05296 -0.09451
vt 0.05296 -0.04414
vt 0.05296 -0.09451
f 410/2152 414/2153 411/2154
vt -0.06861 -0.04414
vt -0.06861 -0.09451
vt 0.06861 -0.09451
f 415/2155 409/2156 408/2157
vt -0.06861 -0.04414
vt 0.06861 -0.09451
vt 0.06861 -0.04414
f 415/2158 408/2159 416/2160
vt 0.06861 -0.03301
vt 0.09233 0.00392
vt 0.09233 0.24587
f 416/2161 417/2162 418/2163
vt 0.06861 -0.03301
vt 0.09233 0.24587
vt 0.05296 0.31048
f 416/2164 418/2165 414/2166
vt 0.06861 -0.03301
vt 0.05296 0.31048
vt -0.05296 0.31048
f 416/2167 414/2168 413/2169
vt 0.06861 -0.03301
vt -0.05296 0.31048
vt -0.09233 0.24587
f 416/2170 413/2171 405/2172
vt 0.06861 -0.03301
vt -0.09233 0.24587
vt -0.09233 0.00392
f 416/2173 405/2174 404/2175
vt 0.06861 -0.03301
vt -0.09233 0.00392
vt -0.06861 -0.03301
f 416/2176 404/2177 415/2178
vt -0.09451 -0.03301
vt -0.04414 -0.03301
vt -0.04414 0.00392
f 409/2179 415/2180 404/2181
vt -0.09451 -0.03301
vt -0.04414 0.00392
vt -0.09451 0.00392
f 409/2182 404/2183 403/2184
vt -0.04414 0.31048
vt -0.09451 0.31048
vt -0.09451 0.24587
f 413/2185 410/2186 406/2187
vt -0.04414 0.31048
vt -0.09451 0.24587
vt -0.04414 0.24587
f 413/2188 406/2189 405/2190
vt -0.09451 0.00392
vt -0.04414 0.00392
vt -0.04414 -0.03301
f 407/2191 417/2192 416/2193
vt -0.09451 0.00392
vt -0.04414 -0.03301
vt -0.09451 -0.03301
f 407/2194 416/2195 408/2196
vt -0.04414 0.24587
vt -0.09451 0.24587
vt -0.09451 0.31048
f 418/2197 412/2198 411/2199
vt -0.04414 0.24587
vt -0.09451 0.31048
vt -0.04414 0.31048
f 418/2200 411/2201 414/2202
vt -0.09451 0.00392
vt -0.09451 0.24587
vt -0.04414 0.24587
f 407/2203 412/2204 418/2205
vt -0.09451 0.00392
vt -0.04414 0.24587
vt -0.04414 0.00392
f 407/2206 418/2207 417/2208
vt -2.02563 -0.33908
vt -2.10098 0.19906
vt -2.13992 0.16243
f 320/2209 319/2210 390/2211
vt -2.02563 -0.33908
vt -2.13992 0.16243
vt -2.06636 -0.31392
f 320/2212 390/2213 389/2214
vt -2.10098 0.19906
vt -2.02563 -0.33908
vt -2.06636 -0.31392
f 391/2215 388/2216 387/2217
vt -2.10098 0.19906
vt -2.06636 -0.31392
vt -2.13992 0.16243
f 391/2218 387/2219 392/2220
vt 0.04666 -0.35561
vt 0.04248 -0.34331
vt -0.04248 -0.34331
f 321/2221 309/2222 310/2223
vt 0.04666 -0.35561
vt -0.04248 -0.34331
vt -0.04666 -0.35561
f 321/2224 310/2225 322/2226
vt 0.06384 -0.33908
vt 0.05813 -0.31656
vt 0.04248 -0.34331
f 388/2227 307/2228 309/2229
vt 0.06384 -0.33908
vt 0.04248 -0.34331
vt 0.04666 -0.35561
f 388/2230 309/2231 321/2232
vt -2.02563 -0.33908
vt -2.10098 0.19906
vt -2.08977 0.18811
f 388/2233 391/2234 308/2235
vt -2.02563 -0.33908
vt -2.08977 0.18811
vt -2.01457 -0.31656
f 388/2236 308/2237 307/2238
